<?xml version="1.0" encoding="UTF-8" standalone="no"?><svg xmlns="http://www.w3.org/2000/svg" xmlns:xlink="http://www.w3.org/1999/xlink" clip-rule="evenodd" stroke-miterlimit="10" viewBox="0 0 1920 1080"><desc>SVG generated by Keynote</desc><defs></defs><g transform="matrix(1.00, 0.00, -0.00, -1.00, 0.0, 1080.0)"><g><clipPath id="clip0x7f840c1f5ab0"><path d="M 0.0 1080.0 L 1920.0 1080.0 L 1920.0 0.0 L 0.0 0.0 Z M 0.0 1080.0 "></path></clipPath><g clip-path="url(#clip0x7f840c1f5ab0)"><image xlink:href="../../BF7430C7-5211-4E68-B118-AC68FDB76F0F/assets/A81AF0278930B93F47F55E5BB6D3A023.png" width="1920.00" height="1080.00" transform="matrix(1.00, 0.00, -0.00, -1.00, 0.0, 1080.0)"></image></g></g><text xml:space="preserve" font-family="FiraMono-Regular,Fira Mono" font-size="42.6" fill="#C07B1E" transform="matrix(1.00, 0.00, -0.00, -1.00, 137.0, 890.3)">@</text><text xml:space="preserve" font-family="FiraMono-Regular,Fira Mono" font-size="42.6" fill="#C07B1E" transform="matrix(1.00, 0.00, -0.00, -1.00, 162.6, 890.3)">S</text><text xml:space="preserve" font-family="FiraMono-Regular,Fira Mono" font-size="42.6" fill="#C07B1E" transform="matrix(1.00, 0.00, -0.00, -1.00, 188.2, 890.3)">h</text><text xml:space="preserve" font-family="FiraMono-Regular,Fira Mono" font-size="42.6" fill="#C07B1E" transform="matrix(1.00, 0.00, -0.00, -1.00, 213.8, 890.3)">a</text><text xml:space="preserve" font-family="FiraMono-Regular,Fira Mono" font-size="42.6" fill="#C07B1E" transform="matrix(1.00, 0.00, -0.00, -1.00, 239.3, 890.3)">r</text><text xml:space="preserve" font-family="FiraMono-Regular,Fira Mono" font-size="42.6" fill="#C07B1E" transform="matrix(1.00, 0.00, -0.00, -1.00, 264.9, 890.3)">e</text><text xml:space="preserve" font-family="FiraMono-Regular,Fira Mono" font-size="42.6" fill="#C07B1E" transform="matrix(1.00, 0.00, -0.00, -1.00, 290.5, 890.3)">d</text><text xml:space="preserve" font-family="FiraMono-Regular,Fira Mono" font-size="42.6" fill="#FFFFFF" transform="matrix(1.00, 0.00, -0.00, -1.00, 316.1, 890.3)"> </text><text xml:space="preserve" font-family="FiraMono-Regular,Fira Mono" font-size="42.6" fill="#FFFFFF" transform="matrix(1.00, 0.00, -0.00, -1.00, 341.7, 890.3)">h</text><text xml:space="preserve" font-family="FiraMono-Regular,Fira Mono" font-size="42.6" fill="#FFFFFF" transform="matrix(1.00, 0.00, -0.00, -1.00, 367.3, 890.3)">a</text><text xml:space="preserve" font-family="FiraMono-Regular,Fira Mono" font-size="42.6" fill="#FFFFFF" transform="matrix(1.00, 0.00, -0.00, -1.00, 392.8, 890.3)">n</text><text xml:space="preserve" font-family="FiraMono-Regular,Fira Mono" font-size="42.6" fill="#FFFFFF" transform="matrix(1.00, 0.00, -0.00, -1.00, 418.4, 890.3)">d</text><text xml:space="preserve" font-family="FiraMono-Regular,Fira Mono" font-size="42.6" fill="#FFFFFF" transform="matrix(1.00, 0.00, -0.00, -1.00, 444.0, 890.3)">l</text><text xml:space="preserve" font-family="FiraMono-Regular,Fira Mono" font-size="42.6" fill="#FFFFFF" transform="matrix(1.00, 0.00, -0.00, -1.00, 469.6, 890.3)">e</text><text xml:space="preserve" font-family="FiraMono-Regular,Fira Mono" font-size="42.6" fill="#000000" transform="matrix(1.00, 0.00, -0.00, -1.00, 495.2, 890.3)"> </text><text xml:space="preserve" font-family="FiraMono-Regular,Fira Mono" font-size="42.6" fill="#FFFFFF" transform="matrix(1.00, 0.00, -0.00, -1.00, 520.8, 890.3)">=</text><text xml:space="preserve" font-family="FiraMono-Regular,Fira Mono" font-size="42.6" fill="#000000" transform="matrix(1.00, 0.00, -0.00, -1.00, 546.3, 890.3)"> </text><text xml:space="preserve" font-family="FiraMono-Regular,Fira Mono" font-size="42.6" fill="#FFFFFF" transform="matrix(1.00, 0.00, -0.00, -1.00, 571.9, 890.3)">D</text><text xml:space="preserve" font-family="FiraMono-Regular,Fira Mono" font-size="42.6" fill="#FFFFFF" transform="matrix(1.00, 0.00, -0.00, -1.00, 597.5, 890.3)">B</text><text xml:space="preserve" font-family="FiraMono-Regular,Fira Mono" font-size="42.6" fill="#FFFFFF" transform="matrix(1.00, 0.00, -0.00, -1.00, 623.1, 890.3)">I</text><text xml:space="preserve" font-family="FiraMono-Regular,Fira Mono" font-size="42.6" fill="#FFFFFF" transform="matrix(1.00, 0.00, -0.00, -1.00, 648.7, 890.3)">.</text><text xml:space="preserve" font-family="FiraMono-Regular,Fira Mono" font-size="42.6" fill="#FFFFFF" transform="matrix(1.00, 0.00, -0.00, -1.00, 674.3, 890.3)">o</text><text xml:space="preserve" font-family="FiraMono-Regular,Fira Mono" font-size="42.6" fill="#FFFFFF" transform="matrix(1.00, 0.00, -0.00, -1.00, 699.8, 890.3)">p</text><text xml:space="preserve" font-family="FiraMono-Regular,Fira Mono" font-size="42.6" fill="#FFFFFF" transform="matrix(1.00, 0.00, -0.00, -1.00, 725.4, 890.3)">e</text><text xml:space="preserve" font-family="FiraMono-Regular,Fira Mono" font-size="42.6" fill="#FFFFFF" transform="matrix(1.00, 0.00, -0.00, -1.00, 751.0, 890.3)">n</text><text xml:space="preserve" font-family="FiraMono-Regular,Fira Mono" font-size="42.6" fill="#FFFFFF" transform="matrix(1.00, 0.00, -0.00, -1.00, 776.6, 890.3)">(</text><text xml:space="preserve" font-family="FiraMono-Regular,Fira Mono" font-size="42.6" fill="#FF2600" transform="matrix(1.00, 0.00, -0.00, -1.00, 802.2, 890.3)">"</text><text xml:space="preserve" font-family="FiraMono-Regular,Fira Mono" font-size="42.6" fill="#FF2600" transform="matrix(1.00, 0.00, -0.00, -1.00, 827.8, 890.3)">j</text><text xml:space="preserve" font-family="FiraMono-Regular,Fira Mono" font-size="42.6" fill="#FF2600" transform="matrix(1.00, 0.00, -0.00, -1.00, 853.4, 890.3)">d</text><text xml:space="preserve" font-family="FiraMono-Regular,Fira Mono" font-size="42.6" fill="#FF2600" transform="matrix(1.00, 0.00, -0.00, -1.00, 878.9, 890.3)">b</text><text xml:space="preserve" font-family="FiraMono-Regular,Fira Mono" font-size="42.6" fill="#FF2600" transform="matrix(1.00, 0.00, -0.00, -1.00, 904.5, 890.3)">c</text><text xml:space="preserve" font-family="FiraMono-Regular,Fira Mono" font-size="42.6" fill="#FF2600" transform="matrix(1.00, 0.00, -0.00, -1.00, 930.1, 890.3)">:</text><text xml:space="preserve" font-family="FiraMono-Regular,Fira Mono" font-size="42.6" fill="#FF2600" transform="matrix(1.00, 0.00, -0.00, -1.00, 955.7, 890.3)">h</text><text xml:space="preserve" font-family="FiraMono-Regular,Fira Mono" font-size="42.6" fill="#FF2600" transform="matrix(1.00, 0.00, -0.00, -1.00, 981.3, 890.3)">2</text><text xml:space="preserve" font-family="FiraMono-Regular,Fira Mono" font-size="42.6" fill="#FF2600" transform="matrix(1.00, 0.00, -0.00, -1.00, 1006.9, 890.3)">:</text><text xml:space="preserve" font-family="FiraMono-Regular,Fira Mono" font-size="42.6" fill="#FF2600" transform="matrix(1.00, 0.00, -0.00, -1.00, 1032.4, 890.3)">m</text><text xml:space="preserve" font-family="FiraMono-Regular,Fira Mono" font-size="42.6" fill="#FF2600" transform="matrix(1.00, 0.00, -0.00, -1.00, 1058.0, 890.3)">e</text><text xml:space="preserve" font-family="FiraMono-Regular,Fira Mono" font-size="42.6" fill="#FF2600" transform="matrix(1.00, 0.00, -0.00, -1.00, 1083.6, 890.3)">m</text><text xml:space="preserve" font-family="FiraMono-Regular,Fira Mono" font-size="42.6" fill="#FF2600" transform="matrix(1.00, 0.00, -0.00, -1.00, 1109.2, 890.3)">:</text><text xml:space="preserve" font-family="FiraMono-Regular,Fira Mono" font-size="42.6" fill="#FF2600" transform="matrix(1.00, 0.00, -0.00, -1.00, 1134.8, 890.3)">t</text><text xml:space="preserve" font-family="FiraMono-Regular,Fira Mono" font-size="42.6" fill="#FF2600" transform="matrix(1.00, 0.00, -0.00, -1.00, 1160.4, 890.3)">e</text><text xml:space="preserve" font-family="FiraMono-Regular,Fira Mono" font-size="42.6" fill="#FF2600" transform="matrix(1.00, 0.00, -0.00, -1.00, 1185.9, 890.3)">s</text><text xml:space="preserve" font-family="FiraMono-Regular,Fira Mono" font-size="42.6" fill="#FF2600" transform="matrix(1.00, 0.00, -0.00, -1.00, 1211.5, 890.3)">t</text><text xml:space="preserve" font-family="FiraMono-Regular,Fira Mono" font-size="42.6" fill="#FF2600" transform="matrix(1.00, 0.00, -0.00, -1.00, 1237.1, 890.3)">"</text><text xml:space="preserve" font-family="FiraMono-Regular,Fira Mono" font-size="42.6" fill="#FFFFFF" transform="matrix(1.00, 0.00, -0.00, -1.00, 1262.7, 890.3)">)</text><text xml:space="preserve" font-family="FiraMono-Regular,Fira Mono" font-size="42.6" fill="#000000" transform="matrix(1.00, 0.00, -0.00, -1.00, 1288.3, 890.3)"> </text><text xml:space="preserve" font-family="FiraMono-Regular,Fira Mono" font-size="42.6" fill="#C07B1E" transform="matrix(1.00, 0.00, -0.00, -1.00, 137.0, 758.3)">d</text><text xml:space="preserve" font-family="FiraMono-Regular,Fira Mono" font-size="42.6" fill="#C07B1E" transform="matrix(1.00, 0.00, -0.00, -1.00, 162.6, 758.3)">e</text><text xml:space="preserve" font-family="FiraMono-Regular,Fira Mono" font-size="42.6" fill="#C07B1E" transform="matrix(1.00, 0.00, -0.00, -1.00, 188.2, 758.3)">f</text><text xml:space="preserve" font-family="FiraMono-Regular,Fira Mono" font-size="42.6" fill="#000000" transform="matrix(1.00, 0.00, -0.00, -1.00, 213.8, 758.3)"> </text><text xml:space="preserve" font-family="FiraMono-Regular,Fira Mono" font-size="42.6" fill="#FF2600" transform="matrix(1.00, 0.00, -0.00, -1.00, 239.3, 758.3)">"</text><text xml:space="preserve" font-family="FiraMono-Regular,Fira Mono" font-size="42.6" fill="#FF2600" transform="matrix(1.00, 0.00, -0.00, -1.00, 264.9, 758.3)">w</text><text xml:space="preserve" font-family="FiraMono-Regular,Fira Mono" font-size="42.6" fill="#FF2600" transform="matrix(1.00, 0.00, -0.00, -1.00, 290.5, 758.3)">r</text><text xml:space="preserve" font-family="FiraMono-Regular,Fira Mono" font-size="42.6" fill="#FF2600" transform="matrix(1.00, 0.00, -0.00, -1.00, 316.1, 758.3)">i</text><text xml:space="preserve" font-family="FiraMono-Regular,Fira Mono" font-size="42.6" fill="#FF2600" transform="matrix(1.00, 0.00, -0.00, -1.00, 341.7, 758.3)">t</text><text xml:space="preserve" font-family="FiraMono-Regular,Fira Mono" font-size="42.6" fill="#FF2600" transform="matrix(1.00, 0.00, -0.00, -1.00, 367.3, 758.3)">e</text><text xml:space="preserve" font-family="FiraMono-Regular,Fira Mono" font-size="42.6" fill="#FF2600" transform="matrix(1.00, 0.00, -0.00, -1.00, 392.8, 758.3)">s</text><text xml:space="preserve" font-family="FiraMono-Regular,Fira Mono" font-size="42.6" fill="#FF2600" transform="matrix(1.00, 0.00, -0.00, -1.00, 418.4, 758.3)"> </text><text xml:space="preserve" font-family="FiraMono-Regular,Fira Mono" font-size="42.6" fill="#FF2600" transform="matrix(1.00, 0.00, -0.00, -1.00, 444.0, 758.3)">t</text><text xml:space="preserve" font-family="FiraMono-Regular,Fira Mono" font-size="42.6" fill="#FF2600" transform="matrix(1.00, 0.00, -0.00, -1.00, 469.6, 758.3)">o</text><text xml:space="preserve" font-family="FiraMono-Regular,Fira Mono" font-size="42.6" fill="#FF2600" transform="matrix(1.00, 0.00, -0.00, -1.00, 495.2, 758.3)"> </text><text xml:space="preserve" font-family="FiraMono-Regular,Fira Mono" font-size="42.6" fill="#FF2600" transform="matrix(1.00, 0.00, -0.00, -1.00, 520.8, 758.3)">t</text><text xml:space="preserve" font-family="FiraMono-Regular,Fira Mono" font-size="42.6" fill="#FF2600" transform="matrix(1.00, 0.00, -0.00, -1.00, 546.3, 758.3)">h</text><text xml:space="preserve" font-family="FiraMono-Regular,Fira Mono" font-size="42.6" fill="#FF2600" transform="matrix(1.00, 0.00, -0.00, -1.00, 571.9, 758.3)">e</text><text xml:space="preserve" font-family="FiraMono-Regular,Fira Mono" font-size="42.6" fill="#FF2600" transform="matrix(1.00, 0.00, -0.00, -1.00, 597.5, 758.3)"> </text><text xml:space="preserve" font-family="FiraMono-Regular,Fira Mono" font-size="42.6" fill="#FF2600" transform="matrix(1.00, 0.00, -0.00, -1.00, 623.1, 758.3)">d</text><text xml:space="preserve" font-family="FiraMono-Regular,Fira Mono" font-size="42.6" fill="#FF2600" transform="matrix(1.00, 0.00, -0.00, -1.00, 648.7, 758.3)">a</text><text xml:space="preserve" font-family="FiraMono-Regular,Fira Mono" font-size="42.6" fill="#FF2600" transform="matrix(1.00, 0.00, -0.00, -1.00, 674.3, 758.3)">t</text><text xml:space="preserve" font-family="FiraMono-Regular,Fira Mono" font-size="42.6" fill="#FF2600" transform="matrix(1.00, 0.00, -0.00, -1.00, 699.8, 758.3)">a</text><text xml:space="preserve" font-family="FiraMono-Regular,Fira Mono" font-size="42.6" fill="#FF2600" transform="matrix(1.00, 0.00, -0.00, -1.00, 725.4, 758.3)">b</text><text xml:space="preserve" font-family="FiraMono-Regular,Fira Mono" font-size="42.6" fill="#FF2600" transform="matrix(1.00, 0.00, -0.00, -1.00, 751.0, 758.3)">a</text><text xml:space="preserve" font-family="FiraMono-Regular,Fira Mono" font-size="42.6" fill="#FF2600" transform="matrix(1.00, 0.00, -0.00, -1.00, 776.6, 758.3)">s</text><text xml:space="preserve" font-family="FiraMono-Regular,Fira Mono" font-size="42.6" fill="#FF2600" transform="matrix(1.00, 0.00, -0.00, -1.00, 802.2, 758.3)">e</text><text xml:space="preserve" font-family="FiraMono-Regular,Fira Mono" font-size="42.6" fill="#FF2600" transform="matrix(1.00, 0.00, -0.00, -1.00, 827.8, 758.3)"> </text><text xml:space="preserve" font-family="FiraMono-Regular,Fira Mono" font-size="42.6" fill="#FF2600" transform="matrix(1.00, 0.00, -0.00, -1.00, 853.4, 758.3)">w</text><text xml:space="preserve" font-family="FiraMono-Regular,Fira Mono" font-size="42.6" fill="#FF2600" transform="matrix(1.00, 0.00, -0.00, -1.00, 878.9, 758.3)">h</text><text xml:space="preserve" font-family="FiraMono-Regular,Fira Mono" font-size="42.6" fill="#FF2600" transform="matrix(1.00, 0.00, -0.00, -1.00, 904.5, 758.3)">e</text><text xml:space="preserve" font-family="FiraMono-Regular,Fira Mono" font-size="42.6" fill="#FF2600" transform="matrix(1.00, 0.00, -0.00, -1.00, 930.1, 758.3)">n</text><text xml:space="preserve" font-family="FiraMono-Regular,Fira Mono" font-size="42.6" fill="#FF2600" transform="matrix(1.00, 0.00, -0.00, -1.00, 955.7, 758.3)"> </text><text xml:space="preserve" font-family="FiraMono-Regular,Fira Mono" font-size="42.6" fill="#FF2600" transform="matrix(1.00, 0.00, -0.00, -1.00, 981.3, 758.3)">d</text><text xml:space="preserve" font-family="FiraMono-Regular,Fira Mono" font-size="42.6" fill="#FF2600" transform="matrix(1.00, 0.00, -0.00, -1.00, 1006.9, 758.3)">a</text><text xml:space="preserve" font-family="FiraMono-Regular,Fira Mono" font-size="42.6" fill="#FF2600" transform="matrix(1.00, 0.00, -0.00, -1.00, 1032.4, 758.3)">t</text><text xml:space="preserve" font-family="FiraMono-Regular,Fira Mono" font-size="42.6" fill="#FF2600" transform="matrix(1.00, 0.00, -0.00, -1.00, 1058.0, 758.3)">a</text><text xml:space="preserve" font-family="FiraMono-Regular,Fira Mono" font-size="42.6" fill="#FF2600" transform="matrix(1.00, 0.00, -0.00, -1.00, 1083.6, 758.3)"> </text><text xml:space="preserve" font-family="FiraMono-Regular,Fira Mono" font-size="42.6" fill="#FF2600" transform="matrix(1.00, 0.00, -0.00, -1.00, 1109.2, 758.3)">i</text><text xml:space="preserve" font-family="FiraMono-Regular,Fira Mono" font-size="42.6" fill="#FF2600" transform="matrix(1.00, 0.00, -0.00, -1.00, 1134.8, 758.3)">s</text><text xml:space="preserve" font-family="FiraMono-Regular,Fira Mono" font-size="42.6" fill="#FF2600" transform="matrix(1.00, 0.00, -0.00, -1.00, 1160.4, 758.3)"> </text><text xml:space="preserve" font-family="FiraMono-Regular,Fira Mono" font-size="42.6" fill="#FF2600" transform="matrix(1.00, 0.00, -0.00, -1.00, 1185.9, 758.3)">a</text><text xml:space="preserve" font-family="FiraMono-Regular,Fira Mono" font-size="42.6" fill="#FF2600" transform="matrix(1.00, 0.00, -0.00, -1.00, 1211.5, 758.3)">d</text><text xml:space="preserve" font-family="FiraMono-Regular,Fira Mono" font-size="42.6" fill="#FF2600" transform="matrix(1.00, 0.00, -0.00, -1.00, 1237.1, 758.3)">d</text><text xml:space="preserve" font-family="FiraMono-Regular,Fira Mono" font-size="42.6" fill="#FF2600" transform="matrix(1.00, 0.00, -0.00, -1.00, 1262.7, 758.3)">e</text><text xml:space="preserve" font-family="FiraMono-Regular,Fira Mono" font-size="42.6" fill="#FF2600" transform="matrix(1.00, 0.00, -0.00, -1.00, 1288.3, 758.3)">d</text><text xml:space="preserve" font-family="FiraMono-Regular,Fira Mono" font-size="42.6" fill="#FF2600" transform="matrix(1.00, 0.00, -0.00, -1.00, 1313.9, 758.3)">"</text><text xml:space="preserve" font-family="FiraMono-Regular,Fira Mono" font-size="42.6" fill="#FFFFFF" transform="matrix(1.00, 0.00, -0.00, -1.00, 1339.4, 758.3)">(</text><text xml:space="preserve" font-family="FiraMono-Regular,Fira Mono" font-size="42.6" fill="#FFFFFF" transform="matrix(1.00, 0.00, -0.00, -1.00, 1365.0, 758.3)">)</text><text xml:space="preserve" font-family="FiraMono-Regular,Fira Mono" font-size="42.6" fill="#FFFFFF" transform="matrix(1.00, 0.00, -0.00, -1.00, 1390.6, 758.3)"> </text><text xml:space="preserve" font-family="FiraMono-Regular,Fira Mono" font-size="42.6" fill="#FFFFFF" transform="matrix(1.00, 0.00, -0.00, -1.00, 1416.2, 758.3)">{</text><text xml:space="preserve" font-family="FiraMono-Regular,Fira Mono" font-size="42.6" fill="#000000" transform="matrix(1.00, 0.00, -0.00, -1.00, 1441.8, 758.3)"> </text><text xml:space="preserve" font-family="FiraMono-Regular,Fira Mono" font-size="42.6" fill="#FFFFFF" transform="matrix(1.00, 0.00, -0.00, -1.00, 137.0, 692.3)"> </text><text xml:space="preserve" font-family="FiraMono-Regular,Fira Mono" font-size="42.6" fill="#FFFFFF" transform="matrix(1.00, 0.00, -0.00, -1.00, 162.6, 692.3)"> </text><text xml:space="preserve" font-family="FiraMono-Regular,Fira Mono" font-size="42.6" fill="#FFFFFF" transform="matrix(1.00, 0.00, -0.00, -1.00, 188.2, 692.3)">g</text><text xml:space="preserve" font-family="FiraMono-Regular,Fira Mono" font-size="42.6" fill="#FFFFFF" transform="matrix(1.00, 0.00, -0.00, -1.00, 213.8, 692.3)">i</text><text xml:space="preserve" font-family="FiraMono-Regular,Fira Mono" font-size="42.6" fill="#FFFFFF" transform="matrix(1.00, 0.00, -0.00, -1.00, 239.3, 692.3)">v</text><text xml:space="preserve" font-family="FiraMono-Regular,Fira Mono" font-size="42.6" fill="#FFFFFF" transform="matrix(1.00, 0.00, -0.00, -1.00, 264.9, 692.3)">e</text><text xml:space="preserve" font-family="FiraMono-Regular,Fira Mono" font-size="42.6" fill="#FFFFFF" transform="matrix(1.00, 0.00, -0.00, -1.00, 290.5, 692.3)">n</text><text xml:space="preserve" font-family="FiraMono-Regular,Fira Mono" font-size="42.6" fill="#FFFFFF" transform="matrix(1.00, 0.00, -0.00, -1.00, 316.1, 692.3)">:</text><text xml:space="preserve" font-family="FiraMono-Regular,Fira Mono" font-size="42.6" fill="#000000" transform="matrix(1.00, 0.00, -0.00, -1.00, 341.7, 692.3)"> </text><text xml:space="preserve" font-family="FiraMono-Regular,Fira Mono" font-size="42.6" fill="#000000" transform="matrix(1.00, 0.00, -0.00, -1.00, 137.0, 626.3)"> </text><text xml:space="preserve" font-family="FiraMono-Regular,Fira Mono" font-size="42.6" fill="#000000" transform="matrix(1.00, 0.00, -0.00, -1.00, 162.6, 626.3)"> </text><text xml:space="preserve" font-family="FiraMono-Regular,Fira Mono" font-size="42.6" fill="#C07B1E" transform="matrix(1.00, 0.00, -0.00, -1.00, 188.2, 626.3)">d</text><text xml:space="preserve" font-family="FiraMono-Regular,Fira Mono" font-size="42.6" fill="#C07B1E" transform="matrix(1.00, 0.00, -0.00, -1.00, 213.8, 626.3)">e</text><text xml:space="preserve" font-family="FiraMono-Regular,Fira Mono" font-size="42.6" fill="#C07B1E" transform="matrix(1.00, 0.00, -0.00, -1.00, 239.3, 626.3)">f</text><text xml:space="preserve" font-family="FiraMono-Regular,Fira Mono" font-size="42.6" fill="#000000" transform="matrix(1.00, 0.00, -0.00, -1.00, 264.9, 626.3)"> </text><text xml:space="preserve" font-family="FiraMono-Regular,Fira Mono" font-size="42.6" fill="#FFFFFF" transform="matrix(1.00, 0.00, -0.00, -1.00, 290.5, 626.3)">u</text><text xml:space="preserve" font-family="FiraMono-Regular,Fira Mono" font-size="42.6" fill="#FFFFFF" transform="matrix(1.00, 0.00, -0.00, -1.00, 316.1, 626.3)">s</text><text xml:space="preserve" font-family="FiraMono-Regular,Fira Mono" font-size="42.6" fill="#FFFFFF" transform="matrix(1.00, 0.00, -0.00, -1.00, 341.7, 626.3)">e</text><text xml:space="preserve" font-family="FiraMono-Regular,Fira Mono" font-size="42.6" fill="#FFFFFF" transform="matrix(1.00, 0.00, -0.00, -1.00, 367.3, 626.3)">r</text><text xml:space="preserve" font-family="FiraMono-Regular,Fira Mono" font-size="42.6" fill="#000000" transform="matrix(1.00, 0.00, -0.00, -1.00, 392.8, 626.3)"> </text><text xml:space="preserve" font-family="FiraMono-Regular,Fira Mono" font-size="42.6" fill="#FFFFFF" transform="matrix(1.00, 0.00, -0.00, -1.00, 418.4, 626.3)">=</text><text xml:space="preserve" font-family="FiraMono-Regular,Fira Mono" font-size="42.6" fill="#000000" transform="matrix(1.00, 0.00, -0.00, -1.00, 444.0, 626.3)"> </text><text xml:space="preserve" font-family="FiraMono-Regular,Fira Mono" font-size="42.6" fill="#C07B1E" transform="matrix(1.00, 0.00, -0.00, -1.00, 469.6, 626.3)">n</text><text xml:space="preserve" font-family="FiraMono-Regular,Fira Mono" font-size="42.6" fill="#C07B1E" transform="matrix(1.00, 0.00, -0.00, -1.00, 495.2, 626.3)">e</text><text xml:space="preserve" font-family="FiraMono-Regular,Fira Mono" font-size="42.6" fill="#C07B1E" transform="matrix(1.00, 0.00, -0.00, -1.00, 520.8, 626.3)">w</text><text xml:space="preserve" font-family="FiraMono-Regular,Fira Mono" font-size="42.6" fill="#000000" transform="matrix(1.00, 0.00, -0.00, -1.00, 546.3, 626.3)"> </text><text xml:space="preserve" font-family="FiraMono-Regular,Fira Mono" font-size="42.6" fill="#FFFFFF" transform="matrix(1.00, 0.00, -0.00, -1.00, 571.9, 626.3)">U</text><text xml:space="preserve" font-family="FiraMono-Regular,Fira Mono" font-size="42.6" fill="#FFFFFF" transform="matrix(1.00, 0.00, -0.00, -1.00, 597.5, 626.3)">s</text><text xml:space="preserve" font-family="FiraMono-Regular,Fira Mono" font-size="42.6" fill="#FFFFFF" transform="matrix(1.00, 0.00, -0.00, -1.00, 623.1, 626.3)">e</text><text xml:space="preserve" font-family="FiraMono-Regular,Fira Mono" font-size="42.6" fill="#FFFFFF" transform="matrix(1.00, 0.00, -0.00, -1.00, 648.7, 626.3)">r</text><text xml:space="preserve" font-family="FiraMono-Regular,Fira Mono" font-size="42.6" fill="#FFFFFF" transform="matrix(1.00, 0.00, -0.00, -1.00, 674.3, 626.3)">(</text><text xml:space="preserve" font-family="FiraMono-Regular,Fira Mono" font-size="42.6" fill="#FFFFFF" transform="matrix(1.00, 0.00, -0.00, -1.00, 699.8, 626.3)">n</text><text xml:space="preserve" font-family="FiraMono-Regular,Fira Mono" font-size="42.6" fill="#FFFFFF" transform="matrix(1.00, 0.00, -0.00, -1.00, 725.4, 626.3)">a</text><text xml:space="preserve" font-family="FiraMono-Regular,Fira Mono" font-size="42.6" fill="#FFFFFF" transform="matrix(1.00, 0.00, -0.00, -1.00, 751.0, 626.3)">m</text><text xml:space="preserve" font-family="FiraMono-Regular,Fira Mono" font-size="42.6" fill="#FFFFFF" transform="matrix(1.00, 0.00, -0.00, -1.00, 776.6, 626.3)">e</text><text xml:space="preserve" font-family="FiraMono-Regular,Fira Mono" font-size="42.6" fill="#FFFFFF" transform="matrix(1.00, 0.00, -0.00, -1.00, 802.2, 626.3)">:</text><text xml:space="preserve" font-family="FiraMono-Regular,Fira Mono" font-size="42.6" fill="#000000" transform="matrix(1.00, 0.00, -0.00, -1.00, 827.8, 626.3)"> </text><text xml:space="preserve" font-family="FiraMono-Regular,Fira Mono" font-size="42.6" fill="#FF2600" transform="matrix(1.00, 0.00, -0.00, -1.00, 853.4, 626.3)">"</text><text xml:space="preserve" font-family="FiraMono-Regular,Fira Mono" font-size="42.6" fill="#FF2600" transform="matrix(1.00, 0.00, -0.00, -1.00, 878.9, 626.3)">S</text><text xml:space="preserve" font-family="FiraMono-Regular,Fira Mono" font-size="42.6" fill="#FF2600" transform="matrix(1.00, 0.00, -0.00, -1.00, 904.5, 626.3)">p</text><text xml:space="preserve" font-family="FiraMono-Regular,Fira Mono" font-size="42.6" fill="#FF2600" transform="matrix(1.00, 0.00, -0.00, -1.00, 930.1, 626.3)">o</text><text xml:space="preserve" font-family="FiraMono-Regular,Fira Mono" font-size="42.6" fill="#FF2600" transform="matrix(1.00, 0.00, -0.00, -1.00, 955.7, 626.3)">c</text><text xml:space="preserve" font-family="FiraMono-Regular,Fira Mono" font-size="42.6" fill="#FF2600" transform="matrix(1.00, 0.00, -0.00, -1.00, 981.3, 626.3)">k</text><text xml:space="preserve" font-family="FiraMono-Regular,Fira Mono" font-size="42.6" fill="#FF2600" transform="matrix(1.00, 0.00, -0.00, -1.00, 1006.9, 626.3)">"</text><text xml:space="preserve" font-family="FiraMono-Regular,Fira Mono" font-size="42.6" fill="#FFFFFF" transform="matrix(1.00, 0.00, -0.00, -1.00, 1032.4, 626.3)">)</text><text xml:space="preserve" font-family="FiraMono-Regular,Fira Mono" font-size="42.6" fill="#000000" transform="matrix(1.00, 0.00, -0.00, -1.00, 1058.0, 626.3)"> </text><text xml:space="preserve" font-family="FiraMono-Regular,Fira Mono" font-size="42.6" fill="#FFFFFF" transform="matrix(1.00, 0.00, -0.00, -1.00, 137.0, 494.3)"> </text><text xml:space="preserve" font-family="FiraMono-Regular,Fira Mono" font-size="42.6" fill="#FFFFFF" transform="matrix(1.00, 0.00, -0.00, -1.00, 162.6, 494.3)"> </text><text xml:space="preserve" font-family="FiraMono-Regular,Fira Mono" font-size="42.6" fill="#FFFFFF" transform="matrix(1.00, 0.00, -0.00, -1.00, 188.2, 494.3)">w</text><text xml:space="preserve" font-family="FiraMono-Regular,Fira Mono" font-size="42.6" fill="#FFFFFF" transform="matrix(1.00, 0.00, -0.00, -1.00, 213.8, 494.3)">h</text><text xml:space="preserve" font-family="FiraMono-Regular,Fira Mono" font-size="42.6" fill="#FFFFFF" transform="matrix(1.00, 0.00, -0.00, -1.00, 239.3, 494.3)">e</text><text xml:space="preserve" font-family="FiraMono-Regular,Fira Mono" font-size="42.6" fill="#FFFFFF" transform="matrix(1.00, 0.00, -0.00, -1.00, 264.9, 494.3)">n</text><text xml:space="preserve" font-family="FiraMono-Regular,Fira Mono" font-size="42.6" fill="#FFFFFF" transform="matrix(1.00, 0.00, -0.00, -1.00, 290.5, 494.3)">:</text><text xml:space="preserve" font-family="FiraMono-Regular,Fira Mono" font-size="42.6" fill="#000000" transform="matrix(1.00, 0.00, -0.00, -1.00, 316.1, 494.3)"> </text><text xml:space="preserve" font-family="FiraMono-Regular,Fira Mono" font-size="42.6" fill="#FFFFFF" transform="matrix(1.00, 0.00, -0.00, -1.00, 137.0, 428.3)"> </text><text xml:space="preserve" font-family="FiraMono-Regular,Fira Mono" font-size="42.6" fill="#FFFFFF" transform="matrix(1.00, 0.00, -0.00, -1.00, 162.6, 428.3)"> </text><text xml:space="preserve" font-family="FiraMono-Regular,Fira Mono" font-size="42.6" fill="#FFFFFF" transform="matrix(1.00, 0.00, -0.00, -1.00, 188.2, 428.3)">u</text><text xml:space="preserve" font-family="FiraMono-Regular,Fira Mono" font-size="42.6" fill="#FFFFFF" transform="matrix(1.00, 0.00, -0.00, -1.00, 213.8, 428.3)">s</text><text xml:space="preserve" font-family="FiraMono-Regular,Fira Mono" font-size="42.6" fill="#FFFFFF" transform="matrix(1.00, 0.00, -0.00, -1.00, 239.3, 428.3)">e</text><text xml:space="preserve" font-family="FiraMono-Regular,Fira Mono" font-size="42.6" fill="#FFFFFF" transform="matrix(1.00, 0.00, -0.00, -1.00, 264.9, 428.3)">r</text><text xml:space="preserve" font-family="FiraMono-Regular,Fira Mono" font-size="42.6" fill="#FFFFFF" transform="matrix(1.00, 0.00, -0.00, -1.00, 290.5, 428.3)">S</text><text xml:space="preserve" font-family="FiraMono-Regular,Fira Mono" font-size="42.6" fill="#FFFFFF" transform="matrix(1.00, 0.00, -0.00, -1.00, 316.1, 428.3)">t</text><text xml:space="preserve" font-family="FiraMono-Regular,Fira Mono" font-size="42.6" fill="#FFFFFF" transform="matrix(1.00, 0.00, -0.00, -1.00, 341.7, 428.3)">o</text><text xml:space="preserve" font-family="FiraMono-Regular,Fira Mono" font-size="42.6" fill="#FFFFFF" transform="matrix(1.00, 0.00, -0.00, -1.00, 367.3, 428.3)">r</text><text xml:space="preserve" font-family="FiraMono-Regular,Fira Mono" font-size="42.6" fill="#FFFFFF" transform="matrix(1.00, 0.00, -0.00, -1.00, 392.8, 428.3)">e</text><text xml:space="preserve" font-family="FiraMono-Regular,Fira Mono" font-size="42.6" fill="#FFFFFF" transform="matrix(1.00, 0.00, -0.00, -1.00, 418.4, 428.3)">.</text><text xml:space="preserve" font-family="FiraMono-Regular,Fira Mono" font-size="42.6" fill="#FFFFFF" transform="matrix(1.00, 0.00, -0.00, -1.00, 444.0, 428.3)">p</text><text xml:space="preserve" font-family="FiraMono-Regular,Fira Mono" font-size="42.6" fill="#FFFFFF" transform="matrix(1.00, 0.00, -0.00, -1.00, 469.6, 428.3)">e</text><text xml:space="preserve" font-family="FiraMono-Regular,Fira Mono" font-size="42.6" fill="#FFFFFF" transform="matrix(1.00, 0.00, -0.00, -1.00, 495.2, 428.3)">r</text><text xml:space="preserve" font-family="FiraMono-Regular,Fira Mono" font-size="42.6" fill="#FFFFFF" transform="matrix(1.00, 0.00, -0.00, -1.00, 520.8, 428.3)">s</text><text xml:space="preserve" font-family="FiraMono-Regular,Fira Mono" font-size="42.6" fill="#FFFFFF" transform="matrix(1.00, 0.00, -0.00, -1.00, 546.3, 428.3)">i</text><text xml:space="preserve" font-family="FiraMono-Regular,Fira Mono" font-size="42.6" fill="#FFFFFF" transform="matrix(1.00, 0.00, -0.00, -1.00, 571.9, 428.3)">s</text><text xml:space="preserve" font-family="FiraMono-Regular,Fira Mono" font-size="42.6" fill="#FFFFFF" transform="matrix(1.00, 0.00, -0.00, -1.00, 597.5, 428.3)">t</text><text xml:space="preserve" font-family="FiraMono-Regular,Fira Mono" font-size="42.6" fill="#FFFFFF" transform="matrix(1.00, 0.00, -0.00, -1.00, 623.1, 428.3)">(</text><text xml:space="preserve" font-family="FiraMono-Regular,Fira Mono" font-size="42.6" fill="#FFFFFF" transform="matrix(1.00, 0.00, -0.00, -1.00, 648.7, 428.3)">u</text><text xml:space="preserve" font-family="FiraMono-Regular,Fira Mono" font-size="42.6" fill="#FFFFFF" transform="matrix(1.00, 0.00, -0.00, -1.00, 674.3, 428.3)">s</text><text xml:space="preserve" font-family="FiraMono-Regular,Fira Mono" font-size="42.6" fill="#FFFFFF" transform="matrix(1.00, 0.00, -0.00, -1.00, 699.8, 428.3)">e</text><text xml:space="preserve" font-family="FiraMono-Regular,Fira Mono" font-size="42.6" fill="#FFFFFF" transform="matrix(1.00, 0.00, -0.00, -1.00, 725.4, 428.3)">r</text><text xml:space="preserve" font-family="FiraMono-Regular,Fira Mono" font-size="42.6" fill="#FFFFFF" transform="matrix(1.00, 0.00, -0.00, -1.00, 751.0, 428.3)">)</text><text xml:space="preserve" font-family="FiraMono-Regular,Fira Mono" font-size="42.6" fill="#000000" transform="matrix(1.00, 0.00, -0.00, -1.00, 776.6, 428.3)"> </text><text xml:space="preserve" font-family="FiraMono-Regular,Fira Mono" font-size="42.6" fill="#FFFFFF" transform="matrix(1.00, 0.00, -0.00, -1.00, 137.0, 296.3)"> </text><text xml:space="preserve" font-family="FiraMono-Regular,Fira Mono" font-size="42.6" fill="#FFFFFF" transform="matrix(1.00, 0.00, -0.00, -1.00, 162.6, 296.3)"> </text><text xml:space="preserve" font-family="FiraMono-Regular,Fira Mono" font-size="42.6" fill="#FFFFFF" transform="matrix(1.00, 0.00, -0.00, -1.00, 188.2, 296.3)">t</text><text xml:space="preserve" font-family="FiraMono-Regular,Fira Mono" font-size="42.6" fill="#FFFFFF" transform="matrix(1.00, 0.00, -0.00, -1.00, 213.8, 296.3)">h</text><text xml:space="preserve" font-family="FiraMono-Regular,Fira Mono" font-size="42.6" fill="#FFFFFF" transform="matrix(1.00, 0.00, -0.00, -1.00, 239.3, 296.3)">e</text><text xml:space="preserve" font-family="FiraMono-Regular,Fira Mono" font-size="42.6" fill="#FFFFFF" transform="matrix(1.00, 0.00, -0.00, -1.00, 264.9, 296.3)">n</text><text xml:space="preserve" font-family="FiraMono-Regular,Fira Mono" font-size="42.6" fill="#FFFFFF" transform="matrix(1.00, 0.00, -0.00, -1.00, 290.5, 296.3)">:</text><text xml:space="preserve" font-family="FiraMono-Regular,Fira Mono" font-size="42.6" fill="#000000" transform="matrix(1.00, 0.00, -0.00, -1.00, 316.1, 296.3)"> </text><text xml:space="preserve" font-family="FiraMono-Regular,Fira Mono" font-size="42.6" fill="#000000" transform="matrix(1.00, 0.00, -0.00, -1.00, 137.0, 230.3)"> </text><text xml:space="preserve" font-family="FiraMono-Regular,Fira Mono" font-size="42.6" fill="#000000" transform="matrix(1.00, 0.00, -0.00, -1.00, 162.6, 230.3)"> </text><text xml:space="preserve" font-family="FiraMono-Regular,Fira Mono" font-size="42.6" fill="#FFFFFF" transform="matrix(1.00, 0.00, -0.00, -1.00, 188.2, 230.3)">s</text><text xml:space="preserve" font-family="FiraMono-Regular,Fira Mono" font-size="42.6" fill="#FFFFFF" transform="matrix(1.00, 0.00, -0.00, -1.00, 213.8, 230.3)">e</text><text xml:space="preserve" font-family="FiraMono-Regular,Fira Mono" font-size="42.6" fill="#FFFFFF" transform="matrix(1.00, 0.00, -0.00, -1.00, 239.3, 230.3)">l</text><text xml:space="preserve" font-family="FiraMono-Regular,Fira Mono" font-size="42.6" fill="#FFFFFF" transform="matrix(1.00, 0.00, -0.00, -1.00, 264.9, 230.3)">e</text><text xml:space="preserve" font-family="FiraMono-Regular,Fira Mono" font-size="42.6" fill="#FFFFFF" transform="matrix(1.00, 0.00, -0.00, -1.00, 290.5, 230.3)">c</text><text xml:space="preserve" font-family="FiraMono-Regular,Fira Mono" font-size="42.6" fill="#FFFFFF" transform="matrix(1.00, 0.00, -0.00, -1.00, 316.1, 230.3)">t</text><text xml:space="preserve" font-family="FiraMono-Regular,Fira Mono" font-size="42.6" fill="#FFFFFF" transform="matrix(1.00, 0.00, -0.00, -1.00, 341.7, 230.3)">I</text><text xml:space="preserve" font-family="FiraMono-Regular,Fira Mono" font-size="42.6" fill="#FFFFFF" transform="matrix(1.00, 0.00, -0.00, -1.00, 367.3, 230.3)">n</text><text xml:space="preserve" font-family="FiraMono-Regular,Fira Mono" font-size="42.6" fill="#FFFFFF" transform="matrix(1.00, 0.00, -0.00, -1.00, 392.8, 230.3)">t</text><text xml:space="preserve" font-family="FiraMono-Regular,Fira Mono" font-size="42.6" fill="#FFFFFF" transform="matrix(1.00, 0.00, -0.00, -1.00, 418.4, 230.3)">(</text><text xml:space="preserve" font-family="FiraMono-Regular,Fira Mono" font-size="42.6" fill="#FF2600" transform="matrix(1.00, 0.00, -0.00, -1.00, 444.0, 230.3)">"</text><text xml:space="preserve" font-family="FiraMono-Regular,Fira Mono" font-size="42.6" fill="#FF2600" transform="matrix(1.00, 0.00, -0.00, -1.00, 469.6, 230.3)">s</text><text xml:space="preserve" font-family="FiraMono-Regular,Fira Mono" font-size="42.6" fill="#FF2600" transform="matrix(1.00, 0.00, -0.00, -1.00, 495.2, 230.3)">e</text><text xml:space="preserve" font-family="FiraMono-Regular,Fira Mono" font-size="42.6" fill="#FF2600" transform="matrix(1.00, 0.00, -0.00, -1.00, 520.8, 230.3)">l</text><text xml:space="preserve" font-family="FiraMono-Regular,Fira Mono" font-size="42.6" fill="#FF2600" transform="matrix(1.00, 0.00, -0.00, -1.00, 546.3, 230.3)">e</text><text xml:space="preserve" font-family="FiraMono-Regular,Fira Mono" font-size="42.6" fill="#FF2600" transform="matrix(1.00, 0.00, -0.00, -1.00, 571.9, 230.3)">c</text><text xml:space="preserve" font-family="FiraMono-Regular,Fira Mono" font-size="42.6" fill="#FF2600" transform="matrix(1.00, 0.00, -0.00, -1.00, 597.5, 230.3)">t</text><text xml:space="preserve" font-family="FiraMono-Regular,Fira Mono" font-size="42.6" fill="#FF2600" transform="matrix(1.00, 0.00, -0.00, -1.00, 623.1, 230.3)"> </text><text xml:space="preserve" font-family="FiraMono-Regular,Fira Mono" font-size="42.6" fill="#FF2600" transform="matrix(1.00, 0.00, -0.00, -1.00, 648.7, 230.3)">c</text><text xml:space="preserve" font-family="FiraMono-Regular,Fira Mono" font-size="42.6" fill="#FF2600" transform="matrix(1.00, 0.00, -0.00, -1.00, 674.3, 230.3)">o</text><text xml:space="preserve" font-family="FiraMono-Regular,Fira Mono" font-size="42.6" fill="#FF2600" transform="matrix(1.00, 0.00, -0.00, -1.00, 699.8, 230.3)">u</text><text xml:space="preserve" font-family="FiraMono-Regular,Fira Mono" font-size="42.6" fill="#FF2600" transform="matrix(1.00, 0.00, -0.00, -1.00, 725.4, 230.3)">n</text><text xml:space="preserve" font-family="FiraMono-Regular,Fira Mono" font-size="42.6" fill="#FF2600" transform="matrix(1.00, 0.00, -0.00, -1.00, 751.0, 230.3)">t</text><text xml:space="preserve" font-family="FiraMono-Regular,Fira Mono" font-size="42.6" fill="#FF2600" transform="matrix(1.00, 0.00, -0.00, -1.00, 776.6, 230.3)">(</text><text xml:space="preserve" font-family="FiraMono-Regular,Fira Mono" font-size="42.6" fill="#FF2600" transform="matrix(1.00, 0.00, -0.00, -1.00, 802.2, 230.3)">*</text><text xml:space="preserve" font-family="FiraMono-Regular,Fira Mono" font-size="42.6" fill="#FF2600" transform="matrix(1.00, 0.00, -0.00, -1.00, 827.8, 230.3)">)</text><text xml:space="preserve" font-family="FiraMono-Regular,Fira Mono" font-size="42.6" fill="#FF2600" transform="matrix(1.00, 0.00, -0.00, -1.00, 853.4, 230.3)"> </text><text xml:space="preserve" font-family="FiraMono-Regular,Fira Mono" font-size="42.6" fill="#FF2600" transform="matrix(1.00, 0.00, -0.00, -1.00, 878.9, 230.3)">f</text><text xml:space="preserve" font-family="FiraMono-Regular,Fira Mono" font-size="42.6" fill="#FF2600" transform="matrix(1.00, 0.00, -0.00, -1.00, 904.5, 230.3)">r</text><text xml:space="preserve" font-family="FiraMono-Regular,Fira Mono" font-size="42.6" fill="#FF2600" transform="matrix(1.00, 0.00, -0.00, -1.00, 930.1, 230.3)">o</text><text xml:space="preserve" font-family="FiraMono-Regular,Fira Mono" font-size="42.6" fill="#FF2600" transform="matrix(1.00, 0.00, -0.00, -1.00, 955.7, 230.3)">m</text><text xml:space="preserve" font-family="FiraMono-Regular,Fira Mono" font-size="42.6" fill="#FF2600" transform="matrix(1.00, 0.00, -0.00, -1.00, 981.3, 230.3)"> </text><text xml:space="preserve" font-family="FiraMono-Regular,Fira Mono" font-size="42.6" fill="#FF2600" transform="matrix(1.00, 0.00, -0.00, -1.00, 1006.9, 230.3)">u</text><text xml:space="preserve" font-family="FiraMono-Regular,Fira Mono" font-size="42.6" fill="#FF2600" transform="matrix(1.00, 0.00, -0.00, -1.00, 1032.4, 230.3)">s</text><text xml:space="preserve" font-family="FiraMono-Regular,Fira Mono" font-size="42.6" fill="#FF2600" transform="matrix(1.00, 0.00, -0.00, -1.00, 1058.0, 230.3)">e</text><text xml:space="preserve" font-family="FiraMono-Regular,Fira Mono" font-size="42.6" fill="#FF2600" transform="matrix(1.00, 0.00, -0.00, -1.00, 1083.6, 230.3)">r</text><text xml:space="preserve" font-family="FiraMono-Regular,Fira Mono" font-size="42.6" fill="#FF2600" transform="matrix(1.00, 0.00, -0.00, -1.00, 1109.2, 230.3)">"</text><text xml:space="preserve" font-family="FiraMono-Regular,Fira Mono" font-size="42.6" fill="#FFFFFF" transform="matrix(1.00, 0.00, -0.00, -1.00, 1134.8, 230.3)">)</text><text xml:space="preserve" font-family="FiraMono-Regular,Fira Mono" font-size="42.6" fill="#FFFFFF" transform="matrix(1.00, 0.00, -0.00, -1.00, 1160.4, 230.3)"> </text><text xml:space="preserve" font-family="FiraMono-Regular,Fira Mono" font-size="42.6" fill="#FFFFFF" transform="matrix(1.00, 0.00, -0.00, -1.00, 1185.9, 230.3)">=</text><text xml:space="preserve" font-family="FiraMono-Regular,Fira Mono" font-size="42.6" fill="#FFFFFF" transform="matrix(1.00, 0.00, -0.00, -1.00, 1211.5, 230.3)">=</text><text xml:space="preserve" font-family="FiraMono-Regular,Fira Mono" font-size="42.6" fill="#000000" transform="matrix(1.00, 0.00, -0.00, -1.00, 1237.1, 230.3)"> </text><text xml:space="preserve" font-family="FiraMono-Regular,Fira Mono" font-size="42.6" fill="#FF2600" transform="matrix(1.00, 0.00, -0.00, -1.00, 1262.7, 230.3)">1</text><text xml:space="preserve" font-family="FiraMono-Regular,Fira Mono" font-size="42.6" fill="#000000" transform="matrix(1.00, 0.00, -0.00, -1.00, 1288.3, 230.3)"> </text><text xml:space="preserve" font-family="FiraMono-Regular,Fira Mono" font-size="42.6" fill="#FFFFFF" transform="matrix(1.00, 0.00, -0.00, -1.00, 137.0, 164.3)">}</text></g></svg>