<?xml version="1.0" encoding="UTF-8" standalone="no"?><svg xmlns="http://www.w3.org/2000/svg" xmlns:xlink="http://www.w3.org/1999/xlink" clip-rule="evenodd" stroke-miterlimit="10" viewBox="0 0 1920 1080"><desc>SVG generated by Keynote</desc><defs></defs><g transform="matrix(1.00, 0.00, -0.00, -1.00, 0.0, 1080.0)"><g><clipPath id="clip0x7f8408b28bd0"><path d="M 0.0 1080.0 L 1920.0 1080.0 L 1920.0 0.0 L 0.0 0.0 Z M 0.0 1080.0 "></path></clipPath><g clip-path="url(#clip0x7f8408b28bd0)"><image xlink:href="../../BF7430C7-5211-4E68-B118-AC68FDB76F0F/assets/A81AF0278930B93F47F55E5BB6D3A023.png" width="1920.00" height="1080.00" transform="matrix(1.00, 0.00, -0.00, -1.00, 0.0, 1080.0)"></image></g></g><text xml:space="preserve" font-family="HorizonBT-Regular,Horizon BT" font-size="128.0" fill="#FFD941" transform="matrix(1.00, 0.00, -0.00, -1.00, 549.5, 495.2)">E</text><text xml:space="preserve" font-family="HorizonBT-Regular,Horizon BT" font-size="128.0" fill="#FFD941" transform="matrix(1.00, 0.00, -0.00, -1.00, 593.7, 495.2)">F</text><text xml:space="preserve" font-family="HorizonBT-Regular,Horizon BT" font-size="128.0" fill="#FFD941" transform="matrix(1.00, 0.00, -0.00, -1.00, 636.3, 495.2)">F</text><text xml:space="preserve" font-family="HorizonBT-Regular,Horizon BT" font-size="128.0" fill="#FFD941" transform="matrix(1.00, 0.00, -0.00, -1.00, 679.0, 495.2)">E</text><text xml:space="preserve" font-family="HorizonBT-Regular,Horizon BT" font-size="128.0" fill="#FFD941" transform="matrix(1.00, 0.00, -0.00, -1.00, 723.2, 495.2)">C</text><text xml:space="preserve" font-family="HorizonBT-Regular,Horizon BT" font-size="128.0" fill="#FFD941" transform="matrix(1.00, 0.00, -0.00, -1.00, 773.6, 495.2)">T</text><text xml:space="preserve" font-family="HorizonBT-Regular,Horizon BT" font-size="128.0" fill="#FFD941" transform="matrix(1.00, 0.00, -0.00, -1.00, 818.7, 495.2)">I</text><text xml:space="preserve" font-family="HorizonBT-Regular,Horizon BT" font-size="128.0" fill="#FFD941" transform="matrix(1.00, 0.00, -0.00, -1.00, 844.1, 495.2)">V</text><text xml:space="preserve" font-family="HorizonBT-Regular,Horizon BT" font-size="128.0" fill="#FFD941" transform="matrix(1.00, 0.00, -0.00, -1.00, 890.5, 495.2)">E</text><text xml:space="preserve" font-family="HorizonBT-Regular,Horizon BT" font-size="128.0" fill="#FFD941" transform="matrix(1.00, 0.00, -0.00, -1.00, 934.7, 495.2)"> </text><text xml:space="preserve" font-family="HorizonBT-Regular,Horizon BT" font-size="128.0" fill="#FFD941" transform="matrix(1.00, 0.00, -0.00, -1.00, 960.1, 495.2)">U</text><text xml:space="preserve" font-family="HorizonBT-Regular,Horizon BT" font-size="128.0" fill="#FFD941" transform="matrix(1.00, 0.00, -0.00, -1.00, 1010.8, 495.2)">N</text><text xml:space="preserve" font-family="HorizonBT-Regular,Horizon BT" font-size="128.0" fill="#FFD941" transform="matrix(1.00, 0.00, -0.00, -1.00, 1061.5, 495.2)">R</text><text xml:space="preserve" font-family="HorizonBT-Regular,Horizon BT" font-size="128.0" fill="#FFD941" transform="matrix(1.00, 0.00, -0.00, -1.00, 1111.9, 495.2)">O</text><text xml:space="preserve" font-family="HorizonBT-Regular,Horizon BT" font-size="128.0" fill="#FFD941" transform="matrix(1.00, 0.00, -0.00, -1.00, 1162.4, 495.2)">L</text><text xml:space="preserve" font-family="HorizonBT-Regular,Horizon BT" font-size="128.0" fill="#FFD941" transform="matrix(1.00, 0.00, -0.00, -1.00, 1203.2, 495.2)">L</text><text xml:space="preserve" font-family="HorizonBT-Regular,Horizon BT" font-size="128.0" fill="#FFD941" transform="matrix(1.00, 0.00, -0.00, -1.00, 1243.9, 495.2)">I</text><text xml:space="preserve" font-family="HorizonBT-Regular,Horizon BT" font-size="128.0" fill="#FFD941" transform="matrix(1.00, 0.00, -0.00, -1.00, 1269.3, 495.2)">N</text><text xml:space="preserve" font-family="HorizonBT-Regular,Horizon BT" font-size="128.0" fill="#FFD941" transform="matrix(1.00, 0.00, -0.00, -1.00, 1320.0, 495.2)">G</text></g></svg>