<?xml version="1.0" encoding="UTF-8" standalone="no"?><svg xmlns="http://www.w3.org/2000/svg" xmlns:xlink="http://www.w3.org/1999/xlink" clip-rule="evenodd" stroke-miterlimit="10" viewBox="0 0 1920 1080"><desc>SVG generated by Keynote</desc><defs></defs><g transform="matrix(1.00, 0.00, -0.00, -1.00, 0.0, 1080.0)"><g><clipPath id="clip0x7f840c1e65b0"><path d="M 0.0 1080.0 L 1920.0 1080.0 L 1920.0 0.0 L 0.0 0.0 Z M 0.0 1080.0 "></path></clipPath><g clip-path="url(#clip0x7f840c1e65b0)"><image xlink:href="../../BF7430C7-5211-4E68-B118-AC68FDB76F0F/assets/A81AF0278930B93F47F55E5BB6D3A023.png" width="1920.00" height="1080.00" transform="matrix(1.00, 0.00, -0.00, -1.00, 0.0, 1080.0)"></image></g></g><text xml:space="preserve" font-family="FiraMono-Regular,Fira Mono" font-size="52.0" fill="#C07B1E" transform="matrix(1.00, 0.00, -0.00, -1.00, 137.0, 808.0)">@</text><text xml:space="preserve" font-family="FiraMono-Regular,Fira Mono" font-size="52.0" fill="#C07B1E" transform="matrix(1.00, 0.00, -0.00, -1.00, 168.2, 808.0)">A</text><text xml:space="preserve" font-family="FiraMono-Regular,Fira Mono" font-size="52.0" fill="#C07B1E" transform="matrix(1.00, 0.00, -0.00, -1.00, 199.4, 808.0)">u</text><text xml:space="preserve" font-family="FiraMono-Regular,Fira Mono" font-size="52.0" fill="#C07B1E" transform="matrix(1.00, 0.00, -0.00, -1.00, 230.6, 808.0)">t</text><text xml:space="preserve" font-family="FiraMono-Regular,Fira Mono" font-size="52.0" fill="#C07B1E" transform="matrix(1.00, 0.00, -0.00, -1.00, 261.8, 808.0)">o</text><text xml:space="preserve" font-family="FiraMono-Regular,Fira Mono" font-size="52.0" fill="#C07B1E" transform="matrix(1.00, 0.00, -0.00, -1.00, 293.0, 808.0)">C</text><text xml:space="preserve" font-family="FiraMono-Regular,Fira Mono" font-size="52.0" fill="#C07B1E" transform="matrix(1.00, 0.00, -0.00, -1.00, 324.2, 808.0)">l</text><text xml:space="preserve" font-family="FiraMono-Regular,Fira Mono" font-size="52.0" fill="#C07B1E" transform="matrix(1.00, 0.00, -0.00, -1.00, 355.4, 808.0)">e</text><text xml:space="preserve" font-family="FiraMono-Regular,Fira Mono" font-size="52.0" fill="#C07B1E" transform="matrix(1.00, 0.00, -0.00, -1.00, 386.6, 808.0)">a</text><text xml:space="preserve" font-family="FiraMono-Regular,Fira Mono" font-size="52.0" fill="#C07B1E" transform="matrix(1.00, 0.00, -0.00, -1.00, 417.8, 808.0)">n</text><text xml:space="preserve" font-family="FiraMono-Regular,Fira Mono" font-size="52.0" fill="#C07B1E" transform="matrix(1.00, 0.00, -0.00, -1.00, 449.0, 808.0)">u</text><text xml:space="preserve" font-family="FiraMono-Regular,Fira Mono" font-size="52.0" fill="#C07B1E" transform="matrix(1.00, 0.00, -0.00, -1.00, 480.2, 808.0)">p</text><text xml:space="preserve" font-family="FiraMono-Regular,Fira Mono" font-size="52.0" fill="#000000" transform="matrix(1.00, 0.00, -0.00, -1.00, 511.4, 808.0)"> </text><text xml:space="preserve" font-family="FiraMono-Regular,Fira Mono" font-size="52.0" fill="#FFFFFF" transform="matrix(1.00, 0.00, -0.00, -1.00, 542.6, 808.0)">h</text><text xml:space="preserve" font-family="FiraMono-Regular,Fira Mono" font-size="52.0" fill="#FFFFFF" transform="matrix(1.00, 0.00, -0.00, -1.00, 573.8, 808.0)">a</text><text xml:space="preserve" font-family="FiraMono-Regular,Fira Mono" font-size="52.0" fill="#FFFFFF" transform="matrix(1.00, 0.00, -0.00, -1.00, 605.0, 808.0)">n</text><text xml:space="preserve" font-family="FiraMono-Regular,Fira Mono" font-size="52.0" fill="#FFFFFF" transform="matrix(1.00, 0.00, -0.00, -1.00, 636.2, 808.0)">d</text><text xml:space="preserve" font-family="FiraMono-Regular,Fira Mono" font-size="52.0" fill="#FFFFFF" transform="matrix(1.00, 0.00, -0.00, -1.00, 667.4, 808.0)">l</text><text xml:space="preserve" font-family="FiraMono-Regular,Fira Mono" font-size="52.0" fill="#FFFFFF" transform="matrix(1.00, 0.00, -0.00, -1.00, 698.6, 808.0)">e</text><text xml:space="preserve" font-family="FiraMono-Regular,Fira Mono" font-size="52.0" fill="#000000" transform="matrix(1.00, 0.00, -0.00, -1.00, 729.8, 808.0)"> </text><text xml:space="preserve" font-family="FiraMono-Regular,Fira Mono" font-size="52.0" fill="#FFFFFF" transform="matrix(1.00, 0.00, -0.00, -1.00, 761.0, 808.0)">=</text><text xml:space="preserve" font-family="FiraMono-Regular,Fira Mono" font-size="52.0" fill="#000000" transform="matrix(1.00, 0.00, -0.00, -1.00, 792.2, 808.0)"> </text><text xml:space="preserve" font-family="FiraMono-Regular,Fira Mono" font-size="52.0" fill="#FFFFFF" transform="matrix(1.00, 0.00, -0.00, -1.00, 823.4, 808.0)">D</text><text xml:space="preserve" font-family="FiraMono-Regular,Fira Mono" font-size="52.0" fill="#FFFFFF" transform="matrix(1.00, 0.00, -0.00, -1.00, 854.6, 808.0)">B</text><text xml:space="preserve" font-family="FiraMono-Regular,Fira Mono" font-size="52.0" fill="#FFFFFF" transform="matrix(1.00, 0.00, -0.00, -1.00, 885.8, 808.0)">I</text><text xml:space="preserve" font-family="FiraMono-Regular,Fira Mono" font-size="52.0" fill="#FFFFFF" transform="matrix(1.00, 0.00, -0.00, -1.00, 917.0, 808.0)">.</text><text xml:space="preserve" font-family="FiraMono-Regular,Fira Mono" font-size="52.0" fill="#FFFFFF" transform="matrix(1.00, 0.00, -0.00, -1.00, 948.2, 808.0)">o</text><text xml:space="preserve" font-family="FiraMono-Regular,Fira Mono" font-size="52.0" fill="#FFFFFF" transform="matrix(1.00, 0.00, -0.00, -1.00, 979.4, 808.0)">p</text><text xml:space="preserve" font-family="FiraMono-Regular,Fira Mono" font-size="52.0" fill="#FFFFFF" transform="matrix(1.00, 0.00, -0.00, -1.00, 1010.6, 808.0)">e</text><text xml:space="preserve" font-family="FiraMono-Regular,Fira Mono" font-size="52.0" fill="#FFFFFF" transform="matrix(1.00, 0.00, -0.00, -1.00, 1041.8, 808.0)">n</text><text xml:space="preserve" font-family="FiraMono-Regular,Fira Mono" font-size="52.0" fill="#FFFFFF" transform="matrix(1.00, 0.00, -0.00, -1.00, 1073.0, 808.0)">(</text><text xml:space="preserve" font-family="FiraMono-Regular,Fira Mono" font-size="52.0" fill="#FF2600" transform="matrix(1.00, 0.00, -0.00, -1.00, 1104.2, 808.0)">"</text><text xml:space="preserve" font-family="FiraMono-Regular,Fira Mono" font-size="52.0" fill="#FF2600" transform="matrix(1.00, 0.00, -0.00, -1.00, 1135.4, 808.0)">j</text><text xml:space="preserve" font-family="FiraMono-Regular,Fira Mono" font-size="52.0" fill="#FF2600" transform="matrix(1.00, 0.00, -0.00, -1.00, 1166.6, 808.0)">d</text><text xml:space="preserve" font-family="FiraMono-Regular,Fira Mono" font-size="52.0" fill="#FF2600" transform="matrix(1.00, 0.00, -0.00, -1.00, 1197.8, 808.0)">b</text><text xml:space="preserve" font-family="FiraMono-Regular,Fira Mono" font-size="52.0" fill="#FF2600" transform="matrix(1.00, 0.00, -0.00, -1.00, 1229.0, 808.0)">c</text><text xml:space="preserve" font-family="FiraMono-Regular,Fira Mono" font-size="52.0" fill="#FF2600" transform="matrix(1.00, 0.00, -0.00, -1.00, 1260.2, 808.0)">:</text><text xml:space="preserve" font-family="FiraMono-Regular,Fira Mono" font-size="52.0" fill="#FF2600" transform="matrix(1.00, 0.00, -0.00, -1.00, 1291.4, 808.0)">h</text><text xml:space="preserve" font-family="FiraMono-Regular,Fira Mono" font-size="52.0" fill="#FF2600" transform="matrix(1.00, 0.00, -0.00, -1.00, 1322.6, 808.0)">2</text><text xml:space="preserve" font-family="FiraMono-Regular,Fira Mono" font-size="52.0" fill="#FF2600" transform="matrix(1.00, 0.00, -0.00, -1.00, 1353.8, 808.0)">:</text><text xml:space="preserve" font-family="FiraMono-Regular,Fira Mono" font-size="52.0" fill="#FF2600" transform="matrix(1.00, 0.00, -0.00, -1.00, 1385.0, 808.0)">m</text><text xml:space="preserve" font-family="FiraMono-Regular,Fira Mono" font-size="52.0" fill="#FF2600" transform="matrix(1.00, 0.00, -0.00, -1.00, 1416.2, 808.0)">e</text><text xml:space="preserve" font-family="FiraMono-Regular,Fira Mono" font-size="52.0" fill="#FF2600" transform="matrix(1.00, 0.00, -0.00, -1.00, 1447.4, 808.0)">m</text><text xml:space="preserve" font-family="FiraMono-Regular,Fira Mono" font-size="52.0" fill="#FF2600" transform="matrix(1.00, 0.00, -0.00, -1.00, 1478.6, 808.0)">:</text><text xml:space="preserve" font-family="FiraMono-Regular,Fira Mono" font-size="52.0" fill="#FF2600" transform="matrix(1.00, 0.00, -0.00, -1.00, 1509.8, 808.0)">t</text><text xml:space="preserve" font-family="FiraMono-Regular,Fira Mono" font-size="52.0" fill="#FF2600" transform="matrix(1.00, 0.00, -0.00, -1.00, 1541.0, 808.0)">e</text><text xml:space="preserve" font-family="FiraMono-Regular,Fira Mono" font-size="52.0" fill="#FF2600" transform="matrix(1.00, 0.00, -0.00, -1.00, 1572.2, 808.0)">s</text><text xml:space="preserve" font-family="FiraMono-Regular,Fira Mono" font-size="52.0" fill="#FF2600" transform="matrix(1.00, 0.00, -0.00, -1.00, 1603.4, 808.0)">t</text><text xml:space="preserve" font-family="FiraMono-Regular,Fira Mono" font-size="52.0" fill="#FF2600" transform="matrix(1.00, 0.00, -0.00, -1.00, 1634.6, 808.0)">"</text><text xml:space="preserve" font-family="FiraMono-Regular,Fira Mono" font-size="52.0" fill="#FFFFFF" transform="matrix(1.00, 0.00, -0.00, -1.00, 1665.8, 808.0)">)</text><text xml:space="preserve" font-family="FiraMono-Regular,Fira Mono" font-size="52.0" fill="#000000" transform="matrix(1.00, 0.00, -0.00, -1.00, 1697.0, 808.0)"> </text><text xml:space="preserve" font-family="FiraMono-Regular,Fira Mono" font-size="52.0" fill="#C07B1E" transform="matrix(1.00, 0.00, -0.00, -1.00, 137.0, 646.0)">@</text><text xml:space="preserve" font-family="FiraMono-Regular,Fira Mono" font-size="52.0" fill="#C07B1E" transform="matrix(1.00, 0.00, -0.00, -1.00, 168.2, 646.0)">A</text><text xml:space="preserve" font-family="FiraMono-Regular,Fira Mono" font-size="52.0" fill="#C07B1E" transform="matrix(1.00, 0.00, -0.00, -1.00, 199.4, 646.0)">u</text><text xml:space="preserve" font-family="FiraMono-Regular,Fira Mono" font-size="52.0" fill="#C07B1E" transform="matrix(1.00, 0.00, -0.00, -1.00, 230.6, 646.0)">t</text><text xml:space="preserve" font-family="FiraMono-Regular,Fira Mono" font-size="52.0" fill="#C07B1E" transform="matrix(1.00, 0.00, -0.00, -1.00, 261.8, 646.0)">o</text><text xml:space="preserve" font-family="FiraMono-Regular,Fira Mono" font-size="52.0" fill="#C07B1E" transform="matrix(1.00, 0.00, -0.00, -1.00, 293.0, 646.0)">C</text><text xml:space="preserve" font-family="FiraMono-Regular,Fira Mono" font-size="52.0" fill="#C07B1E" transform="matrix(1.00, 0.00, -0.00, -1.00, 324.2, 646.0)">l</text><text xml:space="preserve" font-family="FiraMono-Regular,Fira Mono" font-size="52.0" fill="#C07B1E" transform="matrix(1.00, 0.00, -0.00, -1.00, 355.4, 646.0)">e</text><text xml:space="preserve" font-family="FiraMono-Regular,Fira Mono" font-size="52.0" fill="#C07B1E" transform="matrix(1.00, 0.00, -0.00, -1.00, 386.6, 646.0)">a</text><text xml:space="preserve" font-family="FiraMono-Regular,Fira Mono" font-size="52.0" fill="#C07B1E" transform="matrix(1.00, 0.00, -0.00, -1.00, 417.8, 646.0)">n</text><text xml:space="preserve" font-family="FiraMono-Regular,Fira Mono" font-size="52.0" fill="#C07B1E" transform="matrix(1.00, 0.00, -0.00, -1.00, 449.0, 646.0)">u</text><text xml:space="preserve" font-family="FiraMono-Regular,Fira Mono" font-size="52.0" fill="#C07B1E" transform="matrix(1.00, 0.00, -0.00, -1.00, 480.2, 646.0)">p</text><text xml:space="preserve" font-family="FiraMono-Regular,Fira Mono" font-size="52.0" fill="#FFFFFF" transform="matrix(1.00, 0.00, -0.00, -1.00, 511.4, 646.0)">(</text><text xml:space="preserve" font-family="FiraMono-Regular,Fira Mono" font-size="52.0" fill="#FF2600" transform="matrix(1.00, 0.00, -0.00, -1.00, 542.6, 646.0)">"</text><text xml:space="preserve" font-family="FiraMono-Regular,Fira Mono" font-size="52.0" fill="#FF2600" transform="matrix(1.00, 0.00, -0.00, -1.00, 573.8, 646.0)">d</text><text xml:space="preserve" font-family="FiraMono-Regular,Fira Mono" font-size="52.0" fill="#FF2600" transform="matrix(1.00, 0.00, -0.00, -1.00, 605.0, 646.0)">r</text><text xml:space="preserve" font-family="FiraMono-Regular,Fira Mono" font-size="52.0" fill="#FF2600" transform="matrix(1.00, 0.00, -0.00, -1.00, 636.2, 646.0)">o</text><text xml:space="preserve" font-family="FiraMono-Regular,Fira Mono" font-size="52.0" fill="#FF2600" transform="matrix(1.00, 0.00, -0.00, -1.00, 667.4, 646.0)">p</text><text xml:space="preserve" font-family="FiraMono-Regular,Fira Mono" font-size="52.0" fill="#FF2600" transform="matrix(1.00, 0.00, -0.00, -1.00, 698.6, 646.0)">T</text><text xml:space="preserve" font-family="FiraMono-Regular,Fira Mono" font-size="52.0" fill="#FF2600" transform="matrix(1.00, 0.00, -0.00, -1.00, 729.8, 646.0)">a</text><text xml:space="preserve" font-family="FiraMono-Regular,Fira Mono" font-size="52.0" fill="#FF2600" transform="matrix(1.00, 0.00, -0.00, -1.00, 761.0, 646.0)">b</text><text xml:space="preserve" font-family="FiraMono-Regular,Fira Mono" font-size="52.0" fill="#FF2600" transform="matrix(1.00, 0.00, -0.00, -1.00, 792.2, 646.0)">l</text><text xml:space="preserve" font-family="FiraMono-Regular,Fira Mono" font-size="52.0" fill="#FF2600" transform="matrix(1.00, 0.00, -0.00, -1.00, 823.4, 646.0)">e</text><text xml:space="preserve" font-family="FiraMono-Regular,Fira Mono" font-size="52.0" fill="#FF2600" transform="matrix(1.00, 0.00, -0.00, -1.00, 854.6, 646.0)">"</text><text xml:space="preserve" font-family="FiraMono-Regular,Fira Mono" font-size="52.0" fill="#FFFFFF" transform="matrix(1.00, 0.00, -0.00, -1.00, 885.8, 646.0)">)</text><text xml:space="preserve" font-family="FiraMono-Regular,Fira Mono" font-size="52.0" fill="#000000" transform="matrix(1.00, 0.00, -0.00, -1.00, 917.0, 646.0)"> </text><text xml:space="preserve" font-family="FiraMono-Regular,Fira Mono" font-size="52.0" fill="#000000" transform="matrix(1.00, 0.00, -0.00, -1.00, 948.2, 646.0)"> </text><text xml:space="preserve" font-family="FiraMono-Regular,Fira Mono" font-size="52.0" fill="#C07B1E" transform="matrix(1.00, 0.00, -0.00, -1.00, 137.0, 565.0)">@</text><text xml:space="preserve" font-family="FiraMono-Regular,Fira Mono" font-size="52.0" fill="#C07B1E" transform="matrix(1.00, 0.00, -0.00, -1.00, 168.2, 565.0)">S</text><text xml:space="preserve" font-family="FiraMono-Regular,Fira Mono" font-size="52.0" fill="#C07B1E" transform="matrix(1.00, 0.00, -0.00, -1.00, 199.4, 565.0)">u</text><text xml:space="preserve" font-family="FiraMono-Regular,Fira Mono" font-size="52.0" fill="#C07B1E" transform="matrix(1.00, 0.00, -0.00, -1.00, 230.6, 565.0)">b</text><text xml:space="preserve" font-family="FiraMono-Regular,Fira Mono" font-size="52.0" fill="#C07B1E" transform="matrix(1.00, 0.00, -0.00, -1.00, 261.8, 565.0)">j</text><text xml:space="preserve" font-family="FiraMono-Regular,Fira Mono" font-size="52.0" fill="#C07B1E" transform="matrix(1.00, 0.00, -0.00, -1.00, 293.0, 565.0)">e</text><text xml:space="preserve" font-family="FiraMono-Regular,Fira Mono" font-size="52.0" fill="#C07B1E" transform="matrix(1.00, 0.00, -0.00, -1.00, 324.2, 565.0)">c</text><text xml:space="preserve" font-family="FiraMono-Regular,Fira Mono" font-size="52.0" fill="#C07B1E" transform="matrix(1.00, 0.00, -0.00, -1.00, 355.4, 565.0)">t</text><text xml:space="preserve" font-family="FiraMono-Regular,Fira Mono" font-size="52.0" fill="#C07B1E" transform="matrix(1.00, 0.00, -0.00, -1.00, 386.6, 565.0)"> </text><text xml:space="preserve" font-family="FiraMono-Regular,Fira Mono" font-size="52.0" fill="#FFFFFF" transform="matrix(1.00, 0.00, -0.00, -1.00, 417.8, 565.0)">s</text><text xml:space="preserve" font-family="FiraMono-Regular,Fira Mono" font-size="52.0" fill="#FFFFFF" transform="matrix(1.00, 0.00, -0.00, -1.00, 449.0, 565.0)">h</text><text xml:space="preserve" font-family="FiraMono-Regular,Fira Mono" font-size="52.0" fill="#FFFFFF" transform="matrix(1.00, 0.00, -0.00, -1.00, 480.2, 565.0)">i</text><text xml:space="preserve" font-family="FiraMono-Regular,Fira Mono" font-size="52.0" fill="#FFFFFF" transform="matrix(1.00, 0.00, -0.00, -1.00, 511.4, 565.0)">p</text><text xml:space="preserve" font-family="FiraMono-Regular,Fira Mono" font-size="52.0" fill="#FFFFFF" transform="matrix(1.00, 0.00, -0.00, -1.00, 542.6, 565.0)">s</text><text xml:space="preserve" font-family="FiraMono-Regular,Fira Mono" font-size="52.0" fill="#000000" transform="matrix(1.00, 0.00, -0.00, -1.00, 573.8, 565.0)"> </text><text xml:space="preserve" font-family="FiraMono-Regular,Fira Mono" font-size="52.0" fill="#FFFFFF" transform="matrix(1.00, 0.00, -0.00, -1.00, 605.0, 565.0)">=</text><text xml:space="preserve" font-family="FiraMono-Regular,Fira Mono" font-size="52.0" fill="#000000" transform="matrix(1.00, 0.00, -0.00, -1.00, 636.2, 565.0)"> </text><text xml:space="preserve" font-family="FiraMono-Regular,Fira Mono" font-size="52.0" fill="#FFFFFF" transform="matrix(1.00, 0.00, -0.00, -1.00, 667.4, 565.0)">h</text><text xml:space="preserve" font-family="FiraMono-Regular,Fira Mono" font-size="52.0" fill="#FFFFFF" transform="matrix(1.00, 0.00, -0.00, -1.00, 698.6, 565.0)">a</text><text xml:space="preserve" font-family="FiraMono-Regular,Fira Mono" font-size="52.0" fill="#FFFFFF" transform="matrix(1.00, 0.00, -0.00, -1.00, 729.8, 565.0)">n</text><text xml:space="preserve" font-family="FiraMono-Regular,Fira Mono" font-size="52.0" fill="#FFFFFF" transform="matrix(1.00, 0.00, -0.00, -1.00, 761.0, 565.0)">d</text><text xml:space="preserve" font-family="FiraMono-Regular,Fira Mono" font-size="52.0" fill="#FFFFFF" transform="matrix(1.00, 0.00, -0.00, -1.00, 792.2, 565.0)">l</text><text xml:space="preserve" font-family="FiraMono-Regular,Fira Mono" font-size="52.0" fill="#FFFFFF" transform="matrix(1.00, 0.00, -0.00, -1.00, 823.4, 565.0)">e</text><text xml:space="preserve" font-family="FiraMono-Regular,Fira Mono" font-size="52.0" fill="#FFFFFF" transform="matrix(1.00, 0.00, -0.00, -1.00, 854.6, 565.0)">.</text><text xml:space="preserve" font-family="FiraMono-Regular,Fira Mono" font-size="52.0" fill="#FFFFFF" transform="matrix(1.00, 0.00, -0.00, -1.00, 885.8, 565.0)">a</text><text xml:space="preserve" font-family="FiraMono-Regular,Fira Mono" font-size="52.0" fill="#FFFFFF" transform="matrix(1.00, 0.00, -0.00, -1.00, 917.0, 565.0)">t</text><text xml:space="preserve" font-family="FiraMono-Regular,Fira Mono" font-size="52.0" fill="#FFFFFF" transform="matrix(1.00, 0.00, -0.00, -1.00, 948.2, 565.0)">t</text><text xml:space="preserve" font-family="FiraMono-Regular,Fira Mono" font-size="52.0" fill="#FFFFFF" transform="matrix(1.00, 0.00, -0.00, -1.00, 979.4, 565.0)">a</text><text xml:space="preserve" font-family="FiraMono-Regular,Fira Mono" font-size="52.0" fill="#FFFFFF" transform="matrix(1.00, 0.00, -0.00, -1.00, 1010.6, 565.0)">c</text><text xml:space="preserve" font-family="FiraMono-Regular,Fira Mono" font-size="52.0" fill="#FFFFFF" transform="matrix(1.00, 0.00, -0.00, -1.00, 1041.8, 565.0)">h</text><text xml:space="preserve" font-family="FiraMono-Regular,Fira Mono" font-size="52.0" fill="#FFFFFF" transform="matrix(1.00, 0.00, -0.00, -1.00, 1073.0, 565.0)">(</text><text xml:space="preserve" font-family="FiraMono-Regular,Fira Mono" font-size="52.0" fill="#FFFFFF" transform="matrix(1.00, 0.00, -0.00, -1.00, 1104.2, 565.0)">S</text><text xml:space="preserve" font-family="FiraMono-Regular,Fira Mono" font-size="52.0" fill="#FFFFFF" transform="matrix(1.00, 0.00, -0.00, -1.00, 1135.4, 565.0)">h</text><text xml:space="preserve" font-family="FiraMono-Regular,Fira Mono" font-size="52.0" fill="#FFFFFF" transform="matrix(1.00, 0.00, -0.00, -1.00, 1166.6, 565.0)">i</text><text xml:space="preserve" font-family="FiraMono-Regular,Fira Mono" font-size="52.0" fill="#FFFFFF" transform="matrix(1.00, 0.00, -0.00, -1.00, 1197.8, 565.0)">p</text><text xml:space="preserve" font-family="FiraMono-Regular,Fira Mono" font-size="52.0" fill="#FFFFFF" transform="matrix(1.00, 0.00, -0.00, -1.00, 1229.0, 565.0)">S</text><text xml:space="preserve" font-family="FiraMono-Regular,Fira Mono" font-size="52.0" fill="#FFFFFF" transform="matrix(1.00, 0.00, -0.00, -1.00, 1260.2, 565.0)">t</text><text xml:space="preserve" font-family="FiraMono-Regular,Fira Mono" font-size="52.0" fill="#FFFFFF" transform="matrix(1.00, 0.00, -0.00, -1.00, 1291.4, 565.0)">o</text><text xml:space="preserve" font-family="FiraMono-Regular,Fira Mono" font-size="52.0" fill="#FFFFFF" transform="matrix(1.00, 0.00, -0.00, -1.00, 1322.6, 565.0)">r</text><text xml:space="preserve" font-family="FiraMono-Regular,Fira Mono" font-size="52.0" fill="#FFFFFF" transform="matrix(1.00, 0.00, -0.00, -1.00, 1353.8, 565.0)">e</text><text xml:space="preserve" font-family="FiraMono-Regular,Fira Mono" font-size="52.0" fill="#FFFFFF" transform="matrix(1.00, 0.00, -0.00, -1.00, 1385.0, 565.0)">)</text><text xml:space="preserve" font-family="FiraMono-Regular,Fira Mono" font-size="52.0" fill="#000000" transform="matrix(1.00, 0.00, -0.00, -1.00, 1416.2, 565.0)"> </text><text xml:space="preserve" font-family="FiraMono-Regular,Fira Mono" font-size="52.0" fill="#C07B1E" transform="matrix(1.00, 0.00, -0.00, -1.00, 137.0, 403.0)">d</text><text xml:space="preserve" font-family="FiraMono-Regular,Fira Mono" font-size="52.0" fill="#C07B1E" transform="matrix(1.00, 0.00, -0.00, -1.00, 168.2, 403.0)">e</text><text xml:space="preserve" font-family="FiraMono-Regular,Fira Mono" font-size="52.0" fill="#C07B1E" transform="matrix(1.00, 0.00, -0.00, -1.00, 199.4, 403.0)">f</text><text xml:space="preserve" font-family="FiraMono-Regular,Fira Mono" font-size="52.0" fill="#000000" transform="matrix(1.00, 0.00, -0.00, -1.00, 230.6, 403.0)"> </text><text xml:space="preserve" font-family="FiraMono-Regular,Fira Mono" font-size="52.0" fill="#FFFFFF" transform="matrix(1.00, 0.00, -0.00, -1.00, 261.8, 403.0)">s</text><text xml:space="preserve" font-family="FiraMono-Regular,Fira Mono" font-size="52.0" fill="#FFFFFF" transform="matrix(1.00, 0.00, -0.00, -1.00, 293.0, 403.0)">e</text><text xml:space="preserve" font-family="FiraMono-Regular,Fira Mono" font-size="52.0" fill="#FFFFFF" transform="matrix(1.00, 0.00, -0.00, -1.00, 324.2, 403.0)">t</text><text xml:space="preserve" font-family="FiraMono-Regular,Fira Mono" font-size="52.0" fill="#FFFFFF" transform="matrix(1.00, 0.00, -0.00, -1.00, 355.4, 403.0)">u</text><text xml:space="preserve" font-family="FiraMono-Regular,Fira Mono" font-size="52.0" fill="#FFFFFF" transform="matrix(1.00, 0.00, -0.00, -1.00, 386.6, 403.0)">p</text><text xml:space="preserve" font-family="FiraMono-Regular,Fira Mono" font-size="52.0" fill="#FFFFFF" transform="matrix(1.00, 0.00, -0.00, -1.00, 417.8, 403.0)">(</text><text xml:space="preserve" font-family="FiraMono-Regular,Fira Mono" font-size="52.0" fill="#FFFFFF" transform="matrix(1.00, 0.00, -0.00, -1.00, 449.0, 403.0)">)</text><text xml:space="preserve" font-family="FiraMono-Regular,Fira Mono" font-size="52.0" fill="#FFFFFF" transform="matrix(1.00, 0.00, -0.00, -1.00, 480.2, 403.0)"> </text><text xml:space="preserve" font-family="FiraMono-Regular,Fira Mono" font-size="52.0" fill="#FFFFFF" transform="matrix(1.00, 0.00, -0.00, -1.00, 511.4, 403.0)">{</text><text xml:space="preserve" font-family="FiraMono-Regular,Fira Mono" font-size="52.0" fill="#000000" transform="matrix(1.00, 0.00, -0.00, -1.00, 542.6, 403.0)"> </text><text xml:space="preserve" font-family="FiraMono-Regular,Fira Mono" font-size="52.0" fill="#FFFFFF" transform="matrix(1.00, 0.00, -0.00, -1.00, 137.0, 322.0)"> </text><text xml:space="preserve" font-family="FiraMono-Regular,Fira Mono" font-size="52.0" fill="#FFFFFF" transform="matrix(1.00, 0.00, -0.00, -1.00, 168.2, 322.0)"> </text><text xml:space="preserve" font-family="FiraMono-Regular,Fira Mono" font-size="52.0" fill="#FFFFFF" transform="matrix(1.00, 0.00, -0.00, -1.00, 199.4, 322.0)">s</text><text xml:space="preserve" font-family="FiraMono-Regular,Fira Mono" font-size="52.0" fill="#FFFFFF" transform="matrix(1.00, 0.00, -0.00, -1.00, 230.6, 322.0)">h</text><text xml:space="preserve" font-family="FiraMono-Regular,Fira Mono" font-size="52.0" fill="#FFFFFF" transform="matrix(1.00, 0.00, -0.00, -1.00, 261.8, 322.0)">i</text><text xml:space="preserve" font-family="FiraMono-Regular,Fira Mono" font-size="52.0" fill="#FFFFFF" transform="matrix(1.00, 0.00, -0.00, -1.00, 293.0, 322.0)">p</text><text xml:space="preserve" font-family="FiraMono-Regular,Fira Mono" font-size="52.0" fill="#FFFFFF" transform="matrix(1.00, 0.00, -0.00, -1.00, 324.2, 322.0)">s</text><text xml:space="preserve" font-family="FiraMono-Regular,Fira Mono" font-size="52.0" fill="#FFFFFF" transform="matrix(1.00, 0.00, -0.00, -1.00, 355.4, 322.0)">.</text><text xml:space="preserve" font-family="FiraMono-Regular,Fira Mono" font-size="52.0" fill="#FFFFFF" transform="matrix(1.00, 0.00, -0.00, -1.00, 386.6, 322.0)">c</text><text xml:space="preserve" font-family="FiraMono-Regular,Fira Mono" font-size="52.0" fill="#FFFFFF" transform="matrix(1.00, 0.00, -0.00, -1.00, 417.8, 322.0)">r</text><text xml:space="preserve" font-family="FiraMono-Regular,Fira Mono" font-size="52.0" fill="#FFFFFF" transform="matrix(1.00, 0.00, -0.00, -1.00, 449.0, 322.0)">e</text><text xml:space="preserve" font-family="FiraMono-Regular,Fira Mono" font-size="52.0" fill="#FFFFFF" transform="matrix(1.00, 0.00, -0.00, -1.00, 480.2, 322.0)">a</text><text xml:space="preserve" font-family="FiraMono-Regular,Fira Mono" font-size="52.0" fill="#FFFFFF" transform="matrix(1.00, 0.00, -0.00, -1.00, 511.4, 322.0)">t</text><text xml:space="preserve" font-family="FiraMono-Regular,Fira Mono" font-size="52.0" fill="#FFFFFF" transform="matrix(1.00, 0.00, -0.00, -1.00, 542.6, 322.0)">e</text><text xml:space="preserve" font-family="FiraMono-Regular,Fira Mono" font-size="52.0" fill="#FFFFFF" transform="matrix(1.00, 0.00, -0.00, -1.00, 573.8, 322.0)">T</text><text xml:space="preserve" font-family="FiraMono-Regular,Fira Mono" font-size="52.0" fill="#FFFFFF" transform="matrix(1.00, 0.00, -0.00, -1.00, 605.0, 322.0)">a</text><text xml:space="preserve" font-family="FiraMono-Regular,Fira Mono" font-size="52.0" fill="#FFFFFF" transform="matrix(1.00, 0.00, -0.00, -1.00, 636.2, 322.0)">b</text><text xml:space="preserve" font-family="FiraMono-Regular,Fira Mono" font-size="52.0" fill="#FFFFFF" transform="matrix(1.00, 0.00, -0.00, -1.00, 667.4, 322.0)">l</text><text xml:space="preserve" font-family="FiraMono-Regular,Fira Mono" font-size="52.0" fill="#FFFFFF" transform="matrix(1.00, 0.00, -0.00, -1.00, 698.6, 322.0)">e</text><text xml:space="preserve" font-family="FiraMono-Regular,Fira Mono" font-size="52.0" fill="#FFFFFF" transform="matrix(1.00, 0.00, -0.00, -1.00, 729.8, 322.0)">(</text><text xml:space="preserve" font-family="FiraMono-Regular,Fira Mono" font-size="52.0" fill="#FFFFFF" transform="matrix(1.00, 0.00, -0.00, -1.00, 761.0, 322.0)">)</text><text xml:space="preserve" font-family="FiraMono-Regular,Fira Mono" font-size="52.0" fill="#000000" transform="matrix(1.00, 0.00, -0.00, -1.00, 792.2, 322.0)"> </text><text xml:space="preserve" font-family="FiraMono-Regular,Fira Mono" font-size="52.0" fill="#FFFFFF" transform="matrix(1.00, 0.00, -0.00, -1.00, 137.0, 241.0)">}</text></g></svg>