<?xml version="1.0" encoding="UTF-8" standalone="no"?><svg xmlns="http://www.w3.org/2000/svg" xmlns:xlink="http://www.w3.org/1999/xlink" clip-rule="evenodd" stroke-miterlimit="10" viewBox="0 0 1920 1080"><desc>SVG generated by Keynote</desc><defs></defs><g transform="matrix(1.00, 0.00, -0.00, -1.00, 0.0, 1080.0)"><g><clipPath id="clip0x7f8410a27950"><path d="M 0.0 1080.0 L 1920.0 1080.0 L 1920.0 0.0 L 0.0 0.0 Z M 0.0 1080.0 "></path></clipPath><g clip-path="url(#clip0x7f8410a27950)"><image xlink:href="../../BF7430C7-5211-4E68-B118-AC68FDB76F0F/assets/A81AF0278930B93F47F55E5BB6D3A023.png" width="1920.00" height="1080.00" transform="matrix(1.00, 0.00, -0.00, -1.00, 0.0, 1080.0)"></image></g></g><text xml:space="preserve" font-family="HorizonBT-Regular,Horizon BT" font-size="128.0" fill="#FFD941" transform="matrix(1.00, 0.00, -0.00, -1.00, 568.6, 495.2)">T</text><text xml:space="preserve" font-family="HorizonBT-Regular,Horizon BT" font-size="128.0" fill="#FFD941" transform="matrix(1.00, 0.00, -0.00, -1.00, 613.6, 495.2)">C</text><text xml:space="preserve" font-family="HorizonBT-Regular,Horizon BT" font-size="128.0" fill="#FFD941" transform="matrix(1.00, 0.00, -0.00, -1.00, 664.1, 495.2)">K</text><text xml:space="preserve" font-family="HorizonBT-Regular,Horizon BT" font-size="128.0" fill="#FFD941" transform="matrix(1.00, 0.00, -0.00, -1.00, 715.2, 495.2)"> </text><text xml:space="preserve" font-family="HorizonBT-Regular,Horizon BT" font-size="128.0" fill="#FFD941" transform="matrix(1.00, 0.00, -0.00, -1.00, 740.7, 495.2)">S</text><text xml:space="preserve" font-family="HorizonBT-Regular,Horizon BT" font-size="128.0" fill="#FFD941" transform="matrix(1.00, 0.00, -0.00, -1.00, 791.1, 495.2)">P</text><text xml:space="preserve" font-family="HorizonBT-Regular,Horizon BT" font-size="128.0" fill="#FFD941" transform="matrix(1.00, 0.00, -0.00, -1.00, 840.3, 495.2)">E</text><text xml:space="preserve" font-family="HorizonBT-Regular,Horizon BT" font-size="128.0" fill="#FFD941" transform="matrix(1.00, 0.00, -0.00, -1.00, 884.5, 495.2)">C</text><text xml:space="preserve" font-family="HorizonBT-Regular,Horizon BT" font-size="128.0" fill="#FFD941" transform="matrix(1.00, 0.00, -0.00, -1.00, 935.0, 495.2)">I</text><text xml:space="preserve" font-family="HorizonBT-Regular,Horizon BT" font-size="128.0" fill="#FFD941" transform="matrix(1.00, 0.00, -0.00, -1.00, 960.4, 495.2)">F</text><text xml:space="preserve" font-family="HorizonBT-Regular,Horizon BT" font-size="128.0" fill="#FFD941" transform="matrix(1.00, 0.00, -0.00, -1.00, 1003.0, 495.2)">I</text><text xml:space="preserve" font-family="HorizonBT-Regular,Horizon BT" font-size="128.0" fill="#FFD941" transform="matrix(1.00, 0.00, -0.00, -1.00, 1028.4, 495.2)">C</text><text xml:space="preserve" font-family="HorizonBT-Regular,Horizon BT" font-size="128.0" fill="#FFD941" transform="matrix(1.00, 0.00, -0.00, -1.00, 1078.8, 495.2)">A</text><text xml:space="preserve" font-family="HorizonBT-Regular,Horizon BT" font-size="128.0" fill="#FFD941" transform="matrix(1.00, 0.00, -0.00, -1.00, 1129.5, 495.2)">T</text><text xml:space="preserve" font-family="HorizonBT-Regular,Horizon BT" font-size="128.0" fill="#FFD941" transform="matrix(1.00, 0.00, -0.00, -1.00, 1174.6, 495.2)">I</text><text xml:space="preserve" font-family="HorizonBT-Regular,Horizon BT" font-size="128.0" fill="#FFD941" transform="matrix(1.00, 0.00, -0.00, -1.00, 1200.0, 495.2)">O</text><text xml:space="preserve" font-family="HorizonBT-Regular,Horizon BT" font-size="128.0" fill="#FFD941" transform="matrix(1.00, 0.00, -0.00, -1.00, 1250.4, 495.2)">N</text><text xml:space="preserve" font-family="HorizonBT-Regular,Horizon BT" font-size="128.0" fill="#FFD941" transform="matrix(1.00, 0.00, -0.00, -1.00, 1301.1, 495.2)">S</text><text xml:space="preserve" font-family="Palatino-Roman,Palatino" font-size="44.0" fill="#FEFFFF" transform="matrix(1.00, 0.00, -0.00, -1.00, 528.2, 406.2)">O</text><text xml:space="preserve" font-family="Palatino-Roman,Palatino" font-size="44.0" fill="#FEFFFF" transform="matrix(1.00, 0.00, -0.00, -1.00, 562.8, 406.2)">n</text><text xml:space="preserve" font-family="Palatino-Roman,Palatino" font-size="44.0" fill="#FEFFFF" transform="matrix(1.00, 0.00, -0.00, -1.00, 588.4, 406.2)">e</text><text xml:space="preserve" font-family="Palatino-Roman,Palatino" font-size="44.0" fill="#FEFFFF" transform="matrix(1.00, 0.00, -0.00, -1.00, 609.4, 406.2)"> </text><text xml:space="preserve" font-family="Palatino-Roman,Palatino" font-size="44.0" fill="#FEFFFF" transform="matrix(1.00, 0.00, -0.00, -1.00, 620.4, 406.2)">s</text><text xml:space="preserve" font-family="Palatino-Roman,Palatino" font-size="44.0" fill="#FEFFFF" transform="matrix(1.00, 0.00, -0.00, -1.00, 639.1, 406.2)">p</text><text xml:space="preserve" font-family="Palatino-Roman,Palatino" font-size="44.0" fill="#FEFFFF" transform="matrix(1.00, 0.00, -0.00, -1.00, 665.5, 406.2)">e</text><text xml:space="preserve" font-family="Palatino-Roman,Palatino" font-size="44.0" fill="#FEFFFF" transform="matrix(1.00, 0.00, -0.00, -1.00, 686.6, 406.2)">c</text><text xml:space="preserve" font-family="Palatino-Roman,Palatino" font-size="44.0" fill="#FEFFFF" transform="matrix(1.00, 0.00, -0.00, -1.00, 706.1, 406.2)">i</text><text xml:space="preserve" font-family="Palatino-Roman,Palatino" font-size="44.0" fill="#FEFFFF" transform="matrix(1.00, 0.00, -0.00, -1.00, 718.9, 406.2)">ï¬</text><text xml:space="preserve" font-family="Palatino-Roman,Palatino" font-size="44.0" fill="#FEFFFF" transform="matrix(1.00, 0.00, -0.00, -1.00, 745.6, 406.2)">c</text><text xml:space="preserve" font-family="Palatino-Roman,Palatino" font-size="44.0" fill="#FEFFFF" transform="matrix(1.00, 0.00, -0.00, -1.00, 765.1, 406.2)">a</text><text xml:space="preserve" font-family="Palatino-Roman,Palatino" font-size="44.0" fill="#FEFFFF" transform="matrix(1.00, 0.00, -0.00, -1.00, 787.1, 406.2)">t</text><text xml:space="preserve" font-family="Palatino-Roman,Palatino" font-size="44.0" fill="#FEFFFF" transform="matrix(1.00, 0.00, -0.00, -1.00, 801.4, 406.2)">i</text><text xml:space="preserve" font-family="Palatino-Roman,Palatino" font-size="44.0" fill="#FEFFFF" transform="matrix(1.00, 0.00, -0.00, -1.00, 814.2, 406.2)">o</text><text xml:space="preserve" font-family="Palatino-Roman,Palatino" font-size="44.0" fill="#FEFFFF" transform="matrix(1.00, 0.00, -0.00, -1.00, 838.3, 406.2)">n</text><text xml:space="preserve" font-family="Palatino-Roman,Palatino" font-size="44.0" fill="#FEFFFF" transform="matrix(1.00, 0.00, -0.00, -1.00, 863.9, 406.2)">,</text><text xml:space="preserve" font-family="Palatino-Roman,Palatino" font-size="44.0" fill="#FEFFFF" transform="matrix(1.00, 0.00, -0.00, -1.00, 874.9, 406.2)"> </text><text xml:space="preserve" font-family="Palatino-Roman,Palatino" font-size="44.0" fill="#FEFFFF" transform="matrix(1.00, 0.00, -0.00, -1.00, 885.9, 406.2)">m</text><text xml:space="preserve" font-family="Palatino-Roman,Palatino" font-size="44.0" fill="#FEFFFF" transform="matrix(1.00, 0.00, -0.00, -1.00, 924.7, 406.2)">u</text><text xml:space="preserve" font-family="Palatino-Roman,Palatino" font-size="44.0" fill="#FEFFFF" transform="matrix(1.00, 0.00, -0.00, -1.00, 951.2, 406.2)">l</text><text xml:space="preserve" font-family="Palatino-Roman,Palatino" font-size="44.0" fill="#FEFFFF" transform="matrix(1.00, 0.00, -0.00, -1.00, 964.0, 406.2)">t</text><text xml:space="preserve" font-family="Palatino-Roman,Palatino" font-size="44.0" fill="#FEFFFF" transform="matrix(1.00, 0.00, -0.00, -1.00, 978.4, 406.2)">i</text><text xml:space="preserve" font-family="Palatino-Roman,Palatino" font-size="44.0" fill="#FEFFFF" transform="matrix(1.00, 0.00, -0.00, -1.00, 991.2, 406.2)">p</text><text xml:space="preserve" font-family="Palatino-Roman,Palatino" font-size="44.0" fill="#FEFFFF" transform="matrix(1.00, 0.00, -0.00, -1.00, 1017.7, 406.2)">l</text><text xml:space="preserve" font-family="Palatino-Roman,Palatino" font-size="44.0" fill="#FEFFFF" transform="matrix(1.00, 0.00, -0.00, -1.00, 1030.5, 406.2)">e</text><text xml:space="preserve" font-family="Palatino-Roman,Palatino" font-size="44.0" fill="#FEFFFF" transform="matrix(1.00, 0.00, -0.00, -1.00, 1051.5, 406.2)"> </text><text xml:space="preserve" font-family="Palatino-Roman,Palatino" font-size="44.0" fill="#FEFFFF" transform="matrix(1.00, 0.00, -0.00, -1.00, 1062.5, 406.2)">i</text><text xml:space="preserve" font-family="Palatino-Roman,Palatino" font-size="44.0" fill="#FEFFFF" transform="matrix(1.00, 0.00, -0.00, -1.00, 1075.3, 406.2)">m</text><text xml:space="preserve" font-family="Palatino-Roman,Palatino" font-size="44.0" fill="#FEFFFF" transform="matrix(1.00, 0.00, -0.00, -1.00, 1114.2, 406.2)">p</text><text xml:space="preserve" font-family="Palatino-Roman,Palatino" font-size="44.0" fill="#FEFFFF" transform="matrix(1.00, 0.00, -0.00, -1.00, 1140.6, 406.2)">l</text><text xml:space="preserve" font-family="Palatino-Roman,Palatino" font-size="44.0" fill="#FEFFFF" transform="matrix(1.00, 0.00, -0.00, -1.00, 1153.4, 406.2)">e</text><text xml:space="preserve" font-family="Palatino-Roman,Palatino" font-size="44.0" fill="#FEFFFF" transform="matrix(1.00, 0.00, -0.00, -1.00, 1174.5, 406.2)">m</text><text xml:space="preserve" font-family="Palatino-Roman,Palatino" font-size="44.0" fill="#FEFFFF" transform="matrix(1.00, 0.00, -0.00, -1.00, 1213.3, 406.2)">e</text><text xml:space="preserve" font-family="Palatino-Roman,Palatino" font-size="44.0" fill="#FEFFFF" transform="matrix(1.00, 0.00, -0.00, -1.00, 1234.4, 406.2)">n</text><text xml:space="preserve" font-family="Palatino-Roman,Palatino" font-size="44.0" fill="#FEFFFF" transform="matrix(1.00, 0.00, -0.00, -1.00, 1260.0, 406.2)">t</text><text xml:space="preserve" font-family="Palatino-Roman,Palatino" font-size="44.0" fill="#FEFFFF" transform="matrix(1.00, 0.00, -0.00, -1.00, 1274.4, 406.2)">a</text><text xml:space="preserve" font-family="Palatino-Roman,Palatino" font-size="44.0" fill="#FEFFFF" transform="matrix(1.00, 0.00, -0.00, -1.00, 1296.4, 406.2)">t</text><text xml:space="preserve" font-family="Palatino-Roman,Palatino" font-size="44.0" fill="#FEFFFF" transform="matrix(1.00, 0.00, -0.00, -1.00, 1310.7, 406.2)">i</text><text xml:space="preserve" font-family="Palatino-Roman,Palatino" font-size="44.0" fill="#FEFFFF" transform="matrix(1.00, 0.00, -0.00, -1.00, 1323.6, 406.2)">o</text><text xml:space="preserve" font-family="Palatino-Roman,Palatino" font-size="44.0" fill="#FEFFFF" transform="matrix(1.00, 0.00, -0.00, -1.00, 1347.6, 406.2)">n</text><text xml:space="preserve" font-family="Palatino-Roman,Palatino" font-size="44.0" fill="#FEFFFF" transform="matrix(1.00, 0.00, -0.00, -1.00, 1373.2, 406.2)">s</text></g></svg>