<?xml version="1.0" encoding="UTF-8" standalone="no"?><svg xmlns="http://www.w3.org/2000/svg" xmlns:xlink="http://www.w3.org/1999/xlink" clip-rule="evenodd" stroke-miterlimit="10" viewBox="0 0 1920 1080"><desc>SVG generated by Keynote</desc><defs></defs><g transform="matrix(1.00, 0.00, -0.00, -1.00, 0.0, 1080.0)"><g><clipPath id="clip0x7f8408039800"><path d="M 0.0 1080.0 L 1920.0 1080.0 L 1920.0 0.0 L 0.0 0.0 Z M 0.0 1080.0 "></path></clipPath><g clip-path="url(#clip0x7f8408039800)"><image xlink:href="../../BF7430C7-5211-4E68-B118-AC68FDB76F0F/assets/A81AF0278930B93F47F55E5BB6D3A023.png" width="1920.00" height="1080.00" transform="matrix(1.00, 0.00, -0.00, -1.00, 0.0, 1080.0)"></image></g></g><text xml:space="preserve" font-family="Palatino-Roman,Palatino" font-size="38.0" fill="#FEFFFE" transform="matrix(1.00, 0.00, -0.00, -1.00, 1319.1, 331.5)">—</text><text xml:space="preserve" font-family="Palatino-Roman,Palatino" font-size="38.0" fill="#FEFFFE" transform="matrix(1.00, 0.00, -0.00, -1.00, 1357.1, 331.5)">A</text><text xml:space="preserve" font-family="Palatino-Roman,Palatino" font-size="38.0" fill="#FEFFFE" transform="matrix(1.00, 0.00, -0.00, -1.00, 1386.7, 331.5)">b</text><text xml:space="preserve" font-family="Palatino-Roman,Palatino" font-size="38.0" fill="#FEFFFE" transform="matrix(1.00, 0.00, -0.00, -1.00, 1407.7, 331.5)">e</text><text xml:space="preserve" font-family="Palatino-Roman,Palatino" font-size="38.0" fill="#FEFFFE" transform="matrix(1.00, 0.00, -0.00, -1.00, 1425.9, 331.5)">l</text><text xml:space="preserve" font-family="Palatino-Roman,Palatino" font-size="38.0" fill="#FEFFFE" transform="matrix(1.00, 0.00, -0.00, -1.00, 1437.0, 331.5)">s</text><text xml:space="preserve" font-family="Palatino-Roman,Palatino" font-size="38.0" fill="#FEFFFE" transform="matrix(1.00, 0.00, -0.00, -1.00, 1453.1, 331.5)">o</text><text xml:space="preserve" font-family="Palatino-Roman,Palatino" font-size="38.0" fill="#FEFFFE" transform="matrix(1.00, 0.00, -0.00, -1.00, 1473.8, 331.5)">n</text><text xml:space="preserve" font-family="Palatino-Roman,Palatino" font-size="38.0" fill="#FEFFFE" transform="matrix(1.00, 0.00, -0.00, -1.00, 1495.9, 331.5)"> </text><text xml:space="preserve" font-family="Palatino-Roman,Palatino" font-size="38.0" fill="#FEFFFE" transform="matrix(1.00, 0.00, -0.00, -1.00, 1505.4, 331.5)">a</text><text xml:space="preserve" font-family="Palatino-Roman,Palatino" font-size="38.0" fill="#FEFFFE" transform="matrix(1.00, 0.00, -0.00, -1.00, 1524.4, 331.5)">n</text><text xml:space="preserve" font-family="Palatino-Roman,Palatino" font-size="38.0" fill="#FEFFFE" transform="matrix(1.00, 0.00, -0.00, -1.00, 1546.5, 331.5)">d</text><text xml:space="preserve" font-family="Palatino-Roman,Palatino" font-size="38.0" fill="#FEFFFE" transform="matrix(1.00, 0.00, -0.00, -1.00, 1569.7, 331.5)"> </text><text xml:space="preserve" font-family="Palatino-Roman,Palatino" font-size="38.0" fill="#FEFFFE" transform="matrix(1.00, 0.00, -0.00, -1.00, 1579.2, 331.5)">S</text><text xml:space="preserve" font-family="Palatino-Roman,Palatino" font-size="38.0" fill="#FEFFFE" transform="matrix(1.00, 0.00, -0.00, -1.00, 1599.2, 331.5)">u</text><text xml:space="preserve" font-family="Palatino-Roman,Palatino" font-size="38.0" fill="#FEFFFE" transform="matrix(1.00, 0.00, -0.00, -1.00, 1622.1, 331.5)">s</text><text xml:space="preserve" font-family="Palatino-Roman,Palatino" font-size="38.0" fill="#FEFFFE" transform="matrix(1.00, 0.00, -0.00, -1.00, 1638.2, 331.5)">s</text><text xml:space="preserve" font-family="Palatino-Roman,Palatino" font-size="38.0" fill="#FEFFFE" transform="matrix(1.00, 0.00, -0.00, -1.00, 1654.3, 331.5)">m</text><text xml:space="preserve" font-family="Palatino-Roman,Palatino" font-size="38.0" fill="#FEFFFE" transform="matrix(1.00, 0.00, -0.00, -1.00, 1687.8, 331.5)">a</text><text xml:space="preserve" font-family="Palatino-Roman,Palatino" font-size="38.0" fill="#FEFFFE" transform="matrix(1.00, 0.00, -0.00, -1.00, 1706.8, 331.5)">n</text><text xml:space="preserve" font-family="Palatino-Italic,Palatino" font-style="italic" font-size="96.0" fill="#FEFFFF" transform="matrix(1.00, 0.00, -0.00, -1.00, 231.1, 659.1)">“</text><text xml:space="preserve" font-family="Palatino-Italic,Palatino" font-style="italic" font-size="96.0" fill="#FEFFFF" transform="matrix(1.00, 0.00, -0.00, -1.00, 279.1, 659.1)">P</text><text xml:space="preserve" font-family="Palatino-Italic,Palatino" font-style="italic" font-size="96.0" fill="#FEFFFF" transform="matrix(1.00, 0.00, -0.00, -1.00, 337.7, 659.1)">r</text><text xml:space="preserve" font-family="Palatino-Italic,Palatino" font-style="italic" font-size="96.0" fill="#FEFFFF" transform="matrix(1.00, 0.00, -0.00, -1.00, 373.4, 659.1)">o</text><text xml:space="preserve" font-family="Palatino-Italic,Palatino" font-style="italic" font-size="96.0" fill="#FEFFFF" transform="matrix(1.00, 0.00, -0.00, -1.00, 416.0, 659.1)">g</text><text xml:space="preserve" font-family="Palatino-Italic,Palatino" font-style="italic" font-size="96.0" fill="#FEFFFF" transform="matrix(1.00, 0.00, -0.00, -1.00, 464.0, 659.1)">r</text><text xml:space="preserve" font-family="Palatino-Italic,Palatino" font-style="italic" font-size="96.0" fill="#FEFFFF" transform="matrix(1.00, 0.00, -0.00, -1.00, 501.4, 659.1)">a</text><text xml:space="preserve" font-family="Palatino-Italic,Palatino" font-style="italic" font-size="96.0" fill="#FEFFFF" transform="matrix(1.00, 0.00, -0.00, -1.00, 544.0, 659.1)">m</text><text xml:space="preserve" font-family="Palatino-Italic,Palatino" font-style="italic" font-size="96.0" fill="#FEFFFF" transform="matrix(1.00, 0.00, -0.00, -1.00, 618.6, 659.1)">s</text><text xml:space="preserve" font-family="Palatino-Italic,Palatino" font-style="italic" font-size="96.0" fill="#FEFFFF" transform="matrix(1.00, 0.00, -0.00, -1.00, 656.0, 659.1)"> </text><text xml:space="preserve" font-family="Palatino-Italic,Palatino" font-style="italic" font-size="96.0" fill="#FEFFFF" transform="matrix(1.00, 0.00, -0.00, -1.00, 680.0, 659.1)">m</text><text xml:space="preserve" font-family="Palatino-Italic,Palatino" font-style="italic" font-size="96.0" fill="#FEFFFF" transform="matrix(1.00, 0.00, -0.00, -1.00, 754.7, 659.1)">u</text><text xml:space="preserve" font-family="Palatino-Italic,Palatino" font-style="italic" font-size="96.0" fill="#FEFFFF" transform="matrix(1.00, 0.00, -0.00, -1.00, 808.1, 659.1)">s</text><text xml:space="preserve" font-family="Palatino-Italic,Palatino" font-style="italic" font-size="96.0" fill="#FEFFFF" transform="matrix(1.00, 0.00, -0.00, -1.00, 845.4, 659.1)">t</text><text xml:space="preserve" font-family="Palatino-Italic,Palatino" font-style="italic" font-size="96.0" fill="#FEFFFF" transform="matrix(1.00, 0.00, -0.00, -1.00, 877.4, 659.1)"> </text><text xml:space="preserve" font-family="Palatino-Italic,Palatino" font-style="italic" font-size="96.0" fill="#FEFFFF" transform="matrix(1.00, 0.00, -0.00, -1.00, 901.4, 659.1)">b</text><text xml:space="preserve" font-family="Palatino-Italic,Palatino" font-style="italic" font-size="96.0" fill="#FEFFFF" transform="matrix(1.00, 0.00, -0.00, -1.00, 945.8, 659.1)">e</text><text xml:space="preserve" font-family="Palatino-Italic,Palatino" font-style="italic" font-size="96.0" fill="#FEFFFF" transform="matrix(1.00, 0.00, -0.00, -1.00, 983.2, 659.1)"> </text><text xml:space="preserve" font-family="Palatino-Italic,Palatino" font-style="italic" font-size="96.0" fill="#FEFFFF" transform="matrix(1.00, 0.00, -0.00, -1.00, 1007.2, 659.1)">w</text><text xml:space="preserve" font-family="Palatino-Italic,Palatino" font-style="italic" font-size="96.0" fill="#FEFFFF" transform="matrix(1.00, 0.00, -0.00, -1.00, 1076.6, 659.1)">r</text><text xml:space="preserve" font-family="Palatino-Italic,Palatino" font-style="italic" font-size="96.0" fill="#FEFFFF" transform="matrix(1.00, 0.00, -0.00, -1.00, 1113.9, 659.1)">i</text><text xml:space="preserve" font-family="Palatino-Italic,Palatino" font-style="italic" font-size="96.0" fill="#FEFFFF" transform="matrix(1.00, 0.00, -0.00, -1.00, 1140.6, 659.1)">t</text><text xml:space="preserve" font-family="Palatino-Italic,Palatino" font-style="italic" font-size="96.0" fill="#FEFFFF" transform="matrix(1.00, 0.00, -0.00, -1.00, 1172.6, 659.1)">t</text><text xml:space="preserve" font-family="Palatino-Italic,Palatino" font-style="italic" font-size="96.0" fill="#FEFFFF" transform="matrix(1.00, 0.00, -0.00, -1.00, 1204.5, 659.1)">e</text><text xml:space="preserve" font-family="Palatino-Italic,Palatino" font-style="italic" font-size="96.0" fill="#FEFFFF" transform="matrix(1.00, 0.00, -0.00, -1.00, 1241.9, 659.1)">n</text><text xml:space="preserve" font-family="Palatino-Italic,Palatino" font-style="italic" font-size="96.0" fill="#FEFFFF" transform="matrix(1.00, 0.00, -0.00, -1.00, 1295.3, 659.1)"> </text><text xml:space="preserve" font-family="Palatino-Italic,Palatino" font-style="italic" font-size="96.0" fill="#FEFFFF" transform="matrix(1.00, 0.00, -0.00, -1.00, 1319.3, 659.1)">f</text><text xml:space="preserve" font-family="Palatino-Italic,Palatino" font-style="italic" font-size="96.0" fill="#FEFFFF" transform="matrix(1.00, 0.00, -0.00, -1.00, 1346.0, 659.1)">o</text><text xml:space="preserve" font-family="Palatino-Italic,Palatino" font-style="italic" font-size="96.0" fill="#FEFFFF" transform="matrix(1.00, 0.00, -0.00, -1.00, 1388.6, 659.1)">r</text><text xml:space="preserve" font-family="Palatino-Italic,Palatino" font-style="italic" font-size="96.0" fill="#FEFFFF" transform="matrix(1.00, 0.00, -0.00, -1.00, 1425.9, 659.1)"> </text><text xml:space="preserve" font-family="Palatino-Italic,Palatino" font-style="italic" font-size="96.0" fill="#FEFFFF" transform="matrix(1.00, 0.00, -0.00, -1.00, 1449.9, 659.1)">p</text><text xml:space="preserve" font-family="Palatino-Italic,Palatino" font-style="italic" font-size="96.0" fill="#FEFFFF" transform="matrix(1.00, 0.00, -0.00, -1.00, 1497.9, 659.1)">e</text><text xml:space="preserve" font-family="Palatino-Italic,Palatino" font-style="italic" font-size="96.0" fill="#FEFFFF" transform="matrix(1.00, 0.00, -0.00, -1.00, 1535.3, 659.1)">o</text><text xml:space="preserve" font-family="Palatino-Italic,Palatino" font-style="italic" font-size="96.0" fill="#FEFFFF" transform="matrix(1.00, 0.00, -0.00, -1.00, 1577.9, 659.1)">p</text><text xml:space="preserve" font-family="Palatino-Italic,Palatino" font-style="italic" font-size="96.0" fill="#FEFFFF" transform="matrix(1.00, 0.00, -0.00, -1.00, 1625.9, 659.1)">l</text><text xml:space="preserve" font-family="Palatino-Italic,Palatino" font-style="italic" font-size="96.0" fill="#FEFFFF" transform="matrix(1.00, 0.00, -0.00, -1.00, 1652.6, 659.1)">e</text><text xml:space="preserve" font-family="Palatino-Italic,Palatino" font-style="italic" font-size="96.0" fill="#FEFFFF" transform="matrix(1.00, 0.00, -0.00, -1.00, 1689.9, 659.1)"> </text><text xml:space="preserve" font-family="Palatino-Italic,Palatino" font-style="italic" font-size="96.0" fill="#FEFFFF" transform="matrix(1.00, 0.00, -0.00, -1.00, 328.5, 532.1)">t</text><text xml:space="preserve" font-family="Palatino-Italic,Palatino" font-style="italic" font-size="96.0" fill="#FEFFFF" transform="matrix(1.00, 0.00, -0.00, -1.00, 360.5, 532.1)">o</text><text xml:space="preserve" font-family="Palatino-Italic,Palatino" font-style="italic" font-size="96.0" fill="#FEFFFF" transform="matrix(1.00, 0.00, -0.00, -1.00, 403.0, 532.1)"> </text><text xml:space="preserve" font-family="Palatino-Italic,Palatino" font-style="italic" font-size="96.0" fill="#FEFFFF" transform="matrix(1.00, 0.00, -0.00, -1.00, 427.0, 532.1)">r</text><text xml:space="preserve" font-family="Palatino-Italic,Palatino" font-style="italic" font-size="96.0" fill="#FEFFFF" transform="matrix(1.00, 0.00, -0.00, -1.00, 462.7, 532.1)">e</text><text xml:space="preserve" font-family="Palatino-Italic,Palatino" font-style="italic" font-size="96.0" fill="#FEFFFF" transform="matrix(1.00, 0.00, -0.00, -1.00, 500.1, 532.1)">a</text><text xml:space="preserve" font-family="Palatino-Italic,Palatino" font-style="italic" font-size="96.0" fill="#FEFFFF" transform="matrix(1.00, 0.00, -0.00, -1.00, 542.7, 532.1)">d</text><text xml:space="preserve" font-family="Palatino-Italic,Palatino" font-style="italic" font-size="96.0" fill="#FEFFFF" transform="matrix(1.00, 0.00, -0.00, -1.00, 590.7, 532.1)">,</text><text xml:space="preserve" font-family="Palatino-Italic,Palatino" font-style="italic" font-size="96.0" fill="#FEFFFF" transform="matrix(1.00, 0.00, -0.00, -1.00, 614.7, 532.1)"> </text><text xml:space="preserve" font-family="Palatino-Italic,Palatino" font-style="italic" font-size="96.0" fill="#FEFFFF" transform="matrix(1.00, 0.00, -0.00, -1.00, 638.7, 532.1)">a</text><text xml:space="preserve" font-family="Palatino-Italic,Palatino" font-style="italic" font-size="96.0" fill="#FEFFFF" transform="matrix(1.00, 0.00, -0.00, -1.00, 681.3, 532.1)">n</text><text xml:space="preserve" font-family="Palatino-Italic,Palatino" font-style="italic" font-size="96.0" fill="#FEFFFF" transform="matrix(1.00, 0.00, -0.00, -1.00, 734.7, 532.1)">d</text><text xml:space="preserve" font-family="Palatino-Italic,Palatino" font-style="italic" font-size="96.0" fill="#FEFFFF" transform="matrix(1.00, 0.00, -0.00, -1.00, 782.7, 532.1)"> </text><text xml:space="preserve" font-family="Palatino-Italic,Palatino" font-style="italic" font-size="96.0" fill="#FEFFFF" transform="matrix(1.00, 0.00, -0.00, -1.00, 806.7, 532.1)">o</text><text xml:space="preserve" font-family="Palatino-Italic,Palatino" font-style="italic" font-size="96.0" fill="#FEFFFF" transform="matrix(1.00, 0.00, -0.00, -1.00, 849.3, 532.1)">n</text><text xml:space="preserve" font-family="Palatino-Italic,Palatino" font-style="italic" font-size="96.0" fill="#FEFFFF" transform="matrix(1.00, 0.00, -0.00, -1.00, 902.7, 532.1)">l</text><text xml:space="preserve" font-family="Palatino-Italic,Palatino" font-style="italic" font-size="96.0" fill="#FEFFFF" transform="matrix(1.00, 0.00, -0.00, -1.00, 929.4, 532.1)">y</text><text xml:space="preserve" font-family="Palatino-Italic,Palatino" font-style="italic" font-size="96.0" fill="#FEFFFF" transform="matrix(1.00, 0.00, -0.00, -1.00, 977.4, 532.1)"> </text><text xml:space="preserve" font-family="Palatino-Italic,Palatino" font-style="italic" font-size="96.0" fill="#FEFFFF" transform="matrix(1.00, 0.00, -0.00, -1.00, 1001.4, 532.1)">i</text><text xml:space="preserve" font-family="Palatino-Italic,Palatino" font-style="italic" font-size="96.0" fill="#FEFFFF" transform="matrix(1.00, 0.00, -0.00, -1.00, 1028.0, 532.1)">n</text><text xml:space="preserve" font-family="Palatino-Italic,Palatino" font-style="italic" font-size="96.0" fill="#FEFFFF" transform="matrix(1.00, 0.00, -0.00, -1.00, 1081.4, 532.1)">c</text><text xml:space="preserve" font-family="Palatino-Italic,Palatino" font-style="italic" font-size="96.0" fill="#FEFFFF" transform="matrix(1.00, 0.00, -0.00, -1.00, 1120.5, 532.1)">i</text><text xml:space="preserve" font-family="Palatino-Italic,Palatino" font-style="italic" font-size="96.0" fill="#FEFFFF" transform="matrix(1.00, 0.00, -0.00, -1.00, 1147.2, 532.1)">d</text><text xml:space="preserve" font-family="Palatino-Italic,Palatino" font-style="italic" font-size="96.0" fill="#FEFFFF" transform="matrix(1.00, 0.00, -0.00, -1.00, 1195.2, 532.1)">e</text><text xml:space="preserve" font-family="Palatino-Italic,Palatino" font-style="italic" font-size="96.0" fill="#FEFFFF" transform="matrix(1.00, 0.00, -0.00, -1.00, 1232.6, 532.1)">n</text><text xml:space="preserve" font-family="Palatino-Italic,Palatino" font-style="italic" font-size="96.0" fill="#FEFFFF" transform="matrix(1.00, 0.00, -0.00, -1.00, 1286.0, 532.1)">t</text><text xml:space="preserve" font-family="Palatino-Italic,Palatino" font-style="italic" font-size="96.0" fill="#FEFFFF" transform="matrix(1.00, 0.00, -0.00, -1.00, 1317.9, 532.1)">a</text><text xml:space="preserve" font-family="Palatino-Italic,Palatino" font-style="italic" font-size="96.0" fill="#FEFFFF" transform="matrix(1.00, 0.00, -0.00, -1.00, 1360.5, 532.1)">l</text><text xml:space="preserve" font-family="Palatino-Italic,Palatino" font-style="italic" font-size="96.0" fill="#FEFFFF" transform="matrix(1.00, 0.00, -0.00, -1.00, 1387.2, 532.1)">l</text><text xml:space="preserve" font-family="Palatino-Italic,Palatino" font-style="italic" font-size="96.0" fill="#FEFFFF" transform="matrix(1.00, 0.00, -0.00, -1.00, 1413.8, 532.1)">y</text><text xml:space="preserve" font-family="Palatino-Italic,Palatino" font-style="italic" font-size="96.0" fill="#FEFFFF" transform="matrix(1.00, 0.00, -0.00, -1.00, 1461.8, 532.1)"> </text><text xml:space="preserve" font-family="Palatino-Italic,Palatino" font-style="italic" font-size="96.0" fill="#FEFFFF" transform="matrix(1.00, 0.00, -0.00, -1.00, 1485.8, 532.1)">f</text><text xml:space="preserve" font-family="Palatino-Italic,Palatino" font-style="italic" font-size="96.0" fill="#FEFFFF" transform="matrix(1.00, 0.00, -0.00, -1.00, 1512.5, 532.1)">o</text><text xml:space="preserve" font-family="Palatino-Italic,Palatino" font-style="italic" font-size="96.0" fill="#FEFFFF" transform="matrix(1.00, 0.00, -0.00, -1.00, 1555.1, 532.1)">r</text><text xml:space="preserve" font-family="Palatino-Italic,Palatino" font-style="italic" font-size="96.0" fill="#FEFFFF" transform="matrix(1.00, 0.00, -0.00, -1.00, 1592.5, 532.1)"> </text><text xml:space="preserve" font-family="Palatino-Italic,Palatino" font-style="italic" font-size="96.0" fill="#FEFFFF" transform="matrix(1.00, 0.00, -0.00, -1.00, 541.4, 405.1)">m</text><text xml:space="preserve" font-family="Palatino-Italic,Palatino" font-style="italic" font-size="96.0" fill="#FEFFFF" transform="matrix(1.00, 0.00, -0.00, -1.00, 616.0, 405.1)">a</text><text xml:space="preserve" font-family="Palatino-Italic,Palatino" font-style="italic" font-size="96.0" fill="#FEFFFF" transform="matrix(1.00, 0.00, -0.00, -1.00, 658.6, 405.1)">c</text><text xml:space="preserve" font-family="Palatino-Italic,Palatino" font-style="italic" font-size="96.0" fill="#FEFFFF" transform="matrix(1.00, 0.00, -0.00, -1.00, 697.7, 405.1)">h</text><text xml:space="preserve" font-family="Palatino-Italic,Palatino" font-style="italic" font-size="96.0" fill="#FEFFFF" transform="matrix(1.00, 0.00, -0.00, -1.00, 745.7, 405.1)">i</text><text xml:space="preserve" font-family="Palatino-Italic,Palatino" font-style="italic" font-size="96.0" fill="#FEFFFF" transform="matrix(1.00, 0.00, -0.00, -1.00, 772.4, 405.1)">n</text><text xml:space="preserve" font-family="Palatino-Italic,Palatino" font-style="italic" font-size="96.0" fill="#FEFFFF" transform="matrix(1.00, 0.00, -0.00, -1.00, 825.8, 405.1)">e</text><text xml:space="preserve" font-family="Palatino-Italic,Palatino" font-style="italic" font-size="96.0" fill="#FEFFFF" transform="matrix(1.00, 0.00, -0.00, -1.00, 863.2, 405.1)">s</text><text xml:space="preserve" font-family="Palatino-Italic,Palatino" font-style="italic" font-size="96.0" fill="#FEFFFF" transform="matrix(1.00, 0.00, -0.00, -1.00, 900.5, 405.1)"> </text><text xml:space="preserve" font-family="Palatino-Italic,Palatino" font-style="italic" font-size="96.0" fill="#FEFFFF" transform="matrix(1.00, 0.00, -0.00, -1.00, 924.5, 405.1)">t</text><text xml:space="preserve" font-family="Palatino-Italic,Palatino" font-style="italic" font-size="96.0" fill="#FEFFFF" transform="matrix(1.00, 0.00, -0.00, -1.00, 956.5, 405.1)">o</text><text xml:space="preserve" font-family="Palatino-Italic,Palatino" font-style="italic" font-size="96.0" fill="#FEFFFF" transform="matrix(1.00, 0.00, -0.00, -1.00, 999.1, 405.1)"> </text><text xml:space="preserve" font-family="Palatino-Italic,Palatino" font-style="italic" font-size="96.0" fill="#FEFFFF" transform="matrix(1.00, 0.00, -0.00, -1.00, 1023.1, 405.1)">e</text><text xml:space="preserve" font-family="Palatino-Italic,Palatino" font-style="italic" font-size="96.0" fill="#FEFFFF" transform="matrix(1.00, 0.00, -0.00, -1.00, 1060.5, 405.1)">x</text><text xml:space="preserve" font-family="Palatino-Italic,Palatino" font-style="italic" font-size="96.0" fill="#FEFFFF" transform="matrix(1.00, 0.00, -0.00, -1.00, 1108.5, 405.1)">e</text><text xml:space="preserve" font-family="Palatino-Italic,Palatino" font-style="italic" font-size="96.0" fill="#FEFFFF" transform="matrix(1.00, 0.00, -0.00, -1.00, 1145.9, 405.1)">c</text><text xml:space="preserve" font-family="Palatino-Italic,Palatino" font-style="italic" font-size="96.0" fill="#FEFFFF" transform="matrix(1.00, 0.00, -0.00, -1.00, 1185.0, 405.1)">u</text><text xml:space="preserve" font-family="Palatino-Italic,Palatino" font-style="italic" font-size="96.0" fill="#FEFFFF" transform="matrix(1.00, 0.00, -0.00, -1.00, 1238.4, 405.1)">t</text><text xml:space="preserve" font-family="Palatino-Italic,Palatino" font-style="italic" font-size="96.0" fill="#FEFFFF" transform="matrix(1.00, 0.00, -0.00, -1.00, 1270.4, 405.1)">e</text><text xml:space="preserve" font-family="Palatino-Italic,Palatino" font-style="italic" font-size="96.0" fill="#FEFFFF" transform="matrix(1.00, 0.00, -0.00, -1.00, 1307.7, 405.1)">.</text><text xml:space="preserve" font-family="Palatino-Italic,Palatino" font-style="italic" font-size="96.0" fill="#FEFFFF" transform="matrix(1.00, 0.00, -0.00, -1.00, 1331.6, 405.1)">”</text></g></svg>