<?xml version="1.0" encoding="UTF-8" standalone="no"?><svg xmlns="http://www.w3.org/2000/svg" xmlns:xlink="http://www.w3.org/1999/xlink" clip-rule="evenodd" stroke-miterlimit="10" viewBox="0 0 1920 1080"><desc>SVG generated by Keynote</desc><defs></defs><g transform="matrix(1.00, 0.00, -0.00, -1.00, 0.0, 1080.0)"><g><clipPath id="clip0x7f8410b26670"><path d="M 0.0 1080.0 L 1920.0 1080.0 L 1920.0 0.0 L 0.0 0.0 Z M 0.0 1080.0 "></path></clipPath><g clip-path="url(#clip0x7f8410b26670)"><image xlink:href="../../BF7430C7-5211-4E68-B118-AC68FDB76F0F/assets/A81AF0278930B93F47F55E5BB6D3A023.png" width="1920.00" height="1080.00" transform="matrix(1.00, 0.00, -0.00, -1.00, 0.0, 1080.0)"></image></g></g><text xml:space="preserve" font-family="FiraMono-Regular,Fira Mono" font-size="35.0" fill="#C07B1E" transform="matrix(1.00, 0.00, -0.00, -1.00, 137.0, 639.5)">c</text><text xml:space="preserve" font-family="FiraMono-Regular,Fira Mono" font-size="35.0" fill="#C07B1E" transform="matrix(1.00, 0.00, -0.00, -1.00, 158.0, 639.5)">l</text><text xml:space="preserve" font-family="FiraMono-Regular,Fira Mono" font-size="35.0" fill="#C07B1E" transform="matrix(1.00, 0.00, -0.00, -1.00, 179.0, 639.5)">a</text><text xml:space="preserve" font-family="FiraMono-Regular,Fira Mono" font-size="35.0" fill="#C07B1E" transform="matrix(1.00, 0.00, -0.00, -1.00, 200.0, 639.5)">s</text><text xml:space="preserve" font-family="FiraMono-Regular,Fira Mono" font-size="35.0" fill="#C07B1E" transform="matrix(1.00, 0.00, -0.00, -1.00, 221.0, 639.5)">s</text><text xml:space="preserve" font-family="FiraMono-Regular,Fira Mono" font-size="35.0" fill="#000000" transform="matrix(1.00, 0.00, -0.00, -1.00, 242.0, 639.5)"> </text><text xml:space="preserve" font-family="FiraMono-Regular,Fira Mono" font-size="35.0" fill="#FFFFFF" transform="matrix(1.00, 0.00, -0.00, -1.00, 263.0, 639.5)">M</text><text xml:space="preserve" font-family="FiraMono-Regular,Fira Mono" font-size="35.0" fill="#FFFFFF" transform="matrix(1.00, 0.00, -0.00, -1.00, 284.0, 639.5)">e</text><text xml:space="preserve" font-family="FiraMono-Regular,Fira Mono" font-size="35.0" fill="#FFFFFF" transform="matrix(1.00, 0.00, -0.00, -1.00, 305.0, 639.5)">m</text><text xml:space="preserve" font-family="FiraMono-Regular,Fira Mono" font-size="35.0" fill="#FFFFFF" transform="matrix(1.00, 0.00, -0.00, -1.00, 326.0, 639.5)">o</text><text xml:space="preserve" font-family="FiraMono-Regular,Fira Mono" font-size="35.0" fill="#FFFFFF" transform="matrix(1.00, 0.00, -0.00, -1.00, 347.0, 639.5)">r</text><text xml:space="preserve" font-family="FiraMono-Regular,Fira Mono" font-size="35.0" fill="#FFFFFF" transform="matrix(1.00, 0.00, -0.00, -1.00, 368.0, 639.5)">y</text><text xml:space="preserve" font-family="FiraMono-Regular,Fira Mono" font-size="35.0" fill="#FFFFFF" transform="matrix(1.00, 0.00, -0.00, -1.00, 389.0, 639.5)">S</text><text xml:space="preserve" font-family="FiraMono-Regular,Fira Mono" font-size="35.0" fill="#FFFFFF" transform="matrix(1.00, 0.00, -0.00, -1.00, 410.0, 639.5)">h</text><text xml:space="preserve" font-family="FiraMono-Regular,Fira Mono" font-size="35.0" fill="#FFFFFF" transform="matrix(1.00, 0.00, -0.00, -1.00, 431.0, 639.5)">i</text><text xml:space="preserve" font-family="FiraMono-Regular,Fira Mono" font-size="35.0" fill="#FFFFFF" transform="matrix(1.00, 0.00, -0.00, -1.00, 452.0, 639.5)">p</text><text xml:space="preserve" font-family="FiraMono-Regular,Fira Mono" font-size="35.0" fill="#FFFFFF" transform="matrix(1.00, 0.00, -0.00, -1.00, 473.0, 639.5)">S</text><text xml:space="preserve" font-family="FiraMono-Regular,Fira Mono" font-size="35.0" fill="#FFFFFF" transform="matrix(1.00, 0.00, -0.00, -1.00, 494.0, 639.5)">t</text><text xml:space="preserve" font-family="FiraMono-Regular,Fira Mono" font-size="35.0" fill="#FFFFFF" transform="matrix(1.00, 0.00, -0.00, -1.00, 515.0, 639.5)">o</text><text xml:space="preserve" font-family="FiraMono-Regular,Fira Mono" font-size="35.0" fill="#FFFFFF" transform="matrix(1.00, 0.00, -0.00, -1.00, 536.0, 639.5)">r</text><text xml:space="preserve" font-family="FiraMono-Regular,Fira Mono" font-size="35.0" fill="#FFFFFF" transform="matrix(1.00, 0.00, -0.00, -1.00, 557.0, 639.5)">e</text><text xml:space="preserve" font-family="FiraMono-Regular,Fira Mono" font-size="35.0" fill="#FFFFFF" transform="matrix(1.00, 0.00, -0.00, -1.00, 578.0, 639.5)">S</text><text xml:space="preserve" font-family="FiraMono-Regular,Fira Mono" font-size="35.0" fill="#FFFFFF" transform="matrix(1.00, 0.00, -0.00, -1.00, 599.0, 639.5)">p</text><text xml:space="preserve" font-family="FiraMono-Regular,Fira Mono" font-size="35.0" fill="#FFFFFF" transform="matrix(1.00, 0.00, -0.00, -1.00, 620.0, 639.5)">e</text><text xml:space="preserve" font-family="FiraMono-Regular,Fira Mono" font-size="35.0" fill="#FFFFFF" transform="matrix(1.00, 0.00, -0.00, -1.00, 641.0, 639.5)">c</text><text xml:space="preserve" font-family="FiraMono-Regular,Fira Mono" font-size="35.0" fill="#000000" transform="matrix(1.00, 0.00, -0.00, -1.00, 662.0, 639.5)"> </text><text xml:space="preserve" font-family="FiraMono-Regular,Fira Mono" font-size="35.0" fill="#C07B1E" transform="matrix(1.00, 0.00, -0.00, -1.00, 683.0, 639.5)">e</text><text xml:space="preserve" font-family="FiraMono-Regular,Fira Mono" font-size="35.0" fill="#C07B1E" transform="matrix(1.00, 0.00, -0.00, -1.00, 704.0, 639.5)">x</text><text xml:space="preserve" font-family="FiraMono-Regular,Fira Mono" font-size="35.0" fill="#C07B1E" transform="matrix(1.00, 0.00, -0.00, -1.00, 725.0, 639.5)">t</text><text xml:space="preserve" font-family="FiraMono-Regular,Fira Mono" font-size="35.0" fill="#C07B1E" transform="matrix(1.00, 0.00, -0.00, -1.00, 746.0, 639.5)">e</text><text xml:space="preserve" font-family="FiraMono-Regular,Fira Mono" font-size="35.0" fill="#C07B1E" transform="matrix(1.00, 0.00, -0.00, -1.00, 767.0, 639.5)">n</text><text xml:space="preserve" font-family="FiraMono-Regular,Fira Mono" font-size="35.0" fill="#C07B1E" transform="matrix(1.00, 0.00, -0.00, -1.00, 788.0, 639.5)">d</text><text xml:space="preserve" font-family="FiraMono-Regular,Fira Mono" font-size="35.0" fill="#C07B1E" transform="matrix(1.00, 0.00, -0.00, -1.00, 809.0, 639.5)">s</text><text xml:space="preserve" font-family="FiraMono-Regular,Fira Mono" font-size="35.0" fill="#000000" transform="matrix(1.00, 0.00, -0.00, -1.00, 830.0, 639.5)"> </text><text xml:space="preserve" font-family="FiraMono-Regular,Fira Mono" font-size="35.0" fill="#FFFFFF" transform="matrix(1.00, 0.00, -0.00, -1.00, 851.0, 639.5)">S</text><text xml:space="preserve" font-family="FiraMono-Regular,Fira Mono" font-size="35.0" fill="#FFFFFF" transform="matrix(1.00, 0.00, -0.00, -1.00, 872.0, 639.5)">h</text><text xml:space="preserve" font-family="FiraMono-Regular,Fira Mono" font-size="35.0" fill="#FFFFFF" transform="matrix(1.00, 0.00, -0.00, -1.00, 893.0, 639.5)">i</text><text xml:space="preserve" font-family="FiraMono-Regular,Fira Mono" font-size="35.0" fill="#FFFFFF" transform="matrix(1.00, 0.00, -0.00, -1.00, 914.0, 639.5)">p</text><text xml:space="preserve" font-family="FiraMono-Regular,Fira Mono" font-size="35.0" fill="#FFFFFF" transform="matrix(1.00, 0.00, -0.00, -1.00, 935.0, 639.5)">S</text><text xml:space="preserve" font-family="FiraMono-Regular,Fira Mono" font-size="35.0" fill="#FFFFFF" transform="matrix(1.00, 0.00, -0.00, -1.00, 956.0, 639.5)">t</text><text xml:space="preserve" font-family="FiraMono-Regular,Fira Mono" font-size="35.0" fill="#FFFFFF" transform="matrix(1.00, 0.00, -0.00, -1.00, 977.0, 639.5)">o</text><text xml:space="preserve" font-family="FiraMono-Regular,Fira Mono" font-size="35.0" fill="#FFFFFF" transform="matrix(1.00, 0.00, -0.00, -1.00, 998.0, 639.5)">r</text><text xml:space="preserve" font-family="FiraMono-Regular,Fira Mono" font-size="35.0" fill="#FFFFFF" transform="matrix(1.00, 0.00, -0.00, -1.00, 1019.0, 639.5)">e</text><text xml:space="preserve" font-family="FiraMono-Regular,Fira Mono" font-size="35.0" fill="#FFFFFF" transform="matrix(1.00, 0.00, -0.00, -1.00, 1040.0, 639.5)">S</text><text xml:space="preserve" font-family="FiraMono-Regular,Fira Mono" font-size="35.0" fill="#FFFFFF" transform="matrix(1.00, 0.00, -0.00, -1.00, 1061.0, 639.5)">p</text><text xml:space="preserve" font-family="FiraMono-Regular,Fira Mono" font-size="35.0" fill="#FFFFFF" transform="matrix(1.00, 0.00, -0.00, -1.00, 1082.0, 639.5)">e</text><text xml:space="preserve" font-family="FiraMono-Regular,Fira Mono" font-size="35.0" fill="#FFFFFF" transform="matrix(1.00, 0.00, -0.00, -1.00, 1103.0, 639.5)">c</text><text xml:space="preserve" font-family="FiraMono-Regular,Fira Mono" font-size="35.0" fill="#FFFFFF" transform="matrix(1.00, 0.00, -0.00, -1.00, 1124.0, 639.5)">&lt;</text><text xml:space="preserve" font-family="FiraMono-Regular,Fira Mono" font-size="35.0" fill="#FFFFFF" transform="matrix(1.00, 0.00, -0.00, -1.00, 1145.0, 639.5)">M</text><text xml:space="preserve" font-family="FiraMono-Regular,Fira Mono" font-size="35.0" fill="#FFFFFF" transform="matrix(1.00, 0.00, -0.00, -1.00, 1166.0, 639.5)">e</text><text xml:space="preserve" font-family="FiraMono-Regular,Fira Mono" font-size="35.0" fill="#FFFFFF" transform="matrix(1.00, 0.00, -0.00, -1.00, 1187.0, 639.5)">m</text><text xml:space="preserve" font-family="FiraMono-Regular,Fira Mono" font-size="35.0" fill="#FFFFFF" transform="matrix(1.00, 0.00, -0.00, -1.00, 1208.0, 639.5)">o</text><text xml:space="preserve" font-family="FiraMono-Regular,Fira Mono" font-size="35.0" fill="#FFFFFF" transform="matrix(1.00, 0.00, -0.00, -1.00, 1229.0, 639.5)">r</text><text xml:space="preserve" font-family="FiraMono-Regular,Fira Mono" font-size="35.0" fill="#FFFFFF" transform="matrix(1.00, 0.00, -0.00, -1.00, 1250.0, 639.5)">y</text><text xml:space="preserve" font-family="FiraMono-Regular,Fira Mono" font-size="35.0" fill="#FFFFFF" transform="matrix(1.00, 0.00, -0.00, -1.00, 1271.0, 639.5)">S</text><text xml:space="preserve" font-family="FiraMono-Regular,Fira Mono" font-size="35.0" fill="#FFFFFF" transform="matrix(1.00, 0.00, -0.00, -1.00, 1292.0, 639.5)">h</text><text xml:space="preserve" font-family="FiraMono-Regular,Fira Mono" font-size="35.0" fill="#FFFFFF" transform="matrix(1.00, 0.00, -0.00, -1.00, 1313.0, 639.5)">i</text><text xml:space="preserve" font-family="FiraMono-Regular,Fira Mono" font-size="35.0" fill="#FFFFFF" transform="matrix(1.00, 0.00, -0.00, -1.00, 1334.0, 639.5)">p</text><text xml:space="preserve" font-family="FiraMono-Regular,Fira Mono" font-size="35.0" fill="#FFFFFF" transform="matrix(1.00, 0.00, -0.00, -1.00, 1355.0, 639.5)">S</text><text xml:space="preserve" font-family="FiraMono-Regular,Fira Mono" font-size="35.0" fill="#FFFFFF" transform="matrix(1.00, 0.00, -0.00, -1.00, 1376.0, 639.5)">t</text><text xml:space="preserve" font-family="FiraMono-Regular,Fira Mono" font-size="35.0" fill="#FFFFFF" transform="matrix(1.00, 0.00, -0.00, -1.00, 1397.0, 639.5)">o</text><text xml:space="preserve" font-family="FiraMono-Regular,Fira Mono" font-size="35.0" fill="#FFFFFF" transform="matrix(1.00, 0.00, -0.00, -1.00, 1418.0, 639.5)">r</text><text xml:space="preserve" font-family="FiraMono-Regular,Fira Mono" font-size="35.0" fill="#FFFFFF" transform="matrix(1.00, 0.00, -0.00, -1.00, 1439.0, 639.5)">e</text><text xml:space="preserve" font-family="FiraMono-Regular,Fira Mono" font-size="35.0" fill="#FFFFFF" transform="matrix(1.00, 0.00, -0.00, -1.00, 1460.0, 639.5)">&gt;</text><text xml:space="preserve" font-family="FiraMono-Regular,Fira Mono" font-size="35.0" fill="#FFFFFF" transform="matrix(1.00, 0.00, -0.00, -1.00, 1481.0, 639.5)"> </text><text xml:space="preserve" font-family="FiraMono-Regular,Fira Mono" font-size="35.0" fill="#FFFFFF" transform="matrix(1.00, 0.00, -0.00, -1.00, 1502.0, 639.5)">{</text><text xml:space="preserve" font-family="FiraMono-Regular,Fira Mono" font-size="35.0" fill="#000000" transform="matrix(1.00, 0.00, -0.00, -1.00, 1523.0, 639.5)"> </text><text xml:space="preserve" font-family="FiraMono-Regular,Fira Mono" font-size="35.0" fill="#000000" transform="matrix(1.00, 0.00, -0.00, -1.00, 137.0, 584.5)"> </text><text xml:space="preserve" font-family="FiraMono-Regular,Fira Mono" font-size="35.0" fill="#000000" transform="matrix(1.00, 0.00, -0.00, -1.00, 158.0, 584.5)"> </text><text xml:space="preserve" font-family="FiraMono-Regular,Fira Mono" font-size="35.0" fill="#C07B1E" transform="matrix(1.00, 0.00, -0.00, -1.00, 179.0, 584.5)">d</text><text xml:space="preserve" font-family="FiraMono-Regular,Fira Mono" font-size="35.0" fill="#C07B1E" transform="matrix(1.00, 0.00, -0.00, -1.00, 200.0, 584.5)">e</text><text xml:space="preserve" font-family="FiraMono-Regular,Fira Mono" font-size="35.0" fill="#C07B1E" transform="matrix(1.00, 0.00, -0.00, -1.00, 221.0, 584.5)">f</text><text xml:space="preserve" font-family="FiraMono-Regular,Fira Mono" font-size="35.0" fill="#000000" transform="matrix(1.00, 0.00, -0.00, -1.00, 242.0, 584.5)"> </text><text xml:space="preserve" font-family="FiraMono-Regular,Fira Mono" font-size="35.0" fill="#FFFFFF" transform="matrix(1.00, 0.00, -0.00, -1.00, 263.0, 584.5)">s</text><text xml:space="preserve" font-family="FiraMono-Regular,Fira Mono" font-size="35.0" fill="#FFFFFF" transform="matrix(1.00, 0.00, -0.00, -1.00, 284.0, 584.5)">e</text><text xml:space="preserve" font-family="FiraMono-Regular,Fira Mono" font-size="35.0" fill="#FFFFFF" transform="matrix(1.00, 0.00, -0.00, -1.00, 305.0, 584.5)">t</text><text xml:space="preserve" font-family="FiraMono-Regular,Fira Mono" font-size="35.0" fill="#FFFFFF" transform="matrix(1.00, 0.00, -0.00, -1.00, 326.0, 584.5)">u</text><text xml:space="preserve" font-family="FiraMono-Regular,Fira Mono" font-size="35.0" fill="#FFFFFF" transform="matrix(1.00, 0.00, -0.00, -1.00, 347.0, 584.5)">p</text><text xml:space="preserve" font-family="FiraMono-Regular,Fira Mono" font-size="35.0" fill="#FFFFFF" transform="matrix(1.00, 0.00, -0.00, -1.00, 368.0, 584.5)">(</text><text xml:space="preserve" font-family="FiraMono-Regular,Fira Mono" font-size="35.0" fill="#FFFFFF" transform="matrix(1.00, 0.00, -0.00, -1.00, 389.0, 584.5)">)</text><text xml:space="preserve" font-family="FiraMono-Regular,Fira Mono" font-size="35.0" fill="#FFFFFF" transform="matrix(1.00, 0.00, -0.00, -1.00, 410.0, 584.5)"> </text><text xml:space="preserve" font-family="FiraMono-Regular,Fira Mono" font-size="35.0" fill="#FFFFFF" transform="matrix(1.00, 0.00, -0.00, -1.00, 431.0, 584.5)">{</text><text xml:space="preserve" font-family="FiraMono-Regular,Fira Mono" font-size="35.0" fill="#000000" transform="matrix(1.00, 0.00, -0.00, -1.00, 452.0, 584.5)"> </text><text xml:space="preserve" font-family="FiraMono-Regular,Fira Mono" font-size="35.0" fill="#FFFFFF" transform="matrix(1.00, 0.00, -0.00, -1.00, 137.0, 529.5)"> </text><text xml:space="preserve" font-family="FiraMono-Regular,Fira Mono" font-size="35.0" fill="#FFFFFF" transform="matrix(1.00, 0.00, -0.00, -1.00, 158.0, 529.5)"> </text><text xml:space="preserve" font-family="FiraMono-Regular,Fira Mono" font-size="35.0" fill="#FFFFFF" transform="matrix(1.00, 0.00, -0.00, -1.00, 179.0, 529.5)"> </text><text xml:space="preserve" font-family="FiraMono-Regular,Fira Mono" font-size="35.0" fill="#FFFFFF" transform="matrix(1.00, 0.00, -0.00, -1.00, 200.0, 529.5)"> </text><text xml:space="preserve" font-family="FiraMono-Regular,Fira Mono" font-size="35.0" fill="#FFFFFF" transform="matrix(1.00, 0.00, -0.00, -1.00, 221.0, 529.5)">s</text><text xml:space="preserve" font-family="FiraMono-Regular,Fira Mono" font-size="35.0" fill="#FFFFFF" transform="matrix(1.00, 0.00, -0.00, -1.00, 242.0, 529.5)">h</text><text xml:space="preserve" font-family="FiraMono-Regular,Fira Mono" font-size="35.0" fill="#FFFFFF" transform="matrix(1.00, 0.00, -0.00, -1.00, 263.0, 529.5)">i</text><text xml:space="preserve" font-family="FiraMono-Regular,Fira Mono" font-size="35.0" fill="#FFFFFF" transform="matrix(1.00, 0.00, -0.00, -1.00, 284.0, 529.5)">p</text><text xml:space="preserve" font-family="FiraMono-Regular,Fira Mono" font-size="35.0" fill="#FFFFFF" transform="matrix(1.00, 0.00, -0.00, -1.00, 305.0, 529.5)">s</text><text xml:space="preserve" font-family="FiraMono-Regular,Fira Mono" font-size="35.0" fill="#000000" transform="matrix(1.00, 0.00, -0.00, -1.00, 326.0, 529.5)"> </text><text xml:space="preserve" font-family="FiraMono-Regular,Fira Mono" font-size="35.0" fill="#FFFFFF" transform="matrix(1.00, 0.00, -0.00, -1.00, 347.0, 529.5)">=</text><text xml:space="preserve" font-family="FiraMono-Regular,Fira Mono" font-size="35.0" fill="#000000" transform="matrix(1.00, 0.00, -0.00, -1.00, 368.0, 529.5)"> </text><text xml:space="preserve" font-family="FiraMono-Regular,Fira Mono" font-size="35.0" fill="#C07B1E" transform="matrix(1.00, 0.00, -0.00, -1.00, 389.0, 529.5)">n</text><text xml:space="preserve" font-family="FiraMono-Regular,Fira Mono" font-size="35.0" fill="#C07B1E" transform="matrix(1.00, 0.00, -0.00, -1.00, 410.0, 529.5)">e</text><text xml:space="preserve" font-family="FiraMono-Regular,Fira Mono" font-size="35.0" fill="#C07B1E" transform="matrix(1.00, 0.00, -0.00, -1.00, 431.0, 529.5)">w</text><text xml:space="preserve" font-family="FiraMono-Regular,Fira Mono" font-size="35.0" fill="#000000" transform="matrix(1.00, 0.00, -0.00, -1.00, 452.0, 529.5)"> </text><text xml:space="preserve" font-family="FiraMono-Regular,Fira Mono" font-size="35.0" fill="#FFFFFF" transform="matrix(1.00, 0.00, -0.00, -1.00, 473.0, 529.5)">M</text><text xml:space="preserve" font-family="FiraMono-Regular,Fira Mono" font-size="35.0" fill="#FFFFFF" transform="matrix(1.00, 0.00, -0.00, -1.00, 494.0, 529.5)">e</text><text xml:space="preserve" font-family="FiraMono-Regular,Fira Mono" font-size="35.0" fill="#FFFFFF" transform="matrix(1.00, 0.00, -0.00, -1.00, 515.0, 529.5)">m</text><text xml:space="preserve" font-family="FiraMono-Regular,Fira Mono" font-size="35.0" fill="#FFFFFF" transform="matrix(1.00, 0.00, -0.00, -1.00, 536.0, 529.5)">o</text><text xml:space="preserve" font-family="FiraMono-Regular,Fira Mono" font-size="35.0" fill="#FFFFFF" transform="matrix(1.00, 0.00, -0.00, -1.00, 557.0, 529.5)">r</text><text xml:space="preserve" font-family="FiraMono-Regular,Fira Mono" font-size="35.0" fill="#FFFFFF" transform="matrix(1.00, 0.00, -0.00, -1.00, 578.0, 529.5)">y</text><text xml:space="preserve" font-family="FiraMono-Regular,Fira Mono" font-size="35.0" fill="#FFFFFF" transform="matrix(1.00, 0.00, -0.00, -1.00, 599.0, 529.5)">S</text><text xml:space="preserve" font-family="FiraMono-Regular,Fira Mono" font-size="35.0" fill="#FFFFFF" transform="matrix(1.00, 0.00, -0.00, -1.00, 620.0, 529.5)">h</text><text xml:space="preserve" font-family="FiraMono-Regular,Fira Mono" font-size="35.0" fill="#FFFFFF" transform="matrix(1.00, 0.00, -0.00, -1.00, 641.0, 529.5)">i</text><text xml:space="preserve" font-family="FiraMono-Regular,Fira Mono" font-size="35.0" fill="#FFFFFF" transform="matrix(1.00, 0.00, -0.00, -1.00, 662.0, 529.5)">p</text><text xml:space="preserve" font-family="FiraMono-Regular,Fira Mono" font-size="35.0" fill="#FFFFFF" transform="matrix(1.00, 0.00, -0.00, -1.00, 683.0, 529.5)">S</text><text xml:space="preserve" font-family="FiraMono-Regular,Fira Mono" font-size="35.0" fill="#FFFFFF" transform="matrix(1.00, 0.00, -0.00, -1.00, 704.0, 529.5)">t</text><text xml:space="preserve" font-family="FiraMono-Regular,Fira Mono" font-size="35.0" fill="#FFFFFF" transform="matrix(1.00, 0.00, -0.00, -1.00, 725.0, 529.5)">o</text><text xml:space="preserve" font-family="FiraMono-Regular,Fira Mono" font-size="35.0" fill="#FFFFFF" transform="matrix(1.00, 0.00, -0.00, -1.00, 746.0, 529.5)">r</text><text xml:space="preserve" font-family="FiraMono-Regular,Fira Mono" font-size="35.0" fill="#FFFFFF" transform="matrix(1.00, 0.00, -0.00, -1.00, 767.0, 529.5)">e</text><text xml:space="preserve" font-family="FiraMono-Regular,Fira Mono" font-size="35.0" fill="#FFFFFF" transform="matrix(1.00, 0.00, -0.00, -1.00, 788.0, 529.5)">(</text><text xml:space="preserve" font-family="FiraMono-Regular,Fira Mono" font-size="35.0" fill="#FFFFFF" transform="matrix(1.00, 0.00, -0.00, -1.00, 809.0, 529.5)">)</text><text xml:space="preserve" font-family="FiraMono-Regular,Fira Mono" font-size="35.0" fill="#000000" transform="matrix(1.00, 0.00, -0.00, -1.00, 830.0, 529.5)"> </text><text xml:space="preserve" font-family="FiraMono-Regular,Fira Mono" font-size="35.0" fill="#000000" transform="matrix(1.00, 0.00, -0.00, -1.00, 137.0, 474.5)"> </text><text xml:space="preserve" font-family="FiraMono-Regular,Fira Mono" font-size="35.0" fill="#000000" transform="matrix(1.00, 0.00, -0.00, -1.00, 158.0, 474.5)"> </text><text xml:space="preserve" font-family="FiraMono-Regular,Fira Mono" font-size="35.0" fill="#FFFFFF" transform="matrix(1.00, 0.00, -0.00, -1.00, 179.0, 474.5)">}</text><text xml:space="preserve" font-family="FiraMono-Regular,Fira Mono" font-size="35.0" fill="#000000" transform="matrix(1.00, 0.00, -0.00, -1.00, 200.0, 474.5)"> </text><text xml:space="preserve" font-family="FiraMono-Regular,Fira Mono" font-size="35.0" fill="#FFFFFF" transform="matrix(1.00, 0.00, -0.00, -1.00, 137.0, 419.5)">}</text></g></svg>