<?xml version="1.0" encoding="UTF-8" standalone="no"?><svg xmlns="http://www.w3.org/2000/svg" xmlns:xlink="http://www.w3.org/1999/xlink" clip-rule="evenodd" stroke-miterlimit="10" viewBox="0 0 1920 1080"><desc>SVG generated by Keynote</desc><defs></defs><g transform="matrix(1.00, 0.00, -0.00, -1.00, 0.0, 1080.0)"><g><clipPath id="clip0x7f8410b29580"><path d="M 0.0 1080.0 L 1920.0 1080.0 L 1920.0 0.0 L 0.0 0.0 Z M 0.0 1080.0 "></path></clipPath><g clip-path="url(#clip0x7f8410b29580)"><image xlink:href="../../BF7430C7-5211-4E68-B118-AC68FDB76F0F/assets/A81AF0278930B93F47F55E5BB6D3A023.png" width="1920.00" height="1080.00" transform="matrix(1.00, 0.00, -0.00, -1.00, 0.0, 1080.0)"></image></g></g><text xml:space="preserve" font-family="FiraMono-Regular,Fira Mono" font-size="36.4" fill="#C07B1E" transform="matrix(1.00, 0.00, -0.00, -1.00, 137.0, 893.2)">c</text><text xml:space="preserve" font-family="FiraMono-Regular,Fira Mono" font-size="36.4" fill="#C07B1E" transform="matrix(1.00, 0.00, -0.00, -1.00, 158.8, 893.2)">l</text><text xml:space="preserve" font-family="FiraMono-Regular,Fira Mono" font-size="36.4" fill="#C07B1E" transform="matrix(1.00, 0.00, -0.00, -1.00, 180.7, 893.2)">a</text><text xml:space="preserve" font-family="FiraMono-Regular,Fira Mono" font-size="36.4" fill="#C07B1E" transform="matrix(1.00, 0.00, -0.00, -1.00, 202.5, 893.2)">s</text><text xml:space="preserve" font-family="FiraMono-Regular,Fira Mono" font-size="36.4" fill="#C07B1E" transform="matrix(1.00, 0.00, -0.00, -1.00, 224.4, 893.2)">s</text><text xml:space="preserve" font-family="FiraMono-Regular,Fira Mono" font-size="36.4" fill="#000000" transform="matrix(1.00, 0.00, -0.00, -1.00, 246.2, 893.2)"> </text><text xml:space="preserve" font-family="FiraMono-Regular,Fira Mono" font-size="36.4" fill="#FFFFFF" transform="matrix(1.00, 0.00, -0.00, -1.00, 268.0, 893.2)">P</text><text xml:space="preserve" font-family="FiraMono-Regular,Fira Mono" font-size="36.4" fill="#FFFFFF" transform="matrix(1.00, 0.00, -0.00, -1.00, 289.9, 893.2)">e</text><text xml:space="preserve" font-family="FiraMono-Regular,Fira Mono" font-size="36.4" fill="#FFFFFF" transform="matrix(1.00, 0.00, -0.00, -1.00, 311.7, 893.2)">r</text><text xml:space="preserve" font-family="FiraMono-Regular,Fira Mono" font-size="36.4" fill="#FFFFFF" transform="matrix(1.00, 0.00, -0.00, -1.00, 333.6, 893.2)">s</text><text xml:space="preserve" font-family="FiraMono-Regular,Fira Mono" font-size="36.4" fill="#FFFFFF" transform="matrix(1.00, 0.00, -0.00, -1.00, 355.4, 893.2)">i</text><text xml:space="preserve" font-family="FiraMono-Regular,Fira Mono" font-size="36.4" fill="#FFFFFF" transform="matrix(1.00, 0.00, -0.00, -1.00, 377.2, 893.2)">s</text><text xml:space="preserve" font-family="FiraMono-Regular,Fira Mono" font-size="36.4" fill="#FFFFFF" transform="matrix(1.00, 0.00, -0.00, -1.00, 399.1, 893.2)">t</text><text xml:space="preserve" font-family="FiraMono-Regular,Fira Mono" font-size="36.4" fill="#FFFFFF" transform="matrix(1.00, 0.00, -0.00, -1.00, 420.9, 893.2)">e</text><text xml:space="preserve" font-family="FiraMono-Regular,Fira Mono" font-size="36.4" fill="#FFFFFF" transform="matrix(1.00, 0.00, -0.00, -1.00, 442.8, 893.2)">n</text><text xml:space="preserve" font-family="FiraMono-Regular,Fira Mono" font-size="36.4" fill="#FFFFFF" transform="matrix(1.00, 0.00, -0.00, -1.00, 464.6, 893.2)">t</text><text xml:space="preserve" font-family="FiraMono-Regular,Fira Mono" font-size="36.4" fill="#FFFFFF" transform="matrix(1.00, 0.00, -0.00, -1.00, 486.4, 893.2)">S</text><text xml:space="preserve" font-family="FiraMono-Regular,Fira Mono" font-size="36.4" fill="#FFFFFF" transform="matrix(1.00, 0.00, -0.00, -1.00, 508.3, 893.2)">h</text><text xml:space="preserve" font-family="FiraMono-Regular,Fira Mono" font-size="36.4" fill="#FFFFFF" transform="matrix(1.00, 0.00, -0.00, -1.00, 530.1, 893.2)">i</text><text xml:space="preserve" font-family="FiraMono-Regular,Fira Mono" font-size="36.4" fill="#FFFFFF" transform="matrix(1.00, 0.00, -0.00, -1.00, 552.0, 893.2)">p</text><text xml:space="preserve" font-family="FiraMono-Regular,Fira Mono" font-size="36.4" fill="#FFFFFF" transform="matrix(1.00, 0.00, -0.00, -1.00, 573.8, 893.2)">S</text><text xml:space="preserve" font-family="FiraMono-Regular,Fira Mono" font-size="36.4" fill="#FFFFFF" transform="matrix(1.00, 0.00, -0.00, -1.00, 595.6, 893.2)">t</text><text xml:space="preserve" font-family="FiraMono-Regular,Fira Mono" font-size="36.4" fill="#FFFFFF" transform="matrix(1.00, 0.00, -0.00, -1.00, 617.5, 893.2)">o</text><text xml:space="preserve" font-family="FiraMono-Regular,Fira Mono" font-size="36.4" fill="#FFFFFF" transform="matrix(1.00, 0.00, -0.00, -1.00, 639.3, 893.2)">r</text><text xml:space="preserve" font-family="FiraMono-Regular,Fira Mono" font-size="36.4" fill="#FFFFFF" transform="matrix(1.00, 0.00, -0.00, -1.00, 661.2, 893.2)">e</text><text xml:space="preserve" font-family="FiraMono-Regular,Fira Mono" font-size="36.4" fill="#FFFFFF" transform="matrix(1.00, 0.00, -0.00, -1.00, 683.0, 893.2)">S</text><text xml:space="preserve" font-family="FiraMono-Regular,Fira Mono" font-size="36.4" fill="#FFFFFF" transform="matrix(1.00, 0.00, -0.00, -1.00, 704.8, 893.2)">p</text><text xml:space="preserve" font-family="FiraMono-Regular,Fira Mono" font-size="36.4" fill="#FFFFFF" transform="matrix(1.00, 0.00, -0.00, -1.00, 726.7, 893.2)">e</text><text xml:space="preserve" font-family="FiraMono-Regular,Fira Mono" font-size="36.4" fill="#FFFFFF" transform="matrix(1.00, 0.00, -0.00, -1.00, 748.5, 893.2)">c</text><text xml:space="preserve" font-family="FiraMono-Regular,Fira Mono" font-size="36.4" fill="#000000" transform="matrix(1.00, 0.00, -0.00, -1.00, 770.4, 893.2)"> </text><text xml:space="preserve" font-family="FiraMono-Regular,Fira Mono" font-size="36.4" fill="#C07B1E" transform="matrix(1.00, 0.00, -0.00, -1.00, 792.2, 893.2)">e</text><text xml:space="preserve" font-family="FiraMono-Regular,Fira Mono" font-size="36.4" fill="#C07B1E" transform="matrix(1.00, 0.00, -0.00, -1.00, 814.0, 893.2)">x</text><text xml:space="preserve" font-family="FiraMono-Regular,Fira Mono" font-size="36.4" fill="#C07B1E" transform="matrix(1.00, 0.00, -0.00, -1.00, 835.9, 893.2)">t</text><text xml:space="preserve" font-family="FiraMono-Regular,Fira Mono" font-size="36.4" fill="#C07B1E" transform="matrix(1.00, 0.00, -0.00, -1.00, 857.7, 893.2)">e</text><text xml:space="preserve" font-family="FiraMono-Regular,Fira Mono" font-size="36.4" fill="#C07B1E" transform="matrix(1.00, 0.00, -0.00, -1.00, 879.6, 893.2)">n</text><text xml:space="preserve" font-family="FiraMono-Regular,Fira Mono" font-size="36.4" fill="#C07B1E" transform="matrix(1.00, 0.00, -0.00, -1.00, 901.4, 893.2)">d</text><text xml:space="preserve" font-family="FiraMono-Regular,Fira Mono" font-size="36.4" fill="#C07B1E" transform="matrix(1.00, 0.00, -0.00, -1.00, 923.2, 893.2)">s</text><text xml:space="preserve" font-family="FiraMono-Regular,Fira Mono" font-size="36.4" fill="#000000" transform="matrix(1.00, 0.00, -0.00, -1.00, 945.1, 893.2)"> </text><text xml:space="preserve" font-family="FiraMono-Regular,Fira Mono" font-size="36.4" fill="#FFFFFF" transform="matrix(1.00, 0.00, -0.00, -1.00, 966.9, 893.2)">S</text><text xml:space="preserve" font-family="FiraMono-Regular,Fira Mono" font-size="36.4" fill="#FFFFFF" transform="matrix(1.00, 0.00, -0.00, -1.00, 988.8, 893.2)">h</text><text xml:space="preserve" font-family="FiraMono-Regular,Fira Mono" font-size="36.4" fill="#FFFFFF" transform="matrix(1.00, 0.00, -0.00, -1.00, 1010.6, 893.2)">i</text><text xml:space="preserve" font-family="FiraMono-Regular,Fira Mono" font-size="36.4" fill="#FFFFFF" transform="matrix(1.00, 0.00, -0.00, -1.00, 1032.4, 893.2)">p</text><text xml:space="preserve" font-family="FiraMono-Regular,Fira Mono" font-size="36.4" fill="#FFFFFF" transform="matrix(1.00, 0.00, -0.00, -1.00, 1054.3, 893.2)">S</text><text xml:space="preserve" font-family="FiraMono-Regular,Fira Mono" font-size="36.4" fill="#FFFFFF" transform="matrix(1.00, 0.00, -0.00, -1.00, 1076.1, 893.2)">t</text><text xml:space="preserve" font-family="FiraMono-Regular,Fira Mono" font-size="36.4" fill="#FFFFFF" transform="matrix(1.00, 0.00, -0.00, -1.00, 1098.0, 893.2)">o</text><text xml:space="preserve" font-family="FiraMono-Regular,Fira Mono" font-size="36.4" fill="#FFFFFF" transform="matrix(1.00, 0.00, -0.00, -1.00, 1119.8, 893.2)">r</text><text xml:space="preserve" font-family="FiraMono-Regular,Fira Mono" font-size="36.4" fill="#FFFFFF" transform="matrix(1.00, 0.00, -0.00, -1.00, 1141.6, 893.2)">e</text><text xml:space="preserve" font-family="FiraMono-Regular,Fira Mono" font-size="36.4" fill="#FFFFFF" transform="matrix(1.00, 0.00, -0.00, -1.00, 1163.5, 893.2)">S</text><text xml:space="preserve" font-family="FiraMono-Regular,Fira Mono" font-size="36.4" fill="#FFFFFF" transform="matrix(1.00, 0.00, -0.00, -1.00, 1185.3, 893.2)">p</text><text xml:space="preserve" font-family="FiraMono-Regular,Fira Mono" font-size="36.4" fill="#FFFFFF" transform="matrix(1.00, 0.00, -0.00, -1.00, 1207.2, 893.2)">e</text><text xml:space="preserve" font-family="FiraMono-Regular,Fira Mono" font-size="36.4" fill="#FFFFFF" transform="matrix(1.00, 0.00, -0.00, -1.00, 1229.0, 893.2)">c</text><text xml:space="preserve" font-family="FiraMono-Regular,Fira Mono" font-size="36.4" fill="#FFFFFF" transform="matrix(1.00, 0.00, -0.00, -1.00, 1250.8, 893.2)">&lt;</text><text xml:space="preserve" font-family="FiraMono-Regular,Fira Mono" font-size="36.4" fill="#FFFFFF" transform="matrix(1.00, 0.00, -0.00, -1.00, 1272.7, 893.2)">P</text><text xml:space="preserve" font-family="FiraMono-Regular,Fira Mono" font-size="36.4" fill="#FFFFFF" transform="matrix(1.00, 0.00, -0.00, -1.00, 1294.5, 893.2)">e</text><text xml:space="preserve" font-family="FiraMono-Regular,Fira Mono" font-size="36.4" fill="#FFFFFF" transform="matrix(1.00, 0.00, -0.00, -1.00, 1316.4, 893.2)">r</text><text xml:space="preserve" font-family="FiraMono-Regular,Fira Mono" font-size="36.4" fill="#FFFFFF" transform="matrix(1.00, 0.00, -0.00, -1.00, 1338.2, 893.2)">s</text><text xml:space="preserve" font-family="FiraMono-Regular,Fira Mono" font-size="36.4" fill="#FFFFFF" transform="matrix(1.00, 0.00, -0.00, -1.00, 1360.0, 893.2)">i</text><text xml:space="preserve" font-family="FiraMono-Regular,Fira Mono" font-size="36.4" fill="#FFFFFF" transform="matrix(1.00, 0.00, -0.00, -1.00, 1381.9, 893.2)">s</text><text xml:space="preserve" font-family="FiraMono-Regular,Fira Mono" font-size="36.4" fill="#FFFFFF" transform="matrix(1.00, 0.00, -0.00, -1.00, 1403.7, 893.2)">t</text><text xml:space="preserve" font-family="FiraMono-Regular,Fira Mono" font-size="36.4" fill="#FFFFFF" transform="matrix(1.00, 0.00, -0.00, -1.00, 1425.6, 893.2)">e</text><text xml:space="preserve" font-family="FiraMono-Regular,Fira Mono" font-size="36.4" fill="#FFFFFF" transform="matrix(1.00, 0.00, -0.00, -1.00, 1447.4, 893.2)">n</text><text xml:space="preserve" font-family="FiraMono-Regular,Fira Mono" font-size="36.4" fill="#FFFFFF" transform="matrix(1.00, 0.00, -0.00, -1.00, 1469.2, 893.2)">t</text><text xml:space="preserve" font-family="FiraMono-Regular,Fira Mono" font-size="36.4" fill="#FFFFFF" transform="matrix(1.00, 0.00, -0.00, -1.00, 1491.1, 893.2)">S</text><text xml:space="preserve" font-family="FiraMono-Regular,Fira Mono" font-size="36.4" fill="#FFFFFF" transform="matrix(1.00, 0.00, -0.00, -1.00, 1512.9, 893.2)">h</text><text xml:space="preserve" font-family="FiraMono-Regular,Fira Mono" font-size="36.4" fill="#FFFFFF" transform="matrix(1.00, 0.00, -0.00, -1.00, 1534.8, 893.2)">i</text><text xml:space="preserve" font-family="FiraMono-Regular,Fira Mono" font-size="36.4" fill="#FFFFFF" transform="matrix(1.00, 0.00, -0.00, -1.00, 1556.6, 893.2)">p</text><text xml:space="preserve" font-family="FiraMono-Regular,Fira Mono" font-size="36.4" fill="#FFFFFF" transform="matrix(1.00, 0.00, -0.00, -1.00, 1578.4, 893.2)">S</text><text xml:space="preserve" font-family="FiraMono-Regular,Fira Mono" font-size="36.4" fill="#FFFFFF" transform="matrix(1.00, 0.00, -0.00, -1.00, 1600.3, 893.2)">t</text><text xml:space="preserve" font-family="FiraMono-Regular,Fira Mono" font-size="36.4" fill="#FFFFFF" transform="matrix(1.00, 0.00, -0.00, -1.00, 1622.1, 893.2)">o</text><text xml:space="preserve" font-family="FiraMono-Regular,Fira Mono" font-size="36.4" fill="#FFFFFF" transform="matrix(1.00, 0.00, -0.00, -1.00, 1644.0, 893.2)">r</text><text xml:space="preserve" font-family="FiraMono-Regular,Fira Mono" font-size="36.4" fill="#FFFFFF" transform="matrix(1.00, 0.00, -0.00, -1.00, 1665.8, 893.2)">e</text><text xml:space="preserve" font-family="FiraMono-Regular,Fira Mono" font-size="36.4" fill="#FFFFFF" transform="matrix(1.00, 0.00, -0.00, -1.00, 1687.6, 893.2)">&gt;</text><text xml:space="preserve" font-family="FiraMono-Regular,Fira Mono" font-size="36.4" fill="#FFFFFF" transform="matrix(1.00, 0.00, -0.00, -1.00, 1709.5, 893.2)"> </text><text xml:space="preserve" font-family="FiraMono-Regular,Fira Mono" font-size="36.4" fill="#FFFFFF" transform="matrix(1.00, 0.00, -0.00, -1.00, 1731.3, 893.2)">{</text><text xml:space="preserve" font-family="FiraMono-Regular,Fira Mono" font-size="36.4" fill="#000000" transform="matrix(1.00, 0.00, -0.00, -1.00, 1753.2, 893.2)"> </text><text xml:space="preserve" font-family="FiraMono-Regular,Fira Mono" font-size="36.4" fill="#000000" transform="matrix(1.00, 0.00, -0.00, -1.00, 137.0, 781.2)"> </text><text xml:space="preserve" font-family="FiraMono-Regular,Fira Mono" font-size="36.4" fill="#000000" transform="matrix(1.00, 0.00, -0.00, -1.00, 158.8, 781.2)"> </text><text xml:space="preserve" font-family="FiraMono-Regular,Fira Mono" font-size="36.4" fill="#C07B1E" transform="matrix(1.00, 0.00, -0.00, -1.00, 180.7, 781.2)">@</text><text xml:space="preserve" font-family="FiraMono-Regular,Fira Mono" font-size="36.4" fill="#C07B1E" transform="matrix(1.00, 0.00, -0.00, -1.00, 202.5, 781.2)">A</text><text xml:space="preserve" font-family="FiraMono-Regular,Fira Mono" font-size="36.4" fill="#C07B1E" transform="matrix(1.00, 0.00, -0.00, -1.00, 224.4, 781.2)">u</text><text xml:space="preserve" font-family="FiraMono-Regular,Fira Mono" font-size="36.4" fill="#C07B1E" transform="matrix(1.00, 0.00, -0.00, -1.00, 246.2, 781.2)">t</text><text xml:space="preserve" font-family="FiraMono-Regular,Fira Mono" font-size="36.4" fill="#C07B1E" transform="matrix(1.00, 0.00, -0.00, -1.00, 268.0, 781.2)">o</text><text xml:space="preserve" font-family="FiraMono-Regular,Fira Mono" font-size="36.4" fill="#C07B1E" transform="matrix(1.00, 0.00, -0.00, -1.00, 289.9, 781.2)">C</text><text xml:space="preserve" font-family="FiraMono-Regular,Fira Mono" font-size="36.4" fill="#C07B1E" transform="matrix(1.00, 0.00, -0.00, -1.00, 311.7, 781.2)">l</text><text xml:space="preserve" font-family="FiraMono-Regular,Fira Mono" font-size="36.4" fill="#C07B1E" transform="matrix(1.00, 0.00, -0.00, -1.00, 333.6, 781.2)">e</text><text xml:space="preserve" font-family="FiraMono-Regular,Fira Mono" font-size="36.4" fill="#C07B1E" transform="matrix(1.00, 0.00, -0.00, -1.00, 355.4, 781.2)">a</text><text xml:space="preserve" font-family="FiraMono-Regular,Fira Mono" font-size="36.4" fill="#C07B1E" transform="matrix(1.00, 0.00, -0.00, -1.00, 377.2, 781.2)">n</text><text xml:space="preserve" font-family="FiraMono-Regular,Fira Mono" font-size="36.4" fill="#C07B1E" transform="matrix(1.00, 0.00, -0.00, -1.00, 399.1, 781.2)">u</text><text xml:space="preserve" font-family="FiraMono-Regular,Fira Mono" font-size="36.4" fill="#C07B1E" transform="matrix(1.00, 0.00, -0.00, -1.00, 420.9, 781.2)">p</text><text xml:space="preserve" font-family="FiraMono-Regular,Fira Mono" font-size="36.4" fill="#000000" transform="matrix(1.00, 0.00, -0.00, -1.00, 442.8, 781.2)"> </text><text xml:space="preserve" font-family="FiraMono-Regular,Fira Mono" font-size="36.4" fill="#FFFFFF" transform="matrix(1.00, 0.00, -0.00, -1.00, 464.6, 781.2)">H</text><text xml:space="preserve" font-family="FiraMono-Regular,Fira Mono" font-size="36.4" fill="#FFFFFF" transform="matrix(1.00, 0.00, -0.00, -1.00, 486.4, 781.2)">a</text><text xml:space="preserve" font-family="FiraMono-Regular,Fira Mono" font-size="36.4" fill="#FFFFFF" transform="matrix(1.00, 0.00, -0.00, -1.00, 508.3, 781.2)">n</text><text xml:space="preserve" font-family="FiraMono-Regular,Fira Mono" font-size="36.4" fill="#FFFFFF" transform="matrix(1.00, 0.00, -0.00, -1.00, 530.1, 781.2)">d</text><text xml:space="preserve" font-family="FiraMono-Regular,Fira Mono" font-size="36.4" fill="#FFFFFF" transform="matrix(1.00, 0.00, -0.00, -1.00, 552.0, 781.2)">l</text><text xml:space="preserve" font-family="FiraMono-Regular,Fira Mono" font-size="36.4" fill="#FFFFFF" transform="matrix(1.00, 0.00, -0.00, -1.00, 573.8, 781.2)">e</text><text xml:space="preserve" font-family="FiraMono-Regular,Fira Mono" font-size="36.4" fill="#FFFFFF" transform="matrix(1.00, 0.00, -0.00, -1.00, 595.6, 781.2)"> </text><text xml:space="preserve" font-family="FiraMono-Regular,Fira Mono" font-size="36.4" fill="#FFFFFF" transform="matrix(1.00, 0.00, -0.00, -1.00, 617.5, 781.2)">h</text><text xml:space="preserve" font-family="FiraMono-Regular,Fira Mono" font-size="36.4" fill="#FFFFFF" transform="matrix(1.00, 0.00, -0.00, -1.00, 639.3, 781.2)">a</text><text xml:space="preserve" font-family="FiraMono-Regular,Fira Mono" font-size="36.4" fill="#FFFFFF" transform="matrix(1.00, 0.00, -0.00, -1.00, 661.2, 781.2)">n</text><text xml:space="preserve" font-family="FiraMono-Regular,Fira Mono" font-size="36.4" fill="#FFFFFF" transform="matrix(1.00, 0.00, -0.00, -1.00, 683.0, 781.2)">d</text><text xml:space="preserve" font-family="FiraMono-Regular,Fira Mono" font-size="36.4" fill="#FFFFFF" transform="matrix(1.00, 0.00, -0.00, -1.00, 704.8, 781.2)">l</text><text xml:space="preserve" font-family="FiraMono-Regular,Fira Mono" font-size="36.4" fill="#FFFFFF" transform="matrix(1.00, 0.00, -0.00, -1.00, 726.7, 781.2)">e</text><text xml:space="preserve" font-family="FiraMono-Regular,Fira Mono" font-size="36.4" fill="#000000" transform="matrix(1.00, 0.00, -0.00, -1.00, 748.5, 781.2)"> </text><text xml:space="preserve" font-family="FiraMono-Regular,Fira Mono" font-size="36.4" fill="#000000" transform="matrix(1.00, 0.00, -0.00, -1.00, 137.0, 669.2)"> </text><text xml:space="preserve" font-family="FiraMono-Regular,Fira Mono" font-size="36.4" fill="#000000" transform="matrix(1.00, 0.00, -0.00, -1.00, 158.8, 669.2)"> </text><text xml:space="preserve" font-family="FiraMono-Regular,Fira Mono" font-size="36.4" fill="#C07B1E" transform="matrix(1.00, 0.00, -0.00, -1.00, 180.7, 669.2)">d</text><text xml:space="preserve" font-family="FiraMono-Regular,Fira Mono" font-size="36.4" fill="#C07B1E" transform="matrix(1.00, 0.00, -0.00, -1.00, 202.5, 669.2)">e</text><text xml:space="preserve" font-family="FiraMono-Regular,Fira Mono" font-size="36.4" fill="#C07B1E" transform="matrix(1.00, 0.00, -0.00, -1.00, 224.4, 669.2)">f</text><text xml:space="preserve" font-family="FiraMono-Regular,Fira Mono" font-size="36.4" fill="#000000" transform="matrix(1.00, 0.00, -0.00, -1.00, 246.2, 669.2)"> </text><text xml:space="preserve" font-family="FiraMono-Regular,Fira Mono" font-size="36.4" fill="#FFFFFF" transform="matrix(1.00, 0.00, -0.00, -1.00, 268.0, 669.2)">s</text><text xml:space="preserve" font-family="FiraMono-Regular,Fira Mono" font-size="36.4" fill="#FFFFFF" transform="matrix(1.00, 0.00, -0.00, -1.00, 289.9, 669.2)">e</text><text xml:space="preserve" font-family="FiraMono-Regular,Fira Mono" font-size="36.4" fill="#FFFFFF" transform="matrix(1.00, 0.00, -0.00, -1.00, 311.7, 669.2)">t</text><text xml:space="preserve" font-family="FiraMono-Regular,Fira Mono" font-size="36.4" fill="#FFFFFF" transform="matrix(1.00, 0.00, -0.00, -1.00, 333.6, 669.2)">u</text><text xml:space="preserve" font-family="FiraMono-Regular,Fira Mono" font-size="36.4" fill="#FFFFFF" transform="matrix(1.00, 0.00, -0.00, -1.00, 355.4, 669.2)">p</text><text xml:space="preserve" font-family="FiraMono-Regular,Fira Mono" font-size="36.4" fill="#FFFFFF" transform="matrix(1.00, 0.00, -0.00, -1.00, 377.2, 669.2)">(</text><text xml:space="preserve" font-family="FiraMono-Regular,Fira Mono" font-size="36.4" fill="#FFFFFF" transform="matrix(1.00, 0.00, -0.00, -1.00, 399.1, 669.2)">)</text><text xml:space="preserve" font-family="FiraMono-Regular,Fira Mono" font-size="36.4" fill="#FFFFFF" transform="matrix(1.00, 0.00, -0.00, -1.00, 420.9, 669.2)"> </text><text xml:space="preserve" font-family="FiraMono-Regular,Fira Mono" font-size="36.4" fill="#FFFFFF" transform="matrix(1.00, 0.00, -0.00, -1.00, 442.8, 669.2)">{</text><text xml:space="preserve" font-family="FiraMono-Regular,Fira Mono" font-size="36.4" fill="#000000" transform="matrix(1.00, 0.00, -0.00, -1.00, 464.6, 669.2)"> </text><text xml:space="preserve" font-family="FiraMono-Regular,Fira Mono" font-size="36.4" fill="#FFFFFF" transform="matrix(1.00, 0.00, -0.00, -1.00, 137.0, 613.2)"> </text><text xml:space="preserve" font-family="FiraMono-Regular,Fira Mono" font-size="36.4" fill="#FFFFFF" transform="matrix(1.00, 0.00, -0.00, -1.00, 158.8, 613.2)"> </text><text xml:space="preserve" font-family="FiraMono-Regular,Fira Mono" font-size="36.4" fill="#FFFFFF" transform="matrix(1.00, 0.00, -0.00, -1.00, 180.7, 613.2)"> </text><text xml:space="preserve" font-family="FiraMono-Regular,Fira Mono" font-size="36.4" fill="#FFFFFF" transform="matrix(1.00, 0.00, -0.00, -1.00, 202.5, 613.2)"> </text><text xml:space="preserve" font-family="FiraMono-Regular,Fira Mono" font-size="36.4" fill="#FFFFFF" transform="matrix(1.00, 0.00, -0.00, -1.00, 224.4, 613.2)">h</text><text xml:space="preserve" font-family="FiraMono-Regular,Fira Mono" font-size="36.4" fill="#FFFFFF" transform="matrix(1.00, 0.00, -0.00, -1.00, 246.2, 613.2)">a</text><text xml:space="preserve" font-family="FiraMono-Regular,Fira Mono" font-size="36.4" fill="#FFFFFF" transform="matrix(1.00, 0.00, -0.00, -1.00, 268.0, 613.2)">n</text><text xml:space="preserve" font-family="FiraMono-Regular,Fira Mono" font-size="36.4" fill="#FFFFFF" transform="matrix(1.00, 0.00, -0.00, -1.00, 289.9, 613.2)">d</text><text xml:space="preserve" font-family="FiraMono-Regular,Fira Mono" font-size="36.4" fill="#FFFFFF" transform="matrix(1.00, 0.00, -0.00, -1.00, 311.7, 613.2)">l</text><text xml:space="preserve" font-family="FiraMono-Regular,Fira Mono" font-size="36.4" fill="#FFFFFF" transform="matrix(1.00, 0.00, -0.00, -1.00, 333.6, 613.2)">e</text><text xml:space="preserve" font-family="FiraMono-Regular,Fira Mono" font-size="36.4" fill="#000000" transform="matrix(1.00, 0.00, -0.00, -1.00, 355.4, 613.2)"> </text><text xml:space="preserve" font-family="FiraMono-Regular,Fira Mono" font-size="36.4" fill="#FFFFFF" transform="matrix(1.00, 0.00, -0.00, -1.00, 377.2, 613.2)">=</text><text xml:space="preserve" font-family="FiraMono-Regular,Fira Mono" font-size="36.4" fill="#000000" transform="matrix(1.00, 0.00, -0.00, -1.00, 399.1, 613.2)"> </text><text xml:space="preserve" font-family="FiraMono-Regular,Fira Mono" font-size="36.4" fill="#FFFFFF" transform="matrix(1.00, 0.00, -0.00, -1.00, 420.9, 613.2)">D</text><text xml:space="preserve" font-family="FiraMono-Regular,Fira Mono" font-size="36.4" fill="#FFFFFF" transform="matrix(1.00, 0.00, -0.00, -1.00, 442.8, 613.2)">B</text><text xml:space="preserve" font-family="FiraMono-Regular,Fira Mono" font-size="36.4" fill="#FFFFFF" transform="matrix(1.00, 0.00, -0.00, -1.00, 464.6, 613.2)">I</text><text xml:space="preserve" font-family="FiraMono-Regular,Fira Mono" font-size="36.4" fill="#FFFFFF" transform="matrix(1.00, 0.00, -0.00, -1.00, 486.4, 613.2)">.</text><text xml:space="preserve" font-family="FiraMono-Regular,Fira Mono" font-size="36.4" fill="#FFFFFF" transform="matrix(1.00, 0.00, -0.00, -1.00, 508.3, 613.2)">o</text><text xml:space="preserve" font-family="FiraMono-Regular,Fira Mono" font-size="36.4" fill="#FFFFFF" transform="matrix(1.00, 0.00, -0.00, -1.00, 530.1, 613.2)">p</text><text xml:space="preserve" font-family="FiraMono-Regular,Fira Mono" font-size="36.4" fill="#FFFFFF" transform="matrix(1.00, 0.00, -0.00, -1.00, 552.0, 613.2)">e</text><text xml:space="preserve" font-family="FiraMono-Regular,Fira Mono" font-size="36.4" fill="#FFFFFF" transform="matrix(1.00, 0.00, -0.00, -1.00, 573.8, 613.2)">n</text><text xml:space="preserve" font-family="FiraMono-Regular,Fira Mono" font-size="36.4" fill="#FFFFFF" transform="matrix(1.00, 0.00, -0.00, -1.00, 595.6, 613.2)">(</text><text xml:space="preserve" font-family="FiraMono-Regular,Fira Mono" font-size="36.4" fill="#FF2600" transform="matrix(1.00, 0.00, -0.00, -1.00, 617.5, 613.2)">"</text><text xml:space="preserve" font-family="FiraMono-Regular,Fira Mono" font-size="36.4" fill="#FF2600" transform="matrix(1.00, 0.00, -0.00, -1.00, 639.3, 613.2)">j</text><text xml:space="preserve" font-family="FiraMono-Regular,Fira Mono" font-size="36.4" fill="#FF2600" transform="matrix(1.00, 0.00, -0.00, -1.00, 661.2, 613.2)">d</text><text xml:space="preserve" font-family="FiraMono-Regular,Fira Mono" font-size="36.4" fill="#FF2600" transform="matrix(1.00, 0.00, -0.00, -1.00, 683.0, 613.2)">b</text><text xml:space="preserve" font-family="FiraMono-Regular,Fira Mono" font-size="36.4" fill="#FF2600" transform="matrix(1.00, 0.00, -0.00, -1.00, 704.8, 613.2)">c</text><text xml:space="preserve" font-family="FiraMono-Regular,Fira Mono" font-size="36.4" fill="#FF2600" transform="matrix(1.00, 0.00, -0.00, -1.00, 726.7, 613.2)">:</text><text xml:space="preserve" font-family="FiraMono-Regular,Fira Mono" font-size="36.4" fill="#FF2600" transform="matrix(1.00, 0.00, -0.00, -1.00, 748.5, 613.2)">h</text><text xml:space="preserve" font-family="FiraMono-Regular,Fira Mono" font-size="36.4" fill="#FF2600" transform="matrix(1.00, 0.00, -0.00, -1.00, 770.4, 613.2)">2</text><text xml:space="preserve" font-family="FiraMono-Regular,Fira Mono" font-size="36.4" fill="#FF2600" transform="matrix(1.00, 0.00, -0.00, -1.00, 792.2, 613.2)">:</text><text xml:space="preserve" font-family="FiraMono-Regular,Fira Mono" font-size="36.4" fill="#FF2600" transform="matrix(1.00, 0.00, -0.00, -1.00, 814.0, 613.2)">m</text><text xml:space="preserve" font-family="FiraMono-Regular,Fira Mono" font-size="36.4" fill="#FF2600" transform="matrix(1.00, 0.00, -0.00, -1.00, 835.9, 613.2)">e</text><text xml:space="preserve" font-family="FiraMono-Regular,Fira Mono" font-size="36.4" fill="#FF2600" transform="matrix(1.00, 0.00, -0.00, -1.00, 857.7, 613.2)">m</text><text xml:space="preserve" font-family="FiraMono-Regular,Fira Mono" font-size="36.4" fill="#FF2600" transform="matrix(1.00, 0.00, -0.00, -1.00, 879.6, 613.2)">:</text><text xml:space="preserve" font-family="FiraMono-Regular,Fira Mono" font-size="36.4" fill="#FF2600" transform="matrix(1.00, 0.00, -0.00, -1.00, 901.4, 613.2)">t</text><text xml:space="preserve" font-family="FiraMono-Regular,Fira Mono" font-size="36.4" fill="#FF2600" transform="matrix(1.00, 0.00, -0.00, -1.00, 923.2, 613.2)">e</text><text xml:space="preserve" font-family="FiraMono-Regular,Fira Mono" font-size="36.4" fill="#FF2600" transform="matrix(1.00, 0.00, -0.00, -1.00, 945.1, 613.2)">s</text><text xml:space="preserve" font-family="FiraMono-Regular,Fira Mono" font-size="36.4" fill="#FF2600" transform="matrix(1.00, 0.00, -0.00, -1.00, 966.9, 613.2)">t</text><text xml:space="preserve" font-family="FiraMono-Regular,Fira Mono" font-size="36.4" fill="#FF2600" transform="matrix(1.00, 0.00, -0.00, -1.00, 988.8, 613.2)">"</text><text xml:space="preserve" font-family="FiraMono-Regular,Fira Mono" font-size="36.4" fill="#FFFFFF" transform="matrix(1.00, 0.00, -0.00, -1.00, 1010.6, 613.2)">)</text><text xml:space="preserve" font-family="FiraMono-Regular,Fira Mono" font-size="36.4" fill="#000000" transform="matrix(1.00, 0.00, -0.00, -1.00, 1032.4, 613.2)"> </text><text xml:space="preserve" font-family="FiraMono-Regular,Fira Mono" font-size="36.4" fill="#FFFFFF" transform="matrix(1.00, 0.00, -0.00, -1.00, 137.0, 557.2)"> </text><text xml:space="preserve" font-family="FiraMono-Regular,Fira Mono" font-size="36.4" fill="#FFFFFF" transform="matrix(1.00, 0.00, -0.00, -1.00, 158.8, 557.2)"> </text><text xml:space="preserve" font-family="FiraMono-Regular,Fira Mono" font-size="36.4" fill="#FFFFFF" transform="matrix(1.00, 0.00, -0.00, -1.00, 180.7, 557.2)"> </text><text xml:space="preserve" font-family="FiraMono-Regular,Fira Mono" font-size="36.4" fill="#FFFFFF" transform="matrix(1.00, 0.00, -0.00, -1.00, 202.5, 557.2)"> </text><text xml:space="preserve" font-family="FiraMono-Regular,Fira Mono" font-size="36.4" fill="#FFFFFF" transform="matrix(1.00, 0.00, -0.00, -1.00, 224.4, 557.2)">s</text><text xml:space="preserve" font-family="FiraMono-Regular,Fira Mono" font-size="36.4" fill="#FFFFFF" transform="matrix(1.00, 0.00, -0.00, -1.00, 246.2, 557.2)">h</text><text xml:space="preserve" font-family="FiraMono-Regular,Fira Mono" font-size="36.4" fill="#FFFFFF" transform="matrix(1.00, 0.00, -0.00, -1.00, 268.0, 557.2)">i</text><text xml:space="preserve" font-family="FiraMono-Regular,Fira Mono" font-size="36.4" fill="#FFFFFF" transform="matrix(1.00, 0.00, -0.00, -1.00, 289.9, 557.2)">p</text><text xml:space="preserve" font-family="FiraMono-Regular,Fira Mono" font-size="36.4" fill="#FFFFFF" transform="matrix(1.00, 0.00, -0.00, -1.00, 311.7, 557.2)">s</text><text xml:space="preserve" font-family="FiraMono-Regular,Fira Mono" font-size="36.4" fill="#000000" transform="matrix(1.00, 0.00, -0.00, -1.00, 333.6, 557.2)"> </text><text xml:space="preserve" font-family="FiraMono-Regular,Fira Mono" font-size="36.4" fill="#FFFFFF" transform="matrix(1.00, 0.00, -0.00, -1.00, 355.4, 557.2)">=</text><text xml:space="preserve" font-family="FiraMono-Regular,Fira Mono" font-size="36.4" fill="#000000" transform="matrix(1.00, 0.00, -0.00, -1.00, 377.2, 557.2)"> </text><text xml:space="preserve" font-family="FiraMono-Regular,Fira Mono" font-size="36.4" fill="#FFFFFF" transform="matrix(1.00, 0.00, -0.00, -1.00, 399.1, 557.2)">h</text><text xml:space="preserve" font-family="FiraMono-Regular,Fira Mono" font-size="36.4" fill="#FFFFFF" transform="matrix(1.00, 0.00, -0.00, -1.00, 420.9, 557.2)">a</text><text xml:space="preserve" font-family="FiraMono-Regular,Fira Mono" font-size="36.4" fill="#FFFFFF" transform="matrix(1.00, 0.00, -0.00, -1.00, 442.8, 557.2)">n</text><text xml:space="preserve" font-family="FiraMono-Regular,Fira Mono" font-size="36.4" fill="#FFFFFF" transform="matrix(1.00, 0.00, -0.00, -1.00, 464.6, 557.2)">d</text><text xml:space="preserve" font-family="FiraMono-Regular,Fira Mono" font-size="36.4" fill="#FFFFFF" transform="matrix(1.00, 0.00, -0.00, -1.00, 486.4, 557.2)">l</text><text xml:space="preserve" font-family="FiraMono-Regular,Fira Mono" font-size="36.4" fill="#FFFFFF" transform="matrix(1.00, 0.00, -0.00, -1.00, 508.3, 557.2)">e</text><text xml:space="preserve" font-family="FiraMono-Regular,Fira Mono" font-size="36.4" fill="#FFFFFF" transform="matrix(1.00, 0.00, -0.00, -1.00, 530.1, 557.2)">.</text><text xml:space="preserve" font-family="FiraMono-Regular,Fira Mono" font-size="36.4" fill="#FFFFFF" transform="matrix(1.00, 0.00, -0.00, -1.00, 552.0, 557.2)">a</text><text xml:space="preserve" font-family="FiraMono-Regular,Fira Mono" font-size="36.4" fill="#FFFFFF" transform="matrix(1.00, 0.00, -0.00, -1.00, 573.8, 557.2)">t</text><text xml:space="preserve" font-family="FiraMono-Regular,Fira Mono" font-size="36.4" fill="#FFFFFF" transform="matrix(1.00, 0.00, -0.00, -1.00, 595.6, 557.2)">t</text><text xml:space="preserve" font-family="FiraMono-Regular,Fira Mono" font-size="36.4" fill="#FFFFFF" transform="matrix(1.00, 0.00, -0.00, -1.00, 617.5, 557.2)">a</text><text xml:space="preserve" font-family="FiraMono-Regular,Fira Mono" font-size="36.4" fill="#FFFFFF" transform="matrix(1.00, 0.00, -0.00, -1.00, 639.3, 557.2)">c</text><text xml:space="preserve" font-family="FiraMono-Regular,Fira Mono" font-size="36.4" fill="#FFFFFF" transform="matrix(1.00, 0.00, -0.00, -1.00, 661.2, 557.2)">h</text><text xml:space="preserve" font-family="FiraMono-Regular,Fira Mono" font-size="36.4" fill="#FFFFFF" transform="matrix(1.00, 0.00, -0.00, -1.00, 683.0, 557.2)">(</text><text xml:space="preserve" font-family="FiraMono-Regular,Fira Mono" font-size="36.4" fill="#FFFFFF" transform="matrix(1.00, 0.00, -0.00, -1.00, 704.8, 557.2)">P</text><text xml:space="preserve" font-family="FiraMono-Regular,Fira Mono" font-size="36.4" fill="#FFFFFF" transform="matrix(1.00, 0.00, -0.00, -1.00, 726.7, 557.2)">e</text><text xml:space="preserve" font-family="FiraMono-Regular,Fira Mono" font-size="36.4" fill="#FFFFFF" transform="matrix(1.00, 0.00, -0.00, -1.00, 748.5, 557.2)">r</text><text xml:space="preserve" font-family="FiraMono-Regular,Fira Mono" font-size="36.4" fill="#FFFFFF" transform="matrix(1.00, 0.00, -0.00, -1.00, 770.4, 557.2)">s</text><text xml:space="preserve" font-family="FiraMono-Regular,Fira Mono" font-size="36.4" fill="#FFFFFF" transform="matrix(1.00, 0.00, -0.00, -1.00, 792.2, 557.2)">i</text><text xml:space="preserve" font-family="FiraMono-Regular,Fira Mono" font-size="36.4" fill="#FFFFFF" transform="matrix(1.00, 0.00, -0.00, -1.00, 814.0, 557.2)">s</text><text xml:space="preserve" font-family="FiraMono-Regular,Fira Mono" font-size="36.4" fill="#FFFFFF" transform="matrix(1.00, 0.00, -0.00, -1.00, 835.9, 557.2)">t</text><text xml:space="preserve" font-family="FiraMono-Regular,Fira Mono" font-size="36.4" fill="#FFFFFF" transform="matrix(1.00, 0.00, -0.00, -1.00, 857.7, 557.2)">e</text><text xml:space="preserve" font-family="FiraMono-Regular,Fira Mono" font-size="36.4" fill="#FFFFFF" transform="matrix(1.00, 0.00, -0.00, -1.00, 879.6, 557.2)">n</text><text xml:space="preserve" font-family="FiraMono-Regular,Fira Mono" font-size="36.4" fill="#FFFFFF" transform="matrix(1.00, 0.00, -0.00, -1.00, 901.4, 557.2)">t</text><text xml:space="preserve" font-family="FiraMono-Regular,Fira Mono" font-size="36.4" fill="#FFFFFF" transform="matrix(1.00, 0.00, -0.00, -1.00, 923.2, 557.2)">S</text><text xml:space="preserve" font-family="FiraMono-Regular,Fira Mono" font-size="36.4" fill="#FFFFFF" transform="matrix(1.00, 0.00, -0.00, -1.00, 945.1, 557.2)">h</text><text xml:space="preserve" font-family="FiraMono-Regular,Fira Mono" font-size="36.4" fill="#FFFFFF" transform="matrix(1.00, 0.00, -0.00, -1.00, 966.9, 557.2)">i</text><text xml:space="preserve" font-family="FiraMono-Regular,Fira Mono" font-size="36.4" fill="#FFFFFF" transform="matrix(1.00, 0.00, -0.00, -1.00, 988.8, 557.2)">p</text><text xml:space="preserve" font-family="FiraMono-Regular,Fira Mono" font-size="36.4" fill="#FFFFFF" transform="matrix(1.00, 0.00, -0.00, -1.00, 1010.6, 557.2)">S</text><text xml:space="preserve" font-family="FiraMono-Regular,Fira Mono" font-size="36.4" fill="#FFFFFF" transform="matrix(1.00, 0.00, -0.00, -1.00, 1032.4, 557.2)">t</text><text xml:space="preserve" font-family="FiraMono-Regular,Fira Mono" font-size="36.4" fill="#FFFFFF" transform="matrix(1.00, 0.00, -0.00, -1.00, 1054.3, 557.2)">o</text><text xml:space="preserve" font-family="FiraMono-Regular,Fira Mono" font-size="36.4" fill="#FFFFFF" transform="matrix(1.00, 0.00, -0.00, -1.00, 1076.1, 557.2)">r</text><text xml:space="preserve" font-family="FiraMono-Regular,Fira Mono" font-size="36.4" fill="#FFFFFF" transform="matrix(1.00, 0.00, -0.00, -1.00, 1098.0, 557.2)">e</text><text xml:space="preserve" font-family="FiraMono-Regular,Fira Mono" font-size="36.4" fill="#FFFFFF" transform="matrix(1.00, 0.00, -0.00, -1.00, 1119.8, 557.2)">)</text><text xml:space="preserve" font-family="FiraMono-Regular,Fira Mono" font-size="36.4" fill="#000000" transform="matrix(1.00, 0.00, -0.00, -1.00, 1141.6, 557.2)"> </text><text xml:space="preserve" font-family="FiraMono-Regular,Fira Mono" font-size="36.4" fill="#FFFFFF" transform="matrix(1.00, 0.00, -0.00, -1.00, 137.0, 501.2)"> </text><text xml:space="preserve" font-family="FiraMono-Regular,Fira Mono" font-size="36.4" fill="#FFFFFF" transform="matrix(1.00, 0.00, -0.00, -1.00, 158.8, 501.2)"> </text><text xml:space="preserve" font-family="FiraMono-Regular,Fira Mono" font-size="36.4" fill="#FFFFFF" transform="matrix(1.00, 0.00, -0.00, -1.00, 180.7, 501.2)"> </text><text xml:space="preserve" font-family="FiraMono-Regular,Fira Mono" font-size="36.4" fill="#FFFFFF" transform="matrix(1.00, 0.00, -0.00, -1.00, 202.5, 501.2)"> </text><text xml:space="preserve" font-family="FiraMono-Regular,Fira Mono" font-size="36.4" fill="#FFFFFF" transform="matrix(1.00, 0.00, -0.00, -1.00, 224.4, 501.2)">s</text><text xml:space="preserve" font-family="FiraMono-Regular,Fira Mono" font-size="36.4" fill="#FFFFFF" transform="matrix(1.00, 0.00, -0.00, -1.00, 246.2, 501.2)">h</text><text xml:space="preserve" font-family="FiraMono-Regular,Fira Mono" font-size="36.4" fill="#FFFFFF" transform="matrix(1.00, 0.00, -0.00, -1.00, 268.0, 501.2)">i</text><text xml:space="preserve" font-family="FiraMono-Regular,Fira Mono" font-size="36.4" fill="#FFFFFF" transform="matrix(1.00, 0.00, -0.00, -1.00, 289.9, 501.2)">p</text><text xml:space="preserve" font-family="FiraMono-Regular,Fira Mono" font-size="36.4" fill="#FFFFFF" transform="matrix(1.00, 0.00, -0.00, -1.00, 311.7, 501.2)">s</text><text xml:space="preserve" font-family="FiraMono-Regular,Fira Mono" font-size="36.4" fill="#FFFFFF" transform="matrix(1.00, 0.00, -0.00, -1.00, 333.6, 501.2)">.</text><text xml:space="preserve" font-family="FiraMono-Regular,Fira Mono" font-size="36.4" fill="#FFFFFF" transform="matrix(1.00, 0.00, -0.00, -1.00, 355.4, 501.2)">c</text><text xml:space="preserve" font-family="FiraMono-Regular,Fira Mono" font-size="36.4" fill="#FFFFFF" transform="matrix(1.00, 0.00, -0.00, -1.00, 377.2, 501.2)">r</text><text xml:space="preserve" font-family="FiraMono-Regular,Fira Mono" font-size="36.4" fill="#FFFFFF" transform="matrix(1.00, 0.00, -0.00, -1.00, 399.1, 501.2)">e</text><text xml:space="preserve" font-family="FiraMono-Regular,Fira Mono" font-size="36.4" fill="#FFFFFF" transform="matrix(1.00, 0.00, -0.00, -1.00, 420.9, 501.2)">a</text><text xml:space="preserve" font-family="FiraMono-Regular,Fira Mono" font-size="36.4" fill="#FFFFFF" transform="matrix(1.00, 0.00, -0.00, -1.00, 442.8, 501.2)">t</text><text xml:space="preserve" font-family="FiraMono-Regular,Fira Mono" font-size="36.4" fill="#FFFFFF" transform="matrix(1.00, 0.00, -0.00, -1.00, 464.6, 501.2)">e</text><text xml:space="preserve" font-family="FiraMono-Regular,Fira Mono" font-size="36.4" fill="#FFFFFF" transform="matrix(1.00, 0.00, -0.00, -1.00, 486.4, 501.2)">T</text><text xml:space="preserve" font-family="FiraMono-Regular,Fira Mono" font-size="36.4" fill="#FFFFFF" transform="matrix(1.00, 0.00, -0.00, -1.00, 508.3, 501.2)">a</text><text xml:space="preserve" font-family="FiraMono-Regular,Fira Mono" font-size="36.4" fill="#FFFFFF" transform="matrix(1.00, 0.00, -0.00, -1.00, 530.1, 501.2)">b</text><text xml:space="preserve" font-family="FiraMono-Regular,Fira Mono" font-size="36.4" fill="#FFFFFF" transform="matrix(1.00, 0.00, -0.00, -1.00, 552.0, 501.2)">l</text><text xml:space="preserve" font-family="FiraMono-Regular,Fira Mono" font-size="36.4" fill="#FFFFFF" transform="matrix(1.00, 0.00, -0.00, -1.00, 573.8, 501.2)">e</text><text xml:space="preserve" font-family="FiraMono-Regular,Fira Mono" font-size="36.4" fill="#FFFFFF" transform="matrix(1.00, 0.00, -0.00, -1.00, 595.6, 501.2)">(</text><text xml:space="preserve" font-family="FiraMono-Regular,Fira Mono" font-size="36.4" fill="#FFFFFF" transform="matrix(1.00, 0.00, -0.00, -1.00, 617.5, 501.2)">)</text><text xml:space="preserve" font-family="FiraMono-Regular,Fira Mono" font-size="36.4" fill="#000000" transform="matrix(1.00, 0.00, -0.00, -1.00, 639.3, 501.2)"> </text><text xml:space="preserve" font-family="FiraMono-Regular,Fira Mono" font-size="36.4" fill="#000000" transform="matrix(1.00, 0.00, -0.00, -1.00, 137.0, 445.2)"> </text><text xml:space="preserve" font-family="FiraMono-Regular,Fira Mono" font-size="36.4" fill="#000000" transform="matrix(1.00, 0.00, -0.00, -1.00, 158.8, 445.2)"> </text><text xml:space="preserve" font-family="FiraMono-Regular,Fira Mono" font-size="36.4" fill="#FFFFFF" transform="matrix(1.00, 0.00, -0.00, -1.00, 180.7, 445.2)">}</text><text xml:space="preserve" font-family="FiraMono-Regular,Fira Mono" font-size="36.4" fill="#000000" transform="matrix(1.00, 0.00, -0.00, -1.00, 202.5, 445.2)"> </text><text xml:space="preserve" font-family="FiraMono-Regular,Fira Mono" font-size="36.4" fill="#000000" transform="matrix(1.00, 0.00, -0.00, -1.00, 137.0, 333.2)"> </text><text xml:space="preserve" font-family="FiraMono-Regular,Fira Mono" font-size="36.4" fill="#000000" transform="matrix(1.00, 0.00, -0.00, -1.00, 158.8, 333.2)"> </text><text xml:space="preserve" font-family="FiraMono-Regular,Fira Mono" font-size="36.4" fill="#C07B1E" transform="matrix(1.00, 0.00, -0.00, -1.00, 180.7, 333.2)">d</text><text xml:space="preserve" font-family="FiraMono-Regular,Fira Mono" font-size="36.4" fill="#C07B1E" transform="matrix(1.00, 0.00, -0.00, -1.00, 202.5, 333.2)">e</text><text xml:space="preserve" font-family="FiraMono-Regular,Fira Mono" font-size="36.4" fill="#C07B1E" transform="matrix(1.00, 0.00, -0.00, -1.00, 224.4, 333.2)">f</text><text xml:space="preserve" font-family="FiraMono-Regular,Fira Mono" font-size="36.4" fill="#000000" transform="matrix(1.00, 0.00, -0.00, -1.00, 246.2, 333.2)"> </text><text xml:space="preserve" font-family="FiraMono-Regular,Fira Mono" font-size="36.4" fill="#FFFFFF" transform="matrix(1.00, 0.00, -0.00, -1.00, 268.0, 333.2)">c</text><text xml:space="preserve" font-family="FiraMono-Regular,Fira Mono" font-size="36.4" fill="#FFFFFF" transform="matrix(1.00, 0.00, -0.00, -1.00, 289.9, 333.2)">l</text><text xml:space="preserve" font-family="FiraMono-Regular,Fira Mono" font-size="36.4" fill="#FFFFFF" transform="matrix(1.00, 0.00, -0.00, -1.00, 311.7, 333.2)">e</text><text xml:space="preserve" font-family="FiraMono-Regular,Fira Mono" font-size="36.4" fill="#FFFFFF" transform="matrix(1.00, 0.00, -0.00, -1.00, 333.6, 333.2)">a</text><text xml:space="preserve" font-family="FiraMono-Regular,Fira Mono" font-size="36.4" fill="#FFFFFF" transform="matrix(1.00, 0.00, -0.00, -1.00, 355.4, 333.2)">n</text><text xml:space="preserve" font-family="FiraMono-Regular,Fira Mono" font-size="36.4" fill="#FFFFFF" transform="matrix(1.00, 0.00, -0.00, -1.00, 377.2, 333.2)">u</text><text xml:space="preserve" font-family="FiraMono-Regular,Fira Mono" font-size="36.4" fill="#FFFFFF" transform="matrix(1.00, 0.00, -0.00, -1.00, 399.1, 333.2)">p</text><text xml:space="preserve" font-family="FiraMono-Regular,Fira Mono" font-size="36.4" fill="#FFFFFF" transform="matrix(1.00, 0.00, -0.00, -1.00, 420.9, 333.2)">(</text><text xml:space="preserve" font-family="FiraMono-Regular,Fira Mono" font-size="36.4" fill="#FFFFFF" transform="matrix(1.00, 0.00, -0.00, -1.00, 442.8, 333.2)">)</text><text xml:space="preserve" font-family="FiraMono-Regular,Fira Mono" font-size="36.4" fill="#FFFFFF" transform="matrix(1.00, 0.00, -0.00, -1.00, 464.6, 333.2)"> </text><text xml:space="preserve" font-family="FiraMono-Regular,Fira Mono" font-size="36.4" fill="#FFFFFF" transform="matrix(1.00, 0.00, -0.00, -1.00, 486.4, 333.2)">{</text><text xml:space="preserve" font-family="FiraMono-Regular,Fira Mono" font-size="36.4" fill="#000000" transform="matrix(1.00, 0.00, -0.00, -1.00, 508.3, 333.2)"> </text><text xml:space="preserve" font-family="FiraMono-Regular,Fira Mono" font-size="36.4" fill="#FFFFFF" transform="matrix(1.00, 0.00, -0.00, -1.00, 137.0, 277.2)"> </text><text xml:space="preserve" font-family="FiraMono-Regular,Fira Mono" font-size="36.4" fill="#FFFFFF" transform="matrix(1.00, 0.00, -0.00, -1.00, 158.8, 277.2)"> </text><text xml:space="preserve" font-family="FiraMono-Regular,Fira Mono" font-size="36.4" fill="#FFFFFF" transform="matrix(1.00, 0.00, -0.00, -1.00, 180.7, 277.2)"> </text><text xml:space="preserve" font-family="FiraMono-Regular,Fira Mono" font-size="36.4" fill="#FFFFFF" transform="matrix(1.00, 0.00, -0.00, -1.00, 202.5, 277.2)"> </text><text xml:space="preserve" font-family="FiraMono-Regular,Fira Mono" font-size="36.4" fill="#FFFFFF" transform="matrix(1.00, 0.00, -0.00, -1.00, 224.4, 277.2)">s</text><text xml:space="preserve" font-family="FiraMono-Regular,Fira Mono" font-size="36.4" fill="#FFFFFF" transform="matrix(1.00, 0.00, -0.00, -1.00, 246.2, 277.2)">h</text><text xml:space="preserve" font-family="FiraMono-Regular,Fira Mono" font-size="36.4" fill="#FFFFFF" transform="matrix(1.00, 0.00, -0.00, -1.00, 268.0, 277.2)">i</text><text xml:space="preserve" font-family="FiraMono-Regular,Fira Mono" font-size="36.4" fill="#FFFFFF" transform="matrix(1.00, 0.00, -0.00, -1.00, 289.9, 277.2)">p</text><text xml:space="preserve" font-family="FiraMono-Regular,Fira Mono" font-size="36.4" fill="#FFFFFF" transform="matrix(1.00, 0.00, -0.00, -1.00, 311.7, 277.2)">s</text><text xml:space="preserve" font-family="FiraMono-Regular,Fira Mono" font-size="36.4" fill="#FFFFFF" transform="matrix(1.00, 0.00, -0.00, -1.00, 333.6, 277.2)">.</text><text xml:space="preserve" font-family="FiraMono-Regular,Fira Mono" font-size="36.4" fill="#FFFFFF" transform="matrix(1.00, 0.00, -0.00, -1.00, 355.4, 277.2)">d</text><text xml:space="preserve" font-family="FiraMono-Regular,Fira Mono" font-size="36.4" fill="#FFFFFF" transform="matrix(1.00, 0.00, -0.00, -1.00, 377.2, 277.2)">r</text><text xml:space="preserve" font-family="FiraMono-Regular,Fira Mono" font-size="36.4" fill="#FFFFFF" transform="matrix(1.00, 0.00, -0.00, -1.00, 399.1, 277.2)">o</text><text xml:space="preserve" font-family="FiraMono-Regular,Fira Mono" font-size="36.4" fill="#FFFFFF" transform="matrix(1.00, 0.00, -0.00, -1.00, 420.9, 277.2)">p</text><text xml:space="preserve" font-family="FiraMono-Regular,Fira Mono" font-size="36.4" fill="#FFFFFF" transform="matrix(1.00, 0.00, -0.00, -1.00, 442.8, 277.2)">T</text><text xml:space="preserve" font-family="FiraMono-Regular,Fira Mono" font-size="36.4" fill="#FFFFFF" transform="matrix(1.00, 0.00, -0.00, -1.00, 464.6, 277.2)">a</text><text xml:space="preserve" font-family="FiraMono-Regular,Fira Mono" font-size="36.4" fill="#FFFFFF" transform="matrix(1.00, 0.00, -0.00, -1.00, 486.4, 277.2)">b</text><text xml:space="preserve" font-family="FiraMono-Regular,Fira Mono" font-size="36.4" fill="#FFFFFF" transform="matrix(1.00, 0.00, -0.00, -1.00, 508.3, 277.2)">l</text><text xml:space="preserve" font-family="FiraMono-Regular,Fira Mono" font-size="36.4" fill="#FFFFFF" transform="matrix(1.00, 0.00, -0.00, -1.00, 530.1, 277.2)">e</text><text xml:space="preserve" font-family="FiraMono-Regular,Fira Mono" font-size="36.4" fill="#FFFFFF" transform="matrix(1.00, 0.00, -0.00, -1.00, 552.0, 277.2)">(</text><text xml:space="preserve" font-family="FiraMono-Regular,Fira Mono" font-size="36.4" fill="#FFFFFF" transform="matrix(1.00, 0.00, -0.00, -1.00, 573.8, 277.2)">)</text><text xml:space="preserve" font-family="FiraMono-Regular,Fira Mono" font-size="36.4" fill="#000000" transform="matrix(1.00, 0.00, -0.00, -1.00, 595.6, 277.2)"> </text><text xml:space="preserve" font-family="FiraMono-Regular,Fira Mono" font-size="36.4" fill="#000000" transform="matrix(1.00, 0.00, -0.00, -1.00, 137.0, 221.2)"> </text><text xml:space="preserve" font-family="FiraMono-Regular,Fira Mono" font-size="36.4" fill="#000000" transform="matrix(1.00, 0.00, -0.00, -1.00, 158.8, 221.2)"> </text><text xml:space="preserve" font-family="FiraMono-Regular,Fira Mono" font-size="36.4" fill="#FFFFFF" transform="matrix(1.00, 0.00, -0.00, -1.00, 180.7, 221.2)">}</text><text xml:space="preserve" font-family="FiraMono-Regular,Fira Mono" font-size="36.4" fill="#000000" transform="matrix(1.00, 0.00, -0.00, -1.00, 202.5, 221.2)"> </text><text xml:space="preserve" font-family="FiraMono-Regular,Fira Mono" font-size="36.4" fill="#FFFFFF" transform="matrix(1.00, 0.00, -0.00, -1.00, 137.0, 165.2)">}</text></g></svg>