<?xml version="1.0" encoding="UTF-8" standalone="no"?><svg xmlns="http://www.w3.org/2000/svg" xmlns:xlink="http://www.w3.org/1999/xlink" clip-rule="evenodd" stroke-miterlimit="10" viewBox="0 0 1920 1080"><desc>SVG generated by Keynote</desc><defs></defs><g transform="matrix(1.00, 0.00, -0.00, -1.00, 0.0, 1080.0)"><g><clipPath id="clip0x7f840b465010"><path d="M 0.0 1080.0 L 1920.0 1080.0 L 1920.0 0.0 L 0.0 0.0 Z M 0.0 1080.0 "></path></clipPath><g clip-path="url(#clip0x7f840b465010)"><image xlink:href="../../BF7430C7-5211-4E68-B118-AC68FDB76F0F/assets/A81AF0278930B93F47F55E5BB6D3A023.png" width="1920.00" height="1080.00" transform="matrix(1.00, 0.00, -0.00, -1.00, 0.0, 1080.0)"></image></g></g><text xml:space="preserve" font-family="FiraMono-Regular,Fira Mono" font-size="52.0" fill="#FFFFFF" transform="matrix(1.00, 0.00, -0.00, -1.00, 137.0, 808.0)">w</text><text xml:space="preserve" font-family="FiraMono-Regular,Fira Mono" font-size="52.0" fill="#FFFFFF" transform="matrix(1.00, 0.00, -0.00, -1.00, 168.2, 808.0)">h</text><text xml:space="preserve" font-family="FiraMono-Regular,Fira Mono" font-size="52.0" fill="#FFFFFF" transform="matrix(1.00, 0.00, -0.00, -1.00, 199.4, 808.0)">e</text><text xml:space="preserve" font-family="FiraMono-Regular,Fira Mono" font-size="52.0" fill="#FFFFFF" transform="matrix(1.00, 0.00, -0.00, -1.00, 230.6, 808.0)">n</text><text xml:space="preserve" font-family="FiraMono-Regular,Fira Mono" font-size="52.0" fill="#FFFFFF" transform="matrix(1.00, 0.00, -0.00, -1.00, 261.8, 808.0)">:</text><text xml:space="preserve" font-family="FiraMono-Regular,Fira Mono" font-size="52.0" fill="#000000" transform="matrix(1.00, 0.00, -0.00, -1.00, 293.0, 808.0)"> </text><text xml:space="preserve" font-family="FiraMono-Regular,Fira Mono" font-size="52.0" fill="#C07B1E" transform="matrix(1.00, 0.00, -0.00, -1.00, 137.0, 727.0)">d</text><text xml:space="preserve" font-family="FiraMono-Regular,Fira Mono" font-size="52.0" fill="#C07B1E" transform="matrix(1.00, 0.00, -0.00, -1.00, 168.2, 727.0)">e</text><text xml:space="preserve" font-family="FiraMono-Regular,Fira Mono" font-size="52.0" fill="#C07B1E" transform="matrix(1.00, 0.00, -0.00, -1.00, 199.4, 727.0)">f</text><text xml:space="preserve" font-family="FiraMono-Regular,Fira Mono" font-size="52.0" fill="#000000" transform="matrix(1.00, 0.00, -0.00, -1.00, 230.6, 727.0)"> </text><text xml:space="preserve" font-family="FiraMono-Regular,Fira Mono" font-size="52.0" fill="#FFFFFF" transform="matrix(1.00, 0.00, -0.00, -1.00, 261.8, 727.0)">r</text><text xml:space="preserve" font-family="FiraMono-Regular,Fira Mono" font-size="52.0" fill="#FFFFFF" transform="matrix(1.00, 0.00, -0.00, -1.00, 293.0, 727.0)">e</text><text xml:space="preserve" font-family="FiraMono-Regular,Fira Mono" font-size="52.0" fill="#FFFFFF" transform="matrix(1.00, 0.00, -0.00, -1.00, 324.2, 727.0)">s</text><text xml:space="preserve" font-family="FiraMono-Regular,Fira Mono" font-size="52.0" fill="#FFFFFF" transform="matrix(1.00, 0.00, -0.00, -1.00, 355.4, 727.0)">u</text><text xml:space="preserve" font-family="FiraMono-Regular,Fira Mono" font-size="52.0" fill="#FFFFFF" transform="matrix(1.00, 0.00, -0.00, -1.00, 386.6, 727.0)">l</text><text xml:space="preserve" font-family="FiraMono-Regular,Fira Mono" font-size="52.0" fill="#FFFFFF" transform="matrix(1.00, 0.00, -0.00, -1.00, 417.8, 727.0)">t</text><text xml:space="preserve" font-family="FiraMono-Regular,Fira Mono" font-size="52.0" fill="#FFFFFF" transform="matrix(1.00, 0.00, -0.00, -1.00, 449.0, 727.0)">s</text><text xml:space="preserve" font-family="FiraMono-Regular,Fira Mono" font-size="52.0" fill="#000000" transform="matrix(1.00, 0.00, -0.00, -1.00, 480.2, 727.0)"> </text><text xml:space="preserve" font-family="FiraMono-Regular,Fira Mono" font-size="52.0" fill="#FFFFFF" transform="matrix(1.00, 0.00, -0.00, -1.00, 511.4, 727.0)">=</text><text xml:space="preserve" font-family="FiraMono-Regular,Fira Mono" font-size="52.0" fill="#000000" transform="matrix(1.00, 0.00, -0.00, -1.00, 542.6, 727.0)"> </text><text xml:space="preserve" font-family="FiraMono-Regular,Fira Mono" font-size="52.0" fill="#FFFFFF" transform="matrix(1.00, 0.00, -0.00, -1.00, 573.8, 727.0)">s</text><text xml:space="preserve" font-family="FiraMono-Regular,Fira Mono" font-size="52.0" fill="#FFFFFF" transform="matrix(1.00, 0.00, -0.00, -1.00, 605.0, 727.0)">h</text><text xml:space="preserve" font-family="FiraMono-Regular,Fira Mono" font-size="52.0" fill="#FFFFFF" transform="matrix(1.00, 0.00, -0.00, -1.00, 636.2, 727.0)">i</text><text xml:space="preserve" font-family="FiraMono-Regular,Fira Mono" font-size="52.0" fill="#FFFFFF" transform="matrix(1.00, 0.00, -0.00, -1.00, 667.4, 727.0)">p</text><text xml:space="preserve" font-family="FiraMono-Regular,Fira Mono" font-size="52.0" fill="#FFFFFF" transform="matrix(1.00, 0.00, -0.00, -1.00, 698.6, 727.0)">s</text><text xml:space="preserve" font-family="FiraMono-Regular,Fira Mono" font-size="52.0" fill="#FFFFFF" transform="matrix(1.00, 0.00, -0.00, -1.00, 729.8, 727.0)">.</text><text xml:space="preserve" font-family="FiraMono-Regular,Fira Mono" font-size="52.0" fill="#FFFFFF" transform="matrix(1.00, 0.00, -0.00, -1.00, 761.0, 727.0)">f</text><text xml:space="preserve" font-family="FiraMono-Regular,Fira Mono" font-size="52.0" fill="#FFFFFF" transform="matrix(1.00, 0.00, -0.00, -1.00, 792.2, 727.0)">i</text><text xml:space="preserve" font-family="FiraMono-Regular,Fira Mono" font-size="52.0" fill="#FFFFFF" transform="matrix(1.00, 0.00, -0.00, -1.00, 823.4, 727.0)">n</text><text xml:space="preserve" font-family="FiraMono-Regular,Fira Mono" font-size="52.0" fill="#FFFFFF" transform="matrix(1.00, 0.00, -0.00, -1.00, 854.6, 727.0)">d</text><text xml:space="preserve" font-family="FiraMono-Regular,Fira Mono" font-size="52.0" fill="#FFFFFF" transform="matrix(1.00, 0.00, -0.00, -1.00, 885.8, 727.0)">B</text><text xml:space="preserve" font-family="FiraMono-Regular,Fira Mono" font-size="52.0" fill="#FFFFFF" transform="matrix(1.00, 0.00, -0.00, -1.00, 917.0, 727.0)">y</text><text xml:space="preserve" font-family="FiraMono-Regular,Fira Mono" font-size="52.0" fill="#FFFFFF" transform="matrix(1.00, 0.00, -0.00, -1.00, 948.2, 727.0)">A</text><text xml:space="preserve" font-family="FiraMono-Regular,Fira Mono" font-size="52.0" fill="#FFFFFF" transform="matrix(1.00, 0.00, -0.00, -1.00, 979.4, 727.0)">l</text><text xml:space="preserve" font-family="FiraMono-Regular,Fira Mono" font-size="52.0" fill="#FFFFFF" transform="matrix(1.00, 0.00, -0.00, -1.00, 1010.6, 727.0)">l</text><text xml:space="preserve" font-family="FiraMono-Regular,Fira Mono" font-size="52.0" fill="#FFFFFF" transform="matrix(1.00, 0.00, -0.00, -1.00, 1041.8, 727.0)">e</text><text xml:space="preserve" font-family="FiraMono-Regular,Fira Mono" font-size="52.0" fill="#FFFFFF" transform="matrix(1.00, 0.00, -0.00, -1.00, 1073.0, 727.0)">g</text><text xml:space="preserve" font-family="FiraMono-Regular,Fira Mono" font-size="52.0" fill="#FFFFFF" transform="matrix(1.00, 0.00, -0.00, -1.00, 1104.2, 727.0)">i</text><text xml:space="preserve" font-family="FiraMono-Regular,Fira Mono" font-size="52.0" fill="#FFFFFF" transform="matrix(1.00, 0.00, -0.00, -1.00, 1135.4, 727.0)">a</text><text xml:space="preserve" font-family="FiraMono-Regular,Fira Mono" font-size="52.0" fill="#FFFFFF" transform="matrix(1.00, 0.00, -0.00, -1.00, 1166.6, 727.0)">n</text><text xml:space="preserve" font-family="FiraMono-Regular,Fira Mono" font-size="52.0" fill="#FFFFFF" transform="matrix(1.00, 0.00, -0.00, -1.00, 1197.8, 727.0)">c</text><text xml:space="preserve" font-family="FiraMono-Regular,Fira Mono" font-size="52.0" fill="#FFFFFF" transform="matrix(1.00, 0.00, -0.00, -1.00, 1229.0, 727.0)">e</text><text xml:space="preserve" font-family="FiraMono-Regular,Fira Mono" font-size="52.0" fill="#FFFFFF" transform="matrix(1.00, 0.00, -0.00, -1.00, 1260.2, 727.0)">(</text><text xml:space="preserve" font-family="FiraMono-Regular,Fira Mono" font-size="52.0" fill="#FF2600" transform="matrix(1.00, 0.00, -0.00, -1.00, 1291.4, 727.0)">"</text><text xml:space="preserve" font-family="FiraMono-Regular,Fira Mono" font-size="52.0" fill="#FF2600" transform="matrix(1.00, 0.00, -0.00, -1.00, 1322.6, 727.0)">F</text><text xml:space="preserve" font-family="FiraMono-Regular,Fira Mono" font-size="52.0" fill="#FF2600" transform="matrix(1.00, 0.00, -0.00, -1.00, 1353.8, 727.0)">e</text><text xml:space="preserve" font-family="FiraMono-Regular,Fira Mono" font-size="52.0" fill="#FF2600" transform="matrix(1.00, 0.00, -0.00, -1.00, 1385.0, 727.0)">d</text><text xml:space="preserve" font-family="FiraMono-Regular,Fira Mono" font-size="52.0" fill="#FF2600" transform="matrix(1.00, 0.00, -0.00, -1.00, 1416.2, 727.0)">e</text><text xml:space="preserve" font-family="FiraMono-Regular,Fira Mono" font-size="52.0" fill="#FF2600" transform="matrix(1.00, 0.00, -0.00, -1.00, 1447.4, 727.0)">r</text><text xml:space="preserve" font-family="FiraMono-Regular,Fira Mono" font-size="52.0" fill="#FF2600" transform="matrix(1.00, 0.00, -0.00, -1.00, 1478.6, 727.0)">a</text><text xml:space="preserve" font-family="FiraMono-Regular,Fira Mono" font-size="52.0" fill="#FF2600" transform="matrix(1.00, 0.00, -0.00, -1.00, 1509.8, 727.0)">t</text><text xml:space="preserve" font-family="FiraMono-Regular,Fira Mono" font-size="52.0" fill="#FF2600" transform="matrix(1.00, 0.00, -0.00, -1.00, 1541.0, 727.0)">i</text><text xml:space="preserve" font-family="FiraMono-Regular,Fira Mono" font-size="52.0" fill="#FF2600" transform="matrix(1.00, 0.00, -0.00, -1.00, 1572.2, 727.0)">o</text><text xml:space="preserve" font-family="FiraMono-Regular,Fira Mono" font-size="52.0" fill="#FF2600" transform="matrix(1.00, 0.00, -0.00, -1.00, 1603.4, 727.0)">n</text><text xml:space="preserve" font-family="FiraMono-Regular,Fira Mono" font-size="52.0" fill="#FF2600" transform="matrix(1.00, 0.00, -0.00, -1.00, 1634.6, 727.0)">"</text><text xml:space="preserve" font-family="FiraMono-Regular,Fira Mono" font-size="52.0" fill="#FFFFFF" transform="matrix(1.00, 0.00, -0.00, -1.00, 1665.8, 727.0)">)</text><text xml:space="preserve" font-family="FiraMono-Regular,Fira Mono" font-size="52.0" fill="#000000" transform="matrix(1.00, 0.00, -0.00, -1.00, 1697.0, 727.0)"> </text><text xml:space="preserve" font-family="FiraMono-Regular,Fira Mono" font-size="52.0" fill="#FFFFFF" transform="matrix(1.00, 0.00, -0.00, -1.00, 137.0, 565.0)">t</text><text xml:space="preserve" font-family="FiraMono-Regular,Fira Mono" font-size="52.0" fill="#FFFFFF" transform="matrix(1.00, 0.00, -0.00, -1.00, 168.2, 565.0)">h</text><text xml:space="preserve" font-family="FiraMono-Regular,Fira Mono" font-size="52.0" fill="#FFFFFF" transform="matrix(1.00, 0.00, -0.00, -1.00, 199.4, 565.0)">e</text><text xml:space="preserve" font-family="FiraMono-Regular,Fira Mono" font-size="52.0" fill="#FFFFFF" transform="matrix(1.00, 0.00, -0.00, -1.00, 230.6, 565.0)">n</text><text xml:space="preserve" font-family="FiraMono-Regular,Fira Mono" font-size="52.0" fill="#FFFFFF" transform="matrix(1.00, 0.00, -0.00, -1.00, 261.8, 565.0)">:</text><text xml:space="preserve" font-family="FiraMono-Regular,Fira Mono" font-size="52.0" fill="#000000" transform="matrix(1.00, 0.00, -0.00, -1.00, 293.0, 565.0)"> </text><text xml:space="preserve" font-family="FiraMono-Regular,Fira Mono" font-size="52.0" fill="#FFFFFF" transform="matrix(1.00, 0.00, -0.00, -1.00, 137.0, 484.0)">r</text><text xml:space="preserve" font-family="FiraMono-Regular,Fira Mono" font-size="52.0" fill="#FFFFFF" transform="matrix(1.00, 0.00, -0.00, -1.00, 168.2, 484.0)">e</text><text xml:space="preserve" font-family="FiraMono-Regular,Fira Mono" font-size="52.0" fill="#FFFFFF" transform="matrix(1.00, 0.00, -0.00, -1.00, 199.4, 484.0)">s</text><text xml:space="preserve" font-family="FiraMono-Regular,Fira Mono" font-size="52.0" fill="#FFFFFF" transform="matrix(1.00, 0.00, -0.00, -1.00, 230.6, 484.0)">u</text><text xml:space="preserve" font-family="FiraMono-Regular,Fira Mono" font-size="52.0" fill="#FFFFFF" transform="matrix(1.00, 0.00, -0.00, -1.00, 261.8, 484.0)">l</text><text xml:space="preserve" font-family="FiraMono-Regular,Fira Mono" font-size="52.0" fill="#FFFFFF" transform="matrix(1.00, 0.00, -0.00, -1.00, 293.0, 484.0)">t</text><text xml:space="preserve" font-family="FiraMono-Regular,Fira Mono" font-size="52.0" fill="#FFFFFF" transform="matrix(1.00, 0.00, -0.00, -1.00, 324.2, 484.0)">s</text><text xml:space="preserve" font-family="FiraMono-Regular,Fira Mono" font-size="52.0" fill="#FFFFFF" transform="matrix(1.00, 0.00, -0.00, -1.00, 355.4, 484.0)">.</text><text xml:space="preserve" font-family="FiraMono-Regular,Fira Mono" font-size="52.0" fill="#FFFFFF" transform="matrix(1.00, 0.00, -0.00, -1.00, 386.6, 484.0)">s</text><text xml:space="preserve" font-family="FiraMono-Regular,Fira Mono" font-size="52.0" fill="#FFFFFF" transform="matrix(1.00, 0.00, -0.00, -1.00, 417.8, 484.0)">i</text><text xml:space="preserve" font-family="FiraMono-Regular,Fira Mono" font-size="52.0" fill="#FFFFFF" transform="matrix(1.00, 0.00, -0.00, -1.00, 449.0, 484.0)">z</text><text xml:space="preserve" font-family="FiraMono-Regular,Fira Mono" font-size="52.0" fill="#FFFFFF" transform="matrix(1.00, 0.00, -0.00, -1.00, 480.2, 484.0)">e</text><text xml:space="preserve" font-family="FiraMono-Regular,Fira Mono" font-size="52.0" fill="#FFFFFF" transform="matrix(1.00, 0.00, -0.00, -1.00, 511.4, 484.0)">(</text><text xml:space="preserve" font-family="FiraMono-Regular,Fira Mono" font-size="52.0" fill="#FFFFFF" transform="matrix(1.00, 0.00, -0.00, -1.00, 542.6, 484.0)">)</text><text xml:space="preserve" font-family="FiraMono-Regular,Fira Mono" font-size="52.0" fill="#FFFFFF" transform="matrix(1.00, 0.00, -0.00, -1.00, 573.8, 484.0)"> </text><text xml:space="preserve" font-family="FiraMono-Regular,Fira Mono" font-size="52.0" fill="#FFFFFF" transform="matrix(1.00, 0.00, -0.00, -1.00, 605.0, 484.0)">=</text><text xml:space="preserve" font-family="FiraMono-Regular,Fira Mono" font-size="52.0" fill="#FFFFFF" transform="matrix(1.00, 0.00, -0.00, -1.00, 636.2, 484.0)">=</text><text xml:space="preserve" font-family="FiraMono-Regular,Fira Mono" font-size="52.0" fill="#000000" transform="matrix(1.00, 0.00, -0.00, -1.00, 667.4, 484.0)"> </text><text xml:space="preserve" font-family="FiraMono-Regular,Fira Mono" font-size="52.0" fill="#FF2600" transform="matrix(1.00, 0.00, -0.00, -1.00, 698.6, 484.0)">3</text><text xml:space="preserve" font-family="FiraMono-Regular,Fira Mono" font-size="52.0" fill="#000000" transform="matrix(1.00, 0.00, -0.00, -1.00, 729.8, 484.0)"> </text><text xml:space="preserve" font-family="FiraMono-Regular,Fira Mono" font-size="52.0" fill="#FFFFFF" transform="matrix(1.00, 0.00, -0.00, -1.00, 137.0, 403.0)">r</text><text xml:space="preserve" font-family="FiraMono-Regular,Fira Mono" font-size="52.0" fill="#FFFFFF" transform="matrix(1.00, 0.00, -0.00, -1.00, 168.2, 403.0)">e</text><text xml:space="preserve" font-family="FiraMono-Regular,Fira Mono" font-size="52.0" fill="#FFFFFF" transform="matrix(1.00, 0.00, -0.00, -1.00, 199.4, 403.0)">s</text><text xml:space="preserve" font-family="FiraMono-Regular,Fira Mono" font-size="52.0" fill="#FFFFFF" transform="matrix(1.00, 0.00, -0.00, -1.00, 230.6, 403.0)">u</text><text xml:space="preserve" font-family="FiraMono-Regular,Fira Mono" font-size="52.0" fill="#FFFFFF" transform="matrix(1.00, 0.00, -0.00, -1.00, 261.8, 403.0)">l</text><text xml:space="preserve" font-family="FiraMono-Regular,Fira Mono" font-size="52.0" fill="#FFFFFF" transform="matrix(1.00, 0.00, -0.00, -1.00, 293.0, 403.0)">t</text><text xml:space="preserve" font-family="FiraMono-Regular,Fira Mono" font-size="52.0" fill="#FFFFFF" transform="matrix(1.00, 0.00, -0.00, -1.00, 324.2, 403.0)">s</text><text xml:space="preserve" font-family="FiraMono-Regular,Fira Mono" font-size="52.0" fill="#FFFFFF" transform="matrix(1.00, 0.00, -0.00, -1.00, 355.4, 403.0)">[</text><text xml:space="preserve" font-family="FiraMono-Regular,Fira Mono" font-size="52.0" fill="#FF2600" transform="matrix(1.00, 0.00, -0.00, -1.00, 386.6, 403.0)">0</text><text xml:space="preserve" font-family="FiraMono-Regular,Fira Mono" font-size="52.0" fill="#FFFFFF" transform="matrix(1.00, 0.00, -0.00, -1.00, 417.8, 403.0)">]</text><text xml:space="preserve" font-family="FiraMono-Regular,Fira Mono" font-size="52.0" fill="#FFFFFF" transform="matrix(1.00, 0.00, -0.00, -1.00, 449.0, 403.0)">.</text><text xml:space="preserve" font-family="FiraMono-Regular,Fira Mono" font-size="52.0" fill="#FFFFFF" transform="matrix(1.00, 0.00, -0.00, -1.00, 480.2, 403.0)">a</text><text xml:space="preserve" font-family="FiraMono-Regular,Fira Mono" font-size="52.0" fill="#FFFFFF" transform="matrix(1.00, 0.00, -0.00, -1.00, 511.4, 403.0)">l</text><text xml:space="preserve" font-family="FiraMono-Regular,Fira Mono" font-size="52.0" fill="#FFFFFF" transform="matrix(1.00, 0.00, -0.00, -1.00, 542.6, 403.0)">l</text><text xml:space="preserve" font-family="FiraMono-Regular,Fira Mono" font-size="52.0" fill="#FFFFFF" transform="matrix(1.00, 0.00, -0.00, -1.00, 573.8, 403.0)">e</text><text xml:space="preserve" font-family="FiraMono-Regular,Fira Mono" font-size="52.0" fill="#FFFFFF" transform="matrix(1.00, 0.00, -0.00, -1.00, 605.0, 403.0)">g</text><text xml:space="preserve" font-family="FiraMono-Regular,Fira Mono" font-size="52.0" fill="#FFFFFF" transform="matrix(1.00, 0.00, -0.00, -1.00, 636.2, 403.0)">i</text><text xml:space="preserve" font-family="FiraMono-Regular,Fira Mono" font-size="52.0" fill="#FFFFFF" transform="matrix(1.00, 0.00, -0.00, -1.00, 667.4, 403.0)">a</text><text xml:space="preserve" font-family="FiraMono-Regular,Fira Mono" font-size="52.0" fill="#FFFFFF" transform="matrix(1.00, 0.00, -0.00, -1.00, 698.6, 403.0)">n</text><text xml:space="preserve" font-family="FiraMono-Regular,Fira Mono" font-size="52.0" fill="#FFFFFF" transform="matrix(1.00, 0.00, -0.00, -1.00, 729.8, 403.0)">c</text><text xml:space="preserve" font-family="FiraMono-Regular,Fira Mono" font-size="52.0" fill="#FFFFFF" transform="matrix(1.00, 0.00, -0.00, -1.00, 761.0, 403.0)">e</text><text xml:space="preserve" font-family="FiraMono-Regular,Fira Mono" font-size="52.0" fill="#000000" transform="matrix(1.00, 0.00, -0.00, -1.00, 792.2, 403.0)"> </text><text xml:space="preserve" font-family="FiraMono-Regular,Fira Mono" font-size="52.0" fill="#FFFFFF" transform="matrix(1.00, 0.00, -0.00, -1.00, 823.4, 403.0)">=</text><text xml:space="preserve" font-family="FiraMono-Regular,Fira Mono" font-size="52.0" fill="#FFFFFF" transform="matrix(1.00, 0.00, -0.00, -1.00, 854.6, 403.0)">=</text><text xml:space="preserve" font-family="FiraMono-Regular,Fira Mono" font-size="52.0" fill="#000000" transform="matrix(1.00, 0.00, -0.00, -1.00, 885.8, 403.0)"> </text><text xml:space="preserve" font-family="FiraMono-Regular,Fira Mono" font-size="52.0" fill="#FF2600" transform="matrix(1.00, 0.00, -0.00, -1.00, 917.0, 403.0)">"</text><text xml:space="preserve" font-family="FiraMono-Regular,Fira Mono" font-size="52.0" fill="#FF2600" transform="matrix(1.00, 0.00, -0.00, -1.00, 948.2, 403.0)">F</text><text xml:space="preserve" font-family="FiraMono-Regular,Fira Mono" font-size="52.0" fill="#FF2600" transform="matrix(1.00, 0.00, -0.00, -1.00, 979.4, 403.0)">e</text><text xml:space="preserve" font-family="FiraMono-Regular,Fira Mono" font-size="52.0" fill="#FF2600" transform="matrix(1.00, 0.00, -0.00, -1.00, 1010.6, 403.0)">d</text><text xml:space="preserve" font-family="FiraMono-Regular,Fira Mono" font-size="52.0" fill="#FF2600" transform="matrix(1.00, 0.00, -0.00, -1.00, 1041.8, 403.0)">e</text><text xml:space="preserve" font-family="FiraMono-Regular,Fira Mono" font-size="52.0" fill="#FF2600" transform="matrix(1.00, 0.00, -0.00, -1.00, 1073.0, 403.0)">r</text><text xml:space="preserve" font-family="FiraMono-Regular,Fira Mono" font-size="52.0" fill="#FF2600" transform="matrix(1.00, 0.00, -0.00, -1.00, 1104.2, 403.0)">a</text><text xml:space="preserve" font-family="FiraMono-Regular,Fira Mono" font-size="52.0" fill="#FF2600" transform="matrix(1.00, 0.00, -0.00, -1.00, 1135.4, 403.0)">t</text><text xml:space="preserve" font-family="FiraMono-Regular,Fira Mono" font-size="52.0" fill="#FF2600" transform="matrix(1.00, 0.00, -0.00, -1.00, 1166.6, 403.0)">i</text><text xml:space="preserve" font-family="FiraMono-Regular,Fira Mono" font-size="52.0" fill="#FF2600" transform="matrix(1.00, 0.00, -0.00, -1.00, 1197.8, 403.0)">o</text><text xml:space="preserve" font-family="FiraMono-Regular,Fira Mono" font-size="52.0" fill="#FF2600" transform="matrix(1.00, 0.00, -0.00, -1.00, 1229.0, 403.0)">n</text><text xml:space="preserve" font-family="FiraMono-Regular,Fira Mono" font-size="52.0" fill="#FF2600" transform="matrix(1.00, 0.00, -0.00, -1.00, 1260.2, 403.0)">"</text><text xml:space="preserve" font-family="FiraMono-Regular,Fira Mono" font-size="52.0" fill="#FFFFFF" transform="matrix(1.00, 0.00, -0.00, -1.00, 1291.4, 403.0)"> </text><text xml:space="preserve" font-family="FiraMono-Regular,Fira Mono" font-size="52.0" fill="#FFFFFF" transform="matrix(1.00, 0.00, -0.00, -1.00, 137.0, 322.0)">r</text><text xml:space="preserve" font-family="FiraMono-Regular,Fira Mono" font-size="52.0" fill="#FFFFFF" transform="matrix(1.00, 0.00, -0.00, -1.00, 168.2, 322.0)">e</text><text xml:space="preserve" font-family="FiraMono-Regular,Fira Mono" font-size="52.0" fill="#FFFFFF" transform="matrix(1.00, 0.00, -0.00, -1.00, 199.4, 322.0)">s</text><text xml:space="preserve" font-family="FiraMono-Regular,Fira Mono" font-size="52.0" fill="#FFFFFF" transform="matrix(1.00, 0.00, -0.00, -1.00, 230.6, 322.0)">u</text><text xml:space="preserve" font-family="FiraMono-Regular,Fira Mono" font-size="52.0" fill="#FFFFFF" transform="matrix(1.00, 0.00, -0.00, -1.00, 261.8, 322.0)">l</text><text xml:space="preserve" font-family="FiraMono-Regular,Fira Mono" font-size="52.0" fill="#FFFFFF" transform="matrix(1.00, 0.00, -0.00, -1.00, 293.0, 322.0)">t</text><text xml:space="preserve" font-family="FiraMono-Regular,Fira Mono" font-size="52.0" fill="#FFFFFF" transform="matrix(1.00, 0.00, -0.00, -1.00, 324.2, 322.0)">s</text><text xml:space="preserve" font-family="FiraMono-Regular,Fira Mono" font-size="52.0" fill="#FFFFFF" transform="matrix(1.00, 0.00, -0.00, -1.00, 355.4, 322.0)">[</text><text xml:space="preserve" font-family="FiraMono-Regular,Fira Mono" font-size="52.0" fill="#FF2600" transform="matrix(1.00, 0.00, -0.00, -1.00, 386.6, 322.0)">1</text><text xml:space="preserve" font-family="FiraMono-Regular,Fira Mono" font-size="52.0" fill="#FFFFFF" transform="matrix(1.00, 0.00, -0.00, -1.00, 417.8, 322.0)">]</text><text xml:space="preserve" font-family="FiraMono-Regular,Fira Mono" font-size="52.0" fill="#FFFFFF" transform="matrix(1.00, 0.00, -0.00, -1.00, 449.0, 322.0)">.</text><text xml:space="preserve" font-family="FiraMono-Regular,Fira Mono" font-size="52.0" fill="#FFFFFF" transform="matrix(1.00, 0.00, -0.00, -1.00, 480.2, 322.0)">a</text><text xml:space="preserve" font-family="FiraMono-Regular,Fira Mono" font-size="52.0" fill="#FFFFFF" transform="matrix(1.00, 0.00, -0.00, -1.00, 511.4, 322.0)">l</text><text xml:space="preserve" font-family="FiraMono-Regular,Fira Mono" font-size="52.0" fill="#FFFFFF" transform="matrix(1.00, 0.00, -0.00, -1.00, 542.6, 322.0)">l</text><text xml:space="preserve" font-family="FiraMono-Regular,Fira Mono" font-size="52.0" fill="#FFFFFF" transform="matrix(1.00, 0.00, -0.00, -1.00, 573.8, 322.0)">e</text><text xml:space="preserve" font-family="FiraMono-Regular,Fira Mono" font-size="52.0" fill="#FFFFFF" transform="matrix(1.00, 0.00, -0.00, -1.00, 605.0, 322.0)">g</text><text xml:space="preserve" font-family="FiraMono-Regular,Fira Mono" font-size="52.0" fill="#FFFFFF" transform="matrix(1.00, 0.00, -0.00, -1.00, 636.2, 322.0)">i</text><text xml:space="preserve" font-family="FiraMono-Regular,Fira Mono" font-size="52.0" fill="#FFFFFF" transform="matrix(1.00, 0.00, -0.00, -1.00, 667.4, 322.0)">a</text><text xml:space="preserve" font-family="FiraMono-Regular,Fira Mono" font-size="52.0" fill="#FFFFFF" transform="matrix(1.00, 0.00, -0.00, -1.00, 698.6, 322.0)">n</text><text xml:space="preserve" font-family="FiraMono-Regular,Fira Mono" font-size="52.0" fill="#FFFFFF" transform="matrix(1.00, 0.00, -0.00, -1.00, 729.8, 322.0)">c</text><text xml:space="preserve" font-family="FiraMono-Regular,Fira Mono" font-size="52.0" fill="#FFFFFF" transform="matrix(1.00, 0.00, -0.00, -1.00, 761.0, 322.0)">e</text><text xml:space="preserve" font-family="FiraMono-Regular,Fira Mono" font-size="52.0" fill="#000000" transform="matrix(1.00, 0.00, -0.00, -1.00, 792.2, 322.0)"> </text><text xml:space="preserve" font-family="FiraMono-Regular,Fira Mono" font-size="52.0" fill="#FFFFFF" transform="matrix(1.00, 0.00, -0.00, -1.00, 823.4, 322.0)">=</text><text xml:space="preserve" font-family="FiraMono-Regular,Fira Mono" font-size="52.0" fill="#FFFFFF" transform="matrix(1.00, 0.00, -0.00, -1.00, 854.6, 322.0)">=</text><text xml:space="preserve" font-family="FiraMono-Regular,Fira Mono" font-size="52.0" fill="#000000" transform="matrix(1.00, 0.00, -0.00, -1.00, 885.8, 322.0)"> </text><text xml:space="preserve" font-family="FiraMono-Regular,Fira Mono" font-size="52.0" fill="#FF2600" transform="matrix(1.00, 0.00, -0.00, -1.00, 917.0, 322.0)">"</text><text xml:space="preserve" font-family="FiraMono-Regular,Fira Mono" font-size="52.0" fill="#FF2600" transform="matrix(1.00, 0.00, -0.00, -1.00, 948.2, 322.0)">F</text><text xml:space="preserve" font-family="FiraMono-Regular,Fira Mono" font-size="52.0" fill="#FF2600" transform="matrix(1.00, 0.00, -0.00, -1.00, 979.4, 322.0)">e</text><text xml:space="preserve" font-family="FiraMono-Regular,Fira Mono" font-size="52.0" fill="#FF2600" transform="matrix(1.00, 0.00, -0.00, -1.00, 1010.6, 322.0)">d</text><text xml:space="preserve" font-family="FiraMono-Regular,Fira Mono" font-size="52.0" fill="#FF2600" transform="matrix(1.00, 0.00, -0.00, -1.00, 1041.8, 322.0)">e</text><text xml:space="preserve" font-family="FiraMono-Regular,Fira Mono" font-size="52.0" fill="#FF2600" transform="matrix(1.00, 0.00, -0.00, -1.00, 1073.0, 322.0)">r</text><text xml:space="preserve" font-family="FiraMono-Regular,Fira Mono" font-size="52.0" fill="#FF2600" transform="matrix(1.00, 0.00, -0.00, -1.00, 1104.2, 322.0)">a</text><text xml:space="preserve" font-family="FiraMono-Regular,Fira Mono" font-size="52.0" fill="#FF2600" transform="matrix(1.00, 0.00, -0.00, -1.00, 1135.4, 322.0)">t</text><text xml:space="preserve" font-family="FiraMono-Regular,Fira Mono" font-size="52.0" fill="#FF2600" transform="matrix(1.00, 0.00, -0.00, -1.00, 1166.6, 322.0)">i</text><text xml:space="preserve" font-family="FiraMono-Regular,Fira Mono" font-size="52.0" fill="#FF2600" transform="matrix(1.00, 0.00, -0.00, -1.00, 1197.8, 322.0)">o</text><text xml:space="preserve" font-family="FiraMono-Regular,Fira Mono" font-size="52.0" fill="#FF2600" transform="matrix(1.00, 0.00, -0.00, -1.00, 1229.0, 322.0)">n</text><text xml:space="preserve" font-family="FiraMono-Regular,Fira Mono" font-size="52.0" fill="#FF2600" transform="matrix(1.00, 0.00, -0.00, -1.00, 1260.2, 322.0)">"</text><text xml:space="preserve" font-family="FiraMono-Regular,Fira Mono" font-size="52.0" fill="#FFFFFF" transform="matrix(1.00, 0.00, -0.00, -1.00, 1291.4, 322.0)"> </text><text xml:space="preserve" font-family="FiraMono-Regular,Fira Mono" font-size="52.0" fill="#FFFFFF" transform="matrix(1.00, 0.00, -0.00, -1.00, 137.0, 241.0)">r</text><text xml:space="preserve" font-family="FiraMono-Regular,Fira Mono" font-size="52.0" fill="#FFFFFF" transform="matrix(1.00, 0.00, -0.00, -1.00, 168.2, 241.0)">e</text><text xml:space="preserve" font-family="FiraMono-Regular,Fira Mono" font-size="52.0" fill="#FFFFFF" transform="matrix(1.00, 0.00, -0.00, -1.00, 199.4, 241.0)">s</text><text xml:space="preserve" font-family="FiraMono-Regular,Fira Mono" font-size="52.0" fill="#FFFFFF" transform="matrix(1.00, 0.00, -0.00, -1.00, 230.6, 241.0)">u</text><text xml:space="preserve" font-family="FiraMono-Regular,Fira Mono" font-size="52.0" fill="#FFFFFF" transform="matrix(1.00, 0.00, -0.00, -1.00, 261.8, 241.0)">l</text><text xml:space="preserve" font-family="FiraMono-Regular,Fira Mono" font-size="52.0" fill="#FFFFFF" transform="matrix(1.00, 0.00, -0.00, -1.00, 293.0, 241.0)">t</text><text xml:space="preserve" font-family="FiraMono-Regular,Fira Mono" font-size="52.0" fill="#FFFFFF" transform="matrix(1.00, 0.00, -0.00, -1.00, 324.2, 241.0)">s</text><text xml:space="preserve" font-family="FiraMono-Regular,Fira Mono" font-size="52.0" fill="#FFFFFF" transform="matrix(1.00, 0.00, -0.00, -1.00, 355.4, 241.0)">[</text><text xml:space="preserve" font-family="FiraMono-Regular,Fira Mono" font-size="52.0" fill="#FF2600" transform="matrix(1.00, 0.00, -0.00, -1.00, 386.6, 241.0)">2</text><text xml:space="preserve" font-family="FiraMono-Regular,Fira Mono" font-size="52.0" fill="#FFFFFF" transform="matrix(1.00, 0.00, -0.00, -1.00, 417.8, 241.0)">]</text><text xml:space="preserve" font-family="FiraMono-Regular,Fira Mono" font-size="52.0" fill="#FFFFFF" transform="matrix(1.00, 0.00, -0.00, -1.00, 449.0, 241.0)">.</text><text xml:space="preserve" font-family="FiraMono-Regular,Fira Mono" font-size="52.0" fill="#FFFFFF" transform="matrix(1.00, 0.00, -0.00, -1.00, 480.2, 241.0)">a</text><text xml:space="preserve" font-family="FiraMono-Regular,Fira Mono" font-size="52.0" fill="#FFFFFF" transform="matrix(1.00, 0.00, -0.00, -1.00, 511.4, 241.0)">l</text><text xml:space="preserve" font-family="FiraMono-Regular,Fira Mono" font-size="52.0" fill="#FFFFFF" transform="matrix(1.00, 0.00, -0.00, -1.00, 542.6, 241.0)">l</text><text xml:space="preserve" font-family="FiraMono-Regular,Fira Mono" font-size="52.0" fill="#FFFFFF" transform="matrix(1.00, 0.00, -0.00, -1.00, 573.8, 241.0)">e</text><text xml:space="preserve" font-family="FiraMono-Regular,Fira Mono" font-size="52.0" fill="#FFFFFF" transform="matrix(1.00, 0.00, -0.00, -1.00, 605.0, 241.0)">g</text><text xml:space="preserve" font-family="FiraMono-Regular,Fira Mono" font-size="52.0" fill="#FFFFFF" transform="matrix(1.00, 0.00, -0.00, -1.00, 636.2, 241.0)">i</text><text xml:space="preserve" font-family="FiraMono-Regular,Fira Mono" font-size="52.0" fill="#FFFFFF" transform="matrix(1.00, 0.00, -0.00, -1.00, 667.4, 241.0)">a</text><text xml:space="preserve" font-family="FiraMono-Regular,Fira Mono" font-size="52.0" fill="#FFFFFF" transform="matrix(1.00, 0.00, -0.00, -1.00, 698.6, 241.0)">n</text><text xml:space="preserve" font-family="FiraMono-Regular,Fira Mono" font-size="52.0" fill="#FFFFFF" transform="matrix(1.00, 0.00, -0.00, -1.00, 729.8, 241.0)">c</text><text xml:space="preserve" font-family="FiraMono-Regular,Fira Mono" font-size="52.0" fill="#FFFFFF" transform="matrix(1.00, 0.00, -0.00, -1.00, 761.0, 241.0)">e</text><text xml:space="preserve" font-family="FiraMono-Regular,Fira Mono" font-size="52.0" fill="#000000" transform="matrix(1.00, 0.00, -0.00, -1.00, 792.2, 241.0)"> </text><text xml:space="preserve" font-family="FiraMono-Regular,Fira Mono" font-size="52.0" fill="#FFFFFF" transform="matrix(1.00, 0.00, -0.00, -1.00, 823.4, 241.0)">=</text><text xml:space="preserve" font-family="FiraMono-Regular,Fira Mono" font-size="52.0" fill="#FFFFFF" transform="matrix(1.00, 0.00, -0.00, -1.00, 854.6, 241.0)">=</text><text xml:space="preserve" font-family="FiraMono-Regular,Fira Mono" font-size="52.0" fill="#000000" transform="matrix(1.00, 0.00, -0.00, -1.00, 885.8, 241.0)"> </text><text xml:space="preserve" font-family="FiraMono-Regular,Fira Mono" font-size="52.0" fill="#FF2600" transform="matrix(1.00, 0.00, -0.00, -1.00, 917.0, 241.0)">"</text><text xml:space="preserve" font-family="FiraMono-Regular,Fira Mono" font-size="52.0" fill="#FF2600" transform="matrix(1.00, 0.00, -0.00, -1.00, 948.2, 241.0)">F</text><text xml:space="preserve" font-family="FiraMono-Regular,Fira Mono" font-size="52.0" fill="#FF2600" transform="matrix(1.00, 0.00, -0.00, -1.00, 979.4, 241.0)">e</text><text xml:space="preserve" font-family="FiraMono-Regular,Fira Mono" font-size="52.0" fill="#FF2600" transform="matrix(1.00, 0.00, -0.00, -1.00, 1010.6, 241.0)">d</text><text xml:space="preserve" font-family="FiraMono-Regular,Fira Mono" font-size="52.0" fill="#FF2600" transform="matrix(1.00, 0.00, -0.00, -1.00, 1041.8, 241.0)">e</text><text xml:space="preserve" font-family="FiraMono-Regular,Fira Mono" font-size="52.0" fill="#FF2600" transform="matrix(1.00, 0.00, -0.00, -1.00, 1073.0, 241.0)">r</text><text xml:space="preserve" font-family="FiraMono-Regular,Fira Mono" font-size="52.0" fill="#FF2600" transform="matrix(1.00, 0.00, -0.00, -1.00, 1104.2, 241.0)">a</text><text xml:space="preserve" font-family="FiraMono-Regular,Fira Mono" font-size="52.0" fill="#FF2600" transform="matrix(1.00, 0.00, -0.00, -1.00, 1135.4, 241.0)">t</text><text xml:space="preserve" font-family="FiraMono-Regular,Fira Mono" font-size="52.0" fill="#FF2600" transform="matrix(1.00, 0.00, -0.00, -1.00, 1166.6, 241.0)">i</text><text xml:space="preserve" font-family="FiraMono-Regular,Fira Mono" font-size="52.0" fill="#FF2600" transform="matrix(1.00, 0.00, -0.00, -1.00, 1197.8, 241.0)">o</text><text xml:space="preserve" font-family="FiraMono-Regular,Fira Mono" font-size="52.0" fill="#FF2600" transform="matrix(1.00, 0.00, -0.00, -1.00, 1229.0, 241.0)">n</text><text xml:space="preserve" font-family="FiraMono-Regular,Fira Mono" font-size="52.0" fill="#FF2600" transform="matrix(1.00, 0.00, -0.00, -1.00, 1260.2, 241.0)">"</text></g></svg>