<?xml version="1.0" encoding="UTF-8" standalone="no"?><svg xmlns="http://www.w3.org/2000/svg" xmlns:xlink="http://www.w3.org/1999/xlink" clip-rule="evenodd" stroke-miterlimit="10" viewBox="0 0 1920 1080"><desc>SVG generated by Keynote</desc><defs></defs><g transform="matrix(1.00, 0.00, -0.00, -1.00, 0.0, 1080.0)"><g><clipPath id="clip0x7f8408d46c00"><path d="M 0.0 1080.0 L 1920.0 1080.0 L 1920.0 0.0 L 0.0 0.0 Z M 0.0 1080.0 "></path></clipPath><g clip-path="url(#clip0x7f8408d46c00)"><image xlink:href="../../BF7430C7-5211-4E68-B118-AC68FDB76F0F/assets/A81AF0278930B93F47F55E5BB6D3A023.png" width="1920.00" height="1080.00" transform="matrix(1.00, 0.00, -0.00, -1.00, 0.0, 1080.0)"></image></g></g><text xml:space="preserve" font-family="Palatino-Italic,Palatino" font-style="italic" font-size="95.0" fill="#FEFFFF" transform="matrix(1.00, 0.00, -0.00, -1.00, 199.6, 657.8)">“</text><text xml:space="preserve" font-family="Palatino-Italic,Palatino" font-style="italic" font-size="95.0" fill="#FEFFFF" transform="matrix(1.00, 0.00, -0.00, -1.00, 247.1, 657.8)">A</text><text xml:space="preserve" font-family="Palatino-Italic,Palatino" font-style="italic" font-size="95.0" fill="#FEFFFF" transform="matrix(1.00, 0.00, -0.00, -1.00, 315.7, 657.8)">l</text><text xml:space="preserve" font-family="Palatino-Italic,Palatino" font-style="italic" font-size="95.0" fill="#FEFFFF" transform="matrix(1.00, 0.00, -0.00, -1.00, 342.1, 657.8)">w</text><text xml:space="preserve" font-family="Palatino-Italic,Palatino" font-style="italic" font-size="95.0" fill="#FEFFFF" transform="matrix(1.00, 0.00, -0.00, -1.00, 410.7, 657.8)">a</text><text xml:space="preserve" font-family="Palatino-Italic,Palatino" font-style="italic" font-size="95.0" fill="#FEFFFF" transform="matrix(1.00, 0.00, -0.00, -1.00, 452.9, 657.8)">y</text><text xml:space="preserve" font-family="Palatino-Italic,Palatino" font-style="italic" font-size="95.0" fill="#FEFFFF" transform="matrix(1.00, 0.00, -0.00, -1.00, 500.4, 657.8)">s</text><text xml:space="preserve" font-family="Palatino-Italic,Palatino" font-style="italic" font-size="95.0" fill="#FEFFFF" transform="matrix(1.00, 0.00, -0.00, -1.00, 537.4, 657.8)"> </text><text xml:space="preserve" font-family="Palatino-Italic,Palatino" font-style="italic" font-size="95.0" fill="#FEFFFF" transform="matrix(1.00, 0.00, -0.00, -1.00, 561.1, 657.8)">c</text><text xml:space="preserve" font-family="Palatino-Italic,Palatino" font-style="italic" font-size="95.0" fill="#FEFFFF" transform="matrix(1.00, 0.00, -0.00, -1.00, 599.8, 657.8)">o</text><text xml:space="preserve" font-family="Palatino-Italic,Palatino" font-style="italic" font-size="95.0" fill="#FEFFFF" transform="matrix(1.00, 0.00, -0.00, -1.00, 642.0, 657.8)">d</text><text xml:space="preserve" font-family="Palatino-Italic,Palatino" font-style="italic" font-size="95.0" fill="#FEFFFF" transform="matrix(1.00, 0.00, -0.00, -1.00, 689.5, 657.8)">e</text><text xml:space="preserve" font-family="Palatino-Italic,Palatino" font-style="italic" font-size="95.0" fill="#FEFFFF" transform="matrix(1.00, 0.00, -0.00, -1.00, 726.4, 657.8)"> </text><text xml:space="preserve" font-family="Palatino-Italic,Palatino" font-style="italic" font-size="95.0" fill="#FEFFFF" transform="matrix(1.00, 0.00, -0.00, -1.00, 750.2, 657.8)">a</text><text xml:space="preserve" font-family="Palatino-Italic,Palatino" font-style="italic" font-size="95.0" fill="#FEFFFF" transform="matrix(1.00, 0.00, -0.00, -1.00, 792.3, 657.8)">s</text><text xml:space="preserve" font-family="Palatino-Italic,Palatino" font-style="italic" font-size="95.0" fill="#FEFFFF" transform="matrix(1.00, 0.00, -0.00, -1.00, 829.3, 657.8)"> </text><text xml:space="preserve" font-family="Palatino-Italic,Palatino" font-style="italic" font-size="95.0" fill="#FEFFFF" transform="matrix(1.00, 0.00, -0.00, -1.00, 853.1, 657.8)">i</text><text xml:space="preserve" font-family="Palatino-Italic,Palatino" font-style="italic" font-size="95.0" fill="#FEFFFF" transform="matrix(1.00, 0.00, -0.00, -1.00, 879.5, 657.8)">f</text><text xml:space="preserve" font-family="Palatino-Italic,Palatino" font-style="italic" font-size="95.0" fill="#FEFFFF" transform="matrix(1.00, 0.00, -0.00, -1.00, 905.8, 657.8)"> </text><text xml:space="preserve" font-family="Palatino-Italic,Palatino" font-style="italic" font-size="95.0" fill="#FEFFFF" transform="matrix(1.00, 0.00, -0.00, -1.00, 929.6, 657.8)">t</text><text xml:space="preserve" font-family="Palatino-Italic,Palatino" font-style="italic" font-size="95.0" fill="#FEFFFF" transform="matrix(1.00, 0.00, -0.00, -1.00, 961.2, 657.8)">h</text><text xml:space="preserve" font-family="Palatino-Italic,Palatino" font-style="italic" font-size="95.0" fill="#FEFFFF" transform="matrix(1.00, 0.00, -0.00, -1.00, 1008.7, 657.8)">e</text><text xml:space="preserve" font-family="Palatino-Italic,Palatino" font-style="italic" font-size="95.0" fill="#FEFFFF" transform="matrix(1.00, 0.00, -0.00, -1.00, 1045.7, 657.8)"> </text><text xml:space="preserve" font-family="Palatino-Italic,Palatino" font-style="italic" font-size="95.0" fill="#FEFFFF" transform="matrix(1.00, 0.00, -0.00, -1.00, 1069.5, 657.8)">g</text><text xml:space="preserve" font-family="Palatino-Italic,Palatino" font-style="italic" font-size="95.0" fill="#FEFFFF" transform="matrix(1.00, 0.00, -0.00, -1.00, 1117.0, 657.8)">u</text><text xml:space="preserve" font-family="Palatino-Italic,Palatino" font-style="italic" font-size="95.0" fill="#FEFFFF" transform="matrix(1.00, 0.00, -0.00, -1.00, 1169.8, 657.8)">y</text><text xml:space="preserve" font-family="Palatino-Italic,Palatino" font-style="italic" font-size="95.0" fill="#FEFFFF" transform="matrix(1.00, 0.00, -0.00, -1.00, 1217.3, 657.8)"> </text><text xml:space="preserve" font-family="Palatino-Italic,Palatino" font-style="italic" font-size="95.0" fill="#FEFFFF" transform="matrix(1.00, 0.00, -0.00, -1.00, 1241.1, 657.8)">w</text><text xml:space="preserve" font-family="Palatino-Italic,Palatino" font-style="italic" font-size="95.0" fill="#FEFFFF" transform="matrix(1.00, 0.00, -0.00, -1.00, 1309.7, 657.8)">h</text><text xml:space="preserve" font-family="Palatino-Italic,Palatino" font-style="italic" font-size="95.0" fill="#FEFFFF" transform="matrix(1.00, 0.00, -0.00, -1.00, 1357.2, 657.8)">o</text><text xml:space="preserve" font-family="Palatino-Italic,Palatino" font-style="italic" font-size="95.0" fill="#FEFFFF" transform="matrix(1.00, 0.00, -0.00, -1.00, 1399.3, 657.8)"> </text><text xml:space="preserve" font-family="Palatino-Italic,Palatino" font-style="italic" font-size="95.0" fill="#FEFFFF" transform="matrix(1.00, 0.00, -0.00, -1.00, 1423.1, 657.8)">e</text><text xml:space="preserve" font-family="Palatino-Italic,Palatino" font-style="italic" font-size="95.0" fill="#FEFFFF" transform="matrix(1.00, 0.00, -0.00, -1.00, 1460.1, 657.8)">n</text><text xml:space="preserve" font-family="Palatino-Italic,Palatino" font-style="italic" font-size="95.0" fill="#FEFFFF" transform="matrix(1.00, 0.00, -0.00, -1.00, 1512.9, 657.8)">d</text><text xml:space="preserve" font-family="Palatino-Italic,Palatino" font-style="italic" font-size="95.0" fill="#FEFFFF" transform="matrix(1.00, 0.00, -0.00, -1.00, 1560.4, 657.8)">s</text><text xml:space="preserve" font-family="Palatino-Italic,Palatino" font-style="italic" font-size="95.0" fill="#FEFFFF" transform="matrix(1.00, 0.00, -0.00, -1.00, 1597.4, 657.8)"> </text><text xml:space="preserve" font-family="Palatino-Italic,Palatino" font-style="italic" font-size="95.0" fill="#FEFFFF" transform="matrix(1.00, 0.00, -0.00, -1.00, 1621.2, 657.8)">u</text><text xml:space="preserve" font-family="Palatino-Italic,Palatino" font-style="italic" font-size="95.0" fill="#FEFFFF" transform="matrix(1.00, 0.00, -0.00, -1.00, 1674.0, 657.8)">p</text><text xml:space="preserve" font-family="Palatino-Italic,Palatino" font-style="italic" font-size="95.0" fill="#FEFFFF" transform="matrix(1.00, 0.00, -0.00, -1.00, 1721.5, 657.8)"> </text><text xml:space="preserve" font-family="Palatino-Italic,Palatino" font-style="italic" font-size="95.0" fill="#FEFFFF" transform="matrix(1.00, 0.00, -0.00, -1.00, 211.9, 532.8)">m</text><text xml:space="preserve" font-family="Palatino-Italic,Palatino" font-style="italic" font-size="95.0" fill="#FEFFFF" transform="matrix(1.00, 0.00, -0.00, -1.00, 285.8, 532.8)">a</text><text xml:space="preserve" font-family="Palatino-Italic,Palatino" font-style="italic" font-size="95.0" fill="#FEFFFF" transform="matrix(1.00, 0.00, -0.00, -1.00, 328.0, 532.8)">i</text><text xml:space="preserve" font-family="Palatino-Italic,Palatino" font-style="italic" font-size="95.0" fill="#FEFFFF" transform="matrix(1.00, 0.00, -0.00, -1.00, 354.3, 532.8)">n</text><text xml:space="preserve" font-family="Palatino-Italic,Palatino" font-style="italic" font-size="95.0" fill="#FEFFFF" transform="matrix(1.00, 0.00, -0.00, -1.00, 407.2, 532.8)">t</text><text xml:space="preserve" font-family="Palatino-Italic,Palatino" font-style="italic" font-size="95.0" fill="#FEFFFF" transform="matrix(1.00, 0.00, -0.00, -1.00, 438.8, 532.8)">a</text><text xml:space="preserve" font-family="Palatino-Italic,Palatino" font-style="italic" font-size="95.0" fill="#FEFFFF" transform="matrix(1.00, 0.00, -0.00, -1.00, 481.0, 532.8)">i</text><text xml:space="preserve" font-family="Palatino-Italic,Palatino" font-style="italic" font-size="95.0" fill="#FEFFFF" transform="matrix(1.00, 0.00, -0.00, -1.00, 507.3, 532.8)">n</text><text xml:space="preserve" font-family="Palatino-Italic,Palatino" font-style="italic" font-size="95.0" fill="#FEFFFF" transform="matrix(1.00, 0.00, -0.00, -1.00, 560.2, 532.8)">i</text><text xml:space="preserve" font-family="Palatino-Italic,Palatino" font-style="italic" font-size="95.0" fill="#FEFFFF" transform="matrix(1.00, 0.00, -0.00, -1.00, 586.6, 532.8)">n</text><text xml:space="preserve" font-family="Palatino-Italic,Palatino" font-style="italic" font-size="95.0" fill="#FEFFFF" transform="matrix(1.00, 0.00, -0.00, -1.00, 639.4, 532.8)">g</text><text xml:space="preserve" font-family="Palatino-Italic,Palatino" font-style="italic" font-size="95.0" fill="#FEFFFF" transform="matrix(1.00, 0.00, -0.00, -1.00, 686.9, 532.8)"> </text><text xml:space="preserve" font-family="Palatino-Italic,Palatino" font-style="italic" font-size="95.0" fill="#FEFFFF" transform="matrix(1.00, 0.00, -0.00, -1.00, 710.7, 532.8)">y</text><text xml:space="preserve" font-family="Palatino-Italic,Palatino" font-style="italic" font-size="95.0" fill="#FEFFFF" transform="matrix(1.00, 0.00, -0.00, -1.00, 758.2, 532.8)">o</text><text xml:space="preserve" font-family="Palatino-Italic,Palatino" font-style="italic" font-size="95.0" fill="#FEFFFF" transform="matrix(1.00, 0.00, -0.00, -1.00, 800.3, 532.8)">u</text><text xml:space="preserve" font-family="Palatino-Italic,Palatino" font-style="italic" font-size="95.0" fill="#FEFFFF" transform="matrix(1.00, 0.00, -0.00, -1.00, 853.2, 532.8)">r</text><text xml:space="preserve" font-family="Palatino-Italic,Palatino" font-style="italic" font-size="95.0" fill="#FEFFFF" transform="matrix(1.00, 0.00, -0.00, -1.00, 890.2, 532.8)"> </text><text xml:space="preserve" font-family="Palatino-Italic,Palatino" font-style="italic" font-size="95.0" fill="#FEFFFF" transform="matrix(1.00, 0.00, -0.00, -1.00, 913.9, 532.8)">c</text><text xml:space="preserve" font-family="Palatino-Italic,Palatino" font-style="italic" font-size="95.0" fill="#FEFFFF" transform="matrix(1.00, 0.00, -0.00, -1.00, 952.6, 532.8)">o</text><text xml:space="preserve" font-family="Palatino-Italic,Palatino" font-style="italic" font-size="95.0" fill="#FEFFFF" transform="matrix(1.00, 0.00, -0.00, -1.00, 994.8, 532.8)">d</text><text xml:space="preserve" font-family="Palatino-Italic,Palatino" font-style="italic" font-size="95.0" fill="#FEFFFF" transform="matrix(1.00, 0.00, -0.00, -1.00, 1042.3, 532.8)">e</text><text xml:space="preserve" font-family="Palatino-Italic,Palatino" font-style="italic" font-size="95.0" fill="#FEFFFF" transform="matrix(1.00, 0.00, -0.00, -1.00, 1079.3, 532.8)"> </text><text xml:space="preserve" font-family="Palatino-Italic,Palatino" font-style="italic" font-size="95.0" fill="#FEFFFF" transform="matrix(1.00, 0.00, -0.00, -1.00, 1103.0, 532.8)">w</text><text xml:space="preserve" font-family="Palatino-Italic,Palatino" font-style="italic" font-size="95.0" fill="#FEFFFF" transform="matrix(1.00, 0.00, -0.00, -1.00, 1171.6, 532.8)">i</text><text xml:space="preserve" font-family="Palatino-Italic,Palatino" font-style="italic" font-size="95.0" fill="#FEFFFF" transform="matrix(1.00, 0.00, -0.00, -1.00, 1198.0, 532.8)">l</text><text xml:space="preserve" font-family="Palatino-Italic,Palatino" font-style="italic" font-size="95.0" fill="#FEFFFF" transform="matrix(1.00, 0.00, -0.00, -1.00, 1224.4, 532.8)">l</text><text xml:space="preserve" font-family="Palatino-Italic,Palatino" font-style="italic" font-size="95.0" fill="#FEFFFF" transform="matrix(1.00, 0.00, -0.00, -1.00, 1250.8, 532.8)"> </text><text xml:space="preserve" font-family="Palatino-Italic,Palatino" font-style="italic" font-size="95.0" fill="#FEFFFF" transform="matrix(1.00, 0.00, -0.00, -1.00, 1274.5, 532.8)">b</text><text xml:space="preserve" font-family="Palatino-Italic,Palatino" font-style="italic" font-size="95.0" fill="#FEFFFF" transform="matrix(1.00, 0.00, -0.00, -1.00, 1318.5, 532.8)">e</text><text xml:space="preserve" font-family="Palatino-Italic,Palatino" font-style="italic" font-size="95.0" fill="#FEFFFF" transform="matrix(1.00, 0.00, -0.00, -1.00, 1355.5, 532.8)"> </text><text xml:space="preserve" font-family="Palatino-Italic,Palatino" font-style="italic" font-size="95.0" fill="#FEFFFF" transform="matrix(1.00, 0.00, -0.00, -1.00, 1379.2, 532.8)">a</text><text xml:space="preserve" font-family="Palatino-Italic,Palatino" font-style="italic" font-size="95.0" fill="#FEFFFF" transform="matrix(1.00, 0.00, -0.00, -1.00, 1421.4, 532.8)"> </text><text xml:space="preserve" font-family="Palatino-Italic,Palatino" font-style="italic" font-size="95.0" fill="#FEFFFF" transform="matrix(1.00, 0.00, -0.00, -1.00, 1445.1, 532.8)">v</text><text xml:space="preserve" font-family="Palatino-Italic,Palatino" font-style="italic" font-size="95.0" fill="#FEFFFF" transform="matrix(1.00, 0.00, -0.00, -1.00, 1492.6, 532.8)">i</text><text xml:space="preserve" font-family="Palatino-Italic,Palatino" font-style="italic" font-size="95.0" fill="#FEFFFF" transform="matrix(1.00, 0.00, -0.00, -1.00, 1519.0, 532.8)">o</text><text xml:space="preserve" font-family="Palatino-Italic,Palatino" font-style="italic" font-size="95.0" fill="#FEFFFF" transform="matrix(1.00, 0.00, -0.00, -1.00, 1561.1, 532.8)">l</text><text xml:space="preserve" font-family="Palatino-Italic,Palatino" font-style="italic" font-size="95.0" fill="#FEFFFF" transform="matrix(1.00, 0.00, -0.00, -1.00, 1587.5, 532.8)">e</text><text xml:space="preserve" font-family="Palatino-Italic,Palatino" font-style="italic" font-size="95.0" fill="#FEFFFF" transform="matrix(1.00, 0.00, -0.00, -1.00, 1624.5, 532.8)">n</text><text xml:space="preserve" font-family="Palatino-Italic,Palatino" font-style="italic" font-size="95.0" fill="#FEFFFF" transform="matrix(1.00, 0.00, -0.00, -1.00, 1677.3, 532.8)">t</text><text xml:space="preserve" font-family="Palatino-Italic,Palatino" font-style="italic" font-size="95.0" fill="#FEFFFF" transform="matrix(1.00, 0.00, -0.00, -1.00, 1709.0, 532.8)"> </text><text xml:space="preserve" font-family="Palatino-Italic,Palatino" font-style="italic" font-size="95.0" fill="#FEFFFF" transform="matrix(1.00, 0.00, -0.00, -1.00, 197.9, 407.8)">p</text><text xml:space="preserve" font-family="Palatino-Italic,Palatino" font-style="italic" font-size="95.0" fill="#FEFFFF" transform="matrix(1.00, 0.00, -0.00, -1.00, 245.4, 407.8)">s</text><text xml:space="preserve" font-family="Palatino-Italic,Palatino" font-style="italic" font-size="95.0" fill="#FEFFFF" transform="matrix(1.00, 0.00, -0.00, -1.00, 282.4, 407.8)">y</text><text xml:space="preserve" font-family="Palatino-Italic,Palatino" font-style="italic" font-size="95.0" fill="#FEFFFF" transform="matrix(1.00, 0.00, -0.00, -1.00, 329.9, 407.8)">c</text><text xml:space="preserve" font-family="Palatino-Italic,Palatino" font-style="italic" font-size="95.0" fill="#FEFFFF" transform="matrix(1.00, 0.00, -0.00, -1.00, 368.6, 407.8)">h</text><text xml:space="preserve" font-family="Palatino-Italic,Palatino" font-style="italic" font-size="95.0" fill="#FEFFFF" transform="matrix(1.00, 0.00, -0.00, -1.00, 416.1, 407.8)">o</text><text xml:space="preserve" font-family="Palatino-Italic,Palatino" font-style="italic" font-size="95.0" fill="#FEFFFF" transform="matrix(1.00, 0.00, -0.00, -1.00, 458.2, 407.8)">p</text><text xml:space="preserve" font-family="Palatino-Italic,Palatino" font-style="italic" font-size="95.0" fill="#FEFFFF" transform="matrix(1.00, 0.00, -0.00, -1.00, 505.7, 407.8)">a</text><text xml:space="preserve" font-family="Palatino-Italic,Palatino" font-style="italic" font-size="95.0" fill="#FEFFFF" transform="matrix(1.00, 0.00, -0.00, -1.00, 547.9, 407.8)">t</text><text xml:space="preserve" font-family="Palatino-Italic,Palatino" font-style="italic" font-size="95.0" fill="#FEFFFF" transform="matrix(1.00, 0.00, -0.00, -1.00, 579.5, 407.8)">h</text><text xml:space="preserve" font-family="Palatino-Italic,Palatino" font-style="italic" font-size="95.0" fill="#FEFFFF" transform="matrix(1.00, 0.00, -0.00, -1.00, 627.0, 407.8)"> </text><text xml:space="preserve" font-family="Palatino-Italic,Palatino" font-style="italic" font-size="95.0" fill="#FEFFFF" transform="matrix(1.00, 0.00, -0.00, -1.00, 650.8, 407.8)">w</text><text xml:space="preserve" font-family="Palatino-Italic,Palatino" font-style="italic" font-size="95.0" fill="#FEFFFF" transform="matrix(1.00, 0.00, -0.00, -1.00, 719.4, 407.8)">h</text><text xml:space="preserve" font-family="Palatino-Italic,Palatino" font-style="italic" font-size="95.0" fill="#FEFFFF" transform="matrix(1.00, 0.00, -0.00, -1.00, 766.9, 407.8)">o</text><text xml:space="preserve" font-family="Palatino-Italic,Palatino" font-style="italic" font-size="95.0" fill="#FEFFFF" transform="matrix(1.00, 0.00, -0.00, -1.00, 809.0, 407.8)"> </text><text xml:space="preserve" font-family="Palatino-Italic,Palatino" font-style="italic" font-size="95.0" fill="#FEFFFF" transform="matrix(1.00, 0.00, -0.00, -1.00, 832.8, 407.8)">k</text><text xml:space="preserve" font-family="Palatino-Italic,Palatino" font-style="italic" font-size="95.0" fill="#FEFFFF" transform="matrix(1.00, 0.00, -0.00, -1.00, 874.9, 407.8)">n</text><text xml:space="preserve" font-family="Palatino-Italic,Palatino" font-style="italic" font-size="95.0" fill="#FEFFFF" transform="matrix(1.00, 0.00, -0.00, -1.00, 927.8, 407.8)">o</text><text xml:space="preserve" font-family="Palatino-Italic,Palatino" font-style="italic" font-size="95.0" fill="#FEFFFF" transform="matrix(1.00, 0.00, -0.00, -1.00, 969.9, 407.8)">w</text><text xml:space="preserve" font-family="Palatino-Italic,Palatino" font-style="italic" font-size="95.0" fill="#FEFFFF" transform="matrix(1.00, 0.00, -0.00, -1.00, 1038.5, 407.8)">s</text><text xml:space="preserve" font-family="Palatino-Italic,Palatino" font-style="italic" font-size="95.0" fill="#FEFFFF" transform="matrix(1.00, 0.00, -0.00, -1.00, 1075.5, 407.8)"> </text><text xml:space="preserve" font-family="Palatino-Italic,Palatino" font-style="italic" font-size="95.0" fill="#FEFFFF" transform="matrix(1.00, 0.00, -0.00, -1.00, 1099.3, 407.8)">w</text><text xml:space="preserve" font-family="Palatino-Italic,Palatino" font-style="italic" font-size="95.0" fill="#FEFFFF" transform="matrix(1.00, 0.00, -0.00, -1.00, 1167.9, 407.8)">h</text><text xml:space="preserve" font-family="Palatino-Italic,Palatino" font-style="italic" font-size="95.0" fill="#FEFFFF" transform="matrix(1.00, 0.00, -0.00, -1.00, 1215.4, 407.8)">e</text><text xml:space="preserve" font-family="Palatino-Italic,Palatino" font-style="italic" font-size="95.0" fill="#FEFFFF" transform="matrix(1.00, 0.00, -0.00, -1.00, 1252.4, 407.8)">r</text><text xml:space="preserve" font-family="Palatino-Italic,Palatino" font-style="italic" font-size="95.0" fill="#FEFFFF" transform="matrix(1.00, 0.00, -0.00, -1.00, 1287.7, 407.8)">e</text><text xml:space="preserve" font-family="Palatino-Italic,Palatino" font-style="italic" font-size="95.0" fill="#FEFFFF" transform="matrix(1.00, 0.00, -0.00, -1.00, 1324.7, 407.8)"> </text><text xml:space="preserve" font-family="Palatino-Italic,Palatino" font-style="italic" font-size="95.0" fill="#FEFFFF" transform="matrix(1.00, 0.00, -0.00, -1.00, 1348.5, 407.8)">y</text><text xml:space="preserve" font-family="Palatino-Italic,Palatino" font-style="italic" font-size="95.0" fill="#FEFFFF" transform="matrix(1.00, 0.00, -0.00, -1.00, 1396.0, 407.8)">o</text><text xml:space="preserve" font-family="Palatino-Italic,Palatino" font-style="italic" font-size="95.0" fill="#FEFFFF" transform="matrix(1.00, 0.00, -0.00, -1.00, 1438.1, 407.8)">u</text><text xml:space="preserve" font-family="Palatino-Italic,Palatino" font-style="italic" font-size="95.0" fill="#FEFFFF" transform="matrix(1.00, 0.00, -0.00, -1.00, 1491.0, 407.8)"> </text><text xml:space="preserve" font-family="Palatino-Italic,Palatino" font-style="italic" font-size="95.0" fill="#FEFFFF" transform="matrix(1.00, 0.00, -0.00, -1.00, 1514.7, 407.8)">l</text><text xml:space="preserve" font-family="Palatino-Italic,Palatino" font-style="italic" font-size="95.0" fill="#FEFFFF" transform="matrix(1.00, 0.00, -0.00, -1.00, 1541.1, 407.8)">i</text><text xml:space="preserve" font-family="Palatino-Italic,Palatino" font-style="italic" font-size="95.0" fill="#FEFFFF" transform="matrix(1.00, 0.00, -0.00, -1.00, 1567.5, 407.8)">v</text><text xml:space="preserve" font-family="Palatino-Italic,Palatino" font-style="italic" font-size="95.0" fill="#FEFFFF" transform="matrix(1.00, 0.00, -0.00, -1.00, 1615.0, 407.8)">e</text><text xml:space="preserve" font-family="Palatino-Italic,Palatino" font-style="italic" font-size="95.0" fill="#FEFFFF" transform="matrix(1.00, 0.00, -0.00, -1.00, 1651.9, 407.8)">.</text><text xml:space="preserve" font-family="Palatino-Italic,Palatino" font-style="italic" font-size="95.0" fill="#FEFFFF" transform="matrix(1.00, 0.00, -0.00, -1.00, 1675.6, 407.8)">”</text><text xml:space="preserve" font-family="Palatino-Roman,Palatino" font-size="38.0" fill="#FEFFFE" transform="matrix(1.00, 0.00, -0.00, -1.00, 1497.7, 331.5)">—</text><text xml:space="preserve" font-family="Palatino-Roman,Palatino" font-size="38.0" fill="#FEFFFE" transform="matrix(1.00, 0.00, -0.00, -1.00, 1535.7, 331.5)">M</text><text xml:space="preserve" font-family="Palatino-Roman,Palatino" font-size="38.0" fill="#FEFFFE" transform="matrix(1.00, 0.00, -0.00, -1.00, 1571.7, 331.5)">.</text><text xml:space="preserve" font-family="Palatino-Roman,Palatino" font-size="38.0" fill="#FEFFFE" transform="matrix(1.00, 0.00, -0.00, -1.00, 1581.2, 331.5)"> </text><text xml:space="preserve" font-family="Palatino-Roman,Palatino" font-size="38.0" fill="#FEFFFE" transform="matrix(1.00, 0.00, -0.00, -1.00, 1590.7, 331.5)">G</text><text xml:space="preserve" font-family="Palatino-Roman,Palatino" font-size="38.0" fill="#FEFFFE" transform="matrix(1.00, 0.00, -0.00, -1.00, 1619.7, 331.5)">o</text><text xml:space="preserve" font-family="Palatino-Roman,Palatino" font-size="38.0" fill="#FEFFFE" transform="matrix(1.00, 0.00, -0.00, -1.00, 1640.4, 331.5)">l</text><text xml:space="preserve" font-family="Palatino-Roman,Palatino" font-size="38.0" fill="#FEFFFE" transform="matrix(1.00, 0.00, -0.00, -1.00, 1651.5, 331.5)">d</text><text xml:space="preserve" font-family="Palatino-Roman,Palatino" font-size="38.0" fill="#FEFFFE" transform="matrix(1.00, 0.00, -0.00, -1.00, 1674.7, 331.5)">i</text><text xml:space="preserve" font-family="Palatino-Roman,Palatino" font-size="38.0" fill="#FEFFFE" transform="matrix(1.00, 0.00, -0.00, -1.00, 1685.7, 331.5)">n</text><text xml:space="preserve" font-family="Palatino-Roman,Palatino" font-size="38.0" fill="#FEFFFE" transform="matrix(1.00, 0.00, -0.00, -1.00, 1707.9, 331.5)">g</text></g></svg>