<?xml version="1.0" encoding="UTF-8" standalone="no"?><svg xmlns="http://www.w3.org/2000/svg" xmlns:xlink="http://www.w3.org/1999/xlink" clip-rule="evenodd" stroke-miterlimit="10" viewBox="0 0 1920 1080"><desc>SVG generated by Keynote</desc><defs></defs><g transform="matrix(1.00, 0.00, -0.00, -1.00, 0.0, 1080.0)"><g><clipPath id="clip0x7f840d2726a0"><path d="M 0.0 1080.0 L 1920.0 1080.0 L 1920.0 0.0 L 0.0 0.0 Z M 0.0 1080.0 "></path></clipPath><g clip-path="url(#clip0x7f840d2726a0)"><image xlink:href="../../BF7430C7-5211-4E68-B118-AC68FDB76F0F/assets/A81AF0278930B93F47F55E5BB6D3A023.png" width="1920.00" height="1080.00" transform="matrix(1.00, 0.00, -0.00, -1.00, 0.0, 1080.0)"></image></g></g><text xml:space="preserve" font-family="FiraMono-Regular,Fira Mono" font-size="51.5" fill="#C07B1E" transform="matrix(1.00, 0.00, -0.00, -1.00, 137.0, 844.7)">@</text><text xml:space="preserve" font-family="FiraMono-Regular,Fira Mono" font-size="51.5" fill="#C07B1E" transform="matrix(1.00, 0.00, -0.00, -1.00, 167.9, 844.7)">S</text><text xml:space="preserve" font-family="FiraMono-Regular,Fira Mono" font-size="51.5" fill="#C07B1E" transform="matrix(1.00, 0.00, -0.00, -1.00, 198.8, 844.7)">u</text><text xml:space="preserve" font-family="FiraMono-Regular,Fira Mono" font-size="51.5" fill="#C07B1E" transform="matrix(1.00, 0.00, -0.00, -1.00, 229.7, 844.7)">b</text><text xml:space="preserve" font-family="FiraMono-Regular,Fira Mono" font-size="51.5" fill="#C07B1E" transform="matrix(1.00, 0.00, -0.00, -1.00, 260.6, 844.7)">j</text><text xml:space="preserve" font-family="FiraMono-Regular,Fira Mono" font-size="51.5" fill="#C07B1E" transform="matrix(1.00, 0.00, -0.00, -1.00, 291.4, 844.7)">e</text><text xml:space="preserve" font-family="FiraMono-Regular,Fira Mono" font-size="51.5" fill="#C07B1E" transform="matrix(1.00, 0.00, -0.00, -1.00, 322.3, 844.7)">c</text><text xml:space="preserve" font-family="FiraMono-Regular,Fira Mono" font-size="51.5" fill="#C07B1E" transform="matrix(1.00, 0.00, -0.00, -1.00, 353.2, 844.7)">t</text><text xml:space="preserve" font-family="FiraMono-Regular,Fira Mono" font-size="51.5" fill="#000000" transform="matrix(1.00, 0.00, -0.00, -1.00, 384.1, 844.7)"> </text><text xml:space="preserve" font-family="FiraMono-Regular,Fira Mono" font-size="51.5" fill="#FFFFFF" transform="matrix(1.00, 0.00, -0.00, -1.00, 415.0, 844.7)">s</text><text xml:space="preserve" font-family="FiraMono-Regular,Fira Mono" font-size="51.5" fill="#FFFFFF" transform="matrix(1.00, 0.00, -0.00, -1.00, 445.9, 844.7)">t</text><text xml:space="preserve" font-family="FiraMono-Regular,Fira Mono" font-size="51.5" fill="#FFFFFF" transform="matrix(1.00, 0.00, -0.00, -1.00, 476.8, 844.7)">a</text><text xml:space="preserve" font-family="FiraMono-Regular,Fira Mono" font-size="51.5" fill="#FFFFFF" transform="matrix(1.00, 0.00, -0.00, -1.00, 507.7, 844.7)">c</text><text xml:space="preserve" font-family="FiraMono-Regular,Fira Mono" font-size="51.5" fill="#FFFFFF" transform="matrix(1.00, 0.00, -0.00, -1.00, 538.5, 844.7)">k</text><text xml:space="preserve" font-family="FiraMono-Regular,Fira Mono" font-size="51.5" fill="#000000" transform="matrix(1.00, 0.00, -0.00, -1.00, 569.4, 844.7)"> </text><text xml:space="preserve" font-family="FiraMono-Regular,Fira Mono" font-size="51.5" fill="#FFFFFF" transform="matrix(1.00, 0.00, -0.00, -1.00, 600.3, 844.7)">=</text><text xml:space="preserve" font-family="FiraMono-Regular,Fira Mono" font-size="51.5" fill="#000000" transform="matrix(1.00, 0.00, -0.00, -1.00, 631.2, 844.7)"> </text><text xml:space="preserve" font-family="FiraMono-Regular,Fira Mono" font-size="51.5" fill="#C07B1E" transform="matrix(1.00, 0.00, -0.00, -1.00, 662.1, 844.7)">n</text><text xml:space="preserve" font-family="FiraMono-Regular,Fira Mono" font-size="51.5" fill="#C07B1E" transform="matrix(1.00, 0.00, -0.00, -1.00, 693.0, 844.7)">e</text><text xml:space="preserve" font-family="FiraMono-Regular,Fira Mono" font-size="51.5" fill="#C07B1E" transform="matrix(1.00, 0.00, -0.00, -1.00, 723.9, 844.7)">w</text><text xml:space="preserve" font-family="FiraMono-Regular,Fira Mono" font-size="51.5" fill="#000000" transform="matrix(1.00, 0.00, -0.00, -1.00, 754.8, 844.7)"> </text><text xml:space="preserve" font-family="FiraMono-Regular,Fira Mono" font-size="51.5" fill="#FFFFFF" transform="matrix(1.00, 0.00, -0.00, -1.00, 785.6, 844.7)">S</text><text xml:space="preserve" font-family="FiraMono-Regular,Fira Mono" font-size="51.5" fill="#FFFFFF" transform="matrix(1.00, 0.00, -0.00, -1.00, 816.5, 844.7)">t</text><text xml:space="preserve" font-family="FiraMono-Regular,Fira Mono" font-size="51.5" fill="#FFFFFF" transform="matrix(1.00, 0.00, -0.00, -1.00, 847.4, 844.7)">a</text><text xml:space="preserve" font-family="FiraMono-Regular,Fira Mono" font-size="51.5" fill="#FFFFFF" transform="matrix(1.00, 0.00, -0.00, -1.00, 878.3, 844.7)">c</text><text xml:space="preserve" font-family="FiraMono-Regular,Fira Mono" font-size="51.5" fill="#FFFFFF" transform="matrix(1.00, 0.00, -0.00, -1.00, 909.2, 844.7)">k</text><text xml:space="preserve" font-family="FiraMono-Regular,Fira Mono" font-size="51.5" fill="#FFFFFF" transform="matrix(1.00, 0.00, -0.00, -1.00, 940.1, 844.7)">(</text><text xml:space="preserve" font-family="FiraMono-Regular,Fira Mono" font-size="51.5" fill="#FFFFFF" transform="matrix(1.00, 0.00, -0.00, -1.00, 971.0, 844.7)">)</text><text xml:space="preserve" font-family="FiraMono-Regular,Fira Mono" font-size="51.5" fill="#000000" transform="matrix(1.00, 0.00, -0.00, -1.00, 1001.9, 844.7)"> </text><text xml:space="preserve" font-family="FiraMono-Regular,Fira Mono" font-size="51.5" fill="#C07B1E" transform="matrix(1.00, 0.00, -0.00, -1.00, 137.0, 684.7)">d</text><text xml:space="preserve" font-family="FiraMono-Regular,Fira Mono" font-size="51.5" fill="#C07B1E" transform="matrix(1.00, 0.00, -0.00, -1.00, 167.9, 684.7)">e</text><text xml:space="preserve" font-family="FiraMono-Regular,Fira Mono" font-size="51.5" fill="#C07B1E" transform="matrix(1.00, 0.00, -0.00, -1.00, 198.8, 684.7)">f</text><text xml:space="preserve" font-family="FiraMono-Regular,Fira Mono" font-size="51.5" fill="#000000" transform="matrix(1.00, 0.00, -0.00, -1.00, 229.7, 684.7)"> </text><text xml:space="preserve" font-family="FiraMono-Regular,Fira Mono" font-size="51.5" fill="#FF2600" transform="matrix(1.00, 0.00, -0.00, -1.00, 260.6, 684.7)">"</text><text xml:space="preserve" font-family="FiraMono-Regular,Fira Mono" font-size="51.5" fill="#FF2600" transform="matrix(1.00, 0.00, -0.00, -1.00, 291.4, 684.7)">s</text><text xml:space="preserve" font-family="FiraMono-Regular,Fira Mono" font-size="51.5" fill="#FF2600" transform="matrix(1.00, 0.00, -0.00, -1.00, 322.3, 684.7)">i</text><text xml:space="preserve" font-family="FiraMono-Regular,Fira Mono" font-size="51.5" fill="#FF2600" transform="matrix(1.00, 0.00, -0.00, -1.00, 353.2, 684.7)">z</text><text xml:space="preserve" font-family="FiraMono-Regular,Fira Mono" font-size="51.5" fill="#FF2600" transform="matrix(1.00, 0.00, -0.00, -1.00, 384.1, 684.7)">e</text><text xml:space="preserve" font-family="FiraMono-Regular,Fira Mono" font-size="51.5" fill="#FF2600" transform="matrix(1.00, 0.00, -0.00, -1.00, 415.0, 684.7)"> </text><text xml:space="preserve" font-family="FiraMono-Regular,Fira Mono" font-size="51.5" fill="#FF2600" transform="matrix(1.00, 0.00, -0.00, -1.00, 445.9, 684.7)">i</text><text xml:space="preserve" font-family="FiraMono-Regular,Fira Mono" font-size="51.5" fill="#FF2600" transform="matrix(1.00, 0.00, -0.00, -1.00, 476.8, 684.7)">n</text><text xml:space="preserve" font-family="FiraMono-Regular,Fira Mono" font-size="51.5" fill="#FF2600" transform="matrix(1.00, 0.00, -0.00, -1.00, 507.7, 684.7)">c</text><text xml:space="preserve" font-family="FiraMono-Regular,Fira Mono" font-size="51.5" fill="#FF2600" transform="matrix(1.00, 0.00, -0.00, -1.00, 538.5, 684.7)">r</text><text xml:space="preserve" font-family="FiraMono-Regular,Fira Mono" font-size="51.5" fill="#FF2600" transform="matrix(1.00, 0.00, -0.00, -1.00, 569.4, 684.7)">e</text><text xml:space="preserve" font-family="FiraMono-Regular,Fira Mono" font-size="51.5" fill="#FF2600" transform="matrix(1.00, 0.00, -0.00, -1.00, 600.3, 684.7)">a</text><text xml:space="preserve" font-family="FiraMono-Regular,Fira Mono" font-size="51.5" fill="#FF2600" transform="matrix(1.00, 0.00, -0.00, -1.00, 631.2, 684.7)">s</text><text xml:space="preserve" font-family="FiraMono-Regular,Fira Mono" font-size="51.5" fill="#FF2600" transform="matrix(1.00, 0.00, -0.00, -1.00, 662.1, 684.7)">e</text><text xml:space="preserve" font-family="FiraMono-Regular,Fira Mono" font-size="51.5" fill="#FF2600" transform="matrix(1.00, 0.00, -0.00, -1.00, 693.0, 684.7)">s</text><text xml:space="preserve" font-family="FiraMono-Regular,Fira Mono" font-size="51.5" fill="#FF2600" transform="matrix(1.00, 0.00, -0.00, -1.00, 723.9, 684.7)"> </text><text xml:space="preserve" font-family="FiraMono-Regular,Fira Mono" font-size="51.5" fill="#FF2600" transform="matrix(1.00, 0.00, -0.00, -1.00, 754.8, 684.7)">w</text><text xml:space="preserve" font-family="FiraMono-Regular,Fira Mono" font-size="51.5" fill="#FF2600" transform="matrix(1.00, 0.00, -0.00, -1.00, 785.6, 684.7)">h</text><text xml:space="preserve" font-family="FiraMono-Regular,Fira Mono" font-size="51.5" fill="#FF2600" transform="matrix(1.00, 0.00, -0.00, -1.00, 816.5, 684.7)">e</text><text xml:space="preserve" font-family="FiraMono-Regular,Fira Mono" font-size="51.5" fill="#FF2600" transform="matrix(1.00, 0.00, -0.00, -1.00, 847.4, 684.7)">n</text><text xml:space="preserve" font-family="FiraMono-Regular,Fira Mono" font-size="51.5" fill="#FF2600" transform="matrix(1.00, 0.00, -0.00, -1.00, 878.3, 684.7)"> </text><text xml:space="preserve" font-family="FiraMono-Regular,Fira Mono" font-size="51.5" fill="#FF2600" transform="matrix(1.00, 0.00, -0.00, -1.00, 909.2, 684.7)">w</text><text xml:space="preserve" font-family="FiraMono-Regular,Fira Mono" font-size="51.5" fill="#FF2600" transform="matrix(1.00, 0.00, -0.00, -1.00, 940.1, 684.7)">e</text><text xml:space="preserve" font-family="FiraMono-Regular,Fira Mono" font-size="51.5" fill="#FF2600" transform="matrix(1.00, 0.00, -0.00, -1.00, 971.0, 684.7)"> </text><text xml:space="preserve" font-family="FiraMono-Regular,Fira Mono" font-size="51.5" fill="#FF2600" transform="matrix(1.00, 0.00, -0.00, -1.00, 1001.9, 684.7)">a</text><text xml:space="preserve" font-family="FiraMono-Regular,Fira Mono" font-size="51.5" fill="#FF2600" transform="matrix(1.00, 0.00, -0.00, -1.00, 1032.8, 684.7)">d</text><text xml:space="preserve" font-family="FiraMono-Regular,Fira Mono" font-size="51.5" fill="#FF2600" transform="matrix(1.00, 0.00, -0.00, -1.00, 1063.6, 684.7)">d</text><text xml:space="preserve" font-family="FiraMono-Regular,Fira Mono" font-size="51.5" fill="#FF2600" transform="matrix(1.00, 0.00, -0.00, -1.00, 1094.5, 684.7)"> </text><text xml:space="preserve" font-family="FiraMono-Regular,Fira Mono" font-size="51.5" fill="#FF2600" transform="matrix(1.00, 0.00, -0.00, -1.00, 1125.4, 684.7)">i</text><text xml:space="preserve" font-family="FiraMono-Regular,Fira Mono" font-size="51.5" fill="#FF2600" transform="matrix(1.00, 0.00, -0.00, -1.00, 1156.3, 684.7)">t</text><text xml:space="preserve" font-family="FiraMono-Regular,Fira Mono" font-size="51.5" fill="#FF2600" transform="matrix(1.00, 0.00, -0.00, -1.00, 1187.2, 684.7)">e</text><text xml:space="preserve" font-family="FiraMono-Regular,Fira Mono" font-size="51.5" fill="#FF2600" transform="matrix(1.00, 0.00, -0.00, -1.00, 1218.1, 684.7)">m</text><text xml:space="preserve" font-family="FiraMono-Regular,Fira Mono" font-size="51.5" fill="#FF2600" transform="matrix(1.00, 0.00, -0.00, -1.00, 1249.0, 684.7)">s</text><text xml:space="preserve" font-family="FiraMono-Regular,Fira Mono" font-size="51.5" fill="#FF2600" transform="matrix(1.00, 0.00, -0.00, -1.00, 1279.9, 684.7)"> </text><text xml:space="preserve" font-family="FiraMono-Regular,Fira Mono" font-size="51.5" fill="#FF2600" transform="matrix(1.00, 0.00, -0.00, -1.00, 1310.7, 684.7)">t</text><text xml:space="preserve" font-family="FiraMono-Regular,Fira Mono" font-size="51.5" fill="#FF2600" transform="matrix(1.00, 0.00, -0.00, -1.00, 1341.6, 684.7)">o</text><text xml:space="preserve" font-family="FiraMono-Regular,Fira Mono" font-size="51.5" fill="#FF2600" transform="matrix(1.00, 0.00, -0.00, -1.00, 1372.5, 684.7)"> </text><text xml:space="preserve" font-family="FiraMono-Regular,Fira Mono" font-size="51.5" fill="#FF2600" transform="matrix(1.00, 0.00, -0.00, -1.00, 1403.4, 684.7)">a</text><text xml:space="preserve" font-family="FiraMono-Regular,Fira Mono" font-size="51.5" fill="#FF2600" transform="matrix(1.00, 0.00, -0.00, -1.00, 1434.3, 684.7)"> </text><text xml:space="preserve" font-family="FiraMono-Regular,Fira Mono" font-size="51.5" fill="#FF2600" transform="matrix(1.00, 0.00, -0.00, -1.00, 1465.2, 684.7)">s</text><text xml:space="preserve" font-family="FiraMono-Regular,Fira Mono" font-size="51.5" fill="#FF2600" transform="matrix(1.00, 0.00, -0.00, -1.00, 1496.1, 684.7)">t</text><text xml:space="preserve" font-family="FiraMono-Regular,Fira Mono" font-size="51.5" fill="#FF2600" transform="matrix(1.00, 0.00, -0.00, -1.00, 1527.0, 684.7)">a</text><text xml:space="preserve" font-family="FiraMono-Regular,Fira Mono" font-size="51.5" fill="#FF2600" transform="matrix(1.00, 0.00, -0.00, -1.00, 1557.8, 684.7)">c</text><text xml:space="preserve" font-family="FiraMono-Regular,Fira Mono" font-size="51.5" fill="#FF2600" transform="matrix(1.00, 0.00, -0.00, -1.00, 1588.7, 684.7)">k</text><text xml:space="preserve" font-family="FiraMono-Regular,Fira Mono" font-size="51.5" fill="#FF2600" transform="matrix(1.00, 0.00, -0.00, -1.00, 1619.6, 684.7)">"</text><text xml:space="preserve" font-family="FiraMono-Regular,Fira Mono" font-size="51.5" fill="#FFFFFF" transform="matrix(1.00, 0.00, -0.00, -1.00, 1650.5, 684.7)">(</text><text xml:space="preserve" font-family="FiraMono-Regular,Fira Mono" font-size="51.5" fill="#FFFFFF" transform="matrix(1.00, 0.00, -0.00, -1.00, 1681.4, 684.7)">)</text><text xml:space="preserve" font-family="FiraMono-Regular,Fira Mono" font-size="51.5" fill="#FFFFFF" transform="matrix(1.00, 0.00, -0.00, -1.00, 1712.3, 684.7)"> </text><text xml:space="preserve" font-family="FiraMono-Regular,Fira Mono" font-size="51.5" fill="#FFFFFF" transform="matrix(1.00, 0.00, -0.00, -1.00, 1743.2, 684.7)">{</text><text xml:space="preserve" font-family="FiraMono-Regular,Fira Mono" font-size="51.5" fill="#000000" transform="matrix(1.00, 0.00, -0.00, -1.00, 1774.1, 684.7)"> </text><text xml:space="preserve" font-family="FiraMono-Regular,Fira Mono" font-size="51.5" fill="#FFFFFF" transform="matrix(1.00, 0.00, -0.00, -1.00, 137.0, 604.7)"> </text><text xml:space="preserve" font-family="FiraMono-Regular,Fira Mono" font-size="51.5" fill="#FFFFFF" transform="matrix(1.00, 0.00, -0.00, -1.00, 167.9, 604.7)"> </text><text xml:space="preserve" font-family="FiraMono-Regular,Fira Mono" font-size="51.5" fill="#FFFFFF" transform="matrix(1.00, 0.00, -0.00, -1.00, 198.8, 604.7)">w</text><text xml:space="preserve" font-family="FiraMono-Regular,Fira Mono" font-size="51.5" fill="#FFFFFF" transform="matrix(1.00, 0.00, -0.00, -1.00, 229.7, 604.7)">h</text><text xml:space="preserve" font-family="FiraMono-Regular,Fira Mono" font-size="51.5" fill="#FFFFFF" transform="matrix(1.00, 0.00, -0.00, -1.00, 260.6, 604.7)">e</text><text xml:space="preserve" font-family="FiraMono-Regular,Fira Mono" font-size="51.5" fill="#FFFFFF" transform="matrix(1.00, 0.00, -0.00, -1.00, 291.4, 604.7)">n</text><text xml:space="preserve" font-family="FiraMono-Regular,Fira Mono" font-size="51.5" fill="#FFFFFF" transform="matrix(1.00, 0.00, -0.00, -1.00, 322.3, 604.7)">:</text><text xml:space="preserve" font-family="FiraMono-Regular,Fira Mono" font-size="51.5" fill="#000000" transform="matrix(1.00, 0.00, -0.00, -1.00, 353.2, 604.7)"> </text><text xml:space="preserve" font-family="FiraMono-Regular,Fira Mono" font-size="51.5" fill="#FFFFFF" transform="matrix(1.00, 0.00, -0.00, -1.00, 137.0, 524.7)"> </text><text xml:space="preserve" font-family="FiraMono-Regular,Fira Mono" font-size="51.5" fill="#FFFFFF" transform="matrix(1.00, 0.00, -0.00, -1.00, 167.9, 524.7)"> </text><text xml:space="preserve" font-family="FiraMono-Regular,Fira Mono" font-size="51.5" fill="#FFFFFF" transform="matrix(1.00, 0.00, -0.00, -1.00, 198.8, 524.7)">s</text><text xml:space="preserve" font-family="FiraMono-Regular,Fira Mono" font-size="51.5" fill="#FFFFFF" transform="matrix(1.00, 0.00, -0.00, -1.00, 229.7, 524.7)">t</text><text xml:space="preserve" font-family="FiraMono-Regular,Fira Mono" font-size="51.5" fill="#FFFFFF" transform="matrix(1.00, 0.00, -0.00, -1.00, 260.6, 524.7)">a</text><text xml:space="preserve" font-family="FiraMono-Regular,Fira Mono" font-size="51.5" fill="#FFFFFF" transform="matrix(1.00, 0.00, -0.00, -1.00, 291.4, 524.7)">c</text><text xml:space="preserve" font-family="FiraMono-Regular,Fira Mono" font-size="51.5" fill="#FFFFFF" transform="matrix(1.00, 0.00, -0.00, -1.00, 322.3, 524.7)">k</text><text xml:space="preserve" font-family="FiraMono-Regular,Fira Mono" font-size="51.5" fill="#FFFFFF" transform="matrix(1.00, 0.00, -0.00, -1.00, 353.2, 524.7)">.</text><text xml:space="preserve" font-family="FiraMono-Regular,Fira Mono" font-size="51.5" fill="#FFFFFF" transform="matrix(1.00, 0.00, -0.00, -1.00, 384.1, 524.7)">p</text><text xml:space="preserve" font-family="FiraMono-Regular,Fira Mono" font-size="51.5" fill="#FFFFFF" transform="matrix(1.00, 0.00, -0.00, -1.00, 415.0, 524.7)">u</text><text xml:space="preserve" font-family="FiraMono-Regular,Fira Mono" font-size="51.5" fill="#FFFFFF" transform="matrix(1.00, 0.00, -0.00, -1.00, 445.9, 524.7)">s</text><text xml:space="preserve" font-family="FiraMono-Regular,Fira Mono" font-size="51.5" fill="#FFFFFF" transform="matrix(1.00, 0.00, -0.00, -1.00, 476.8, 524.7)">h</text><text xml:space="preserve" font-family="FiraMono-Regular,Fira Mono" font-size="51.5" fill="#000000" transform="matrix(1.00, 0.00, -0.00, -1.00, 507.7, 524.7)"> </text><text xml:space="preserve" font-family="FiraMono-Regular,Fira Mono" font-size="51.5" fill="#FF2600" transform="matrix(1.00, 0.00, -0.00, -1.00, 538.5, 524.7)">"</text><text xml:space="preserve" font-family="FiraMono-Regular,Fira Mono" font-size="51.5" fill="#FF2600" transform="matrix(1.00, 0.00, -0.00, -1.00, 569.4, 524.7)">f</text><text xml:space="preserve" font-family="FiraMono-Regular,Fira Mono" font-size="51.5" fill="#FF2600" transform="matrix(1.00, 0.00, -0.00, -1.00, 600.3, 524.7)">o</text><text xml:space="preserve" font-family="FiraMono-Regular,Fira Mono" font-size="51.5" fill="#FF2600" transform="matrix(1.00, 0.00, -0.00, -1.00, 631.2, 524.7)">o</text><text xml:space="preserve" font-family="FiraMono-Regular,Fira Mono" font-size="51.5" fill="#FF2600" transform="matrix(1.00, 0.00, -0.00, -1.00, 662.1, 524.7)">"</text><text xml:space="preserve" font-family="FiraMono-Regular,Fira Mono" font-size="51.5" fill="#FFFFFF" transform="matrix(1.00, 0.00, -0.00, -1.00, 693.0, 524.7)"> </text><text xml:space="preserve" font-family="FiraMono-Regular,Fira Mono" font-size="51.5" fill="#FFFFFF" transform="matrix(1.00, 0.00, -0.00, -1.00, 137.0, 364.7)"> </text><text xml:space="preserve" font-family="FiraMono-Regular,Fira Mono" font-size="51.5" fill="#FFFFFF" transform="matrix(1.00, 0.00, -0.00, -1.00, 167.9, 364.7)"> </text><text xml:space="preserve" font-family="FiraMono-Regular,Fira Mono" font-size="51.5" fill="#FFFFFF" transform="matrix(1.00, 0.00, -0.00, -1.00, 198.8, 364.7)">t</text><text xml:space="preserve" font-family="FiraMono-Regular,Fira Mono" font-size="51.5" fill="#FFFFFF" transform="matrix(1.00, 0.00, -0.00, -1.00, 229.7, 364.7)">h</text><text xml:space="preserve" font-family="FiraMono-Regular,Fira Mono" font-size="51.5" fill="#FFFFFF" transform="matrix(1.00, 0.00, -0.00, -1.00, 260.6, 364.7)">e</text><text xml:space="preserve" font-family="FiraMono-Regular,Fira Mono" font-size="51.5" fill="#FFFFFF" transform="matrix(1.00, 0.00, -0.00, -1.00, 291.4, 364.7)">n</text><text xml:space="preserve" font-family="FiraMono-Regular,Fira Mono" font-size="51.5" fill="#FFFFFF" transform="matrix(1.00, 0.00, -0.00, -1.00, 322.3, 364.7)">:</text><text xml:space="preserve" font-family="FiraMono-Regular,Fira Mono" font-size="51.5" fill="#000000" transform="matrix(1.00, 0.00, -0.00, -1.00, 353.2, 364.7)"> </text><text xml:space="preserve" font-family="FiraMono-Regular,Fira Mono" font-size="51.5" fill="#FFFFFF" transform="matrix(1.00, 0.00, -0.00, -1.00, 137.0, 284.7)"> </text><text xml:space="preserve" font-family="FiraMono-Regular,Fira Mono" font-size="51.5" fill="#FFFFFF" transform="matrix(1.00, 0.00, -0.00, -1.00, 167.9, 284.7)"> </text><text xml:space="preserve" font-family="FiraMono-Regular,Fira Mono" font-size="51.5" fill="#FFFFFF" transform="matrix(1.00, 0.00, -0.00, -1.00, 198.8, 284.7)">s</text><text xml:space="preserve" font-family="FiraMono-Regular,Fira Mono" font-size="51.5" fill="#FFFFFF" transform="matrix(1.00, 0.00, -0.00, -1.00, 229.7, 284.7)">t</text><text xml:space="preserve" font-family="FiraMono-Regular,Fira Mono" font-size="51.5" fill="#FFFFFF" transform="matrix(1.00, 0.00, -0.00, -1.00, 260.6, 284.7)">a</text><text xml:space="preserve" font-family="FiraMono-Regular,Fira Mono" font-size="51.5" fill="#FFFFFF" transform="matrix(1.00, 0.00, -0.00, -1.00, 291.4, 284.7)">c</text><text xml:space="preserve" font-family="FiraMono-Regular,Fira Mono" font-size="51.5" fill="#FFFFFF" transform="matrix(1.00, 0.00, -0.00, -1.00, 322.3, 284.7)">k</text><text xml:space="preserve" font-family="FiraMono-Regular,Fira Mono" font-size="51.5" fill="#FFFFFF" transform="matrix(1.00, 0.00, -0.00, -1.00, 353.2, 284.7)">.</text><text xml:space="preserve" font-family="FiraMono-Regular,Fira Mono" font-size="51.5" fill="#FFFFFF" transform="matrix(1.00, 0.00, -0.00, -1.00, 384.1, 284.7)">s</text><text xml:space="preserve" font-family="FiraMono-Regular,Fira Mono" font-size="51.5" fill="#FFFFFF" transform="matrix(1.00, 0.00, -0.00, -1.00, 415.0, 284.7)">i</text><text xml:space="preserve" font-family="FiraMono-Regular,Fira Mono" font-size="51.5" fill="#FFFFFF" transform="matrix(1.00, 0.00, -0.00, -1.00, 445.9, 284.7)">z</text><text xml:space="preserve" font-family="FiraMono-Regular,Fira Mono" font-size="51.5" fill="#FFFFFF" transform="matrix(1.00, 0.00, -0.00, -1.00, 476.8, 284.7)">e</text><text xml:space="preserve" font-family="FiraMono-Regular,Fira Mono" font-size="51.5" fill="#FFFFFF" transform="matrix(1.00, 0.00, -0.00, -1.00, 507.7, 284.7)">(</text><text xml:space="preserve" font-family="FiraMono-Regular,Fira Mono" font-size="51.5" fill="#FFFFFF" transform="matrix(1.00, 0.00, -0.00, -1.00, 538.5, 284.7)">)</text><text xml:space="preserve" font-family="FiraMono-Regular,Fira Mono" font-size="51.5" fill="#FFFFFF" transform="matrix(1.00, 0.00, -0.00, -1.00, 569.4, 284.7)"> </text><text xml:space="preserve" font-family="FiraMono-Regular,Fira Mono" font-size="51.5" fill="#FFFFFF" transform="matrix(1.00, 0.00, -0.00, -1.00, 600.3, 284.7)">=</text><text xml:space="preserve" font-family="FiraMono-Regular,Fira Mono" font-size="51.5" fill="#FFFFFF" transform="matrix(1.00, 0.00, -0.00, -1.00, 631.2, 284.7)">=</text><text xml:space="preserve" font-family="FiraMono-Regular,Fira Mono" font-size="51.5" fill="#000000" transform="matrix(1.00, 0.00, -0.00, -1.00, 662.1, 284.7)"> </text><text xml:space="preserve" font-family="FiraMono-Regular,Fira Mono" font-size="51.5" fill="#FF2600" transform="matrix(1.00, 0.00, -0.00, -1.00, 693.0, 284.7)">1</text><text xml:space="preserve" font-family="FiraMono-Regular,Fira Mono" font-size="51.5" fill="#000000" transform="matrix(1.00, 0.00, -0.00, -1.00, 723.9, 284.7)"> </text><text xml:space="preserve" font-family="FiraMono-Regular,Fira Mono" font-size="51.5" fill="#FFFFFF" transform="matrix(1.00, 0.00, -0.00, -1.00, 137.0, 204.7)">}</text></g></svg>