<?xml version="1.0" encoding="UTF-8" standalone="no"?><svg xmlns="http://www.w3.org/2000/svg" xmlns:xlink="http://www.w3.org/1999/xlink" clip-rule="evenodd" stroke-miterlimit="10" viewBox="0 0 1920 1080"><desc>SVG generated by Keynote</desc><defs></defs><g transform="matrix(1.00, 0.00, -0.00, -1.00, 0.0, 1080.0)"><g><clipPath id="clip0x7f8410b6a160"><path d="M 0.0 1080.0 L 1920.0 1080.0 L 1920.0 0.0 L 0.0 0.0 Z M 0.0 1080.0 "></path></clipPath><g clip-path="url(#clip0x7f8410b6a160)"><image xlink:href="../../BF7430C7-5211-4E68-B118-AC68FDB76F0F/assets/A81AF0278930B93F47F55E5BB6D3A023.png" width="1920.00" height="1080.00" transform="matrix(1.00, 0.00, -0.00, -1.00, 0.0, 1080.0)"></image></g></g><text xml:space="preserve" font-family="FiraMono-Regular,Fira Mono" font-size="52.0" fill="#C07B1E" transform="matrix(1.00, 0.00, -0.00, -1.00, 137.0, 687.0)">@</text><text xml:space="preserve" font-family="FiraMono-Regular,Fira Mono" font-size="52.0" fill="#C07B1E" transform="matrix(1.00, 0.00, -0.00, -1.00, 168.2, 687.0)">I</text><text xml:space="preserve" font-family="FiraMono-Regular,Fira Mono" font-size="52.0" fill="#C07B1E" transform="matrix(1.00, 0.00, -0.00, -1.00, 199.4, 687.0)">g</text><text xml:space="preserve" font-family="FiraMono-Regular,Fira Mono" font-size="52.0" fill="#C07B1E" transform="matrix(1.00, 0.00, -0.00, -1.00, 230.6, 687.0)">n</text><text xml:space="preserve" font-family="FiraMono-Regular,Fira Mono" font-size="52.0" fill="#C07B1E" transform="matrix(1.00, 0.00, -0.00, -1.00, 261.8, 687.0)">o</text><text xml:space="preserve" font-family="FiraMono-Regular,Fira Mono" font-size="52.0" fill="#C07B1E" transform="matrix(1.00, 0.00, -0.00, -1.00, 293.0, 687.0)">r</text><text xml:space="preserve" font-family="FiraMono-Regular,Fira Mono" font-size="52.0" fill="#C07B1E" transform="matrix(1.00, 0.00, -0.00, -1.00, 324.2, 687.0)">e</text><text xml:space="preserve" font-family="FiraMono-Regular,Fira Mono" font-size="52.0" fill="#C07B1E" transform="matrix(1.00, 0.00, -0.00, -1.00, 355.4, 687.0)">I</text><text xml:space="preserve" font-family="FiraMono-Regular,Fira Mono" font-size="52.0" fill="#C07B1E" transform="matrix(1.00, 0.00, -0.00, -1.00, 386.6, 687.0)">f</text><text xml:space="preserve" font-family="FiraMono-Regular,Fira Mono" font-size="52.0" fill="#FFFFFF" transform="matrix(1.00, 0.00, -0.00, -1.00, 417.8, 687.0)">(</text><text xml:space="preserve" font-family="FiraMono-Regular,Fira Mono" font-size="52.0" fill="#FFFFFF" transform="matrix(1.00, 0.00, -0.00, -1.00, 449.0, 687.0)">{</text><text xml:space="preserve" font-family="FiraMono-Regular,Fira Mono" font-size="52.0" fill="#000000" transform="matrix(1.00, 0.00, -0.00, -1.00, 480.2, 687.0)"> </text><text xml:space="preserve" font-family="FiraMono-Regular,Fira Mono" font-size="52.0" fill="#FFFFFF" transform="matrix(1.00, 0.00, -0.00, -1.00, 511.4, 687.0)">j</text><text xml:space="preserve" font-family="FiraMono-Regular,Fira Mono" font-size="52.0" fill="#FFFFFF" transform="matrix(1.00, 0.00, -0.00, -1.00, 542.6, 687.0)">a</text><text xml:space="preserve" font-family="FiraMono-Regular,Fira Mono" font-size="52.0" fill="#FFFFFF" transform="matrix(1.00, 0.00, -0.00, -1.00, 573.8, 687.0)">v</text><text xml:space="preserve" font-family="FiraMono-Regular,Fira Mono" font-size="52.0" fill="#FFFFFF" transform="matrix(1.00, 0.00, -0.00, -1.00, 605.0, 687.0)">a</text><text xml:space="preserve" font-family="FiraMono-Regular,Fira Mono" font-size="52.0" fill="#FFFFFF" transform="matrix(1.00, 0.00, -0.00, -1.00, 636.2, 687.0)">V</text><text xml:space="preserve" font-family="FiraMono-Regular,Fira Mono" font-size="52.0" fill="#FFFFFF" transform="matrix(1.00, 0.00, -0.00, -1.00, 667.4, 687.0)">e</text><text xml:space="preserve" font-family="FiraMono-Regular,Fira Mono" font-size="52.0" fill="#FFFFFF" transform="matrix(1.00, 0.00, -0.00, -1.00, 698.6, 687.0)">r</text><text xml:space="preserve" font-family="FiraMono-Regular,Fira Mono" font-size="52.0" fill="#FFFFFF" transform="matrix(1.00, 0.00, -0.00, -1.00, 729.8, 687.0)">s</text><text xml:space="preserve" font-family="FiraMono-Regular,Fira Mono" font-size="52.0" fill="#FFFFFF" transform="matrix(1.00, 0.00, -0.00, -1.00, 761.0, 687.0)">i</text><text xml:space="preserve" font-family="FiraMono-Regular,Fira Mono" font-size="52.0" fill="#FFFFFF" transform="matrix(1.00, 0.00, -0.00, -1.00, 792.2, 687.0)">o</text><text xml:space="preserve" font-family="FiraMono-Regular,Fira Mono" font-size="52.0" fill="#FFFFFF" transform="matrix(1.00, 0.00, -0.00, -1.00, 823.4, 687.0)">n</text><text xml:space="preserve" font-family="FiraMono-Regular,Fira Mono" font-size="52.0" fill="#000000" transform="matrix(1.00, 0.00, -0.00, -1.00, 854.6, 687.0)"> </text><text xml:space="preserve" font-family="FiraMono-Regular,Fira Mono" font-size="52.0" fill="#FFFFFF" transform="matrix(1.00, 0.00, -0.00, -1.00, 885.8, 687.0)">&lt;</text><text xml:space="preserve" font-family="FiraMono-Regular,Fira Mono" font-size="52.0" fill="#FFFFFF" transform="matrix(1.00, 0.00, -0.00, -1.00, 917.0, 687.0)">=</text><text xml:space="preserve" font-family="FiraMono-Regular,Fira Mono" font-size="52.0" fill="#000000" transform="matrix(1.00, 0.00, -0.00, -1.00, 948.2, 687.0)"> </text><text xml:space="preserve" font-family="FiraMono-Regular,Fira Mono" font-size="52.0" fill="#FF2600" transform="matrix(1.00, 0.00, -0.00, -1.00, 979.4, 687.0)">1</text><text xml:space="preserve" font-family="FiraMono-Regular,Fira Mono" font-size="52.0" fill="#FF2600" transform="matrix(1.00, 0.00, -0.00, -1.00, 1010.6, 687.0)">.</text><text xml:space="preserve" font-family="FiraMono-Regular,Fira Mono" font-size="52.0" fill="#FF2600" transform="matrix(1.00, 0.00, -0.00, -1.00, 1041.8, 687.0)">7</text><text xml:space="preserve" font-family="FiraMono-Regular,Fira Mono" font-size="52.0" fill="#000000" transform="matrix(1.00, 0.00, -0.00, -1.00, 1073.0, 687.0)"> </text><text xml:space="preserve" font-family="FiraMono-Regular,Fira Mono" font-size="52.0" fill="#FFFFFF" transform="matrix(1.00, 0.00, -0.00, -1.00, 1104.2, 687.0)">}</text><text xml:space="preserve" font-family="FiraMono-Regular,Fira Mono" font-size="52.0" fill="#FFFFFF" transform="matrix(1.00, 0.00, -0.00, -1.00, 1135.4, 687.0)">)</text><text xml:space="preserve" font-family="FiraMono-Regular,Fira Mono" font-size="52.0" fill="#000000" transform="matrix(1.00, 0.00, -0.00, -1.00, 1166.6, 687.0)"> </text><text xml:space="preserve" font-family="FiraMono-Regular,Fira Mono" font-size="52.0" fill="#C07B1E" transform="matrix(1.00, 0.00, -0.00, -1.00, 137.0, 525.0)">@</text><text xml:space="preserve" font-family="FiraMono-Regular,Fira Mono" font-size="52.0" fill="#C07B1E" transform="matrix(1.00, 0.00, -0.00, -1.00, 168.2, 525.0)">I</text><text xml:space="preserve" font-family="FiraMono-Regular,Fira Mono" font-size="52.0" fill="#C07B1E" transform="matrix(1.00, 0.00, -0.00, -1.00, 199.4, 525.0)">g</text><text xml:space="preserve" font-family="FiraMono-Regular,Fira Mono" font-size="52.0" fill="#C07B1E" transform="matrix(1.00, 0.00, -0.00, -1.00, 230.6, 525.0)">n</text><text xml:space="preserve" font-family="FiraMono-Regular,Fira Mono" font-size="52.0" fill="#C07B1E" transform="matrix(1.00, 0.00, -0.00, -1.00, 261.8, 525.0)">o</text><text xml:space="preserve" font-family="FiraMono-Regular,Fira Mono" font-size="52.0" fill="#C07B1E" transform="matrix(1.00, 0.00, -0.00, -1.00, 293.0, 525.0)">r</text><text xml:space="preserve" font-family="FiraMono-Regular,Fira Mono" font-size="52.0" fill="#C07B1E" transform="matrix(1.00, 0.00, -0.00, -1.00, 324.2, 525.0)">e</text><text xml:space="preserve" font-family="FiraMono-Regular,Fira Mono" font-size="52.0" fill="#C07B1E" transform="matrix(1.00, 0.00, -0.00, -1.00, 355.4, 525.0)">I</text><text xml:space="preserve" font-family="FiraMono-Regular,Fira Mono" font-size="52.0" fill="#C07B1E" transform="matrix(1.00, 0.00, -0.00, -1.00, 386.6, 525.0)">f</text><text xml:space="preserve" font-family="FiraMono-Regular,Fira Mono" font-size="52.0" fill="#FFFFFF" transform="matrix(1.00, 0.00, -0.00, -1.00, 417.8, 525.0)">(</text><text xml:space="preserve" font-family="FiraMono-Regular,Fira Mono" font-size="52.0" fill="#FFFFFF" transform="matrix(1.00, 0.00, -0.00, -1.00, 449.0, 525.0)">{</text><text xml:space="preserve" font-family="FiraMono-Regular,Fira Mono" font-size="52.0" fill="#000000" transform="matrix(1.00, 0.00, -0.00, -1.00, 480.2, 525.0)"> </text><text xml:space="preserve" font-family="FiraMono-Regular,Fira Mono" font-size="52.0" fill="#FFFFFF" transform="matrix(1.00, 0.00, -0.00, -1.00, 511.4, 525.0)">e</text><text xml:space="preserve" font-family="FiraMono-Regular,Fira Mono" font-size="52.0" fill="#FFFFFF" transform="matrix(1.00, 0.00, -0.00, -1.00, 542.6, 525.0)">n</text><text xml:space="preserve" font-family="FiraMono-Regular,Fira Mono" font-size="52.0" fill="#FFFFFF" transform="matrix(1.00, 0.00, -0.00, -1.00, 573.8, 525.0)">v</text><text xml:space="preserve" font-family="FiraMono-Regular,Fira Mono" font-size="52.0" fill="#FFFFFF" transform="matrix(1.00, 0.00, -0.00, -1.00, 605.0, 525.0)">.</text><text xml:space="preserve" font-family="FiraMono-Regular,Fira Mono" font-size="52.0" fill="#FFFFFF" transform="matrix(1.00, 0.00, -0.00, -1.00, 636.2, 525.0)">S</text><text xml:space="preserve" font-family="FiraMono-Regular,Fira Mono" font-size="52.0" fill="#FFFFFF" transform="matrix(1.00, 0.00, -0.00, -1.00, 667.4, 525.0)">K</text><text xml:space="preserve" font-family="FiraMono-Regular,Fira Mono" font-size="52.0" fill="#FFFFFF" transform="matrix(1.00, 0.00, -0.00, -1.00, 698.6, 525.0)">I</text><text xml:space="preserve" font-family="FiraMono-Regular,Fira Mono" font-size="52.0" fill="#FFFFFF" transform="matrix(1.00, 0.00, -0.00, -1.00, 729.8, 525.0)">P</text><text xml:space="preserve" font-family="FiraMono-Regular,Fira Mono" font-size="52.0" fill="#FFFFFF" transform="matrix(1.00, 0.00, -0.00, -1.00, 761.0, 525.0)">_</text><text xml:space="preserve" font-family="FiraMono-Regular,Fira Mono" font-size="52.0" fill="#FFFFFF" transform="matrix(1.00, 0.00, -0.00, -1.00, 792.2, 525.0)">I</text><text xml:space="preserve" font-family="FiraMono-Regular,Fira Mono" font-size="52.0" fill="#FFFFFF" transform="matrix(1.00, 0.00, -0.00, -1.00, 823.4, 525.0)">N</text><text xml:space="preserve" font-family="FiraMono-Regular,Fira Mono" font-size="52.0" fill="#FFFFFF" transform="matrix(1.00, 0.00, -0.00, -1.00, 854.6, 525.0)">T</text><text xml:space="preserve" font-family="FiraMono-Regular,Fira Mono" font-size="52.0" fill="#FFFFFF" transform="matrix(1.00, 0.00, -0.00, -1.00, 885.8, 525.0)">E</text><text xml:space="preserve" font-family="FiraMono-Regular,Fira Mono" font-size="52.0" fill="#FFFFFF" transform="matrix(1.00, 0.00, -0.00, -1.00, 917.0, 525.0)">G</text><text xml:space="preserve" font-family="FiraMono-Regular,Fira Mono" font-size="52.0" fill="#FFFFFF" transform="matrix(1.00, 0.00, -0.00, -1.00, 948.2, 525.0)">R</text><text xml:space="preserve" font-family="FiraMono-Regular,Fira Mono" font-size="52.0" fill="#FFFFFF" transform="matrix(1.00, 0.00, -0.00, -1.00, 979.4, 525.0)">A</text><text xml:space="preserve" font-family="FiraMono-Regular,Fira Mono" font-size="52.0" fill="#FFFFFF" transform="matrix(1.00, 0.00, -0.00, -1.00, 1010.6, 525.0)">T</text><text xml:space="preserve" font-family="FiraMono-Regular,Fira Mono" font-size="52.0" fill="#FFFFFF" transform="matrix(1.00, 0.00, -0.00, -1.00, 1041.8, 525.0)">I</text><text xml:space="preserve" font-family="FiraMono-Regular,Fira Mono" font-size="52.0" fill="#FFFFFF" transform="matrix(1.00, 0.00, -0.00, -1.00, 1073.0, 525.0)">O</text><text xml:space="preserve" font-family="FiraMono-Regular,Fira Mono" font-size="52.0" fill="#FFFFFF" transform="matrix(1.00, 0.00, -0.00, -1.00, 1104.2, 525.0)">N</text><text xml:space="preserve" font-family="FiraMono-Regular,Fira Mono" font-size="52.0" fill="#FFFFFF" transform="matrix(1.00, 0.00, -0.00, -1.00, 1135.4, 525.0)">_</text><text xml:space="preserve" font-family="FiraMono-Regular,Fira Mono" font-size="52.0" fill="#FFFFFF" transform="matrix(1.00, 0.00, -0.00, -1.00, 1166.6, 525.0)">T</text><text xml:space="preserve" font-family="FiraMono-Regular,Fira Mono" font-size="52.0" fill="#FFFFFF" transform="matrix(1.00, 0.00, -0.00, -1.00, 1197.8, 525.0)">E</text><text xml:space="preserve" font-family="FiraMono-Regular,Fira Mono" font-size="52.0" fill="#FFFFFF" transform="matrix(1.00, 0.00, -0.00, -1.00, 1229.0, 525.0)">S</text><text xml:space="preserve" font-family="FiraMono-Regular,Fira Mono" font-size="52.0" fill="#FFFFFF" transform="matrix(1.00, 0.00, -0.00, -1.00, 1260.2, 525.0)">T</text><text xml:space="preserve" font-family="FiraMono-Regular,Fira Mono" font-size="52.0" fill="#FFFFFF" transform="matrix(1.00, 0.00, -0.00, -1.00, 1291.4, 525.0)">S</text><text xml:space="preserve" font-family="FiraMono-Regular,Fira Mono" font-size="52.0" fill="#000000" transform="matrix(1.00, 0.00, -0.00, -1.00, 1322.6, 525.0)"> </text><text xml:space="preserve" font-family="FiraMono-Regular,Fira Mono" font-size="52.0" fill="#FFFFFF" transform="matrix(1.00, 0.00, -0.00, -1.00, 1353.8, 525.0)">=</text><text xml:space="preserve" font-family="FiraMono-Regular,Fira Mono" font-size="52.0" fill="#FFFFFF" transform="matrix(1.00, 0.00, -0.00, -1.00, 1385.0, 525.0)">=</text><text xml:space="preserve" font-family="FiraMono-Regular,Fira Mono" font-size="52.0" fill="#000000" transform="matrix(1.00, 0.00, -0.00, -1.00, 1416.2, 525.0)"> </text><text xml:space="preserve" font-family="FiraMono-Regular,Fira Mono" font-size="52.0" fill="#FF2600" transform="matrix(1.00, 0.00, -0.00, -1.00, 1447.4, 525.0)">"</text><text xml:space="preserve" font-family="FiraMono-Regular,Fira Mono" font-size="52.0" fill="#FF2600" transform="matrix(1.00, 0.00, -0.00, -1.00, 1478.6, 525.0)">y</text><text xml:space="preserve" font-family="FiraMono-Regular,Fira Mono" font-size="52.0" fill="#FF2600" transform="matrix(1.00, 0.00, -0.00, -1.00, 1509.8, 525.0)">e</text><text xml:space="preserve" font-family="FiraMono-Regular,Fira Mono" font-size="52.0" fill="#FF2600" transform="matrix(1.00, 0.00, -0.00, -1.00, 1541.0, 525.0)">s</text><text xml:space="preserve" font-family="FiraMono-Regular,Fira Mono" font-size="52.0" fill="#FF2600" transform="matrix(1.00, 0.00, -0.00, -1.00, 1572.2, 525.0)">"</text><text xml:space="preserve" font-family="FiraMono-Regular,Fira Mono" font-size="52.0" fill="#000000" transform="matrix(1.00, 0.00, -0.00, -1.00, 1603.4, 525.0)"> </text><text xml:space="preserve" font-family="FiraMono-Regular,Fira Mono" font-size="52.0" fill="#FFFFFF" transform="matrix(1.00, 0.00, -0.00, -1.00, 1634.6, 525.0)">}</text><text xml:space="preserve" font-family="FiraMono-Regular,Fira Mono" font-size="52.0" fill="#FFFFFF" transform="matrix(1.00, 0.00, -0.00, -1.00, 1665.8, 525.0)">)</text><text xml:space="preserve" font-family="FiraMono-Regular,Fira Mono" font-size="52.0" fill="#000000" transform="matrix(1.00, 0.00, -0.00, -1.00, 1697.0, 525.0)"> </text><text xml:space="preserve" font-family="FiraMono-Regular,Fira Mono" font-size="52.0" fill="#C07B1E" transform="matrix(1.00, 0.00, -0.00, -1.00, 137.0, 363.0)">@</text><text xml:space="preserve" font-family="FiraMono-Regular,Fira Mono" font-size="52.0" fill="#C07B1E" transform="matrix(1.00, 0.00, -0.00, -1.00, 168.2, 363.0)">I</text><text xml:space="preserve" font-family="FiraMono-Regular,Fira Mono" font-size="52.0" fill="#C07B1E" transform="matrix(1.00, 0.00, -0.00, -1.00, 199.4, 363.0)">g</text><text xml:space="preserve" font-family="FiraMono-Regular,Fira Mono" font-size="52.0" fill="#C07B1E" transform="matrix(1.00, 0.00, -0.00, -1.00, 230.6, 363.0)">n</text><text xml:space="preserve" font-family="FiraMono-Regular,Fira Mono" font-size="52.0" fill="#C07B1E" transform="matrix(1.00, 0.00, -0.00, -1.00, 261.8, 363.0)">o</text><text xml:space="preserve" font-family="FiraMono-Regular,Fira Mono" font-size="52.0" fill="#C07B1E" transform="matrix(1.00, 0.00, -0.00, -1.00, 293.0, 363.0)">r</text><text xml:space="preserve" font-family="FiraMono-Regular,Fira Mono" font-size="52.0" fill="#C07B1E" transform="matrix(1.00, 0.00, -0.00, -1.00, 324.2, 363.0)">e</text><text xml:space="preserve" font-family="FiraMono-Regular,Fira Mono" font-size="52.0" fill="#C07B1E" transform="matrix(1.00, 0.00, -0.00, -1.00, 355.4, 363.0)">I</text><text xml:space="preserve" font-family="FiraMono-Regular,Fira Mono" font-size="52.0" fill="#C07B1E" transform="matrix(1.00, 0.00, -0.00, -1.00, 386.6, 363.0)">f</text><text xml:space="preserve" font-family="FiraMono-Regular,Fira Mono" font-size="52.0" fill="#FFFFFF" transform="matrix(1.00, 0.00, -0.00, -1.00, 417.8, 363.0)">(</text><text xml:space="preserve" font-family="FiraMono-Regular,Fira Mono" font-size="52.0" fill="#FFFFFF" transform="matrix(1.00, 0.00, -0.00, -1.00, 449.0, 363.0)">{</text><text xml:space="preserve" font-family="FiraMono-Regular,Fira Mono" font-size="52.0" fill="#000000" transform="matrix(1.00, 0.00, -0.00, -1.00, 480.2, 363.0)"> </text><text xml:space="preserve" font-family="FiraMono-Regular,Fira Mono" font-size="52.0" fill="#FFFFFF" transform="matrix(1.00, 0.00, -0.00, -1.00, 511.4, 363.0)">p</text><text xml:space="preserve" font-family="FiraMono-Regular,Fira Mono" font-size="52.0" fill="#FFFFFF" transform="matrix(1.00, 0.00, -0.00, -1.00, 542.6, 363.0)">r</text><text xml:space="preserve" font-family="FiraMono-Regular,Fira Mono" font-size="52.0" fill="#FFFFFF" transform="matrix(1.00, 0.00, -0.00, -1.00, 573.8, 363.0)">o</text><text xml:space="preserve" font-family="FiraMono-Regular,Fira Mono" font-size="52.0" fill="#FFFFFF" transform="matrix(1.00, 0.00, -0.00, -1.00, 605.0, 363.0)">p</text><text xml:space="preserve" font-family="FiraMono-Regular,Fira Mono" font-size="52.0" fill="#FFFFFF" transform="matrix(1.00, 0.00, -0.00, -1.00, 636.2, 363.0)">e</text><text xml:space="preserve" font-family="FiraMono-Regular,Fira Mono" font-size="52.0" fill="#FFFFFF" transform="matrix(1.00, 0.00, -0.00, -1.00, 667.4, 363.0)">r</text><text xml:space="preserve" font-family="FiraMono-Regular,Fira Mono" font-size="52.0" fill="#FFFFFF" transform="matrix(1.00, 0.00, -0.00, -1.00, 698.6, 363.0)">t</text><text xml:space="preserve" font-family="FiraMono-Regular,Fira Mono" font-size="52.0" fill="#FFFFFF" transform="matrix(1.00, 0.00, -0.00, -1.00, 729.8, 363.0)">i</text><text xml:space="preserve" font-family="FiraMono-Regular,Fira Mono" font-size="52.0" fill="#FFFFFF" transform="matrix(1.00, 0.00, -0.00, -1.00, 761.0, 363.0)">e</text><text xml:space="preserve" font-family="FiraMono-Regular,Fira Mono" font-size="52.0" fill="#FFFFFF" transform="matrix(1.00, 0.00, -0.00, -1.00, 792.2, 363.0)">s</text><text xml:space="preserve" font-family="FiraMono-Regular,Fira Mono" font-size="52.0" fill="#FFFFFF" transform="matrix(1.00, 0.00, -0.00, -1.00, 823.4, 363.0)">.</text><text xml:space="preserve" font-family="FiraMono-Regular,Fira Mono" font-size="52.0" fill="#FF2600" transform="matrix(1.00, 0.00, -0.00, -1.00, 854.6, 363.0)">"</text><text xml:space="preserve" font-family="FiraMono-Regular,Fira Mono" font-size="52.0" fill="#FF2600" transform="matrix(1.00, 0.00, -0.00, -1.00, 885.8, 363.0)">o</text><text xml:space="preserve" font-family="FiraMono-Regular,Fira Mono" font-size="52.0" fill="#FF2600" transform="matrix(1.00, 0.00, -0.00, -1.00, 917.0, 363.0)">s</text><text xml:space="preserve" font-family="FiraMono-Regular,Fira Mono" font-size="52.0" fill="#FF2600" transform="matrix(1.00, 0.00, -0.00, -1.00, 948.2, 363.0)">.</text><text xml:space="preserve" font-family="FiraMono-Regular,Fira Mono" font-size="52.0" fill="#FF2600" transform="matrix(1.00, 0.00, -0.00, -1.00, 979.4, 363.0)">n</text><text xml:space="preserve" font-family="FiraMono-Regular,Fira Mono" font-size="52.0" fill="#FF2600" transform="matrix(1.00, 0.00, -0.00, -1.00, 1010.6, 363.0)">a</text><text xml:space="preserve" font-family="FiraMono-Regular,Fira Mono" font-size="52.0" fill="#FF2600" transform="matrix(1.00, 0.00, -0.00, -1.00, 1041.8, 363.0)">m</text><text xml:space="preserve" font-family="FiraMono-Regular,Fira Mono" font-size="52.0" fill="#FF2600" transform="matrix(1.00, 0.00, -0.00, -1.00, 1073.0, 363.0)">e</text><text xml:space="preserve" font-family="FiraMono-Regular,Fira Mono" font-size="52.0" fill="#FF2600" transform="matrix(1.00, 0.00, -0.00, -1.00, 1104.2, 363.0)">"</text><text xml:space="preserve" font-family="FiraMono-Regular,Fira Mono" font-size="52.0" fill="#000000" transform="matrix(1.00, 0.00, -0.00, -1.00, 1135.4, 363.0)"> </text><text xml:space="preserve" font-family="FiraMono-Regular,Fira Mono" font-size="52.0" fill="#FFFFFF" transform="matrix(1.00, 0.00, -0.00, -1.00, 1166.6, 363.0)">=</text><text xml:space="preserve" font-family="FiraMono-Regular,Fira Mono" font-size="52.0" fill="#FFFFFF" transform="matrix(1.00, 0.00, -0.00, -1.00, 1197.8, 363.0)">=</text><text xml:space="preserve" font-family="FiraMono-Regular,Fira Mono" font-size="52.0" fill="#FFFFFF" transform="matrix(1.00, 0.00, -0.00, -1.00, 1229.0, 363.0)">~</text><text xml:space="preserve" font-family="FiraMono-Regular,Fira Mono" font-size="52.0" fill="#000000" transform="matrix(1.00, 0.00, -0.00, -1.00, 1260.2, 363.0)"> </text><text xml:space="preserve" font-family="FiraMono-Regular,Fira Mono" font-size="52.0" fill="#FFFFFF" transform="matrix(1.00, 0.00, -0.00, -1.00, 1291.4, 363.0)">/</text><text xml:space="preserve" font-family="FiraMono-Regular,Fira Mono" font-size="52.0" fill="#FFFFFF" transform="matrix(1.00, 0.00, -0.00, -1.00, 1322.6, 363.0)">W</text><text xml:space="preserve" font-family="FiraMono-Regular,Fira Mono" font-size="52.0" fill="#FFFFFF" transform="matrix(1.00, 0.00, -0.00, -1.00, 1353.8, 363.0)">i</text><text xml:space="preserve" font-family="FiraMono-Regular,Fira Mono" font-size="52.0" fill="#FFFFFF" transform="matrix(1.00, 0.00, -0.00, -1.00, 1385.0, 363.0)">n</text><text xml:space="preserve" font-family="FiraMono-Regular,Fira Mono" font-size="52.0" fill="#FFFFFF" transform="matrix(1.00, 0.00, -0.00, -1.00, 1416.2, 363.0)">d</text><text xml:space="preserve" font-family="FiraMono-Regular,Fira Mono" font-size="52.0" fill="#FFFFFF" transform="matrix(1.00, 0.00, -0.00, -1.00, 1447.4, 363.0)">o</text><text xml:space="preserve" font-family="FiraMono-Regular,Fira Mono" font-size="52.0" fill="#FFFFFF" transform="matrix(1.00, 0.00, -0.00, -1.00, 1478.6, 363.0)">w</text><text xml:space="preserve" font-family="FiraMono-Regular,Fira Mono" font-size="52.0" fill="#FFFFFF" transform="matrix(1.00, 0.00, -0.00, -1.00, 1509.8, 363.0)">s</text><text xml:space="preserve" font-family="FiraMono-Regular,Fira Mono" font-size="52.0" fill="#FFFFFF" transform="matrix(1.00, 0.00, -0.00, -1.00, 1541.0, 363.0)">.</text><text xml:space="preserve" font-family="FiraMono-Regular,Fira Mono" font-size="52.0" fill="#FFFFFF" transform="matrix(1.00, 0.00, -0.00, -1.00, 1572.2, 363.0)">*</text><text xml:space="preserve" font-family="FiraMono-Regular,Fira Mono" font-size="52.0" fill="#FFFFFF" transform="matrix(1.00, 0.00, -0.00, -1.00, 1603.4, 363.0)">/</text><text xml:space="preserve" font-family="FiraMono-Regular,Fira Mono" font-size="52.0" fill="#FFFFFF" transform="matrix(1.00, 0.00, -0.00, -1.00, 1634.6, 363.0)">)</text><text xml:space="preserve" font-family="FiraMono-Regular,Fira Mono" font-size="52.0" fill="#FFFFFF" transform="matrix(1.00, 0.00, -0.00, -1.00, 1665.8, 363.0)"> </text><text xml:space="preserve" font-family="FiraMono-Regular,Fira Mono" font-size="52.0" fill="#FFFFFF" transform="matrix(1.00, 0.00, -0.00, -1.00, 1697.0, 363.0)">}</text><text xml:space="preserve" font-family="FiraMono-Regular,Fira Mono" font-size="52.0" fill="#FFFFFF" transform="matrix(1.00, 0.00, -0.00, -1.00, 1728.2, 363.0)">)</text></g></svg>