<?xml version="1.0" encoding="UTF-8" standalone="no"?><svg xmlns="http://www.w3.org/2000/svg" xmlns:xlink="http://www.w3.org/1999/xlink" clip-rule="evenodd" stroke-miterlimit="10" viewBox="0 0 1920 1080"><desc>SVG generated by Keynote</desc><defs></defs><g transform="matrix(1.00, 0.00, -0.00, -1.00, 0.0, 1080.0)"><g><clipPath id="clip0x7f8411c4e090"><path d="M 0.0 1080.0 L 1920.0 1080.0 L 1920.0 0.0 L 0.0 0.0 Z M 0.0 1080.0 "></path></clipPath><g clip-path="url(#clip0x7f8411c4e090)"><image xlink:href="../../BF7430C7-5211-4E68-B118-AC68FDB76F0F/assets/A81AF0278930B93F47F55E5BB6D3A023.png" width="1920.00" height="1080.00" transform="matrix(1.00, 0.00, -0.00, -1.00, 0.0, 1080.0)"></image></g></g><text xml:space="preserve" font-family="FiraMono-Regular,Fira Mono" font-size="38.0" fill="#C07B1E" transform="matrix(1.00, 0.00, -0.00, -1.00, 137.0, 794.0)">@</text><text xml:space="preserve" font-family="FiraMono-Regular,Fira Mono" font-size="38.0" fill="#C07B1E" transform="matrix(1.00, 0.00, -0.00, -1.00, 159.8, 794.0)">S</text><text xml:space="preserve" font-family="FiraMono-Regular,Fira Mono" font-size="38.0" fill="#C07B1E" transform="matrix(1.00, 0.00, -0.00, -1.00, 182.6, 794.0)">h</text><text xml:space="preserve" font-family="FiraMono-Regular,Fira Mono" font-size="38.0" fill="#C07B1E" transform="matrix(1.00, 0.00, -0.00, -1.00, 205.4, 794.0)">a</text><text xml:space="preserve" font-family="FiraMono-Regular,Fira Mono" font-size="38.0" fill="#C07B1E" transform="matrix(1.00, 0.00, -0.00, -1.00, 228.2, 794.0)">r</text><text xml:space="preserve" font-family="FiraMono-Regular,Fira Mono" font-size="38.0" fill="#C07B1E" transform="matrix(1.00, 0.00, -0.00, -1.00, 251.0, 794.0)">e</text><text xml:space="preserve" font-family="FiraMono-Regular,Fira Mono" font-size="38.0" fill="#C07B1E" transform="matrix(1.00, 0.00, -0.00, -1.00, 273.8, 794.0)">d</text><text xml:space="preserve" font-family="FiraMono-Regular,Fira Mono" font-size="38.0" fill="#000000" transform="matrix(1.00, 0.00, -0.00, -1.00, 296.6, 794.0)"> </text><text xml:space="preserve" font-family="FiraMono-Regular,Fira Mono" font-size="38.0" fill="#FFFFFF" transform="matrix(1.00, 0.00, -0.00, -1.00, 319.4, 794.0)">e</text><text xml:space="preserve" font-family="FiraMono-Regular,Fira Mono" font-size="38.0" fill="#FFFFFF" transform="matrix(1.00, 0.00, -0.00, -1.00, 342.2, 794.0)">n</text><text xml:space="preserve" font-family="FiraMono-Regular,Fira Mono" font-size="38.0" fill="#FFFFFF" transform="matrix(1.00, 0.00, -0.00, -1.00, 365.0, 794.0)">g</text><text xml:space="preserve" font-family="FiraMono-Regular,Fira Mono" font-size="38.0" fill="#FFFFFF" transform="matrix(1.00, 0.00, -0.00, -1.00, 387.8, 794.0)">i</text><text xml:space="preserve" font-family="FiraMono-Regular,Fira Mono" font-size="38.0" fill="#FFFFFF" transform="matrix(1.00, 0.00, -0.00, -1.00, 410.6, 794.0)">n</text><text xml:space="preserve" font-family="FiraMono-Regular,Fira Mono" font-size="38.0" fill="#FFFFFF" transform="matrix(1.00, 0.00, -0.00, -1.00, 433.4, 794.0)">e</text><text xml:space="preserve" font-family="FiraMono-Regular,Fira Mono" font-size="38.0" fill="#000000" transform="matrix(1.00, 0.00, -0.00, -1.00, 456.2, 794.0)"> </text><text xml:space="preserve" font-family="FiraMono-Regular,Fira Mono" font-size="38.0" fill="#FFFFFF" transform="matrix(1.00, 0.00, -0.00, -1.00, 479.0, 794.0)">=</text><text xml:space="preserve" font-family="FiraMono-Regular,Fira Mono" font-size="38.0" fill="#000000" transform="matrix(1.00, 0.00, -0.00, -1.00, 501.8, 794.0)"> </text><text xml:space="preserve" font-family="FiraMono-Regular,Fira Mono" font-size="38.0" fill="#C07B1E" transform="matrix(1.00, 0.00, -0.00, -1.00, 524.6, 794.0)">n</text><text xml:space="preserve" font-family="FiraMono-Regular,Fira Mono" font-size="38.0" fill="#C07B1E" transform="matrix(1.00, 0.00, -0.00, -1.00, 547.4, 794.0)">e</text><text xml:space="preserve" font-family="FiraMono-Regular,Fira Mono" font-size="38.0" fill="#C07B1E" transform="matrix(1.00, 0.00, -0.00, -1.00, 570.2, 794.0)">w</text><text xml:space="preserve" font-family="FiraMono-Regular,Fira Mono" font-size="38.0" fill="#000000" transform="matrix(1.00, 0.00, -0.00, -1.00, 593.0, 794.0)"> </text><text xml:space="preserve" font-family="FiraMono-Regular,Fira Mono" font-size="38.0" fill="#FFFFFF" transform="matrix(1.00, 0.00, -0.00, -1.00, 615.8, 794.0)">S</text><text xml:space="preserve" font-family="FiraMono-Regular,Fira Mono" font-size="38.0" fill="#FFFFFF" transform="matrix(1.00, 0.00, -0.00, -1.00, 638.6, 794.0)">c</text><text xml:space="preserve" font-family="FiraMono-Regular,Fira Mono" font-size="38.0" fill="#FFFFFF" transform="matrix(1.00, 0.00, -0.00, -1.00, 661.4, 794.0)">r</text><text xml:space="preserve" font-family="FiraMono-Regular,Fira Mono" font-size="38.0" fill="#FFFFFF" transform="matrix(1.00, 0.00, -0.00, -1.00, 684.2, 794.0)">i</text><text xml:space="preserve" font-family="FiraMono-Regular,Fira Mono" font-size="38.0" fill="#FFFFFF" transform="matrix(1.00, 0.00, -0.00, -1.00, 707.0, 794.0)">p</text><text xml:space="preserve" font-family="FiraMono-Regular,Fira Mono" font-size="38.0" fill="#FFFFFF" transform="matrix(1.00, 0.00, -0.00, -1.00, 729.8, 794.0)">t</text><text xml:space="preserve" font-family="FiraMono-Regular,Fira Mono" font-size="38.0" fill="#FFFFFF" transform="matrix(1.00, 0.00, -0.00, -1.00, 752.6, 794.0)">E</text><text xml:space="preserve" font-family="FiraMono-Regular,Fira Mono" font-size="38.0" fill="#FFFFFF" transform="matrix(1.00, 0.00, -0.00, -1.00, 775.4, 794.0)">n</text><text xml:space="preserve" font-family="FiraMono-Regular,Fira Mono" font-size="38.0" fill="#FFFFFF" transform="matrix(1.00, 0.00, -0.00, -1.00, 798.2, 794.0)">g</text><text xml:space="preserve" font-family="FiraMono-Regular,Fira Mono" font-size="38.0" fill="#FFFFFF" transform="matrix(1.00, 0.00, -0.00, -1.00, 821.0, 794.0)">i</text><text xml:space="preserve" font-family="FiraMono-Regular,Fira Mono" font-size="38.0" fill="#FFFFFF" transform="matrix(1.00, 0.00, -0.00, -1.00, 843.8, 794.0)">n</text><text xml:space="preserve" font-family="FiraMono-Regular,Fira Mono" font-size="38.0" fill="#FFFFFF" transform="matrix(1.00, 0.00, -0.00, -1.00, 866.6, 794.0)">e</text><text xml:space="preserve" font-family="FiraMono-Regular,Fira Mono" font-size="38.0" fill="#FFFFFF" transform="matrix(1.00, 0.00, -0.00, -1.00, 889.4, 794.0)">M</text><text xml:space="preserve" font-family="FiraMono-Regular,Fira Mono" font-size="38.0" fill="#FFFFFF" transform="matrix(1.00, 0.00, -0.00, -1.00, 912.2, 794.0)">a</text><text xml:space="preserve" font-family="FiraMono-Regular,Fira Mono" font-size="38.0" fill="#FFFFFF" transform="matrix(1.00, 0.00, -0.00, -1.00, 935.0, 794.0)">n</text><text xml:space="preserve" font-family="FiraMono-Regular,Fira Mono" font-size="38.0" fill="#FFFFFF" transform="matrix(1.00, 0.00, -0.00, -1.00, 957.8, 794.0)">a</text><text xml:space="preserve" font-family="FiraMono-Regular,Fira Mono" font-size="38.0" fill="#FFFFFF" transform="matrix(1.00, 0.00, -0.00, -1.00, 980.6, 794.0)">g</text><text xml:space="preserve" font-family="FiraMono-Regular,Fira Mono" font-size="38.0" fill="#FFFFFF" transform="matrix(1.00, 0.00, -0.00, -1.00, 1003.4, 794.0)">e</text><text xml:space="preserve" font-family="FiraMono-Regular,Fira Mono" font-size="38.0" fill="#FFFFFF" transform="matrix(1.00, 0.00, -0.00, -1.00, 1026.2, 794.0)">r</text><text xml:space="preserve" font-family="FiraMono-Regular,Fira Mono" font-size="38.0" fill="#FFFFFF" transform="matrix(1.00, 0.00, -0.00, -1.00, 1049.0, 794.0)">(</text><text xml:space="preserve" font-family="FiraMono-Regular,Fira Mono" font-size="38.0" fill="#FFFFFF" transform="matrix(1.00, 0.00, -0.00, -1.00, 1071.8, 794.0)">)</text><text xml:space="preserve" font-family="FiraMono-Regular,Fira Mono" font-size="38.0" fill="#FFFFFF" transform="matrix(1.00, 0.00, -0.00, -1.00, 1094.6, 794.0)">.</text><text xml:space="preserve" font-family="FiraMono-Regular,Fira Mono" font-size="38.0" fill="#FFFFFF" transform="matrix(1.00, 0.00, -0.00, -1.00, 1117.4, 794.0)">g</text><text xml:space="preserve" font-family="FiraMono-Regular,Fira Mono" font-size="38.0" fill="#FFFFFF" transform="matrix(1.00, 0.00, -0.00, -1.00, 1140.2, 794.0)">e</text><text xml:space="preserve" font-family="FiraMono-Regular,Fira Mono" font-size="38.0" fill="#FFFFFF" transform="matrix(1.00, 0.00, -0.00, -1.00, 1163.0, 794.0)">t</text><text xml:space="preserve" font-family="FiraMono-Regular,Fira Mono" font-size="38.0" fill="#FFFFFF" transform="matrix(1.00, 0.00, -0.00, -1.00, 1185.8, 794.0)">E</text><text xml:space="preserve" font-family="FiraMono-Regular,Fira Mono" font-size="38.0" fill="#FFFFFF" transform="matrix(1.00, 0.00, -0.00, -1.00, 1208.6, 794.0)">n</text><text xml:space="preserve" font-family="FiraMono-Regular,Fira Mono" font-size="38.0" fill="#FFFFFF" transform="matrix(1.00, 0.00, -0.00, -1.00, 1231.4, 794.0)">g</text><text xml:space="preserve" font-family="FiraMono-Regular,Fira Mono" font-size="38.0" fill="#FFFFFF" transform="matrix(1.00, 0.00, -0.00, -1.00, 1254.2, 794.0)">i</text><text xml:space="preserve" font-family="FiraMono-Regular,Fira Mono" font-size="38.0" fill="#FFFFFF" transform="matrix(1.00, 0.00, -0.00, -1.00, 1277.0, 794.0)">n</text><text xml:space="preserve" font-family="FiraMono-Regular,Fira Mono" font-size="38.0" fill="#FFFFFF" transform="matrix(1.00, 0.00, -0.00, -1.00, 1299.8, 794.0)">e</text><text xml:space="preserve" font-family="FiraMono-Regular,Fira Mono" font-size="38.0" fill="#FFFFFF" transform="matrix(1.00, 0.00, -0.00, -1.00, 1322.6, 794.0)">B</text><text xml:space="preserve" font-family="FiraMono-Regular,Fira Mono" font-size="38.0" fill="#FFFFFF" transform="matrix(1.00, 0.00, -0.00, -1.00, 1345.4, 794.0)">y</text><text xml:space="preserve" font-family="FiraMono-Regular,Fira Mono" font-size="38.0" fill="#FFFFFF" transform="matrix(1.00, 0.00, -0.00, -1.00, 1368.2, 794.0)">N</text><text xml:space="preserve" font-family="FiraMono-Regular,Fira Mono" font-size="38.0" fill="#FFFFFF" transform="matrix(1.00, 0.00, -0.00, -1.00, 1391.0, 794.0)">a</text><text xml:space="preserve" font-family="FiraMono-Regular,Fira Mono" font-size="38.0" fill="#FFFFFF" transform="matrix(1.00, 0.00, -0.00, -1.00, 1413.8, 794.0)">m</text><text xml:space="preserve" font-family="FiraMono-Regular,Fira Mono" font-size="38.0" fill="#FFFFFF" transform="matrix(1.00, 0.00, -0.00, -1.00, 1436.6, 794.0)">e</text><text xml:space="preserve" font-family="FiraMono-Regular,Fira Mono" font-size="38.0" fill="#FFFFFF" transform="matrix(1.00, 0.00, -0.00, -1.00, 1459.4, 794.0)">(</text><text xml:space="preserve" font-family="FiraMono-Regular,Fira Mono" font-size="38.0" fill="#FF2600" transform="matrix(1.00, 0.00, -0.00, -1.00, 1482.2, 794.0)">"</text><text xml:space="preserve" font-family="FiraMono-Regular,Fira Mono" font-size="38.0" fill="#FF2600" transform="matrix(1.00, 0.00, -0.00, -1.00, 1505.0, 794.0)">n</text><text xml:space="preserve" font-family="FiraMono-Regular,Fira Mono" font-size="38.0" fill="#FF2600" transform="matrix(1.00, 0.00, -0.00, -1.00, 1527.8, 794.0)">a</text><text xml:space="preserve" font-family="FiraMono-Regular,Fira Mono" font-size="38.0" fill="#FF2600" transform="matrix(1.00, 0.00, -0.00, -1.00, 1550.6, 794.0)">s</text><text xml:space="preserve" font-family="FiraMono-Regular,Fira Mono" font-size="38.0" fill="#FF2600" transform="matrix(1.00, 0.00, -0.00, -1.00, 1573.4, 794.0)">h</text><text xml:space="preserve" font-family="FiraMono-Regular,Fira Mono" font-size="38.0" fill="#FF2600" transform="matrix(1.00, 0.00, -0.00, -1.00, 1596.2, 794.0)">o</text><text xml:space="preserve" font-family="FiraMono-Regular,Fira Mono" font-size="38.0" fill="#FF2600" transform="matrix(1.00, 0.00, -0.00, -1.00, 1619.0, 794.0)">r</text><text xml:space="preserve" font-family="FiraMono-Regular,Fira Mono" font-size="38.0" fill="#FF2600" transform="matrix(1.00, 0.00, -0.00, -1.00, 1641.8, 794.0)">n</text><text xml:space="preserve" font-family="FiraMono-Regular,Fira Mono" font-size="38.0" fill="#FF2600" transform="matrix(1.00, 0.00, -0.00, -1.00, 1664.6, 794.0)">"</text><text xml:space="preserve" font-family="FiraMono-Regular,Fira Mono" font-size="38.0" fill="#FFFFFF" transform="matrix(1.00, 0.00, -0.00, -1.00, 1687.4, 794.0)">)</text><text xml:space="preserve" font-family="FiraMono-Regular,Fira Mono" font-size="38.0" fill="#000000" transform="matrix(1.00, 0.00, -0.00, -1.00, 1710.2, 794.0)"> </text><text xml:space="preserve" font-family="FiraMono-Regular,Fira Mono" font-size="38.0" fill="#C07B1E" transform="matrix(1.00, 0.00, -0.00, -1.00, 137.0, 735.0)">@</text><text xml:space="preserve" font-family="FiraMono-Regular,Fira Mono" font-size="38.0" fill="#C07B1E" transform="matrix(1.00, 0.00, -0.00, -1.00, 159.8, 735.0)">S</text><text xml:space="preserve" font-family="FiraMono-Regular,Fira Mono" font-size="38.0" fill="#C07B1E" transform="matrix(1.00, 0.00, -0.00, -1.00, 182.6, 735.0)">h</text><text xml:space="preserve" font-family="FiraMono-Regular,Fira Mono" font-size="38.0" fill="#C07B1E" transform="matrix(1.00, 0.00, -0.00, -1.00, 205.4, 735.0)">a</text><text xml:space="preserve" font-family="FiraMono-Regular,Fira Mono" font-size="38.0" fill="#C07B1E" transform="matrix(1.00, 0.00, -0.00, -1.00, 228.2, 735.0)">r</text><text xml:space="preserve" font-family="FiraMono-Regular,Fira Mono" font-size="38.0" fill="#C07B1E" transform="matrix(1.00, 0.00, -0.00, -1.00, 251.0, 735.0)">e</text><text xml:space="preserve" font-family="FiraMono-Regular,Fira Mono" font-size="38.0" fill="#C07B1E" transform="matrix(1.00, 0.00, -0.00, -1.00, 273.8, 735.0)">d</text><text xml:space="preserve" font-family="FiraMono-Regular,Fira Mono" font-size="38.0" fill="#C07B1E" transform="matrix(1.00, 0.00, -0.00, -1.00, 296.6, 735.0)"> </text><text xml:space="preserve" font-family="FiraMono-Regular,Fira Mono" font-size="38.0" fill="#C07B1E" transform="matrix(1.00, 0.00, -0.00, -1.00, 319.4, 735.0)">@</text><text xml:space="preserve" font-family="FiraMono-Regular,Fira Mono" font-size="38.0" fill="#C07B1E" transform="matrix(1.00, 0.00, -0.00, -1.00, 342.2, 735.0)">S</text><text xml:space="preserve" font-family="FiraMono-Regular,Fira Mono" font-size="38.0" fill="#C07B1E" transform="matrix(1.00, 0.00, -0.00, -1.00, 365.0, 735.0)">u</text><text xml:space="preserve" font-family="FiraMono-Regular,Fira Mono" font-size="38.0" fill="#C07B1E" transform="matrix(1.00, 0.00, -0.00, -1.00, 387.8, 735.0)">b</text><text xml:space="preserve" font-family="FiraMono-Regular,Fira Mono" font-size="38.0" fill="#C07B1E" transform="matrix(1.00, 0.00, -0.00, -1.00, 410.6, 735.0)">j</text><text xml:space="preserve" font-family="FiraMono-Regular,Fira Mono" font-size="38.0" fill="#C07B1E" transform="matrix(1.00, 0.00, -0.00, -1.00, 433.4, 735.0)">e</text><text xml:space="preserve" font-family="FiraMono-Regular,Fira Mono" font-size="38.0" fill="#C07B1E" transform="matrix(1.00, 0.00, -0.00, -1.00, 456.2, 735.0)">c</text><text xml:space="preserve" font-family="FiraMono-Regular,Fira Mono" font-size="38.0" fill="#C07B1E" transform="matrix(1.00, 0.00, -0.00, -1.00, 479.0, 735.0)">t</text><text xml:space="preserve" font-family="FiraMono-Regular,Fira Mono" font-size="38.0" fill="#000000" transform="matrix(1.00, 0.00, -0.00, -1.00, 501.8, 735.0)"> </text><text xml:space="preserve" font-family="FiraMono-Regular,Fira Mono" font-size="38.0" fill="#FFFFFF" transform="matrix(1.00, 0.00, -0.00, -1.00, 524.6, 735.0)">m</text><text xml:space="preserve" font-family="FiraMono-Regular,Fira Mono" font-size="38.0" fill="#FFFFFF" transform="matrix(1.00, 0.00, -0.00, -1.00, 547.4, 735.0)">o</text><text xml:space="preserve" font-family="FiraMono-Regular,Fira Mono" font-size="38.0" fill="#FFFFFF" transform="matrix(1.00, 0.00, -0.00, -1.00, 570.2, 735.0)">m</text><text xml:space="preserve" font-family="FiraMono-Regular,Fira Mono" font-size="38.0" fill="#FFFFFF" transform="matrix(1.00, 0.00, -0.00, -1.00, 593.0, 735.0)">e</text><text xml:space="preserve" font-family="FiraMono-Regular,Fira Mono" font-size="38.0" fill="#FFFFFF" transform="matrix(1.00, 0.00, -0.00, -1.00, 615.8, 735.0)">n</text><text xml:space="preserve" font-family="FiraMono-Regular,Fira Mono" font-size="38.0" fill="#FFFFFF" transform="matrix(1.00, 0.00, -0.00, -1.00, 638.6, 735.0)">t</text><text xml:space="preserve" font-family="FiraMono-Regular,Fira Mono" font-size="38.0" fill="#000000" transform="matrix(1.00, 0.00, -0.00, -1.00, 661.4, 735.0)"> </text><text xml:space="preserve" font-family="FiraMono-Regular,Fira Mono" font-size="38.0" fill="#C07B1E" transform="matrix(1.00, 0.00, -0.00, -1.00, 137.0, 617.0)">d</text><text xml:space="preserve" font-family="FiraMono-Regular,Fira Mono" font-size="38.0" fill="#C07B1E" transform="matrix(1.00, 0.00, -0.00, -1.00, 159.8, 617.0)">e</text><text xml:space="preserve" font-family="FiraMono-Regular,Fira Mono" font-size="38.0" fill="#C07B1E" transform="matrix(1.00, 0.00, -0.00, -1.00, 182.6, 617.0)">f</text><text xml:space="preserve" font-family="FiraMono-Regular,Fira Mono" font-size="38.0" fill="#000000" transform="matrix(1.00, 0.00, -0.00, -1.00, 205.4, 617.0)"> </text><text xml:space="preserve" font-family="FiraMono-Regular,Fira Mono" font-size="38.0" fill="#FFFFFF" transform="matrix(1.00, 0.00, -0.00, -1.00, 228.2, 617.0)">s</text><text xml:space="preserve" font-family="FiraMono-Regular,Fira Mono" font-size="38.0" fill="#FFFFFF" transform="matrix(1.00, 0.00, -0.00, -1.00, 251.0, 617.0)">e</text><text xml:space="preserve" font-family="FiraMono-Regular,Fira Mono" font-size="38.0" fill="#FFFFFF" transform="matrix(1.00, 0.00, -0.00, -1.00, 273.8, 617.0)">t</text><text xml:space="preserve" font-family="FiraMono-Regular,Fira Mono" font-size="38.0" fill="#FFFFFF" transform="matrix(1.00, 0.00, -0.00, -1.00, 296.6, 617.0)">u</text><text xml:space="preserve" font-family="FiraMono-Regular,Fira Mono" font-size="38.0" fill="#FFFFFF" transform="matrix(1.00, 0.00, -0.00, -1.00, 319.4, 617.0)">p</text><text xml:space="preserve" font-family="FiraMono-Regular,Fira Mono" font-size="38.0" fill="#FFFFFF" transform="matrix(1.00, 0.00, -0.00, -1.00, 342.2, 617.0)">S</text><text xml:space="preserve" font-family="FiraMono-Regular,Fira Mono" font-size="38.0" fill="#FFFFFF" transform="matrix(1.00, 0.00, -0.00, -1.00, 365.0, 617.0)">p</text><text xml:space="preserve" font-family="FiraMono-Regular,Fira Mono" font-size="38.0" fill="#FFFFFF" transform="matrix(1.00, 0.00, -0.00, -1.00, 387.8, 617.0)">e</text><text xml:space="preserve" font-family="FiraMono-Regular,Fira Mono" font-size="38.0" fill="#FFFFFF" transform="matrix(1.00, 0.00, -0.00, -1.00, 410.6, 617.0)">c</text><text xml:space="preserve" font-family="FiraMono-Regular,Fira Mono" font-size="38.0" fill="#FFFFFF" transform="matrix(1.00, 0.00, -0.00, -1.00, 433.4, 617.0)">(</text><text xml:space="preserve" font-family="FiraMono-Regular,Fira Mono" font-size="38.0" fill="#FFFFFF" transform="matrix(1.00, 0.00, -0.00, -1.00, 456.2, 617.0)">)</text><text xml:space="preserve" font-family="FiraMono-Regular,Fira Mono" font-size="38.0" fill="#FFFFFF" transform="matrix(1.00, 0.00, -0.00, -1.00, 479.0, 617.0)"> </text><text xml:space="preserve" font-family="FiraMono-Regular,Fira Mono" font-size="38.0" fill="#FFFFFF" transform="matrix(1.00, 0.00, -0.00, -1.00, 501.8, 617.0)">{</text><text xml:space="preserve" font-family="FiraMono-Regular,Fira Mono" font-size="38.0" fill="#000000" transform="matrix(1.00, 0.00, -0.00, -1.00, 524.6, 617.0)"> </text><text xml:space="preserve" font-family="FiraMono-Regular,Fira Mono" font-size="38.0" fill="#000000" transform="matrix(1.00, 0.00, -0.00, -1.00, 137.0, 558.0)"> </text><text xml:space="preserve" font-family="FiraMono-Regular,Fira Mono" font-size="38.0" fill="#000000" transform="matrix(1.00, 0.00, -0.00, -1.00, 159.8, 558.0)"> </text><text xml:space="preserve" font-family="FiraMono-Regular,Fira Mono" font-size="38.0" fill="#FFFFFF" transform="matrix(1.00, 0.00, -0.00, -1.00, 182.6, 558.0)">g</text><text xml:space="preserve" font-family="FiraMono-Regular,Fira Mono" font-size="38.0" fill="#FFFFFF" transform="matrix(1.00, 0.00, -0.00, -1.00, 205.4, 558.0)">e</text><text xml:space="preserve" font-family="FiraMono-Regular,Fira Mono" font-size="38.0" fill="#FFFFFF" transform="matrix(1.00, 0.00, -0.00, -1.00, 228.2, 558.0)">t</text><text xml:space="preserve" font-family="FiraMono-Regular,Fira Mono" font-size="38.0" fill="#FFFFFF" transform="matrix(1.00, 0.00, -0.00, -1.00, 251.0, 558.0)">C</text><text xml:space="preserve" font-family="FiraMono-Regular,Fira Mono" font-size="38.0" fill="#FFFFFF" transform="matrix(1.00, 0.00, -0.00, -1.00, 273.8, 558.0)">l</text><text xml:space="preserve" font-family="FiraMono-Regular,Fira Mono" font-size="38.0" fill="#FFFFFF" transform="matrix(1.00, 0.00, -0.00, -1.00, 296.6, 558.0)">a</text><text xml:space="preserve" font-family="FiraMono-Regular,Fira Mono" font-size="38.0" fill="#FFFFFF" transform="matrix(1.00, 0.00, -0.00, -1.00, 319.4, 558.0)">s</text><text xml:space="preserve" font-family="FiraMono-Regular,Fira Mono" font-size="38.0" fill="#FFFFFF" transform="matrix(1.00, 0.00, -0.00, -1.00, 342.2, 558.0)">s</text><text xml:space="preserve" font-family="FiraMono-Regular,Fira Mono" font-size="38.0" fill="#FFFFFF" transform="matrix(1.00, 0.00, -0.00, -1.00, 365.0, 558.0)">(</text><text xml:space="preserve" font-family="FiraMono-Regular,Fira Mono" font-size="38.0" fill="#FFFFFF" transform="matrix(1.00, 0.00, -0.00, -1.00, 387.8, 558.0)">)</text><text xml:space="preserve" font-family="FiraMono-Regular,Fira Mono" font-size="38.0" fill="#FFFFFF" transform="matrix(1.00, 0.00, -0.00, -1.00, 410.6, 558.0)">.</text><text xml:space="preserve" font-family="FiraMono-Regular,Fira Mono" font-size="38.0" fill="#FFFFFF" transform="matrix(1.00, 0.00, -0.00, -1.00, 433.4, 558.0)">g</text><text xml:space="preserve" font-family="FiraMono-Regular,Fira Mono" font-size="38.0" fill="#FFFFFF" transform="matrix(1.00, 0.00, -0.00, -1.00, 456.2, 558.0)">e</text><text xml:space="preserve" font-family="FiraMono-Regular,Fira Mono" font-size="38.0" fill="#FFFFFF" transform="matrix(1.00, 0.00, -0.00, -1.00, 479.0, 558.0)">t</text><text xml:space="preserve" font-family="FiraMono-Regular,Fira Mono" font-size="38.0" fill="#FFFFFF" transform="matrix(1.00, 0.00, -0.00, -1.00, 501.8, 558.0)">R</text><text xml:space="preserve" font-family="FiraMono-Regular,Fira Mono" font-size="38.0" fill="#FFFFFF" transform="matrix(1.00, 0.00, -0.00, -1.00, 524.6, 558.0)">e</text><text xml:space="preserve" font-family="FiraMono-Regular,Fira Mono" font-size="38.0" fill="#FFFFFF" transform="matrix(1.00, 0.00, -0.00, -1.00, 547.4, 558.0)">s</text><text xml:space="preserve" font-family="FiraMono-Regular,Fira Mono" font-size="38.0" fill="#FFFFFF" transform="matrix(1.00, 0.00, -0.00, -1.00, 570.2, 558.0)">o</text><text xml:space="preserve" font-family="FiraMono-Regular,Fira Mono" font-size="38.0" fill="#FFFFFF" transform="matrix(1.00, 0.00, -0.00, -1.00, 593.0, 558.0)">u</text><text xml:space="preserve" font-family="FiraMono-Regular,Fira Mono" font-size="38.0" fill="#FFFFFF" transform="matrix(1.00, 0.00, -0.00, -1.00, 615.8, 558.0)">r</text><text xml:space="preserve" font-family="FiraMono-Regular,Fira Mono" font-size="38.0" fill="#FFFFFF" transform="matrix(1.00, 0.00, -0.00, -1.00, 638.6, 558.0)">c</text><text xml:space="preserve" font-family="FiraMono-Regular,Fira Mono" font-size="38.0" fill="#FFFFFF" transform="matrix(1.00, 0.00, -0.00, -1.00, 661.4, 558.0)">e</text><text xml:space="preserve" font-family="FiraMono-Regular,Fira Mono" font-size="38.0" fill="#FFFFFF" transform="matrix(1.00, 0.00, -0.00, -1.00, 684.2, 558.0)">A</text><text xml:space="preserve" font-family="FiraMono-Regular,Fira Mono" font-size="38.0" fill="#FFFFFF" transform="matrix(1.00, 0.00, -0.00, -1.00, 707.0, 558.0)">s</text><text xml:space="preserve" font-family="FiraMono-Regular,Fira Mono" font-size="38.0" fill="#FFFFFF" transform="matrix(1.00, 0.00, -0.00, -1.00, 729.8, 558.0)">S</text><text xml:space="preserve" font-family="FiraMono-Regular,Fira Mono" font-size="38.0" fill="#FFFFFF" transform="matrix(1.00, 0.00, -0.00, -1.00, 752.6, 558.0)">t</text><text xml:space="preserve" font-family="FiraMono-Regular,Fira Mono" font-size="38.0" fill="#FFFFFF" transform="matrix(1.00, 0.00, -0.00, -1.00, 775.4, 558.0)">r</text><text xml:space="preserve" font-family="FiraMono-Regular,Fira Mono" font-size="38.0" fill="#FFFFFF" transform="matrix(1.00, 0.00, -0.00, -1.00, 798.2, 558.0)">e</text><text xml:space="preserve" font-family="FiraMono-Regular,Fira Mono" font-size="38.0" fill="#FFFFFF" transform="matrix(1.00, 0.00, -0.00, -1.00, 821.0, 558.0)">a</text><text xml:space="preserve" font-family="FiraMono-Regular,Fira Mono" font-size="38.0" fill="#FFFFFF" transform="matrix(1.00, 0.00, -0.00, -1.00, 843.8, 558.0)">m</text><text xml:space="preserve" font-family="FiraMono-Regular,Fira Mono" font-size="38.0" fill="#FFFFFF" transform="matrix(1.00, 0.00, -0.00, -1.00, 866.6, 558.0)">(</text><text xml:space="preserve" font-family="FiraMono-Regular,Fira Mono" font-size="38.0" fill="#FF2600" transform="matrix(1.00, 0.00, -0.00, -1.00, 889.4, 558.0)">"</text><text xml:space="preserve" font-family="FiraMono-Regular,Fira Mono" font-size="38.0" fill="#FF2600" transform="matrix(1.00, 0.00, -0.00, -1.00, 912.2, 558.0)">/</text><text xml:space="preserve" font-family="FiraMono-Regular,Fira Mono" font-size="38.0" fill="#FF2600" transform="matrix(1.00, 0.00, -0.00, -1.00, 935.0, 558.0)">m</text><text xml:space="preserve" font-family="FiraMono-Regular,Fira Mono" font-size="38.0" fill="#FF2600" transform="matrix(1.00, 0.00, -0.00, -1.00, 957.8, 558.0)">o</text><text xml:space="preserve" font-family="FiraMono-Regular,Fira Mono" font-size="38.0" fill="#FF2600" transform="matrix(1.00, 0.00, -0.00, -1.00, 980.6, 558.0)">m</text><text xml:space="preserve" font-family="FiraMono-Regular,Fira Mono" font-size="38.0" fill="#FF2600" transform="matrix(1.00, 0.00, -0.00, -1.00, 1003.4, 558.0)">e</text><text xml:space="preserve" font-family="FiraMono-Regular,Fira Mono" font-size="38.0" fill="#FF2600" transform="matrix(1.00, 0.00, -0.00, -1.00, 1026.2, 558.0)">n</text><text xml:space="preserve" font-family="FiraMono-Regular,Fira Mono" font-size="38.0" fill="#FF2600" transform="matrix(1.00, 0.00, -0.00, -1.00, 1049.0, 558.0)">t</text><text xml:space="preserve" font-family="FiraMono-Regular,Fira Mono" font-size="38.0" fill="#FF2600" transform="matrix(1.00, 0.00, -0.00, -1.00, 1071.8, 558.0)">.</text><text xml:space="preserve" font-family="FiraMono-Regular,Fira Mono" font-size="38.0" fill="#FF2600" transform="matrix(1.00, 0.00, -0.00, -1.00, 1094.6, 558.0)">j</text><text xml:space="preserve" font-family="FiraMono-Regular,Fira Mono" font-size="38.0" fill="#FF2600" transform="matrix(1.00, 0.00, -0.00, -1.00, 1117.4, 558.0)">s</text><text xml:space="preserve" font-family="FiraMono-Regular,Fira Mono" font-size="38.0" fill="#FF2600" transform="matrix(1.00, 0.00, -0.00, -1.00, 1140.2, 558.0)">"</text><text xml:space="preserve" font-family="FiraMono-Regular,Fira Mono" font-size="38.0" fill="#FFFFFF" transform="matrix(1.00, 0.00, -0.00, -1.00, 1163.0, 558.0)">)</text><text xml:space="preserve" font-family="FiraMono-Regular,Fira Mono" font-size="38.0" fill="#FFFFFF" transform="matrix(1.00, 0.00, -0.00, -1.00, 1185.8, 558.0)">.</text><text xml:space="preserve" font-family="FiraMono-Regular,Fira Mono" font-size="38.0" fill="#FFFFFF" transform="matrix(1.00, 0.00, -0.00, -1.00, 1208.6, 558.0)">w</text><text xml:space="preserve" font-family="FiraMono-Regular,Fira Mono" font-size="38.0" fill="#FFFFFF" transform="matrix(1.00, 0.00, -0.00, -1.00, 1231.4, 558.0)">i</text><text xml:space="preserve" font-family="FiraMono-Regular,Fira Mono" font-size="38.0" fill="#FFFFFF" transform="matrix(1.00, 0.00, -0.00, -1.00, 1254.2, 558.0)">t</text><text xml:space="preserve" font-family="FiraMono-Regular,Fira Mono" font-size="38.0" fill="#FFFFFF" transform="matrix(1.00, 0.00, -0.00, -1.00, 1277.0, 558.0)">h</text><text xml:space="preserve" font-family="FiraMono-Regular,Fira Mono" font-size="38.0" fill="#FFFFFF" transform="matrix(1.00, 0.00, -0.00, -1.00, 1299.8, 558.0)">R</text><text xml:space="preserve" font-family="FiraMono-Regular,Fira Mono" font-size="38.0" fill="#FFFFFF" transform="matrix(1.00, 0.00, -0.00, -1.00, 1322.6, 558.0)">e</text><text xml:space="preserve" font-family="FiraMono-Regular,Fira Mono" font-size="38.0" fill="#FFFFFF" transform="matrix(1.00, 0.00, -0.00, -1.00, 1345.4, 558.0)">a</text><text xml:space="preserve" font-family="FiraMono-Regular,Fira Mono" font-size="38.0" fill="#FFFFFF" transform="matrix(1.00, 0.00, -0.00, -1.00, 1368.2, 558.0)">d</text><text xml:space="preserve" font-family="FiraMono-Regular,Fira Mono" font-size="38.0" fill="#FFFFFF" transform="matrix(1.00, 0.00, -0.00, -1.00, 1391.0, 558.0)">e</text><text xml:space="preserve" font-family="FiraMono-Regular,Fira Mono" font-size="38.0" fill="#FFFFFF" transform="matrix(1.00, 0.00, -0.00, -1.00, 1413.8, 558.0)">r</text><text xml:space="preserve" font-family="FiraMono-Regular,Fira Mono" font-size="38.0" fill="#000000" transform="matrix(1.00, 0.00, -0.00, -1.00, 1436.6, 558.0)"> </text><text xml:space="preserve" font-family="FiraMono-Regular,Fira Mono" font-size="38.0" fill="#FFFFFF" transform="matrix(1.00, 0.00, -0.00, -1.00, 1459.4, 558.0)">{</text><text xml:space="preserve" font-family="FiraMono-Regular,Fira Mono" font-size="38.0" fill="#000000" transform="matrix(1.00, 0.00, -0.00, -1.00, 1482.2, 558.0)"> </text><text xml:space="preserve" font-family="FiraMono-Regular,Fira Mono" font-size="38.0" fill="#FFFFFF" transform="matrix(1.00, 0.00, -0.00, -1.00, 1505.0, 558.0)">r</text><text xml:space="preserve" font-family="FiraMono-Regular,Fira Mono" font-size="38.0" fill="#FFFFFF" transform="matrix(1.00, 0.00, -0.00, -1.00, 1527.8, 558.0)">e</text><text xml:space="preserve" font-family="FiraMono-Regular,Fira Mono" font-size="38.0" fill="#FFFFFF" transform="matrix(1.00, 0.00, -0.00, -1.00, 1550.6, 558.0)">a</text><text xml:space="preserve" font-family="FiraMono-Regular,Fira Mono" font-size="38.0" fill="#FFFFFF" transform="matrix(1.00, 0.00, -0.00, -1.00, 1573.4, 558.0)">d</text><text xml:space="preserve" font-family="FiraMono-Regular,Fira Mono" font-size="38.0" fill="#FFFFFF" transform="matrix(1.00, 0.00, -0.00, -1.00, 1596.2, 558.0)">e</text><text xml:space="preserve" font-family="FiraMono-Regular,Fira Mono" font-size="38.0" fill="#FFFFFF" transform="matrix(1.00, 0.00, -0.00, -1.00, 1619.0, 558.0)">r</text><text xml:space="preserve" font-family="FiraMono-Regular,Fira Mono" font-size="38.0" fill="#000000" transform="matrix(1.00, 0.00, -0.00, -1.00, 1641.8, 558.0)"> </text><text xml:space="preserve" font-family="FiraMono-Regular,Fira Mono" font-size="38.0" fill="#FFFFFF" transform="matrix(1.00, 0.00, -0.00, -1.00, 1664.6, 558.0)">-</text><text xml:space="preserve" font-family="FiraMono-Regular,Fira Mono" font-size="38.0" fill="#FFFFFF" transform="matrix(1.00, 0.00, -0.00, -1.00, 1687.4, 558.0)">&gt;</text><text xml:space="preserve" font-family="FiraMono-Regular,Fira Mono" font-size="38.0" fill="#000000" transform="matrix(1.00, 0.00, -0.00, -1.00, 1710.2, 558.0)"> </text><text xml:space="preserve" font-family="FiraMono-Regular,Fira Mono" font-size="38.0" fill="#FFFFFF" transform="matrix(1.00, 0.00, -0.00, -1.00, 137.0, 499.0)"> </text><text xml:space="preserve" font-family="FiraMono-Regular,Fira Mono" font-size="38.0" fill="#FFFFFF" transform="matrix(1.00, 0.00, -0.00, -1.00, 159.8, 499.0)"> </text><text xml:space="preserve" font-family="FiraMono-Regular,Fira Mono" font-size="38.0" fill="#FFFFFF" transform="matrix(1.00, 0.00, -0.00, -1.00, 182.6, 499.0)"> </text><text xml:space="preserve" font-family="FiraMono-Regular,Fira Mono" font-size="38.0" fill="#FFFFFF" transform="matrix(1.00, 0.00, -0.00, -1.00, 205.4, 499.0)"> </text><text xml:space="preserve" font-family="FiraMono-Regular,Fira Mono" font-size="38.0" fill="#FFFFFF" transform="matrix(1.00, 0.00, -0.00, -1.00, 228.2, 499.0)">e</text><text xml:space="preserve" font-family="FiraMono-Regular,Fira Mono" font-size="38.0" fill="#FFFFFF" transform="matrix(1.00, 0.00, -0.00, -1.00, 251.0, 499.0)">n</text><text xml:space="preserve" font-family="FiraMono-Regular,Fira Mono" font-size="38.0" fill="#FFFFFF" transform="matrix(1.00, 0.00, -0.00, -1.00, 273.8, 499.0)">g</text><text xml:space="preserve" font-family="FiraMono-Regular,Fira Mono" font-size="38.0" fill="#FFFFFF" transform="matrix(1.00, 0.00, -0.00, -1.00, 296.6, 499.0)">i</text><text xml:space="preserve" font-family="FiraMono-Regular,Fira Mono" font-size="38.0" fill="#FFFFFF" transform="matrix(1.00, 0.00, -0.00, -1.00, 319.4, 499.0)">n</text><text xml:space="preserve" font-family="FiraMono-Regular,Fira Mono" font-size="38.0" fill="#FFFFFF" transform="matrix(1.00, 0.00, -0.00, -1.00, 342.2, 499.0)">e</text><text xml:space="preserve" font-family="FiraMono-Regular,Fira Mono" font-size="38.0" fill="#FFFFFF" transform="matrix(1.00, 0.00, -0.00, -1.00, 365.0, 499.0)">.</text><text xml:space="preserve" font-family="FiraMono-Regular,Fira Mono" font-size="38.0" fill="#FFFFFF" transform="matrix(1.00, 0.00, -0.00, -1.00, 387.8, 499.0)">e</text><text xml:space="preserve" font-family="FiraMono-Regular,Fira Mono" font-size="38.0" fill="#FFFFFF" transform="matrix(1.00, 0.00, -0.00, -1.00, 410.6, 499.0)">v</text><text xml:space="preserve" font-family="FiraMono-Regular,Fira Mono" font-size="38.0" fill="#FFFFFF" transform="matrix(1.00, 0.00, -0.00, -1.00, 433.4, 499.0)">a</text><text xml:space="preserve" font-family="FiraMono-Regular,Fira Mono" font-size="38.0" fill="#FFFFFF" transform="matrix(1.00, 0.00, -0.00, -1.00, 456.2, 499.0)">l</text><text xml:space="preserve" font-family="FiraMono-Regular,Fira Mono" font-size="38.0" fill="#FFFFFF" transform="matrix(1.00, 0.00, -0.00, -1.00, 479.0, 499.0)"> </text><text xml:space="preserve" font-family="FiraMono-Regular,Fira Mono" font-size="38.0" fill="#FFFFFF" transform="matrix(1.00, 0.00, -0.00, -1.00, 501.8, 499.0)">r</text><text xml:space="preserve" font-family="FiraMono-Regular,Fira Mono" font-size="38.0" fill="#FFFFFF" transform="matrix(1.00, 0.00, -0.00, -1.00, 524.6, 499.0)">e</text><text xml:space="preserve" font-family="FiraMono-Regular,Fira Mono" font-size="38.0" fill="#FFFFFF" transform="matrix(1.00, 0.00, -0.00, -1.00, 547.4, 499.0)">a</text><text xml:space="preserve" font-family="FiraMono-Regular,Fira Mono" font-size="38.0" fill="#FFFFFF" transform="matrix(1.00, 0.00, -0.00, -1.00, 570.2, 499.0)">d</text><text xml:space="preserve" font-family="FiraMono-Regular,Fira Mono" font-size="38.0" fill="#FFFFFF" transform="matrix(1.00, 0.00, -0.00, -1.00, 593.0, 499.0)">e</text><text xml:space="preserve" font-family="FiraMono-Regular,Fira Mono" font-size="38.0" fill="#FFFFFF" transform="matrix(1.00, 0.00, -0.00, -1.00, 615.8, 499.0)">r</text><text xml:space="preserve" font-family="FiraMono-Regular,Fira Mono" font-size="38.0" fill="#000000" transform="matrix(1.00, 0.00, -0.00, -1.00, 638.6, 499.0)"> </text><text xml:space="preserve" font-family="FiraMono-Regular,Fira Mono" font-size="38.0" fill="#000000" transform="matrix(1.00, 0.00, -0.00, -1.00, 137.0, 440.0)"> </text><text xml:space="preserve" font-family="FiraMono-Regular,Fira Mono" font-size="38.0" fill="#000000" transform="matrix(1.00, 0.00, -0.00, -1.00, 159.8, 440.0)"> </text><text xml:space="preserve" font-family="FiraMono-Regular,Fira Mono" font-size="38.0" fill="#FFFFFF" transform="matrix(1.00, 0.00, -0.00, -1.00, 182.6, 440.0)">}</text><text xml:space="preserve" font-family="FiraMono-Regular,Fira Mono" font-size="38.0" fill="#000000" transform="matrix(1.00, 0.00, -0.00, -1.00, 205.4, 440.0)"> </text><text xml:space="preserve" font-family="FiraMono-Regular,Fira Mono" font-size="38.0" fill="#FFFFFF" transform="matrix(1.00, 0.00, -0.00, -1.00, 137.0, 322.0)"> </text><text xml:space="preserve" font-family="FiraMono-Regular,Fira Mono" font-size="38.0" fill="#FFFFFF" transform="matrix(1.00, 0.00, -0.00, -1.00, 159.8, 322.0)"> </text><text xml:space="preserve" font-family="FiraMono-Regular,Fira Mono" font-size="38.0" fill="#FFFFFF" transform="matrix(1.00, 0.00, -0.00, -1.00, 182.6, 322.0)">m</text><text xml:space="preserve" font-family="FiraMono-Regular,Fira Mono" font-size="38.0" fill="#FFFFFF" transform="matrix(1.00, 0.00, -0.00, -1.00, 205.4, 322.0)">o</text><text xml:space="preserve" font-family="FiraMono-Regular,Fira Mono" font-size="38.0" fill="#FFFFFF" transform="matrix(1.00, 0.00, -0.00, -1.00, 228.2, 322.0)">m</text><text xml:space="preserve" font-family="FiraMono-Regular,Fira Mono" font-size="38.0" fill="#FFFFFF" transform="matrix(1.00, 0.00, -0.00, -1.00, 251.0, 322.0)">e</text><text xml:space="preserve" font-family="FiraMono-Regular,Fira Mono" font-size="38.0" fill="#FFFFFF" transform="matrix(1.00, 0.00, -0.00, -1.00, 273.8, 322.0)">n</text><text xml:space="preserve" font-family="FiraMono-Regular,Fira Mono" font-size="38.0" fill="#FFFFFF" transform="matrix(1.00, 0.00, -0.00, -1.00, 296.6, 322.0)">t</text><text xml:space="preserve" font-family="FiraMono-Regular,Fira Mono" font-size="38.0" fill="#000000" transform="matrix(1.00, 0.00, -0.00, -1.00, 319.4, 322.0)"> </text><text xml:space="preserve" font-family="FiraMono-Regular,Fira Mono" font-size="38.0" fill="#FFFFFF" transform="matrix(1.00, 0.00, -0.00, -1.00, 342.2, 322.0)">=</text><text xml:space="preserve" font-family="FiraMono-Regular,Fira Mono" font-size="38.0" fill="#000000" transform="matrix(1.00, 0.00, -0.00, -1.00, 365.0, 322.0)"> </text><text xml:space="preserve" font-family="FiraMono-Regular,Fira Mono" font-size="38.0" fill="#FFFFFF" transform="matrix(1.00, 0.00, -0.00, -1.00, 387.8, 322.0)">e</text><text xml:space="preserve" font-family="FiraMono-Regular,Fira Mono" font-size="38.0" fill="#FFFFFF" transform="matrix(1.00, 0.00, -0.00, -1.00, 410.6, 322.0)">n</text><text xml:space="preserve" font-family="FiraMono-Regular,Fira Mono" font-size="38.0" fill="#FFFFFF" transform="matrix(1.00, 0.00, -0.00, -1.00, 433.4, 322.0)">g</text><text xml:space="preserve" font-family="FiraMono-Regular,Fira Mono" font-size="38.0" fill="#FFFFFF" transform="matrix(1.00, 0.00, -0.00, -1.00, 456.2, 322.0)">i</text><text xml:space="preserve" font-family="FiraMono-Regular,Fira Mono" font-size="38.0" fill="#FFFFFF" transform="matrix(1.00, 0.00, -0.00, -1.00, 479.0, 322.0)">n</text><text xml:space="preserve" font-family="FiraMono-Regular,Fira Mono" font-size="38.0" fill="#FFFFFF" transform="matrix(1.00, 0.00, -0.00, -1.00, 501.8, 322.0)">e</text><text xml:space="preserve" font-family="FiraMono-Regular,Fira Mono" font-size="38.0" fill="#FFFFFF" transform="matrix(1.00, 0.00, -0.00, -1.00, 524.6, 322.0)">.</text><text xml:space="preserve" font-family="FiraMono-Regular,Fira Mono" font-size="38.0" fill="#FFFFFF" transform="matrix(1.00, 0.00, -0.00, -1.00, 547.4, 322.0)">i</text><text xml:space="preserve" font-family="FiraMono-Regular,Fira Mono" font-size="38.0" fill="#FFFFFF" transform="matrix(1.00, 0.00, -0.00, -1.00, 570.2, 322.0)">n</text><text xml:space="preserve" font-family="FiraMono-Regular,Fira Mono" font-size="38.0" fill="#FFFFFF" transform="matrix(1.00, 0.00, -0.00, -1.00, 593.0, 322.0)">v</text><text xml:space="preserve" font-family="FiraMono-Regular,Fira Mono" font-size="38.0" fill="#FFFFFF" transform="matrix(1.00, 0.00, -0.00, -1.00, 615.8, 322.0)">o</text><text xml:space="preserve" font-family="FiraMono-Regular,Fira Mono" font-size="38.0" fill="#FFFFFF" transform="matrix(1.00, 0.00, -0.00, -1.00, 638.6, 322.0)">k</text><text xml:space="preserve" font-family="FiraMono-Regular,Fira Mono" font-size="38.0" fill="#FFFFFF" transform="matrix(1.00, 0.00, -0.00, -1.00, 661.4, 322.0)">e</text><text xml:space="preserve" font-family="FiraMono-Regular,Fira Mono" font-size="38.0" fill="#FFFFFF" transform="matrix(1.00, 0.00, -0.00, -1.00, 684.2, 322.0)">F</text><text xml:space="preserve" font-family="FiraMono-Regular,Fira Mono" font-size="38.0" fill="#FFFFFF" transform="matrix(1.00, 0.00, -0.00, -1.00, 707.0, 322.0)">u</text><text xml:space="preserve" font-family="FiraMono-Regular,Fira Mono" font-size="38.0" fill="#FFFFFF" transform="matrix(1.00, 0.00, -0.00, -1.00, 729.8, 322.0)">n</text><text xml:space="preserve" font-family="FiraMono-Regular,Fira Mono" font-size="38.0" fill="#FFFFFF" transform="matrix(1.00, 0.00, -0.00, -1.00, 752.6, 322.0)">c</text><text xml:space="preserve" font-family="FiraMono-Regular,Fira Mono" font-size="38.0" fill="#FFFFFF" transform="matrix(1.00, 0.00, -0.00, -1.00, 775.4, 322.0)">t</text><text xml:space="preserve" font-family="FiraMono-Regular,Fira Mono" font-size="38.0" fill="#FFFFFF" transform="matrix(1.00, 0.00, -0.00, -1.00, 798.2, 322.0)">i</text><text xml:space="preserve" font-family="FiraMono-Regular,Fira Mono" font-size="38.0" fill="#FFFFFF" transform="matrix(1.00, 0.00, -0.00, -1.00, 821.0, 322.0)">o</text><text xml:space="preserve" font-family="FiraMono-Regular,Fira Mono" font-size="38.0" fill="#FFFFFF" transform="matrix(1.00, 0.00, -0.00, -1.00, 843.8, 322.0)">n</text><text xml:space="preserve" font-family="FiraMono-Regular,Fira Mono" font-size="38.0" fill="#FFFFFF" transform="matrix(1.00, 0.00, -0.00, -1.00, 866.6, 322.0)">(</text><text xml:space="preserve" font-family="FiraMono-Regular,Fira Mono" font-size="38.0" fill="#FF2600" transform="matrix(1.00, 0.00, -0.00, -1.00, 889.4, 322.0)">"</text><text xml:space="preserve" font-family="FiraMono-Regular,Fira Mono" font-size="38.0" fill="#FF2600" transform="matrix(1.00, 0.00, -0.00, -1.00, 912.2, 322.0)">m</text><text xml:space="preserve" font-family="FiraMono-Regular,Fira Mono" font-size="38.0" fill="#FF2600" transform="matrix(1.00, 0.00, -0.00, -1.00, 935.0, 322.0)">o</text><text xml:space="preserve" font-family="FiraMono-Regular,Fira Mono" font-size="38.0" fill="#FF2600" transform="matrix(1.00, 0.00, -0.00, -1.00, 957.8, 322.0)">m</text><text xml:space="preserve" font-family="FiraMono-Regular,Fira Mono" font-size="38.0" fill="#FF2600" transform="matrix(1.00, 0.00, -0.00, -1.00, 980.6, 322.0)">e</text><text xml:space="preserve" font-family="FiraMono-Regular,Fira Mono" font-size="38.0" fill="#FF2600" transform="matrix(1.00, 0.00, -0.00, -1.00, 1003.4, 322.0)">n</text><text xml:space="preserve" font-family="FiraMono-Regular,Fira Mono" font-size="38.0" fill="#FF2600" transform="matrix(1.00, 0.00, -0.00, -1.00, 1026.2, 322.0)">t</text><text xml:space="preserve" font-family="FiraMono-Regular,Fira Mono" font-size="38.0" fill="#FF2600" transform="matrix(1.00, 0.00, -0.00, -1.00, 1049.0, 322.0)">"</text><text xml:space="preserve" font-family="FiraMono-Regular,Fira Mono" font-size="38.0" fill="#FFFFFF" transform="matrix(1.00, 0.00, -0.00, -1.00, 1071.8, 322.0)">)</text><text xml:space="preserve" font-family="FiraMono-Regular,Fira Mono" font-size="38.0" fill="#000000" transform="matrix(1.00, 0.00, -0.00, -1.00, 1094.6, 322.0)"> </text><text xml:space="preserve" font-family="FiraMono-Regular,Fira Mono" font-size="38.0" fill="#FFFFFF" transform="matrix(1.00, 0.00, -0.00, -1.00, 137.0, 263.0)">}</text></g></svg>