<?xml version="1.0" encoding="UTF-8" standalone="no"?><svg xmlns="http://www.w3.org/2000/svg" xmlns:xlink="http://www.w3.org/1999/xlink" clip-rule="evenodd" stroke-miterlimit="10" viewBox="0 0 1920 1080"><desc>SVG generated by Keynote</desc><defs></defs><g transform="matrix(1.00, 0.00, -0.00, -1.00, 0.0, 1080.0)"><g><clipPath id="clip0x7f840c2cc900"><path d="M 0.0 1080.0 L 1920.0 1080.0 L 1920.0 0.0 L 0.0 0.0 Z M 0.0 1080.0 "></path></clipPath><g clip-path="url(#clip0x7f840c2cc900)"><image xlink:href="../../BF7430C7-5211-4E68-B118-AC68FDB76F0F/assets/A81AF0278930B93F47F55E5BB6D3A023.png" width="1920.00" height="1080.00" transform="matrix(1.00, 0.00, -0.00, -1.00, 0.0, 1080.0)"></image></g></g><text xml:space="preserve" font-family="FiraMono-Regular,Fira Mono" font-size="39.5" fill="#C07B1E" transform="matrix(1.00, 0.00, -0.00, -1.00, 137.0, 894.8)">d</text><text xml:space="preserve" font-family="FiraMono-Regular,Fira Mono" font-size="39.5" fill="#C07B1E" transform="matrix(1.00, 0.00, -0.00, -1.00, 160.7, 894.8)">e</text><text xml:space="preserve" font-family="FiraMono-Regular,Fira Mono" font-size="39.5" fill="#C07B1E" transform="matrix(1.00, 0.00, -0.00, -1.00, 184.4, 894.8)">f</text><text xml:space="preserve" font-family="FiraMono-Regular,Fira Mono" font-size="39.5" fill="#000000" transform="matrix(1.00, 0.00, -0.00, -1.00, 208.1, 894.8)"> </text><text xml:space="preserve" font-family="FiraMono-Regular,Fira Mono" font-size="39.5" fill="#FFFFFF" transform="matrix(1.00, 0.00, -0.00, -1.00, 231.8, 894.8)">p</text><text xml:space="preserve" font-family="FiraMono-Regular,Fira Mono" font-size="39.5" fill="#FFFFFF" transform="matrix(1.00, 0.00, -0.00, -1.00, 255.6, 894.8)">a</text><text xml:space="preserve" font-family="FiraMono-Regular,Fira Mono" font-size="39.5" fill="#FFFFFF" transform="matrix(1.00, 0.00, -0.00, -1.00, 279.3, 894.8)">y</text><text xml:space="preserve" font-family="FiraMono-Regular,Fira Mono" font-size="39.5" fill="#FFFFFF" transform="matrix(1.00, 0.00, -0.00, -1.00, 303.0, 894.8)">m</text><text xml:space="preserve" font-family="FiraMono-Regular,Fira Mono" font-size="39.5" fill="#FFFFFF" transform="matrix(1.00, 0.00, -0.00, -1.00, 326.7, 894.8)">e</text><text xml:space="preserve" font-family="FiraMono-Regular,Fira Mono" font-size="39.5" fill="#FFFFFF" transform="matrix(1.00, 0.00, -0.00, -1.00, 350.4, 894.8)">n</text><text xml:space="preserve" font-family="FiraMono-Regular,Fira Mono" font-size="39.5" fill="#FFFFFF" transform="matrix(1.00, 0.00, -0.00, -1.00, 374.1, 894.8)">t</text><text xml:space="preserve" font-family="FiraMono-Regular,Fira Mono" font-size="39.5" fill="#FFFFFF" transform="matrix(1.00, 0.00, -0.00, -1.00, 397.8, 894.8)">M</text><text xml:space="preserve" font-family="FiraMono-Regular,Fira Mono" font-size="39.5" fill="#FFFFFF" transform="matrix(1.00, 0.00, -0.00, -1.00, 421.5, 894.8)">o</text><text xml:space="preserve" font-family="FiraMono-Regular,Fira Mono" font-size="39.5" fill="#FFFFFF" transform="matrix(1.00, 0.00, -0.00, -1.00, 445.3, 894.8)">c</text><text xml:space="preserve" font-family="FiraMono-Regular,Fira Mono" font-size="39.5" fill="#FFFFFF" transform="matrix(1.00, 0.00, -0.00, -1.00, 469.0, 894.8)">k</text><text xml:space="preserve" font-family="FiraMono-Regular,Fira Mono" font-size="39.5" fill="#000000" transform="matrix(1.00, 0.00, -0.00, -1.00, 492.7, 894.8)"> </text><text xml:space="preserve" font-family="FiraMono-Regular,Fira Mono" font-size="39.5" fill="#FFFFFF" transform="matrix(1.00, 0.00, -0.00, -1.00, 516.4, 894.8)">=</text><text xml:space="preserve" font-family="FiraMono-Regular,Fira Mono" font-size="39.5" fill="#000000" transform="matrix(1.00, 0.00, -0.00, -1.00, 540.1, 894.8)"> </text><text xml:space="preserve" font-family="FiraMono-Regular,Fira Mono" font-size="39.5" fill="#FFFFFF" transform="matrix(1.00, 0.00, -0.00, -1.00, 563.8, 894.8)">M</text><text xml:space="preserve" font-family="FiraMono-Regular,Fira Mono" font-size="39.5" fill="#FFFFFF" transform="matrix(1.00, 0.00, -0.00, -1.00, 587.5, 894.8)">o</text><text xml:space="preserve" font-family="FiraMono-Regular,Fira Mono" font-size="39.5" fill="#FFFFFF" transform="matrix(1.00, 0.00, -0.00, -1.00, 611.2, 894.8)">c</text><text xml:space="preserve" font-family="FiraMono-Regular,Fira Mono" font-size="39.5" fill="#FFFFFF" transform="matrix(1.00, 0.00, -0.00, -1.00, 635.0, 894.8)">k</text><text xml:space="preserve" font-family="FiraMono-Regular,Fira Mono" font-size="39.5" fill="#FFFFFF" transform="matrix(1.00, 0.00, -0.00, -1.00, 658.7, 894.8)">(</text><text xml:space="preserve" font-family="FiraMono-Regular,Fira Mono" font-size="39.5" fill="#FFFFFF" transform="matrix(1.00, 0.00, -0.00, -1.00, 682.4, 894.8)">P</text><text xml:space="preserve" font-family="FiraMono-Regular,Fira Mono" font-size="39.5" fill="#FFFFFF" transform="matrix(1.00, 0.00, -0.00, -1.00, 706.1, 894.8)">a</text><text xml:space="preserve" font-family="FiraMono-Regular,Fira Mono" font-size="39.5" fill="#FFFFFF" transform="matrix(1.00, 0.00, -0.00, -1.00, 729.8, 894.8)">y</text><text xml:space="preserve" font-family="FiraMono-Regular,Fira Mono" font-size="39.5" fill="#FFFFFF" transform="matrix(1.00, 0.00, -0.00, -1.00, 753.5, 894.8)">m</text><text xml:space="preserve" font-family="FiraMono-Regular,Fira Mono" font-size="39.5" fill="#FFFFFF" transform="matrix(1.00, 0.00, -0.00, -1.00, 777.2, 894.8)">e</text><text xml:space="preserve" font-family="FiraMono-Regular,Fira Mono" font-size="39.5" fill="#FFFFFF" transform="matrix(1.00, 0.00, -0.00, -1.00, 800.9, 894.8)">n</text><text xml:space="preserve" font-family="FiraMono-Regular,Fira Mono" font-size="39.5" fill="#FFFFFF" transform="matrix(1.00, 0.00, -0.00, -1.00, 824.6, 894.8)">t</text><text xml:space="preserve" font-family="FiraMono-Regular,Fira Mono" font-size="39.5" fill="#FFFFFF" transform="matrix(1.00, 0.00, -0.00, -1.00, 848.4, 894.8)">S</text><text xml:space="preserve" font-family="FiraMono-Regular,Fira Mono" font-size="39.5" fill="#FFFFFF" transform="matrix(1.00, 0.00, -0.00, -1.00, 872.1, 894.8)">e</text><text xml:space="preserve" font-family="FiraMono-Regular,Fira Mono" font-size="39.5" fill="#FFFFFF" transform="matrix(1.00, 0.00, -0.00, -1.00, 895.8, 894.8)">r</text><text xml:space="preserve" font-family="FiraMono-Regular,Fira Mono" font-size="39.5" fill="#FFFFFF" transform="matrix(1.00, 0.00, -0.00, -1.00, 919.5, 894.8)">v</text><text xml:space="preserve" font-family="FiraMono-Regular,Fira Mono" font-size="39.5" fill="#FFFFFF" transform="matrix(1.00, 0.00, -0.00, -1.00, 943.2, 894.8)">i</text><text xml:space="preserve" font-family="FiraMono-Regular,Fira Mono" font-size="39.5" fill="#FFFFFF" transform="matrix(1.00, 0.00, -0.00, -1.00, 966.9, 894.8)">c</text><text xml:space="preserve" font-family="FiraMono-Regular,Fira Mono" font-size="39.5" fill="#FFFFFF" transform="matrix(1.00, 0.00, -0.00, -1.00, 990.6, 894.8)">e</text><text xml:space="preserve" font-family="FiraMono-Regular,Fira Mono" font-size="39.5" fill="#FFFFFF" transform="matrix(1.00, 0.00, -0.00, -1.00, 1014.3, 894.8)">)</text><text xml:space="preserve" font-family="FiraMono-Regular,Fira Mono" font-size="39.5" fill="#000000" transform="matrix(1.00, 0.00, -0.00, -1.00, 1038.1, 894.8)"> </text><text xml:space="preserve" font-family="FiraMono-Regular,Fira Mono" font-size="39.5" fill="#C07B1E" transform="matrix(1.00, 0.00, -0.00, -1.00, 137.0, 772.8)">d</text><text xml:space="preserve" font-family="FiraMono-Regular,Fira Mono" font-size="39.5" fill="#C07B1E" transform="matrix(1.00, 0.00, -0.00, -1.00, 160.7, 772.8)">e</text><text xml:space="preserve" font-family="FiraMono-Regular,Fira Mono" font-size="39.5" fill="#C07B1E" transform="matrix(1.00, 0.00, -0.00, -1.00, 184.4, 772.8)">f</text><text xml:space="preserve" font-family="FiraMono-Regular,Fira Mono" font-size="39.5" fill="#000000" transform="matrix(1.00, 0.00, -0.00, -1.00, 208.1, 772.8)"> </text><text xml:space="preserve" font-family="FiraMono-Regular,Fira Mono" font-size="39.5" fill="#FF2600" transform="matrix(1.00, 0.00, -0.00, -1.00, 231.8, 772.8)">"</text><text xml:space="preserve" font-family="FiraMono-Regular,Fira Mono" font-size="39.5" fill="#FF2600" transform="matrix(1.00, 0.00, -0.00, -1.00, 255.6, 772.8)">p</text><text xml:space="preserve" font-family="FiraMono-Regular,Fira Mono" font-size="39.5" fill="#FF2600" transform="matrix(1.00, 0.00, -0.00, -1.00, 279.3, 772.8)">a</text><text xml:space="preserve" font-family="FiraMono-Regular,Fira Mono" font-size="39.5" fill="#FF2600" transform="matrix(1.00, 0.00, -0.00, -1.00, 303.0, 772.8)">y</text><text xml:space="preserve" font-family="FiraMono-Regular,Fira Mono" font-size="39.5" fill="#FF2600" transform="matrix(1.00, 0.00, -0.00, -1.00, 326.7, 772.8)">m</text><text xml:space="preserve" font-family="FiraMono-Regular,Fira Mono" font-size="39.5" fill="#FF2600" transform="matrix(1.00, 0.00, -0.00, -1.00, 350.4, 772.8)">e</text><text xml:space="preserve" font-family="FiraMono-Regular,Fira Mono" font-size="39.5" fill="#FF2600" transform="matrix(1.00, 0.00, -0.00, -1.00, 374.1, 772.8)">n</text><text xml:space="preserve" font-family="FiraMono-Regular,Fira Mono" font-size="39.5" fill="#FF2600" transform="matrix(1.00, 0.00, -0.00, -1.00, 397.8, 772.8)">t</text><text xml:space="preserve" font-family="FiraMono-Regular,Fira Mono" font-size="39.5" fill="#FF2600" transform="matrix(1.00, 0.00, -0.00, -1.00, 421.5, 772.8)"> </text><text xml:space="preserve" font-family="FiraMono-Regular,Fira Mono" font-size="39.5" fill="#FF2600" transform="matrix(1.00, 0.00, -0.00, -1.00, 445.3, 772.8)">i</text><text xml:space="preserve" font-family="FiraMono-Regular,Fira Mono" font-size="39.5" fill="#FF2600" transform="matrix(1.00, 0.00, -0.00, -1.00, 469.0, 772.8)">s</text><text xml:space="preserve" font-family="FiraMono-Regular,Fira Mono" font-size="39.5" fill="#FF2600" transform="matrix(1.00, 0.00, -0.00, -1.00, 492.7, 772.8)"> </text><text xml:space="preserve" font-family="FiraMono-Regular,Fira Mono" font-size="39.5" fill="#FF2600" transform="matrix(1.00, 0.00, -0.00, -1.00, 516.4, 772.8)">t</text><text xml:space="preserve" font-family="FiraMono-Regular,Fira Mono" font-size="39.5" fill="#FF2600" transform="matrix(1.00, 0.00, -0.00, -1.00, 540.1, 772.8)">a</text><text xml:space="preserve" font-family="FiraMono-Regular,Fira Mono" font-size="39.5" fill="#FF2600" transform="matrix(1.00, 0.00, -0.00, -1.00, 563.8, 772.8)">k</text><text xml:space="preserve" font-family="FiraMono-Regular,Fira Mono" font-size="39.5" fill="#FF2600" transform="matrix(1.00, 0.00, -0.00, -1.00, 587.5, 772.8)">e</text><text xml:space="preserve" font-family="FiraMono-Regular,Fira Mono" font-size="39.5" fill="#FF2600" transform="matrix(1.00, 0.00, -0.00, -1.00, 611.2, 772.8)">n</text><text xml:space="preserve" font-family="FiraMono-Regular,Fira Mono" font-size="39.5" fill="#FF2600" transform="matrix(1.00, 0.00, -0.00, -1.00, 635.0, 772.8)"> </text><text xml:space="preserve" font-family="FiraMono-Regular,Fira Mono" font-size="39.5" fill="#FF2600" transform="matrix(1.00, 0.00, -0.00, -1.00, 658.7, 772.8)">a</text><text xml:space="preserve" font-family="FiraMono-Regular,Fira Mono" font-size="39.5" fill="#FF2600" transform="matrix(1.00, 0.00, -0.00, -1.00, 682.4, 772.8)">t</text><text xml:space="preserve" font-family="FiraMono-Regular,Fira Mono" font-size="39.5" fill="#FF2600" transform="matrix(1.00, 0.00, -0.00, -1.00, 706.1, 772.8)"> </text><text xml:space="preserve" font-family="FiraMono-Regular,Fira Mono" font-size="39.5" fill="#FF2600" transform="matrix(1.00, 0.00, -0.00, -1.00, 729.8, 772.8)">t</text><text xml:space="preserve" font-family="FiraMono-Regular,Fira Mono" font-size="39.5" fill="#FF2600" transform="matrix(1.00, 0.00, -0.00, -1.00, 753.5, 772.8)">h</text><text xml:space="preserve" font-family="FiraMono-Regular,Fira Mono" font-size="39.5" fill="#FF2600" transform="matrix(1.00, 0.00, -0.00, -1.00, 777.2, 772.8)">e</text><text xml:space="preserve" font-family="FiraMono-Regular,Fira Mono" font-size="39.5" fill="#FF2600" transform="matrix(1.00, 0.00, -0.00, -1.00, 800.9, 772.8)"> </text><text xml:space="preserve" font-family="FiraMono-Regular,Fira Mono" font-size="39.5" fill="#FF2600" transform="matrix(1.00, 0.00, -0.00, -1.00, 824.6, 772.8)">e</text><text xml:space="preserve" font-family="FiraMono-Regular,Fira Mono" font-size="39.5" fill="#FF2600" transform="matrix(1.00, 0.00, -0.00, -1.00, 848.4, 772.8)">n</text><text xml:space="preserve" font-family="FiraMono-Regular,Fira Mono" font-size="39.5" fill="#FF2600" transform="matrix(1.00, 0.00, -0.00, -1.00, 872.1, 772.8)">d</text><text xml:space="preserve" font-family="FiraMono-Regular,Fira Mono" font-size="39.5" fill="#FF2600" transform="matrix(1.00, 0.00, -0.00, -1.00, 895.8, 772.8)"> </text><text xml:space="preserve" font-family="FiraMono-Regular,Fira Mono" font-size="39.5" fill="#FF2600" transform="matrix(1.00, 0.00, -0.00, -1.00, 919.5, 772.8)">o</text><text xml:space="preserve" font-family="FiraMono-Regular,Fira Mono" font-size="39.5" fill="#FF2600" transform="matrix(1.00, 0.00, -0.00, -1.00, 943.2, 772.8)">f</text><text xml:space="preserve" font-family="FiraMono-Regular,Fira Mono" font-size="39.5" fill="#FF2600" transform="matrix(1.00, 0.00, -0.00, -1.00, 966.9, 772.8)"> </text><text xml:space="preserve" font-family="FiraMono-Regular,Fira Mono" font-size="39.5" fill="#FF2600" transform="matrix(1.00, 0.00, -0.00, -1.00, 990.6, 772.8)">c</text><text xml:space="preserve" font-family="FiraMono-Regular,Fira Mono" font-size="39.5" fill="#FF2600" transform="matrix(1.00, 0.00, -0.00, -1.00, 1014.3, 772.8)">h</text><text xml:space="preserve" font-family="FiraMono-Regular,Fira Mono" font-size="39.5" fill="#FF2600" transform="matrix(1.00, 0.00, -0.00, -1.00, 1038.1, 772.8)">e</text><text xml:space="preserve" font-family="FiraMono-Regular,Fira Mono" font-size="39.5" fill="#FF2600" transform="matrix(1.00, 0.00, -0.00, -1.00, 1061.8, 772.8)">c</text><text xml:space="preserve" font-family="FiraMono-Regular,Fira Mono" font-size="39.5" fill="#FF2600" transform="matrix(1.00, 0.00, -0.00, -1.00, 1085.5, 772.8)">k</text><text xml:space="preserve" font-family="FiraMono-Regular,Fira Mono" font-size="39.5" fill="#FF2600" transform="matrix(1.00, 0.00, -0.00, -1.00, 1109.2, 772.8)">o</text><text xml:space="preserve" font-family="FiraMono-Regular,Fira Mono" font-size="39.5" fill="#FF2600" transform="matrix(1.00, 0.00, -0.00, -1.00, 1132.9, 772.8)">u</text><text xml:space="preserve" font-family="FiraMono-Regular,Fira Mono" font-size="39.5" fill="#FF2600" transform="matrix(1.00, 0.00, -0.00, -1.00, 1156.6, 772.8)">t</text><text xml:space="preserve" font-family="FiraMono-Regular,Fira Mono" font-size="39.5" fill="#FF2600" transform="matrix(1.00, 0.00, -0.00, -1.00, 1180.3, 772.8)">"</text><text xml:space="preserve" font-family="FiraMono-Regular,Fira Mono" font-size="39.5" fill="#FFFFFF" transform="matrix(1.00, 0.00, -0.00, -1.00, 1204.0, 772.8)">(</text><text xml:space="preserve" font-family="FiraMono-Regular,Fira Mono" font-size="39.5" fill="#FFFFFF" transform="matrix(1.00, 0.00, -0.00, -1.00, 1227.8, 772.8)">)</text><text xml:space="preserve" font-family="FiraMono-Regular,Fira Mono" font-size="39.5" fill="#FFFFFF" transform="matrix(1.00, 0.00, -0.00, -1.00, 1251.5, 772.8)"> </text><text xml:space="preserve" font-family="FiraMono-Regular,Fira Mono" font-size="39.5" fill="#FFFFFF" transform="matrix(1.00, 0.00, -0.00, -1.00, 1275.2, 772.8)">{</text><text xml:space="preserve" font-family="FiraMono-Regular,Fira Mono" font-size="39.5" fill="#000000" transform="matrix(1.00, 0.00, -0.00, -1.00, 1298.9, 772.8)"> </text><text xml:space="preserve" font-family="FiraMono-Regular,Fira Mono" font-size="39.5" fill="#FFFFFF" transform="matrix(1.00, 0.00, -0.00, -1.00, 137.0, 711.8)"> </text><text xml:space="preserve" font-family="FiraMono-Regular,Fira Mono" font-size="39.5" fill="#FFFFFF" transform="matrix(1.00, 0.00, -0.00, -1.00, 160.7, 711.8)"> </text><text xml:space="preserve" font-family="FiraMono-Regular,Fira Mono" font-size="39.5" fill="#FFFFFF" transform="matrix(1.00, 0.00, -0.00, -1.00, 184.4, 711.8)">g</text><text xml:space="preserve" font-family="FiraMono-Regular,Fira Mono" font-size="39.5" fill="#FFFFFF" transform="matrix(1.00, 0.00, -0.00, -1.00, 208.1, 711.8)">i</text><text xml:space="preserve" font-family="FiraMono-Regular,Fira Mono" font-size="39.5" fill="#FFFFFF" transform="matrix(1.00, 0.00, -0.00, -1.00, 231.8, 711.8)">v</text><text xml:space="preserve" font-family="FiraMono-Regular,Fira Mono" font-size="39.5" fill="#FFFFFF" transform="matrix(1.00, 0.00, -0.00, -1.00, 255.6, 711.8)">e</text><text xml:space="preserve" font-family="FiraMono-Regular,Fira Mono" font-size="39.5" fill="#FFFFFF" transform="matrix(1.00, 0.00, -0.00, -1.00, 279.3, 711.8)">n</text><text xml:space="preserve" font-family="FiraMono-Regular,Fira Mono" font-size="39.5" fill="#FFFFFF" transform="matrix(1.00, 0.00, -0.00, -1.00, 303.0, 711.8)">:</text><text xml:space="preserve" font-family="FiraMono-Regular,Fira Mono" font-size="39.5" fill="#000000" transform="matrix(1.00, 0.00, -0.00, -1.00, 326.7, 711.8)"> </text><text xml:space="preserve" font-family="FiraMono-Regular,Fira Mono" font-size="39.5" fill="#FFFFFF" transform="matrix(1.00, 0.00, -0.00, -1.00, 137.0, 650.8)"> </text><text xml:space="preserve" font-family="FiraMono-Regular,Fira Mono" font-size="39.5" fill="#FFFFFF" transform="matrix(1.00, 0.00, -0.00, -1.00, 160.7, 650.8)"> </text><text xml:space="preserve" font-family="FiraMono-Regular,Fira Mono" font-size="39.5" fill="#FFFFFF" transform="matrix(1.00, 0.00, -0.00, -1.00, 184.4, 650.8)">l</text><text xml:space="preserve" font-family="FiraMono-Regular,Fira Mono" font-size="39.5" fill="#FFFFFF" transform="matrix(1.00, 0.00, -0.00, -1.00, 208.1, 650.8)">o</text><text xml:space="preserve" font-family="FiraMono-Regular,Fira Mono" font-size="39.5" fill="#FFFFFF" transform="matrix(1.00, 0.00, -0.00, -1.00, 231.8, 650.8)">g</text><text xml:space="preserve" font-family="FiraMono-Regular,Fira Mono" font-size="39.5" fill="#FFFFFF" transform="matrix(1.00, 0.00, -0.00, -1.00, 255.6, 650.8)">g</text><text xml:space="preserve" font-family="FiraMono-Regular,Fira Mono" font-size="39.5" fill="#FFFFFF" transform="matrix(1.00, 0.00, -0.00, -1.00, 279.3, 650.8)">e</text><text xml:space="preserve" font-family="FiraMono-Regular,Fira Mono" font-size="39.5" fill="#FFFFFF" transform="matrix(1.00, 0.00, -0.00, -1.00, 303.0, 650.8)">d</text><text xml:space="preserve" font-family="FiraMono-Regular,Fira Mono" font-size="39.5" fill="#FFFFFF" transform="matrix(1.00, 0.00, -0.00, -1.00, 326.7, 650.8)">I</text><text xml:space="preserve" font-family="FiraMono-Regular,Fira Mono" font-size="39.5" fill="#FFFFFF" transform="matrix(1.00, 0.00, -0.00, -1.00, 350.4, 650.8)">n</text><text xml:space="preserve" font-family="FiraMono-Regular,Fira Mono" font-size="39.5" fill="#FFFFFF" transform="matrix(1.00, 0.00, -0.00, -1.00, 374.1, 650.8)">A</text><text xml:space="preserve" font-family="FiraMono-Regular,Fira Mono" font-size="39.5" fill="#FFFFFF" transform="matrix(1.00, 0.00, -0.00, -1.00, 397.8, 650.8)">s</text><text xml:space="preserve" font-family="FiraMono-Regular,Fira Mono" font-size="39.5" fill="#FFFFFF" transform="matrix(1.00, 0.00, -0.00, -1.00, 421.5, 650.8)"> </text><text xml:space="preserve" font-family="FiraMono-Regular,Fira Mono" font-size="39.5" fill="#FFFFFF" transform="matrix(1.00, 0.00, -0.00, -1.00, 445.3, 650.8)">u</text><text xml:space="preserve" font-family="FiraMono-Regular,Fira Mono" font-size="39.5" fill="#FFFFFF" transform="matrix(1.00, 0.00, -0.00, -1.00, 469.0, 650.8)">s</text><text xml:space="preserve" font-family="FiraMono-Regular,Fira Mono" font-size="39.5" fill="#FFFFFF" transform="matrix(1.00, 0.00, -0.00, -1.00, 492.7, 650.8)">e</text><text xml:space="preserve" font-family="FiraMono-Regular,Fira Mono" font-size="39.5" fill="#FFFFFF" transform="matrix(1.00, 0.00, -0.00, -1.00, 516.4, 650.8)">r</text><text xml:space="preserve" font-family="FiraMono-Regular,Fira Mono" font-size="39.5" fill="#FFFFFF" transform="matrix(1.00, 0.00, -0.00, -1.00, 540.1, 650.8)"> </text><text xml:space="preserve" font-family="FiraMono-Regular,Fira Mono" font-size="39.5" fill="#FFFFFF" transform="matrix(1.00, 0.00, -0.00, -1.00, 137.0, 589.8)"> </text><text xml:space="preserve" font-family="FiraMono-Regular,Fira Mono" font-size="39.5" fill="#FFFFFF" transform="matrix(1.00, 0.00, -0.00, -1.00, 160.7, 589.8)"> </text><text xml:space="preserve" font-family="FiraMono-Regular,Fira Mono" font-size="39.5" fill="#FFFFFF" transform="matrix(1.00, 0.00, -0.00, -1.00, 184.4, 589.8)">a</text><text xml:space="preserve" font-family="FiraMono-Regular,Fira Mono" font-size="39.5" fill="#FFFFFF" transform="matrix(1.00, 0.00, -0.00, -1.00, 208.1, 589.8)">d</text><text xml:space="preserve" font-family="FiraMono-Regular,Fira Mono" font-size="39.5" fill="#FFFFFF" transform="matrix(1.00, 0.00, -0.00, -1.00, 231.8, 589.8)">d</text><text xml:space="preserve" font-family="FiraMono-Regular,Fira Mono" font-size="39.5" fill="#FFFFFF" transform="matrix(1.00, 0.00, -0.00, -1.00, 255.6, 589.8)">e</text><text xml:space="preserve" font-family="FiraMono-Regular,Fira Mono" font-size="39.5" fill="#FFFFFF" transform="matrix(1.00, 0.00, -0.00, -1.00, 279.3, 589.8)">d</text><text xml:space="preserve" font-family="FiraMono-Regular,Fira Mono" font-size="39.5" fill="#FFFFFF" transform="matrix(1.00, 0.00, -0.00, -1.00, 303.0, 589.8)">T</text><text xml:space="preserve" font-family="FiraMono-Regular,Fira Mono" font-size="39.5" fill="#FFFFFF" transform="matrix(1.00, 0.00, -0.00, -1.00, 326.7, 589.8)">o</text><text xml:space="preserve" font-family="FiraMono-Regular,Fira Mono" font-size="39.5" fill="#FFFFFF" transform="matrix(1.00, 0.00, -0.00, -1.00, 350.4, 589.8)">B</text><text xml:space="preserve" font-family="FiraMono-Regular,Fira Mono" font-size="39.5" fill="#FFFFFF" transform="matrix(1.00, 0.00, -0.00, -1.00, 374.1, 589.8)">a</text><text xml:space="preserve" font-family="FiraMono-Regular,Fira Mono" font-size="39.5" fill="#FFFFFF" transform="matrix(1.00, 0.00, -0.00, -1.00, 397.8, 589.8)">s</text><text xml:space="preserve" font-family="FiraMono-Regular,Fira Mono" font-size="39.5" fill="#FFFFFF" transform="matrix(1.00, 0.00, -0.00, -1.00, 421.5, 589.8)">k</text><text xml:space="preserve" font-family="FiraMono-Regular,Fira Mono" font-size="39.5" fill="#FFFFFF" transform="matrix(1.00, 0.00, -0.00, -1.00, 445.3, 589.8)">e</text><text xml:space="preserve" font-family="FiraMono-Regular,Fira Mono" font-size="39.5" fill="#FFFFFF" transform="matrix(1.00, 0.00, -0.00, -1.00, 469.0, 589.8)">t</text><text xml:space="preserve" font-family="FiraMono-Regular,Fira Mono" font-size="39.5" fill="#FFFFFF" transform="matrix(1.00, 0.00, -0.00, -1.00, 492.7, 589.8)"> </text><text xml:space="preserve" font-family="FiraMono-Regular,Fira Mono" font-size="39.5" fill="#FFFFFF" transform="matrix(1.00, 0.00, -0.00, -1.00, 516.4, 589.8)">p</text><text xml:space="preserve" font-family="FiraMono-Regular,Fira Mono" font-size="39.5" fill="#FFFFFF" transform="matrix(1.00, 0.00, -0.00, -1.00, 540.1, 589.8)">r</text><text xml:space="preserve" font-family="FiraMono-Regular,Fira Mono" font-size="39.5" fill="#FFFFFF" transform="matrix(1.00, 0.00, -0.00, -1.00, 563.8, 589.8)">o</text><text xml:space="preserve" font-family="FiraMono-Regular,Fira Mono" font-size="39.5" fill="#FFFFFF" transform="matrix(1.00, 0.00, -0.00, -1.00, 587.5, 589.8)">d</text><text xml:space="preserve" font-family="FiraMono-Regular,Fira Mono" font-size="39.5" fill="#FFFFFF" transform="matrix(1.00, 0.00, -0.00, -1.00, 611.2, 589.8)">u</text><text xml:space="preserve" font-family="FiraMono-Regular,Fira Mono" font-size="39.5" fill="#FFFFFF" transform="matrix(1.00, 0.00, -0.00, -1.00, 635.0, 589.8)">c</text><text xml:space="preserve" font-family="FiraMono-Regular,Fira Mono" font-size="39.5" fill="#FFFFFF" transform="matrix(1.00, 0.00, -0.00, -1.00, 658.7, 589.8)">t</text><text xml:space="preserve" font-family="FiraMono-Regular,Fira Mono" font-size="39.5" fill="#FFFFFF" transform="matrix(1.00, 0.00, -0.00, -1.00, 682.4, 589.8)"> </text><text xml:space="preserve" font-family="FiraMono-Regular,Fira Mono" font-size="39.5" fill="#FFFFFF" transform="matrix(1.00, 0.00, -0.00, -1.00, 137.0, 467.8)"> </text><text xml:space="preserve" font-family="FiraMono-Regular,Fira Mono" font-size="39.5" fill="#FFFFFF" transform="matrix(1.00, 0.00, -0.00, -1.00, 160.7, 467.8)"> </text><text xml:space="preserve" font-family="FiraMono-Regular,Fira Mono" font-size="39.5" fill="#FFFFFF" transform="matrix(1.00, 0.00, -0.00, -1.00, 184.4, 467.8)">w</text><text xml:space="preserve" font-family="FiraMono-Regular,Fira Mono" font-size="39.5" fill="#FFFFFF" transform="matrix(1.00, 0.00, -0.00, -1.00, 208.1, 467.8)">h</text><text xml:space="preserve" font-family="FiraMono-Regular,Fira Mono" font-size="39.5" fill="#FFFFFF" transform="matrix(1.00, 0.00, -0.00, -1.00, 231.8, 467.8)">e</text><text xml:space="preserve" font-family="FiraMono-Regular,Fira Mono" font-size="39.5" fill="#FFFFFF" transform="matrix(1.00, 0.00, -0.00, -1.00, 255.6, 467.8)">n</text><text xml:space="preserve" font-family="FiraMono-Regular,Fira Mono" font-size="39.5" fill="#FFFFFF" transform="matrix(1.00, 0.00, -0.00, -1.00, 279.3, 467.8)">:</text><text xml:space="preserve" font-family="FiraMono-Regular,Fira Mono" font-size="39.5" fill="#000000" transform="matrix(1.00, 0.00, -0.00, -1.00, 303.0, 467.8)"> </text><text xml:space="preserve" font-family="FiraMono-Regular,Fira Mono" font-size="39.5" fill="#FFFFFF" transform="matrix(1.00, 0.00, -0.00, -1.00, 137.0, 406.8)"> </text><text xml:space="preserve" font-family="FiraMono-Regular,Fira Mono" font-size="39.5" fill="#FFFFFF" transform="matrix(1.00, 0.00, -0.00, -1.00, 160.7, 406.8)"> </text><text xml:space="preserve" font-family="FiraMono-Regular,Fira Mono" font-size="39.5" fill="#FFFFFF" transform="matrix(1.00, 0.00, -0.00, -1.00, 184.4, 406.8)">c</text><text xml:space="preserve" font-family="FiraMono-Regular,Fira Mono" font-size="39.5" fill="#FFFFFF" transform="matrix(1.00, 0.00, -0.00, -1.00, 208.1, 406.8)">o</text><text xml:space="preserve" font-family="FiraMono-Regular,Fira Mono" font-size="39.5" fill="#FFFFFF" transform="matrix(1.00, 0.00, -0.00, -1.00, 231.8, 406.8)">m</text><text xml:space="preserve" font-family="FiraMono-Regular,Fira Mono" font-size="39.5" fill="#FFFFFF" transform="matrix(1.00, 0.00, -0.00, -1.00, 255.6, 406.8)">p</text><text xml:space="preserve" font-family="FiraMono-Regular,Fira Mono" font-size="39.5" fill="#FFFFFF" transform="matrix(1.00, 0.00, -0.00, -1.00, 279.3, 406.8)">l</text><text xml:space="preserve" font-family="FiraMono-Regular,Fira Mono" font-size="39.5" fill="#FFFFFF" transform="matrix(1.00, 0.00, -0.00, -1.00, 303.0, 406.8)">e</text><text xml:space="preserve" font-family="FiraMono-Regular,Fira Mono" font-size="39.5" fill="#FFFFFF" transform="matrix(1.00, 0.00, -0.00, -1.00, 326.7, 406.8)">t</text><text xml:space="preserve" font-family="FiraMono-Regular,Fira Mono" font-size="39.5" fill="#FFFFFF" transform="matrix(1.00, 0.00, -0.00, -1.00, 350.4, 406.8)">e</text><text xml:space="preserve" font-family="FiraMono-Regular,Fira Mono" font-size="39.5" fill="#FFFFFF" transform="matrix(1.00, 0.00, -0.00, -1.00, 374.1, 406.8)">C</text><text xml:space="preserve" font-family="FiraMono-Regular,Fira Mono" font-size="39.5" fill="#FFFFFF" transform="matrix(1.00, 0.00, -0.00, -1.00, 397.8, 406.8)">h</text><text xml:space="preserve" font-family="FiraMono-Regular,Fira Mono" font-size="39.5" fill="#FFFFFF" transform="matrix(1.00, 0.00, -0.00, -1.00, 421.5, 406.8)">e</text><text xml:space="preserve" font-family="FiraMono-Regular,Fira Mono" font-size="39.5" fill="#FFFFFF" transform="matrix(1.00, 0.00, -0.00, -1.00, 445.3, 406.8)">c</text><text xml:space="preserve" font-family="FiraMono-Regular,Fira Mono" font-size="39.5" fill="#FFFFFF" transform="matrix(1.00, 0.00, -0.00, -1.00, 469.0, 406.8)">k</text><text xml:space="preserve" font-family="FiraMono-Regular,Fira Mono" font-size="39.5" fill="#FFFFFF" transform="matrix(1.00, 0.00, -0.00, -1.00, 492.7, 406.8)">o</text><text xml:space="preserve" font-family="FiraMono-Regular,Fira Mono" font-size="39.5" fill="#FFFFFF" transform="matrix(1.00, 0.00, -0.00, -1.00, 516.4, 406.8)">u</text><text xml:space="preserve" font-family="FiraMono-Regular,Fira Mono" font-size="39.5" fill="#FFFFFF" transform="matrix(1.00, 0.00, -0.00, -1.00, 540.1, 406.8)">t</text><text xml:space="preserve" font-family="FiraMono-Regular,Fira Mono" font-size="39.5" fill="#FFFFFF" transform="matrix(1.00, 0.00, -0.00, -1.00, 563.8, 406.8)"> </text><text xml:space="preserve" font-family="FiraMono-Regular,Fira Mono" font-size="39.5" fill="#FFFFFF" transform="matrix(1.00, 0.00, -0.00, -1.00, 587.5, 406.8)">u</text><text xml:space="preserve" font-family="FiraMono-Regular,Fira Mono" font-size="39.5" fill="#FFFFFF" transform="matrix(1.00, 0.00, -0.00, -1.00, 611.2, 406.8)">s</text><text xml:space="preserve" font-family="FiraMono-Regular,Fira Mono" font-size="39.5" fill="#FFFFFF" transform="matrix(1.00, 0.00, -0.00, -1.00, 635.0, 406.8)">e</text><text xml:space="preserve" font-family="FiraMono-Regular,Fira Mono" font-size="39.5" fill="#FFFFFF" transform="matrix(1.00, 0.00, -0.00, -1.00, 658.7, 406.8)">r</text><text xml:space="preserve" font-family="FiraMono-Regular,Fira Mono" font-size="39.5" fill="#FFFFFF" transform="matrix(1.00, 0.00, -0.00, -1.00, 682.4, 406.8)"> </text><text xml:space="preserve" font-family="FiraMono-Regular,Fira Mono" font-size="39.5" fill="#FFFFFF" transform="matrix(1.00, 0.00, -0.00, -1.00, 137.0, 284.8)"> </text><text xml:space="preserve" font-family="FiraMono-Regular,Fira Mono" font-size="39.5" fill="#FFFFFF" transform="matrix(1.00, 0.00, -0.00, -1.00, 160.7, 284.8)"> </text><text xml:space="preserve" font-family="FiraMono-Regular,Fira Mono" font-size="39.5" fill="#FFFFFF" transform="matrix(1.00, 0.00, -0.00, -1.00, 184.4, 284.8)">t</text><text xml:space="preserve" font-family="FiraMono-Regular,Fira Mono" font-size="39.5" fill="#FFFFFF" transform="matrix(1.00, 0.00, -0.00, -1.00, 208.1, 284.8)">h</text><text xml:space="preserve" font-family="FiraMono-Regular,Fira Mono" font-size="39.5" fill="#FFFFFF" transform="matrix(1.00, 0.00, -0.00, -1.00, 231.8, 284.8)">e</text><text xml:space="preserve" font-family="FiraMono-Regular,Fira Mono" font-size="39.5" fill="#FFFFFF" transform="matrix(1.00, 0.00, -0.00, -1.00, 255.6, 284.8)">n</text><text xml:space="preserve" font-family="FiraMono-Regular,Fira Mono" font-size="39.5" fill="#FFFFFF" transform="matrix(1.00, 0.00, -0.00, -1.00, 279.3, 284.8)">:</text><text xml:space="preserve" font-family="FiraMono-Regular,Fira Mono" font-size="39.5" fill="#000000" transform="matrix(1.00, 0.00, -0.00, -1.00, 303.0, 284.8)"> </text><text xml:space="preserve" font-family="FiraMono-Regular,Fira Mono" font-size="39.5" fill="#000000" transform="matrix(1.00, 0.00, -0.00, -1.00, 137.0, 223.8)"> </text><text xml:space="preserve" font-family="FiraMono-Regular,Fira Mono" font-size="39.5" fill="#000000" transform="matrix(1.00, 0.00, -0.00, -1.00, 160.7, 223.8)"> </text><text xml:space="preserve" font-family="FiraMono-Regular,Fira Mono" font-size="39.5" fill="#FF2600" transform="matrix(1.00, 0.00, -0.00, -1.00, 184.4, 223.8)">1</text><text xml:space="preserve" font-family="FiraMono-Regular,Fira Mono" font-size="39.5" fill="#000000" transform="matrix(1.00, 0.00, -0.00, -1.00, 208.1, 223.8)"> </text><text xml:space="preserve" font-family="FiraMono-Regular,Fira Mono" font-size="39.5" fill="#FFFFFF" transform="matrix(1.00, 0.00, -0.00, -1.00, 231.8, 223.8)">*</text><text xml:space="preserve" font-family="FiraMono-Regular,Fira Mono" font-size="39.5" fill="#000000" transform="matrix(1.00, 0.00, -0.00, -1.00, 255.6, 223.8)"> </text><text xml:space="preserve" font-family="FiraMono-Regular,Fira Mono" font-size="39.5" fill="#FFFFFF" transform="matrix(1.00, 0.00, -0.00, -1.00, 279.3, 223.8)">p</text><text xml:space="preserve" font-family="FiraMono-Regular,Fira Mono" font-size="39.5" fill="#FFFFFF" transform="matrix(1.00, 0.00, -0.00, -1.00, 303.0, 223.8)">a</text><text xml:space="preserve" font-family="FiraMono-Regular,Fira Mono" font-size="39.5" fill="#FFFFFF" transform="matrix(1.00, 0.00, -0.00, -1.00, 326.7, 223.8)">y</text><text xml:space="preserve" font-family="FiraMono-Regular,Fira Mono" font-size="39.5" fill="#FFFFFF" transform="matrix(1.00, 0.00, -0.00, -1.00, 350.4, 223.8)">m</text><text xml:space="preserve" font-family="FiraMono-Regular,Fira Mono" font-size="39.5" fill="#FFFFFF" transform="matrix(1.00, 0.00, -0.00, -1.00, 374.1, 223.8)">e</text><text xml:space="preserve" font-family="FiraMono-Regular,Fira Mono" font-size="39.5" fill="#FFFFFF" transform="matrix(1.00, 0.00, -0.00, -1.00, 397.8, 223.8)">n</text><text xml:space="preserve" font-family="FiraMono-Regular,Fira Mono" font-size="39.5" fill="#FFFFFF" transform="matrix(1.00, 0.00, -0.00, -1.00, 421.5, 223.8)">t</text><text xml:space="preserve" font-family="FiraMono-Regular,Fira Mono" font-size="39.5" fill="#FFFFFF" transform="matrix(1.00, 0.00, -0.00, -1.00, 445.3, 223.8)">M</text><text xml:space="preserve" font-family="FiraMono-Regular,Fira Mono" font-size="39.5" fill="#FFFFFF" transform="matrix(1.00, 0.00, -0.00, -1.00, 469.0, 223.8)">o</text><text xml:space="preserve" font-family="FiraMono-Regular,Fira Mono" font-size="39.5" fill="#FFFFFF" transform="matrix(1.00, 0.00, -0.00, -1.00, 492.7, 223.8)">c</text><text xml:space="preserve" font-family="FiraMono-Regular,Fira Mono" font-size="39.5" fill="#FFFFFF" transform="matrix(1.00, 0.00, -0.00, -1.00, 516.4, 223.8)">k</text><text xml:space="preserve" font-family="FiraMono-Regular,Fira Mono" font-size="39.5" fill="#FFFFFF" transform="matrix(1.00, 0.00, -0.00, -1.00, 540.1, 223.8)">.</text><text xml:space="preserve" font-family="FiraMono-Regular,Fira Mono" font-size="39.5" fill="#FFFFFF" transform="matrix(1.00, 0.00, -0.00, -1.00, 563.8, 223.8)">c</text><text xml:space="preserve" font-family="FiraMono-Regular,Fira Mono" font-size="39.5" fill="#FFFFFF" transform="matrix(1.00, 0.00, -0.00, -1.00, 587.5, 223.8)">h</text><text xml:space="preserve" font-family="FiraMono-Regular,Fira Mono" font-size="39.5" fill="#FFFFFF" transform="matrix(1.00, 0.00, -0.00, -1.00, 611.2, 223.8)">a</text><text xml:space="preserve" font-family="FiraMono-Regular,Fira Mono" font-size="39.5" fill="#FFFFFF" transform="matrix(1.00, 0.00, -0.00, -1.00, 635.0, 223.8)">r</text><text xml:space="preserve" font-family="FiraMono-Regular,Fira Mono" font-size="39.5" fill="#FFFFFF" transform="matrix(1.00, 0.00, -0.00, -1.00, 658.7, 223.8)">g</text><text xml:space="preserve" font-family="FiraMono-Regular,Fira Mono" font-size="39.5" fill="#FFFFFF" transform="matrix(1.00, 0.00, -0.00, -1.00, 682.4, 223.8)">e</text><text xml:space="preserve" font-family="FiraMono-Regular,Fira Mono" font-size="39.5" fill="#FFFFFF" transform="matrix(1.00, 0.00, -0.00, -1.00, 706.1, 223.8)">(</text><text xml:space="preserve" font-family="FiraMono-Regular,Fira Mono" font-size="39.5" fill="#FFFFFF" transform="matrix(1.00, 0.00, -0.00, -1.00, 729.8, 223.8)">p</text><text xml:space="preserve" font-family="FiraMono-Regular,Fira Mono" font-size="39.5" fill="#FFFFFF" transform="matrix(1.00, 0.00, -0.00, -1.00, 753.5, 223.8)">r</text><text xml:space="preserve" font-family="FiraMono-Regular,Fira Mono" font-size="39.5" fill="#FFFFFF" transform="matrix(1.00, 0.00, -0.00, -1.00, 777.2, 223.8)">o</text><text xml:space="preserve" font-family="FiraMono-Regular,Fira Mono" font-size="39.5" fill="#FFFFFF" transform="matrix(1.00, 0.00, -0.00, -1.00, 800.9, 223.8)">d</text><text xml:space="preserve" font-family="FiraMono-Regular,Fira Mono" font-size="39.5" fill="#FFFFFF" transform="matrix(1.00, 0.00, -0.00, -1.00, 824.6, 223.8)">u</text><text xml:space="preserve" font-family="FiraMono-Regular,Fira Mono" font-size="39.5" fill="#FFFFFF" transform="matrix(1.00, 0.00, -0.00, -1.00, 848.4, 223.8)">c</text><text xml:space="preserve" font-family="FiraMono-Regular,Fira Mono" font-size="39.5" fill="#FFFFFF" transform="matrix(1.00, 0.00, -0.00, -1.00, 872.1, 223.8)">t</text><text xml:space="preserve" font-family="FiraMono-Regular,Fira Mono" font-size="39.5" fill="#FFFFFF" transform="matrix(1.00, 0.00, -0.00, -1.00, 895.8, 223.8)">.</text><text xml:space="preserve" font-family="FiraMono-Regular,Fira Mono" font-size="39.5" fill="#FFFFFF" transform="matrix(1.00, 0.00, -0.00, -1.00, 919.5, 223.8)">p</text><text xml:space="preserve" font-family="FiraMono-Regular,Fira Mono" font-size="39.5" fill="#FFFFFF" transform="matrix(1.00, 0.00, -0.00, -1.00, 943.2, 223.8)">r</text><text xml:space="preserve" font-family="FiraMono-Regular,Fira Mono" font-size="39.5" fill="#FFFFFF" transform="matrix(1.00, 0.00, -0.00, -1.00, 966.9, 223.8)">i</text><text xml:space="preserve" font-family="FiraMono-Regular,Fira Mono" font-size="39.5" fill="#FFFFFF" transform="matrix(1.00, 0.00, -0.00, -1.00, 990.6, 223.8)">c</text><text xml:space="preserve" font-family="FiraMono-Regular,Fira Mono" font-size="39.5" fill="#FFFFFF" transform="matrix(1.00, 0.00, -0.00, -1.00, 1014.3, 223.8)">e</text><text xml:space="preserve" font-family="FiraMono-Regular,Fira Mono" font-size="39.5" fill="#FFFFFF" transform="matrix(1.00, 0.00, -0.00, -1.00, 1038.1, 223.8)">)</text><text xml:space="preserve" font-family="FiraMono-Regular,Fira Mono" font-size="39.5" fill="#000000" transform="matrix(1.00, 0.00, -0.00, -1.00, 1061.8, 223.8)"> </text><text xml:space="preserve" font-family="FiraMono-Regular,Fira Mono" font-size="39.5" fill="#FFFFFF" transform="matrix(1.00, 0.00, -0.00, -1.00, 137.0, 162.8)">}</text></g></svg>