<?xml version="1.0" encoding="UTF-8" standalone="no"?><svg xmlns="http://www.w3.org/2000/svg" xmlns:xlink="http://www.w3.org/1999/xlink" clip-rule="evenodd" stroke-miterlimit="10" viewBox="0 0 1920 1080"><desc>SVG generated by Keynote</desc><defs></defs><g transform="matrix(1.00, 0.00, -0.00, -1.00, 0.0, 1080.0)"><g><clipPath id="clip0x7f840d9d9270"><path d="M 0.0 1080.0 L 1920.0 1080.0 L 1920.0 0.0 L 0.0 0.0 Z M 0.0 1080.0 "></path></clipPath><g clip-path="url(#clip0x7f840d9d9270)"><image xlink:href="../../BF7430C7-5211-4E68-B118-AC68FDB76F0F/assets/A81AF0278930B93F47F55E5BB6D3A023.png" width="1920.00" height="1080.00" transform="matrix(1.00, 0.00, -0.00, -1.00, 0.0, 1080.0)"></image></g></g><g><clipPath id="clip0x7f8408e19f30"><path d="M 1037.0 832.0 L 1787.0 832.0 L 1787.0 100.0 L 1037.0 100.0 Z M 1037.0 832.0 "></path></clipPath><g clip-path="url(#clip0x7f8408e19f30)"><image xlink:href="977F508F1D57E215797502CBEF94254F.jpeg" width="398.00" height="414.00" transform="matrix(1.88, 0.00, -0.00, -1.88, 1037.0, 856.1)"></image></g></g><text xml:space="preserve" font-family="HorizonBT-Regular,Horizon BT" font-size="128.0" fill="#FFD941" transform="matrix(1.00, 0.00, -0.00, -1.00, 551.2, 917.2)">T</text><text xml:space="preserve" font-family="HorizonBT-Regular,Horizon BT" font-size="128.0" fill="#FFD941" transform="matrix(1.00, 0.00, -0.00, -1.00, 596.3, 917.2)">H</text><text xml:space="preserve" font-family="HorizonBT-Regular,Horizon BT" font-size="128.0" fill="#FFD941" transform="matrix(1.00, 0.00, -0.00, -1.00, 647.0, 917.2)">E</text><text xml:space="preserve" font-family="HorizonBT-Regular,Horizon BT" font-size="128.0" fill="#FFD941" transform="matrix(1.00, 0.00, -0.00, -1.00, 691.2, 917.2)"> </text><text xml:space="preserve" font-family="HorizonBT-Regular,Horizon BT" font-size="128.0" fill="#FFD941" transform="matrix(1.00, 0.00, -0.00, -1.00, 716.6, 917.2)">P</text><text xml:space="preserve" font-family="HorizonBT-Regular,Horizon BT" font-size="128.0" fill="#FFD941" transform="matrix(1.00, 0.00, -0.00, -1.00, 765.8, 917.2)">R</text><text xml:space="preserve" font-family="HorizonBT-Regular,Horizon BT" font-size="128.0" fill="#FFD941" transform="matrix(1.00, 0.00, -0.00, -1.00, 816.2, 917.2)">I</text><text xml:space="preserve" font-family="HorizonBT-Regular,Horizon BT" font-size="128.0" fill="#FFD941" transform="matrix(1.00, 0.00, -0.00, -1.00, 841.6, 917.2)">M</text><text xml:space="preserve" font-family="HorizonBT-Regular,Horizon BT" font-size="128.0" fill="#FFD941" transform="matrix(1.00, 0.00, -0.00, -1.00, 917.2, 917.2)">E</text><text xml:space="preserve" font-family="HorizonBT-Regular,Horizon BT" font-size="128.0" fill="#FFD941" transform="matrix(1.00, 0.00, -0.00, -1.00, 961.4, 917.2)"> </text><text xml:space="preserve" font-family="HorizonBT-Regular,Horizon BT" font-size="128.0" fill="#FFD941" transform="matrix(1.00, 0.00, -0.00, -1.00, 986.8, 917.2)">D</text><text xml:space="preserve" font-family="HorizonBT-Regular,Horizon BT" font-size="128.0" fill="#FFD941" transform="matrix(1.00, 0.00, -0.00, -1.00, 1037.4, 917.2)">I</text><text xml:space="preserve" font-family="HorizonBT-Regular,Horizon BT" font-size="128.0" fill="#FFD941" transform="matrix(1.00, 0.00, -0.00, -1.00, 1062.8, 917.2)">R</text><text xml:space="preserve" font-family="HorizonBT-Regular,Horizon BT" font-size="128.0" fill="#FFD941" transform="matrix(1.00, 0.00, -0.00, -1.00, 1113.2, 917.2)">E</text><text xml:space="preserve" font-family="HorizonBT-Regular,Horizon BT" font-size="128.0" fill="#FFD941" transform="matrix(1.00, 0.00, -0.00, -1.00, 1157.5, 917.2)">C</text><text xml:space="preserve" font-family="HorizonBT-Regular,Horizon BT" font-size="128.0" fill="#FFD941" transform="matrix(1.00, 0.00, -0.00, -1.00, 1207.9, 917.2)">T</text><text xml:space="preserve" font-family="HorizonBT-Regular,Horizon BT" font-size="128.0" fill="#FFD941" transform="matrix(1.00, 0.00, -0.00, -1.00, 1253.0, 917.2)">I</text><text xml:space="preserve" font-family="HorizonBT-Regular,Horizon BT" font-size="128.0" fill="#FFD941" transform="matrix(1.00, 0.00, -0.00, -1.00, 1278.4, 917.2)">V</text><text xml:space="preserve" font-family="HorizonBT-Regular,Horizon BT" font-size="128.0" fill="#FFD941" transform="matrix(1.00, 0.00, -0.00, -1.00, 1324.8, 917.2)">E</text><text xml:space="preserve" font-family="HorizonBT-Regular,Horizon BT" font-size="396.0" fill="#FEFFFE" transform="matrix(1.00, 0.00, -0.00, -1.00, 170.5, 460.4)">N</text><text xml:space="preserve" font-family="HorizonBT-Regular,Horizon BT" font-size="396.0" fill="#FEFFFE" transform="matrix(1.00, 0.00, -0.00, -1.00, 327.3, 460.4)">E</text><text xml:space="preserve" font-family="HorizonBT-Regular,Horizon BT" font-size="396.0" fill="#FEFFFE" transform="matrix(1.00, 0.00, -0.00, -1.00, 464.1, 460.4)">V</text><text xml:space="preserve" font-family="HorizonBT-Regular,Horizon BT" font-size="396.0" fill="#FEFFFE" transform="matrix(1.00, 0.00, -0.00, -1.00, 607.7, 460.4)">E</text><text xml:space="preserve" font-family="HorizonBT-Regular,Horizon BT" font-size="396.0" fill="#FEFFFE" transform="matrix(1.00, 0.00, -0.00, -1.00, 744.5, 460.4)">R</text><text xml:space="preserve" font-family="HorizonBT-Regular,Horizon BT" font-size="396.0" fill="#FEFFFE" transform="matrix(1.00, 0.00, -0.00, -1.00, 900.5, 460.4)"> </text><text xml:space="preserve" font-family="HorizonBT-Regular,Horizon BT" font-size="128.0" fill="#FEFFFE" transform="matrix(1.00, 0.00, -0.00, -1.00, 183.1, 299.9)">T</text><text xml:space="preserve" font-family="HorizonBT-Regular,Horizon BT" font-size="128.0" fill="#FEFFFE" transform="matrix(1.00, 0.00, -0.00, -1.00, 228.2, 299.9)">R</text><text xml:space="preserve" font-family="HorizonBT-Regular,Horizon BT" font-size="128.0" fill="#FEFFFE" transform="matrix(1.00, 0.00, -0.00, -1.00, 278.6, 299.9)">U</text><text xml:space="preserve" font-family="HorizonBT-Regular,Horizon BT" font-size="128.0" fill="#FEFFFE" transform="matrix(1.00, 0.00, -0.00, -1.00, 329.3, 299.9)">S</text><text xml:space="preserve" font-family="HorizonBT-Regular,Horizon BT" font-size="128.0" fill="#FEFFFE" transform="matrix(1.00, 0.00, -0.00, -1.00, 379.7, 299.9)">T</text><text xml:space="preserve" font-family="HorizonBT-Regular,Horizon BT" font-size="128.0" fill="#FEFFFE" transform="matrix(1.00, 0.00, -0.00, -1.00, 424.8, 299.9)"> </text><text xml:space="preserve" font-family="HorizonBT-Regular,Horizon BT" font-size="128.0" fill="#FEFFFE" transform="matrix(1.00, 0.00, -0.00, -1.00, 450.2, 299.9)">A</text><text xml:space="preserve" font-family="HorizonBT-Regular,Horizon BT" font-size="128.0" fill="#FEFFFE" transform="matrix(1.00, 0.00, -0.00, -1.00, 500.9, 299.9)"> </text><text xml:space="preserve" font-family="HorizonBT-Regular,Horizon BT" font-size="128.0" fill="#FEFFFE" transform="matrix(1.00, 0.00, -0.00, -1.00, 526.3, 299.9)">T</text><text xml:space="preserve" font-family="HorizonBT-Regular,Horizon BT" font-size="128.0" fill="#FEFFFE" transform="matrix(1.00, 0.00, -0.00, -1.00, 571.4, 299.9)">E</text><text xml:space="preserve" font-family="HorizonBT-Regular,Horizon BT" font-size="128.0" fill="#FEFFFE" transform="matrix(1.00, 0.00, -0.00, -1.00, 615.6, 299.9)">S</text><text xml:space="preserve" font-family="HorizonBT-Regular,Horizon BT" font-size="128.0" fill="#FEFFFE" transform="matrix(1.00, 0.00, -0.00, -1.00, 666.0, 299.9)">T</text><text xml:space="preserve" font-family="HorizonBT-Regular,Horizon BT" font-size="128.0" fill="#FEFFFE" transform="matrix(1.00, 0.00, -0.00, -1.00, 711.1, 299.9)"> </text><text xml:space="preserve" font-family="HorizonBT-Regular,Horizon BT" font-size="128.0" fill="#FEFFFE" transform="matrix(1.00, 0.00, -0.00, -1.00, 736.5, 299.9)">Y</text><text xml:space="preserve" font-family="HorizonBT-Regular,Horizon BT" font-size="128.0" fill="#FEFFFE" transform="matrix(1.00, 0.00, -0.00, -1.00, 786.9, 299.9)">O</text><text xml:space="preserve" font-family="HorizonBT-Regular,Horizon BT" font-size="128.0" fill="#FEFFFE" transform="matrix(1.00, 0.00, -0.00, -1.00, 837.4, 299.9)">U</text><text xml:space="preserve" font-family="HorizonBT-Regular,Horizon BT" font-size="128.0" fill="#FEFFFE" transform="matrix(1.00, 0.00, -0.00, -1.00, 888.1, 299.9)"> </text><text xml:space="preserve" font-family="HorizonBT-Regular,Horizon BT" font-size="128.0" fill="#FEFFFE" transform="matrix(1.00, 0.00, -0.00, -1.00, 180.8, 158.9)">H</text><text xml:space="preserve" font-family="HorizonBT-Regular,Horizon BT" font-size="128.0" fill="#FEFFFE" transform="matrix(1.00, 0.00, -0.00, -1.00, 231.4, 158.9)">A</text><text xml:space="preserve" font-family="HorizonBT-Regular,Horizon BT" font-size="128.0" fill="#FEFFFE" transform="matrix(1.00, 0.00, -0.00, -1.00, 282.1, 158.9)">V</text><text xml:space="preserve" font-family="HorizonBT-Regular,Horizon BT" font-size="128.0" fill="#FEFFFE" transform="matrix(1.00, 0.00, -0.00, -1.00, 328.5, 158.9)">E</text><text xml:space="preserve" font-family="HorizonBT-Regular,Horizon BT" font-size="128.0" fill="#FEFFFE" transform="matrix(1.00, 0.00, -0.00, -1.00, 372.8, 158.9)">N</text><text xml:space="preserve" font-family="HorizonBT-Regular,Horizon BT" font-size="128.0" fill="#FEFFFE" transform="matrix(1.00, 0.00, -0.00, -1.00, 423.4, 158.9)">'</text><text xml:space="preserve" font-family="HorizonBT-Regular,Horizon BT" font-size="128.0" fill="#FEFFFE" transform="matrix(1.00, 0.00, -0.00, -1.00, 445.4, 158.9)">T</text><text xml:space="preserve" font-family="HorizonBT-Regular,Horizon BT" font-size="128.0" fill="#FEFFFE" transform="matrix(1.00, 0.00, -0.00, -1.00, 490.5, 158.9)"> </text><text xml:space="preserve" font-family="HorizonBT-Regular,Horizon BT" font-size="128.0" fill="#FEFFFE" transform="matrix(1.00, 0.00, -0.00, -1.00, 515.9, 158.9)">S</text><text xml:space="preserve" font-family="HorizonBT-Regular,Horizon BT" font-size="128.0" fill="#FEFFFE" transform="matrix(1.00, 0.00, -0.00, -1.00, 566.3, 158.9)">E</text><text xml:space="preserve" font-family="HorizonBT-Regular,Horizon BT" font-size="128.0" fill="#FEFFFE" transform="matrix(1.00, 0.00, -0.00, -1.00, 610.6, 158.9)">E</text><text xml:space="preserve" font-family="HorizonBT-Regular,Horizon BT" font-size="128.0" fill="#FEFFFE" transform="matrix(1.00, 0.00, -0.00, -1.00, 654.8, 158.9)">N</text><text xml:space="preserve" font-family="HorizonBT-Regular,Horizon BT" font-size="128.0" fill="#FEFFFE" transform="matrix(1.00, 0.00, -0.00, -1.00, 705.5, 158.9)"> </text><text xml:space="preserve" font-family="HorizonBT-Regular,Horizon BT" font-size="128.0" fill="#FEFFFE" transform="matrix(1.00, 0.00, -0.00, -1.00, 730.9, 158.9)">F</text><text xml:space="preserve" font-family="HorizonBT-Regular,Horizon BT" font-size="128.0" fill="#FEFFFE" transform="matrix(1.00, 0.00, -0.00, -1.00, 773.5, 158.9)">A</text><text xml:space="preserve" font-family="HorizonBT-Regular,Horizon BT" font-size="128.0" fill="#FEFFFE" transform="matrix(1.00, 0.00, -0.00, -1.00, 824.2, 158.9)">I</text><text xml:space="preserve" font-family="HorizonBT-Regular,Horizon BT" font-size="128.0" fill="#FEFFFE" transform="matrix(1.00, 0.00, -0.00, -1.00, 849.6, 158.9)">L</text></g></svg>