<?xml version="1.0" encoding="UTF-8" standalone="no"?><svg xmlns="http://www.w3.org/2000/svg" xmlns:xlink="http://www.w3.org/1999/xlink" clip-rule="evenodd" stroke-miterlimit="10" viewBox="0 0 1920 1080"><desc>SVG generated by Keynote</desc><defs></defs><g transform="matrix(1.00, 0.00, -0.00, -1.00, 0.0, 1080.0)"><g><clipPath id="clip0x7f84051b3e10"><path d="M 0.0 1080.0 L 1920.0 1080.0 L 1920.0 0.0 L 0.0 0.0 Z M 0.0 1080.0 "></path></clipPath><g clip-path="url(#clip0x7f84051b3e10)"><image xlink:href="../../BF7430C7-5211-4E68-B118-AC68FDB76F0F/assets/A81AF0278930B93F47F55E5BB6D3A023.png" width="1920.00" height="1080.00" transform="matrix(1.00, 0.00, -0.00, -1.00, 0.0, 1080.0)"></image></g></g><text xml:space="preserve" font-family="HorizonBT-Regular,Horizon BT" font-size="128.0" fill="#FFD941" transform="matrix(1.00, 0.00, -0.00, -1.00, 385.0, 917.2)">I</text><text xml:space="preserve" font-family="HorizonBT-Regular,Horizon BT" font-size="128.0" fill="#FFD941" transform="matrix(1.00, 0.00, -0.00, -1.00, 410.4, 917.2)">N</text><text xml:space="preserve" font-family="HorizonBT-Regular,Horizon BT" font-size="128.0" fill="#FFD941" transform="matrix(1.00, 0.00, -0.00, -1.00, 461.1, 917.2)">P</text><text xml:space="preserve" font-family="HorizonBT-Regular,Horizon BT" font-size="128.0" fill="#FFD941" transform="matrix(1.00, 0.00, -0.00, -1.00, 510.3, 917.2)">U</text><text xml:space="preserve" font-family="HorizonBT-Regular,Horizon BT" font-size="128.0" fill="#FFD941" transform="matrix(1.00, 0.00, -0.00, -1.00, 561.0, 917.2)">T</text><text xml:space="preserve" font-family="HorizonBT-Regular,Horizon BT" font-size="128.0" fill="#FFD941" transform="matrix(1.00, 0.00, -0.00, -1.00, 606.1, 917.2)"> </text><text xml:space="preserve" font-family="HorizonBT-Regular,Horizon BT" font-size="128.0" fill="#FFD941" transform="matrix(1.00, 0.00, -0.00, -1.00, 631.5, 917.2)">&amp;</text><text xml:space="preserve" font-family="HorizonBT-Regular,Horizon BT" font-size="128.0" fill="#FFD941" transform="matrix(1.00, 0.00, -0.00, -1.00, 682.1, 917.2)"> </text><text xml:space="preserve" font-family="HorizonBT-Regular,Horizon BT" font-size="128.0" fill="#FFD941" transform="matrix(1.00, 0.00, -0.00, -1.00, 707.5, 917.2)">O</text><text xml:space="preserve" font-family="HorizonBT-Regular,Horizon BT" font-size="128.0" fill="#FFD941" transform="matrix(1.00, 0.00, -0.00, -1.00, 757.9, 917.2)">U</text><text xml:space="preserve" font-family="HorizonBT-Regular,Horizon BT" font-size="128.0" fill="#FFD941" transform="matrix(1.00, 0.00, -0.00, -1.00, 808.6, 917.2)">T</text><text xml:space="preserve" font-family="HorizonBT-Regular,Horizon BT" font-size="128.0" fill="#FFD941" transform="matrix(1.00, 0.00, -0.00, -1.00, 853.7, 917.2)">P</text><text xml:space="preserve" font-family="HorizonBT-Regular,Horizon BT" font-size="128.0" fill="#FFD941" transform="matrix(1.00, 0.00, -0.00, -1.00, 902.9, 917.2)">U</text><text xml:space="preserve" font-family="HorizonBT-Regular,Horizon BT" font-size="128.0" fill="#FFD941" transform="matrix(1.00, 0.00, -0.00, -1.00, 953.6, 917.2)">T</text><text xml:space="preserve" font-family="HorizonBT-Regular,Horizon BT" font-size="128.0" fill="#FFD941" transform="matrix(1.00, 0.00, -0.00, -1.00, 998.7, 917.2)"> </text><text xml:space="preserve" font-family="HorizonBT-Regular,Horizon BT" font-size="128.0" fill="#FFD941" transform="matrix(1.00, 0.00, -0.00, -1.00, 1024.1, 917.2)">P</text><text xml:space="preserve" font-family="HorizonBT-Regular,Horizon BT" font-size="128.0" fill="#FFD941" transform="matrix(1.00, 0.00, -0.00, -1.00, 1073.3, 917.2)">A</text><text xml:space="preserve" font-family="HorizonBT-Regular,Horizon BT" font-size="128.0" fill="#FFD941" transform="matrix(1.00, 0.00, -0.00, -1.00, 1124.0, 917.2)">R</text><text xml:space="preserve" font-family="HorizonBT-Regular,Horizon BT" font-size="128.0" fill="#FFD941" transform="matrix(1.00, 0.00, -0.00, -1.00, 1174.4, 917.2)">A</text><text xml:space="preserve" font-family="HorizonBT-Regular,Horizon BT" font-size="128.0" fill="#FFD941" transform="matrix(1.00, 0.00, -0.00, -1.00, 1225.1, 917.2)">M</text><text xml:space="preserve" font-family="HorizonBT-Regular,Horizon BT" font-size="128.0" fill="#FFD941" transform="matrix(1.00, 0.00, -0.00, -1.00, 1300.7, 917.2)">E</text><text xml:space="preserve" font-family="HorizonBT-Regular,Horizon BT" font-size="128.0" fill="#FFD941" transform="matrix(1.00, 0.00, -0.00, -1.00, 1344.9, 917.2)">T</text><text xml:space="preserve" font-family="HorizonBT-Regular,Horizon BT" font-size="128.0" fill="#FFD941" transform="matrix(1.00, 0.00, -0.00, -1.00, 1390.0, 917.2)">E</text><text xml:space="preserve" font-family="HorizonBT-Regular,Horizon BT" font-size="128.0" fill="#FFD941" transform="matrix(1.00, 0.00, -0.00, -1.00, 1434.2, 917.2)">R</text><text xml:space="preserve" font-family="HorizonBT-Regular,Horizon BT" font-size="128.0" fill="#FFD941" transform="matrix(1.00, 0.00, -0.00, -1.00, 1484.6, 917.2)">S</text><text xml:space="preserve" font-family="FiraMono-Regular,Fira Mono" font-size="46.8" fill="#C07B1E" transform="matrix(1.00, 0.00, -0.00, -1.00, 137.0, 777.4)">d</text><text xml:space="preserve" font-family="FiraMono-Regular,Fira Mono" font-size="46.8" fill="#C07B1E" transform="matrix(1.00, 0.00, -0.00, -1.00, 165.1, 777.4)">e</text><text xml:space="preserve" font-family="FiraMono-Regular,Fira Mono" font-size="46.8" fill="#C07B1E" transform="matrix(1.00, 0.00, -0.00, -1.00, 193.2, 777.4)">f</text><text xml:space="preserve" font-family="FiraMono-Regular,Fira Mono" font-size="46.8" fill="#000000" transform="matrix(1.00, 0.00, -0.00, -1.00, 221.2, 777.4)"> </text><text xml:space="preserve" font-family="FiraMono-Regular,Fira Mono" font-size="46.8" fill="#FF2600" transform="matrix(1.00, 0.00, -0.00, -1.00, 249.3, 777.4)">"</text><text xml:space="preserve" font-family="FiraMono-Regular,Fira Mono" font-size="46.8" fill="#FF2600" transform="matrix(1.00, 0.00, -0.00, -1.00, 277.4, 777.4)">c</text><text xml:space="preserve" font-family="FiraMono-Regular,Fira Mono" font-size="46.8" fill="#FF2600" transform="matrix(1.00, 0.00, -0.00, -1.00, 305.5, 777.4)">a</text><text xml:space="preserve" font-family="FiraMono-Regular,Fira Mono" font-size="46.8" fill="#FF2600" transform="matrix(1.00, 0.00, -0.00, -1.00, 333.6, 777.4)">n</text><text xml:space="preserve" font-family="FiraMono-Regular,Fira Mono" font-size="46.8" fill="#FF2600" transform="matrix(1.00, 0.00, -0.00, -1.00, 361.6, 777.4)"> </text><text xml:space="preserve" font-family="FiraMono-Regular,Fira Mono" font-size="46.8" fill="#FF2600" transform="matrix(1.00, 0.00, -0.00, -1.00, 389.7, 777.4)">c</text><text xml:space="preserve" font-family="FiraMono-Regular,Fira Mono" font-size="46.8" fill="#FF2600" transform="matrix(1.00, 0.00, -0.00, -1.00, 417.8, 777.4)">o</text><text xml:space="preserve" font-family="FiraMono-Regular,Fira Mono" font-size="46.8" fill="#FF2600" transform="matrix(1.00, 0.00, -0.00, -1.00, 445.9, 777.4)">n</text><text xml:space="preserve" font-family="FiraMono-Regular,Fira Mono" font-size="46.8" fill="#FF2600" transform="matrix(1.00, 0.00, -0.00, -1.00, 474.0, 777.4)">v</text><text xml:space="preserve" font-family="FiraMono-Regular,Fira Mono" font-size="46.8" fill="#FF2600" transform="matrix(1.00, 0.00, -0.00, -1.00, 502.0, 777.4)">e</text><text xml:space="preserve" font-family="FiraMono-Regular,Fira Mono" font-size="46.8" fill="#FF2600" transform="matrix(1.00, 0.00, -0.00, -1.00, 530.1, 777.4)">r</text><text xml:space="preserve" font-family="FiraMono-Regular,Fira Mono" font-size="46.8" fill="#FF2600" transform="matrix(1.00, 0.00, -0.00, -1.00, 558.2, 777.4)">t</text><text xml:space="preserve" font-family="FiraMono-Regular,Fira Mono" font-size="46.8" fill="#FF2600" transform="matrix(1.00, 0.00, -0.00, -1.00, 586.3, 777.4)"> </text><text xml:space="preserve" font-family="FiraMono-Regular,Fira Mono" font-size="46.8" fill="#FF2600" transform="matrix(1.00, 0.00, -0.00, -1.00, 614.4, 777.4)">c</text><text xml:space="preserve" font-family="FiraMono-Regular,Fira Mono" font-size="46.8" fill="#FF2600" transform="matrix(1.00, 0.00, -0.00, -1.00, 642.4, 777.4)">a</text><text xml:space="preserve" font-family="FiraMono-Regular,Fira Mono" font-size="46.8" fill="#FF2600" transform="matrix(1.00, 0.00, -0.00, -1.00, 670.5, 777.4)">s</text><text xml:space="preserve" font-family="FiraMono-Regular,Fira Mono" font-size="46.8" fill="#FF2600" transform="matrix(1.00, 0.00, -0.00, -1.00, 698.6, 777.4)">e</text><text xml:space="preserve" font-family="FiraMono-Regular,Fira Mono" font-size="46.8" fill="#FF2600" transform="matrix(1.00, 0.00, -0.00, -1.00, 726.7, 777.4)">"</text><text xml:space="preserve" font-family="FiraMono-Regular,Fira Mono" font-size="46.8" fill="#FFFFFF" transform="matrix(1.00, 0.00, -0.00, -1.00, 754.8, 777.4)">(</text><text xml:space="preserve" font-family="FiraMono-Regular,Fira Mono" font-size="46.8" fill="#FFFFFF" transform="matrix(1.00, 0.00, -0.00, -1.00, 782.8, 777.4)">)</text><text xml:space="preserve" font-family="FiraMono-Regular,Fira Mono" font-size="46.8" fill="#FFFFFF" transform="matrix(1.00, 0.00, -0.00, -1.00, 810.9, 777.4)"> </text><text xml:space="preserve" font-family="FiraMono-Regular,Fira Mono" font-size="46.8" fill="#FFFFFF" transform="matrix(1.00, 0.00, -0.00, -1.00, 839.0, 777.4)">{</text><text xml:space="preserve" font-family="FiraMono-Regular,Fira Mono" font-size="46.8" fill="#000000" transform="matrix(1.00, 0.00, -0.00, -1.00, 867.1, 777.4)"> </text><text xml:space="preserve" font-family="FiraMono-Regular,Fira Mono" font-size="46.8" fill="#FFFFFF" transform="matrix(1.00, 0.00, -0.00, -1.00, 137.0, 705.4)"> </text><text xml:space="preserve" font-family="FiraMono-Regular,Fira Mono" font-size="46.8" fill="#FFFFFF" transform="matrix(1.00, 0.00, -0.00, -1.00, 165.1, 705.4)"> </text><text xml:space="preserve" font-family="FiraMono-Regular,Fira Mono" font-size="46.8" fill="#FFFFFF" transform="matrix(1.00, 0.00, -0.00, -1.00, 193.2, 705.4)">e</text><text xml:space="preserve" font-family="FiraMono-Regular,Fira Mono" font-size="46.8" fill="#FFFFFF" transform="matrix(1.00, 0.00, -0.00, -1.00, 221.2, 705.4)">x</text><text xml:space="preserve" font-family="FiraMono-Regular,Fira Mono" font-size="46.8" fill="#FFFFFF" transform="matrix(1.00, 0.00, -0.00, -1.00, 249.3, 705.4)">p</text><text xml:space="preserve" font-family="FiraMono-Regular,Fira Mono" font-size="46.8" fill="#FFFFFF" transform="matrix(1.00, 0.00, -0.00, -1.00, 277.4, 705.4)">e</text><text xml:space="preserve" font-family="FiraMono-Regular,Fira Mono" font-size="46.8" fill="#FFFFFF" transform="matrix(1.00, 0.00, -0.00, -1.00, 305.5, 705.4)">c</text><text xml:space="preserve" font-family="FiraMono-Regular,Fira Mono" font-size="46.8" fill="#FFFFFF" transform="matrix(1.00, 0.00, -0.00, -1.00, 333.6, 705.4)">t</text><text xml:space="preserve" font-family="FiraMono-Regular,Fira Mono" font-size="46.8" fill="#FFFFFF" transform="matrix(1.00, 0.00, -0.00, -1.00, 361.6, 705.4)">:</text><text xml:space="preserve" font-family="FiraMono-Regular,Fira Mono" font-size="46.8" fill="#000000" transform="matrix(1.00, 0.00, -0.00, -1.00, 389.7, 705.4)"> </text><text xml:space="preserve" font-family="FiraMono-Regular,Fira Mono" font-size="46.8" fill="#FFFFFF" transform="matrix(1.00, 0.00, -0.00, -1.00, 137.0, 633.4)"> </text><text xml:space="preserve" font-family="FiraMono-Regular,Fira Mono" font-size="46.8" fill="#FFFFFF" transform="matrix(1.00, 0.00, -0.00, -1.00, 165.1, 633.4)"> </text><text xml:space="preserve" font-family="FiraMono-Regular,Fira Mono" font-size="46.8" fill="#FFFFFF" transform="matrix(1.00, 0.00, -0.00, -1.00, 193.2, 633.4)">s</text><text xml:space="preserve" font-family="FiraMono-Regular,Fira Mono" font-size="46.8" fill="#FFFFFF" transform="matrix(1.00, 0.00, -0.00, -1.00, 221.2, 633.4)">t</text><text xml:space="preserve" font-family="FiraMono-Regular,Fira Mono" font-size="46.8" fill="#FFFFFF" transform="matrix(1.00, 0.00, -0.00, -1.00, 249.3, 633.4)">r</text><text xml:space="preserve" font-family="FiraMono-Regular,Fira Mono" font-size="46.8" fill="#FFFFFF" transform="matrix(1.00, 0.00, -0.00, -1.00, 277.4, 633.4)">i</text><text xml:space="preserve" font-family="FiraMono-Regular,Fira Mono" font-size="46.8" fill="#FFFFFF" transform="matrix(1.00, 0.00, -0.00, -1.00, 305.5, 633.4)">n</text><text xml:space="preserve" font-family="FiraMono-Regular,Fira Mono" font-size="46.8" fill="#FFFFFF" transform="matrix(1.00, 0.00, -0.00, -1.00, 333.6, 633.4)">g</text><text xml:space="preserve" font-family="FiraMono-Regular,Fira Mono" font-size="46.8" fill="#FFFFFF" transform="matrix(1.00, 0.00, -0.00, -1.00, 361.6, 633.4)">.</text><text xml:space="preserve" font-family="FiraMono-Regular,Fira Mono" font-size="46.8" fill="#FFFFFF" transform="matrix(1.00, 0.00, -0.00, -1.00, 389.7, 633.4)">c</text><text xml:space="preserve" font-family="FiraMono-Regular,Fira Mono" font-size="46.8" fill="#FFFFFF" transform="matrix(1.00, 0.00, -0.00, -1.00, 417.8, 633.4)">o</text><text xml:space="preserve" font-family="FiraMono-Regular,Fira Mono" font-size="46.8" fill="#FFFFFF" transform="matrix(1.00, 0.00, -0.00, -1.00, 445.9, 633.4)">n</text><text xml:space="preserve" font-family="FiraMono-Regular,Fira Mono" font-size="46.8" fill="#FFFFFF" transform="matrix(1.00, 0.00, -0.00, -1.00, 474.0, 633.4)">v</text><text xml:space="preserve" font-family="FiraMono-Regular,Fira Mono" font-size="46.8" fill="#FFFFFF" transform="matrix(1.00, 0.00, -0.00, -1.00, 502.0, 633.4)">e</text><text xml:space="preserve" font-family="FiraMono-Regular,Fira Mono" font-size="46.8" fill="#FFFFFF" transform="matrix(1.00, 0.00, -0.00, -1.00, 530.1, 633.4)">r</text><text xml:space="preserve" font-family="FiraMono-Regular,Fira Mono" font-size="46.8" fill="#FFFFFF" transform="matrix(1.00, 0.00, -0.00, -1.00, 558.2, 633.4)">t</text><text xml:space="preserve" font-family="FiraMono-Regular,Fira Mono" font-size="46.8" fill="#FFFFFF" transform="matrix(1.00, 0.00, -0.00, -1.00, 586.3, 633.4)">(</text><text xml:space="preserve" font-family="FiraMono-Regular,Fira Mono" font-size="46.8" fill="#FFFFFF" transform="matrix(1.00, 0.00, -0.00, -1.00, 614.4, 633.4)">s</text><text xml:space="preserve" font-family="FiraMono-Regular,Fira Mono" font-size="46.8" fill="#FFFFFF" transform="matrix(1.00, 0.00, -0.00, -1.00, 642.4, 633.4)">t</text><text xml:space="preserve" font-family="FiraMono-Regular,Fira Mono" font-size="46.8" fill="#FFFFFF" transform="matrix(1.00, 0.00, -0.00, -1.00, 670.5, 633.4)">y</text><text xml:space="preserve" font-family="FiraMono-Regular,Fira Mono" font-size="46.8" fill="#FFFFFF" transform="matrix(1.00, 0.00, -0.00, -1.00, 698.6, 633.4)">l</text><text xml:space="preserve" font-family="FiraMono-Regular,Fira Mono" font-size="46.8" fill="#FFFFFF" transform="matrix(1.00, 0.00, -0.00, -1.00, 726.7, 633.4)">e</text><text xml:space="preserve" font-family="FiraMono-Regular,Fira Mono" font-size="46.8" fill="#FFFFFF" transform="matrix(1.00, 0.00, -0.00, -1.00, 754.8, 633.4)">)</text><text xml:space="preserve" font-family="FiraMono-Regular,Fira Mono" font-size="46.8" fill="#FFFFFF" transform="matrix(1.00, 0.00, -0.00, -1.00, 782.8, 633.4)"> </text><text xml:space="preserve" font-family="FiraMono-Regular,Fira Mono" font-size="46.8" fill="#FFFFFF" transform="matrix(1.00, 0.00, -0.00, -1.00, 810.9, 633.4)">=</text><text xml:space="preserve" font-family="FiraMono-Regular,Fira Mono" font-size="46.8" fill="#FFFFFF" transform="matrix(1.00, 0.00, -0.00, -1.00, 839.0, 633.4)">=</text><text xml:space="preserve" font-family="FiraMono-Regular,Fira Mono" font-size="46.8" fill="#000000" transform="matrix(1.00, 0.00, -0.00, -1.00, 867.1, 633.4)"> </text><text xml:space="preserve" font-family="FiraMono-Regular,Fira Mono" font-size="46.8" fill="#FFFFFF" transform="matrix(1.00, 0.00, -0.00, -1.00, 895.2, 633.4)">e</text><text xml:space="preserve" font-family="FiraMono-Regular,Fira Mono" font-size="46.8" fill="#FFFFFF" transform="matrix(1.00, 0.00, -0.00, -1.00, 923.2, 633.4)">x</text><text xml:space="preserve" font-family="FiraMono-Regular,Fira Mono" font-size="46.8" fill="#FFFFFF" transform="matrix(1.00, 0.00, -0.00, -1.00, 951.3, 633.4)">p</text><text xml:space="preserve" font-family="FiraMono-Regular,Fira Mono" font-size="46.8" fill="#FFFFFF" transform="matrix(1.00, 0.00, -0.00, -1.00, 979.4, 633.4)">e</text><text xml:space="preserve" font-family="FiraMono-Regular,Fira Mono" font-size="46.8" fill="#FFFFFF" transform="matrix(1.00, 0.00, -0.00, -1.00, 1007.5, 633.4)">c</text><text xml:space="preserve" font-family="FiraMono-Regular,Fira Mono" font-size="46.8" fill="#FFFFFF" transform="matrix(1.00, 0.00, -0.00, -1.00, 1035.6, 633.4)">t</text><text xml:space="preserve" font-family="FiraMono-Regular,Fira Mono" font-size="46.8" fill="#FFFFFF" transform="matrix(1.00, 0.00, -0.00, -1.00, 1063.6, 633.4)">e</text><text xml:space="preserve" font-family="FiraMono-Regular,Fira Mono" font-size="46.8" fill="#FFFFFF" transform="matrix(1.00, 0.00, -0.00, -1.00, 1091.7, 633.4)">d</text><text xml:space="preserve" font-family="FiraMono-Regular,Fira Mono" font-size="46.8" fill="#FFFFFF" transform="matrix(1.00, 0.00, -0.00, -1.00, 1119.8, 633.4)"> </text><text xml:space="preserve" font-family="FiraMono-Regular,Fira Mono" font-size="46.8" fill="#FFFFFF" transform="matrix(1.00, 0.00, -0.00, -1.00, 137.0, 489.4)"> </text><text xml:space="preserve" font-family="FiraMono-Regular,Fira Mono" font-size="46.8" fill="#FFFFFF" transform="matrix(1.00, 0.00, -0.00, -1.00, 165.1, 489.4)"> </text><text xml:space="preserve" font-family="FiraMono-Regular,Fira Mono" font-size="46.8" fill="#FFFFFF" transform="matrix(1.00, 0.00, -0.00, -1.00, 193.2, 489.4)">w</text><text xml:space="preserve" font-family="FiraMono-Regular,Fira Mono" font-size="46.8" fill="#FFFFFF" transform="matrix(1.00, 0.00, -0.00, -1.00, 221.2, 489.4)">h</text><text xml:space="preserve" font-family="FiraMono-Regular,Fira Mono" font-size="46.8" fill="#FFFFFF" transform="matrix(1.00, 0.00, -0.00, -1.00, 249.3, 489.4)">e</text><text xml:space="preserve" font-family="FiraMono-Regular,Fira Mono" font-size="46.8" fill="#FFFFFF" transform="matrix(1.00, 0.00, -0.00, -1.00, 277.4, 489.4)">r</text><text xml:space="preserve" font-family="FiraMono-Regular,Fira Mono" font-size="46.8" fill="#FFFFFF" transform="matrix(1.00, 0.00, -0.00, -1.00, 305.5, 489.4)">e</text><text xml:space="preserve" font-family="FiraMono-Regular,Fira Mono" font-size="46.8" fill="#FFFFFF" transform="matrix(1.00, 0.00, -0.00, -1.00, 333.6, 489.4)">:</text><text xml:space="preserve" font-family="FiraMono-Regular,Fira Mono" font-size="46.8" fill="#000000" transform="matrix(1.00, 0.00, -0.00, -1.00, 361.6, 489.4)"> </text><text xml:space="preserve" font-family="FiraMono-Regular,Fira Mono" font-size="46.8" fill="#FFFFFF" transform="matrix(1.00, 0.00, -0.00, -1.00, 137.0, 417.4)"> </text><text xml:space="preserve" font-family="FiraMono-Regular,Fira Mono" font-size="46.8" fill="#FFFFFF" transform="matrix(1.00, 0.00, -0.00, -1.00, 165.1, 417.4)"> </text><text xml:space="preserve" font-family="FiraMono-Regular,Fira Mono" font-size="46.8" fill="#FFFFFF" transform="matrix(1.00, 0.00, -0.00, -1.00, 193.2, 417.4)">s</text><text xml:space="preserve" font-family="FiraMono-Regular,Fira Mono" font-size="46.8" fill="#FFFFFF" transform="matrix(1.00, 0.00, -0.00, -1.00, 221.2, 417.4)">t</text><text xml:space="preserve" font-family="FiraMono-Regular,Fira Mono" font-size="46.8" fill="#FFFFFF" transform="matrix(1.00, 0.00, -0.00, -1.00, 249.3, 417.4)">r</text><text xml:space="preserve" font-family="FiraMono-Regular,Fira Mono" font-size="46.8" fill="#FFFFFF" transform="matrix(1.00, 0.00, -0.00, -1.00, 277.4, 417.4)">i</text><text xml:space="preserve" font-family="FiraMono-Regular,Fira Mono" font-size="46.8" fill="#FFFFFF" transform="matrix(1.00, 0.00, -0.00, -1.00, 305.5, 417.4)">n</text><text xml:space="preserve" font-family="FiraMono-Regular,Fira Mono" font-size="46.8" fill="#FFFFFF" transform="matrix(1.00, 0.00, -0.00, -1.00, 333.6, 417.4)">g</text><text xml:space="preserve" font-family="FiraMono-Regular,Fira Mono" font-size="46.8" fill="#000000" transform="matrix(1.00, 0.00, -0.00, -1.00, 361.6, 417.4)"> </text><text xml:space="preserve" font-family="FiraMono-Regular,Fira Mono" font-size="46.8" fill="#000000" transform="matrix(1.00, 0.00, -0.00, -1.00, 389.7, 417.4)"> </text><text xml:space="preserve" font-family="FiraMono-Regular,Fira Mono" font-size="46.8" fill="#000000" transform="matrix(1.00, 0.00, -0.00, -1.00, 417.8, 417.4)"> </text><text xml:space="preserve" font-family="FiraMono-Regular,Fira Mono" font-size="46.8" fill="#000000" transform="matrix(1.00, 0.00, -0.00, -1.00, 445.9, 417.4)"> </text><text xml:space="preserve" font-family="FiraMono-Regular,Fira Mono" font-size="46.8" fill="#000000" transform="matrix(1.00, 0.00, -0.00, -1.00, 474.0, 417.4)"> </text><text xml:space="preserve" font-family="FiraMono-Regular,Fira Mono" font-size="46.8" fill="#000000" transform="matrix(1.00, 0.00, -0.00, -1.00, 502.0, 417.4)"> </text><text xml:space="preserve" font-family="FiraMono-Regular,Fira Mono" font-size="46.8" fill="#000000" transform="matrix(1.00, 0.00, -0.00, -1.00, 530.1, 417.4)"> </text><text xml:space="preserve" font-family="FiraMono-Regular,Fira Mono" font-size="46.8" fill="#000000" transform="matrix(1.00, 0.00, -0.00, -1.00, 558.2, 417.4)"> </text><text xml:space="preserve" font-family="FiraMono-Regular,Fira Mono" font-size="46.8" fill="#FFFFFF" transform="matrix(1.00, 0.00, -0.00, -1.00, 586.3, 417.4)">|</text><text xml:space="preserve" font-family="FiraMono-Regular,Fira Mono" font-size="46.8" fill="#000000" transform="matrix(1.00, 0.00, -0.00, -1.00, 614.4, 417.4)"> </text><text xml:space="preserve" font-family="FiraMono-Regular,Fira Mono" font-size="46.8" fill="#FFFFFF" transform="matrix(1.00, 0.00, -0.00, -1.00, 642.4, 417.4)">s</text><text xml:space="preserve" font-family="FiraMono-Regular,Fira Mono" font-size="46.8" fill="#FFFFFF" transform="matrix(1.00, 0.00, -0.00, -1.00, 670.5, 417.4)">t</text><text xml:space="preserve" font-family="FiraMono-Regular,Fira Mono" font-size="46.8" fill="#FFFFFF" transform="matrix(1.00, 0.00, -0.00, -1.00, 698.6, 417.4)">y</text><text xml:space="preserve" font-family="FiraMono-Regular,Fira Mono" font-size="46.8" fill="#FFFFFF" transform="matrix(1.00, 0.00, -0.00, -1.00, 726.7, 417.4)">l</text><text xml:space="preserve" font-family="FiraMono-Regular,Fira Mono" font-size="46.8" fill="#FFFFFF" transform="matrix(1.00, 0.00, -0.00, -1.00, 754.8, 417.4)">e</text><text xml:space="preserve" font-family="FiraMono-Regular,Fira Mono" font-size="46.8" fill="#000000" transform="matrix(1.00, 0.00, -0.00, -1.00, 782.8, 417.4)"> </text><text xml:space="preserve" font-family="FiraMono-Regular,Fira Mono" font-size="46.8" fill="#FFFFFF" transform="matrix(1.00, 0.00, -0.00, -1.00, 810.9, 417.4)">|</text><text xml:space="preserve" font-family="FiraMono-Regular,Fira Mono" font-size="46.8" fill="#FFFFFF" transform="matrix(1.00, 0.00, -0.00, -1.00, 839.0, 417.4)">|</text><text xml:space="preserve" font-family="FiraMono-Regular,Fira Mono" font-size="46.8" fill="#000000" transform="matrix(1.00, 0.00, -0.00, -1.00, 867.1, 417.4)"> </text><text xml:space="preserve" font-family="FiraMono-Regular,Fira Mono" font-size="46.8" fill="#FFFFFF" transform="matrix(1.00, 0.00, -0.00, -1.00, 895.2, 417.4)">e</text><text xml:space="preserve" font-family="FiraMono-Regular,Fira Mono" font-size="46.8" fill="#FFFFFF" transform="matrix(1.00, 0.00, -0.00, -1.00, 923.2, 417.4)">x</text><text xml:space="preserve" font-family="FiraMono-Regular,Fira Mono" font-size="46.8" fill="#FFFFFF" transform="matrix(1.00, 0.00, -0.00, -1.00, 951.3, 417.4)">p</text><text xml:space="preserve" font-family="FiraMono-Regular,Fira Mono" font-size="46.8" fill="#FFFFFF" transform="matrix(1.00, 0.00, -0.00, -1.00, 979.4, 417.4)">e</text><text xml:space="preserve" font-family="FiraMono-Regular,Fira Mono" font-size="46.8" fill="#FFFFFF" transform="matrix(1.00, 0.00, -0.00, -1.00, 1007.5, 417.4)">c</text><text xml:space="preserve" font-family="FiraMono-Regular,Fira Mono" font-size="46.8" fill="#FFFFFF" transform="matrix(1.00, 0.00, -0.00, -1.00, 1035.6, 417.4)">t</text><text xml:space="preserve" font-family="FiraMono-Regular,Fira Mono" font-size="46.8" fill="#FFFFFF" transform="matrix(1.00, 0.00, -0.00, -1.00, 1063.6, 417.4)">e</text><text xml:space="preserve" font-family="FiraMono-Regular,Fira Mono" font-size="46.8" fill="#FFFFFF" transform="matrix(1.00, 0.00, -0.00, -1.00, 1091.7, 417.4)">d</text><text xml:space="preserve" font-family="FiraMono-Regular,Fira Mono" font-size="46.8" fill="#000000" transform="matrix(1.00, 0.00, -0.00, -1.00, 1119.8, 417.4)"> </text><text xml:space="preserve" font-family="FiraMono-Regular,Fira Mono" font-size="46.8" fill="#000000" transform="matrix(1.00, 0.00, -0.00, -1.00, 137.0, 345.4)"> </text><text xml:space="preserve" font-family="FiraMono-Regular,Fira Mono" font-size="46.8" fill="#000000" transform="matrix(1.00, 0.00, -0.00, -1.00, 165.1, 345.4)"> </text><text xml:space="preserve" font-family="FiraMono-Regular,Fira Mono" font-size="46.8" fill="#FF2600" transform="matrix(1.00, 0.00, -0.00, -1.00, 193.2, 345.4)">"</text><text xml:space="preserve" font-family="FiraMono-Regular,Fira Mono" font-size="46.8" fill="#FF2600" transform="matrix(1.00, 0.00, -0.00, -1.00, 221.2, 345.4)">f</text><text xml:space="preserve" font-family="FiraMono-Regular,Fira Mono" font-size="46.8" fill="#FF2600" transform="matrix(1.00, 0.00, -0.00, -1.00, 249.3, 345.4)">o</text><text xml:space="preserve" font-family="FiraMono-Regular,Fira Mono" font-size="46.8" fill="#FF2600" transform="matrix(1.00, 0.00, -0.00, -1.00, 277.4, 345.4)">o</text><text xml:space="preserve" font-family="FiraMono-Regular,Fira Mono" font-size="46.8" fill="#FF2600" transform="matrix(1.00, 0.00, -0.00, -1.00, 305.5, 345.4)"> </text><text xml:space="preserve" font-family="FiraMono-Regular,Fira Mono" font-size="46.8" fill="#FF2600" transform="matrix(1.00, 0.00, -0.00, -1.00, 333.6, 345.4)">b</text><text xml:space="preserve" font-family="FiraMono-Regular,Fira Mono" font-size="46.8" fill="#FF2600" transform="matrix(1.00, 0.00, -0.00, -1.00, 361.6, 345.4)">a</text><text xml:space="preserve" font-family="FiraMono-Regular,Fira Mono" font-size="46.8" fill="#FF2600" transform="matrix(1.00, 0.00, -0.00, -1.00, 389.7, 345.4)">r</text><text xml:space="preserve" font-family="FiraMono-Regular,Fira Mono" font-size="46.8" fill="#FF2600" transform="matrix(1.00, 0.00, -0.00, -1.00, 417.8, 345.4)"> </text><text xml:space="preserve" font-family="FiraMono-Regular,Fira Mono" font-size="46.8" fill="#FF2600" transform="matrix(1.00, 0.00, -0.00, -1.00, 445.9, 345.4)">b</text><text xml:space="preserve" font-family="FiraMono-Regular,Fira Mono" font-size="46.8" fill="#FF2600" transform="matrix(1.00, 0.00, -0.00, -1.00, 474.0, 345.4)">a</text><text xml:space="preserve" font-family="FiraMono-Regular,Fira Mono" font-size="46.8" fill="#FF2600" transform="matrix(1.00, 0.00, -0.00, -1.00, 502.0, 345.4)">z</text><text xml:space="preserve" font-family="FiraMono-Regular,Fira Mono" font-size="46.8" fill="#FF2600" transform="matrix(1.00, 0.00, -0.00, -1.00, 530.1, 345.4)">"</text><text xml:space="preserve" font-family="FiraMono-Regular,Fira Mono" font-size="46.8" fill="#000000" transform="matrix(1.00, 0.00, -0.00, -1.00, 558.2, 345.4)"> </text><text xml:space="preserve" font-family="FiraMono-Regular,Fira Mono" font-size="46.8" fill="#FFFFFF" transform="matrix(1.00, 0.00, -0.00, -1.00, 586.3, 345.4)">|</text><text xml:space="preserve" font-family="FiraMono-Regular,Fira Mono" font-size="46.8" fill="#000000" transform="matrix(1.00, 0.00, -0.00, -1.00, 614.4, 345.4)"> </text><text xml:space="preserve" font-family="FiraMono-Regular,Fira Mono" font-size="46.8" fill="#FFFFFF" transform="matrix(1.00, 0.00, -0.00, -1.00, 642.4, 345.4)">C</text><text xml:space="preserve" font-family="FiraMono-Regular,Fira Mono" font-size="46.8" fill="#FFFFFF" transform="matrix(1.00, 0.00, -0.00, -1.00, 670.5, 345.4)">A</text><text xml:space="preserve" font-family="FiraMono-Regular,Fira Mono" font-size="46.8" fill="#FFFFFF" transform="matrix(1.00, 0.00, -0.00, -1.00, 698.6, 345.4)">M</text><text xml:space="preserve" font-family="FiraMono-Regular,Fira Mono" font-size="46.8" fill="#FFFFFF" transform="matrix(1.00, 0.00, -0.00, -1.00, 726.7, 345.4)">E</text><text xml:space="preserve" font-family="FiraMono-Regular,Fira Mono" font-size="46.8" fill="#FFFFFF" transform="matrix(1.00, 0.00, -0.00, -1.00, 754.8, 345.4)">L</text><text xml:space="preserve" font-family="FiraMono-Regular,Fira Mono" font-size="46.8" fill="#000000" transform="matrix(1.00, 0.00, -0.00, -1.00, 782.8, 345.4)"> </text><text xml:space="preserve" font-family="FiraMono-Regular,Fira Mono" font-size="46.8" fill="#FFFFFF" transform="matrix(1.00, 0.00, -0.00, -1.00, 810.9, 345.4)">|</text><text xml:space="preserve" font-family="FiraMono-Regular,Fira Mono" font-size="46.8" fill="#FFFFFF" transform="matrix(1.00, 0.00, -0.00, -1.00, 839.0, 345.4)">|</text><text xml:space="preserve" font-family="FiraMono-Regular,Fira Mono" font-size="46.8" fill="#000000" transform="matrix(1.00, 0.00, -0.00, -1.00, 867.1, 345.4)"> </text><text xml:space="preserve" font-family="FiraMono-Regular,Fira Mono" font-size="46.8" fill="#FF2600" transform="matrix(1.00, 0.00, -0.00, -1.00, 895.2, 345.4)">"</text><text xml:space="preserve" font-family="FiraMono-Regular,Fira Mono" font-size="46.8" fill="#FF2600" transform="matrix(1.00, 0.00, -0.00, -1.00, 923.2, 345.4)">F</text><text xml:space="preserve" font-family="FiraMono-Regular,Fira Mono" font-size="46.8" fill="#FF2600" transform="matrix(1.00, 0.00, -0.00, -1.00, 951.3, 345.4)">o</text><text xml:space="preserve" font-family="FiraMono-Regular,Fira Mono" font-size="46.8" fill="#FF2600" transform="matrix(1.00, 0.00, -0.00, -1.00, 979.4, 345.4)">o</text><text xml:space="preserve" font-family="FiraMono-Regular,Fira Mono" font-size="46.8" fill="#FF2600" transform="matrix(1.00, 0.00, -0.00, -1.00, 1007.5, 345.4)">B</text><text xml:space="preserve" font-family="FiraMono-Regular,Fira Mono" font-size="46.8" fill="#FF2600" transform="matrix(1.00, 0.00, -0.00, -1.00, 1035.6, 345.4)">a</text><text xml:space="preserve" font-family="FiraMono-Regular,Fira Mono" font-size="46.8" fill="#FF2600" transform="matrix(1.00, 0.00, -0.00, -1.00, 1063.6, 345.4)">r</text><text xml:space="preserve" font-family="FiraMono-Regular,Fira Mono" font-size="46.8" fill="#FF2600" transform="matrix(1.00, 0.00, -0.00, -1.00, 1091.7, 345.4)">B</text><text xml:space="preserve" font-family="FiraMono-Regular,Fira Mono" font-size="46.8" fill="#FF2600" transform="matrix(1.00, 0.00, -0.00, -1.00, 1119.8, 345.4)">a</text><text xml:space="preserve" font-family="FiraMono-Regular,Fira Mono" font-size="46.8" fill="#FF2600" transform="matrix(1.00, 0.00, -0.00, -1.00, 1147.9, 345.4)">z</text><text xml:space="preserve" font-family="FiraMono-Regular,Fira Mono" font-size="46.8" fill="#FF2600" transform="matrix(1.00, 0.00, -0.00, -1.00, 1176.0, 345.4)">"</text><text xml:space="preserve" font-family="FiraMono-Regular,Fira Mono" font-size="46.8" fill="#000000" transform="matrix(1.00, 0.00, -0.00, -1.00, 1204.0, 345.4)"> </text><text xml:space="preserve" font-family="FiraMono-Regular,Fira Mono" font-size="46.8" fill="#000000" transform="matrix(1.00, 0.00, -0.00, -1.00, 137.0, 273.4)"> </text><text xml:space="preserve" font-family="FiraMono-Regular,Fira Mono" font-size="46.8" fill="#000000" transform="matrix(1.00, 0.00, -0.00, -1.00, 165.1, 273.4)"> </text><text xml:space="preserve" font-family="FiraMono-Regular,Fira Mono" font-size="46.8" fill="#FF2600" transform="matrix(1.00, 0.00, -0.00, -1.00, 193.2, 273.4)">"</text><text xml:space="preserve" font-family="FiraMono-Regular,Fira Mono" font-size="46.8" fill="#FF2600" transform="matrix(1.00, 0.00, -0.00, -1.00, 221.2, 273.4)">f</text><text xml:space="preserve" font-family="FiraMono-Regular,Fira Mono" font-size="46.8" fill="#FF2600" transform="matrix(1.00, 0.00, -0.00, -1.00, 249.3, 273.4)">o</text><text xml:space="preserve" font-family="FiraMono-Regular,Fira Mono" font-size="46.8" fill="#FF2600" transform="matrix(1.00, 0.00, -0.00, -1.00, 277.4, 273.4)">o</text><text xml:space="preserve" font-family="FiraMono-Regular,Fira Mono" font-size="46.8" fill="#FF2600" transform="matrix(1.00, 0.00, -0.00, -1.00, 305.5, 273.4)"> </text><text xml:space="preserve" font-family="FiraMono-Regular,Fira Mono" font-size="46.8" fill="#FF2600" transform="matrix(1.00, 0.00, -0.00, -1.00, 333.6, 273.4)">b</text><text xml:space="preserve" font-family="FiraMono-Regular,Fira Mono" font-size="46.8" fill="#FF2600" transform="matrix(1.00, 0.00, -0.00, -1.00, 361.6, 273.4)">a</text><text xml:space="preserve" font-family="FiraMono-Regular,Fira Mono" font-size="46.8" fill="#FF2600" transform="matrix(1.00, 0.00, -0.00, -1.00, 389.7, 273.4)">r</text><text xml:space="preserve" font-family="FiraMono-Regular,Fira Mono" font-size="46.8" fill="#FF2600" transform="matrix(1.00, 0.00, -0.00, -1.00, 417.8, 273.4)"> </text><text xml:space="preserve" font-family="FiraMono-Regular,Fira Mono" font-size="46.8" fill="#FF2600" transform="matrix(1.00, 0.00, -0.00, -1.00, 445.9, 273.4)">b</text><text xml:space="preserve" font-family="FiraMono-Regular,Fira Mono" font-size="46.8" fill="#FF2600" transform="matrix(1.00, 0.00, -0.00, -1.00, 474.0, 273.4)">a</text><text xml:space="preserve" font-family="FiraMono-Regular,Fira Mono" font-size="46.8" fill="#FF2600" transform="matrix(1.00, 0.00, -0.00, -1.00, 502.0, 273.4)">z</text><text xml:space="preserve" font-family="FiraMono-Regular,Fira Mono" font-size="46.8" fill="#FF2600" transform="matrix(1.00, 0.00, -0.00, -1.00, 530.1, 273.4)">"</text><text xml:space="preserve" font-family="FiraMono-Regular,Fira Mono" font-size="46.8" fill="#000000" transform="matrix(1.00, 0.00, -0.00, -1.00, 558.2, 273.4)"> </text><text xml:space="preserve" font-family="FiraMono-Regular,Fira Mono" font-size="46.8" fill="#FFFFFF" transform="matrix(1.00, 0.00, -0.00, -1.00, 586.3, 273.4)">|</text><text xml:space="preserve" font-family="FiraMono-Regular,Fira Mono" font-size="46.8" fill="#000000" transform="matrix(1.00, 0.00, -0.00, -1.00, 614.4, 273.4)"> </text><text xml:space="preserve" font-family="FiraMono-Regular,Fira Mono" font-size="46.8" fill="#FFFFFF" transform="matrix(1.00, 0.00, -0.00, -1.00, 642.4, 273.4)">K</text><text xml:space="preserve" font-family="FiraMono-Regular,Fira Mono" font-size="46.8" fill="#FFFFFF" transform="matrix(1.00, 0.00, -0.00, -1.00, 670.5, 273.4)">E</text><text xml:space="preserve" font-family="FiraMono-Regular,Fira Mono" font-size="46.8" fill="#FFFFFF" transform="matrix(1.00, 0.00, -0.00, -1.00, 698.6, 273.4)">B</text><text xml:space="preserve" font-family="FiraMono-Regular,Fira Mono" font-size="46.8" fill="#FFFFFF" transform="matrix(1.00, 0.00, -0.00, -1.00, 726.7, 273.4)">A</text><text xml:space="preserve" font-family="FiraMono-Regular,Fira Mono" font-size="46.8" fill="#FFFFFF" transform="matrix(1.00, 0.00, -0.00, -1.00, 754.8, 273.4)">B</text><text xml:space="preserve" font-family="FiraMono-Regular,Fira Mono" font-size="46.8" fill="#000000" transform="matrix(1.00, 0.00, -0.00, -1.00, 782.8, 273.4)"> </text><text xml:space="preserve" font-family="FiraMono-Regular,Fira Mono" font-size="46.8" fill="#FFFFFF" transform="matrix(1.00, 0.00, -0.00, -1.00, 810.9, 273.4)">|</text><text xml:space="preserve" font-family="FiraMono-Regular,Fira Mono" font-size="46.8" fill="#FFFFFF" transform="matrix(1.00, 0.00, -0.00, -1.00, 839.0, 273.4)">|</text><text xml:space="preserve" font-family="FiraMono-Regular,Fira Mono" font-size="46.8" fill="#000000" transform="matrix(1.00, 0.00, -0.00, -1.00, 867.1, 273.4)"> </text><text xml:space="preserve" font-family="FiraMono-Regular,Fira Mono" font-size="46.8" fill="#FF2600" transform="matrix(1.00, 0.00, -0.00, -1.00, 895.2, 273.4)">"</text><text xml:space="preserve" font-family="FiraMono-Regular,Fira Mono" font-size="46.8" fill="#FF2600" transform="matrix(1.00, 0.00, -0.00, -1.00, 923.2, 273.4)">f</text><text xml:space="preserve" font-family="FiraMono-Regular,Fira Mono" font-size="46.8" fill="#FF2600" transform="matrix(1.00, 0.00, -0.00, -1.00, 951.3, 273.4)">o</text><text xml:space="preserve" font-family="FiraMono-Regular,Fira Mono" font-size="46.8" fill="#FF2600" transform="matrix(1.00, 0.00, -0.00, -1.00, 979.4, 273.4)">o</text><text xml:space="preserve" font-family="FiraMono-Regular,Fira Mono" font-size="46.8" fill="#FF2600" transform="matrix(1.00, 0.00, -0.00, -1.00, 1007.5, 273.4)">-</text><text xml:space="preserve" font-family="FiraMono-Regular,Fira Mono" font-size="46.8" fill="#FF2600" transform="matrix(1.00, 0.00, -0.00, -1.00, 1035.6, 273.4)">b</text><text xml:space="preserve" font-family="FiraMono-Regular,Fira Mono" font-size="46.8" fill="#FF2600" transform="matrix(1.00, 0.00, -0.00, -1.00, 1063.6, 273.4)">a</text><text xml:space="preserve" font-family="FiraMono-Regular,Fira Mono" font-size="46.8" fill="#FF2600" transform="matrix(1.00, 0.00, -0.00, -1.00, 1091.7, 273.4)">r</text><text xml:space="preserve" font-family="FiraMono-Regular,Fira Mono" font-size="46.8" fill="#FF2600" transform="matrix(1.00, 0.00, -0.00, -1.00, 1119.8, 273.4)">-</text><text xml:space="preserve" font-family="FiraMono-Regular,Fira Mono" font-size="46.8" fill="#FF2600" transform="matrix(1.00, 0.00, -0.00, -1.00, 1147.9, 273.4)">b</text><text xml:space="preserve" font-family="FiraMono-Regular,Fira Mono" font-size="46.8" fill="#FF2600" transform="matrix(1.00, 0.00, -0.00, -1.00, 1176.0, 273.4)">a</text><text xml:space="preserve" font-family="FiraMono-Regular,Fira Mono" font-size="46.8" fill="#FF2600" transform="matrix(1.00, 0.00, -0.00, -1.00, 1204.0, 273.4)">z</text><text xml:space="preserve" font-family="FiraMono-Regular,Fira Mono" font-size="46.8" fill="#FF2600" transform="matrix(1.00, 0.00, -0.00, -1.00, 1232.1, 273.4)">"</text><text xml:space="preserve" font-family="FiraMono-Regular,Fira Mono" font-size="46.8" fill="#000000" transform="matrix(1.00, 0.00, -0.00, -1.00, 1260.2, 273.4)"> </text><text xml:space="preserve" font-family="FiraMono-Regular,Fira Mono" font-size="46.8" fill="#000000" transform="matrix(1.00, 0.00, -0.00, -1.00, 137.0, 201.4)"> </text><text xml:space="preserve" font-family="FiraMono-Regular,Fira Mono" font-size="46.8" fill="#000000" transform="matrix(1.00, 0.00, -0.00, -1.00, 165.1, 201.4)"> </text><text xml:space="preserve" font-family="FiraMono-Regular,Fira Mono" font-size="46.8" fill="#FF2600" transform="matrix(1.00, 0.00, -0.00, -1.00, 193.2, 201.4)">"</text><text xml:space="preserve" font-family="FiraMono-Regular,Fira Mono" font-size="46.8" fill="#FF2600" transform="matrix(1.00, 0.00, -0.00, -1.00, 221.2, 201.4)">f</text><text xml:space="preserve" font-family="FiraMono-Regular,Fira Mono" font-size="46.8" fill="#FF2600" transform="matrix(1.00, 0.00, -0.00, -1.00, 249.3, 201.4)">o</text><text xml:space="preserve" font-family="FiraMono-Regular,Fira Mono" font-size="46.8" fill="#FF2600" transform="matrix(1.00, 0.00, -0.00, -1.00, 277.4, 201.4)">o</text><text xml:space="preserve" font-family="FiraMono-Regular,Fira Mono" font-size="46.8" fill="#FF2600" transform="matrix(1.00, 0.00, -0.00, -1.00, 305.5, 201.4)"> </text><text xml:space="preserve" font-family="FiraMono-Regular,Fira Mono" font-size="46.8" fill="#FF2600" transform="matrix(1.00, 0.00, -0.00, -1.00, 333.6, 201.4)">b</text><text xml:space="preserve" font-family="FiraMono-Regular,Fira Mono" font-size="46.8" fill="#FF2600" transform="matrix(1.00, 0.00, -0.00, -1.00, 361.6, 201.4)">a</text><text xml:space="preserve" font-family="FiraMono-Regular,Fira Mono" font-size="46.8" fill="#FF2600" transform="matrix(1.00, 0.00, -0.00, -1.00, 389.7, 201.4)">r</text><text xml:space="preserve" font-family="FiraMono-Regular,Fira Mono" font-size="46.8" fill="#FF2600" transform="matrix(1.00, 0.00, -0.00, -1.00, 417.8, 201.4)"> </text><text xml:space="preserve" font-family="FiraMono-Regular,Fira Mono" font-size="46.8" fill="#FF2600" transform="matrix(1.00, 0.00, -0.00, -1.00, 445.9, 201.4)">b</text><text xml:space="preserve" font-family="FiraMono-Regular,Fira Mono" font-size="46.8" fill="#FF2600" transform="matrix(1.00, 0.00, -0.00, -1.00, 474.0, 201.4)">a</text><text xml:space="preserve" font-family="FiraMono-Regular,Fira Mono" font-size="46.8" fill="#FF2600" transform="matrix(1.00, 0.00, -0.00, -1.00, 502.0, 201.4)">z</text><text xml:space="preserve" font-family="FiraMono-Regular,Fira Mono" font-size="46.8" fill="#FF2600" transform="matrix(1.00, 0.00, -0.00, -1.00, 530.1, 201.4)">"</text><text xml:space="preserve" font-family="FiraMono-Regular,Fira Mono" font-size="46.8" fill="#000000" transform="matrix(1.00, 0.00, -0.00, -1.00, 558.2, 201.4)"> </text><text xml:space="preserve" font-family="FiraMono-Regular,Fira Mono" font-size="46.8" fill="#FFFFFF" transform="matrix(1.00, 0.00, -0.00, -1.00, 586.3, 201.4)">|</text><text xml:space="preserve" font-family="FiraMono-Regular,Fira Mono" font-size="46.8" fill="#000000" transform="matrix(1.00, 0.00, -0.00, -1.00, 614.4, 201.4)"> </text><text xml:space="preserve" font-family="FiraMono-Regular,Fira Mono" font-size="46.8" fill="#FFFFFF" transform="matrix(1.00, 0.00, -0.00, -1.00, 642.4, 201.4)">S</text><text xml:space="preserve" font-family="FiraMono-Regular,Fira Mono" font-size="46.8" fill="#FFFFFF" transform="matrix(1.00, 0.00, -0.00, -1.00, 670.5, 201.4)">N</text><text xml:space="preserve" font-family="FiraMono-Regular,Fira Mono" font-size="46.8" fill="#FFFFFF" transform="matrix(1.00, 0.00, -0.00, -1.00, 698.6, 201.4)">A</text><text xml:space="preserve" font-family="FiraMono-Regular,Fira Mono" font-size="46.8" fill="#FFFFFF" transform="matrix(1.00, 0.00, -0.00, -1.00, 726.7, 201.4)">K</text><text xml:space="preserve" font-family="FiraMono-Regular,Fira Mono" font-size="46.8" fill="#FFFFFF" transform="matrix(1.00, 0.00, -0.00, -1.00, 754.8, 201.4)">E</text><text xml:space="preserve" font-family="FiraMono-Regular,Fira Mono" font-size="46.8" fill="#000000" transform="matrix(1.00, 0.00, -0.00, -1.00, 782.8, 201.4)"> </text><text xml:space="preserve" font-family="FiraMono-Regular,Fira Mono" font-size="46.8" fill="#FFFFFF" transform="matrix(1.00, 0.00, -0.00, -1.00, 810.9, 201.4)">|</text><text xml:space="preserve" font-family="FiraMono-Regular,Fira Mono" font-size="46.8" fill="#FFFFFF" transform="matrix(1.00, 0.00, -0.00, -1.00, 839.0, 201.4)">|</text><text xml:space="preserve" font-family="FiraMono-Regular,Fira Mono" font-size="46.8" fill="#000000" transform="matrix(1.00, 0.00, -0.00, -1.00, 867.1, 201.4)"> </text><text xml:space="preserve" font-family="FiraMono-Regular,Fira Mono" font-size="46.8" fill="#FF2600" transform="matrix(1.00, 0.00, -0.00, -1.00, 895.2, 201.4)">"</text><text xml:space="preserve" font-family="FiraMono-Regular,Fira Mono" font-size="46.8" fill="#FF2600" transform="matrix(1.00, 0.00, -0.00, -1.00, 923.2, 201.4)">f</text><text xml:space="preserve" font-family="FiraMono-Regular,Fira Mono" font-size="46.8" fill="#FF2600" transform="matrix(1.00, 0.00, -0.00, -1.00, 951.3, 201.4)">o</text><text xml:space="preserve" font-family="FiraMono-Regular,Fira Mono" font-size="46.8" fill="#FF2600" transform="matrix(1.00, 0.00, -0.00, -1.00, 979.4, 201.4)">o</text><text xml:space="preserve" font-family="FiraMono-Regular,Fira Mono" font-size="46.8" fill="#FF2600" transform="matrix(1.00, 0.00, -0.00, -1.00, 1007.5, 201.4)">_</text><text xml:space="preserve" font-family="FiraMono-Regular,Fira Mono" font-size="46.8" fill="#FF2600" transform="matrix(1.00, 0.00, -0.00, -1.00, 1035.6, 201.4)">b</text><text xml:space="preserve" font-family="FiraMono-Regular,Fira Mono" font-size="46.8" fill="#FF2600" transform="matrix(1.00, 0.00, -0.00, -1.00, 1063.6, 201.4)">a</text><text xml:space="preserve" font-family="FiraMono-Regular,Fira Mono" font-size="46.8" fill="#FF2600" transform="matrix(1.00, 0.00, -0.00, -1.00, 1091.7, 201.4)">r</text><text xml:space="preserve" font-family="FiraMono-Regular,Fira Mono" font-size="46.8" fill="#FF2600" transform="matrix(1.00, 0.00, -0.00, -1.00, 1119.8, 201.4)">_</text><text xml:space="preserve" font-family="FiraMono-Regular,Fira Mono" font-size="46.8" fill="#FF2600" transform="matrix(1.00, 0.00, -0.00, -1.00, 1147.9, 201.4)">b</text><text xml:space="preserve" font-family="FiraMono-Regular,Fira Mono" font-size="46.8" fill="#FF2600" transform="matrix(1.00, 0.00, -0.00, -1.00, 1176.0, 201.4)">a</text><text xml:space="preserve" font-family="FiraMono-Regular,Fira Mono" font-size="46.8" fill="#FF2600" transform="matrix(1.00, 0.00, -0.00, -1.00, 1204.0, 201.4)">z</text><text xml:space="preserve" font-family="FiraMono-Regular,Fira Mono" font-size="46.8" fill="#FF2600" transform="matrix(1.00, 0.00, -0.00, -1.00, 1232.1, 201.4)">"</text><text xml:space="preserve" font-family="FiraMono-Regular,Fira Mono" font-size="46.8" fill="#000000" transform="matrix(1.00, 0.00, -0.00, -1.00, 1260.2, 201.4)"> </text><text xml:space="preserve" font-family="FiraMono-Regular,Fira Mono" font-size="46.8" fill="#FFFFFF" transform="matrix(1.00, 0.00, -0.00, -1.00, 137.0, 129.4)">}</text></g></svg>