<?xml version="1.0" encoding="UTF-8" standalone="no"?><svg xmlns="http://www.w3.org/2000/svg" xmlns:xlink="http://www.w3.org/1999/xlink" clip-rule="evenodd" stroke-miterlimit="10" viewBox="0 0 1920 1080"><desc>SVG generated by Keynote</desc><defs></defs><g transform="matrix(1.00, 0.00, -0.00, -1.00, 0.0, 1080.0)"><g><clipPath id="clip0x7f84080dc5a0"><path d="M 0.0 1080.0 L 1920.0 1080.0 L 1920.0 0.0 L 0.0 0.0 Z M 0.0 1080.0 "></path></clipPath><g clip-path="url(#clip0x7f84080dc5a0)"><image xlink:href="19976D9A75EF4F08188903B2B906A34A.png" width="1920.00" height="1080.00" transform="matrix(1.00, 0.00, -0.00, -1.00, 0.0, 1080.0)"></image></g></g><text xml:space="preserve" font-family="HorizonBT-Regular,Horizon BT" font-size="128.0" fill="#FFD941" transform="matrix(1.00, 0.00, -0.00, -1.00, 622.0, 257.6)">I</text><text xml:space="preserve" font-family="HorizonBT-Regular,Horizon BT" font-size="128.0" fill="#FFD941" transform="matrix(1.00, 0.00, -0.00, -1.00, 647.4, 257.6)">D</text><text xml:space="preserve" font-family="HorizonBT-Regular,Horizon BT" font-size="128.0" fill="#FFD941" transform="matrix(1.00, 0.00, -0.00, -1.00, 697.9, 257.6)">I</text><text xml:space="preserve" font-family="HorizonBT-Regular,Horizon BT" font-size="128.0" fill="#FFD941" transform="matrix(1.00, 0.00, -0.00, -1.00, 723.3, 257.6)">O</text><text xml:space="preserve" font-family="HorizonBT-Regular,Horizon BT" font-size="128.0" fill="#FFD941" transform="matrix(1.00, 0.00, -0.00, -1.00, 773.8, 257.6)">M</text><text xml:space="preserve" font-family="HorizonBT-Regular,Horizon BT" font-size="128.0" fill="#FFD941" transform="matrix(1.00, 0.00, -0.00, -1.00, 849.4, 257.6)">A</text><text xml:space="preserve" font-family="HorizonBT-Regular,Horizon BT" font-size="128.0" fill="#FFD941" transform="matrix(1.00, 0.00, -0.00, -1.00, 900.1, 257.6)">T</text><text xml:space="preserve" font-family="HorizonBT-Regular,Horizon BT" font-size="128.0" fill="#FFD941" transform="matrix(1.00, 0.00, -0.00, -1.00, 945.1, 257.6)">I</text><text xml:space="preserve" font-family="HorizonBT-Regular,Horizon BT" font-size="128.0" fill="#FFD941" transform="matrix(1.00, 0.00, -0.00, -1.00, 970.5, 257.6)">C</text><text xml:space="preserve" font-family="HorizonBT-Regular,Horizon BT" font-size="128.0" fill="#FFD941" transform="matrix(1.00, 0.00, -0.00, -1.00, 1021.0, 257.6)"> </text><text xml:space="preserve" font-family="HorizonBT-Regular,Horizon BT" font-size="128.0" fill="#FFD941" transform="matrix(1.00, 0.00, -0.00, -1.00, 1046.4, 257.6)">S</text><text xml:space="preserve" font-family="HorizonBT-Regular,Horizon BT" font-size="128.0" fill="#FFD941" transform="matrix(1.00, 0.00, -0.00, -1.00, 1096.8, 257.6)">P</text><text xml:space="preserve" font-family="HorizonBT-Regular,Horizon BT" font-size="128.0" fill="#FFD941" transform="matrix(1.00, 0.00, -0.00, -1.00, 1146.0, 257.6)">O</text><text xml:space="preserve" font-family="HorizonBT-Regular,Horizon BT" font-size="128.0" fill="#FFD941" transform="matrix(1.00, 0.00, -0.00, -1.00, 1196.5, 257.6)">C</text><text xml:space="preserve" font-family="HorizonBT-Regular,Horizon BT" font-size="128.0" fill="#FFD941" transform="matrix(1.00, 0.00, -0.00, -1.00, 1246.9, 257.6)">K</text><image xlink:href="C81774062DEE8417F718378DDC951AB4.png" width="333.00" height="179.00" transform="matrix(1.00, 0.00, -0.00, -1.00, 23.0, 188.1)" opacity="0.70"></image><image xlink:href="1F865CF3DE35A267B5BA3A34F8D51038.png" width="720.00" height="377.00" transform="matrix(0.45, 0.00, -0.00, -0.45, 27.0, 184.8)"></image><g><clipPath id="clip0x7f840929edb0"><path d="M 1549.2 51.9 L 1894.2 51.9 L 1894.2 148.5 L 1549.2 148.5 Z M 1549.2 51.9 "></path></clipPath><g clip-path="url(#clip0x7f840929edb0)"><text xml:space="preserve" font-family="Palatino-Roman,Palatino" font-size="52.0" fill="#FEFFFF" transform="matrix(1.00, 0.00, -0.00, -1.00, 1564.0, 80.7)">@</text><text xml:space="preserve" font-family="Palatino-Roman,Palatino" font-size="52.0" fill="#FEFFFF" transform="matrix(1.00, 0.00, -0.00, -1.00, 1602.8, 80.7)">r</text><text xml:space="preserve" font-family="Palatino-Roman,Palatino" font-size="52.0" fill="#FEFFFF" transform="matrix(1.00, 0.00, -0.00, -1.00, 1623.4, 80.7)">ﬂ</text><text xml:space="preserve" font-family="Palatino-Roman,Palatino" font-size="52.0" fill="#FEFFFF" transform="matrix(1.00, 0.00, -0.00, -1.00, 1655.0, 80.7)">e</text><text xml:space="preserve" font-family="Palatino-Roman,Palatino" font-size="52.0" fill="#FEFFFF" transform="matrix(1.00, 0.00, -0.00, -1.00, 1679.9, 80.7)">t</text><text xml:space="preserve" font-family="Palatino-Roman,Palatino" font-size="52.0" fill="#FEFFFF" transform="matrix(1.00, 0.00, -0.00, -1.00, 1696.8, 80.7)">c</text><text xml:space="preserve" font-family="Palatino-Roman,Palatino" font-size="52.0" fill="#FEFFFF" transform="matrix(1.00, 0.00, -0.00, -1.00, 1719.9, 80.7)">h</text><text xml:space="preserve" font-family="Palatino-Roman,Palatino" font-size="52.0" fill="#FEFFFF" transform="matrix(1.00, 0.00, -0.00, -1.00, 1750.2, 80.7)">e</text><text xml:space="preserve" font-family="Palatino-Roman,Palatino" font-size="52.0" fill="#FEFFFF" transform="matrix(1.00, 0.00, -0.00, -1.00, 1775.1, 80.7)">r</text><text xml:space="preserve" font-family="Palatino-Roman,Palatino" font-size="52.0" fill="#FEFFFF" transform="matrix(1.00, 0.00, -0.00, -1.00, 1795.6, 80.7)">E</text><text xml:space="preserve" font-family="Palatino-Roman,Palatino" font-size="52.0" fill="#FEFFFF" transform="matrix(1.00, 0.00, -0.00, -1.00, 1827.4, 80.7)">W</text></g></g><g><clipPath id="clip0x7f84092a7050"><path d="M 1459.3 43.2 L 1569.9 43.2 L 1569.9 153.8 L 1459.3 153.8 Z M 1459.3 43.2 "></path></clipPath><g clip-path="url(#clip0x7f84092a7050)"><image xlink:href="F1FABE722C32444B572AFF3155CE36F1.png" width="111.00" height="111.00" transform="matrix(1.00, 0.00, -0.00, -1.00, 1459.3, 153.8)" opacity="0.70"></image></g></g><g><clipPath id="clip0x7f84092a7f00"><path d="M 1463.0 151.0 L 1564.0 151.0 L 1564.0 50.0 L 1463.0 50.0 Z M 1463.3 150.5 "></path></clipPath><g clip-path="url(#clip0x7f84092a7f00)"><g><clipPath id="clip0x7f84092a8620"><path d="M 1459.3 43.2 L 1569.9 43.2 L 1569.9 153.8 L 1459.3 153.8 Z M 1459.3 43.2 "></path></clipPath><g clip-path="url(#clip0x7f84092a8620)"><image xlink:href="DF66CDE00E07BF96B4AAD515D2BA14B5.png" width="300.00" height="300.00" transform="matrix(0.34, 0.00, -0.00, -0.34, 1463.3, 150.5)"></image></g></g></g></g><g><clipPath id="clip0x7f8409190190"><path d="M 826.1 51.9 L 1210.6 51.9 L 1210.6 148.5 L 826.1 148.5 Z M 826.1 51.9 "></path></clipPath><g clip-path="url(#clip0x7f8409190190)"><text xml:space="preserve" font-family="Palatino-Roman,Palatino" font-size="52.0" fill="#E6E6E6" transform="matrix(1.00, 0.00, -0.00, -1.00, 873.5, 80.6)">R</text><text xml:space="preserve" font-family="Palatino-Roman,Palatino" font-size="52.0" fill="#E6E6E6" transform="matrix(1.00, 0.00, -0.00, -1.00, 908.3, 80.6)">o</text><text xml:space="preserve" font-family="Palatino-Roman,Palatino" font-size="52.0" fill="#E6E6E6" transform="matrix(1.00, 0.00, -0.00, -1.00, 936.7, 80.6)">b</text><text xml:space="preserve" font-family="Palatino-Roman,Palatino" font-size="52.0" fill="#E6E6E6" transform="matrix(1.00, 0.00, -0.00, -1.00, 965.4, 80.6)"> </text><text xml:space="preserve" font-family="Palatino-Roman,Palatino" font-size="52.0" fill="#E6E6E6" transform="matrix(1.00, 0.00, -0.00, -1.00, 978.4, 80.6)">F</text><text xml:space="preserve" font-family="Palatino-Roman,Palatino" font-size="52.0" fill="#E6E6E6" transform="matrix(1.00, 0.00, -0.00, -1.00, 1007.4, 80.6)">l</text><text xml:space="preserve" font-family="Palatino-Roman,Palatino" font-size="52.0" fill="#E6E6E6" transform="matrix(1.00, 0.00, -0.00, -1.00, 1022.5, 80.6)">e</text><text xml:space="preserve" font-family="Palatino-Roman,Palatino" font-size="52.0" fill="#E6E6E6" transform="matrix(1.00, 0.00, -0.00, -1.00, 1047.4, 80.6)">t</text><text xml:space="preserve" font-family="Palatino-Roman,Palatino" font-size="52.0" fill="#E6E6E6" transform="matrix(1.00, 0.00, -0.00, -1.00, 1064.4, 80.6)">c</text><text xml:space="preserve" font-family="Palatino-Roman,Palatino" font-size="52.0" fill="#E6E6E6" transform="matrix(1.00, 0.00, -0.00, -1.00, 1087.5, 80.6)">h</text><text xml:space="preserve" font-family="Palatino-Roman,Palatino" font-size="52.0" fill="#E6E6E6" transform="matrix(1.00, 0.00, -0.00, -1.00, 1117.7, 80.6)">e</text><text xml:space="preserve" font-family="Palatino-Roman,Palatino" font-size="52.0" fill="#E6E6E6" transform="matrix(1.00, 0.00, -0.00, -1.00, 1142.6, 80.6)">r</text></g></g><g><clipPath id="clip0x7f8409195d20"><path d="M 720.0 168.0 L 863.0 168.0 L 863.0 33.0 L 720.0 33.0 Z M 719.7 167.8 "></path></clipPath><g clip-path="url(#clip0x7f8409195d20)"><g><clipPath id="clip0x7f84091961c0"><path d="M 719.7 33.8 C 719.9 34.4 722.5 36.2 725.6 37.7 C 728.6 39.3 732.1 41.2 733.3 42.1 C 734.6 42.9 737.1 44.3 738.9 45.3 C 744.5 48.3 747.5 50.4 751.3 54.0 C 753.4 56.0 757.3 58.7 760.1 60.1 C 762.9 61.6 766.5 64.1 768.2 65.7 C 770.9 68.3 771.2 69.3 772.0 76.2 L 773.0 83.8 L 768.5 88.5 C 758.8 98.4 756.4 105.2 760.0 112.3 C 761.6 115.4 761.6 116.1 760.4 122.4 C 759.7 126.1 759.0 132.6 758.9 136.9 C 758.8 143.7 759.1 145.3 761.0 148.9 C 766.8 159.2 781.3 165.0 807.0 167.3 C 819.7 168.5 824.2 167.6 828.6 162.8 C 832.1 159.1 832.2 158.7 831.7 154.3 C 831.3 150.7 831.6 149.1 833.0 146.8 C 834.0 145.2 834.8 143.0 834.8 142.0 C 834.8 140.9 835.6 137.8 836.6 135.0 C 839.1 127.9 839.2 123.4 836.9 118.3 C 835.0 114.1 835.0 114.0 836.7 110.2 C 838.1 107.1 838.5 104.1 838.5 96.4 C 838.5 90.9 838.2 86.2 837.9 85.8 C 837.1 85.1 836.9 84.0 836.3 77.2 C 835.6 70.0 833.9 61.1 832.8 59.1 C 831.6 56.9 834.1 54.1 840.6 50.7 C 843.3 49.2 846.7 47.2 848.2 46.1 C 849.7 45.1 853.7 42.7 857.2 41.0 C 862.5 38.2 863.0 37.4 863.0 35.2 L 863.0 33.0 L 791.4 33.0 C 735.8 33.0 719.4 32.9 719.7 33.8 "></path></clipPath><g clip-path="url(#clip0x7f84091961c0)"><g><clipPath id="clip0x7f8409196ed0"><path d="M 717.7 30.7 L 865.4 30.7 L 865.4 169.8 L 717.7 169.8 Z M 717.7 30.7 "></path></clipPath><g clip-path="url(#clip0x7f8409196ed0)"><image xlink:href="F7150126EDD7302062D212176394D3D4.jpeg" width="200.00" height="200.00" transform="matrix(0.72, 0.00, -0.00, -0.72, 719.5, 176.6)"></image></g></g></g></g></g></g><g><clipPath id="clip0x7f84091992d0"><path d="M 717.7 30.7 L 865.4 30.7 L 865.4 169.8 L 717.7 169.8 Z M 717.7 30.7 "></path></clipPath><g clip-path="url(#clip0x7f84091992d0)"><path d="M 95.4 0.0 C 93.2 -0.0 90.5 0.2 87.3 0.4 C 61.6 2.8 47.0 8.6 41.3 18.9 C 39.3 22.5 39.1 24.1 39.2 30.9 C 39.3 35.2 40.0 41.7 40.7 45.4 C 41.9 51.6 41.9 52.4 40.3 55.5 C 36.7 62.6 39.1 69.4 48.8 79.3 L 53.2 83.9 L 52.4 91.6 C 51.6 98.5 51.2 99.5 48.5 102.1 C 46.8 103.7 43.2 106.2 40.4 107.6 C 37.6 109.1 33.7 111.8 31.6 113.8 C 27.8 117.4 24.8 119.5 19.2 122.5 C 17.4 123.4 14.9 124.9 13.6 125.7 C 12.4 126.5 8.9 128.5 5.8 130.1 C 2.8 131.6 0.2 133.4 0.0 134.0 C -0.3 134.9 16.1 135.1 71.7 135.1 L 143.7 135.1 L 143.7 132.6 C 143.7 130.4 142.8 129.6 137.5 126.8 C 134.0 125.0 130.0 122.7 128.5 121.7 C 126.9 120.6 123.5 118.5 120.9 117.1 C 114.4 113.7 111.9 110.9 113.1 108.7 C 114.2 106.7 115.9 97.8 116.6 90.6 C 117.2 83.8 117.4 82.7 118.2 81.9 C 118.5 81.6 118.8 76.8 118.8 71.4 C 118.8 63.7 118.4 60.7 117.0 57.6 C 115.3 53.8 115.3 53.7 117.2 49.4 C 119.4 44.4 119.4 39.9 116.9 32.8 C 115.9 30.0 115.1 26.9 115.1 25.8 C 115.1 24.8 114.3 22.6 113.3 21.0 C 111.9 18.7 111.6 17.0 112.0 13.5 C 112.5 9.1 112.4 8.7 108.9 5.0 C 105.6 1.4 102.3 0.0 95.4 0.0 Z M 95.4 0.0 " fill="none" stroke="#F2F6F5" stroke-width="4.00" transform="matrix(1.00, 0.00, 0.00, -1.00, 719.7, 167.8)"></path></g></g></g></svg>