<?xml version="1.0" encoding="UTF-8" standalone="no"?><svg xmlns="http://www.w3.org/2000/svg" xmlns:xlink="http://www.w3.org/1999/xlink" clip-rule="evenodd" stroke-miterlimit="10" viewBox="0 0 1920 1080"><desc>SVG generated by Keynote</desc><defs></defs><g transform="matrix(1.00, 0.00, -0.00, -1.00, 0.0, 1080.0)"><g><clipPath id="clip0x7f840f0e8710"><path d="M 0.0 1080.0 L 1920.0 1080.0 L 1920.0 0.0 L 0.0 0.0 Z M 0.0 1080.0 "></path></clipPath><g clip-path="url(#clip0x7f840f0e8710)"><image xlink:href="../../BF7430C7-5211-4E68-B118-AC68FDB76F0F/assets/A81AF0278930B93F47F55E5BB6D3A023.png" width="1920.00" height="1080.00" transform="matrix(1.00, 0.00, -0.00, -1.00, 0.0, 1080.0)"></image></g></g><text xml:space="preserve" font-family="FiraMono-Regular,Fira Mono" font-size="29.6" fill="#C07B1E" transform="matrix(1.00, 0.00, -0.00, -1.00, 137.0, 898.8)">d</text><text xml:space="preserve" font-family="FiraMono-Regular,Fira Mono" font-size="29.6" fill="#C07B1E" transform="matrix(1.00, 0.00, -0.00, -1.00, 154.8, 898.8)">e</text><text xml:space="preserve" font-family="FiraMono-Regular,Fira Mono" font-size="29.6" fill="#C07B1E" transform="matrix(1.00, 0.00, -0.00, -1.00, 172.6, 898.8)">f</text><text xml:space="preserve" font-family="FiraMono-Regular,Fira Mono" font-size="29.6" fill="#000000" transform="matrix(1.00, 0.00, -0.00, -1.00, 190.4, 898.8)"> </text><text xml:space="preserve" font-family="FiraMono-Regular,Fira Mono" font-size="29.6" fill="#FF2600" transform="matrix(1.00, 0.00, -0.00, -1.00, 208.1, 898.8)">"</text><text xml:space="preserve" font-family="FiraMono-Regular,Fira Mono" font-size="29.6" fill="#FF2600" transform="matrix(1.00, 0.00, -0.00, -1.00, 225.9, 898.8)">i</text><text xml:space="preserve" font-family="FiraMono-Regular,Fira Mono" font-size="29.6" fill="#FF2600" transform="matrix(1.00, 0.00, -0.00, -1.00, 243.7, 898.8)">t</text><text xml:space="preserve" font-family="FiraMono-Regular,Fira Mono" font-size="29.6" fill="#FF2600" transform="matrix(1.00, 0.00, -0.00, -1.00, 261.5, 898.8)">e</text><text xml:space="preserve" font-family="FiraMono-Regular,Fira Mono" font-size="29.6" fill="#FF2600" transform="matrix(1.00, 0.00, -0.00, -1.00, 279.3, 898.8)">m</text><text xml:space="preserve" font-family="FiraMono-Regular,Fira Mono" font-size="29.6" fill="#FF2600" transform="matrix(1.00, 0.00, -0.00, -1.00, 297.1, 898.8)">s</text><text xml:space="preserve" font-family="FiraMono-Regular,Fira Mono" font-size="29.6" fill="#FF2600" transform="matrix(1.00, 0.00, -0.00, -1.00, 314.8, 898.8)"> </text><text xml:space="preserve" font-family="FiraMono-Regular,Fira Mono" font-size="29.6" fill="#FF2600" transform="matrix(1.00, 0.00, -0.00, -1.00, 332.6, 898.8)">c</text><text xml:space="preserve" font-family="FiraMono-Regular,Fira Mono" font-size="29.6" fill="#FF2600" transform="matrix(1.00, 0.00, -0.00, -1.00, 350.4, 898.8)">a</text><text xml:space="preserve" font-family="FiraMono-Regular,Fira Mono" font-size="29.6" fill="#FF2600" transform="matrix(1.00, 0.00, -0.00, -1.00, 368.2, 898.8)">n</text><text xml:space="preserve" font-family="FiraMono-Regular,Fira Mono" font-size="29.6" fill="#FF2600" transform="matrix(1.00, 0.00, -0.00, -1.00, 386.0, 898.8)"> </text><text xml:space="preserve" font-family="FiraMono-Regular,Fira Mono" font-size="29.6" fill="#FF2600" transform="matrix(1.00, 0.00, -0.00, -1.00, 403.8, 898.8)">b</text><text xml:space="preserve" font-family="FiraMono-Regular,Fira Mono" font-size="29.6" fill="#FF2600" transform="matrix(1.00, 0.00, -0.00, -1.00, 421.5, 898.8)">e</text><text xml:space="preserve" font-family="FiraMono-Regular,Fira Mono" font-size="29.6" fill="#FF2600" transform="matrix(1.00, 0.00, -0.00, -1.00, 439.3, 898.8)"> </text><text xml:space="preserve" font-family="FiraMono-Regular,Fira Mono" font-size="29.6" fill="#FF2600" transform="matrix(1.00, 0.00, -0.00, -1.00, 457.1, 898.8)">v</text><text xml:space="preserve" font-family="FiraMono-Regular,Fira Mono" font-size="29.6" fill="#FF2600" transform="matrix(1.00, 0.00, -0.00, -1.00, 474.9, 898.8)">i</text><text xml:space="preserve" font-family="FiraMono-Regular,Fira Mono" font-size="29.6" fill="#FF2600" transform="matrix(1.00, 0.00, -0.00, -1.00, 492.7, 898.8)">e</text><text xml:space="preserve" font-family="FiraMono-Regular,Fira Mono" font-size="29.6" fill="#FF2600" transform="matrix(1.00, 0.00, -0.00, -1.00, 510.5, 898.8)">w</text><text xml:space="preserve" font-family="FiraMono-Regular,Fira Mono" font-size="29.6" fill="#FF2600" transform="matrix(1.00, 0.00, -0.00, -1.00, 528.2, 898.8)">e</text><text xml:space="preserve" font-family="FiraMono-Regular,Fira Mono" font-size="29.6" fill="#FF2600" transform="matrix(1.00, 0.00, -0.00, -1.00, 546.0, 898.8)">d</text><text xml:space="preserve" font-family="FiraMono-Regular,Fira Mono" font-size="29.6" fill="#FF2600" transform="matrix(1.00, 0.00, -0.00, -1.00, 563.8, 898.8)"> </text><text xml:space="preserve" font-family="FiraMono-Regular,Fira Mono" font-size="29.6" fill="#FF2600" transform="matrix(1.00, 0.00, -0.00, -1.00, 581.6, 898.8)">i</text><text xml:space="preserve" font-family="FiraMono-Regular,Fira Mono" font-size="29.6" fill="#FF2600" transform="matrix(1.00, 0.00, -0.00, -1.00, 599.4, 898.8)">n</text><text xml:space="preserve" font-family="FiraMono-Regular,Fira Mono" font-size="29.6" fill="#FF2600" transform="matrix(1.00, 0.00, -0.00, -1.00, 617.2, 898.8)"> </text><text xml:space="preserve" font-family="FiraMono-Regular,Fira Mono" font-size="29.6" fill="#FF2600" transform="matrix(1.00, 0.00, -0.00, -1.00, 635.0, 898.8)">t</text><text xml:space="preserve" font-family="FiraMono-Regular,Fira Mono" font-size="29.6" fill="#FF2600" transform="matrix(1.00, 0.00, -0.00, -1.00, 652.7, 898.8)">h</text><text xml:space="preserve" font-family="FiraMono-Regular,Fira Mono" font-size="29.6" fill="#FF2600" transform="matrix(1.00, 0.00, -0.00, -1.00, 670.5, 898.8)">e</text><text xml:space="preserve" font-family="FiraMono-Regular,Fira Mono" font-size="29.6" fill="#FF2600" transform="matrix(1.00, 0.00, -0.00, -1.00, 688.3, 898.8)"> </text><text xml:space="preserve" font-family="FiraMono-Regular,Fira Mono" font-size="29.6" fill="#FF2600" transform="matrix(1.00, 0.00, -0.00, -1.00, 706.1, 898.8)">b</text><text xml:space="preserve" font-family="FiraMono-Regular,Fira Mono" font-size="29.6" fill="#FF2600" transform="matrix(1.00, 0.00, -0.00, -1.00, 723.9, 898.8)">a</text><text xml:space="preserve" font-family="FiraMono-Regular,Fira Mono" font-size="29.6" fill="#FF2600" transform="matrix(1.00, 0.00, -0.00, -1.00, 741.7, 898.8)">s</text><text xml:space="preserve" font-family="FiraMono-Regular,Fira Mono" font-size="29.6" fill="#FF2600" transform="matrix(1.00, 0.00, -0.00, -1.00, 759.4, 898.8)">k</text><text xml:space="preserve" font-family="FiraMono-Regular,Fira Mono" font-size="29.6" fill="#FF2600" transform="matrix(1.00, 0.00, -0.00, -1.00, 777.2, 898.8)">e</text><text xml:space="preserve" font-family="FiraMono-Regular,Fira Mono" font-size="29.6" fill="#FF2600" transform="matrix(1.00, 0.00, -0.00, -1.00, 795.0, 898.8)">t</text><text xml:space="preserve" font-family="FiraMono-Regular,Fira Mono" font-size="29.6" fill="#FF2600" transform="matrix(1.00, 0.00, -0.00, -1.00, 812.8, 898.8)"> </text><text xml:space="preserve" font-family="FiraMono-Regular,Fira Mono" font-size="29.6" fill="#FF2600" transform="matrix(1.00, 0.00, -0.00, -1.00, 830.6, 898.8)">a</text><text xml:space="preserve" font-family="FiraMono-Regular,Fira Mono" font-size="29.6" fill="#FF2600" transform="matrix(1.00, 0.00, -0.00, -1.00, 848.4, 898.8)">f</text><text xml:space="preserve" font-family="FiraMono-Regular,Fira Mono" font-size="29.6" fill="#FF2600" transform="matrix(1.00, 0.00, -0.00, -1.00, 866.1, 898.8)">t</text><text xml:space="preserve" font-family="FiraMono-Regular,Fira Mono" font-size="29.6" fill="#FF2600" transform="matrix(1.00, 0.00, -0.00, -1.00, 883.9, 898.8)">e</text><text xml:space="preserve" font-family="FiraMono-Regular,Fira Mono" font-size="29.6" fill="#FF2600" transform="matrix(1.00, 0.00, -0.00, -1.00, 901.7, 898.8)">r</text><text xml:space="preserve" font-family="FiraMono-Regular,Fira Mono" font-size="29.6" fill="#FF2600" transform="matrix(1.00, 0.00, -0.00, -1.00, 919.5, 898.8)"> </text><text xml:space="preserve" font-family="FiraMono-Regular,Fira Mono" font-size="29.6" fill="#FF2600" transform="matrix(1.00, 0.00, -0.00, -1.00, 937.3, 898.8)">s</text><text xml:space="preserve" font-family="FiraMono-Regular,Fira Mono" font-size="29.6" fill="#FF2600" transform="matrix(1.00, 0.00, -0.00, -1.00, 955.1, 898.8)">e</text><text xml:space="preserve" font-family="FiraMono-Regular,Fira Mono" font-size="29.6" fill="#FF2600" transform="matrix(1.00, 0.00, -0.00, -1.00, 972.8, 898.8)">l</text><text xml:space="preserve" font-family="FiraMono-Regular,Fira Mono" font-size="29.6" fill="#FF2600" transform="matrix(1.00, 0.00, -0.00, -1.00, 990.6, 898.8)">e</text><text xml:space="preserve" font-family="FiraMono-Regular,Fira Mono" font-size="29.6" fill="#FF2600" transform="matrix(1.00, 0.00, -0.00, -1.00, 1008.4, 898.8)">c</text><text xml:space="preserve" font-family="FiraMono-Regular,Fira Mono" font-size="29.6" fill="#FF2600" transform="matrix(1.00, 0.00, -0.00, -1.00, 1026.2, 898.8)">t</text><text xml:space="preserve" font-family="FiraMono-Regular,Fira Mono" font-size="29.6" fill="#FF2600" transform="matrix(1.00, 0.00, -0.00, -1.00, 1044.0, 898.8)">i</text><text xml:space="preserve" font-family="FiraMono-Regular,Fira Mono" font-size="29.6" fill="#FF2600" transform="matrix(1.00, 0.00, -0.00, -1.00, 1061.8, 898.8)">o</text><text xml:space="preserve" font-family="FiraMono-Regular,Fira Mono" font-size="29.6" fill="#FF2600" transform="matrix(1.00, 0.00, -0.00, -1.00, 1079.6, 898.8)">n</text><text xml:space="preserve" font-family="FiraMono-Regular,Fira Mono" font-size="29.6" fill="#FF2600" transform="matrix(1.00, 0.00, -0.00, -1.00, 1097.3, 898.8)">"</text><text xml:space="preserve" font-family="FiraMono-Regular,Fira Mono" font-size="29.6" fill="#FFFFFF" transform="matrix(1.00, 0.00, -0.00, -1.00, 1115.1, 898.8)">(</text><text xml:space="preserve" font-family="FiraMono-Regular,Fira Mono" font-size="29.6" fill="#FFFFFF" transform="matrix(1.00, 0.00, -0.00, -1.00, 1132.9, 898.8)">)</text><text xml:space="preserve" font-family="FiraMono-Regular,Fira Mono" font-size="29.6" fill="#FFFFFF" transform="matrix(1.00, 0.00, -0.00, -1.00, 1150.7, 898.8)"> </text><text xml:space="preserve" font-family="FiraMono-Regular,Fira Mono" font-size="29.6" fill="#FFFFFF" transform="matrix(1.00, 0.00, -0.00, -1.00, 1168.5, 898.8)">{</text><text xml:space="preserve" font-family="FiraMono-Regular,Fira Mono" font-size="29.6" fill="#000000" transform="matrix(1.00, 0.00, -0.00, -1.00, 1186.3, 898.8)"> </text><text xml:space="preserve" font-family="FiraMono-Regular,Fira Mono" font-size="29.6" fill="#FFFFFF" transform="matrix(1.00, 0.00, -0.00, -1.00, 137.0, 852.8)"> </text><text xml:space="preserve" font-family="FiraMono-Regular,Fira Mono" font-size="29.6" fill="#FFFFFF" transform="matrix(1.00, 0.00, -0.00, -1.00, 154.8, 852.8)"> </text><text xml:space="preserve" font-family="FiraMono-Regular,Fira Mono" font-size="29.6" fill="#FFFFFF" transform="matrix(1.00, 0.00, -0.00, -1.00, 172.6, 852.8)">g</text><text xml:space="preserve" font-family="FiraMono-Regular,Fira Mono" font-size="29.6" fill="#FFFFFF" transform="matrix(1.00, 0.00, -0.00, -1.00, 190.4, 852.8)">i</text><text xml:space="preserve" font-family="FiraMono-Regular,Fira Mono" font-size="29.6" fill="#FFFFFF" transform="matrix(1.00, 0.00, -0.00, -1.00, 208.1, 852.8)">v</text><text xml:space="preserve" font-family="FiraMono-Regular,Fira Mono" font-size="29.6" fill="#FFFFFF" transform="matrix(1.00, 0.00, -0.00, -1.00, 225.9, 852.8)">e</text><text xml:space="preserve" font-family="FiraMono-Regular,Fira Mono" font-size="29.6" fill="#FFFFFF" transform="matrix(1.00, 0.00, -0.00, -1.00, 243.7, 852.8)">n</text><text xml:space="preserve" font-family="FiraMono-Regular,Fira Mono" font-size="29.6" fill="#FFFFFF" transform="matrix(1.00, 0.00, -0.00, -1.00, 261.5, 852.8)">:</text><text xml:space="preserve" font-family="FiraMono-Regular,Fira Mono" font-size="29.6" fill="#000000" transform="matrix(1.00, 0.00, -0.00, -1.00, 279.3, 852.8)"> </text><text xml:space="preserve" font-family="FiraMono-Regular,Fira Mono" font-size="29.6" fill="#FFFFFF" transform="matrix(1.00, 0.00, -0.00, -1.00, 137.0, 806.8)"> </text><text xml:space="preserve" font-family="FiraMono-Regular,Fira Mono" font-size="29.6" fill="#FFFFFF" transform="matrix(1.00, 0.00, -0.00, -1.00, 154.8, 806.8)"> </text><text xml:space="preserve" font-family="FiraMono-Regular,Fira Mono" font-size="29.6" fill="#FFFFFF" transform="matrix(1.00, 0.00, -0.00, -1.00, 172.6, 806.8)">p</text><text xml:space="preserve" font-family="FiraMono-Regular,Fira Mono" font-size="29.6" fill="#FFFFFF" transform="matrix(1.00, 0.00, -0.00, -1.00, 190.4, 806.8)">r</text><text xml:space="preserve" font-family="FiraMono-Regular,Fira Mono" font-size="29.6" fill="#FFFFFF" transform="matrix(1.00, 0.00, -0.00, -1.00, 208.1, 806.8)">o</text><text xml:space="preserve" font-family="FiraMono-Regular,Fira Mono" font-size="29.6" fill="#FFFFFF" transform="matrix(1.00, 0.00, -0.00, -1.00, 225.9, 806.8)">d</text><text xml:space="preserve" font-family="FiraMono-Regular,Fira Mono" font-size="29.6" fill="#FFFFFF" transform="matrix(1.00, 0.00, -0.00, -1.00, 243.7, 806.8)">u</text><text xml:space="preserve" font-family="FiraMono-Regular,Fira Mono" font-size="29.6" fill="#FFFFFF" transform="matrix(1.00, 0.00, -0.00, -1.00, 261.5, 806.8)">c</text><text xml:space="preserve" font-family="FiraMono-Regular,Fira Mono" font-size="29.6" fill="#FFFFFF" transform="matrix(1.00, 0.00, -0.00, -1.00, 279.3, 806.8)">t</text><text xml:space="preserve" font-family="FiraMono-Regular,Fira Mono" font-size="29.6" fill="#FFFFFF" transform="matrix(1.00, 0.00, -0.00, -1.00, 297.1, 806.8)">s</text><text xml:space="preserve" font-family="FiraMono-Regular,Fira Mono" font-size="29.6" fill="#FFFFFF" transform="matrix(1.00, 0.00, -0.00, -1.00, 314.8, 806.8)">.</text><text xml:space="preserve" font-family="FiraMono-Regular,Fira Mono" font-size="29.6" fill="#FFFFFF" transform="matrix(1.00, 0.00, -0.00, -1.00, 332.6, 806.8)">e</text><text xml:space="preserve" font-family="FiraMono-Regular,Fira Mono" font-size="29.6" fill="#FFFFFF" transform="matrix(1.00, 0.00, -0.00, -1.00, 350.4, 806.8)">a</text><text xml:space="preserve" font-family="FiraMono-Regular,Fira Mono" font-size="29.6" fill="#FFFFFF" transform="matrix(1.00, 0.00, -0.00, -1.00, 368.2, 806.8)">c</text><text xml:space="preserve" font-family="FiraMono-Regular,Fira Mono" font-size="29.6" fill="#FFFFFF" transform="matrix(1.00, 0.00, -0.00, -1.00, 386.0, 806.8)">h</text><text xml:space="preserve" font-family="FiraMono-Regular,Fira Mono" font-size="29.6" fill="#000000" transform="matrix(1.00, 0.00, -0.00, -1.00, 403.8, 806.8)"> </text><text xml:space="preserve" font-family="FiraMono-Regular,Fira Mono" font-size="29.6" fill="#FFFFFF" transform="matrix(1.00, 0.00, -0.00, -1.00, 421.5, 806.8)">{</text><text xml:space="preserve" font-family="FiraMono-Regular,Fira Mono" font-size="29.6" fill="#000000" transform="matrix(1.00, 0.00, -0.00, -1.00, 439.3, 806.8)"> </text><text xml:space="preserve" font-family="FiraMono-Regular,Fira Mono" font-size="29.6" fill="#FFFFFF" transform="matrix(1.00, 0.00, -0.00, -1.00, 137.0, 760.8)"> </text><text xml:space="preserve" font-family="FiraMono-Regular,Fira Mono" font-size="29.6" fill="#FFFFFF" transform="matrix(1.00, 0.00, -0.00, -1.00, 154.8, 760.8)"> </text><text xml:space="preserve" font-family="FiraMono-Regular,Fira Mono" font-size="29.6" fill="#FFFFFF" transform="matrix(1.00, 0.00, -0.00, -1.00, 172.6, 760.8)"> </text><text xml:space="preserve" font-family="FiraMono-Regular,Fira Mono" font-size="29.6" fill="#FFFFFF" transform="matrix(1.00, 0.00, -0.00, -1.00, 190.4, 760.8)"> </text><text xml:space="preserve" font-family="FiraMono-Regular,Fira Mono" font-size="29.6" fill="#FFFFFF" transform="matrix(1.00, 0.00, -0.00, -1.00, 208.1, 760.8)">t</text><text xml:space="preserve" font-family="FiraMono-Regular,Fira Mono" font-size="29.6" fill="#FFFFFF" transform="matrix(1.00, 0.00, -0.00, -1.00, 225.9, 760.8)">o</text><text xml:space="preserve" font-family="FiraMono-Regular,Fira Mono" font-size="29.6" fill="#FFFFFF" transform="matrix(1.00, 0.00, -0.00, -1.00, 243.7, 760.8)"> </text><text xml:space="preserve" font-family="FiraMono-Regular,Fira Mono" font-size="29.6" fill="#FFFFFF" transform="matrix(1.00, 0.00, -0.00, -1.00, 261.5, 760.8)">P</text><text xml:space="preserve" font-family="FiraMono-Regular,Fira Mono" font-size="29.6" fill="#FFFFFF" transform="matrix(1.00, 0.00, -0.00, -1.00, 279.3, 760.8)">r</text><text xml:space="preserve" font-family="FiraMono-Regular,Fira Mono" font-size="29.6" fill="#FFFFFF" transform="matrix(1.00, 0.00, -0.00, -1.00, 297.1, 760.8)">o</text><text xml:space="preserve" font-family="FiraMono-Regular,Fira Mono" font-size="29.6" fill="#FFFFFF" transform="matrix(1.00, 0.00, -0.00, -1.00, 314.8, 760.8)">d</text><text xml:space="preserve" font-family="FiraMono-Regular,Fira Mono" font-size="29.6" fill="#FFFFFF" transform="matrix(1.00, 0.00, -0.00, -1.00, 332.6, 760.8)">u</text><text xml:space="preserve" font-family="FiraMono-Regular,Fira Mono" font-size="29.6" fill="#FFFFFF" transform="matrix(1.00, 0.00, -0.00, -1.00, 350.4, 760.8)">c</text><text xml:space="preserve" font-family="FiraMono-Regular,Fira Mono" font-size="29.6" fill="#FFFFFF" transform="matrix(1.00, 0.00, -0.00, -1.00, 368.2, 760.8)">t</text><text xml:space="preserve" font-family="FiraMono-Regular,Fira Mono" font-size="29.6" fill="#FFFFFF" transform="matrix(1.00, 0.00, -0.00, -1.00, 386.0, 760.8)">P</text><text xml:space="preserve" font-family="FiraMono-Regular,Fira Mono" font-size="29.6" fill="#FFFFFF" transform="matrix(1.00, 0.00, -0.00, -1.00, 403.8, 760.8)">a</text><text xml:space="preserve" font-family="FiraMono-Regular,Fira Mono" font-size="29.6" fill="#FFFFFF" transform="matrix(1.00, 0.00, -0.00, -1.00, 421.5, 760.8)">g</text><text xml:space="preserve" font-family="FiraMono-Regular,Fira Mono" font-size="29.6" fill="#FFFFFF" transform="matrix(1.00, 0.00, -0.00, -1.00, 439.3, 760.8)">e</text><text xml:space="preserve" font-family="FiraMono-Regular,Fira Mono" font-size="29.6" fill="#FFFFFF" transform="matrix(1.00, 0.00, -0.00, -1.00, 457.1, 760.8)">,</text><text xml:space="preserve" font-family="FiraMono-Regular,Fira Mono" font-size="29.6" fill="#000000" transform="matrix(1.00, 0.00, -0.00, -1.00, 474.9, 760.8)"> </text><text xml:space="preserve" font-family="FiraMono-Regular,Fira Mono" font-size="29.6" fill="#FFFFFF" transform="matrix(1.00, 0.00, -0.00, -1.00, 492.7, 760.8)">i</text><text xml:space="preserve" font-family="FiraMono-Regular,Fira Mono" font-size="29.6" fill="#FFFFFF" transform="matrix(1.00, 0.00, -0.00, -1.00, 510.5, 760.8)">t</text><text xml:space="preserve" font-family="FiraMono-Regular,Fira Mono" font-size="29.6" fill="#000000" transform="matrix(1.00, 0.00, -0.00, -1.00, 528.2, 760.8)"> </text><text xml:space="preserve" font-family="FiraMono-Regular,Fira Mono" font-size="29.6" fill="#000000" transform="matrix(1.00, 0.00, -0.00, -1.00, 137.0, 714.8)"> </text><text xml:space="preserve" font-family="FiraMono-Regular,Fira Mono" font-size="29.6" fill="#000000" transform="matrix(1.00, 0.00, -0.00, -1.00, 154.8, 714.8)"> </text><text xml:space="preserve" font-family="FiraMono-Regular,Fira Mono" font-size="29.6" fill="#000000" transform="matrix(1.00, 0.00, -0.00, -1.00, 172.6, 714.8)"> </text><text xml:space="preserve" font-family="FiraMono-Regular,Fira Mono" font-size="29.6" fill="#000000" transform="matrix(1.00, 0.00, -0.00, -1.00, 190.4, 714.8)"> </text><text xml:space="preserve" font-family="FiraMono-Regular,Fira Mono" font-size="29.6" fill="#FFFFFF" transform="matrix(1.00, 0.00, -0.00, -1.00, 208.1, 714.8)">a</text><text xml:space="preserve" font-family="FiraMono-Regular,Fira Mono" font-size="29.6" fill="#FFFFFF" transform="matrix(1.00, 0.00, -0.00, -1.00, 225.9, 714.8)">d</text><text xml:space="preserve" font-family="FiraMono-Regular,Fira Mono" font-size="29.6" fill="#FFFFFF" transform="matrix(1.00, 0.00, -0.00, -1.00, 243.7, 714.8)">d</text><text xml:space="preserve" font-family="FiraMono-Regular,Fira Mono" font-size="29.6" fill="#FFFFFF" transform="matrix(1.00, 0.00, -0.00, -1.00, 261.5, 714.8)">T</text><text xml:space="preserve" font-family="FiraMono-Regular,Fira Mono" font-size="29.6" fill="#FFFFFF" transform="matrix(1.00, 0.00, -0.00, -1.00, 279.3, 714.8)">o</text><text xml:space="preserve" font-family="FiraMono-Regular,Fira Mono" font-size="29.6" fill="#FFFFFF" transform="matrix(1.00, 0.00, -0.00, -1.00, 297.1, 714.8)">B</text><text xml:space="preserve" font-family="FiraMono-Regular,Fira Mono" font-size="29.6" fill="#FFFFFF" transform="matrix(1.00, 0.00, -0.00, -1.00, 314.8, 714.8)">a</text><text xml:space="preserve" font-family="FiraMono-Regular,Fira Mono" font-size="29.6" fill="#FFFFFF" transform="matrix(1.00, 0.00, -0.00, -1.00, 332.6, 714.8)">s</text><text xml:space="preserve" font-family="FiraMono-Regular,Fira Mono" font-size="29.6" fill="#FFFFFF" transform="matrix(1.00, 0.00, -0.00, -1.00, 350.4, 714.8)">k</text><text xml:space="preserve" font-family="FiraMono-Regular,Fira Mono" font-size="29.6" fill="#FFFFFF" transform="matrix(1.00, 0.00, -0.00, -1.00, 368.2, 714.8)">e</text><text xml:space="preserve" font-family="FiraMono-Regular,Fira Mono" font-size="29.6" fill="#FFFFFF" transform="matrix(1.00, 0.00, -0.00, -1.00, 386.0, 714.8)">t</text><text xml:space="preserve" font-family="FiraMono-Regular,Fira Mono" font-size="29.6" fill="#FFFFFF" transform="matrix(1.00, 0.00, -0.00, -1.00, 403.8, 714.8)">(</text><text xml:space="preserve" font-family="FiraMono-Regular,Fira Mono" font-size="29.6" fill="#FFFFFF" transform="matrix(1.00, 0.00, -0.00, -1.00, 421.5, 714.8)">)</text><text xml:space="preserve" font-family="FiraMono-Regular,Fira Mono" font-size="29.6" fill="#000000" transform="matrix(1.00, 0.00, -0.00, -1.00, 439.3, 714.8)"> </text><text xml:space="preserve" font-family="FiraMono-Regular,Fira Mono" font-size="29.6" fill="#000000" transform="matrix(1.00, 0.00, -0.00, -1.00, 137.0, 668.8)"> </text><text xml:space="preserve" font-family="FiraMono-Regular,Fira Mono" font-size="29.6" fill="#000000" transform="matrix(1.00, 0.00, -0.00, -1.00, 154.8, 668.8)"> </text><text xml:space="preserve" font-family="FiraMono-Regular,Fira Mono" font-size="29.6" fill="#FFFFFF" transform="matrix(1.00, 0.00, -0.00, -1.00, 172.6, 668.8)">}</text><text xml:space="preserve" font-family="FiraMono-Regular,Fira Mono" font-size="29.6" fill="#000000" transform="matrix(1.00, 0.00, -0.00, -1.00, 190.4, 668.8)"> </text><text xml:space="preserve" font-family="FiraMono-Regular,Fira Mono" font-size="29.6" fill="#FFFFFF" transform="matrix(1.00, 0.00, -0.00, -1.00, 137.0, 576.8)"> </text><text xml:space="preserve" font-family="FiraMono-Regular,Fira Mono" font-size="29.6" fill="#FFFFFF" transform="matrix(1.00, 0.00, -0.00, -1.00, 154.8, 576.8)"> </text><text xml:space="preserve" font-family="FiraMono-Regular,Fira Mono" font-size="29.6" fill="#FFFFFF" transform="matrix(1.00, 0.00, -0.00, -1.00, 172.6, 576.8)">w</text><text xml:space="preserve" font-family="FiraMono-Regular,Fira Mono" font-size="29.6" fill="#FFFFFF" transform="matrix(1.00, 0.00, -0.00, -1.00, 190.4, 576.8)">h</text><text xml:space="preserve" font-family="FiraMono-Regular,Fira Mono" font-size="29.6" fill="#FFFFFF" transform="matrix(1.00, 0.00, -0.00, -1.00, 208.1, 576.8)">e</text><text xml:space="preserve" font-family="FiraMono-Regular,Fira Mono" font-size="29.6" fill="#FFFFFF" transform="matrix(1.00, 0.00, -0.00, -1.00, 225.9, 576.8)">n</text><text xml:space="preserve" font-family="FiraMono-Regular,Fira Mono" font-size="29.6" fill="#FFFFFF" transform="matrix(1.00, 0.00, -0.00, -1.00, 243.7, 576.8)">:</text><text xml:space="preserve" font-family="FiraMono-Regular,Fira Mono" font-size="29.6" fill="#000000" transform="matrix(1.00, 0.00, -0.00, -1.00, 261.5, 576.8)"> </text><text xml:space="preserve" font-family="FiraMono-Regular,Fira Mono" font-size="29.6" fill="#FFFFFF" transform="matrix(1.00, 0.00, -0.00, -1.00, 137.0, 530.8)"> </text><text xml:space="preserve" font-family="FiraMono-Regular,Fira Mono" font-size="29.6" fill="#FFFFFF" transform="matrix(1.00, 0.00, -0.00, -1.00, 154.8, 530.8)"> </text><text xml:space="preserve" font-family="FiraMono-Regular,Fira Mono" font-size="29.6" fill="#FFFFFF" transform="matrix(1.00, 0.00, -0.00, -1.00, 172.6, 530.8)">t</text><text xml:space="preserve" font-family="FiraMono-Regular,Fira Mono" font-size="29.6" fill="#FFFFFF" transform="matrix(1.00, 0.00, -0.00, -1.00, 190.4, 530.8)">o</text><text xml:space="preserve" font-family="FiraMono-Regular,Fira Mono" font-size="29.6" fill="#FFFFFF" transform="matrix(1.00, 0.00, -0.00, -1.00, 208.1, 530.8)"> </text><text xml:space="preserve" font-family="FiraMono-Regular,Fira Mono" font-size="29.6" fill="#FFFFFF" transform="matrix(1.00, 0.00, -0.00, -1.00, 225.9, 530.8)">B</text><text xml:space="preserve" font-family="FiraMono-Regular,Fira Mono" font-size="29.6" fill="#FFFFFF" transform="matrix(1.00, 0.00, -0.00, -1.00, 243.7, 530.8)">a</text><text xml:space="preserve" font-family="FiraMono-Regular,Fira Mono" font-size="29.6" fill="#FFFFFF" transform="matrix(1.00, 0.00, -0.00, -1.00, 261.5, 530.8)">s</text><text xml:space="preserve" font-family="FiraMono-Regular,Fira Mono" font-size="29.6" fill="#FFFFFF" transform="matrix(1.00, 0.00, -0.00, -1.00, 279.3, 530.8)">k</text><text xml:space="preserve" font-family="FiraMono-Regular,Fira Mono" font-size="29.6" fill="#FFFFFF" transform="matrix(1.00, 0.00, -0.00, -1.00, 297.1, 530.8)">e</text><text xml:space="preserve" font-family="FiraMono-Regular,Fira Mono" font-size="29.6" fill="#FFFFFF" transform="matrix(1.00, 0.00, -0.00, -1.00, 314.8, 530.8)">t</text><text xml:space="preserve" font-family="FiraMono-Regular,Fira Mono" font-size="29.6" fill="#FFFFFF" transform="matrix(1.00, 0.00, -0.00, -1.00, 332.6, 530.8)">P</text><text xml:space="preserve" font-family="FiraMono-Regular,Fira Mono" font-size="29.6" fill="#FFFFFF" transform="matrix(1.00, 0.00, -0.00, -1.00, 350.4, 530.8)">a</text><text xml:space="preserve" font-family="FiraMono-Regular,Fira Mono" font-size="29.6" fill="#FFFFFF" transform="matrix(1.00, 0.00, -0.00, -1.00, 368.2, 530.8)">g</text><text xml:space="preserve" font-family="FiraMono-Regular,Fira Mono" font-size="29.6" fill="#FFFFFF" transform="matrix(1.00, 0.00, -0.00, -1.00, 386.0, 530.8)">e</text><text xml:space="preserve" font-family="FiraMono-Regular,Fira Mono" font-size="29.6" fill="#FFFFFF" transform="matrix(1.00, 0.00, -0.00, -1.00, 403.8, 530.8)"> </text><text xml:space="preserve" font-family="FiraMono-Regular,Fira Mono" font-size="29.6" fill="#FFFFFF" transform="matrix(1.00, 0.00, -0.00, -1.00, 137.0, 438.8)"> </text><text xml:space="preserve" font-family="FiraMono-Regular,Fira Mono" font-size="29.6" fill="#FFFFFF" transform="matrix(1.00, 0.00, -0.00, -1.00, 154.8, 438.8)"> </text><text xml:space="preserve" font-family="FiraMono-Regular,Fira Mono" font-size="29.6" fill="#FFFFFF" transform="matrix(1.00, 0.00, -0.00, -1.00, 172.6, 438.8)">t</text><text xml:space="preserve" font-family="FiraMono-Regular,Fira Mono" font-size="29.6" fill="#FFFFFF" transform="matrix(1.00, 0.00, -0.00, -1.00, 190.4, 438.8)">h</text><text xml:space="preserve" font-family="FiraMono-Regular,Fira Mono" font-size="29.6" fill="#FFFFFF" transform="matrix(1.00, 0.00, -0.00, -1.00, 208.1, 438.8)">e</text><text xml:space="preserve" font-family="FiraMono-Regular,Fira Mono" font-size="29.6" fill="#FFFFFF" transform="matrix(1.00, 0.00, -0.00, -1.00, 225.9, 438.8)">n</text><text xml:space="preserve" font-family="FiraMono-Regular,Fira Mono" font-size="29.6" fill="#FFFFFF" transform="matrix(1.00, 0.00, -0.00, -1.00, 243.7, 438.8)">:</text><text xml:space="preserve" font-family="FiraMono-Regular,Fira Mono" font-size="29.6" fill="#000000" transform="matrix(1.00, 0.00, -0.00, -1.00, 261.5, 438.8)"> </text><text xml:space="preserve" font-family="FiraMono-Regular,Fira Mono" font-size="29.6" fill="#FFFFFF" transform="matrix(1.00, 0.00, -0.00, -1.00, 137.0, 392.8)"> </text><text xml:space="preserve" font-family="FiraMono-Regular,Fira Mono" font-size="29.6" fill="#FFFFFF" transform="matrix(1.00, 0.00, -0.00, -1.00, 154.8, 392.8)"> </text><text xml:space="preserve" font-family="FiraMono-Regular,Fira Mono" font-size="29.6" fill="#FFFFFF" transform="matrix(1.00, 0.00, -0.00, -1.00, 172.6, 392.8)">b</text><text xml:space="preserve" font-family="FiraMono-Regular,Fira Mono" font-size="29.6" fill="#FFFFFF" transform="matrix(1.00, 0.00, -0.00, -1.00, 190.4, 392.8)">a</text><text xml:space="preserve" font-family="FiraMono-Regular,Fira Mono" font-size="29.6" fill="#FFFFFF" transform="matrix(1.00, 0.00, -0.00, -1.00, 208.1, 392.8)">s</text><text xml:space="preserve" font-family="FiraMono-Regular,Fira Mono" font-size="29.6" fill="#FFFFFF" transform="matrix(1.00, 0.00, -0.00, -1.00, 225.9, 392.8)">k</text><text xml:space="preserve" font-family="FiraMono-Regular,Fira Mono" font-size="29.6" fill="#FFFFFF" transform="matrix(1.00, 0.00, -0.00, -1.00, 243.7, 392.8)">e</text><text xml:space="preserve" font-family="FiraMono-Regular,Fira Mono" font-size="29.6" fill="#FFFFFF" transform="matrix(1.00, 0.00, -0.00, -1.00, 261.5, 392.8)">t</text><text xml:space="preserve" font-family="FiraMono-Regular,Fira Mono" font-size="29.6" fill="#FFFFFF" transform="matrix(1.00, 0.00, -0.00, -1.00, 279.3, 392.8)">.</text><text xml:space="preserve" font-family="FiraMono-Regular,Fira Mono" font-size="29.6" fill="#FFFFFF" transform="matrix(1.00, 0.00, -0.00, -1.00, 297.1, 392.8)">s</text><text xml:space="preserve" font-family="FiraMono-Regular,Fira Mono" font-size="29.6" fill="#FFFFFF" transform="matrix(1.00, 0.00, -0.00, -1.00, 314.8, 392.8)">i</text><text xml:space="preserve" font-family="FiraMono-Regular,Fira Mono" font-size="29.6" fill="#FFFFFF" transform="matrix(1.00, 0.00, -0.00, -1.00, 332.6, 392.8)">z</text><text xml:space="preserve" font-family="FiraMono-Regular,Fira Mono" font-size="29.6" fill="#FFFFFF" transform="matrix(1.00, 0.00, -0.00, -1.00, 350.4, 392.8)">e</text><text xml:space="preserve" font-family="FiraMono-Regular,Fira Mono" font-size="29.6" fill="#FFFFFF" transform="matrix(1.00, 0.00, -0.00, -1.00, 368.2, 392.8)">(</text><text xml:space="preserve" font-family="FiraMono-Regular,Fira Mono" font-size="29.6" fill="#FFFFFF" transform="matrix(1.00, 0.00, -0.00, -1.00, 386.0, 392.8)">)</text><text xml:space="preserve" font-family="FiraMono-Regular,Fira Mono" font-size="29.6" fill="#FFFFFF" transform="matrix(1.00, 0.00, -0.00, -1.00, 403.8, 392.8)"> </text><text xml:space="preserve" font-family="FiraMono-Regular,Fira Mono" font-size="29.6" fill="#FFFFFF" transform="matrix(1.00, 0.00, -0.00, -1.00, 421.5, 392.8)">=</text><text xml:space="preserve" font-family="FiraMono-Regular,Fira Mono" font-size="29.6" fill="#FFFFFF" transform="matrix(1.00, 0.00, -0.00, -1.00, 439.3, 392.8)">=</text><text xml:space="preserve" font-family="FiraMono-Regular,Fira Mono" font-size="29.6" fill="#000000" transform="matrix(1.00, 0.00, -0.00, -1.00, 457.1, 392.8)"> </text><text xml:space="preserve" font-family="FiraMono-Regular,Fira Mono" font-size="29.6" fill="#FF2600" transform="matrix(1.00, 0.00, -0.00, -1.00, 474.9, 392.8)">3</text><text xml:space="preserve" font-family="FiraMono-Regular,Fira Mono" font-size="29.6" fill="#000000" transform="matrix(1.00, 0.00, -0.00, -1.00, 492.7, 392.8)"> </text><text xml:space="preserve" font-family="FiraMono-Regular,Fira Mono" font-size="29.6" fill="#FFFFFF" transform="matrix(1.00, 0.00, -0.00, -1.00, 137.0, 346.8)"> </text><text xml:space="preserve" font-family="FiraMono-Regular,Fira Mono" font-size="29.6" fill="#FFFFFF" transform="matrix(1.00, 0.00, -0.00, -1.00, 154.8, 346.8)"> </text><text xml:space="preserve" font-family="FiraMono-Regular,Fira Mono" font-size="29.6" fill="#FFFFFF" transform="matrix(1.00, 0.00, -0.00, -1.00, 172.6, 346.8)">b</text><text xml:space="preserve" font-family="FiraMono-Regular,Fira Mono" font-size="29.6" fill="#FFFFFF" transform="matrix(1.00, 0.00, -0.00, -1.00, 190.4, 346.8)">a</text><text xml:space="preserve" font-family="FiraMono-Regular,Fira Mono" font-size="29.6" fill="#FFFFFF" transform="matrix(1.00, 0.00, -0.00, -1.00, 208.1, 346.8)">s</text><text xml:space="preserve" font-family="FiraMono-Regular,Fira Mono" font-size="29.6" fill="#FFFFFF" transform="matrix(1.00, 0.00, -0.00, -1.00, 225.9, 346.8)">k</text><text xml:space="preserve" font-family="FiraMono-Regular,Fira Mono" font-size="29.6" fill="#FFFFFF" transform="matrix(1.00, 0.00, -0.00, -1.00, 243.7, 346.8)">e</text><text xml:space="preserve" font-family="FiraMono-Regular,Fira Mono" font-size="29.6" fill="#FFFFFF" transform="matrix(1.00, 0.00, -0.00, -1.00, 261.5, 346.8)">t</text><text xml:space="preserve" font-family="FiraMono-Regular,Fira Mono" font-size="29.6" fill="#FFFFFF" transform="matrix(1.00, 0.00, -0.00, -1.00, 279.3, 346.8)">.</text><text xml:space="preserve" font-family="FiraMono-Regular,Fira Mono" font-size="29.6" fill="#FFFFFF" transform="matrix(1.00, 0.00, -0.00, -1.00, 297.1, 346.8)">i</text><text xml:space="preserve" font-family="FiraMono-Regular,Fira Mono" font-size="29.6" fill="#FFFFFF" transform="matrix(1.00, 0.00, -0.00, -1.00, 314.8, 346.8)">t</text><text xml:space="preserve" font-family="FiraMono-Regular,Fira Mono" font-size="29.6" fill="#FFFFFF" transform="matrix(1.00, 0.00, -0.00, -1.00, 332.6, 346.8)">e</text><text xml:space="preserve" font-family="FiraMono-Regular,Fira Mono" font-size="29.6" fill="#FFFFFF" transform="matrix(1.00, 0.00, -0.00, -1.00, 350.4, 346.8)">m</text><text xml:space="preserve" font-family="FiraMono-Regular,Fira Mono" font-size="29.6" fill="#FFFFFF" transform="matrix(1.00, 0.00, -0.00, -1.00, 368.2, 346.8)">s</text><text xml:space="preserve" font-family="FiraMono-Regular,Fira Mono" font-size="29.6" fill="#FFFFFF" transform="matrix(1.00, 0.00, -0.00, -1.00, 386.0, 346.8)">.</text><text xml:space="preserve" font-family="FiraMono-Regular,Fira Mono" font-size="29.6" fill="#FFFFFF" transform="matrix(1.00, 0.00, -0.00, -1.00, 403.8, 346.8)">t</text><text xml:space="preserve" font-family="FiraMono-Regular,Fira Mono" font-size="29.6" fill="#FFFFFF" transform="matrix(1.00, 0.00, -0.00, -1.00, 421.5, 346.8)">i</text><text xml:space="preserve" font-family="FiraMono-Regular,Fira Mono" font-size="29.6" fill="#FFFFFF" transform="matrix(1.00, 0.00, -0.00, -1.00, 439.3, 346.8)">t</text><text xml:space="preserve" font-family="FiraMono-Regular,Fira Mono" font-size="29.6" fill="#FFFFFF" transform="matrix(1.00, 0.00, -0.00, -1.00, 457.1, 346.8)">l</text><text xml:space="preserve" font-family="FiraMono-Regular,Fira Mono" font-size="29.6" fill="#FFFFFF" transform="matrix(1.00, 0.00, -0.00, -1.00, 474.9, 346.8)">e</text><text xml:space="preserve" font-family="FiraMono-Regular,Fira Mono" font-size="29.6" fill="#000000" transform="matrix(1.00, 0.00, -0.00, -1.00, 492.7, 346.8)"> </text><text xml:space="preserve" font-family="FiraMono-Regular,Fira Mono" font-size="29.6" fill="#FFFFFF" transform="matrix(1.00, 0.00, -0.00, -1.00, 510.5, 346.8)">=</text><text xml:space="preserve" font-family="FiraMono-Regular,Fira Mono" font-size="29.6" fill="#FFFFFF" transform="matrix(1.00, 0.00, -0.00, -1.00, 528.2, 346.8)">=</text><text xml:space="preserve" font-family="FiraMono-Regular,Fira Mono" font-size="29.6" fill="#000000" transform="matrix(1.00, 0.00, -0.00, -1.00, 546.0, 346.8)"> </text><text xml:space="preserve" font-family="FiraMono-Regular,Fira Mono" font-size="29.6" fill="#FFFFFF" transform="matrix(1.00, 0.00, -0.00, -1.00, 563.8, 346.8)">p</text><text xml:space="preserve" font-family="FiraMono-Regular,Fira Mono" font-size="29.6" fill="#FFFFFF" transform="matrix(1.00, 0.00, -0.00, -1.00, 581.6, 346.8)">r</text><text xml:space="preserve" font-family="FiraMono-Regular,Fira Mono" font-size="29.6" fill="#FFFFFF" transform="matrix(1.00, 0.00, -0.00, -1.00, 599.4, 346.8)">o</text><text xml:space="preserve" font-family="FiraMono-Regular,Fira Mono" font-size="29.6" fill="#FFFFFF" transform="matrix(1.00, 0.00, -0.00, -1.00, 617.2, 346.8)">d</text><text xml:space="preserve" font-family="FiraMono-Regular,Fira Mono" font-size="29.6" fill="#FFFFFF" transform="matrix(1.00, 0.00, -0.00, -1.00, 635.0, 346.8)">u</text><text xml:space="preserve" font-family="FiraMono-Regular,Fira Mono" font-size="29.6" fill="#FFFFFF" transform="matrix(1.00, 0.00, -0.00, -1.00, 652.7, 346.8)">c</text><text xml:space="preserve" font-family="FiraMono-Regular,Fira Mono" font-size="29.6" fill="#FFFFFF" transform="matrix(1.00, 0.00, -0.00, -1.00, 670.5, 346.8)">t</text><text xml:space="preserve" font-family="FiraMono-Regular,Fira Mono" font-size="29.6" fill="#FFFFFF" transform="matrix(1.00, 0.00, -0.00, -1.00, 688.3, 346.8)">s</text><text xml:space="preserve" font-family="FiraMono-Regular,Fira Mono" font-size="29.6" fill="#FFFFFF" transform="matrix(1.00, 0.00, -0.00, -1.00, 706.1, 346.8)"> </text><text xml:space="preserve" font-family="FiraMono-Regular,Fira Mono" font-size="29.6" fill="#FFFFFF" transform="matrix(1.00, 0.00, -0.00, -1.00, 137.0, 254.8)"> </text><text xml:space="preserve" font-family="FiraMono-Regular,Fira Mono" font-size="29.6" fill="#FFFFFF" transform="matrix(1.00, 0.00, -0.00, -1.00, 154.8, 254.8)"> </text><text xml:space="preserve" font-family="FiraMono-Regular,Fira Mono" font-size="29.6" fill="#FFFFFF" transform="matrix(1.00, 0.00, -0.00, -1.00, 172.6, 254.8)">w</text><text xml:space="preserve" font-family="FiraMono-Regular,Fira Mono" font-size="29.6" fill="#FFFFFF" transform="matrix(1.00, 0.00, -0.00, -1.00, 190.4, 254.8)">h</text><text xml:space="preserve" font-family="FiraMono-Regular,Fira Mono" font-size="29.6" fill="#FFFFFF" transform="matrix(1.00, 0.00, -0.00, -1.00, 208.1, 254.8)">e</text><text xml:space="preserve" font-family="FiraMono-Regular,Fira Mono" font-size="29.6" fill="#FFFFFF" transform="matrix(1.00, 0.00, -0.00, -1.00, 225.9, 254.8)">r</text><text xml:space="preserve" font-family="FiraMono-Regular,Fira Mono" font-size="29.6" fill="#FFFFFF" transform="matrix(1.00, 0.00, -0.00, -1.00, 243.7, 254.8)">e</text><text xml:space="preserve" font-family="FiraMono-Regular,Fira Mono" font-size="29.6" fill="#FFFFFF" transform="matrix(1.00, 0.00, -0.00, -1.00, 261.5, 254.8)">:</text><text xml:space="preserve" font-family="FiraMono-Regular,Fira Mono" font-size="29.6" fill="#000000" transform="matrix(1.00, 0.00, -0.00, -1.00, 279.3, 254.8)"> </text><text xml:space="preserve" font-family="FiraMono-Regular,Fira Mono" font-size="29.6" fill="#FFFFFF" transform="matrix(1.00, 0.00, -0.00, -1.00, 137.0, 208.8)"> </text><text xml:space="preserve" font-family="FiraMono-Regular,Fira Mono" font-size="29.6" fill="#FFFFFF" transform="matrix(1.00, 0.00, -0.00, -1.00, 154.8, 208.8)"> </text><text xml:space="preserve" font-family="FiraMono-Regular,Fira Mono" font-size="29.6" fill="#FFFFFF" transform="matrix(1.00, 0.00, -0.00, -1.00, 172.6, 208.8)">p</text><text xml:space="preserve" font-family="FiraMono-Regular,Fira Mono" font-size="29.6" fill="#FFFFFF" transform="matrix(1.00, 0.00, -0.00, -1.00, 190.4, 208.8)">r</text><text xml:space="preserve" font-family="FiraMono-Regular,Fira Mono" font-size="29.6" fill="#FFFFFF" transform="matrix(1.00, 0.00, -0.00, -1.00, 208.1, 208.8)">o</text><text xml:space="preserve" font-family="FiraMono-Regular,Fira Mono" font-size="29.6" fill="#FFFFFF" transform="matrix(1.00, 0.00, -0.00, -1.00, 225.9, 208.8)">d</text><text xml:space="preserve" font-family="FiraMono-Regular,Fira Mono" font-size="29.6" fill="#FFFFFF" transform="matrix(1.00, 0.00, -0.00, -1.00, 243.7, 208.8)">u</text><text xml:space="preserve" font-family="FiraMono-Regular,Fira Mono" font-size="29.6" fill="#FFFFFF" transform="matrix(1.00, 0.00, -0.00, -1.00, 261.5, 208.8)">c</text><text xml:space="preserve" font-family="FiraMono-Regular,Fira Mono" font-size="29.6" fill="#FFFFFF" transform="matrix(1.00, 0.00, -0.00, -1.00, 279.3, 208.8)">t</text><text xml:space="preserve" font-family="FiraMono-Regular,Fira Mono" font-size="29.6" fill="#FFFFFF" transform="matrix(1.00, 0.00, -0.00, -1.00, 297.1, 208.8)">s</text><text xml:space="preserve" font-family="FiraMono-Regular,Fira Mono" font-size="29.6" fill="#000000" transform="matrix(1.00, 0.00, -0.00, -1.00, 314.8, 208.8)"> </text><text xml:space="preserve" font-family="FiraMono-Regular,Fira Mono" font-size="29.6" fill="#FFFFFF" transform="matrix(1.00, 0.00, -0.00, -1.00, 332.6, 208.8)">=</text><text xml:space="preserve" font-family="FiraMono-Regular,Fira Mono" font-size="29.6" fill="#FFFFFF" transform="matrix(1.00, 0.00, -0.00, -1.00, 350.4, 208.8)"> </text><text xml:space="preserve" font-family="FiraMono-Regular,Fira Mono" font-size="29.6" fill="#FFFFFF" transform="matrix(1.00, 0.00, -0.00, -1.00, 368.2, 208.8)">[</text><text xml:space="preserve" font-family="FiraMono-Regular,Fira Mono" font-size="29.6" fill="#FF2600" transform="matrix(1.00, 0.00, -0.00, -1.00, 386.0, 208.8)">"</text><text xml:space="preserve" font-family="FiraMono-Regular,Fira Mono" font-size="29.6" fill="#FF2600" transform="matrix(1.00, 0.00, -0.00, -1.00, 403.8, 208.8)">S</text><text xml:space="preserve" font-family="FiraMono-Regular,Fira Mono" font-size="29.6" fill="#FF2600" transform="matrix(1.00, 0.00, -0.00, -1.00, 421.5, 208.8)">t</text><text xml:space="preserve" font-family="FiraMono-Regular,Fira Mono" font-size="29.6" fill="#FF2600" transform="matrix(1.00, 0.00, -0.00, -1.00, 439.3, 208.8)">a</text><text xml:space="preserve" font-family="FiraMono-Regular,Fira Mono" font-size="29.6" fill="#FF2600" transform="matrix(1.00, 0.00, -0.00, -1.00, 457.1, 208.8)">r</text><text xml:space="preserve" font-family="FiraMono-Regular,Fira Mono" font-size="29.6" fill="#FF2600" transform="matrix(1.00, 0.00, -0.00, -1.00, 474.9, 208.8)">f</text><text xml:space="preserve" font-family="FiraMono-Regular,Fira Mono" font-size="29.6" fill="#FF2600" transform="matrix(1.00, 0.00, -0.00, -1.00, 492.7, 208.8)">l</text><text xml:space="preserve" font-family="FiraMono-Regular,Fira Mono" font-size="29.6" fill="#FF2600" transform="matrix(1.00, 0.00, -0.00, -1.00, 510.5, 208.8)">e</text><text xml:space="preserve" font-family="FiraMono-Regular,Fira Mono" font-size="29.6" fill="#FF2600" transform="matrix(1.00, 0.00, -0.00, -1.00, 528.2, 208.8)">e</text><text xml:space="preserve" font-family="FiraMono-Regular,Fira Mono" font-size="29.6" fill="#FF2600" transform="matrix(1.00, 0.00, -0.00, -1.00, 546.0, 208.8)">t</text><text xml:space="preserve" font-family="FiraMono-Regular,Fira Mono" font-size="29.6" fill="#FF2600" transform="matrix(1.00, 0.00, -0.00, -1.00, 563.8, 208.8)"> </text><text xml:space="preserve" font-family="FiraMono-Regular,Fira Mono" font-size="29.6" fill="#FF2600" transform="matrix(1.00, 0.00, -0.00, -1.00, 581.6, 208.8)">u</text><text xml:space="preserve" font-family="FiraMono-Regular,Fira Mono" font-size="29.6" fill="#FF2600" transform="matrix(1.00, 0.00, -0.00, -1.00, 599.4, 208.8)">n</text><text xml:space="preserve" font-family="FiraMono-Regular,Fira Mono" font-size="29.6" fill="#FF2600" transform="matrix(1.00, 0.00, -0.00, -1.00, 617.2, 208.8)">i</text><text xml:space="preserve" font-family="FiraMono-Regular,Fira Mono" font-size="29.6" fill="#FF2600" transform="matrix(1.00, 0.00, -0.00, -1.00, 635.0, 208.8)">f</text><text xml:space="preserve" font-family="FiraMono-Regular,Fira Mono" font-size="29.6" fill="#FF2600" transform="matrix(1.00, 0.00, -0.00, -1.00, 652.7, 208.8)">o</text><text xml:space="preserve" font-family="FiraMono-Regular,Fira Mono" font-size="29.6" fill="#FF2600" transform="matrix(1.00, 0.00, -0.00, -1.00, 670.5, 208.8)">r</text><text xml:space="preserve" font-family="FiraMono-Regular,Fira Mono" font-size="29.6" fill="#FF2600" transform="matrix(1.00, 0.00, -0.00, -1.00, 688.3, 208.8)">m</text><text xml:space="preserve" font-family="FiraMono-Regular,Fira Mono" font-size="29.6" fill="#FF2600" transform="matrix(1.00, 0.00, -0.00, -1.00, 706.1, 208.8)">"</text><text xml:space="preserve" font-family="FiraMono-Regular,Fira Mono" font-size="29.6" fill="#FFFFFF" transform="matrix(1.00, 0.00, -0.00, -1.00, 723.9, 208.8)">,</text><text xml:space="preserve" font-family="FiraMono-Regular,Fira Mono" font-size="29.6" fill="#000000" transform="matrix(1.00, 0.00, -0.00, -1.00, 741.7, 208.8)"> </text><text xml:space="preserve" font-family="FiraMono-Regular,Fira Mono" font-size="29.6" fill="#FF2600" transform="matrix(1.00, 0.00, -0.00, -1.00, 759.4, 208.8)">"</text><text xml:space="preserve" font-family="FiraMono-Regular,Fira Mono" font-size="29.6" fill="#FF2600" transform="matrix(1.00, 0.00, -0.00, -1.00, 777.2, 208.8)">T</text><text xml:space="preserve" font-family="FiraMono-Regular,Fira Mono" font-size="29.6" fill="#FF2600" transform="matrix(1.00, 0.00, -0.00, -1.00, 795.0, 208.8)">r</text><text xml:space="preserve" font-family="FiraMono-Regular,Fira Mono" font-size="29.6" fill="#FF2600" transform="matrix(1.00, 0.00, -0.00, -1.00, 812.8, 208.8)">i</text><text xml:space="preserve" font-family="FiraMono-Regular,Fira Mono" font-size="29.6" fill="#FF2600" transform="matrix(1.00, 0.00, -0.00, -1.00, 830.6, 208.8)">c</text><text xml:space="preserve" font-family="FiraMono-Regular,Fira Mono" font-size="29.6" fill="#FF2600" transform="matrix(1.00, 0.00, -0.00, -1.00, 848.4, 208.8)">o</text><text xml:space="preserve" font-family="FiraMono-Regular,Fira Mono" font-size="29.6" fill="#FF2600" transform="matrix(1.00, 0.00, -0.00, -1.00, 866.1, 208.8)">r</text><text xml:space="preserve" font-family="FiraMono-Regular,Fira Mono" font-size="29.6" fill="#FF2600" transform="matrix(1.00, 0.00, -0.00, -1.00, 883.9, 208.8)">d</text><text xml:space="preserve" font-family="FiraMono-Regular,Fira Mono" font-size="29.6" fill="#FF2600" transform="matrix(1.00, 0.00, -0.00, -1.00, 901.7, 208.8)">e</text><text xml:space="preserve" font-family="FiraMono-Regular,Fira Mono" font-size="29.6" fill="#FF2600" transform="matrix(1.00, 0.00, -0.00, -1.00, 919.5, 208.8)">r</text><text xml:space="preserve" font-family="FiraMono-Regular,Fira Mono" font-size="29.6" fill="#FF2600" transform="matrix(1.00, 0.00, -0.00, -1.00, 937.3, 208.8)">"</text><text xml:space="preserve" font-family="FiraMono-Regular,Fira Mono" font-size="29.6" fill="#FFFFFF" transform="matrix(1.00, 0.00, -0.00, -1.00, 955.1, 208.8)">,</text><text xml:space="preserve" font-family="FiraMono-Regular,Fira Mono" font-size="29.6" fill="#000000" transform="matrix(1.00, 0.00, -0.00, -1.00, 972.8, 208.8)"> </text><text xml:space="preserve" font-family="FiraMono-Regular,Fira Mono" font-size="29.6" fill="#FF2600" transform="matrix(1.00, 0.00, -0.00, -1.00, 990.6, 208.8)">"</text><text xml:space="preserve" font-family="FiraMono-Regular,Fira Mono" font-size="29.6" fill="#FF2600" transform="matrix(1.00, 0.00, -0.00, -1.00, 1008.4, 208.8)">P</text><text xml:space="preserve" font-family="FiraMono-Regular,Fira Mono" font-size="29.6" fill="#FF2600" transform="matrix(1.00, 0.00, -0.00, -1.00, 1026.2, 208.8)">h</text><text xml:space="preserve" font-family="FiraMono-Regular,Fira Mono" font-size="29.6" fill="#FF2600" transform="matrix(1.00, 0.00, -0.00, -1.00, 1044.0, 208.8)">a</text><text xml:space="preserve" font-family="FiraMono-Regular,Fira Mono" font-size="29.6" fill="#FF2600" transform="matrix(1.00, 0.00, -0.00, -1.00, 1061.8, 208.8)">s</text><text xml:space="preserve" font-family="FiraMono-Regular,Fira Mono" font-size="29.6" fill="#FF2600" transform="matrix(1.00, 0.00, -0.00, -1.00, 1079.6, 208.8)">e</text><text xml:space="preserve" font-family="FiraMono-Regular,Fira Mono" font-size="29.6" fill="#FF2600" transform="matrix(1.00, 0.00, -0.00, -1.00, 1097.3, 208.8)">r</text><text xml:space="preserve" font-family="FiraMono-Regular,Fira Mono" font-size="29.6" fill="#FF2600" transform="matrix(1.00, 0.00, -0.00, -1.00, 1115.1, 208.8)">"</text><text xml:space="preserve" font-family="FiraMono-Regular,Fira Mono" font-size="29.6" fill="#FFFFFF" transform="matrix(1.00, 0.00, -0.00, -1.00, 1132.9, 208.8)">]</text><text xml:space="preserve" font-family="FiraMono-Regular,Fira Mono" font-size="29.6" fill="#000000" transform="matrix(1.00, 0.00, -0.00, -1.00, 1150.7, 208.8)"> </text><text xml:space="preserve" font-family="FiraMono-Regular,Fira Mono" font-size="29.6" fill="#FFFFFF" transform="matrix(1.00, 0.00, -0.00, -1.00, 137.0, 162.8)">}</text></g></svg>