<?xml version="1.0" encoding="UTF-8" standalone="no"?><svg xmlns="http://www.w3.org/2000/svg" xmlns:xlink="http://www.w3.org/1999/xlink" clip-rule="evenodd" stroke-miterlimit="10" viewBox="0 0 1920 1080"><desc>SVG generated by Keynote</desc><defs></defs><g transform="matrix(1.00, 0.00, -0.00, -1.00, 0.0, 1080.0)"><g><clipPath id="clip0x7f840dc2ec20"><path d="M 0.0 1080.0 L 1920.0 1080.0 L 1920.0 0.0 L 0.0 0.0 Z M 0.0 1080.0 "></path></clipPath><g clip-path="url(#clip0x7f840dc2ec20)"><image xlink:href="../../BF7430C7-5211-4E68-B118-AC68FDB76F0F/assets/A81AF0278930B93F47F55E5BB6D3A023.png" width="1920.00" height="1080.00" transform="matrix(1.00, 0.00, -0.00, -1.00, 0.0, 1080.0)"></image></g></g><text xml:space="preserve" font-family="FiraMono-Regular,Fira Mono" font-size="52.0" fill="#C07B1E" transform="matrix(1.00, 0.00, -0.00, -1.00, 137.0, 565.0)">@</text><text xml:space="preserve" font-family="FiraMono-Regular,Fira Mono" font-size="52.0" fill="#C07B1E" transform="matrix(1.00, 0.00, -0.00, -1.00, 168.2, 565.0)">U</text><text xml:space="preserve" font-family="FiraMono-Regular,Fira Mono" font-size="52.0" fill="#C07B1E" transform="matrix(1.00, 0.00, -0.00, -1.00, 199.4, 565.0)">n</text><text xml:space="preserve" font-family="FiraMono-Regular,Fira Mono" font-size="52.0" fill="#C07B1E" transform="matrix(1.00, 0.00, -0.00, -1.00, 230.6, 565.0)">r</text><text xml:space="preserve" font-family="FiraMono-Regular,Fira Mono" font-size="52.0" fill="#C07B1E" transform="matrix(1.00, 0.00, -0.00, -1.00, 261.8, 565.0)">o</text><text xml:space="preserve" font-family="FiraMono-Regular,Fira Mono" font-size="52.0" fill="#C07B1E" transform="matrix(1.00, 0.00, -0.00, -1.00, 293.0, 565.0)">l</text><text xml:space="preserve" font-family="FiraMono-Regular,Fira Mono" font-size="52.0" fill="#C07B1E" transform="matrix(1.00, 0.00, -0.00, -1.00, 324.2, 565.0)">l</text><text xml:space="preserve" font-family="FiraMono-Regular,Fira Mono" font-size="52.0" fill="#000000" transform="matrix(1.00, 0.00, -0.00, -1.00, 355.4, 565.0)"> </text><text xml:space="preserve" font-family="FiraMono-Regular,Fira Mono" font-size="52.0" fill="#C07B1E" transform="matrix(1.00, 0.00, -0.00, -1.00, 137.0, 484.0)">d</text><text xml:space="preserve" font-family="FiraMono-Regular,Fira Mono" font-size="52.0" fill="#C07B1E" transform="matrix(1.00, 0.00, -0.00, -1.00, 168.2, 484.0)">e</text><text xml:space="preserve" font-family="FiraMono-Regular,Fira Mono" font-size="52.0" fill="#C07B1E" transform="matrix(1.00, 0.00, -0.00, -1.00, 199.4, 484.0)">f</text><text xml:space="preserve" font-family="FiraMono-Regular,Fira Mono" font-size="52.0" fill="#000000" transform="matrix(1.00, 0.00, -0.00, -1.00, 230.6, 484.0)"> </text><text xml:space="preserve" font-family="FiraMono-Regular,Fira Mono" font-size="52.0" fill="#FF2600" transform="matrix(1.00, 0.00, -0.00, -1.00, 261.8, 484.0)">"</text><text xml:space="preserve" font-family="FiraMono-Regular,Fira Mono" font-size="52.0" fill="#FF2600" transform="matrix(1.00, 0.00, -0.00, -1.00, 293.0, 484.0)">r</text><text xml:space="preserve" font-family="FiraMono-Regular,Fira Mono" font-size="52.0" fill="#FF2600" transform="matrix(1.00, 0.00, -0.00, -1.00, 324.2, 484.0)">e</text><text xml:space="preserve" font-family="FiraMono-Regular,Fira Mono" font-size="52.0" fill="#FF2600" transform="matrix(1.00, 0.00, -0.00, -1.00, 355.4, 484.0)">j</text><text xml:space="preserve" font-family="FiraMono-Regular,Fira Mono" font-size="52.0" fill="#FF2600" transform="matrix(1.00, 0.00, -0.00, -1.00, 386.6, 484.0)">e</text><text xml:space="preserve" font-family="FiraMono-Regular,Fira Mono" font-size="52.0" fill="#FF2600" transform="matrix(1.00, 0.00, -0.00, -1.00, 417.8, 484.0)">c</text><text xml:space="preserve" font-family="FiraMono-Regular,Fira Mono" font-size="52.0" fill="#FF2600" transform="matrix(1.00, 0.00, -0.00, -1.00, 449.0, 484.0)">t</text><text xml:space="preserve" font-family="FiraMono-Regular,Fira Mono" font-size="52.0" fill="#FF2600" transform="matrix(1.00, 0.00, -0.00, -1.00, 480.2, 484.0)">s</text><text xml:space="preserve" font-family="FiraMono-Regular,Fira Mono" font-size="52.0" fill="#FF2600" transform="matrix(1.00, 0.00, -0.00, -1.00, 511.4, 484.0)"> </text><text xml:space="preserve" font-family="FiraMono-Regular,Fira Mono" font-size="52.0" fill="#FF2600" transform="matrix(1.00, 0.00, -0.00, -1.00, 542.6, 484.0)">a</text><text xml:space="preserve" font-family="FiraMono-Regular,Fira Mono" font-size="52.0" fill="#FF2600" transform="matrix(1.00, 0.00, -0.00, -1.00, 573.8, 484.0)">n</text><text xml:space="preserve" font-family="FiraMono-Regular,Fira Mono" font-size="52.0" fill="#FF2600" transform="matrix(1.00, 0.00, -0.00, -1.00, 605.0, 484.0)"> </text><text xml:space="preserve" font-family="FiraMono-Regular,Fira Mono" font-size="52.0" fill="#FF2600" transform="matrix(1.00, 0.00, -0.00, -1.00, 636.2, 484.0)">i</text><text xml:space="preserve" font-family="FiraMono-Regular,Fira Mono" font-size="52.0" fill="#FF2600" transform="matrix(1.00, 0.00, -0.00, -1.00, 667.4, 484.0)">n</text><text xml:space="preserve" font-family="FiraMono-Regular,Fira Mono" font-size="52.0" fill="#FF2600" transform="matrix(1.00, 0.00, -0.00, -1.00, 698.6, 484.0)">p</text><text xml:space="preserve" font-family="FiraMono-Regular,Fira Mono" font-size="52.0" fill="#FF2600" transform="matrix(1.00, 0.00, -0.00, -1.00, 729.8, 484.0)">u</text><text xml:space="preserve" font-family="FiraMono-Regular,Fira Mono" font-size="52.0" fill="#FF2600" transform="matrix(1.00, 0.00, -0.00, -1.00, 761.0, 484.0)">t</text><text xml:space="preserve" font-family="FiraMono-Regular,Fira Mono" font-size="52.0" fill="#FF2600" transform="matrix(1.00, 0.00, -0.00, -1.00, 792.2, 484.0)"> </text><text xml:space="preserve" font-family="FiraMono-Regular,Fira Mono" font-size="52.0" fill="#FF2600" transform="matrix(1.00, 0.00, -0.00, -1.00, 823.4, 484.0)">v</text><text xml:space="preserve" font-family="FiraMono-Regular,Fira Mono" font-size="52.0" fill="#FF2600" transform="matrix(1.00, 0.00, -0.00, -1.00, 854.6, 484.0)">a</text><text xml:space="preserve" font-family="FiraMono-Regular,Fira Mono" font-size="52.0" fill="#FF2600" transform="matrix(1.00, 0.00, -0.00, -1.00, 885.8, 484.0)">l</text><text xml:space="preserve" font-family="FiraMono-Regular,Fira Mono" font-size="52.0" fill="#FF2600" transform="matrix(1.00, 0.00, -0.00, -1.00, 917.0, 484.0)">u</text><text xml:space="preserve" font-family="FiraMono-Regular,Fira Mono" font-size="52.0" fill="#FF2600" transform="matrix(1.00, 0.00, -0.00, -1.00, 948.2, 484.0)">e</text><text xml:space="preserve" font-family="FiraMono-Regular,Fira Mono" font-size="52.0" fill="#FF2600" transform="matrix(1.00, 0.00, -0.00, -1.00, 979.4, 484.0)"> </text><text xml:space="preserve" font-family="FiraMono-Regular,Fira Mono" font-size="52.0" fill="#FF2600" transform="matrix(1.00, 0.00, -0.00, -1.00, 1010.6, 484.0)">o</text><text xml:space="preserve" font-family="FiraMono-Regular,Fira Mono" font-size="52.0" fill="#FF2600" transform="matrix(1.00, 0.00, -0.00, -1.00, 1041.8, 484.0)">f</text><text xml:space="preserve" font-family="FiraMono-Regular,Fira Mono" font-size="52.0" fill="#FF2600" transform="matrix(1.00, 0.00, -0.00, -1.00, 1073.0, 484.0)"> </text><text xml:space="preserve" font-family="FiraMono-Regular,Fira Mono" font-size="52.0" fill="#FF2600" transform="matrix(1.00, 0.00, -0.00, -1.00, 1104.2, 484.0)">'</text><text xml:space="preserve" font-family="FiraMono-Regular,Fira Mono" font-size="52.0" fill="#FF2600" transform="matrix(1.00, 0.00, -0.00, -1.00, 1135.4, 484.0)">#</text><text xml:space="preserve" font-family="FiraMono-Regular,Fira Mono" font-size="52.0" fill="#FF2600" transform="matrix(1.00, 0.00, -0.00, -1.00, 1166.6, 484.0)">i</text><text xml:space="preserve" font-family="FiraMono-Regular,Fira Mono" font-size="52.0" fill="#FF2600" transform="matrix(1.00, 0.00, -0.00, -1.00, 1197.8, 484.0)">n</text><text xml:space="preserve" font-family="FiraMono-Regular,Fira Mono" font-size="52.0" fill="#FF2600" transform="matrix(1.00, 0.00, -0.00, -1.00, 1229.0, 484.0)">p</text><text xml:space="preserve" font-family="FiraMono-Regular,Fira Mono" font-size="52.0" fill="#FF2600" transform="matrix(1.00, 0.00, -0.00, -1.00, 1260.2, 484.0)">u</text><text xml:space="preserve" font-family="FiraMono-Regular,Fira Mono" font-size="52.0" fill="#FF2600" transform="matrix(1.00, 0.00, -0.00, -1.00, 1291.4, 484.0)">t</text><text xml:space="preserve" font-family="FiraMono-Regular,Fira Mono" font-size="52.0" fill="#FF2600" transform="matrix(1.00, 0.00, -0.00, -1.00, 1322.6, 484.0)">'</text><text xml:space="preserve" font-family="FiraMono-Regular,Fira Mono" font-size="52.0" fill="#FF2600" transform="matrix(1.00, 0.00, -0.00, -1.00, 1353.8, 484.0)">"</text><text xml:space="preserve" font-family="FiraMono-Regular,Fira Mono" font-size="52.0" fill="#FFFFFF" transform="matrix(1.00, 0.00, -0.00, -1.00, 1385.0, 484.0)">(</text><text xml:space="preserve" font-family="FiraMono-Regular,Fira Mono" font-size="52.0" fill="#FFFFFF" transform="matrix(1.00, 0.00, -0.00, -1.00, 1416.2, 484.0)">)</text></g></svg>