<?xml version="1.0" encoding="UTF-8" standalone="no"?><svg xmlns="http://www.w3.org/2000/svg" xmlns:xlink="http://www.w3.org/1999/xlink" clip-rule="evenodd" stroke-miterlimit="10" viewBox="0 0 1920 1080"><desc>SVG generated by Keynote</desc><defs></defs><g transform="matrix(1.00, 0.00, -0.00, -1.00, 0.0, 1080.0)"><g><clipPath id="clip0x7f84094bfdd0"><path d="M 0.0 1080.0 L 1920.0 1080.0 L 1920.0 0.0 L 0.0 0.0 Z M 0.0 1080.0 "></path></clipPath><g clip-path="url(#clip0x7f84094bfdd0)"><image xlink:href="../../BF7430C7-5211-4E68-B118-AC68FDB76F0F/assets/A81AF0278930B93F47F55E5BB6D3A023.png" width="1920.00" height="1080.00" transform="matrix(1.00, 0.00, -0.00, -1.00, 0.0, 1080.0)"></image></g></g><image xlink:href="../../1DB9768F-FDE5-44FA-A5A6-6B4EFDB5FC1B/assets/7ACC3809E873B487184FB6C9556C20EF.png" width="637.00" height="131.00" transform="matrix(1.00, 0.00, -0.00, -1.00, 89.0, 786.0)"></image><text xml:space="preserve" font-family="FiraMono-Regular,Fira Mono" font-size="38.0" fill="#FEFFFF" transform="matrix(1.00, 0.00, -0.00, -1.00, 137.0, 706.0)">C</text><text xml:space="preserve" font-family="FiraMono-Regular,Fira Mono" font-size="38.0" fill="#FEFFFF" transform="matrix(1.00, 0.00, -0.00, -1.00, 159.8, 706.0)">o</text><text xml:space="preserve" font-family="FiraMono-Regular,Fira Mono" font-size="38.0" fill="#FEFFFF" transform="matrix(1.00, 0.00, -0.00, -1.00, 182.6, 706.0)">n</text><text xml:space="preserve" font-family="FiraMono-Regular,Fira Mono" font-size="38.0" fill="#FEFFFF" transform="matrix(1.00, 0.00, -0.00, -1.00, 205.4, 706.0)">d</text><text xml:space="preserve" font-family="FiraMono-Regular,Fira Mono" font-size="38.0" fill="#FEFFFF" transform="matrix(1.00, 0.00, -0.00, -1.00, 228.2, 706.0)">i</text><text xml:space="preserve" font-family="FiraMono-Regular,Fira Mono" font-size="38.0" fill="#FEFFFF" transform="matrix(1.00, 0.00, -0.00, -1.00, 251.0, 706.0)">t</text><text xml:space="preserve" font-family="FiraMono-Regular,Fira Mono" font-size="38.0" fill="#FEFFFF" transform="matrix(1.00, 0.00, -0.00, -1.00, 273.8, 706.0)">i</text><text xml:space="preserve" font-family="FiraMono-Regular,Fira Mono" font-size="38.0" fill="#FEFFFF" transform="matrix(1.00, 0.00, -0.00, -1.00, 296.6, 706.0)">o</text><text xml:space="preserve" font-family="FiraMono-Regular,Fira Mono" font-size="38.0" fill="#FEFFFF" transform="matrix(1.00, 0.00, -0.00, -1.00, 319.4, 706.0)">n</text><text xml:space="preserve" font-family="FiraMono-Regular,Fira Mono" font-size="38.0" fill="#FEFFFF" transform="matrix(1.00, 0.00, -0.00, -1.00, 342.2, 706.0)"> </text><text xml:space="preserve" font-family="FiraMono-Regular,Fira Mono" font-size="38.0" fill="#FEFFFF" transform="matrix(1.00, 0.00, -0.00, -1.00, 365.0, 706.0)">n</text><text xml:space="preserve" font-family="FiraMono-Regular,Fira Mono" font-size="38.0" fill="#FEFFFF" transform="matrix(1.00, 0.00, -0.00, -1.00, 387.8, 706.0)">o</text><text xml:space="preserve" font-family="FiraMono-Regular,Fira Mono" font-size="38.0" fill="#FEFFFF" transform="matrix(1.00, 0.00, -0.00, -1.00, 410.6, 706.0)">t</text><text xml:space="preserve" font-family="FiraMono-Regular,Fira Mono" font-size="38.0" fill="#FEFFFF" transform="matrix(1.00, 0.00, -0.00, -1.00, 433.4, 706.0)"> </text><text xml:space="preserve" font-family="FiraMono-Regular,Fira Mono" font-size="38.0" fill="#FEFFFF" transform="matrix(1.00, 0.00, -0.00, -1.00, 456.2, 706.0)">s</text><text xml:space="preserve" font-family="FiraMono-Regular,Fira Mono" font-size="38.0" fill="#FEFFFF" transform="matrix(1.00, 0.00, -0.00, -1.00, 479.0, 706.0)">a</text><text xml:space="preserve" font-family="FiraMono-Regular,Fira Mono" font-size="38.0" fill="#FEFFFF" transform="matrix(1.00, 0.00, -0.00, -1.00, 501.8, 706.0)">t</text><text xml:space="preserve" font-family="FiraMono-Regular,Fira Mono" font-size="38.0" fill="#FEFFFF" transform="matrix(1.00, 0.00, -0.00, -1.00, 524.6, 706.0)">i</text><text xml:space="preserve" font-family="FiraMono-Regular,Fira Mono" font-size="38.0" fill="#FEFFFF" transform="matrix(1.00, 0.00, -0.00, -1.00, 547.4, 706.0)">s</text><text xml:space="preserve" font-family="FiraMono-Regular,Fira Mono" font-size="38.0" fill="#FEFFFF" transform="matrix(1.00, 0.00, -0.00, -1.00, 570.2, 706.0)">f</text><text xml:space="preserve" font-family="FiraMono-Regular,Fira Mono" font-size="38.0" fill="#FEFFFF" transform="matrix(1.00, 0.00, -0.00, -1.00, 593.0, 706.0)">i</text><text xml:space="preserve" font-family="FiraMono-Regular,Fira Mono" font-size="38.0" fill="#FEFFFF" transform="matrix(1.00, 0.00, -0.00, -1.00, 615.8, 706.0)">e</text><text xml:space="preserve" font-family="FiraMono-Regular,Fira Mono" font-size="38.0" fill="#FEFFFF" transform="matrix(1.00, 0.00, -0.00, -1.00, 638.6, 706.0)">d</text><text xml:space="preserve" font-family="FiraMono-Regular,Fira Mono" font-size="38.0" fill="#FEFFFF" transform="matrix(1.00, 0.00, -0.00, -1.00, 661.4, 706.0)">:</text><text xml:space="preserve" font-family="FiraMono-Regular,Fira Mono" font-size="38.0" fill="#FEFFFF" transform="matrix(1.00, 0.00, -0.00, -1.00, 684.2, 706.0)"> </text><image xlink:href="E66D4EDFEEA66CE5E4977F62C1EE127C.png" width="1163.00" height="141.00" transform="matrix(1.00, 0.00, -0.00, -1.00, 90.0, 670.0)"></image><text xml:space="preserve" font-family="FiraMono-Regular,Fira Mono" font-size="38.0" fill="#FEFFFF" transform="matrix(1.00, 0.00, -0.00, -1.00, 137.0, 588.0)">r</text><text xml:space="preserve" font-family="FiraMono-Regular,Fira Mono" font-size="38.0" fill="#FEFFFF" transform="matrix(1.00, 0.00, -0.00, -1.00, 159.8, 588.0)">e</text><text xml:space="preserve" font-family="FiraMono-Regular,Fira Mono" font-size="38.0" fill="#FEFFFF" transform="matrix(1.00, 0.00, -0.00, -1.00, 182.6, 588.0)">s</text><text xml:space="preserve" font-family="FiraMono-Regular,Fira Mono" font-size="38.0" fill="#FEFFFF" transform="matrix(1.00, 0.00, -0.00, -1.00, 205.4, 588.0)">u</text><text xml:space="preserve" font-family="FiraMono-Regular,Fira Mono" font-size="38.0" fill="#FEFFFF" transform="matrix(1.00, 0.00, -0.00, -1.00, 228.2, 588.0)">l</text><text xml:space="preserve" font-family="FiraMono-Regular,Fira Mono" font-size="38.0" fill="#FEFFFF" transform="matrix(1.00, 0.00, -0.00, -1.00, 251.0, 588.0)">t</text><text xml:space="preserve" font-family="FiraMono-Regular,Fira Mono" font-size="38.0" fill="#FEFFFF" transform="matrix(1.00, 0.00, -0.00, -1.00, 273.8, 588.0)">s</text><text xml:space="preserve" font-family="FiraMono-Regular,Fira Mono" font-size="38.0" fill="#FEFFFF" transform="matrix(1.00, 0.00, -0.00, -1.00, 296.6, 588.0)">.</text><text xml:space="preserve" font-family="FiraMono-Regular,Fira Mono" font-size="38.0" fill="#FEFFFF" transform="matrix(1.00, 0.00, -0.00, -1.00, 319.4, 588.0)">a</text><text xml:space="preserve" font-family="FiraMono-Regular,Fira Mono" font-size="38.0" fill="#FEFFFF" transform="matrix(1.00, 0.00, -0.00, -1.00, 342.2, 588.0)">l</text><text xml:space="preserve" font-family="FiraMono-Regular,Fira Mono" font-size="38.0" fill="#FEFFFF" transform="matrix(1.00, 0.00, -0.00, -1.00, 365.0, 588.0)">l</text><text xml:space="preserve" font-family="FiraMono-Regular,Fira Mono" font-size="38.0" fill="#FEFFFF" transform="matrix(1.00, 0.00, -0.00, -1.00, 387.8, 588.0)">e</text><text xml:space="preserve" font-family="FiraMono-Regular,Fira Mono" font-size="38.0" fill="#FEFFFF" transform="matrix(1.00, 0.00, -0.00, -1.00, 410.6, 588.0)">g</text><text xml:space="preserve" font-family="FiraMono-Regular,Fira Mono" font-size="38.0" fill="#FEFFFF" transform="matrix(1.00, 0.00, -0.00, -1.00, 433.4, 588.0)">i</text><text xml:space="preserve" font-family="FiraMono-Regular,Fira Mono" font-size="38.0" fill="#FEFFFF" transform="matrix(1.00, 0.00, -0.00, -1.00, 456.2, 588.0)">a</text><text xml:space="preserve" font-family="FiraMono-Regular,Fira Mono" font-size="38.0" fill="#FEFFFF" transform="matrix(1.00, 0.00, -0.00, -1.00, 479.0, 588.0)">n</text><text xml:space="preserve" font-family="FiraMono-Regular,Fira Mono" font-size="38.0" fill="#FEFFFF" transform="matrix(1.00, 0.00, -0.00, -1.00, 501.8, 588.0)">c</text><text xml:space="preserve" font-family="FiraMono-Regular,Fira Mono" font-size="38.0" fill="#FEFFFF" transform="matrix(1.00, 0.00, -0.00, -1.00, 524.6, 588.0)">e</text><text xml:space="preserve" font-family="FiraMono-Regular,Fira Mono" font-size="38.0" fill="#FEFFFF" transform="matrix(1.00, 0.00, -0.00, -1.00, 547.4, 588.0)">.</text><text xml:space="preserve" font-family="FiraMono-Regular,Fira Mono" font-size="38.0" fill="#FEFFFF" transform="matrix(1.00, 0.00, -0.00, -1.00, 570.2, 588.0)">e</text><text xml:space="preserve" font-family="FiraMono-Regular,Fira Mono" font-size="38.0" fill="#FEFFFF" transform="matrix(1.00, 0.00, -0.00, -1.00, 593.0, 588.0)">v</text><text xml:space="preserve" font-family="FiraMono-Regular,Fira Mono" font-size="38.0" fill="#FEFFFF" transform="matrix(1.00, 0.00, -0.00, -1.00, 615.8, 588.0)">e</text><text xml:space="preserve" font-family="FiraMono-Regular,Fira Mono" font-size="38.0" fill="#FEFFFF" transform="matrix(1.00, 0.00, -0.00, -1.00, 638.6, 588.0)">r</text><text xml:space="preserve" font-family="FiraMono-Regular,Fira Mono" font-size="38.0" fill="#FEFFFF" transform="matrix(1.00, 0.00, -0.00, -1.00, 661.4, 588.0)">y</text><text xml:space="preserve" font-family="FiraMono-Regular,Fira Mono" font-size="38.0" fill="#FEFFFF" transform="matrix(1.00, 0.00, -0.00, -1.00, 684.2, 588.0)"> </text><text xml:space="preserve" font-family="FiraMono-Regular,Fira Mono" font-size="38.0" fill="#FEFFFF" transform="matrix(1.00, 0.00, -0.00, -1.00, 707.0, 588.0)">{</text><text xml:space="preserve" font-family="FiraMono-Regular,Fira Mono" font-size="38.0" fill="#FEFFFF" transform="matrix(1.00, 0.00, -0.00, -1.00, 729.8, 588.0)"> </text><text xml:space="preserve" font-family="FiraMono-Regular,Fira Mono" font-size="38.0" fill="#FEFFFF" transform="matrix(1.00, 0.00, -0.00, -1.00, 752.6, 588.0)">i</text><text xml:space="preserve" font-family="FiraMono-Regular,Fira Mono" font-size="38.0" fill="#FEFFFF" transform="matrix(1.00, 0.00, -0.00, -1.00, 775.4, 588.0)">t</text><text xml:space="preserve" font-family="FiraMono-Regular,Fira Mono" font-size="38.0" fill="#FEFFFF" transform="matrix(1.00, 0.00, -0.00, -1.00, 798.2, 588.0)"> </text><text xml:space="preserve" font-family="FiraMono-Regular,Fira Mono" font-size="38.0" fill="#FEFFFF" transform="matrix(1.00, 0.00, -0.00, -1.00, 821.0, 588.0)">=</text><text xml:space="preserve" font-family="FiraMono-Regular,Fira Mono" font-size="38.0" fill="#FEFFFF" transform="matrix(1.00, 0.00, -0.00, -1.00, 843.8, 588.0)">=</text><text xml:space="preserve" font-family="FiraMono-Regular,Fira Mono" font-size="38.0" fill="#FEFFFF" transform="matrix(1.00, 0.00, -0.00, -1.00, 866.6, 588.0)"> </text><text xml:space="preserve" font-family="FiraMono-Regular,Fira Mono" font-size="38.0" fill="#FEFFFF" transform="matrix(1.00, 0.00, -0.00, -1.00, 889.4, 588.0)">"</text><text xml:space="preserve" font-family="FiraMono-Regular,Fira Mono" font-size="38.0" fill="#FEFFFF" transform="matrix(1.00, 0.00, -0.00, -1.00, 912.2, 588.0)">F</text><text xml:space="preserve" font-family="FiraMono-Regular,Fira Mono" font-size="38.0" fill="#FEFFFF" transform="matrix(1.00, 0.00, -0.00, -1.00, 935.0, 588.0)">e</text><text xml:space="preserve" font-family="FiraMono-Regular,Fira Mono" font-size="38.0" fill="#FEFFFF" transform="matrix(1.00, 0.00, -0.00, -1.00, 957.8, 588.0)">d</text><text xml:space="preserve" font-family="FiraMono-Regular,Fira Mono" font-size="38.0" fill="#FEFFFF" transform="matrix(1.00, 0.00, -0.00, -1.00, 980.6, 588.0)">e</text><text xml:space="preserve" font-family="FiraMono-Regular,Fira Mono" font-size="38.0" fill="#FEFFFF" transform="matrix(1.00, 0.00, -0.00, -1.00, 1003.4, 588.0)">r</text><text xml:space="preserve" font-family="FiraMono-Regular,Fira Mono" font-size="38.0" fill="#FEFFFF" transform="matrix(1.00, 0.00, -0.00, -1.00, 1026.2, 588.0)">a</text><text xml:space="preserve" font-family="FiraMono-Regular,Fira Mono" font-size="38.0" fill="#FEFFFF" transform="matrix(1.00, 0.00, -0.00, -1.00, 1049.0, 588.0)">t</text><text xml:space="preserve" font-family="FiraMono-Regular,Fira Mono" font-size="38.0" fill="#FEFFFF" transform="matrix(1.00, 0.00, -0.00, -1.00, 1071.8, 588.0)">i</text><text xml:space="preserve" font-family="FiraMono-Regular,Fira Mono" font-size="38.0" fill="#FEFFFF" transform="matrix(1.00, 0.00, -0.00, -1.00, 1094.6, 588.0)">o</text><text xml:space="preserve" font-family="FiraMono-Regular,Fira Mono" font-size="38.0" fill="#FEFFFF" transform="matrix(1.00, 0.00, -0.00, -1.00, 1117.4, 588.0)">n</text><text xml:space="preserve" font-family="FiraMono-Regular,Fira Mono" font-size="38.0" fill="#FEFFFF" transform="matrix(1.00, 0.00, -0.00, -1.00, 1140.2, 588.0)">"</text><text xml:space="preserve" font-family="FiraMono-Regular,Fira Mono" font-size="38.0" fill="#FEFFFF" transform="matrix(1.00, 0.00, -0.00, -1.00, 1163.0, 588.0)"> </text><text xml:space="preserve" font-family="FiraMono-Regular,Fira Mono" font-size="38.0" fill="#FEFFFF" transform="matrix(1.00, 0.00, -0.00, -1.00, 1185.8, 588.0)">}</text><text xml:space="preserve" font-family="FiraMono-Regular,Fira Mono" font-size="38.0" fill="#FEFFFF" transform="matrix(1.00, 0.00, -0.00, -1.00, 1208.6, 588.0)"> </text><image xlink:href="CD79204EDC94F0612B9A4E59E53C785B.png" width="538.00" height="135.00" transform="matrix(1.00, 0.00, -0.00, -1.00, 96.0, 610.0)"></image><text xml:space="preserve" font-family="FiraMono-Regular,Fira Mono" font-size="38.0" fill="#FEFFFF" transform="matrix(1.00, 0.00, -0.00, -1.00, 137.0, 529.0)">|</text><text xml:space="preserve" font-family="FiraMono-Regular,Fira Mono" font-size="38.0" fill="#FEFFFF" transform="matrix(1.00, 0.00, -0.00, -1.00, 159.8, 529.0)"> </text><text xml:space="preserve" font-family="FiraMono-Regular,Fira Mono" font-size="38.0" fill="#FEFFFF" transform="matrix(1.00, 0.00, -0.00, -1.00, 182.6, 529.0)"> </text><text xml:space="preserve" font-family="FiraMono-Regular,Fira Mono" font-size="38.0" fill="#FEFFFF" transform="matrix(1.00, 0.00, -0.00, -1.00, 205.4, 529.0)"> </text><text xml:space="preserve" font-family="FiraMono-Regular,Fira Mono" font-size="38.0" fill="#FEFFFF" transform="matrix(1.00, 0.00, -0.00, -1.00, 228.2, 529.0)"> </text><text xml:space="preserve" font-family="FiraMono-Regular,Fira Mono" font-size="38.0" fill="#FEFFFF" transform="matrix(1.00, 0.00, -0.00, -1.00, 251.0, 529.0)"> </text><text xml:space="preserve" font-family="FiraMono-Regular,Fira Mono" font-size="38.0" fill="#FEFFFF" transform="matrix(1.00, 0.00, -0.00, -1.00, 273.8, 529.0)"> </text><text xml:space="preserve" font-family="FiraMono-Regular,Fira Mono" font-size="38.0" fill="#FEFFFF" transform="matrix(1.00, 0.00, -0.00, -1.00, 296.6, 529.0)"> </text><text xml:space="preserve" font-family="FiraMono-Regular,Fira Mono" font-size="38.0" fill="#FEFFFF" transform="matrix(1.00, 0.00, -0.00, -1.00, 319.4, 529.0)">|</text><text xml:space="preserve" font-family="FiraMono-Regular,Fira Mono" font-size="38.0" fill="#FEFFFF" transform="matrix(1.00, 0.00, -0.00, -1.00, 342.2, 529.0)"> </text><text xml:space="preserve" font-family="FiraMono-Regular,Fira Mono" font-size="38.0" fill="#FEFFFF" transform="matrix(1.00, 0.00, -0.00, -1.00, 365.0, 529.0)"> </text><text xml:space="preserve" font-family="FiraMono-Regular,Fira Mono" font-size="38.0" fill="#FEFFFF" transform="matrix(1.00, 0.00, -0.00, -1.00, 387.8, 529.0)"> </text><text xml:space="preserve" font-family="FiraMono-Regular,Fira Mono" font-size="38.0" fill="#FEFFFF" transform="matrix(1.00, 0.00, -0.00, -1.00, 410.6, 529.0)"> </text><text xml:space="preserve" font-family="FiraMono-Regular,Fira Mono" font-size="38.0" fill="#FEFFFF" transform="matrix(1.00, 0.00, -0.00, -1.00, 433.4, 529.0)"> </text><text xml:space="preserve" font-family="FiraMono-Regular,Fira Mono" font-size="38.0" fill="#FEFFFF" transform="matrix(1.00, 0.00, -0.00, -1.00, 456.2, 529.0)"> </text><text xml:space="preserve" font-family="FiraMono-Regular,Fira Mono" font-size="38.0" fill="#FEFFFF" transform="matrix(1.00, 0.00, -0.00, -1.00, 479.0, 529.0)"> </text><text xml:space="preserve" font-family="FiraMono-Regular,Fira Mono" font-size="38.0" fill="#FEFFFF" transform="matrix(1.00, 0.00, -0.00, -1.00, 501.8, 529.0)"> </text><text xml:space="preserve" font-family="FiraMono-Regular,Fira Mono" font-size="38.0" fill="#FEFFFF" transform="matrix(1.00, 0.00, -0.00, -1.00, 524.6, 529.0)"> </text><text xml:space="preserve" font-family="FiraMono-Regular,Fira Mono" font-size="38.0" fill="#FEFFFF" transform="matrix(1.00, 0.00, -0.00, -1.00, 547.4, 529.0)"> </text><text xml:space="preserve" font-family="FiraMono-Regular,Fira Mono" font-size="38.0" fill="#FEFFFF" transform="matrix(1.00, 0.00, -0.00, -1.00, 570.2, 529.0)">|</text><text xml:space="preserve" font-family="FiraMono-Regular,Fira Mono" font-size="38.0" fill="#FEFFFF" transform="matrix(1.00, 0.00, -0.00, -1.00, 593.0, 529.0)"> </text><image xlink:href="A0BDAA002B67BA107C06210BA6B11C4C.png" width="636.00" height="135.00" transform="matrix(1.00, 0.00, -0.00, -1.00, 96.0, 551.0)"></image><text xml:space="preserve" font-family="FiraMono-Regular,Fira Mono" font-size="38.0" fill="#FEFFFF" transform="matrix(1.00, 0.00, -0.00, -1.00, 137.0, 470.0)">|</text><text xml:space="preserve" font-family="FiraMono-Regular,Fira Mono" font-size="38.0" fill="#FEFFFF" transform="matrix(1.00, 0.00, -0.00, -1.00, 159.8, 470.0)"> </text><text xml:space="preserve" font-family="FiraMono-Regular,Fira Mono" font-size="38.0" fill="#FEFFFF" transform="matrix(1.00, 0.00, -0.00, -1.00, 182.6, 470.0)"> </text><text xml:space="preserve" font-family="FiraMono-Regular,Fira Mono" font-size="38.0" fill="#FEFFFF" transform="matrix(1.00, 0.00, -0.00, -1.00, 205.4, 470.0)"> </text><text xml:space="preserve" font-family="FiraMono-Regular,Fira Mono" font-size="38.0" fill="#FEFFFF" transform="matrix(1.00, 0.00, -0.00, -1.00, 228.2, 470.0)"> </text><text xml:space="preserve" font-family="FiraMono-Regular,Fira Mono" font-size="38.0" fill="#FEFFFF" transform="matrix(1.00, 0.00, -0.00, -1.00, 251.0, 470.0)"> </text><text xml:space="preserve" font-family="FiraMono-Regular,Fira Mono" font-size="38.0" fill="#FEFFFF" transform="matrix(1.00, 0.00, -0.00, -1.00, 273.8, 470.0)"> </text><text xml:space="preserve" font-family="FiraMono-Regular,Fira Mono" font-size="38.0" fill="#FEFFFF" transform="matrix(1.00, 0.00, -0.00, -1.00, 296.6, 470.0)"> </text><text xml:space="preserve" font-family="FiraMono-Regular,Fira Mono" font-size="38.0" fill="#FEFFFF" transform="matrix(1.00, 0.00, -0.00, -1.00, 319.4, 470.0)">|</text><text xml:space="preserve" font-family="FiraMono-Regular,Fira Mono" font-size="38.0" fill="#FEFFFF" transform="matrix(1.00, 0.00, -0.00, -1.00, 342.2, 470.0)"> </text><text xml:space="preserve" font-family="FiraMono-Regular,Fira Mono" font-size="38.0" fill="#FEFFFF" transform="matrix(1.00, 0.00, -0.00, -1.00, 365.0, 470.0)"> </text><text xml:space="preserve" font-family="FiraMono-Regular,Fira Mono" font-size="38.0" fill="#FEFFFF" transform="matrix(1.00, 0.00, -0.00, -1.00, 387.8, 470.0)"> </text><text xml:space="preserve" font-family="FiraMono-Regular,Fira Mono" font-size="38.0" fill="#FEFFFF" transform="matrix(1.00, 0.00, -0.00, -1.00, 410.6, 470.0)"> </text><text xml:space="preserve" font-family="FiraMono-Regular,Fira Mono" font-size="38.0" fill="#FEFFFF" transform="matrix(1.00, 0.00, -0.00, -1.00, 433.4, 470.0)"> </text><text xml:space="preserve" font-family="FiraMono-Regular,Fira Mono" font-size="38.0" fill="#FEFFFF" transform="matrix(1.00, 0.00, -0.00, -1.00, 456.2, 470.0)"> </text><text xml:space="preserve" font-family="FiraMono-Regular,Fira Mono" font-size="38.0" fill="#FEFFFF" transform="matrix(1.00, 0.00, -0.00, -1.00, 479.0, 470.0)"> </text><text xml:space="preserve" font-family="FiraMono-Regular,Fira Mono" font-size="38.0" fill="#FEFFFF" transform="matrix(1.00, 0.00, -0.00, -1.00, 501.8, 470.0)"> </text><text xml:space="preserve" font-family="FiraMono-Regular,Fira Mono" font-size="38.0" fill="#FEFFFF" transform="matrix(1.00, 0.00, -0.00, -1.00, 524.6, 470.0)"> </text><text xml:space="preserve" font-family="FiraMono-Regular,Fira Mono" font-size="38.0" fill="#FEFFFF" transform="matrix(1.00, 0.00, -0.00, -1.00, 547.4, 470.0)"> </text><text xml:space="preserve" font-family="FiraMono-Regular,Fira Mono" font-size="38.0" fill="#FEFFFF" transform="matrix(1.00, 0.00, -0.00, -1.00, 570.2, 470.0)">f</text><text xml:space="preserve" font-family="FiraMono-Regular,Fira Mono" font-size="38.0" fill="#FEFFFF" transform="matrix(1.00, 0.00, -0.00, -1.00, 593.0, 470.0)">a</text><text xml:space="preserve" font-family="FiraMono-Regular,Fira Mono" font-size="38.0" fill="#FEFFFF" transform="matrix(1.00, 0.00, -0.00, -1.00, 615.8, 470.0)">l</text><text xml:space="preserve" font-family="FiraMono-Regular,Fira Mono" font-size="38.0" fill="#FEFFFF" transform="matrix(1.00, 0.00, -0.00, -1.00, 638.6, 470.0)">s</text><text xml:space="preserve" font-family="FiraMono-Regular,Fira Mono" font-size="38.0" fill="#FEFFFF" transform="matrix(1.00, 0.00, -0.00, -1.00, 661.4, 470.0)">e</text><text xml:space="preserve" font-family="FiraMono-Regular,Fira Mono" font-size="38.0" fill="#FEFFFF" transform="matrix(1.00, 0.00, -0.00, -1.00, 684.2, 470.0)"> </text><image xlink:href="9E10332C84F12562F3E3B60664AFD893.png" width="1703.00" height="140.00" transform="matrix(1.00, 0.00, -0.00, -1.00, 96.0, 492.0)"></image><text xml:space="preserve" font-family="FiraMono-Regular,Fira Mono" font-size="38.0" fill="#FEFFFF" transform="matrix(1.00, 0.00, -0.00, -1.00, 137.0, 411.0)">|</text><text xml:space="preserve" font-family="FiraMono-Regular,Fira Mono" font-size="38.0" fill="#FEFFFF" transform="matrix(1.00, 0.00, -0.00, -1.00, 159.8, 411.0)"> </text><text xml:space="preserve" font-family="FiraMono-Regular,Fira Mono" font-size="38.0" fill="#FEFFFF" transform="matrix(1.00, 0.00, -0.00, -1.00, 182.6, 411.0)"> </text><text xml:space="preserve" font-family="FiraMono-Regular,Fira Mono" font-size="38.0" fill="#FEFFFF" transform="matrix(1.00, 0.00, -0.00, -1.00, 205.4, 411.0)"> </text><text xml:space="preserve" font-family="FiraMono-Regular,Fira Mono" font-size="38.0" fill="#FEFFFF" transform="matrix(1.00, 0.00, -0.00, -1.00, 228.2, 411.0)"> </text><text xml:space="preserve" font-family="FiraMono-Regular,Fira Mono" font-size="38.0" fill="#FEFFFF" transform="matrix(1.00, 0.00, -0.00, -1.00, 251.0, 411.0)"> </text><text xml:space="preserve" font-family="FiraMono-Regular,Fira Mono" font-size="38.0" fill="#FEFFFF" transform="matrix(1.00, 0.00, -0.00, -1.00, 273.8, 411.0)"> </text><text xml:space="preserve" font-family="FiraMono-Regular,Fira Mono" font-size="38.0" fill="#FEFFFF" transform="matrix(1.00, 0.00, -0.00, -1.00, 296.6, 411.0)"> </text><text xml:space="preserve" font-family="FiraMono-Regular,Fira Mono" font-size="38.0" fill="#FEFFFF" transform="matrix(1.00, 0.00, -0.00, -1.00, 319.4, 411.0)">[</text><text xml:space="preserve" font-family="FiraMono-Regular,Fira Mono" font-size="38.0" fill="#FEFFFF" transform="matrix(1.00, 0.00, -0.00, -1.00, 342.2, 411.0)">K</text><text xml:space="preserve" font-family="FiraMono-Regular,Fira Mono" font-size="38.0" fill="#FEFFFF" transform="matrix(1.00, 0.00, -0.00, -1.00, 365.0, 411.0)">l</text><text xml:space="preserve" font-family="FiraMono-Regular,Fira Mono" font-size="38.0" fill="#FEFFFF" transform="matrix(1.00, 0.00, -0.00, -1.00, 387.8, 411.0)">i</text><text xml:space="preserve" font-family="FiraMono-Regular,Fira Mono" font-size="38.0" fill="#FEFFFF" transform="matrix(1.00, 0.00, -0.00, -1.00, 410.6, 411.0)">n</text><text xml:space="preserve" font-family="FiraMono-Regular,Fira Mono" font-size="38.0" fill="#FEFFFF" transform="matrix(1.00, 0.00, -0.00, -1.00, 433.4, 411.0)">g</text><text xml:space="preserve" font-family="FiraMono-Regular,Fira Mono" font-size="38.0" fill="#FEFFFF" transform="matrix(1.00, 0.00, -0.00, -1.00, 456.2, 411.0)">o</text><text xml:space="preserve" font-family="FiraMono-Regular,Fira Mono" font-size="38.0" fill="#FEFFFF" transform="matrix(1.00, 0.00, -0.00, -1.00, 479.0, 411.0)">n</text><text xml:space="preserve" font-family="FiraMono-Regular,Fira Mono" font-size="38.0" fill="#FEFFFF" transform="matrix(1.00, 0.00, -0.00, -1.00, 501.8, 411.0)">,</text><text xml:space="preserve" font-family="FiraMono-Regular,Fira Mono" font-size="38.0" fill="#FEFFFF" transform="matrix(1.00, 0.00, -0.00, -1.00, 524.6, 411.0)"> </text><text xml:space="preserve" font-family="FiraMono-Regular,Fira Mono" font-size="38.0" fill="#FEFFFF" transform="matrix(1.00, 0.00, -0.00, -1.00, 547.4, 411.0)">F</text><text xml:space="preserve" font-family="FiraMono-Regular,Fira Mono" font-size="38.0" fill="#FEFFFF" transform="matrix(1.00, 0.00, -0.00, -1.00, 570.2, 411.0)">e</text><text xml:space="preserve" font-family="FiraMono-Regular,Fira Mono" font-size="38.0" fill="#FEFFFF" transform="matrix(1.00, 0.00, -0.00, -1.00, 593.0, 411.0)">d</text><text xml:space="preserve" font-family="FiraMono-Regular,Fira Mono" font-size="38.0" fill="#FEFFFF" transform="matrix(1.00, 0.00, -0.00, -1.00, 615.8, 411.0)">e</text><text xml:space="preserve" font-family="FiraMono-Regular,Fira Mono" font-size="38.0" fill="#FEFFFF" transform="matrix(1.00, 0.00, -0.00, -1.00, 638.6, 411.0)">r</text><text xml:space="preserve" font-family="FiraMono-Regular,Fira Mono" font-size="38.0" fill="#FEFFFF" transform="matrix(1.00, 0.00, -0.00, -1.00, 661.4, 411.0)">a</text><text xml:space="preserve" font-family="FiraMono-Regular,Fira Mono" font-size="38.0" fill="#FEFFFF" transform="matrix(1.00, 0.00, -0.00, -1.00, 684.2, 411.0)">t</text><text xml:space="preserve" font-family="FiraMono-Regular,Fira Mono" font-size="38.0" fill="#FEFFFF" transform="matrix(1.00, 0.00, -0.00, -1.00, 707.0, 411.0)">i</text><text xml:space="preserve" font-family="FiraMono-Regular,Fira Mono" font-size="38.0" fill="#FEFFFF" transform="matrix(1.00, 0.00, -0.00, -1.00, 729.8, 411.0)">o</text><text xml:space="preserve" font-family="FiraMono-Regular,Fira Mono" font-size="38.0" fill="#FEFFFF" transform="matrix(1.00, 0.00, -0.00, -1.00, 752.6, 411.0)">n</text><text xml:space="preserve" font-family="FiraMono-Regular,Fira Mono" font-size="38.0" fill="#FEFFFF" transform="matrix(1.00, 0.00, -0.00, -1.00, 775.4, 411.0)">,</text><text xml:space="preserve" font-family="FiraMono-Regular,Fira Mono" font-size="38.0" fill="#FEFFFF" transform="matrix(1.00, 0.00, -0.00, -1.00, 798.2, 411.0)"> </text><text xml:space="preserve" font-family="FiraMono-Regular,Fira Mono" font-size="38.0" fill="#FEFFFF" transform="matrix(1.00, 0.00, -0.00, -1.00, 821.0, 411.0)">F</text><text xml:space="preserve" font-family="FiraMono-Regular,Fira Mono" font-size="38.0" fill="#FEFFFF" transform="matrix(1.00, 0.00, -0.00, -1.00, 843.8, 411.0)">e</text><text xml:space="preserve" font-family="FiraMono-Regular,Fira Mono" font-size="38.0" fill="#FEFFFF" transform="matrix(1.00, 0.00, -0.00, -1.00, 866.6, 411.0)">d</text><text xml:space="preserve" font-family="FiraMono-Regular,Fira Mono" font-size="38.0" fill="#FEFFFF" transform="matrix(1.00, 0.00, -0.00, -1.00, 889.4, 411.0)">e</text><text xml:space="preserve" font-family="FiraMono-Regular,Fira Mono" font-size="38.0" fill="#FEFFFF" transform="matrix(1.00, 0.00, -0.00, -1.00, 912.2, 411.0)">r</text><text xml:space="preserve" font-family="FiraMono-Regular,Fira Mono" font-size="38.0" fill="#FEFFFF" transform="matrix(1.00, 0.00, -0.00, -1.00, 935.0, 411.0)">a</text><text xml:space="preserve" font-family="FiraMono-Regular,Fira Mono" font-size="38.0" fill="#FEFFFF" transform="matrix(1.00, 0.00, -0.00, -1.00, 957.8, 411.0)">t</text><text xml:space="preserve" font-family="FiraMono-Regular,Fira Mono" font-size="38.0" fill="#FEFFFF" transform="matrix(1.00, 0.00, -0.00, -1.00, 980.6, 411.0)">i</text><text xml:space="preserve" font-family="FiraMono-Regular,Fira Mono" font-size="38.0" fill="#FEFFFF" transform="matrix(1.00, 0.00, -0.00, -1.00, 1003.4, 411.0)">o</text><text xml:space="preserve" font-family="FiraMono-Regular,Fira Mono" font-size="38.0" fill="#FEFFFF" transform="matrix(1.00, 0.00, -0.00, -1.00, 1026.2, 411.0)">n</text><text xml:space="preserve" font-family="FiraMono-Regular,Fira Mono" font-size="38.0" fill="#FEFFFF" transform="matrix(1.00, 0.00, -0.00, -1.00, 1049.0, 411.0)">,</text><text xml:space="preserve" font-family="FiraMono-Regular,Fira Mono" font-size="38.0" fill="#FEFFFF" transform="matrix(1.00, 0.00, -0.00, -1.00, 1071.8, 411.0)"> </text><text xml:space="preserve" font-family="FiraMono-Regular,Fira Mono" font-size="38.0" fill="#FEFFFF" transform="matrix(1.00, 0.00, -0.00, -1.00, 1094.6, 411.0)">F</text><text xml:space="preserve" font-family="FiraMono-Regular,Fira Mono" font-size="38.0" fill="#FEFFFF" transform="matrix(1.00, 0.00, -0.00, -1.00, 1117.4, 411.0)">e</text><text xml:space="preserve" font-family="FiraMono-Regular,Fira Mono" font-size="38.0" fill="#FEFFFF" transform="matrix(1.00, 0.00, -0.00, -1.00, 1140.2, 411.0)">d</text><text xml:space="preserve" font-family="FiraMono-Regular,Fira Mono" font-size="38.0" fill="#FEFFFF" transform="matrix(1.00, 0.00, -0.00, -1.00, 1163.0, 411.0)">e</text><text xml:space="preserve" font-family="FiraMono-Regular,Fira Mono" font-size="38.0" fill="#FEFFFF" transform="matrix(1.00, 0.00, -0.00, -1.00, 1185.8, 411.0)">r</text><text xml:space="preserve" font-family="FiraMono-Regular,Fira Mono" font-size="38.0" fill="#FEFFFF" transform="matrix(1.00, 0.00, -0.00, -1.00, 1208.6, 411.0)">a</text><text xml:space="preserve" font-family="FiraMono-Regular,Fira Mono" font-size="38.0" fill="#FEFFFF" transform="matrix(1.00, 0.00, -0.00, -1.00, 1231.4, 411.0)">t</text><text xml:space="preserve" font-family="FiraMono-Regular,Fira Mono" font-size="38.0" fill="#FEFFFF" transform="matrix(1.00, 0.00, -0.00, -1.00, 1254.2, 411.0)">i</text><text xml:space="preserve" font-family="FiraMono-Regular,Fira Mono" font-size="38.0" fill="#FEFFFF" transform="matrix(1.00, 0.00, -0.00, -1.00, 1277.0, 411.0)">o</text><text xml:space="preserve" font-family="FiraMono-Regular,Fira Mono" font-size="38.0" fill="#FEFFFF" transform="matrix(1.00, 0.00, -0.00, -1.00, 1299.8, 411.0)">n</text><text xml:space="preserve" font-family="FiraMono-Regular,Fira Mono" font-size="38.0" fill="#FEFFFF" transform="matrix(1.00, 0.00, -0.00, -1.00, 1322.6, 411.0)">,</text><text xml:space="preserve" font-family="FiraMono-Regular,Fira Mono" font-size="38.0" fill="#FEFFFF" transform="matrix(1.00, 0.00, -0.00, -1.00, 1345.4, 411.0)"> </text><text xml:space="preserve" font-family="FiraMono-Regular,Fira Mono" font-size="38.0" fill="#FEFFFF" transform="matrix(1.00, 0.00, -0.00, -1.00, 1368.2, 411.0)">K</text><text xml:space="preserve" font-family="FiraMono-Regular,Fira Mono" font-size="38.0" fill="#FEFFFF" transform="matrix(1.00, 0.00, -0.00, -1.00, 1391.0, 411.0)">l</text><text xml:space="preserve" font-family="FiraMono-Regular,Fira Mono" font-size="38.0" fill="#FEFFFF" transform="matrix(1.00, 0.00, -0.00, -1.00, 1413.8, 411.0)">i</text><text xml:space="preserve" font-family="FiraMono-Regular,Fira Mono" font-size="38.0" fill="#FEFFFF" transform="matrix(1.00, 0.00, -0.00, -1.00, 1436.6, 411.0)">n</text><text xml:space="preserve" font-family="FiraMono-Regular,Fira Mono" font-size="38.0" fill="#FEFFFF" transform="matrix(1.00, 0.00, -0.00, -1.00, 1459.4, 411.0)">g</text><text xml:space="preserve" font-family="FiraMono-Regular,Fira Mono" font-size="38.0" fill="#FEFFFF" transform="matrix(1.00, 0.00, -0.00, -1.00, 1482.2, 411.0)">o</text><text xml:space="preserve" font-family="FiraMono-Regular,Fira Mono" font-size="38.0" fill="#FEFFFF" transform="matrix(1.00, 0.00, -0.00, -1.00, 1505.0, 411.0)">n</text><text xml:space="preserve" font-family="FiraMono-Regular,Fira Mono" font-size="38.0" fill="#FEFFFF" transform="matrix(1.00, 0.00, -0.00, -1.00, 1527.8, 411.0)">,</text><text xml:space="preserve" font-family="FiraMono-Regular,Fira Mono" font-size="38.0" fill="#FEFFFF" transform="matrix(1.00, 0.00, -0.00, -1.00, 1550.6, 411.0)"> </text><text xml:space="preserve" font-family="FiraMono-Regular,Fira Mono" font-size="38.0" fill="#FEFFFF" transform="matrix(1.00, 0.00, -0.00, -1.00, 1573.4, 411.0)">R</text><text xml:space="preserve" font-family="FiraMono-Regular,Fira Mono" font-size="38.0" fill="#FEFFFF" transform="matrix(1.00, 0.00, -0.00, -1.00, 1596.2, 411.0)">o</text><text xml:space="preserve" font-family="FiraMono-Regular,Fira Mono" font-size="38.0" fill="#FEFFFF" transform="matrix(1.00, 0.00, -0.00, -1.00, 1619.0, 411.0)">m</text><text xml:space="preserve" font-family="FiraMono-Regular,Fira Mono" font-size="38.0" fill="#FEFFFF" transform="matrix(1.00, 0.00, -0.00, -1.00, 1641.8, 411.0)">u</text><text xml:space="preserve" font-family="FiraMono-Regular,Fira Mono" font-size="38.0" fill="#FEFFFF" transform="matrix(1.00, 0.00, -0.00, -1.00, 1664.6, 411.0)">l</text><text xml:space="preserve" font-family="FiraMono-Regular,Fira Mono" font-size="38.0" fill="#FEFFFF" transform="matrix(1.00, 0.00, -0.00, -1.00, 1687.4, 411.0)">a</text><text xml:space="preserve" font-family="FiraMono-Regular,Fira Mono" font-size="38.0" fill="#FEFFFF" transform="matrix(1.00, 0.00, -0.00, -1.00, 1710.2, 411.0)">n</text><text xml:space="preserve" font-family="FiraMono-Regular,Fira Mono" font-size="38.0" fill="#FEFFFF" transform="matrix(1.00, 0.00, -0.00, -1.00, 1733.0, 411.0)">]</text><text xml:space="preserve" font-family="FiraMono-Regular,Fira Mono" font-size="38.0" fill="#FEFFFF" transform="matrix(1.00, 0.00, -0.00, -1.00, 1755.8, 411.0)"> </text><image xlink:href="../../1DB9768F-FDE5-44FA-A5A6-6B4EFDB5FC1B/assets/A885D406F7295E4FF1D50A5E4EFBB757.png" width="1592.00" height="140.00" transform="matrix(1.00, 0.00, -0.00, -1.00, 93.0, 433.0)"></image><text xml:space="preserve" font-family="FiraMono-Regular,Fira Mono" font-size="38.0" fill="#FEFFFF" transform="matrix(1.00, 0.00, -0.00, -1.00, 137.0, 352.0)">[</text><text xml:space="preserve" font-family="FiraMono-Regular,Fira Mono" font-size="38.0" fill="#FEFFFF" transform="matrix(1.00, 0.00, -0.00, -1.00, 159.8, 352.0)">G</text><text xml:space="preserve" font-family="FiraMono-Regular,Fira Mono" font-size="38.0" fill="#FEFFFF" transform="matrix(1.00, 0.00, -0.00, -1.00, 182.6, 352.0)">r</text><text xml:space="preserve" font-family="FiraMono-Regular,Fira Mono" font-size="38.0" fill="#FEFFFF" transform="matrix(1.00, 0.00, -0.00, -1.00, 205.4, 352.0)">'</text><text xml:space="preserve" font-family="FiraMono-Regular,Fira Mono" font-size="38.0" fill="#FEFFFF" transform="matrix(1.00, 0.00, -0.00, -1.00, 228.2, 352.0)">o</text><text xml:space="preserve" font-family="FiraMono-Regular,Fira Mono" font-size="38.0" fill="#FEFFFF" transform="matrix(1.00, 0.00, -0.00, -1.00, 251.0, 352.0)">t</text><text xml:space="preserve" font-family="FiraMono-Regular,Fira Mono" font-size="38.0" fill="#FEFFFF" transform="matrix(1.00, 0.00, -0.00, -1.00, 273.8, 352.0)">h</text><text xml:space="preserve" font-family="FiraMono-Regular,Fira Mono" font-size="38.0" fill="#FEFFFF" transform="matrix(1.00, 0.00, -0.00, -1.00, 296.6, 352.0)">,</text><text xml:space="preserve" font-family="FiraMono-Regular,Fira Mono" font-size="38.0" fill="#FEFFFF" transform="matrix(1.00, 0.00, -0.00, -1.00, 319.4, 352.0)"> </text><text xml:space="preserve" font-family="FiraMono-Regular,Fira Mono" font-size="38.0" fill="#FEFFFF" transform="matrix(1.00, 0.00, -0.00, -1.00, 342.2, 352.0)">E</text><text xml:space="preserve" font-family="FiraMono-Regular,Fira Mono" font-size="38.0" fill="#FEFFFF" transform="matrix(1.00, 0.00, -0.00, -1.00, 365.0, 352.0)">n</text><text xml:space="preserve" font-family="FiraMono-Regular,Fira Mono" font-size="38.0" fill="#FEFFFF" transform="matrix(1.00, 0.00, -0.00, -1.00, 387.8, 352.0)">t</text><text xml:space="preserve" font-family="FiraMono-Regular,Fira Mono" font-size="38.0" fill="#FEFFFF" transform="matrix(1.00, 0.00, -0.00, -1.00, 410.6, 352.0)">e</text><text xml:space="preserve" font-family="FiraMono-Regular,Fira Mono" font-size="38.0" fill="#FEFFFF" transform="matrix(1.00, 0.00, -0.00, -1.00, 433.4, 352.0)">r</text><text xml:space="preserve" font-family="FiraMono-Regular,Fira Mono" font-size="38.0" fill="#FEFFFF" transform="matrix(1.00, 0.00, -0.00, -1.00, 456.2, 352.0)">p</text><text xml:space="preserve" font-family="FiraMono-Regular,Fira Mono" font-size="38.0" fill="#FEFFFF" transform="matrix(1.00, 0.00, -0.00, -1.00, 479.0, 352.0)">r</text><text xml:space="preserve" font-family="FiraMono-Regular,Fira Mono" font-size="38.0" fill="#FEFFFF" transform="matrix(1.00, 0.00, -0.00, -1.00, 501.8, 352.0)">i</text><text xml:space="preserve" font-family="FiraMono-Regular,Fira Mono" font-size="38.0" fill="#FEFFFF" transform="matrix(1.00, 0.00, -0.00, -1.00, 524.6, 352.0)">s</text><text xml:space="preserve" font-family="FiraMono-Regular,Fira Mono" font-size="38.0" fill="#FEFFFF" transform="matrix(1.00, 0.00, -0.00, -1.00, 547.4, 352.0)">e</text><text xml:space="preserve" font-family="FiraMono-Regular,Fira Mono" font-size="38.0" fill="#FEFFFF" transform="matrix(1.00, 0.00, -0.00, -1.00, 570.2, 352.0)">,</text><text xml:space="preserve" font-family="FiraMono-Regular,Fira Mono" font-size="38.0" fill="#FEFFFF" transform="matrix(1.00, 0.00, -0.00, -1.00, 593.0, 352.0)"> </text><text xml:space="preserve" font-family="FiraMono-Regular,Fira Mono" font-size="38.0" fill="#FEFFFF" transform="matrix(1.00, 0.00, -0.00, -1.00, 615.8, 352.0)">C</text><text xml:space="preserve" font-family="FiraMono-Regular,Fira Mono" font-size="38.0" fill="#FEFFFF" transform="matrix(1.00, 0.00, -0.00, -1.00, 638.6, 352.0)">o</text><text xml:space="preserve" font-family="FiraMono-Regular,Fira Mono" font-size="38.0" fill="#FEFFFF" transform="matrix(1.00, 0.00, -0.00, -1.00, 661.4, 352.0)">n</text><text xml:space="preserve" font-family="FiraMono-Regular,Fira Mono" font-size="38.0" fill="#FEFFFF" transform="matrix(1.00, 0.00, -0.00, -1.00, 684.2, 352.0)">s</text><text xml:space="preserve" font-family="FiraMono-Regular,Fira Mono" font-size="38.0" fill="#FEFFFF" transform="matrix(1.00, 0.00, -0.00, -1.00, 707.0, 352.0)">t</text><text xml:space="preserve" font-family="FiraMono-Regular,Fira Mono" font-size="38.0" fill="#FEFFFF" transform="matrix(1.00, 0.00, -0.00, -1.00, 729.8, 352.0)">i</text><text xml:space="preserve" font-family="FiraMono-Regular,Fira Mono" font-size="38.0" fill="#FEFFFF" transform="matrix(1.00, 0.00, -0.00, -1.00, 752.6, 352.0)">t</text><text xml:space="preserve" font-family="FiraMono-Regular,Fira Mono" font-size="38.0" fill="#FEFFFF" transform="matrix(1.00, 0.00, -0.00, -1.00, 775.4, 352.0)">u</text><text xml:space="preserve" font-family="FiraMono-Regular,Fira Mono" font-size="38.0" fill="#FEFFFF" transform="matrix(1.00, 0.00, -0.00, -1.00, 798.2, 352.0)">t</text><text xml:space="preserve" font-family="FiraMono-Regular,Fira Mono" font-size="38.0" fill="#FEFFFF" transform="matrix(1.00, 0.00, -0.00, -1.00, 821.0, 352.0)">i</text><text xml:space="preserve" font-family="FiraMono-Regular,Fira Mono" font-size="38.0" fill="#FEFFFF" transform="matrix(1.00, 0.00, -0.00, -1.00, 843.8, 352.0)">o</text><text xml:space="preserve" font-family="FiraMono-Regular,Fira Mono" font-size="38.0" fill="#FEFFFF" transform="matrix(1.00, 0.00, -0.00, -1.00, 866.6, 352.0)">n</text><text xml:space="preserve" font-family="FiraMono-Regular,Fira Mono" font-size="38.0" fill="#FEFFFF" transform="matrix(1.00, 0.00, -0.00, -1.00, 889.4, 352.0)">,</text><text xml:space="preserve" font-family="FiraMono-Regular,Fira Mono" font-size="38.0" fill="#FEFFFF" transform="matrix(1.00, 0.00, -0.00, -1.00, 912.2, 352.0)"> </text><text xml:space="preserve" font-family="FiraMono-Regular,Fira Mono" font-size="38.0" fill="#FEFFFF" transform="matrix(1.00, 0.00, -0.00, -1.00, 935.0, 352.0)">C</text><text xml:space="preserve" font-family="FiraMono-Regular,Fira Mono" font-size="38.0" fill="#FEFFFF" transform="matrix(1.00, 0.00, -0.00, -1.00, 957.8, 352.0)">o</text><text xml:space="preserve" font-family="FiraMono-Regular,Fira Mono" font-size="38.0" fill="#FEFFFF" transform="matrix(1.00, 0.00, -0.00, -1.00, 980.6, 352.0)">n</text><text xml:space="preserve" font-family="FiraMono-Regular,Fira Mono" font-size="38.0" fill="#FEFFFF" transform="matrix(1.00, 0.00, -0.00, -1.00, 1003.4, 352.0)">s</text><text xml:space="preserve" font-family="FiraMono-Regular,Fira Mono" font-size="38.0" fill="#FEFFFF" transform="matrix(1.00, 0.00, -0.00, -1.00, 1026.2, 352.0)">t</text><text xml:space="preserve" font-family="FiraMono-Regular,Fira Mono" font-size="38.0" fill="#FEFFFF" transform="matrix(1.00, 0.00, -0.00, -1.00, 1049.0, 352.0)">e</text><text xml:space="preserve" font-family="FiraMono-Regular,Fira Mono" font-size="38.0" fill="#FEFFFF" transform="matrix(1.00, 0.00, -0.00, -1.00, 1071.8, 352.0)">l</text><text xml:space="preserve" font-family="FiraMono-Regular,Fira Mono" font-size="38.0" fill="#FEFFFF" transform="matrix(1.00, 0.00, -0.00, -1.00, 1094.6, 352.0)">l</text><text xml:space="preserve" font-family="FiraMono-Regular,Fira Mono" font-size="38.0" fill="#FEFFFF" transform="matrix(1.00, 0.00, -0.00, -1.00, 1117.4, 352.0)">a</text><text xml:space="preserve" font-family="FiraMono-Regular,Fira Mono" font-size="38.0" fill="#FEFFFF" transform="matrix(1.00, 0.00, -0.00, -1.00, 1140.2, 352.0)">t</text><text xml:space="preserve" font-family="FiraMono-Regular,Fira Mono" font-size="38.0" fill="#FEFFFF" transform="matrix(1.00, 0.00, -0.00, -1.00, 1163.0, 352.0)">i</text><text xml:space="preserve" font-family="FiraMono-Regular,Fira Mono" font-size="38.0" fill="#FEFFFF" transform="matrix(1.00, 0.00, -0.00, -1.00, 1185.8, 352.0)">o</text><text xml:space="preserve" font-family="FiraMono-Regular,Fira Mono" font-size="38.0" fill="#FEFFFF" transform="matrix(1.00, 0.00, -0.00, -1.00, 1208.6, 352.0)">n</text><text xml:space="preserve" font-family="FiraMono-Regular,Fira Mono" font-size="38.0" fill="#FEFFFF" transform="matrix(1.00, 0.00, -0.00, -1.00, 1231.4, 352.0)">,</text><text xml:space="preserve" font-family="FiraMono-Regular,Fira Mono" font-size="38.0" fill="#FEFFFF" transform="matrix(1.00, 0.00, -0.00, -1.00, 1254.2, 352.0)"> </text><text xml:space="preserve" font-family="FiraMono-Regular,Fira Mono" font-size="38.0" fill="#FEFFFF" transform="matrix(1.00, 0.00, -0.00, -1.00, 1277.0, 352.0)">M</text><text xml:space="preserve" font-family="FiraMono-Regular,Fira Mono" font-size="38.0" fill="#FEFFFF" transform="matrix(1.00, 0.00, -0.00, -1.00, 1299.8, 352.0)">'</text><text xml:space="preserve" font-family="FiraMono-Regular,Fira Mono" font-size="38.0" fill="#FEFFFF" transform="matrix(1.00, 0.00, -0.00, -1.00, 1322.6, 352.0)">C</text><text xml:space="preserve" font-family="FiraMono-Regular,Fira Mono" font-size="38.0" fill="#FEFFFF" transform="matrix(1.00, 0.00, -0.00, -1.00, 1345.4, 352.0)">h</text><text xml:space="preserve" font-family="FiraMono-Regular,Fira Mono" font-size="38.0" fill="#FEFFFF" transform="matrix(1.00, 0.00, -0.00, -1.00, 1368.2, 352.0)">a</text><text xml:space="preserve" font-family="FiraMono-Regular,Fira Mono" font-size="38.0" fill="#FEFFFF" transform="matrix(1.00, 0.00, -0.00, -1.00, 1391.0, 352.0)">r</text><text xml:space="preserve" font-family="FiraMono-Regular,Fira Mono" font-size="38.0" fill="#FEFFFF" transform="matrix(1.00, 0.00, -0.00, -1.00, 1413.8, 352.0)">,</text><text xml:space="preserve" font-family="FiraMono-Regular,Fira Mono" font-size="38.0" fill="#FEFFFF" transform="matrix(1.00, 0.00, -0.00, -1.00, 1436.6, 352.0)"> </text><text xml:space="preserve" font-family="FiraMono-Regular,Fira Mono" font-size="38.0" fill="#FEFFFF" transform="matrix(1.00, 0.00, -0.00, -1.00, 1459.4, 352.0)">H</text><text xml:space="preserve" font-family="FiraMono-Regular,Fira Mono" font-size="38.0" fill="#FEFFFF" transform="matrix(1.00, 0.00, -0.00, -1.00, 1482.2, 352.0)">a</text><text xml:space="preserve" font-family="FiraMono-Regular,Fira Mono" font-size="38.0" fill="#FEFFFF" transform="matrix(1.00, 0.00, -0.00, -1.00, 1505.0, 352.0)">a</text><text xml:space="preserve" font-family="FiraMono-Regular,Fira Mono" font-size="38.0" fill="#FEFFFF" transform="matrix(1.00, 0.00, -0.00, -1.00, 1527.8, 352.0)">k</text><text xml:space="preserve" font-family="FiraMono-Regular,Fira Mono" font-size="38.0" fill="#FEFFFF" transform="matrix(1.00, 0.00, -0.00, -1.00, 1550.6, 352.0)">o</text><text xml:space="preserve" font-family="FiraMono-Regular,Fira Mono" font-size="38.0" fill="#FEFFFF" transform="matrix(1.00, 0.00, -0.00, -1.00, 1573.4, 352.0)">n</text><text xml:space="preserve" font-family="FiraMono-Regular,Fira Mono" font-size="38.0" fill="#FEFFFF" transform="matrix(1.00, 0.00, -0.00, -1.00, 1596.2, 352.0)">a</text><text xml:space="preserve" font-family="FiraMono-Regular,Fira Mono" font-size="38.0" fill="#FEFFFF" transform="matrix(1.00, 0.00, -0.00, -1.00, 1619.0, 352.0)">]</text></g></svg>