<?xml version="1.0" encoding="UTF-8" standalone="no"?><svg xmlns="http://www.w3.org/2000/svg" xmlns:xlink="http://www.w3.org/1999/xlink" clip-rule="evenodd" stroke-miterlimit="10" viewBox="0 0 1920 1080"><desc>SVG generated by Keynote</desc><defs></defs><g transform="matrix(1.00, 0.00, -0.00, -1.00, 0.0, 1080.0)"><g><clipPath id="clip0x7f840c0a92e0"><path d="M 0.0 1080.0 L 1920.0 1080.0 L 1920.0 0.0 L 0.0 0.0 Z M 0.0 1080.0 "></path></clipPath><g clip-path="url(#clip0x7f840c0a92e0)"><image xlink:href="../../BF7430C7-5211-4E68-B118-AC68FDB76F0F/assets/A81AF0278930B93F47F55E5BB6D3A023.png" width="1920.00" height="1080.00" transform="matrix(1.00, 0.00, -0.00, -1.00, 0.0, 1080.0)"></image></g></g><text xml:space="preserve" font-family="FiraMono-Regular,Fira Mono" font-size="31.7" fill="#C07B1E" transform="matrix(1.00, 0.00, -0.00, -1.00, 137.0, 897.9)">d</text><text xml:space="preserve" font-family="FiraMono-Regular,Fira Mono" font-size="31.7" fill="#C07B1E" transform="matrix(1.00, 0.00, -0.00, -1.00, 156.0, 897.9)">e</text><text xml:space="preserve" font-family="FiraMono-Regular,Fira Mono" font-size="31.7" fill="#C07B1E" transform="matrix(1.00, 0.00, -0.00, -1.00, 175.1, 897.9)">f</text><text xml:space="preserve" font-family="FiraMono-Regular,Fira Mono" font-size="31.7" fill="#000000" transform="matrix(1.00, 0.00, -0.00, -1.00, 194.1, 897.9)"> </text><text xml:space="preserve" font-family="FiraMono-Regular,Fira Mono" font-size="31.7" fill="#FF2600" transform="matrix(1.00, 0.00, -0.00, -1.00, 213.1, 897.9)">"</text><text xml:space="preserve" font-family="FiraMono-Regular,Fira Mono" font-size="31.7" fill="#FF2600" transform="matrix(1.00, 0.00, -0.00, -1.00, 232.2, 897.9)">p</text><text xml:space="preserve" font-family="FiraMono-Regular,Fira Mono" font-size="31.7" fill="#FF2600" transform="matrix(1.00, 0.00, -0.00, -1.00, 251.2, 897.9)">r</text><text xml:space="preserve" font-family="FiraMono-Regular,Fira Mono" font-size="31.7" fill="#FF2600" transform="matrix(1.00, 0.00, -0.00, -1.00, 270.2, 897.9)">e</text><text xml:space="preserve" font-family="FiraMono-Regular,Fira Mono" font-size="31.7" fill="#FF2600" transform="matrix(1.00, 0.00, -0.00, -1.00, 289.3, 897.9)">s</text><text xml:space="preserve" font-family="FiraMono-Regular,Fira Mono" font-size="31.7" fill="#FF2600" transform="matrix(1.00, 0.00, -0.00, -1.00, 308.3, 897.9)">e</text><text xml:space="preserve" font-family="FiraMono-Regular,Fira Mono" font-size="31.7" fill="#FF2600" transform="matrix(1.00, 0.00, -0.00, -1.00, 327.3, 897.9)">n</text><text xml:space="preserve" font-family="FiraMono-Regular,Fira Mono" font-size="31.7" fill="#FF2600" transform="matrix(1.00, 0.00, -0.00, -1.00, 346.4, 897.9)">t</text><text xml:space="preserve" font-family="FiraMono-Regular,Fira Mono" font-size="31.7" fill="#FF2600" transform="matrix(1.00, 0.00, -0.00, -1.00, 365.4, 897.9)">s</text><text xml:space="preserve" font-family="FiraMono-Regular,Fira Mono" font-size="31.7" fill="#FF2600" transform="matrix(1.00, 0.00, -0.00, -1.00, 384.4, 897.9)"> </text><text xml:space="preserve" font-family="FiraMono-Regular,Fira Mono" font-size="31.7" fill="#FF2600" transform="matrix(1.00, 0.00, -0.00, -1.00, 403.4, 897.9)">s</text><text xml:space="preserve" font-family="FiraMono-Regular,Fira Mono" font-size="31.7" fill="#FF2600" transform="matrix(1.00, 0.00, -0.00, -1.00, 422.5, 897.9)">h</text><text xml:space="preserve" font-family="FiraMono-Regular,Fira Mono" font-size="31.7" fill="#FF2600" transform="matrix(1.00, 0.00, -0.00, -1.00, 441.5, 897.9)">i</text><text xml:space="preserve" font-family="FiraMono-Regular,Fira Mono" font-size="31.7" fill="#FF2600" transform="matrix(1.00, 0.00, -0.00, -1.00, 460.5, 897.9)">p</text><text xml:space="preserve" font-family="FiraMono-Regular,Fira Mono" font-size="31.7" fill="#FF2600" transform="matrix(1.00, 0.00, -0.00, -1.00, 479.6, 897.9)">s</text><text xml:space="preserve" font-family="FiraMono-Regular,Fira Mono" font-size="31.7" fill="#FF2600" transform="matrix(1.00, 0.00, -0.00, -1.00, 498.6, 897.9)"> </text><text xml:space="preserve" font-family="FiraMono-Regular,Fira Mono" font-size="31.7" fill="#FF2600" transform="matrix(1.00, 0.00, -0.00, -1.00, 517.6, 897.9)">a</text><text xml:space="preserve" font-family="FiraMono-Regular,Fira Mono" font-size="31.7" fill="#FF2600" transform="matrix(1.00, 0.00, -0.00, -1.00, 536.7, 897.9)">s</text><text xml:space="preserve" font-family="FiraMono-Regular,Fira Mono" font-size="31.7" fill="#FF2600" transform="matrix(1.00, 0.00, -0.00, -1.00, 555.7, 897.9)"> </text><text xml:space="preserve" font-family="FiraMono-Regular,Fira Mono" font-size="31.7" fill="#FF2600" transform="matrix(1.00, 0.00, -0.00, -1.00, 574.7, 897.9)">a</text><text xml:space="preserve" font-family="FiraMono-Regular,Fira Mono" font-size="31.7" fill="#FF2600" transform="matrix(1.00, 0.00, -0.00, -1.00, 593.8, 897.9)"> </text><text xml:space="preserve" font-family="FiraMono-Regular,Fira Mono" font-size="31.7" fill="#FF2600" transform="matrix(1.00, 0.00, -0.00, -1.00, 612.8, 897.9)">b</text><text xml:space="preserve" font-family="FiraMono-Regular,Fira Mono" font-size="31.7" fill="#FF2600" transform="matrix(1.00, 0.00, -0.00, -1.00, 631.8, 897.9)">u</text><text xml:space="preserve" font-family="FiraMono-Regular,Fira Mono" font-size="31.7" fill="#FF2600" transform="matrix(1.00, 0.00, -0.00, -1.00, 650.9, 897.9)">l</text><text xml:space="preserve" font-family="FiraMono-Regular,Fira Mono" font-size="31.7" fill="#FF2600" transform="matrix(1.00, 0.00, -0.00, -1.00, 669.9, 897.9)">l</text><text xml:space="preserve" font-family="FiraMono-Regular,Fira Mono" font-size="31.7" fill="#FF2600" transform="matrix(1.00, 0.00, -0.00, -1.00, 688.9, 897.9)">e</text><text xml:space="preserve" font-family="FiraMono-Regular,Fira Mono" font-size="31.7" fill="#FF2600" transform="matrix(1.00, 0.00, -0.00, -1.00, 708.0, 897.9)">t</text><text xml:space="preserve" font-family="FiraMono-Regular,Fira Mono" font-size="31.7" fill="#FF2600" transform="matrix(1.00, 0.00, -0.00, -1.00, 727.0, 897.9)"> </text><text xml:space="preserve" font-family="FiraMono-Regular,Fira Mono" font-size="31.7" fill="#FF2600" transform="matrix(1.00, 0.00, -0.00, -1.00, 746.0, 897.9)">l</text><text xml:space="preserve" font-family="FiraMono-Regular,Fira Mono" font-size="31.7" fill="#FF2600" transform="matrix(1.00, 0.00, -0.00, -1.00, 765.1, 897.9)">i</text><text xml:space="preserve" font-family="FiraMono-Regular,Fira Mono" font-size="31.7" fill="#FF2600" transform="matrix(1.00, 0.00, -0.00, -1.00, 784.1, 897.9)">s</text><text xml:space="preserve" font-family="FiraMono-Regular,Fira Mono" font-size="31.7" fill="#FF2600" transform="matrix(1.00, 0.00, -0.00, -1.00, 803.1, 897.9)">t</text><text xml:space="preserve" font-family="FiraMono-Regular,Fira Mono" font-size="31.7" fill="#FF2600" transform="matrix(1.00, 0.00, -0.00, -1.00, 822.2, 897.9)">"</text><text xml:space="preserve" font-family="FiraMono-Regular,Fira Mono" font-size="31.7" fill="#FFFFFF" transform="matrix(1.00, 0.00, -0.00, -1.00, 841.2, 897.9)">(</text><text xml:space="preserve" font-family="FiraMono-Regular,Fira Mono" font-size="31.7" fill="#FFFFFF" transform="matrix(1.00, 0.00, -0.00, -1.00, 860.2, 897.9)">)</text><text xml:space="preserve" font-family="FiraMono-Regular,Fira Mono" font-size="31.7" fill="#FFFFFF" transform="matrix(1.00, 0.00, -0.00, -1.00, 879.2, 897.9)"> </text><text xml:space="preserve" font-family="FiraMono-Regular,Fira Mono" font-size="31.7" fill="#FFFFFF" transform="matrix(1.00, 0.00, -0.00, -1.00, 898.3, 897.9)">{</text><text xml:space="preserve" font-family="FiraMono-Regular,Fira Mono" font-size="31.7" fill="#000000" transform="matrix(1.00, 0.00, -0.00, -1.00, 917.3, 897.9)"> </text><text xml:space="preserve" font-family="FiraMono-Regular,Fira Mono" font-size="31.7" fill="#FFFFFF" transform="matrix(1.00, 0.00, -0.00, -1.00, 137.0, 848.9)"> </text><text xml:space="preserve" font-family="FiraMono-Regular,Fira Mono" font-size="31.7" fill="#FFFFFF" transform="matrix(1.00, 0.00, -0.00, -1.00, 156.0, 848.9)"> </text><text xml:space="preserve" font-family="FiraMono-Regular,Fira Mono" font-size="31.7" fill="#FFFFFF" transform="matrix(1.00, 0.00, -0.00, -1.00, 175.1, 848.9)">g</text><text xml:space="preserve" font-family="FiraMono-Regular,Fira Mono" font-size="31.7" fill="#FFFFFF" transform="matrix(1.00, 0.00, -0.00, -1.00, 194.1, 848.9)">i</text><text xml:space="preserve" font-family="FiraMono-Regular,Fira Mono" font-size="31.7" fill="#FFFFFF" transform="matrix(1.00, 0.00, -0.00, -1.00, 213.1, 848.9)">v</text><text xml:space="preserve" font-family="FiraMono-Regular,Fira Mono" font-size="31.7" fill="#FFFFFF" transform="matrix(1.00, 0.00, -0.00, -1.00, 232.2, 848.9)">e</text><text xml:space="preserve" font-family="FiraMono-Regular,Fira Mono" font-size="31.7" fill="#FFFFFF" transform="matrix(1.00, 0.00, -0.00, -1.00, 251.2, 848.9)">n</text><text xml:space="preserve" font-family="FiraMono-Regular,Fira Mono" font-size="31.7" fill="#FFFFFF" transform="matrix(1.00, 0.00, -0.00, -1.00, 270.2, 848.9)">:</text><text xml:space="preserve" font-family="FiraMono-Regular,Fira Mono" font-size="31.7" fill="#000000" transform="matrix(1.00, 0.00, -0.00, -1.00, 289.3, 848.9)"> </text><text xml:space="preserve" font-family="FiraMono-Regular,Fira Mono" font-size="31.7" fill="#000000" transform="matrix(1.00, 0.00, -0.00, -1.00, 137.0, 799.9)"> </text><text xml:space="preserve" font-family="FiraMono-Regular,Fira Mono" font-size="31.7" fill="#000000" transform="matrix(1.00, 0.00, -0.00, -1.00, 156.0, 799.9)"> </text><text xml:space="preserve" font-family="FiraMono-Regular,Fira Mono" font-size="31.7" fill="#C07B1E" transform="matrix(1.00, 0.00, -0.00, -1.00, 175.1, 799.9)">d</text><text xml:space="preserve" font-family="FiraMono-Regular,Fira Mono" font-size="31.7" fill="#C07B1E" transform="matrix(1.00, 0.00, -0.00, -1.00, 194.1, 799.9)">e</text><text xml:space="preserve" font-family="FiraMono-Regular,Fira Mono" font-size="31.7" fill="#C07B1E" transform="matrix(1.00, 0.00, -0.00, -1.00, 213.1, 799.9)">f</text><text xml:space="preserve" font-family="FiraMono-Regular,Fira Mono" font-size="31.7" fill="#000000" transform="matrix(1.00, 0.00, -0.00, -1.00, 232.2, 799.9)"> </text><text xml:space="preserve" font-family="FiraMono-Regular,Fira Mono" font-size="31.7" fill="#FFFFFF" transform="matrix(1.00, 0.00, -0.00, -1.00, 251.2, 799.9)">s</text><text xml:space="preserve" font-family="FiraMono-Regular,Fira Mono" font-size="31.7" fill="#FFFFFF" transform="matrix(1.00, 0.00, -0.00, -1.00, 270.2, 799.9)">h</text><text xml:space="preserve" font-family="FiraMono-Regular,Fira Mono" font-size="31.7" fill="#FFFFFF" transform="matrix(1.00, 0.00, -0.00, -1.00, 289.3, 799.9)">i</text><text xml:space="preserve" font-family="FiraMono-Regular,Fira Mono" font-size="31.7" fill="#FFFFFF" transform="matrix(1.00, 0.00, -0.00, -1.00, 308.3, 799.9)">p</text><text xml:space="preserve" font-family="FiraMono-Regular,Fira Mono" font-size="31.7" fill="#FFFFFF" transform="matrix(1.00, 0.00, -0.00, -1.00, 327.3, 799.9)">L</text><text xml:space="preserve" font-family="FiraMono-Regular,Fira Mono" font-size="31.7" fill="#FFFFFF" transform="matrix(1.00, 0.00, -0.00, -1.00, 346.4, 799.9)">i</text><text xml:space="preserve" font-family="FiraMono-Regular,Fira Mono" font-size="31.7" fill="#FFFFFF" transform="matrix(1.00, 0.00, -0.00, -1.00, 365.4, 799.9)">s</text><text xml:space="preserve" font-family="FiraMono-Regular,Fira Mono" font-size="31.7" fill="#FFFFFF" transform="matrix(1.00, 0.00, -0.00, -1.00, 384.4, 799.9)">t</text><text xml:space="preserve" font-family="FiraMono-Regular,Fira Mono" font-size="31.7" fill="#000000" transform="matrix(1.00, 0.00, -0.00, -1.00, 403.4, 799.9)"> </text><text xml:space="preserve" font-family="FiraMono-Regular,Fira Mono" font-size="31.7" fill="#FFFFFF" transform="matrix(1.00, 0.00, -0.00, -1.00, 422.5, 799.9)">=</text><text xml:space="preserve" font-family="FiraMono-Regular,Fira Mono" font-size="31.7" fill="#FFFFFF" transform="matrix(1.00, 0.00, -0.00, -1.00, 441.5, 799.9)"> </text><text xml:space="preserve" font-family="FiraMono-Regular,Fira Mono" font-size="31.7" fill="#FFFFFF" transform="matrix(1.00, 0.00, -0.00, -1.00, 460.5, 799.9)">[</text><text xml:space="preserve" font-family="FiraMono-Regular,Fira Mono" font-size="31.7" fill="#FF2600" transform="matrix(1.00, 0.00, -0.00, -1.00, 479.6, 799.9)">"</text><text xml:space="preserve" font-family="FiraMono-Regular,Fira Mono" font-size="31.7" fill="#FF2600" transform="matrix(1.00, 0.00, -0.00, -1.00, 498.6, 799.9)">E</text><text xml:space="preserve" font-family="FiraMono-Regular,Fira Mono" font-size="31.7" fill="#FF2600" transform="matrix(1.00, 0.00, -0.00, -1.00, 517.6, 799.9)">n</text><text xml:space="preserve" font-family="FiraMono-Regular,Fira Mono" font-size="31.7" fill="#FF2600" transform="matrix(1.00, 0.00, -0.00, -1.00, 536.7, 799.9)">t</text><text xml:space="preserve" font-family="FiraMono-Regular,Fira Mono" font-size="31.7" fill="#FF2600" transform="matrix(1.00, 0.00, -0.00, -1.00, 555.7, 799.9)">e</text><text xml:space="preserve" font-family="FiraMono-Regular,Fira Mono" font-size="31.7" fill="#FF2600" transform="matrix(1.00, 0.00, -0.00, -1.00, 574.7, 799.9)">r</text><text xml:space="preserve" font-family="FiraMono-Regular,Fira Mono" font-size="31.7" fill="#FF2600" transform="matrix(1.00, 0.00, -0.00, -1.00, 593.8, 799.9)">p</text><text xml:space="preserve" font-family="FiraMono-Regular,Fira Mono" font-size="31.7" fill="#FF2600" transform="matrix(1.00, 0.00, -0.00, -1.00, 612.8, 799.9)">r</text><text xml:space="preserve" font-family="FiraMono-Regular,Fira Mono" font-size="31.7" fill="#FF2600" transform="matrix(1.00, 0.00, -0.00, -1.00, 631.8, 799.9)">i</text><text xml:space="preserve" font-family="FiraMono-Regular,Fira Mono" font-size="31.7" fill="#FF2600" transform="matrix(1.00, 0.00, -0.00, -1.00, 650.9, 799.9)">s</text><text xml:space="preserve" font-family="FiraMono-Regular,Fira Mono" font-size="31.7" fill="#FF2600" transform="matrix(1.00, 0.00, -0.00, -1.00, 669.9, 799.9)">e</text><text xml:space="preserve" font-family="FiraMono-Regular,Fira Mono" font-size="31.7" fill="#FF2600" transform="matrix(1.00, 0.00, -0.00, -1.00, 688.9, 799.9)">"</text><text xml:space="preserve" font-family="FiraMono-Regular,Fira Mono" font-size="31.7" fill="#FFFFFF" transform="matrix(1.00, 0.00, -0.00, -1.00, 708.0, 799.9)">,</text><text xml:space="preserve" font-family="FiraMono-Regular,Fira Mono" font-size="31.7" fill="#000000" transform="matrix(1.00, 0.00, -0.00, -1.00, 727.0, 799.9)"> </text><text xml:space="preserve" font-family="FiraMono-Regular,Fira Mono" font-size="31.7" fill="#FF2600" transform="matrix(1.00, 0.00, -0.00, -1.00, 746.0, 799.9)">"</text><text xml:space="preserve" font-family="FiraMono-Regular,Fira Mono" font-size="31.7" fill="#FF2600" transform="matrix(1.00, 0.00, -0.00, -1.00, 765.1, 799.9)">C</text><text xml:space="preserve" font-family="FiraMono-Regular,Fira Mono" font-size="31.7" fill="#FF2600" transform="matrix(1.00, 0.00, -0.00, -1.00, 784.1, 799.9)">o</text><text xml:space="preserve" font-family="FiraMono-Regular,Fira Mono" font-size="31.7" fill="#FF2600" transform="matrix(1.00, 0.00, -0.00, -1.00, 803.1, 799.9)">n</text><text xml:space="preserve" font-family="FiraMono-Regular,Fira Mono" font-size="31.7" fill="#FF2600" transform="matrix(1.00, 0.00, -0.00, -1.00, 822.2, 799.9)">s</text><text xml:space="preserve" font-family="FiraMono-Regular,Fira Mono" font-size="31.7" fill="#FF2600" transform="matrix(1.00, 0.00, -0.00, -1.00, 841.2, 799.9)">t</text><text xml:space="preserve" font-family="FiraMono-Regular,Fira Mono" font-size="31.7" fill="#FF2600" transform="matrix(1.00, 0.00, -0.00, -1.00, 860.2, 799.9)">e</text><text xml:space="preserve" font-family="FiraMono-Regular,Fira Mono" font-size="31.7" fill="#FF2600" transform="matrix(1.00, 0.00, -0.00, -1.00, 879.2, 799.9)">l</text><text xml:space="preserve" font-family="FiraMono-Regular,Fira Mono" font-size="31.7" fill="#FF2600" transform="matrix(1.00, 0.00, -0.00, -1.00, 898.3, 799.9)">l</text><text xml:space="preserve" font-family="FiraMono-Regular,Fira Mono" font-size="31.7" fill="#FF2600" transform="matrix(1.00, 0.00, -0.00, -1.00, 917.3, 799.9)">a</text><text xml:space="preserve" font-family="FiraMono-Regular,Fira Mono" font-size="31.7" fill="#FF2600" transform="matrix(1.00, 0.00, -0.00, -1.00, 936.3, 799.9)">t</text><text xml:space="preserve" font-family="FiraMono-Regular,Fira Mono" font-size="31.7" fill="#FF2600" transform="matrix(1.00, 0.00, -0.00, -1.00, 955.4, 799.9)">i</text><text xml:space="preserve" font-family="FiraMono-Regular,Fira Mono" font-size="31.7" fill="#FF2600" transform="matrix(1.00, 0.00, -0.00, -1.00, 974.4, 799.9)">o</text><text xml:space="preserve" font-family="FiraMono-Regular,Fira Mono" font-size="31.7" fill="#FF2600" transform="matrix(1.00, 0.00, -0.00, -1.00, 993.4, 799.9)">n</text><text xml:space="preserve" font-family="FiraMono-Regular,Fira Mono" font-size="31.7" fill="#FF2600" transform="matrix(1.00, 0.00, -0.00, -1.00, 1012.5, 799.9)">"</text><text xml:space="preserve" font-family="FiraMono-Regular,Fira Mono" font-size="31.7" fill="#FFFFFF" transform="matrix(1.00, 0.00, -0.00, -1.00, 1031.5, 799.9)">]</text><text xml:space="preserve" font-family="FiraMono-Regular,Fira Mono" font-size="31.7" fill="#000000" transform="matrix(1.00, 0.00, -0.00, -1.00, 1050.5, 799.9)"> </text><text xml:space="preserve" font-family="FiraMono-Regular,Fira Mono" font-size="31.7" fill="#FFFFFF" transform="matrix(1.00, 0.00, -0.00, -1.00, 137.0, 701.9)"> </text><text xml:space="preserve" font-family="FiraMono-Regular,Fira Mono" font-size="31.7" fill="#FFFFFF" transform="matrix(1.00, 0.00, -0.00, -1.00, 156.0, 701.9)"> </text><text xml:space="preserve" font-family="FiraMono-Regular,Fira Mono" font-size="31.7" fill="#FFFFFF" transform="matrix(1.00, 0.00, -0.00, -1.00, 175.1, 701.9)">a</text><text xml:space="preserve" font-family="FiraMono-Regular,Fira Mono" font-size="31.7" fill="#FFFFFF" transform="matrix(1.00, 0.00, -0.00, -1.00, 194.1, 701.9)">n</text><text xml:space="preserve" font-family="FiraMono-Regular,Fira Mono" font-size="31.7" fill="#FFFFFF" transform="matrix(1.00, 0.00, -0.00, -1.00, 213.1, 701.9)">d</text><text xml:space="preserve" font-family="FiraMono-Regular,Fira Mono" font-size="31.7" fill="#FFFFFF" transform="matrix(1.00, 0.00, -0.00, -1.00, 232.2, 701.9)">:</text><text xml:space="preserve" font-family="FiraMono-Regular,Fira Mono" font-size="31.7" fill="#000000" transform="matrix(1.00, 0.00, -0.00, -1.00, 251.2, 701.9)"> </text><text xml:space="preserve" font-family="FiraMono-Regular,Fira Mono" font-size="31.7" fill="#000000" transform="matrix(1.00, 0.00, -0.00, -1.00, 137.0, 652.9)"> </text><text xml:space="preserve" font-family="FiraMono-Regular,Fira Mono" font-size="31.7" fill="#000000" transform="matrix(1.00, 0.00, -0.00, -1.00, 156.0, 652.9)"> </text><text xml:space="preserve" font-family="FiraMono-Regular,Fira Mono" font-size="31.7" fill="#C07B1E" transform="matrix(1.00, 0.00, -0.00, -1.00, 175.1, 652.9)">d</text><text xml:space="preserve" font-family="FiraMono-Regular,Fira Mono" font-size="31.7" fill="#C07B1E" transform="matrix(1.00, 0.00, -0.00, -1.00, 194.1, 652.9)">e</text><text xml:space="preserve" font-family="FiraMono-Regular,Fira Mono" font-size="31.7" fill="#C07B1E" transform="matrix(1.00, 0.00, -0.00, -1.00, 213.1, 652.9)">f</text><text xml:space="preserve" font-family="FiraMono-Regular,Fira Mono" font-size="31.7" fill="#000000" transform="matrix(1.00, 0.00, -0.00, -1.00, 232.2, 652.9)"> </text><text xml:space="preserve" font-family="FiraMono-Regular,Fira Mono" font-size="31.7" fill="#FFFFFF" transform="matrix(1.00, 0.00, -0.00, -1.00, 251.2, 652.9)">s</text><text xml:space="preserve" font-family="FiraMono-Regular,Fira Mono" font-size="31.7" fill="#FFFFFF" transform="matrix(1.00, 0.00, -0.00, -1.00, 270.2, 652.9)">h</text><text xml:space="preserve" font-family="FiraMono-Regular,Fira Mono" font-size="31.7" fill="#FFFFFF" transform="matrix(1.00, 0.00, -0.00, -1.00, 289.3, 652.9)">i</text><text xml:space="preserve" font-family="FiraMono-Regular,Fira Mono" font-size="31.7" fill="#FFFFFF" transform="matrix(1.00, 0.00, -0.00, -1.00, 308.3, 652.9)">p</text><text xml:space="preserve" font-family="FiraMono-Regular,Fira Mono" font-size="31.7" fill="#FFFFFF" transform="matrix(1.00, 0.00, -0.00, -1.00, 327.3, 652.9)">S</text><text xml:space="preserve" font-family="FiraMono-Regular,Fira Mono" font-size="31.7" fill="#FFFFFF" transform="matrix(1.00, 0.00, -0.00, -1.00, 346.4, 652.9)">t</text><text xml:space="preserve" font-family="FiraMono-Regular,Fira Mono" font-size="31.7" fill="#FFFFFF" transform="matrix(1.00, 0.00, -0.00, -1.00, 365.4, 652.9)">o</text><text xml:space="preserve" font-family="FiraMono-Regular,Fira Mono" font-size="31.7" fill="#FFFFFF" transform="matrix(1.00, 0.00, -0.00, -1.00, 384.4, 652.9)">r</text><text xml:space="preserve" font-family="FiraMono-Regular,Fira Mono" font-size="31.7" fill="#FFFFFF" transform="matrix(1.00, 0.00, -0.00, -1.00, 403.4, 652.9)">e</text><text xml:space="preserve" font-family="FiraMono-Regular,Fira Mono" font-size="31.7" fill="#000000" transform="matrix(1.00, 0.00, -0.00, -1.00, 422.5, 652.9)"> </text><text xml:space="preserve" font-family="FiraMono-Regular,Fira Mono" font-size="31.7" fill="#FFFFFF" transform="matrix(1.00, 0.00, -0.00, -1.00, 441.5, 652.9)">=</text><text xml:space="preserve" font-family="FiraMono-Regular,Fira Mono" font-size="31.7" fill="#000000" transform="matrix(1.00, 0.00, -0.00, -1.00, 460.5, 652.9)"> </text><text xml:space="preserve" font-family="FiraMono-Regular,Fira Mono" font-size="31.7" fill="#FFFFFF" transform="matrix(1.00, 0.00, -0.00, -1.00, 479.6, 652.9)">M</text><text xml:space="preserve" font-family="FiraMono-Regular,Fira Mono" font-size="31.7" fill="#FFFFFF" transform="matrix(1.00, 0.00, -0.00, -1.00, 498.6, 652.9)">o</text><text xml:space="preserve" font-family="FiraMono-Regular,Fira Mono" font-size="31.7" fill="#FFFFFF" transform="matrix(1.00, 0.00, -0.00, -1.00, 517.6, 652.9)">c</text><text xml:space="preserve" font-family="FiraMono-Regular,Fira Mono" font-size="31.7" fill="#FFFFFF" transform="matrix(1.00, 0.00, -0.00, -1.00, 536.7, 652.9)">k</text><text xml:space="preserve" font-family="FiraMono-Regular,Fira Mono" font-size="31.7" fill="#FFFFFF" transform="matrix(1.00, 0.00, -0.00, -1.00, 555.7, 652.9)">(</text><text xml:space="preserve" font-family="FiraMono-Regular,Fira Mono" font-size="31.7" fill="#FFFFFF" transform="matrix(1.00, 0.00, -0.00, -1.00, 574.7, 652.9)">S</text><text xml:space="preserve" font-family="FiraMono-Regular,Fira Mono" font-size="31.7" fill="#FFFFFF" transform="matrix(1.00, 0.00, -0.00, -1.00, 593.8, 652.9)">h</text><text xml:space="preserve" font-family="FiraMono-Regular,Fira Mono" font-size="31.7" fill="#FFFFFF" transform="matrix(1.00, 0.00, -0.00, -1.00, 612.8, 652.9)">i</text><text xml:space="preserve" font-family="FiraMono-Regular,Fira Mono" font-size="31.7" fill="#FFFFFF" transform="matrix(1.00, 0.00, -0.00, -1.00, 631.8, 652.9)">p</text><text xml:space="preserve" font-family="FiraMono-Regular,Fira Mono" font-size="31.7" fill="#FFFFFF" transform="matrix(1.00, 0.00, -0.00, -1.00, 650.9, 652.9)">S</text><text xml:space="preserve" font-family="FiraMono-Regular,Fira Mono" font-size="31.7" fill="#FFFFFF" transform="matrix(1.00, 0.00, -0.00, -1.00, 669.9, 652.9)">t</text><text xml:space="preserve" font-family="FiraMono-Regular,Fira Mono" font-size="31.7" fill="#FFFFFF" transform="matrix(1.00, 0.00, -0.00, -1.00, 688.9, 652.9)">o</text><text xml:space="preserve" font-family="FiraMono-Regular,Fira Mono" font-size="31.7" fill="#FFFFFF" transform="matrix(1.00, 0.00, -0.00, -1.00, 708.0, 652.9)">r</text><text xml:space="preserve" font-family="FiraMono-Regular,Fira Mono" font-size="31.7" fill="#FFFFFF" transform="matrix(1.00, 0.00, -0.00, -1.00, 727.0, 652.9)">e</text><text xml:space="preserve" font-family="FiraMono-Regular,Fira Mono" font-size="31.7" fill="#FFFFFF" transform="matrix(1.00, 0.00, -0.00, -1.00, 746.0, 652.9)">)</text><text xml:space="preserve" font-family="FiraMono-Regular,Fira Mono" font-size="31.7" fill="#000000" transform="matrix(1.00, 0.00, -0.00, -1.00, 765.1, 652.9)"> </text><text xml:space="preserve" font-family="FiraMono-Regular,Fira Mono" font-size="31.7" fill="#FFFFFF" transform="matrix(1.00, 0.00, -0.00, -1.00, 137.0, 554.9)"> </text><text xml:space="preserve" font-family="FiraMono-Regular,Fira Mono" font-size="31.7" fill="#FFFFFF" transform="matrix(1.00, 0.00, -0.00, -1.00, 156.0, 554.9)"> </text><text xml:space="preserve" font-family="FiraMono-Regular,Fira Mono" font-size="31.7" fill="#FFFFFF" transform="matrix(1.00, 0.00, -0.00, -1.00, 175.1, 554.9)">w</text><text xml:space="preserve" font-family="FiraMono-Regular,Fira Mono" font-size="31.7" fill="#FFFFFF" transform="matrix(1.00, 0.00, -0.00, -1.00, 194.1, 554.9)">h</text><text xml:space="preserve" font-family="FiraMono-Regular,Fira Mono" font-size="31.7" fill="#FFFFFF" transform="matrix(1.00, 0.00, -0.00, -1.00, 213.1, 554.9)">e</text><text xml:space="preserve" font-family="FiraMono-Regular,Fira Mono" font-size="31.7" fill="#FFFFFF" transform="matrix(1.00, 0.00, -0.00, -1.00, 232.2, 554.9)">n</text><text xml:space="preserve" font-family="FiraMono-Regular,Fira Mono" font-size="31.7" fill="#FFFFFF" transform="matrix(1.00, 0.00, -0.00, -1.00, 251.2, 554.9)">:</text><text xml:space="preserve" font-family="FiraMono-Regular,Fira Mono" font-size="31.7" fill="#000000" transform="matrix(1.00, 0.00, -0.00, -1.00, 270.2, 554.9)"> </text><text xml:space="preserve" font-family="FiraMono-Regular,Fira Mono" font-size="31.7" fill="#000000" transform="matrix(1.00, 0.00, -0.00, -1.00, 137.0, 505.9)"> </text><text xml:space="preserve" font-family="FiraMono-Regular,Fira Mono" font-size="31.7" fill="#000000" transform="matrix(1.00, 0.00, -0.00, -1.00, 156.0, 505.9)"> </text><text xml:space="preserve" font-family="FiraMono-Regular,Fira Mono" font-size="31.7" fill="#C07B1E" transform="matrix(1.00, 0.00, -0.00, -1.00, 175.1, 505.9)">d</text><text xml:space="preserve" font-family="FiraMono-Regular,Fira Mono" font-size="31.7" fill="#C07B1E" transform="matrix(1.00, 0.00, -0.00, -1.00, 194.1, 505.9)">e</text><text xml:space="preserve" font-family="FiraMono-Regular,Fira Mono" font-size="31.7" fill="#C07B1E" transform="matrix(1.00, 0.00, -0.00, -1.00, 213.1, 505.9)">f</text><text xml:space="preserve" font-family="FiraMono-Regular,Fira Mono" font-size="31.7" fill="#000000" transform="matrix(1.00, 0.00, -0.00, -1.00, 232.2, 505.9)"> </text><text xml:space="preserve" font-family="FiraMono-Regular,Fira Mono" font-size="31.7" fill="#FFFFFF" transform="matrix(1.00, 0.00, -0.00, -1.00, 251.2, 505.9)">o</text><text xml:space="preserve" font-family="FiraMono-Regular,Fira Mono" font-size="31.7" fill="#FFFFFF" transform="matrix(1.00, 0.00, -0.00, -1.00, 270.2, 505.9)">u</text><text xml:space="preserve" font-family="FiraMono-Regular,Fira Mono" font-size="31.7" fill="#FFFFFF" transform="matrix(1.00, 0.00, -0.00, -1.00, 289.3, 505.9)">t</text><text xml:space="preserve" font-family="FiraMono-Regular,Fira Mono" font-size="31.7" fill="#FFFFFF" transform="matrix(1.00, 0.00, -0.00, -1.00, 308.3, 505.9)">p</text><text xml:space="preserve" font-family="FiraMono-Regular,Fira Mono" font-size="31.7" fill="#FFFFFF" transform="matrix(1.00, 0.00, -0.00, -1.00, 327.3, 505.9)">u</text><text xml:space="preserve" font-family="FiraMono-Regular,Fira Mono" font-size="31.7" fill="#FFFFFF" transform="matrix(1.00, 0.00, -0.00, -1.00, 346.4, 505.9)">t</text><text xml:space="preserve" font-family="FiraMono-Regular,Fira Mono" font-size="31.7" fill="#000000" transform="matrix(1.00, 0.00, -0.00, -1.00, 365.4, 505.9)"> </text><text xml:space="preserve" font-family="FiraMono-Regular,Fira Mono" font-size="31.7" fill="#FFFFFF" transform="matrix(1.00, 0.00, -0.00, -1.00, 384.4, 505.9)">=</text><text xml:space="preserve" font-family="FiraMono-Regular,Fira Mono" font-size="31.7" fill="#000000" transform="matrix(1.00, 0.00, -0.00, -1.00, 403.4, 505.9)"> </text><text xml:space="preserve" font-family="FiraMono-Regular,Fira Mono" font-size="31.7" fill="#FFFFFF" transform="matrix(1.00, 0.00, -0.00, -1.00, 422.5, 505.9)">s</text><text xml:space="preserve" font-family="FiraMono-Regular,Fira Mono" font-size="31.7" fill="#FFFFFF" transform="matrix(1.00, 0.00, -0.00, -1.00, 441.5, 505.9)">h</text><text xml:space="preserve" font-family="FiraMono-Regular,Fira Mono" font-size="31.7" fill="#FFFFFF" transform="matrix(1.00, 0.00, -0.00, -1.00, 460.5, 505.9)">i</text><text xml:space="preserve" font-family="FiraMono-Regular,Fira Mono" font-size="31.7" fill="#FFFFFF" transform="matrix(1.00, 0.00, -0.00, -1.00, 479.6, 505.9)">p</text><text xml:space="preserve" font-family="FiraMono-Regular,Fira Mono" font-size="31.7" fill="#FFFFFF" transform="matrix(1.00, 0.00, -0.00, -1.00, 498.6, 505.9)">s</text><text xml:space="preserve" font-family="FiraMono-Regular,Fira Mono" font-size="31.7" fill="#FFFFFF" transform="matrix(1.00, 0.00, -0.00, -1.00, 517.6, 505.9)">.</text><text xml:space="preserve" font-family="FiraMono-Regular,Fira Mono" font-size="31.7" fill="#FFFFFF" transform="matrix(1.00, 0.00, -0.00, -1.00, 536.7, 505.9)">r</text><text xml:space="preserve" font-family="FiraMono-Regular,Fira Mono" font-size="31.7" fill="#FFFFFF" transform="matrix(1.00, 0.00, -0.00, -1.00, 555.7, 505.9)">e</text><text xml:space="preserve" font-family="FiraMono-Regular,Fira Mono" font-size="31.7" fill="#FFFFFF" transform="matrix(1.00, 0.00, -0.00, -1.00, 574.7, 505.9)">n</text><text xml:space="preserve" font-family="FiraMono-Regular,Fira Mono" font-size="31.7" fill="#FFFFFF" transform="matrix(1.00, 0.00, -0.00, -1.00, 593.8, 505.9)">d</text><text xml:space="preserve" font-family="FiraMono-Regular,Fira Mono" font-size="31.7" fill="#FFFFFF" transform="matrix(1.00, 0.00, -0.00, -1.00, 612.8, 505.9)">e</text><text xml:space="preserve" font-family="FiraMono-Regular,Fira Mono" font-size="31.7" fill="#FFFFFF" transform="matrix(1.00, 0.00, -0.00, -1.00, 631.8, 505.9)">r</text><text xml:space="preserve" font-family="FiraMono-Regular,Fira Mono" font-size="31.7" fill="#FFFFFF" transform="matrix(1.00, 0.00, -0.00, -1.00, 650.9, 505.9)">(</text><text xml:space="preserve" font-family="FiraMono-Regular,Fira Mono" font-size="31.7" fill="#FFFFFF" transform="matrix(1.00, 0.00, -0.00, -1.00, 669.9, 505.9)">)</text><text xml:space="preserve" font-family="FiraMono-Regular,Fira Mono" font-size="31.7" fill="#000000" transform="matrix(1.00, 0.00, -0.00, -1.00, 688.9, 505.9)"> </text><text xml:space="preserve" font-family="FiraMono-Regular,Fira Mono" font-size="31.7" fill="#FFFFFF" transform="matrix(1.00, 0.00, -0.00, -1.00, 137.0, 407.9)"> </text><text xml:space="preserve" font-family="FiraMono-Regular,Fira Mono" font-size="31.7" fill="#FFFFFF" transform="matrix(1.00, 0.00, -0.00, -1.00, 156.0, 407.9)"> </text><text xml:space="preserve" font-family="FiraMono-Regular,Fira Mono" font-size="31.7" fill="#FFFFFF" transform="matrix(1.00, 0.00, -0.00, -1.00, 175.1, 407.9)">t</text><text xml:space="preserve" font-family="FiraMono-Regular,Fira Mono" font-size="31.7" fill="#FFFFFF" transform="matrix(1.00, 0.00, -0.00, -1.00, 194.1, 407.9)">h</text><text xml:space="preserve" font-family="FiraMono-Regular,Fira Mono" font-size="31.7" fill="#FFFFFF" transform="matrix(1.00, 0.00, -0.00, -1.00, 213.1, 407.9)">e</text><text xml:space="preserve" font-family="FiraMono-Regular,Fira Mono" font-size="31.7" fill="#FFFFFF" transform="matrix(1.00, 0.00, -0.00, -1.00, 232.2, 407.9)">n</text><text xml:space="preserve" font-family="FiraMono-Regular,Fira Mono" font-size="31.7" fill="#FFFFFF" transform="matrix(1.00, 0.00, -0.00, -1.00, 251.2, 407.9)">:</text><text xml:space="preserve" font-family="FiraMono-Regular,Fira Mono" font-size="31.7" fill="#000000" transform="matrix(1.00, 0.00, -0.00, -1.00, 270.2, 407.9)"> </text><text xml:space="preserve" font-family="FiraMono-Regular,Fira Mono" font-size="31.7" fill="#000000" transform="matrix(1.00, 0.00, -0.00, -1.00, 137.0, 358.9)"> </text><text xml:space="preserve" font-family="FiraMono-Regular,Fira Mono" font-size="31.7" fill="#000000" transform="matrix(1.00, 0.00, -0.00, -1.00, 156.0, 358.9)"> </text><text xml:space="preserve" font-family="FiraMono-Regular,Fira Mono" font-size="31.7" fill="#FF2600" transform="matrix(1.00, 0.00, -0.00, -1.00, 175.1, 358.9)">1</text><text xml:space="preserve" font-family="FiraMono-Regular,Fira Mono" font-size="31.7" fill="#000000" transform="matrix(1.00, 0.00, -0.00, -1.00, 194.1, 358.9)"> </text><text xml:space="preserve" font-family="FiraMono-Regular,Fira Mono" font-size="31.7" fill="#FFFFFF" transform="matrix(1.00, 0.00, -0.00, -1.00, 213.1, 358.9)">*</text><text xml:space="preserve" font-family="FiraMono-Regular,Fira Mono" font-size="31.7" fill="#000000" transform="matrix(1.00, 0.00, -0.00, -1.00, 232.2, 358.9)"> </text><text xml:space="preserve" font-family="FiraMono-Regular,Fira Mono" font-size="31.7" fill="#FFFFFF" transform="matrix(1.00, 0.00, -0.00, -1.00, 251.2, 358.9)">s</text><text xml:space="preserve" font-family="FiraMono-Regular,Fira Mono" font-size="31.7" fill="#FFFFFF" transform="matrix(1.00, 0.00, -0.00, -1.00, 270.2, 358.9)">h</text><text xml:space="preserve" font-family="FiraMono-Regular,Fira Mono" font-size="31.7" fill="#FFFFFF" transform="matrix(1.00, 0.00, -0.00, -1.00, 289.3, 358.9)">i</text><text xml:space="preserve" font-family="FiraMono-Regular,Fira Mono" font-size="31.7" fill="#FFFFFF" transform="matrix(1.00, 0.00, -0.00, -1.00, 308.3, 358.9)">p</text><text xml:space="preserve" font-family="FiraMono-Regular,Fira Mono" font-size="31.7" fill="#FFFFFF" transform="matrix(1.00, 0.00, -0.00, -1.00, 327.3, 358.9)">S</text><text xml:space="preserve" font-family="FiraMono-Regular,Fira Mono" font-size="31.7" fill="#FFFFFF" transform="matrix(1.00, 0.00, -0.00, -1.00, 346.4, 358.9)">t</text><text xml:space="preserve" font-family="FiraMono-Regular,Fira Mono" font-size="31.7" fill="#FFFFFF" transform="matrix(1.00, 0.00, -0.00, -1.00, 365.4, 358.9)">o</text><text xml:space="preserve" font-family="FiraMono-Regular,Fira Mono" font-size="31.7" fill="#FFFFFF" transform="matrix(1.00, 0.00, -0.00, -1.00, 384.4, 358.9)">r</text><text xml:space="preserve" font-family="FiraMono-Regular,Fira Mono" font-size="31.7" fill="#FFFFFF" transform="matrix(1.00, 0.00, -0.00, -1.00, 403.4, 358.9)">e</text><text xml:space="preserve" font-family="FiraMono-Regular,Fira Mono" font-size="31.7" fill="#FFFFFF" transform="matrix(1.00, 0.00, -0.00, -1.00, 422.5, 358.9)">.</text><text xml:space="preserve" font-family="FiraMono-Regular,Fira Mono" font-size="31.7" fill="#FFFFFF" transform="matrix(1.00, 0.00, -0.00, -1.00, 441.5, 358.9)">l</text><text xml:space="preserve" font-family="FiraMono-Regular,Fira Mono" font-size="31.7" fill="#FFFFFF" transform="matrix(1.00, 0.00, -0.00, -1.00, 460.5, 358.9)">i</text><text xml:space="preserve" font-family="FiraMono-Regular,Fira Mono" font-size="31.7" fill="#FFFFFF" transform="matrix(1.00, 0.00, -0.00, -1.00, 479.6, 358.9)">s</text><text xml:space="preserve" font-family="FiraMono-Regular,Fira Mono" font-size="31.7" fill="#FFFFFF" transform="matrix(1.00, 0.00, -0.00, -1.00, 498.6, 358.9)">t</text><text xml:space="preserve" font-family="FiraMono-Regular,Fira Mono" font-size="31.7" fill="#FFFFFF" transform="matrix(1.00, 0.00, -0.00, -1.00, 517.6, 358.9)">(</text><text xml:space="preserve" font-family="FiraMono-Regular,Fira Mono" font-size="31.7" fill="#FFFFFF" transform="matrix(1.00, 0.00, -0.00, -1.00, 536.7, 358.9)">)</text><text xml:space="preserve" font-family="FiraMono-Regular,Fira Mono" font-size="31.7" fill="#FFFFFF" transform="matrix(1.00, 0.00, -0.00, -1.00, 555.7, 358.9)"> </text><text xml:space="preserve" font-family="FiraMono-Regular,Fira Mono" font-size="31.7" fill="#FFFFFF" transform="matrix(1.00, 0.00, -0.00, -1.00, 574.7, 358.9)">&gt;</text><text xml:space="preserve" font-family="FiraMono-Regular,Fira Mono" font-size="31.7" fill="#FFFFFF" transform="matrix(1.00, 0.00, -0.00, -1.00, 593.8, 358.9)">&gt;</text><text xml:space="preserve" font-family="FiraMono-Regular,Fira Mono" font-size="31.7" fill="#000000" transform="matrix(1.00, 0.00, -0.00, -1.00, 612.8, 358.9)"> </text><text xml:space="preserve" font-family="FiraMono-Regular,Fira Mono" font-size="31.7" fill="#FFFFFF" transform="matrix(1.00, 0.00, -0.00, -1.00, 631.8, 358.9)">s</text><text xml:space="preserve" font-family="FiraMono-Regular,Fira Mono" font-size="31.7" fill="#FFFFFF" transform="matrix(1.00, 0.00, -0.00, -1.00, 650.9, 358.9)">h</text><text xml:space="preserve" font-family="FiraMono-Regular,Fira Mono" font-size="31.7" fill="#FFFFFF" transform="matrix(1.00, 0.00, -0.00, -1.00, 669.9, 358.9)">i</text><text xml:space="preserve" font-family="FiraMono-Regular,Fira Mono" font-size="31.7" fill="#FFFFFF" transform="matrix(1.00, 0.00, -0.00, -1.00, 688.9, 358.9)">p</text><text xml:space="preserve" font-family="FiraMono-Regular,Fira Mono" font-size="31.7" fill="#FFFFFF" transform="matrix(1.00, 0.00, -0.00, -1.00, 708.0, 358.9)">L</text><text xml:space="preserve" font-family="FiraMono-Regular,Fira Mono" font-size="31.7" fill="#FFFFFF" transform="matrix(1.00, 0.00, -0.00, -1.00, 727.0, 358.9)">i</text><text xml:space="preserve" font-family="FiraMono-Regular,Fira Mono" font-size="31.7" fill="#FFFFFF" transform="matrix(1.00, 0.00, -0.00, -1.00, 746.0, 358.9)">s</text><text xml:space="preserve" font-family="FiraMono-Regular,Fira Mono" font-size="31.7" fill="#FFFFFF" transform="matrix(1.00, 0.00, -0.00, -1.00, 765.1, 358.9)">t</text><text xml:space="preserve" font-family="FiraMono-Regular,Fira Mono" font-size="31.7" fill="#FFFFFF" transform="matrix(1.00, 0.00, -0.00, -1.00, 784.1, 358.9)"> </text><text xml:space="preserve" font-family="FiraMono-Regular,Fira Mono" font-size="31.7" fill="#FFFFFF" transform="matrix(1.00, 0.00, -0.00, -1.00, 137.0, 260.9)"> </text><text xml:space="preserve" font-family="FiraMono-Regular,Fira Mono" font-size="31.7" fill="#FFFFFF" transform="matrix(1.00, 0.00, -0.00, -1.00, 156.0, 260.9)"> </text><text xml:space="preserve" font-family="FiraMono-Regular,Fira Mono" font-size="31.7" fill="#FFFFFF" transform="matrix(1.00, 0.00, -0.00, -1.00, 175.1, 260.9)">a</text><text xml:space="preserve" font-family="FiraMono-Regular,Fira Mono" font-size="31.7" fill="#FFFFFF" transform="matrix(1.00, 0.00, -0.00, -1.00, 194.1, 260.9)">n</text><text xml:space="preserve" font-family="FiraMono-Regular,Fira Mono" font-size="31.7" fill="#FFFFFF" transform="matrix(1.00, 0.00, -0.00, -1.00, 213.1, 260.9)">d</text><text xml:space="preserve" font-family="FiraMono-Regular,Fira Mono" font-size="31.7" fill="#FFFFFF" transform="matrix(1.00, 0.00, -0.00, -1.00, 232.2, 260.9)">:</text><text xml:space="preserve" font-family="FiraMono-Regular,Fira Mono" font-size="31.7" fill="#000000" transform="matrix(1.00, 0.00, -0.00, -1.00, 251.2, 260.9)"> </text><text xml:space="preserve" font-family="FiraMono-Regular,Fira Mono" font-size="31.7" fill="#FFFFFF" transform="matrix(1.00, 0.00, -0.00, -1.00, 137.0, 211.9)"> </text><text xml:space="preserve" font-family="FiraMono-Regular,Fira Mono" font-size="31.7" fill="#FFFFFF" transform="matrix(1.00, 0.00, -0.00, -1.00, 156.0, 211.9)"> </text><text xml:space="preserve" font-family="FiraMono-Regular,Fira Mono" font-size="31.7" fill="#FFFFFF" transform="matrix(1.00, 0.00, -0.00, -1.00, 175.1, 211.9)">$</text><text xml:space="preserve" font-family="FiraMono-Regular,Fira Mono" font-size="31.7" fill="#FFFFFF" transform="matrix(1.00, 0.00, -0.00, -1.00, 194.1, 211.9)">(</text><text xml:space="preserve" font-family="FiraMono-Regular,Fira Mono" font-size="31.7" fill="#FFFFFF" transform="matrix(1.00, 0.00, -0.00, -1.00, 213.1, 211.9)">o</text><text xml:space="preserve" font-family="FiraMono-Regular,Fira Mono" font-size="31.7" fill="#FFFFFF" transform="matrix(1.00, 0.00, -0.00, -1.00, 232.2, 211.9)">u</text><text xml:space="preserve" font-family="FiraMono-Regular,Fira Mono" font-size="31.7" fill="#FFFFFF" transform="matrix(1.00, 0.00, -0.00, -1.00, 251.2, 211.9)">t</text><text xml:space="preserve" font-family="FiraMono-Regular,Fira Mono" font-size="31.7" fill="#FFFFFF" transform="matrix(1.00, 0.00, -0.00, -1.00, 270.2, 211.9)">p</text><text xml:space="preserve" font-family="FiraMono-Regular,Fira Mono" font-size="31.7" fill="#FFFFFF" transform="matrix(1.00, 0.00, -0.00, -1.00, 289.3, 211.9)">u</text><text xml:space="preserve" font-family="FiraMono-Regular,Fira Mono" font-size="31.7" fill="#FFFFFF" transform="matrix(1.00, 0.00, -0.00, -1.00, 308.3, 211.9)">t</text><text xml:space="preserve" font-family="FiraMono-Regular,Fira Mono" font-size="31.7" fill="#FFFFFF" transform="matrix(1.00, 0.00, -0.00, -1.00, 327.3, 211.9)">)</text><text xml:space="preserve" font-family="FiraMono-Regular,Fira Mono" font-size="31.7" fill="#FFFFFF" transform="matrix(1.00, 0.00, -0.00, -1.00, 346.4, 211.9)">.</text><text xml:space="preserve" font-family="FiraMono-Regular,Fira Mono" font-size="31.7" fill="#FFFFFF" transform="matrix(1.00, 0.00, -0.00, -1.00, 365.4, 211.9)">f</text><text xml:space="preserve" font-family="FiraMono-Regular,Fira Mono" font-size="31.7" fill="#FFFFFF" transform="matrix(1.00, 0.00, -0.00, -1.00, 384.4, 211.9)">i</text><text xml:space="preserve" font-family="FiraMono-Regular,Fira Mono" font-size="31.7" fill="#FFFFFF" transform="matrix(1.00, 0.00, -0.00, -1.00, 403.4, 211.9)">n</text><text xml:space="preserve" font-family="FiraMono-Regular,Fira Mono" font-size="31.7" fill="#FFFFFF" transform="matrix(1.00, 0.00, -0.00, -1.00, 422.5, 211.9)">d</text><text xml:space="preserve" font-family="FiraMono-Regular,Fira Mono" font-size="31.7" fill="#FFFFFF" transform="matrix(1.00, 0.00, -0.00, -1.00, 441.5, 211.9)">(</text><text xml:space="preserve" font-family="FiraMono-Regular,Fira Mono" font-size="31.7" fill="#FF2600" transform="matrix(1.00, 0.00, -0.00, -1.00, 460.5, 211.9)">"</text><text xml:space="preserve" font-family="FiraMono-Regular,Fira Mono" font-size="31.7" fill="#FF2600" transform="matrix(1.00, 0.00, -0.00, -1.00, 479.6, 211.9)">u</text><text xml:space="preserve" font-family="FiraMono-Regular,Fira Mono" font-size="31.7" fill="#FF2600" transform="matrix(1.00, 0.00, -0.00, -1.00, 498.6, 211.9)">l</text><text xml:space="preserve" font-family="FiraMono-Regular,Fira Mono" font-size="31.7" fill="#FF2600" transform="matrix(1.00, 0.00, -0.00, -1.00, 517.6, 211.9)"> </text><text xml:space="preserve" font-family="FiraMono-Regular,Fira Mono" font-size="31.7" fill="#FF2600" transform="matrix(1.00, 0.00, -0.00, -1.00, 536.7, 211.9)">&gt;</text><text xml:space="preserve" font-family="FiraMono-Regular,Fira Mono" font-size="31.7" fill="#FF2600" transform="matrix(1.00, 0.00, -0.00, -1.00, 555.7, 211.9)"> </text><text xml:space="preserve" font-family="FiraMono-Regular,Fira Mono" font-size="31.7" fill="#FF2600" transform="matrix(1.00, 0.00, -0.00, -1.00, 574.7, 211.9)">l</text><text xml:space="preserve" font-family="FiraMono-Regular,Fira Mono" font-size="31.7" fill="#FF2600" transform="matrix(1.00, 0.00, -0.00, -1.00, 593.8, 211.9)">i</text><text xml:space="preserve" font-family="FiraMono-Regular,Fira Mono" font-size="31.7" fill="#FF2600" transform="matrix(1.00, 0.00, -0.00, -1.00, 612.8, 211.9)">"</text><text xml:space="preserve" font-family="FiraMono-Regular,Fira Mono" font-size="31.7" fill="#FFFFFF" transform="matrix(1.00, 0.00, -0.00, -1.00, 631.8, 211.9)">)</text><text xml:space="preserve" font-family="FiraMono-Regular,Fira Mono" font-size="31.7" fill="#FFFFFF" transform="matrix(1.00, 0.00, -0.00, -1.00, 650.9, 211.9)">*</text><text xml:space="preserve" font-family="FiraMono-Regular,Fira Mono" font-size="31.7" fill="#FFFFFF" transform="matrix(1.00, 0.00, -0.00, -1.00, 669.9, 211.9)">.</text><text xml:space="preserve" font-family="FiraMono-Regular,Fira Mono" font-size="31.7" fill="#FFFFFF" transform="matrix(1.00, 0.00, -0.00, -1.00, 688.9, 211.9)">t</text><text xml:space="preserve" font-family="FiraMono-Regular,Fira Mono" font-size="31.7" fill="#FFFFFF" transform="matrix(1.00, 0.00, -0.00, -1.00, 708.0, 211.9)">e</text><text xml:space="preserve" font-family="FiraMono-Regular,Fira Mono" font-size="31.7" fill="#FFFFFF" transform="matrix(1.00, 0.00, -0.00, -1.00, 727.0, 211.9)">x</text><text xml:space="preserve" font-family="FiraMono-Regular,Fira Mono" font-size="31.7" fill="#FFFFFF" transform="matrix(1.00, 0.00, -0.00, -1.00, 746.0, 211.9)">t</text><text xml:space="preserve" font-family="FiraMono-Regular,Fira Mono" font-size="31.7" fill="#FFFFFF" transform="matrix(1.00, 0.00, -0.00, -1.00, 765.1, 211.9)">(</text><text xml:space="preserve" font-family="FiraMono-Regular,Fira Mono" font-size="31.7" fill="#FFFFFF" transform="matrix(1.00, 0.00, -0.00, -1.00, 784.1, 211.9)">)</text><text xml:space="preserve" font-family="FiraMono-Regular,Fira Mono" font-size="31.7" fill="#FFFFFF" transform="matrix(1.00, 0.00, -0.00, -1.00, 803.1, 211.9)"> </text><text xml:space="preserve" font-family="FiraMono-Regular,Fira Mono" font-size="31.7" fill="#FFFFFF" transform="matrix(1.00, 0.00, -0.00, -1.00, 822.2, 211.9)">=</text><text xml:space="preserve" font-family="FiraMono-Regular,Fira Mono" font-size="31.7" fill="#FFFFFF" transform="matrix(1.00, 0.00, -0.00, -1.00, 841.2, 211.9)">=</text><text xml:space="preserve" font-family="FiraMono-Regular,Fira Mono" font-size="31.7" fill="#000000" transform="matrix(1.00, 0.00, -0.00, -1.00, 860.2, 211.9)"> </text><text xml:space="preserve" font-family="FiraMono-Regular,Fira Mono" font-size="31.7" fill="#FFFFFF" transform="matrix(1.00, 0.00, -0.00, -1.00, 879.2, 211.9)">s</text><text xml:space="preserve" font-family="FiraMono-Regular,Fira Mono" font-size="31.7" fill="#FFFFFF" transform="matrix(1.00, 0.00, -0.00, -1.00, 898.3, 211.9)">h</text><text xml:space="preserve" font-family="FiraMono-Regular,Fira Mono" font-size="31.7" fill="#FFFFFF" transform="matrix(1.00, 0.00, -0.00, -1.00, 917.3, 211.9)">i</text><text xml:space="preserve" font-family="FiraMono-Regular,Fira Mono" font-size="31.7" fill="#FFFFFF" transform="matrix(1.00, 0.00, -0.00, -1.00, 936.3, 211.9)">p</text><text xml:space="preserve" font-family="FiraMono-Regular,Fira Mono" font-size="31.7" fill="#FFFFFF" transform="matrix(1.00, 0.00, -0.00, -1.00, 955.4, 211.9)">L</text><text xml:space="preserve" font-family="FiraMono-Regular,Fira Mono" font-size="31.7" fill="#FFFFFF" transform="matrix(1.00, 0.00, -0.00, -1.00, 974.4, 211.9)">i</text><text xml:space="preserve" font-family="FiraMono-Regular,Fira Mono" font-size="31.7" fill="#FFFFFF" transform="matrix(1.00, 0.00, -0.00, -1.00, 993.4, 211.9)">s</text><text xml:space="preserve" font-family="FiraMono-Regular,Fira Mono" font-size="31.7" fill="#FFFFFF" transform="matrix(1.00, 0.00, -0.00, -1.00, 1012.5, 211.9)">t</text><text xml:space="preserve" font-family="FiraMono-Regular,Fira Mono" font-size="31.7" fill="#000000" transform="matrix(1.00, 0.00, -0.00, -1.00, 1031.5, 211.9)"> </text><text xml:space="preserve" font-family="FiraMono-Regular,Fira Mono" font-size="31.7" fill="#FFFFFF" transform="matrix(1.00, 0.00, -0.00, -1.00, 137.0, 162.9)">}</text></g></svg>