<?xml version="1.0" encoding="UTF-8" standalone="no"?><svg xmlns="http://www.w3.org/2000/svg" xmlns:xlink="http://www.w3.org/1999/xlink" clip-rule="evenodd" stroke-miterlimit="10" viewBox="0 0 1920 1080"><desc>SVG generated by Keynote</desc><defs></defs><g transform="matrix(1.00, 0.00, -0.00, -1.00, 0.0, 1080.0)"><g><clipPath id="clip0x7f840c0aa3c0"><path d="M 0.0 1080.0 L 1920.0 1080.0 L 1920.0 0.0 L 0.0 0.0 Z M 0.0 1080.0 "></path></clipPath><g clip-path="url(#clip0x7f840c0aa3c0)"><image xlink:href="../../BF7430C7-5211-4E68-B118-AC68FDB76F0F/assets/A81AF0278930B93F47F55E5BB6D3A023.png" width="1920.00" height="1080.00" transform="matrix(1.00, 0.00, -0.00, -1.00, 0.0, 1080.0)"></image></g></g><text xml:space="preserve" font-family="FiraMono-Regular,Fira Mono" font-size="33.8" fill="#C07B1E" transform="matrix(1.00, 0.00, -0.00, -1.00, 137.0, 893.9)">d</text><text xml:space="preserve" font-family="FiraMono-Regular,Fira Mono" font-size="33.8" fill="#C07B1E" transform="matrix(1.00, 0.00, -0.00, -1.00, 157.3, 893.9)">e</text><text xml:space="preserve" font-family="FiraMono-Regular,Fira Mono" font-size="33.8" fill="#C07B1E" transform="matrix(1.00, 0.00, -0.00, -1.00, 177.6, 893.9)">f</text><text xml:space="preserve" font-family="FiraMono-Regular,Fira Mono" font-size="33.8" fill="#000000" transform="matrix(1.00, 0.00, -0.00, -1.00, 197.8, 893.9)"> </text><text xml:space="preserve" font-family="FiraMono-Regular,Fira Mono" font-size="33.8" fill="#FF2600" transform="matrix(1.00, 0.00, -0.00, -1.00, 218.1, 893.9)">"</text><text xml:space="preserve" font-family="FiraMono-Regular,Fira Mono" font-size="33.8" fill="#FF2600" transform="matrix(1.00, 0.00, -0.00, -1.00, 238.4, 893.9)">p</text><text xml:space="preserve" font-family="FiraMono-Regular,Fira Mono" font-size="33.8" fill="#FF2600" transform="matrix(1.00, 0.00, -0.00, -1.00, 258.7, 893.9)">r</text><text xml:space="preserve" font-family="FiraMono-Regular,Fira Mono" font-size="33.8" fill="#FF2600" transform="matrix(1.00, 0.00, -0.00, -1.00, 279.0, 893.9)">e</text><text xml:space="preserve" font-family="FiraMono-Regular,Fira Mono" font-size="33.8" fill="#FF2600" transform="matrix(1.00, 0.00, -0.00, -1.00, 299.2, 893.9)">s</text><text xml:space="preserve" font-family="FiraMono-Regular,Fira Mono" font-size="33.8" fill="#FF2600" transform="matrix(1.00, 0.00, -0.00, -1.00, 319.5, 893.9)">e</text><text xml:space="preserve" font-family="FiraMono-Regular,Fira Mono" font-size="33.8" fill="#FF2600" transform="matrix(1.00, 0.00, -0.00, -1.00, 339.8, 893.9)">n</text><text xml:space="preserve" font-family="FiraMono-Regular,Fira Mono" font-size="33.8" fill="#FF2600" transform="matrix(1.00, 0.00, -0.00, -1.00, 360.1, 893.9)">t</text><text xml:space="preserve" font-family="FiraMono-Regular,Fira Mono" font-size="33.8" fill="#FF2600" transform="matrix(1.00, 0.00, -0.00, -1.00, 380.4, 893.9)">s</text><text xml:space="preserve" font-family="FiraMono-Regular,Fira Mono" font-size="33.8" fill="#FF2600" transform="matrix(1.00, 0.00, -0.00, -1.00, 400.6, 893.9)"> </text><text xml:space="preserve" font-family="FiraMono-Regular,Fira Mono" font-size="33.8" fill="#FF2600" transform="matrix(1.00, 0.00, -0.00, -1.00, 420.9, 893.9)">s</text><text xml:space="preserve" font-family="FiraMono-Regular,Fira Mono" font-size="33.8" fill="#FF2600" transform="matrix(1.00, 0.00, -0.00, -1.00, 441.2, 893.9)">h</text><text xml:space="preserve" font-family="FiraMono-Regular,Fira Mono" font-size="33.8" fill="#FF2600" transform="matrix(1.00, 0.00, -0.00, -1.00, 461.5, 893.9)">i</text><text xml:space="preserve" font-family="FiraMono-Regular,Fira Mono" font-size="33.8" fill="#FF2600" transform="matrix(1.00, 0.00, -0.00, -1.00, 481.8, 893.9)">p</text><text xml:space="preserve" font-family="FiraMono-Regular,Fira Mono" font-size="33.8" fill="#FF2600" transform="matrix(1.00, 0.00, -0.00, -1.00, 502.0, 893.9)">s</text><text xml:space="preserve" font-family="FiraMono-Regular,Fira Mono" font-size="33.8" fill="#FF2600" transform="matrix(1.00, 0.00, -0.00, -1.00, 522.3, 893.9)"> </text><text xml:space="preserve" font-family="FiraMono-Regular,Fira Mono" font-size="33.8" fill="#FF2600" transform="matrix(1.00, 0.00, -0.00, -1.00, 542.6, 893.9)">a</text><text xml:space="preserve" font-family="FiraMono-Regular,Fira Mono" font-size="33.8" fill="#FF2600" transform="matrix(1.00, 0.00, -0.00, -1.00, 562.9, 893.9)">s</text><text xml:space="preserve" font-family="FiraMono-Regular,Fira Mono" font-size="33.8" fill="#FF2600" transform="matrix(1.00, 0.00, -0.00, -1.00, 583.2, 893.9)"> </text><text xml:space="preserve" font-family="FiraMono-Regular,Fira Mono" font-size="33.8" fill="#FF2600" transform="matrix(1.00, 0.00, -0.00, -1.00, 603.4, 893.9)">a</text><text xml:space="preserve" font-family="FiraMono-Regular,Fira Mono" font-size="33.8" fill="#FF2600" transform="matrix(1.00, 0.00, -0.00, -1.00, 623.7, 893.9)"> </text><text xml:space="preserve" font-family="FiraMono-Regular,Fira Mono" font-size="33.8" fill="#FF2600" transform="matrix(1.00, 0.00, -0.00, -1.00, 644.0, 893.9)">b</text><text xml:space="preserve" font-family="FiraMono-Regular,Fira Mono" font-size="33.8" fill="#FF2600" transform="matrix(1.00, 0.00, -0.00, -1.00, 664.3, 893.9)">u</text><text xml:space="preserve" font-family="FiraMono-Regular,Fira Mono" font-size="33.8" fill="#FF2600" transform="matrix(1.00, 0.00, -0.00, -1.00, 684.6, 893.9)">l</text><text xml:space="preserve" font-family="FiraMono-Regular,Fira Mono" font-size="33.8" fill="#FF2600" transform="matrix(1.00, 0.00, -0.00, -1.00, 704.8, 893.9)">l</text><text xml:space="preserve" font-family="FiraMono-Regular,Fira Mono" font-size="33.8" fill="#FF2600" transform="matrix(1.00, 0.00, -0.00, -1.00, 725.1, 893.9)">e</text><text xml:space="preserve" font-family="FiraMono-Regular,Fira Mono" font-size="33.8" fill="#FF2600" transform="matrix(1.00, 0.00, -0.00, -1.00, 745.4, 893.9)">t</text><text xml:space="preserve" font-family="FiraMono-Regular,Fira Mono" font-size="33.8" fill="#FF2600" transform="matrix(1.00, 0.00, -0.00, -1.00, 765.7, 893.9)"> </text><text xml:space="preserve" font-family="FiraMono-Regular,Fira Mono" font-size="33.8" fill="#FF2600" transform="matrix(1.00, 0.00, -0.00, -1.00, 786.0, 893.9)">l</text><text xml:space="preserve" font-family="FiraMono-Regular,Fira Mono" font-size="33.8" fill="#FF2600" transform="matrix(1.00, 0.00, -0.00, -1.00, 806.2, 893.9)">i</text><text xml:space="preserve" font-family="FiraMono-Regular,Fira Mono" font-size="33.8" fill="#FF2600" transform="matrix(1.00, 0.00, -0.00, -1.00, 826.5, 893.9)">s</text><text xml:space="preserve" font-family="FiraMono-Regular,Fira Mono" font-size="33.8" fill="#FF2600" transform="matrix(1.00, 0.00, -0.00, -1.00, 846.8, 893.9)">t</text><text xml:space="preserve" font-family="FiraMono-Regular,Fira Mono" font-size="33.8" fill="#FF2600" transform="matrix(1.00, 0.00, -0.00, -1.00, 867.1, 893.9)">"</text><text xml:space="preserve" font-family="FiraMono-Regular,Fira Mono" font-size="33.8" fill="#FFFFFF" transform="matrix(1.00, 0.00, -0.00, -1.00, 887.4, 893.9)">(</text><text xml:space="preserve" font-family="FiraMono-Regular,Fira Mono" font-size="33.8" fill="#FFFFFF" transform="matrix(1.00, 0.00, -0.00, -1.00, 907.6, 893.9)">)</text><text xml:space="preserve" font-family="FiraMono-Regular,Fira Mono" font-size="33.8" fill="#FFFFFF" transform="matrix(1.00, 0.00, -0.00, -1.00, 927.9, 893.9)"> </text><text xml:space="preserve" font-family="FiraMono-Regular,Fira Mono" font-size="33.8" fill="#FFFFFF" transform="matrix(1.00, 0.00, -0.00, -1.00, 948.2, 893.9)">{</text><text xml:space="preserve" font-family="FiraMono-Regular,Fira Mono" font-size="33.8" fill="#000000" transform="matrix(1.00, 0.00, -0.00, -1.00, 968.5, 893.9)"> </text><text xml:space="preserve" font-family="FiraMono-Regular,Fira Mono" font-size="33.8" fill="#FFFFFF" transform="matrix(1.00, 0.00, -0.00, -1.00, 137.0, 841.9)"> </text><text xml:space="preserve" font-family="FiraMono-Regular,Fira Mono" font-size="33.8" fill="#FFFFFF" transform="matrix(1.00, 0.00, -0.00, -1.00, 157.3, 841.9)"> </text><text xml:space="preserve" font-family="FiraMono-Regular,Fira Mono" font-size="33.8" fill="#FFFFFF" transform="matrix(1.00, 0.00, -0.00, -1.00, 177.6, 841.9)">g</text><text xml:space="preserve" font-family="FiraMono-Regular,Fira Mono" font-size="33.8" fill="#FFFFFF" transform="matrix(1.00, 0.00, -0.00, -1.00, 197.8, 841.9)">i</text><text xml:space="preserve" font-family="FiraMono-Regular,Fira Mono" font-size="33.8" fill="#FFFFFF" transform="matrix(1.00, 0.00, -0.00, -1.00, 218.1, 841.9)">v</text><text xml:space="preserve" font-family="FiraMono-Regular,Fira Mono" font-size="33.8" fill="#FFFFFF" transform="matrix(1.00, 0.00, -0.00, -1.00, 238.4, 841.9)">e</text><text xml:space="preserve" font-family="FiraMono-Regular,Fira Mono" font-size="33.8" fill="#FFFFFF" transform="matrix(1.00, 0.00, -0.00, -1.00, 258.7, 841.9)">n</text><text xml:space="preserve" font-family="FiraMono-Regular,Fira Mono" font-size="33.8" fill="#FFFFFF" transform="matrix(1.00, 0.00, -0.00, -1.00, 279.0, 841.9)">:</text><text xml:space="preserve" font-family="FiraMono-Regular,Fira Mono" font-size="33.8" fill="#000000" transform="matrix(1.00, 0.00, -0.00, -1.00, 299.2, 841.9)"> </text><text xml:space="preserve" font-family="FiraMono-Regular,Fira Mono" font-size="33.8" fill="#000000" transform="matrix(1.00, 0.00, -0.00, -1.00, 137.0, 789.9)"> </text><text xml:space="preserve" font-family="FiraMono-Regular,Fira Mono" font-size="33.8" fill="#000000" transform="matrix(1.00, 0.00, -0.00, -1.00, 157.3, 789.9)"> </text><text xml:space="preserve" font-family="FiraMono-Regular,Fira Mono" font-size="33.8" fill="#C07B1E" transform="matrix(1.00, 0.00, -0.00, -1.00, 177.6, 789.9)">d</text><text xml:space="preserve" font-family="FiraMono-Regular,Fira Mono" font-size="33.8" fill="#C07B1E" transform="matrix(1.00, 0.00, -0.00, -1.00, 197.8, 789.9)">e</text><text xml:space="preserve" font-family="FiraMono-Regular,Fira Mono" font-size="33.8" fill="#C07B1E" transform="matrix(1.00, 0.00, -0.00, -1.00, 218.1, 789.9)">f</text><text xml:space="preserve" font-family="FiraMono-Regular,Fira Mono" font-size="33.8" fill="#000000" transform="matrix(1.00, 0.00, -0.00, -1.00, 238.4, 789.9)"> </text><text xml:space="preserve" font-family="FiraMono-Regular,Fira Mono" font-size="33.8" fill="#FFFFFF" transform="matrix(1.00, 0.00, -0.00, -1.00, 258.7, 789.9)">s</text><text xml:space="preserve" font-family="FiraMono-Regular,Fira Mono" font-size="33.8" fill="#FFFFFF" transform="matrix(1.00, 0.00, -0.00, -1.00, 279.0, 789.9)">h</text><text xml:space="preserve" font-family="FiraMono-Regular,Fira Mono" font-size="33.8" fill="#FFFFFF" transform="matrix(1.00, 0.00, -0.00, -1.00, 299.2, 789.9)">i</text><text xml:space="preserve" font-family="FiraMono-Regular,Fira Mono" font-size="33.8" fill="#FFFFFF" transform="matrix(1.00, 0.00, -0.00, -1.00, 319.5, 789.9)">p</text><text xml:space="preserve" font-family="FiraMono-Regular,Fira Mono" font-size="33.8" fill="#FFFFFF" transform="matrix(1.00, 0.00, -0.00, -1.00, 339.8, 789.9)">L</text><text xml:space="preserve" font-family="FiraMono-Regular,Fira Mono" font-size="33.8" fill="#FFFFFF" transform="matrix(1.00, 0.00, -0.00, -1.00, 360.1, 789.9)">i</text><text xml:space="preserve" font-family="FiraMono-Regular,Fira Mono" font-size="33.8" fill="#FFFFFF" transform="matrix(1.00, 0.00, -0.00, -1.00, 380.4, 789.9)">s</text><text xml:space="preserve" font-family="FiraMono-Regular,Fira Mono" font-size="33.8" fill="#FFFFFF" transform="matrix(1.00, 0.00, -0.00, -1.00, 400.6, 789.9)">t</text><text xml:space="preserve" font-family="FiraMono-Regular,Fira Mono" font-size="33.8" fill="#000000" transform="matrix(1.00, 0.00, -0.00, -1.00, 420.9, 789.9)"> </text><text xml:space="preserve" font-family="FiraMono-Regular,Fira Mono" font-size="33.8" fill="#FFFFFF" transform="matrix(1.00, 0.00, -0.00, -1.00, 441.2, 789.9)">=</text><text xml:space="preserve" font-family="FiraMono-Regular,Fira Mono" font-size="33.8" fill="#FFFFFF" transform="matrix(1.00, 0.00, -0.00, -1.00, 461.5, 789.9)"> </text><text xml:space="preserve" font-family="FiraMono-Regular,Fira Mono" font-size="33.8" fill="#FFFFFF" transform="matrix(1.00, 0.00, -0.00, -1.00, 481.8, 789.9)">[</text><text xml:space="preserve" font-family="FiraMono-Regular,Fira Mono" font-size="33.8" fill="#FF2600" transform="matrix(1.00, 0.00, -0.00, -1.00, 502.0, 789.9)">"</text><text xml:space="preserve" font-family="FiraMono-Regular,Fira Mono" font-size="33.8" fill="#FF2600" transform="matrix(1.00, 0.00, -0.00, -1.00, 522.3, 789.9)">E</text><text xml:space="preserve" font-family="FiraMono-Regular,Fira Mono" font-size="33.8" fill="#FF2600" transform="matrix(1.00, 0.00, -0.00, -1.00, 542.6, 789.9)">n</text><text xml:space="preserve" font-family="FiraMono-Regular,Fira Mono" font-size="33.8" fill="#FF2600" transform="matrix(1.00, 0.00, -0.00, -1.00, 562.9, 789.9)">t</text><text xml:space="preserve" font-family="FiraMono-Regular,Fira Mono" font-size="33.8" fill="#FF2600" transform="matrix(1.00, 0.00, -0.00, -1.00, 583.2, 789.9)">e</text><text xml:space="preserve" font-family="FiraMono-Regular,Fira Mono" font-size="33.8" fill="#FF2600" transform="matrix(1.00, 0.00, -0.00, -1.00, 603.4, 789.9)">r</text><text xml:space="preserve" font-family="FiraMono-Regular,Fira Mono" font-size="33.8" fill="#FF2600" transform="matrix(1.00, 0.00, -0.00, -1.00, 623.7, 789.9)">p</text><text xml:space="preserve" font-family="FiraMono-Regular,Fira Mono" font-size="33.8" fill="#FF2600" transform="matrix(1.00, 0.00, -0.00, -1.00, 644.0, 789.9)">r</text><text xml:space="preserve" font-family="FiraMono-Regular,Fira Mono" font-size="33.8" fill="#FF2600" transform="matrix(1.00, 0.00, -0.00, -1.00, 664.3, 789.9)">i</text><text xml:space="preserve" font-family="FiraMono-Regular,Fira Mono" font-size="33.8" fill="#FF2600" transform="matrix(1.00, 0.00, -0.00, -1.00, 684.6, 789.9)">s</text><text xml:space="preserve" font-family="FiraMono-Regular,Fira Mono" font-size="33.8" fill="#FF2600" transform="matrix(1.00, 0.00, -0.00, -1.00, 704.8, 789.9)">e</text><text xml:space="preserve" font-family="FiraMono-Regular,Fira Mono" font-size="33.8" fill="#FF2600" transform="matrix(1.00, 0.00, -0.00, -1.00, 725.1, 789.9)">"</text><text xml:space="preserve" font-family="FiraMono-Regular,Fira Mono" font-size="33.8" fill="#FFFFFF" transform="matrix(1.00, 0.00, -0.00, -1.00, 745.4, 789.9)">,</text><text xml:space="preserve" font-family="FiraMono-Regular,Fira Mono" font-size="33.8" fill="#000000" transform="matrix(1.00, 0.00, -0.00, -1.00, 765.7, 789.9)"> </text><text xml:space="preserve" font-family="FiraMono-Regular,Fira Mono" font-size="33.8" fill="#FF2600" transform="matrix(1.00, 0.00, -0.00, -1.00, 786.0, 789.9)">"</text><text xml:space="preserve" font-family="FiraMono-Regular,Fira Mono" font-size="33.8" fill="#FF2600" transform="matrix(1.00, 0.00, -0.00, -1.00, 806.2, 789.9)">C</text><text xml:space="preserve" font-family="FiraMono-Regular,Fira Mono" font-size="33.8" fill="#FF2600" transform="matrix(1.00, 0.00, -0.00, -1.00, 826.5, 789.9)">o</text><text xml:space="preserve" font-family="FiraMono-Regular,Fira Mono" font-size="33.8" fill="#FF2600" transform="matrix(1.00, 0.00, -0.00, -1.00, 846.8, 789.9)">n</text><text xml:space="preserve" font-family="FiraMono-Regular,Fira Mono" font-size="33.8" fill="#FF2600" transform="matrix(1.00, 0.00, -0.00, -1.00, 867.1, 789.9)">s</text><text xml:space="preserve" font-family="FiraMono-Regular,Fira Mono" font-size="33.8" fill="#FF2600" transform="matrix(1.00, 0.00, -0.00, -1.00, 887.4, 789.9)">t</text><text xml:space="preserve" font-family="FiraMono-Regular,Fira Mono" font-size="33.8" fill="#FF2600" transform="matrix(1.00, 0.00, -0.00, -1.00, 907.6, 789.9)">e</text><text xml:space="preserve" font-family="FiraMono-Regular,Fira Mono" font-size="33.8" fill="#FF2600" transform="matrix(1.00, 0.00, -0.00, -1.00, 927.9, 789.9)">l</text><text xml:space="preserve" font-family="FiraMono-Regular,Fira Mono" font-size="33.8" fill="#FF2600" transform="matrix(1.00, 0.00, -0.00, -1.00, 948.2, 789.9)">l</text><text xml:space="preserve" font-family="FiraMono-Regular,Fira Mono" font-size="33.8" fill="#FF2600" transform="matrix(1.00, 0.00, -0.00, -1.00, 968.5, 789.9)">a</text><text xml:space="preserve" font-family="FiraMono-Regular,Fira Mono" font-size="33.8" fill="#FF2600" transform="matrix(1.00, 0.00, -0.00, -1.00, 988.8, 789.9)">t</text><text xml:space="preserve" font-family="FiraMono-Regular,Fira Mono" font-size="33.8" fill="#FF2600" transform="matrix(1.00, 0.00, -0.00, -1.00, 1009.0, 789.9)">i</text><text xml:space="preserve" font-family="FiraMono-Regular,Fira Mono" font-size="33.8" fill="#FF2600" transform="matrix(1.00, 0.00, -0.00, -1.00, 1029.3, 789.9)">o</text><text xml:space="preserve" font-family="FiraMono-Regular,Fira Mono" font-size="33.8" fill="#FF2600" transform="matrix(1.00, 0.00, -0.00, -1.00, 1049.6, 789.9)">n</text><text xml:space="preserve" font-family="FiraMono-Regular,Fira Mono" font-size="33.8" fill="#FF2600" transform="matrix(1.00, 0.00, -0.00, -1.00, 1069.9, 789.9)">"</text><text xml:space="preserve" font-family="FiraMono-Regular,Fira Mono" font-size="33.8" fill="#FFFFFF" transform="matrix(1.00, 0.00, -0.00, -1.00, 1090.2, 789.9)">]</text><text xml:space="preserve" font-family="FiraMono-Regular,Fira Mono" font-size="33.8" fill="#000000" transform="matrix(1.00, 0.00, -0.00, -1.00, 1110.4, 789.9)"> </text><text xml:space="preserve" font-family="FiraMono-Regular,Fira Mono" font-size="33.8" fill="#FFFFFF" transform="matrix(1.00, 0.00, -0.00, -1.00, 137.0, 685.9)"> </text><text xml:space="preserve" font-family="FiraMono-Regular,Fira Mono" font-size="33.8" fill="#FFFFFF" transform="matrix(1.00, 0.00, -0.00, -1.00, 157.3, 685.9)"> </text><text xml:space="preserve" font-family="FiraMono-Regular,Fira Mono" font-size="33.8" fill="#FFFFFF" transform="matrix(1.00, 0.00, -0.00, -1.00, 177.6, 685.9)">a</text><text xml:space="preserve" font-family="FiraMono-Regular,Fira Mono" font-size="33.8" fill="#FFFFFF" transform="matrix(1.00, 0.00, -0.00, -1.00, 197.8, 685.9)">n</text><text xml:space="preserve" font-family="FiraMono-Regular,Fira Mono" font-size="33.8" fill="#FFFFFF" transform="matrix(1.00, 0.00, -0.00, -1.00, 218.1, 685.9)">d</text><text xml:space="preserve" font-family="FiraMono-Regular,Fira Mono" font-size="33.8" fill="#FFFFFF" transform="matrix(1.00, 0.00, -0.00, -1.00, 238.4, 685.9)">:</text><text xml:space="preserve" font-family="FiraMono-Regular,Fira Mono" font-size="33.8" fill="#000000" transform="matrix(1.00, 0.00, -0.00, -1.00, 258.7, 685.9)"> </text><text xml:space="preserve" font-family="FiraMono-Regular,Fira Mono" font-size="33.8" fill="#000000" transform="matrix(1.00, 0.00, -0.00, -1.00, 137.0, 633.9)"> </text><text xml:space="preserve" font-family="FiraMono-Regular,Fira Mono" font-size="33.8" fill="#000000" transform="matrix(1.00, 0.00, -0.00, -1.00, 157.3, 633.9)"> </text><text xml:space="preserve" font-family="FiraMono-Regular,Fira Mono" font-size="33.8" fill="#C07B1E" transform="matrix(1.00, 0.00, -0.00, -1.00, 177.6, 633.9)">d</text><text xml:space="preserve" font-family="FiraMono-Regular,Fira Mono" font-size="33.8" fill="#C07B1E" transform="matrix(1.00, 0.00, -0.00, -1.00, 197.8, 633.9)">e</text><text xml:space="preserve" font-family="FiraMono-Regular,Fira Mono" font-size="33.8" fill="#C07B1E" transform="matrix(1.00, 0.00, -0.00, -1.00, 218.1, 633.9)">f</text><text xml:space="preserve" font-family="FiraMono-Regular,Fira Mono" font-size="33.8" fill="#000000" transform="matrix(1.00, 0.00, -0.00, -1.00, 238.4, 633.9)"> </text><text xml:space="preserve" font-family="FiraMono-Regular,Fira Mono" font-size="33.8" fill="#FFFFFF" transform="matrix(1.00, 0.00, -0.00, -1.00, 258.7, 633.9)">s</text><text xml:space="preserve" font-family="FiraMono-Regular,Fira Mono" font-size="33.8" fill="#FFFFFF" transform="matrix(1.00, 0.00, -0.00, -1.00, 279.0, 633.9)">h</text><text xml:space="preserve" font-family="FiraMono-Regular,Fira Mono" font-size="33.8" fill="#FFFFFF" transform="matrix(1.00, 0.00, -0.00, -1.00, 299.2, 633.9)">i</text><text xml:space="preserve" font-family="FiraMono-Regular,Fira Mono" font-size="33.8" fill="#FFFFFF" transform="matrix(1.00, 0.00, -0.00, -1.00, 319.5, 633.9)">p</text><text xml:space="preserve" font-family="FiraMono-Regular,Fira Mono" font-size="33.8" fill="#FFFFFF" transform="matrix(1.00, 0.00, -0.00, -1.00, 339.8, 633.9)">S</text><text xml:space="preserve" font-family="FiraMono-Regular,Fira Mono" font-size="33.8" fill="#FFFFFF" transform="matrix(1.00, 0.00, -0.00, -1.00, 360.1, 633.9)">t</text><text xml:space="preserve" font-family="FiraMono-Regular,Fira Mono" font-size="33.8" fill="#FFFFFF" transform="matrix(1.00, 0.00, -0.00, -1.00, 380.4, 633.9)">o</text><text xml:space="preserve" font-family="FiraMono-Regular,Fira Mono" font-size="33.8" fill="#FFFFFF" transform="matrix(1.00, 0.00, -0.00, -1.00, 400.6, 633.9)">r</text><text xml:space="preserve" font-family="FiraMono-Regular,Fira Mono" font-size="33.8" fill="#FFFFFF" transform="matrix(1.00, 0.00, -0.00, -1.00, 420.9, 633.9)">e</text><text xml:space="preserve" font-family="FiraMono-Regular,Fira Mono" font-size="33.8" fill="#000000" transform="matrix(1.00, 0.00, -0.00, -1.00, 441.2, 633.9)"> </text><text xml:space="preserve" font-family="FiraMono-Regular,Fira Mono" font-size="33.8" fill="#FFFFFF" transform="matrix(1.00, 0.00, -0.00, -1.00, 461.5, 633.9)">=</text><text xml:space="preserve" font-family="FiraMono-Regular,Fira Mono" font-size="33.8" fill="#000000" transform="matrix(1.00, 0.00, -0.00, -1.00, 481.8, 633.9)"> </text><text xml:space="preserve" font-family="FiraMono-Regular,Fira Mono" font-size="33.8" fill="#FFFFFF" transform="matrix(1.00, 0.00, -0.00, -1.00, 502.0, 633.9)">S</text><text xml:space="preserve" font-family="FiraMono-Regular,Fira Mono" font-size="33.8" fill="#FFFFFF" transform="matrix(1.00, 0.00, -0.00, -1.00, 522.3, 633.9)">t</text><text xml:space="preserve" font-family="FiraMono-Regular,Fira Mono" font-size="33.8" fill="#FFFFFF" transform="matrix(1.00, 0.00, -0.00, -1.00, 542.6, 633.9)">u</text><text xml:space="preserve" font-family="FiraMono-Regular,Fira Mono" font-size="33.8" fill="#FFFFFF" transform="matrix(1.00, 0.00, -0.00, -1.00, 562.9, 633.9)">b</text><text xml:space="preserve" font-family="FiraMono-Regular,Fira Mono" font-size="33.8" fill="#FFFFFF" transform="matrix(1.00, 0.00, -0.00, -1.00, 583.2, 633.9)">(</text><text xml:space="preserve" font-family="FiraMono-Regular,Fira Mono" font-size="33.8" fill="#FFFFFF" transform="matrix(1.00, 0.00, -0.00, -1.00, 603.4, 633.9)">S</text><text xml:space="preserve" font-family="FiraMono-Regular,Fira Mono" font-size="33.8" fill="#FFFFFF" transform="matrix(1.00, 0.00, -0.00, -1.00, 623.7, 633.9)">h</text><text xml:space="preserve" font-family="FiraMono-Regular,Fira Mono" font-size="33.8" fill="#FFFFFF" transform="matrix(1.00, 0.00, -0.00, -1.00, 644.0, 633.9)">i</text><text xml:space="preserve" font-family="FiraMono-Regular,Fira Mono" font-size="33.8" fill="#FFFFFF" transform="matrix(1.00, 0.00, -0.00, -1.00, 664.3, 633.9)">p</text><text xml:space="preserve" font-family="FiraMono-Regular,Fira Mono" font-size="33.8" fill="#FFFFFF" transform="matrix(1.00, 0.00, -0.00, -1.00, 684.6, 633.9)">S</text><text xml:space="preserve" font-family="FiraMono-Regular,Fira Mono" font-size="33.8" fill="#FFFFFF" transform="matrix(1.00, 0.00, -0.00, -1.00, 704.8, 633.9)">t</text><text xml:space="preserve" font-family="FiraMono-Regular,Fira Mono" font-size="33.8" fill="#FFFFFF" transform="matrix(1.00, 0.00, -0.00, -1.00, 725.1, 633.9)">o</text><text xml:space="preserve" font-family="FiraMono-Regular,Fira Mono" font-size="33.8" fill="#FFFFFF" transform="matrix(1.00, 0.00, -0.00, -1.00, 745.4, 633.9)">r</text><text xml:space="preserve" font-family="FiraMono-Regular,Fira Mono" font-size="33.8" fill="#FFFFFF" transform="matrix(1.00, 0.00, -0.00, -1.00, 765.7, 633.9)">e</text><text xml:space="preserve" font-family="FiraMono-Regular,Fira Mono" font-size="33.8" fill="#FFFFFF" transform="matrix(1.00, 0.00, -0.00, -1.00, 786.0, 633.9)">)</text><text xml:space="preserve" font-family="FiraMono-Regular,Fira Mono" font-size="33.8" fill="#FFFFFF" transform="matrix(1.00, 0.00, -0.00, -1.00, 806.2, 633.9)"> </text><text xml:space="preserve" font-family="FiraMono-Regular,Fira Mono" font-size="33.8" fill="#FFFFFF" transform="matrix(1.00, 0.00, -0.00, -1.00, 826.5, 633.9)">{</text><text xml:space="preserve" font-family="FiraMono-Regular,Fira Mono" font-size="33.8" fill="#000000" transform="matrix(1.00, 0.00, -0.00, -1.00, 846.8, 633.9)"> </text><text xml:space="preserve" font-family="FiraMono-Regular,Fira Mono" font-size="33.8" fill="#000000" transform="matrix(1.00, 0.00, -0.00, -1.00, 137.0, 581.9)"> </text><text xml:space="preserve" font-family="FiraMono-Regular,Fira Mono" font-size="33.8" fill="#000000" transform="matrix(1.00, 0.00, -0.00, -1.00, 157.3, 581.9)"> </text><text xml:space="preserve" font-family="FiraMono-Regular,Fira Mono" font-size="33.8" fill="#000000" transform="matrix(1.00, 0.00, -0.00, -1.00, 177.6, 581.9)"> </text><text xml:space="preserve" font-family="FiraMono-Regular,Fira Mono" font-size="33.8" fill="#000000" transform="matrix(1.00, 0.00, -0.00, -1.00, 197.8, 581.9)"> </text><text xml:space="preserve" font-family="FiraMono-Regular,Fira Mono" font-size="33.8" fill="#FFFFFF" transform="matrix(1.00, 0.00, -0.00, -1.00, 218.1, 581.9)">l</text><text xml:space="preserve" font-family="FiraMono-Regular,Fira Mono" font-size="33.8" fill="#FFFFFF" transform="matrix(1.00, 0.00, -0.00, -1.00, 238.4, 581.9)">i</text><text xml:space="preserve" font-family="FiraMono-Regular,Fira Mono" font-size="33.8" fill="#FFFFFF" transform="matrix(1.00, 0.00, -0.00, -1.00, 258.7, 581.9)">s</text><text xml:space="preserve" font-family="FiraMono-Regular,Fira Mono" font-size="33.8" fill="#FFFFFF" transform="matrix(1.00, 0.00, -0.00, -1.00, 279.0, 581.9)">t</text><text xml:space="preserve" font-family="FiraMono-Regular,Fira Mono" font-size="33.8" fill="#FFFFFF" transform="matrix(1.00, 0.00, -0.00, -1.00, 299.2, 581.9)">(</text><text xml:space="preserve" font-family="FiraMono-Regular,Fira Mono" font-size="33.8" fill="#FFFFFF" transform="matrix(1.00, 0.00, -0.00, -1.00, 319.5, 581.9)">)</text><text xml:space="preserve" font-family="FiraMono-Regular,Fira Mono" font-size="33.8" fill="#FFFFFF" transform="matrix(1.00, 0.00, -0.00, -1.00, 339.8, 581.9)"> </text><text xml:space="preserve" font-family="FiraMono-Regular,Fira Mono" font-size="33.8" fill="#FFFFFF" transform="matrix(1.00, 0.00, -0.00, -1.00, 360.1, 581.9)">&gt;</text><text xml:space="preserve" font-family="FiraMono-Regular,Fira Mono" font-size="33.8" fill="#FFFFFF" transform="matrix(1.00, 0.00, -0.00, -1.00, 380.4, 581.9)">&gt;</text><text xml:space="preserve" font-family="FiraMono-Regular,Fira Mono" font-size="33.8" fill="#000000" transform="matrix(1.00, 0.00, -0.00, -1.00, 400.6, 581.9)"> </text><text xml:space="preserve" font-family="FiraMono-Regular,Fira Mono" font-size="33.8" fill="#FFFFFF" transform="matrix(1.00, 0.00, -0.00, -1.00, 420.9, 581.9)">s</text><text xml:space="preserve" font-family="FiraMono-Regular,Fira Mono" font-size="33.8" fill="#FFFFFF" transform="matrix(1.00, 0.00, -0.00, -1.00, 441.2, 581.9)">h</text><text xml:space="preserve" font-family="FiraMono-Regular,Fira Mono" font-size="33.8" fill="#FFFFFF" transform="matrix(1.00, 0.00, -0.00, -1.00, 461.5, 581.9)">i</text><text xml:space="preserve" font-family="FiraMono-Regular,Fira Mono" font-size="33.8" fill="#FFFFFF" transform="matrix(1.00, 0.00, -0.00, -1.00, 481.8, 581.9)">p</text><text xml:space="preserve" font-family="FiraMono-Regular,Fira Mono" font-size="33.8" fill="#FFFFFF" transform="matrix(1.00, 0.00, -0.00, -1.00, 502.0, 581.9)">L</text><text xml:space="preserve" font-family="FiraMono-Regular,Fira Mono" font-size="33.8" fill="#FFFFFF" transform="matrix(1.00, 0.00, -0.00, -1.00, 522.3, 581.9)">i</text><text xml:space="preserve" font-family="FiraMono-Regular,Fira Mono" font-size="33.8" fill="#FFFFFF" transform="matrix(1.00, 0.00, -0.00, -1.00, 542.6, 581.9)">s</text><text xml:space="preserve" font-family="FiraMono-Regular,Fira Mono" font-size="33.8" fill="#FFFFFF" transform="matrix(1.00, 0.00, -0.00, -1.00, 562.9, 581.9)">t</text><text xml:space="preserve" font-family="FiraMono-Regular,Fira Mono" font-size="33.8" fill="#000000" transform="matrix(1.00, 0.00, -0.00, -1.00, 583.2, 581.9)"> </text><text xml:space="preserve" font-family="FiraMono-Regular,Fira Mono" font-size="33.8" fill="#000000" transform="matrix(1.00, 0.00, -0.00, -1.00, 137.0, 529.9)"> </text><text xml:space="preserve" font-family="FiraMono-Regular,Fira Mono" font-size="33.8" fill="#000000" transform="matrix(1.00, 0.00, -0.00, -1.00, 157.3, 529.9)"> </text><text xml:space="preserve" font-family="FiraMono-Regular,Fira Mono" font-size="33.8" fill="#FFFFFF" transform="matrix(1.00, 0.00, -0.00, -1.00, 177.6, 529.9)">}</text><text xml:space="preserve" font-family="FiraMono-Regular,Fira Mono" font-size="33.8" fill="#000000" transform="matrix(1.00, 0.00, -0.00, -1.00, 197.8, 529.9)"> </text><text xml:space="preserve" font-family="FiraMono-Regular,Fira Mono" font-size="33.8" fill="#FFFFFF" transform="matrix(1.00, 0.00, -0.00, -1.00, 137.0, 425.9)"> </text><text xml:space="preserve" font-family="FiraMono-Regular,Fira Mono" font-size="33.8" fill="#FFFFFF" transform="matrix(1.00, 0.00, -0.00, -1.00, 157.3, 425.9)"> </text><text xml:space="preserve" font-family="FiraMono-Regular,Fira Mono" font-size="33.8" fill="#FFFFFF" transform="matrix(1.00, 0.00, -0.00, -1.00, 177.6, 425.9)">w</text><text xml:space="preserve" font-family="FiraMono-Regular,Fira Mono" font-size="33.8" fill="#FFFFFF" transform="matrix(1.00, 0.00, -0.00, -1.00, 197.8, 425.9)">h</text><text xml:space="preserve" font-family="FiraMono-Regular,Fira Mono" font-size="33.8" fill="#FFFFFF" transform="matrix(1.00, 0.00, -0.00, -1.00, 218.1, 425.9)">e</text><text xml:space="preserve" font-family="FiraMono-Regular,Fira Mono" font-size="33.8" fill="#FFFFFF" transform="matrix(1.00, 0.00, -0.00, -1.00, 238.4, 425.9)">n</text><text xml:space="preserve" font-family="FiraMono-Regular,Fira Mono" font-size="33.8" fill="#FFFFFF" transform="matrix(1.00, 0.00, -0.00, -1.00, 258.7, 425.9)">:</text><text xml:space="preserve" font-family="FiraMono-Regular,Fira Mono" font-size="33.8" fill="#000000" transform="matrix(1.00, 0.00, -0.00, -1.00, 279.0, 425.9)"> </text><text xml:space="preserve" font-family="FiraMono-Regular,Fira Mono" font-size="33.8" fill="#000000" transform="matrix(1.00, 0.00, -0.00, -1.00, 137.0, 373.9)"> </text><text xml:space="preserve" font-family="FiraMono-Regular,Fira Mono" font-size="33.8" fill="#000000" transform="matrix(1.00, 0.00, -0.00, -1.00, 157.3, 373.9)"> </text><text xml:space="preserve" font-family="FiraMono-Regular,Fira Mono" font-size="33.8" fill="#C07B1E" transform="matrix(1.00, 0.00, -0.00, -1.00, 177.6, 373.9)">d</text><text xml:space="preserve" font-family="FiraMono-Regular,Fira Mono" font-size="33.8" fill="#C07B1E" transform="matrix(1.00, 0.00, -0.00, -1.00, 197.8, 373.9)">e</text><text xml:space="preserve" font-family="FiraMono-Regular,Fira Mono" font-size="33.8" fill="#C07B1E" transform="matrix(1.00, 0.00, -0.00, -1.00, 218.1, 373.9)">f</text><text xml:space="preserve" font-family="FiraMono-Regular,Fira Mono" font-size="33.8" fill="#000000" transform="matrix(1.00, 0.00, -0.00, -1.00, 238.4, 373.9)"> </text><text xml:space="preserve" font-family="FiraMono-Regular,Fira Mono" font-size="33.8" fill="#FFFFFF" transform="matrix(1.00, 0.00, -0.00, -1.00, 258.7, 373.9)">o</text><text xml:space="preserve" font-family="FiraMono-Regular,Fira Mono" font-size="33.8" fill="#FFFFFF" transform="matrix(1.00, 0.00, -0.00, -1.00, 279.0, 373.9)">u</text><text xml:space="preserve" font-family="FiraMono-Regular,Fira Mono" font-size="33.8" fill="#FFFFFF" transform="matrix(1.00, 0.00, -0.00, -1.00, 299.2, 373.9)">t</text><text xml:space="preserve" font-family="FiraMono-Regular,Fira Mono" font-size="33.8" fill="#FFFFFF" transform="matrix(1.00, 0.00, -0.00, -1.00, 319.5, 373.9)">p</text><text xml:space="preserve" font-family="FiraMono-Regular,Fira Mono" font-size="33.8" fill="#FFFFFF" transform="matrix(1.00, 0.00, -0.00, -1.00, 339.8, 373.9)">u</text><text xml:space="preserve" font-family="FiraMono-Regular,Fira Mono" font-size="33.8" fill="#FFFFFF" transform="matrix(1.00, 0.00, -0.00, -1.00, 360.1, 373.9)">t</text><text xml:space="preserve" font-family="FiraMono-Regular,Fira Mono" font-size="33.8" fill="#000000" transform="matrix(1.00, 0.00, -0.00, -1.00, 380.4, 373.9)"> </text><text xml:space="preserve" font-family="FiraMono-Regular,Fira Mono" font-size="33.8" fill="#FFFFFF" transform="matrix(1.00, 0.00, -0.00, -1.00, 400.6, 373.9)">=</text><text xml:space="preserve" font-family="FiraMono-Regular,Fira Mono" font-size="33.8" fill="#000000" transform="matrix(1.00, 0.00, -0.00, -1.00, 420.9, 373.9)"> </text><text xml:space="preserve" font-family="FiraMono-Regular,Fira Mono" font-size="33.8" fill="#FFFFFF" transform="matrix(1.00, 0.00, -0.00, -1.00, 441.2, 373.9)">s</text><text xml:space="preserve" font-family="FiraMono-Regular,Fira Mono" font-size="33.8" fill="#FFFFFF" transform="matrix(1.00, 0.00, -0.00, -1.00, 461.5, 373.9)">h</text><text xml:space="preserve" font-family="FiraMono-Regular,Fira Mono" font-size="33.8" fill="#FFFFFF" transform="matrix(1.00, 0.00, -0.00, -1.00, 481.8, 373.9)">i</text><text xml:space="preserve" font-family="FiraMono-Regular,Fira Mono" font-size="33.8" fill="#FFFFFF" transform="matrix(1.00, 0.00, -0.00, -1.00, 502.0, 373.9)">p</text><text xml:space="preserve" font-family="FiraMono-Regular,Fira Mono" font-size="33.8" fill="#FFFFFF" transform="matrix(1.00, 0.00, -0.00, -1.00, 522.3, 373.9)">s</text><text xml:space="preserve" font-family="FiraMono-Regular,Fira Mono" font-size="33.8" fill="#FFFFFF" transform="matrix(1.00, 0.00, -0.00, -1.00, 542.6, 373.9)">.</text><text xml:space="preserve" font-family="FiraMono-Regular,Fira Mono" font-size="33.8" fill="#FFFFFF" transform="matrix(1.00, 0.00, -0.00, -1.00, 562.9, 373.9)">r</text><text xml:space="preserve" font-family="FiraMono-Regular,Fira Mono" font-size="33.8" fill="#FFFFFF" transform="matrix(1.00, 0.00, -0.00, -1.00, 583.2, 373.9)">e</text><text xml:space="preserve" font-family="FiraMono-Regular,Fira Mono" font-size="33.8" fill="#FFFFFF" transform="matrix(1.00, 0.00, -0.00, -1.00, 603.4, 373.9)">n</text><text xml:space="preserve" font-family="FiraMono-Regular,Fira Mono" font-size="33.8" fill="#FFFFFF" transform="matrix(1.00, 0.00, -0.00, -1.00, 623.7, 373.9)">d</text><text xml:space="preserve" font-family="FiraMono-Regular,Fira Mono" font-size="33.8" fill="#FFFFFF" transform="matrix(1.00, 0.00, -0.00, -1.00, 644.0, 373.9)">e</text><text xml:space="preserve" font-family="FiraMono-Regular,Fira Mono" font-size="33.8" fill="#FFFFFF" transform="matrix(1.00, 0.00, -0.00, -1.00, 664.3, 373.9)">r</text><text xml:space="preserve" font-family="FiraMono-Regular,Fira Mono" font-size="33.8" fill="#FFFFFF" transform="matrix(1.00, 0.00, -0.00, -1.00, 684.6, 373.9)">(</text><text xml:space="preserve" font-family="FiraMono-Regular,Fira Mono" font-size="33.8" fill="#FFFFFF" transform="matrix(1.00, 0.00, -0.00, -1.00, 704.8, 373.9)">)</text><text xml:space="preserve" font-family="FiraMono-Regular,Fira Mono" font-size="33.8" fill="#000000" transform="matrix(1.00, 0.00, -0.00, -1.00, 725.1, 373.9)"> </text><text xml:space="preserve" font-family="FiraMono-Regular,Fira Mono" font-size="33.8" fill="#FFFFFF" transform="matrix(1.00, 0.00, -0.00, -1.00, 137.0, 269.9)"> </text><text xml:space="preserve" font-family="FiraMono-Regular,Fira Mono" font-size="33.8" fill="#FFFFFF" transform="matrix(1.00, 0.00, -0.00, -1.00, 157.3, 269.9)"> </text><text xml:space="preserve" font-family="FiraMono-Regular,Fira Mono" font-size="33.8" fill="#FFFFFF" transform="matrix(1.00, 0.00, -0.00, -1.00, 177.6, 269.9)">t</text><text xml:space="preserve" font-family="FiraMono-Regular,Fira Mono" font-size="33.8" fill="#FFFFFF" transform="matrix(1.00, 0.00, -0.00, -1.00, 197.8, 269.9)">h</text><text xml:space="preserve" font-family="FiraMono-Regular,Fira Mono" font-size="33.8" fill="#FFFFFF" transform="matrix(1.00, 0.00, -0.00, -1.00, 218.1, 269.9)">e</text><text xml:space="preserve" font-family="FiraMono-Regular,Fira Mono" font-size="33.8" fill="#FFFFFF" transform="matrix(1.00, 0.00, -0.00, -1.00, 238.4, 269.9)">n</text><text xml:space="preserve" font-family="FiraMono-Regular,Fira Mono" font-size="33.8" fill="#FFFFFF" transform="matrix(1.00, 0.00, -0.00, -1.00, 258.7, 269.9)">:</text><text xml:space="preserve" font-family="FiraMono-Regular,Fira Mono" font-size="33.8" fill="#000000" transform="matrix(1.00, 0.00, -0.00, -1.00, 279.0, 269.9)"> </text><text xml:space="preserve" font-family="FiraMono-Regular,Fira Mono" font-size="33.8" fill="#FFFFFF" transform="matrix(1.00, 0.00, -0.00, -1.00, 137.0, 217.9)"> </text><text xml:space="preserve" font-family="FiraMono-Regular,Fira Mono" font-size="33.8" fill="#FFFFFF" transform="matrix(1.00, 0.00, -0.00, -1.00, 157.3, 217.9)"> </text><text xml:space="preserve" font-family="FiraMono-Regular,Fira Mono" font-size="33.8" fill="#FFFFFF" transform="matrix(1.00, 0.00, -0.00, -1.00, 177.6, 217.9)">$</text><text xml:space="preserve" font-family="FiraMono-Regular,Fira Mono" font-size="33.8" fill="#FFFFFF" transform="matrix(1.00, 0.00, -0.00, -1.00, 197.8, 217.9)">(</text><text xml:space="preserve" font-family="FiraMono-Regular,Fira Mono" font-size="33.8" fill="#FFFFFF" transform="matrix(1.00, 0.00, -0.00, -1.00, 218.1, 217.9)">o</text><text xml:space="preserve" font-family="FiraMono-Regular,Fira Mono" font-size="33.8" fill="#FFFFFF" transform="matrix(1.00, 0.00, -0.00, -1.00, 238.4, 217.9)">u</text><text xml:space="preserve" font-family="FiraMono-Regular,Fira Mono" font-size="33.8" fill="#FFFFFF" transform="matrix(1.00, 0.00, -0.00, -1.00, 258.7, 217.9)">t</text><text xml:space="preserve" font-family="FiraMono-Regular,Fira Mono" font-size="33.8" fill="#FFFFFF" transform="matrix(1.00, 0.00, -0.00, -1.00, 279.0, 217.9)">p</text><text xml:space="preserve" font-family="FiraMono-Regular,Fira Mono" font-size="33.8" fill="#FFFFFF" transform="matrix(1.00, 0.00, -0.00, -1.00, 299.2, 217.9)">u</text><text xml:space="preserve" font-family="FiraMono-Regular,Fira Mono" font-size="33.8" fill="#FFFFFF" transform="matrix(1.00, 0.00, -0.00, -1.00, 319.5, 217.9)">t</text><text xml:space="preserve" font-family="FiraMono-Regular,Fira Mono" font-size="33.8" fill="#FFFFFF" transform="matrix(1.00, 0.00, -0.00, -1.00, 339.8, 217.9)">)</text><text xml:space="preserve" font-family="FiraMono-Regular,Fira Mono" font-size="33.8" fill="#FFFFFF" transform="matrix(1.00, 0.00, -0.00, -1.00, 360.1, 217.9)">.</text><text xml:space="preserve" font-family="FiraMono-Regular,Fira Mono" font-size="33.8" fill="#FFFFFF" transform="matrix(1.00, 0.00, -0.00, -1.00, 380.4, 217.9)">f</text><text xml:space="preserve" font-family="FiraMono-Regular,Fira Mono" font-size="33.8" fill="#FFFFFF" transform="matrix(1.00, 0.00, -0.00, -1.00, 400.6, 217.9)">i</text><text xml:space="preserve" font-family="FiraMono-Regular,Fira Mono" font-size="33.8" fill="#FFFFFF" transform="matrix(1.00, 0.00, -0.00, -1.00, 420.9, 217.9)">n</text><text xml:space="preserve" font-family="FiraMono-Regular,Fira Mono" font-size="33.8" fill="#FFFFFF" transform="matrix(1.00, 0.00, -0.00, -1.00, 441.2, 217.9)">d</text><text xml:space="preserve" font-family="FiraMono-Regular,Fira Mono" font-size="33.8" fill="#FFFFFF" transform="matrix(1.00, 0.00, -0.00, -1.00, 461.5, 217.9)">(</text><text xml:space="preserve" font-family="FiraMono-Regular,Fira Mono" font-size="33.8" fill="#FF2600" transform="matrix(1.00, 0.00, -0.00, -1.00, 481.8, 217.9)">"</text><text xml:space="preserve" font-family="FiraMono-Regular,Fira Mono" font-size="33.8" fill="#FF2600" transform="matrix(1.00, 0.00, -0.00, -1.00, 502.0, 217.9)">u</text><text xml:space="preserve" font-family="FiraMono-Regular,Fira Mono" font-size="33.8" fill="#FF2600" transform="matrix(1.00, 0.00, -0.00, -1.00, 522.3, 217.9)">l</text><text xml:space="preserve" font-family="FiraMono-Regular,Fira Mono" font-size="33.8" fill="#FF2600" transform="matrix(1.00, 0.00, -0.00, -1.00, 542.6, 217.9)"> </text><text xml:space="preserve" font-family="FiraMono-Regular,Fira Mono" font-size="33.8" fill="#FF2600" transform="matrix(1.00, 0.00, -0.00, -1.00, 562.9, 217.9)">&gt;</text><text xml:space="preserve" font-family="FiraMono-Regular,Fira Mono" font-size="33.8" fill="#FF2600" transform="matrix(1.00, 0.00, -0.00, -1.00, 583.2, 217.9)"> </text><text xml:space="preserve" font-family="FiraMono-Regular,Fira Mono" font-size="33.8" fill="#FF2600" transform="matrix(1.00, 0.00, -0.00, -1.00, 603.4, 217.9)">l</text><text xml:space="preserve" font-family="FiraMono-Regular,Fira Mono" font-size="33.8" fill="#FF2600" transform="matrix(1.00, 0.00, -0.00, -1.00, 623.7, 217.9)">i</text><text xml:space="preserve" font-family="FiraMono-Regular,Fira Mono" font-size="33.8" fill="#FF2600" transform="matrix(1.00, 0.00, -0.00, -1.00, 644.0, 217.9)">"</text><text xml:space="preserve" font-family="FiraMono-Regular,Fira Mono" font-size="33.8" fill="#FFFFFF" transform="matrix(1.00, 0.00, -0.00, -1.00, 664.3, 217.9)">)</text><text xml:space="preserve" font-family="FiraMono-Regular,Fira Mono" font-size="33.8" fill="#FFFFFF" transform="matrix(1.00, 0.00, -0.00, -1.00, 684.6, 217.9)">*</text><text xml:space="preserve" font-family="FiraMono-Regular,Fira Mono" font-size="33.8" fill="#FFFFFF" transform="matrix(1.00, 0.00, -0.00, -1.00, 704.8, 217.9)">.</text><text xml:space="preserve" font-family="FiraMono-Regular,Fira Mono" font-size="33.8" fill="#FFFFFF" transform="matrix(1.00, 0.00, -0.00, -1.00, 725.1, 217.9)">t</text><text xml:space="preserve" font-family="FiraMono-Regular,Fira Mono" font-size="33.8" fill="#FFFFFF" transform="matrix(1.00, 0.00, -0.00, -1.00, 745.4, 217.9)">e</text><text xml:space="preserve" font-family="FiraMono-Regular,Fira Mono" font-size="33.8" fill="#FFFFFF" transform="matrix(1.00, 0.00, -0.00, -1.00, 765.7, 217.9)">x</text><text xml:space="preserve" font-family="FiraMono-Regular,Fira Mono" font-size="33.8" fill="#FFFFFF" transform="matrix(1.00, 0.00, -0.00, -1.00, 786.0, 217.9)">t</text><text xml:space="preserve" font-family="FiraMono-Regular,Fira Mono" font-size="33.8" fill="#FFFFFF" transform="matrix(1.00, 0.00, -0.00, -1.00, 806.2, 217.9)">(</text><text xml:space="preserve" font-family="FiraMono-Regular,Fira Mono" font-size="33.8" fill="#FFFFFF" transform="matrix(1.00, 0.00, -0.00, -1.00, 826.5, 217.9)">)</text><text xml:space="preserve" font-family="FiraMono-Regular,Fira Mono" font-size="33.8" fill="#FFFFFF" transform="matrix(1.00, 0.00, -0.00, -1.00, 846.8, 217.9)"> </text><text xml:space="preserve" font-family="FiraMono-Regular,Fira Mono" font-size="33.8" fill="#FFFFFF" transform="matrix(1.00, 0.00, -0.00, -1.00, 867.1, 217.9)">=</text><text xml:space="preserve" font-family="FiraMono-Regular,Fira Mono" font-size="33.8" fill="#FFFFFF" transform="matrix(1.00, 0.00, -0.00, -1.00, 887.4, 217.9)">=</text><text xml:space="preserve" font-family="FiraMono-Regular,Fira Mono" font-size="33.8" fill="#000000" transform="matrix(1.00, 0.00, -0.00, -1.00, 907.6, 217.9)"> </text><text xml:space="preserve" font-family="FiraMono-Regular,Fira Mono" font-size="33.8" fill="#FFFFFF" transform="matrix(1.00, 0.00, -0.00, -1.00, 927.9, 217.9)">s</text><text xml:space="preserve" font-family="FiraMono-Regular,Fira Mono" font-size="33.8" fill="#FFFFFF" transform="matrix(1.00, 0.00, -0.00, -1.00, 948.2, 217.9)">h</text><text xml:space="preserve" font-family="FiraMono-Regular,Fira Mono" font-size="33.8" fill="#FFFFFF" transform="matrix(1.00, 0.00, -0.00, -1.00, 968.5, 217.9)">i</text><text xml:space="preserve" font-family="FiraMono-Regular,Fira Mono" font-size="33.8" fill="#FFFFFF" transform="matrix(1.00, 0.00, -0.00, -1.00, 988.8, 217.9)">p</text><text xml:space="preserve" font-family="FiraMono-Regular,Fira Mono" font-size="33.8" fill="#FFFFFF" transform="matrix(1.00, 0.00, -0.00, -1.00, 1009.0, 217.9)">L</text><text xml:space="preserve" font-family="FiraMono-Regular,Fira Mono" font-size="33.8" fill="#FFFFFF" transform="matrix(1.00, 0.00, -0.00, -1.00, 1029.3, 217.9)">i</text><text xml:space="preserve" font-family="FiraMono-Regular,Fira Mono" font-size="33.8" fill="#FFFFFF" transform="matrix(1.00, 0.00, -0.00, -1.00, 1049.6, 217.9)">s</text><text xml:space="preserve" font-family="FiraMono-Regular,Fira Mono" font-size="33.8" fill="#FFFFFF" transform="matrix(1.00, 0.00, -0.00, -1.00, 1069.9, 217.9)">t</text><text xml:space="preserve" font-family="FiraMono-Regular,Fira Mono" font-size="33.8" fill="#000000" transform="matrix(1.00, 0.00, -0.00, -1.00, 1090.2, 217.9)"> </text><text xml:space="preserve" font-family="FiraMono-Regular,Fira Mono" font-size="33.8" fill="#FFFFFF" transform="matrix(1.00, 0.00, -0.00, -1.00, 137.0, 165.9)">}</text></g></svg>