<?xml version="1.0" encoding="UTF-8" standalone="no"?><svg xmlns="http://www.w3.org/2000/svg" xmlns:xlink="http://www.w3.org/1999/xlink" clip-rule="evenodd" stroke-miterlimit="10" viewBox="0 0 1920 1080"><desc>SVG generated by Keynote</desc><defs></defs><g transform="matrix(1.00, 0.00, -0.00, -1.00, 0.0, 1080.0)"><g><clipPath id="clip0x7f840944be60"><path d="M 0.0 1080.0 L 1920.0 1080.0 L 1920.0 0.0 L 0.0 0.0 Z M 0.0 1080.0 "></path></clipPath><g clip-path="url(#clip0x7f840944be60)"><image xlink:href="../../BF7430C7-5211-4E68-B118-AC68FDB76F0F/assets/A81AF0278930B93F47F55E5BB6D3A023.png" width="1920.00" height="1080.00" transform="matrix(1.00, 0.00, -0.00, -1.00, 0.0, 1080.0)"></image></g></g><text xml:space="preserve" font-family="HorizonBT-Regular,Horizon BT" font-size="128.0" fill="#FFD941" transform="matrix(1.00, 0.00, -0.00, -1.00, 462.8, 917.2)">S</text><text xml:space="preserve" font-family="HorizonBT-Regular,Horizon BT" font-size="128.0" fill="#FFD941" transform="matrix(1.00, 0.00, -0.00, -1.00, 513.3, 917.2)">H</text><text xml:space="preserve" font-family="HorizonBT-Regular,Horizon BT" font-size="128.0" fill="#FFD941" transform="matrix(1.00, 0.00, -0.00, -1.00, 564.0, 917.2)">A</text><text xml:space="preserve" font-family="HorizonBT-Regular,Horizon BT" font-size="128.0" fill="#FFD941" transform="matrix(1.00, 0.00, -0.00, -1.00, 614.7, 917.2)">R</text><text xml:space="preserve" font-family="HorizonBT-Regular,Horizon BT" font-size="128.0" fill="#FFD941" transform="matrix(1.00, 0.00, -0.00, -1.00, 665.1, 917.2)">E</text><text xml:space="preserve" font-family="HorizonBT-Regular,Horizon BT" font-size="128.0" fill="#FFD941" transform="matrix(1.00, 0.00, -0.00, -1.00, 709.3, 917.2)">D</text><text xml:space="preserve" font-family="HorizonBT-Regular,Horizon BT" font-size="128.0" fill="#FFD941" transform="matrix(1.00, 0.00, -0.00, -1.00, 759.9, 917.2)"> </text><text xml:space="preserve" font-family="HorizonBT-Regular,Horizon BT" font-size="128.0" fill="#FFD941" transform="matrix(1.00, 0.00, -0.00, -1.00, 785.3, 917.2)">H</text><text xml:space="preserve" font-family="HorizonBT-Regular,Horizon BT" font-size="128.0" fill="#FFD941" transform="matrix(1.00, 0.00, -0.00, -1.00, 836.0, 917.2)">E</text><text xml:space="preserve" font-family="HorizonBT-Regular,Horizon BT" font-size="128.0" fill="#FFD941" transform="matrix(1.00, 0.00, -0.00, -1.00, 880.2, 917.2)">L</text><text xml:space="preserve" font-family="HorizonBT-Regular,Horizon BT" font-size="128.0" fill="#FFD941" transform="matrix(1.00, 0.00, -0.00, -1.00, 921.0, 917.2)">P</text><text xml:space="preserve" font-family="HorizonBT-Regular,Horizon BT" font-size="128.0" fill="#FFD941" transform="matrix(1.00, 0.00, -0.00, -1.00, 970.2, 917.2)">E</text><text xml:space="preserve" font-family="HorizonBT-Regular,Horizon BT" font-size="128.0" fill="#FFD941" transform="matrix(1.00, 0.00, -0.00, -1.00, 1014.4, 917.2)">R</text><text xml:space="preserve" font-family="HorizonBT-Regular,Horizon BT" font-size="128.0" fill="#FFD941" transform="matrix(1.00, 0.00, -0.00, -1.00, 1064.8, 917.2)"> </text><text xml:space="preserve" font-family="HorizonBT-Regular,Horizon BT" font-size="128.0" fill="#FFD941" transform="matrix(1.00, 0.00, -0.00, -1.00, 1090.2, 917.2)">M</text><text xml:space="preserve" font-family="HorizonBT-Regular,Horizon BT" font-size="128.0" fill="#FFD941" transform="matrix(1.00, 0.00, -0.00, -1.00, 1165.8, 917.2)">E</text><text xml:space="preserve" font-family="HorizonBT-Regular,Horizon BT" font-size="128.0" fill="#FFD941" transform="matrix(1.00, 0.00, -0.00, -1.00, 1210.0, 917.2)">T</text><text xml:space="preserve" font-family="HorizonBT-Regular,Horizon BT" font-size="128.0" fill="#FFD941" transform="matrix(1.00, 0.00, -0.00, -1.00, 1255.1, 917.2)">H</text><text xml:space="preserve" font-family="HorizonBT-Regular,Horizon BT" font-size="128.0" fill="#FFD941" transform="matrix(1.00, 0.00, -0.00, -1.00, 1305.8, 917.2)">O</text><text xml:space="preserve" font-family="HorizonBT-Regular,Horizon BT" font-size="128.0" fill="#FFD941" transform="matrix(1.00, 0.00, -0.00, -1.00, 1356.2, 917.2)">D</text><text xml:space="preserve" font-family="HorizonBT-Regular,Horizon BT" font-size="128.0" fill="#FFD941" transform="matrix(1.00, 0.00, -0.00, -1.00, 1406.8, 917.2)">S</text><text xml:space="preserve" font-family="FiraMono-Regular,Fira Mono" font-size="42.1" fill="#C07B1E" transform="matrix(1.00, 0.00, -0.00, -1.00, 137.0, 779.1)">@</text><text xml:space="preserve" font-family="FiraMono-Regular,Fira Mono" font-size="42.1" fill="#C07B1E" transform="matrix(1.00, 0.00, -0.00, -1.00, 162.3, 779.1)">C</text><text xml:space="preserve" font-family="FiraMono-Regular,Fira Mono" font-size="42.1" fill="#C07B1E" transform="matrix(1.00, 0.00, -0.00, -1.00, 187.5, 779.1)">a</text><text xml:space="preserve" font-family="FiraMono-Regular,Fira Mono" font-size="42.1" fill="#C07B1E" transform="matrix(1.00, 0.00, -0.00, -1.00, 212.8, 779.1)">t</text><text xml:space="preserve" font-family="FiraMono-Regular,Fira Mono" font-size="42.1" fill="#C07B1E" transform="matrix(1.00, 0.00, -0.00, -1.00, 238.1, 779.1)">e</text><text xml:space="preserve" font-family="FiraMono-Regular,Fira Mono" font-size="42.1" fill="#C07B1E" transform="matrix(1.00, 0.00, -0.00, -1.00, 263.4, 779.1)">g</text><text xml:space="preserve" font-family="FiraMono-Regular,Fira Mono" font-size="42.1" fill="#C07B1E" transform="matrix(1.00, 0.00, -0.00, -1.00, 288.6, 779.1)">o</text><text xml:space="preserve" font-family="FiraMono-Regular,Fira Mono" font-size="42.1" fill="#C07B1E" transform="matrix(1.00, 0.00, -0.00, -1.00, 313.9, 779.1)">r</text><text xml:space="preserve" font-family="FiraMono-Regular,Fira Mono" font-size="42.1" fill="#C07B1E" transform="matrix(1.00, 0.00, -0.00, -1.00, 339.2, 779.1)">y</text><text xml:space="preserve" font-family="FiraMono-Regular,Fira Mono" font-size="42.1" fill="#FFFFFF" transform="matrix(1.00, 0.00, -0.00, -1.00, 364.4, 779.1)">(</text><text xml:space="preserve" font-family="FiraMono-Regular,Fira Mono" font-size="42.1" fill="#FFFFFF" transform="matrix(1.00, 0.00, -0.00, -1.00, 389.7, 779.1)">G</text><text xml:space="preserve" font-family="FiraMono-Regular,Fira Mono" font-size="42.1" fill="#FFFFFF" transform="matrix(1.00, 0.00, -0.00, -1.00, 415.0, 779.1)">e</text><text xml:space="preserve" font-family="FiraMono-Regular,Fira Mono" font-size="42.1" fill="#FFFFFF" transform="matrix(1.00, 0.00, -0.00, -1.00, 440.3, 779.1)">b</text><text xml:space="preserve" font-family="FiraMono-Regular,Fira Mono" font-size="42.1" fill="#FFFFFF" transform="matrix(1.00, 0.00, -0.00, -1.00, 465.5, 779.1)">S</text><text xml:space="preserve" font-family="FiraMono-Regular,Fira Mono" font-size="42.1" fill="#FFFFFF" transform="matrix(1.00, 0.00, -0.00, -1.00, 490.8, 779.1)">p</text><text xml:space="preserve" font-family="FiraMono-Regular,Fira Mono" font-size="42.1" fill="#FFFFFF" transform="matrix(1.00, 0.00, -0.00, -1.00, 516.1, 779.1)">e</text><text xml:space="preserve" font-family="FiraMono-Regular,Fira Mono" font-size="42.1" fill="#FFFFFF" transform="matrix(1.00, 0.00, -0.00, -1.00, 541.4, 779.1)">c</text><text xml:space="preserve" font-family="FiraMono-Regular,Fira Mono" font-size="42.1" fill="#FFFFFF" transform="matrix(1.00, 0.00, -0.00, -1.00, 566.6, 779.1)">)</text><text xml:space="preserve" font-family="FiraMono-Regular,Fira Mono" font-size="42.1" fill="#000000" transform="matrix(1.00, 0.00, -0.00, -1.00, 591.9, 779.1)"> </text><text xml:space="preserve" font-family="FiraMono-Regular,Fira Mono" font-size="42.1" fill="#C07B1E" transform="matrix(1.00, 0.00, -0.00, -1.00, 137.0, 714.1)">c</text><text xml:space="preserve" font-family="FiraMono-Regular,Fira Mono" font-size="42.1" fill="#C07B1E" transform="matrix(1.00, 0.00, -0.00, -1.00, 162.3, 714.1)">l</text><text xml:space="preserve" font-family="FiraMono-Regular,Fira Mono" font-size="42.1" fill="#C07B1E" transform="matrix(1.00, 0.00, -0.00, -1.00, 187.5, 714.1)">a</text><text xml:space="preserve" font-family="FiraMono-Regular,Fira Mono" font-size="42.1" fill="#C07B1E" transform="matrix(1.00, 0.00, -0.00, -1.00, 212.8, 714.1)">s</text><text xml:space="preserve" font-family="FiraMono-Regular,Fira Mono" font-size="42.1" fill="#C07B1E" transform="matrix(1.00, 0.00, -0.00, -1.00, 238.1, 714.1)">s</text><text xml:space="preserve" font-family="FiraMono-Regular,Fira Mono" font-size="42.1" fill="#000000" transform="matrix(1.00, 0.00, -0.00, -1.00, 263.4, 714.1)"> </text><text xml:space="preserve" font-family="FiraMono-Regular,Fira Mono" font-size="42.1" fill="#FFFFFF" transform="matrix(1.00, 0.00, -0.00, -1.00, 288.6, 714.1)">S</text><text xml:space="preserve" font-family="FiraMono-Regular,Fira Mono" font-size="42.1" fill="#FFFFFF" transform="matrix(1.00, 0.00, -0.00, -1.00, 313.9, 714.1)">t</text><text xml:space="preserve" font-family="FiraMono-Regular,Fira Mono" font-size="42.1" fill="#FFFFFF" transform="matrix(1.00, 0.00, -0.00, -1.00, 339.2, 714.1)">o</text><text xml:space="preserve" font-family="FiraMono-Regular,Fira Mono" font-size="42.1" fill="#FFFFFF" transform="matrix(1.00, 0.00, -0.00, -1.00, 364.4, 714.1)">r</text><text xml:space="preserve" font-family="FiraMono-Regular,Fira Mono" font-size="42.1" fill="#FFFFFF" transform="matrix(1.00, 0.00, -0.00, -1.00, 389.7, 714.1)">e</text><text xml:space="preserve" font-family="FiraMono-Regular,Fira Mono" font-size="42.1" fill="#FFFFFF" transform="matrix(1.00, 0.00, -0.00, -1.00, 415.0, 714.1)">I</text><text xml:space="preserve" font-family="FiraMono-Regular,Fira Mono" font-size="42.1" fill="#FFFFFF" transform="matrix(1.00, 0.00, -0.00, -1.00, 440.3, 714.1)">n</text><text xml:space="preserve" font-family="FiraMono-Regular,Fira Mono" font-size="42.1" fill="#FFFFFF" transform="matrix(1.00, 0.00, -0.00, -1.00, 465.5, 714.1)">t</text><text xml:space="preserve" font-family="FiraMono-Regular,Fira Mono" font-size="42.1" fill="#FFFFFF" transform="matrix(1.00, 0.00, -0.00, -1.00, 490.8, 714.1)">e</text><text xml:space="preserve" font-family="FiraMono-Regular,Fira Mono" font-size="42.1" fill="#FFFFFF" transform="matrix(1.00, 0.00, -0.00, -1.00, 516.1, 714.1)">r</text><text xml:space="preserve" font-family="FiraMono-Regular,Fira Mono" font-size="42.1" fill="#FFFFFF" transform="matrix(1.00, 0.00, -0.00, -1.00, 541.4, 714.1)">a</text><text xml:space="preserve" font-family="FiraMono-Regular,Fira Mono" font-size="42.1" fill="#FFFFFF" transform="matrix(1.00, 0.00, -0.00, -1.00, 566.6, 714.1)">c</text><text xml:space="preserve" font-family="FiraMono-Regular,Fira Mono" font-size="42.1" fill="#FFFFFF" transform="matrix(1.00, 0.00, -0.00, -1.00, 591.9, 714.1)">t</text><text xml:space="preserve" font-family="FiraMono-Regular,Fira Mono" font-size="42.1" fill="#FFFFFF" transform="matrix(1.00, 0.00, -0.00, -1.00, 617.2, 714.1)">i</text><text xml:space="preserve" font-family="FiraMono-Regular,Fira Mono" font-size="42.1" fill="#FFFFFF" transform="matrix(1.00, 0.00, -0.00, -1.00, 642.4, 714.1)">o</text><text xml:space="preserve" font-family="FiraMono-Regular,Fira Mono" font-size="42.1" fill="#FFFFFF" transform="matrix(1.00, 0.00, -0.00, -1.00, 667.7, 714.1)">n</text><text xml:space="preserve" font-family="FiraMono-Regular,Fira Mono" font-size="42.1" fill="#FFFFFF" transform="matrix(1.00, 0.00, -0.00, -1.00, 693.0, 714.1)">s</text><text xml:space="preserve" font-family="FiraMono-Regular,Fira Mono" font-size="42.1" fill="#000000" transform="matrix(1.00, 0.00, -0.00, -1.00, 718.3, 714.1)"> </text><text xml:space="preserve" font-family="FiraMono-Regular,Fira Mono" font-size="42.1" fill="#FFFFFF" transform="matrix(1.00, 0.00, -0.00, -1.00, 743.5, 714.1)">{</text><text xml:space="preserve" font-family="FiraMono-Regular,Fira Mono" font-size="42.1" fill="#000000" transform="matrix(1.00, 0.00, -0.00, -1.00, 768.8, 714.1)"> </text><text xml:space="preserve" font-family="FiraMono-Regular,Fira Mono" font-size="42.1" fill="#000000" transform="matrix(1.00, 0.00, -0.00, -1.00, 137.0, 649.1)"> </text><text xml:space="preserve" font-family="FiraMono-Regular,Fira Mono" font-size="42.1" fill="#000000" transform="matrix(1.00, 0.00, -0.00, -1.00, 162.3, 649.1)"> </text><text xml:space="preserve" font-family="FiraMono-Regular,Fira Mono" font-size="42.1" fill="#00F900" transform="matrix(1.00, 0.00, -0.00, -1.00, 187.5, 649.1)">v</text><text xml:space="preserve" font-family="FiraMono-Regular,Fira Mono" font-size="42.1" fill="#00F900" transform="matrix(1.00, 0.00, -0.00, -1.00, 212.8, 649.1)">o</text><text xml:space="preserve" font-family="FiraMono-Regular,Fira Mono" font-size="42.1" fill="#00F900" transform="matrix(1.00, 0.00, -0.00, -1.00, 238.1, 649.1)">i</text><text xml:space="preserve" font-family="FiraMono-Regular,Fira Mono" font-size="42.1" fill="#00F900" transform="matrix(1.00, 0.00, -0.00, -1.00, 263.4, 649.1)">d</text><text xml:space="preserve" font-family="FiraMono-Regular,Fira Mono" font-size="42.1" fill="#000000" transform="matrix(1.00, 0.00, -0.00, -1.00, 288.6, 649.1)"> </text><text xml:space="preserve" font-family="FiraMono-Regular,Fira Mono" font-size="42.1" fill="#FFFFFF" transform="matrix(1.00, 0.00, -0.00, -1.00, 313.9, 649.1)">l</text><text xml:space="preserve" font-family="FiraMono-Regular,Fira Mono" font-size="42.1" fill="#FFFFFF" transform="matrix(1.00, 0.00, -0.00, -1.00, 339.2, 649.1)">o</text><text xml:space="preserve" font-family="FiraMono-Regular,Fira Mono" font-size="42.1" fill="#FFFFFF" transform="matrix(1.00, 0.00, -0.00, -1.00, 364.4, 649.1)">g</text><text xml:space="preserve" font-family="FiraMono-Regular,Fira Mono" font-size="42.1" fill="#FFFFFF" transform="matrix(1.00, 0.00, -0.00, -1.00, 389.7, 649.1)">g</text><text xml:space="preserve" font-family="FiraMono-Regular,Fira Mono" font-size="42.1" fill="#FFFFFF" transform="matrix(1.00, 0.00, -0.00, -1.00, 415.0, 649.1)">e</text><text xml:space="preserve" font-family="FiraMono-Regular,Fira Mono" font-size="42.1" fill="#FFFFFF" transform="matrix(1.00, 0.00, -0.00, -1.00, 440.3, 649.1)">d</text><text xml:space="preserve" font-family="FiraMono-Regular,Fira Mono" font-size="42.1" fill="#FFFFFF" transform="matrix(1.00, 0.00, -0.00, -1.00, 465.5, 649.1)">I</text><text xml:space="preserve" font-family="FiraMono-Regular,Fira Mono" font-size="42.1" fill="#FFFFFF" transform="matrix(1.00, 0.00, -0.00, -1.00, 490.8, 649.1)">n</text><text xml:space="preserve" font-family="FiraMono-Regular,Fira Mono" font-size="42.1" fill="#FFFFFF" transform="matrix(1.00, 0.00, -0.00, -1.00, 516.1, 649.1)">A</text><text xml:space="preserve" font-family="FiraMono-Regular,Fira Mono" font-size="42.1" fill="#FFFFFF" transform="matrix(1.00, 0.00, -0.00, -1.00, 541.4, 649.1)">s</text><text xml:space="preserve" font-family="FiraMono-Regular,Fira Mono" font-size="42.1" fill="#FFFFFF" transform="matrix(1.00, 0.00, -0.00, -1.00, 566.6, 649.1)">(</text><text xml:space="preserve" font-family="FiraMono-Regular,Fira Mono" font-size="42.1" fill="#FFFFFF" transform="matrix(1.00, 0.00, -0.00, -1.00, 591.9, 649.1)">u</text><text xml:space="preserve" font-family="FiraMono-Regular,Fira Mono" font-size="42.1" fill="#FFFFFF" transform="matrix(1.00, 0.00, -0.00, -1.00, 617.2, 649.1)">s</text><text xml:space="preserve" font-family="FiraMono-Regular,Fira Mono" font-size="42.1" fill="#FFFFFF" transform="matrix(1.00, 0.00, -0.00, -1.00, 642.4, 649.1)">e</text><text xml:space="preserve" font-family="FiraMono-Regular,Fira Mono" font-size="42.1" fill="#FFFFFF" transform="matrix(1.00, 0.00, -0.00, -1.00, 667.7, 649.1)">r</text><text xml:space="preserve" font-family="FiraMono-Regular,Fira Mono" font-size="42.1" fill="#FFFFFF" transform="matrix(1.00, 0.00, -0.00, -1.00, 693.0, 649.1)">)</text><text xml:space="preserve" font-family="FiraMono-Regular,Fira Mono" font-size="42.1" fill="#FFFFFF" transform="matrix(1.00, 0.00, -0.00, -1.00, 718.3, 649.1)"> </text><text xml:space="preserve" font-family="FiraMono-Regular,Fira Mono" font-size="42.1" fill="#FFFFFF" transform="matrix(1.00, 0.00, -0.00, -1.00, 743.5, 649.1)">{</text><text xml:space="preserve" font-family="FiraMono-Regular,Fira Mono" font-size="42.1" fill="#FFFFFF" transform="matrix(1.00, 0.00, -0.00, -1.00, 768.8, 649.1)">}</text><text xml:space="preserve" font-family="FiraMono-Regular,Fira Mono" font-size="42.1" fill="#000000" transform="matrix(1.00, 0.00, -0.00, -1.00, 794.1, 649.1)"> </text><text xml:space="preserve" font-family="FiraMono-Regular,Fira Mono" font-size="42.1" fill="#000000" transform="matrix(1.00, 0.00, -0.00, -1.00, 137.0, 519.1)"> </text><text xml:space="preserve" font-family="FiraMono-Regular,Fira Mono" font-size="42.1" fill="#000000" transform="matrix(1.00, 0.00, -0.00, -1.00, 162.3, 519.1)"> </text><text xml:space="preserve" font-family="FiraMono-Regular,Fira Mono" font-size="42.1" fill="#00F900" transform="matrix(1.00, 0.00, -0.00, -1.00, 187.5, 519.1)">v</text><text xml:space="preserve" font-family="FiraMono-Regular,Fira Mono" font-size="42.1" fill="#00F900" transform="matrix(1.00, 0.00, -0.00, -1.00, 212.8, 519.1)">o</text><text xml:space="preserve" font-family="FiraMono-Regular,Fira Mono" font-size="42.1" fill="#00F900" transform="matrix(1.00, 0.00, -0.00, -1.00, 238.1, 519.1)">i</text><text xml:space="preserve" font-family="FiraMono-Regular,Fira Mono" font-size="42.1" fill="#00F900" transform="matrix(1.00, 0.00, -0.00, -1.00, 263.4, 519.1)">d</text><text xml:space="preserve" font-family="FiraMono-Regular,Fira Mono" font-size="42.1" fill="#000000" transform="matrix(1.00, 0.00, -0.00, -1.00, 288.6, 519.1)"> </text><text xml:space="preserve" font-family="FiraMono-Regular,Fira Mono" font-size="42.1" fill="#FFFFFF" transform="matrix(1.00, 0.00, -0.00, -1.00, 313.9, 519.1)">a</text><text xml:space="preserve" font-family="FiraMono-Regular,Fira Mono" font-size="42.1" fill="#FFFFFF" transform="matrix(1.00, 0.00, -0.00, -1.00, 339.2, 519.1)">d</text><text xml:space="preserve" font-family="FiraMono-Regular,Fira Mono" font-size="42.1" fill="#FFFFFF" transform="matrix(1.00, 0.00, -0.00, -1.00, 364.4, 519.1)">d</text><text xml:space="preserve" font-family="FiraMono-Regular,Fira Mono" font-size="42.1" fill="#FFFFFF" transform="matrix(1.00, 0.00, -0.00, -1.00, 389.7, 519.1)">e</text><text xml:space="preserve" font-family="FiraMono-Regular,Fira Mono" font-size="42.1" fill="#FFFFFF" transform="matrix(1.00, 0.00, -0.00, -1.00, 415.0, 519.1)">d</text><text xml:space="preserve" font-family="FiraMono-Regular,Fira Mono" font-size="42.1" fill="#FFFFFF" transform="matrix(1.00, 0.00, -0.00, -1.00, 440.3, 519.1)">T</text><text xml:space="preserve" font-family="FiraMono-Regular,Fira Mono" font-size="42.1" fill="#FFFFFF" transform="matrix(1.00, 0.00, -0.00, -1.00, 465.5, 519.1)">o</text><text xml:space="preserve" font-family="FiraMono-Regular,Fira Mono" font-size="42.1" fill="#FFFFFF" transform="matrix(1.00, 0.00, -0.00, -1.00, 490.8, 519.1)">B</text><text xml:space="preserve" font-family="FiraMono-Regular,Fira Mono" font-size="42.1" fill="#FFFFFF" transform="matrix(1.00, 0.00, -0.00, -1.00, 516.1, 519.1)">a</text><text xml:space="preserve" font-family="FiraMono-Regular,Fira Mono" font-size="42.1" fill="#FFFFFF" transform="matrix(1.00, 0.00, -0.00, -1.00, 541.4, 519.1)">s</text><text xml:space="preserve" font-family="FiraMono-Regular,Fira Mono" font-size="42.1" fill="#FFFFFF" transform="matrix(1.00, 0.00, -0.00, -1.00, 566.6, 519.1)">k</text><text xml:space="preserve" font-family="FiraMono-Regular,Fira Mono" font-size="42.1" fill="#FFFFFF" transform="matrix(1.00, 0.00, -0.00, -1.00, 591.9, 519.1)">e</text><text xml:space="preserve" font-family="FiraMono-Regular,Fira Mono" font-size="42.1" fill="#FFFFFF" transform="matrix(1.00, 0.00, -0.00, -1.00, 617.2, 519.1)">t</text><text xml:space="preserve" font-family="FiraMono-Regular,Fira Mono" font-size="42.1" fill="#FFFFFF" transform="matrix(1.00, 0.00, -0.00, -1.00, 642.4, 519.1)">(</text><text xml:space="preserve" font-family="FiraMono-Regular,Fira Mono" font-size="42.1" fill="#FFFFFF" transform="matrix(1.00, 0.00, -0.00, -1.00, 667.7, 519.1)">S</text><text xml:space="preserve" font-family="FiraMono-Regular,Fira Mono" font-size="42.1" fill="#FFFFFF" transform="matrix(1.00, 0.00, -0.00, -1.00, 693.0, 519.1)">t</text><text xml:space="preserve" font-family="FiraMono-Regular,Fira Mono" font-size="42.1" fill="#FFFFFF" transform="matrix(1.00, 0.00, -0.00, -1.00, 718.3, 519.1)">r</text><text xml:space="preserve" font-family="FiraMono-Regular,Fira Mono" font-size="42.1" fill="#FFFFFF" transform="matrix(1.00, 0.00, -0.00, -1.00, 743.5, 519.1)">i</text><text xml:space="preserve" font-family="FiraMono-Regular,Fira Mono" font-size="42.1" fill="#FFFFFF" transform="matrix(1.00, 0.00, -0.00, -1.00, 768.8, 519.1)">n</text><text xml:space="preserve" font-family="FiraMono-Regular,Fira Mono" font-size="42.1" fill="#FFFFFF" transform="matrix(1.00, 0.00, -0.00, -1.00, 794.1, 519.1)">g</text><text xml:space="preserve" font-family="FiraMono-Regular,Fira Mono" font-size="42.1" fill="#FFFFFF" transform="matrix(1.00, 0.00, -0.00, -1.00, 819.3, 519.1)"> </text><text xml:space="preserve" font-family="FiraMono-Regular,Fira Mono" font-size="42.1" fill="#FFFFFF" transform="matrix(1.00, 0.00, -0.00, -1.00, 844.6, 519.1)">p</text><text xml:space="preserve" font-family="FiraMono-Regular,Fira Mono" font-size="42.1" fill="#FFFFFF" transform="matrix(1.00, 0.00, -0.00, -1.00, 869.9, 519.1)">r</text><text xml:space="preserve" font-family="FiraMono-Regular,Fira Mono" font-size="42.1" fill="#FFFFFF" transform="matrix(1.00, 0.00, -0.00, -1.00, 895.2, 519.1)">o</text><text xml:space="preserve" font-family="FiraMono-Regular,Fira Mono" font-size="42.1" fill="#FFFFFF" transform="matrix(1.00, 0.00, -0.00, -1.00, 920.4, 519.1)">d</text><text xml:space="preserve" font-family="FiraMono-Regular,Fira Mono" font-size="42.1" fill="#FFFFFF" transform="matrix(1.00, 0.00, -0.00, -1.00, 945.7, 519.1)">u</text><text xml:space="preserve" font-family="FiraMono-Regular,Fira Mono" font-size="42.1" fill="#FFFFFF" transform="matrix(1.00, 0.00, -0.00, -1.00, 971.0, 519.1)">c</text><text xml:space="preserve" font-family="FiraMono-Regular,Fira Mono" font-size="42.1" fill="#FFFFFF" transform="matrix(1.00, 0.00, -0.00, -1.00, 996.2, 519.1)">t</text><text xml:space="preserve" font-family="FiraMono-Regular,Fira Mono" font-size="42.1" fill="#FFFFFF" transform="matrix(1.00, 0.00, -0.00, -1.00, 1021.5, 519.1)">N</text><text xml:space="preserve" font-family="FiraMono-Regular,Fira Mono" font-size="42.1" fill="#FFFFFF" transform="matrix(1.00, 0.00, -0.00, -1.00, 1046.8, 519.1)">a</text><text xml:space="preserve" font-family="FiraMono-Regular,Fira Mono" font-size="42.1" fill="#FFFFFF" transform="matrix(1.00, 0.00, -0.00, -1.00, 1072.1, 519.1)">m</text><text xml:space="preserve" font-family="FiraMono-Regular,Fira Mono" font-size="42.1" fill="#FFFFFF" transform="matrix(1.00, 0.00, -0.00, -1.00, 1097.3, 519.1)">e</text><text xml:space="preserve" font-family="FiraMono-Regular,Fira Mono" font-size="42.1" fill="#FFFFFF" transform="matrix(1.00, 0.00, -0.00, -1.00, 1122.6, 519.1)">)</text><text xml:space="preserve" font-family="FiraMono-Regular,Fira Mono" font-size="42.1" fill="#FFFFFF" transform="matrix(1.00, 0.00, -0.00, -1.00, 1147.9, 519.1)"> </text><text xml:space="preserve" font-family="FiraMono-Regular,Fira Mono" font-size="42.1" fill="#FFFFFF" transform="matrix(1.00, 0.00, -0.00, -1.00, 1173.2, 519.1)">{</text><text xml:space="preserve" font-family="FiraMono-Regular,Fira Mono" font-size="42.1" fill="#FFFFFF" transform="matrix(1.00, 0.00, -0.00, -1.00, 1198.4, 519.1)">}</text><text xml:space="preserve" font-family="FiraMono-Regular,Fira Mono" font-size="42.1" fill="#000000" transform="matrix(1.00, 0.00, -0.00, -1.00, 1223.7, 519.1)"> </text><text xml:space="preserve" font-family="FiraMono-Regular,Fira Mono" font-size="42.1" fill="#000000" transform="matrix(1.00, 0.00, -0.00, -1.00, 137.0, 389.1)"> </text><text xml:space="preserve" font-family="FiraMono-Regular,Fira Mono" font-size="42.1" fill="#000000" transform="matrix(1.00, 0.00, -0.00, -1.00, 162.3, 389.1)"> </text><text xml:space="preserve" font-family="FiraMono-Regular,Fira Mono" font-size="42.1" fill="#00F900" transform="matrix(1.00, 0.00, -0.00, -1.00, 187.5, 389.1)">v</text><text xml:space="preserve" font-family="FiraMono-Regular,Fira Mono" font-size="42.1" fill="#00F900" transform="matrix(1.00, 0.00, -0.00, -1.00, 212.8, 389.1)">o</text><text xml:space="preserve" font-family="FiraMono-Regular,Fira Mono" font-size="42.1" fill="#00F900" transform="matrix(1.00, 0.00, -0.00, -1.00, 238.1, 389.1)">i</text><text xml:space="preserve" font-family="FiraMono-Regular,Fira Mono" font-size="42.1" fill="#00F900" transform="matrix(1.00, 0.00, -0.00, -1.00, 263.4, 389.1)">d</text><text xml:space="preserve" font-family="FiraMono-Regular,Fira Mono" font-size="42.1" fill="#000000" transform="matrix(1.00, 0.00, -0.00, -1.00, 288.6, 389.1)"> </text><text xml:space="preserve" font-family="FiraMono-Regular,Fira Mono" font-size="42.1" fill="#FFFFFF" transform="matrix(1.00, 0.00, -0.00, -1.00, 313.9, 389.1)">c</text><text xml:space="preserve" font-family="FiraMono-Regular,Fira Mono" font-size="42.1" fill="#FFFFFF" transform="matrix(1.00, 0.00, -0.00, -1.00, 339.2, 389.1)">o</text><text xml:space="preserve" font-family="FiraMono-Regular,Fira Mono" font-size="42.1" fill="#FFFFFF" transform="matrix(1.00, 0.00, -0.00, -1.00, 364.4, 389.1)">m</text><text xml:space="preserve" font-family="FiraMono-Regular,Fira Mono" font-size="42.1" fill="#FFFFFF" transform="matrix(1.00, 0.00, -0.00, -1.00, 389.7, 389.1)">p</text><text xml:space="preserve" font-family="FiraMono-Regular,Fira Mono" font-size="42.1" fill="#FFFFFF" transform="matrix(1.00, 0.00, -0.00, -1.00, 415.0, 389.1)">l</text><text xml:space="preserve" font-family="FiraMono-Regular,Fira Mono" font-size="42.1" fill="#FFFFFF" transform="matrix(1.00, 0.00, -0.00, -1.00, 440.3, 389.1)">e</text><text xml:space="preserve" font-family="FiraMono-Regular,Fira Mono" font-size="42.1" fill="#FFFFFF" transform="matrix(1.00, 0.00, -0.00, -1.00, 465.5, 389.1)">t</text><text xml:space="preserve" font-family="FiraMono-Regular,Fira Mono" font-size="42.1" fill="#FFFFFF" transform="matrix(1.00, 0.00, -0.00, -1.00, 490.8, 389.1)">e</text><text xml:space="preserve" font-family="FiraMono-Regular,Fira Mono" font-size="42.1" fill="#FFFFFF" transform="matrix(1.00, 0.00, -0.00, -1.00, 516.1, 389.1)">C</text><text xml:space="preserve" font-family="FiraMono-Regular,Fira Mono" font-size="42.1" fill="#FFFFFF" transform="matrix(1.00, 0.00, -0.00, -1.00, 541.4, 389.1)">h</text><text xml:space="preserve" font-family="FiraMono-Regular,Fira Mono" font-size="42.1" fill="#FFFFFF" transform="matrix(1.00, 0.00, -0.00, -1.00, 566.6, 389.1)">e</text><text xml:space="preserve" font-family="FiraMono-Regular,Fira Mono" font-size="42.1" fill="#FFFFFF" transform="matrix(1.00, 0.00, -0.00, -1.00, 591.9, 389.1)">c</text><text xml:space="preserve" font-family="FiraMono-Regular,Fira Mono" font-size="42.1" fill="#FFFFFF" transform="matrix(1.00, 0.00, -0.00, -1.00, 617.2, 389.1)">k</text><text xml:space="preserve" font-family="FiraMono-Regular,Fira Mono" font-size="42.1" fill="#FFFFFF" transform="matrix(1.00, 0.00, -0.00, -1.00, 642.4, 389.1)">o</text><text xml:space="preserve" font-family="FiraMono-Regular,Fira Mono" font-size="42.1" fill="#FFFFFF" transform="matrix(1.00, 0.00, -0.00, -1.00, 667.7, 389.1)">u</text><text xml:space="preserve" font-family="FiraMono-Regular,Fira Mono" font-size="42.1" fill="#FFFFFF" transform="matrix(1.00, 0.00, -0.00, -1.00, 693.0, 389.1)">t</text><text xml:space="preserve" font-family="FiraMono-Regular,Fira Mono" font-size="42.1" fill="#FFFFFF" transform="matrix(1.00, 0.00, -0.00, -1.00, 718.3, 389.1)">(</text><text xml:space="preserve" font-family="FiraMono-Regular,Fira Mono" font-size="42.1" fill="#FFFFFF" transform="matrix(1.00, 0.00, -0.00, -1.00, 743.5, 389.1)">u</text><text xml:space="preserve" font-family="FiraMono-Regular,Fira Mono" font-size="42.1" fill="#FFFFFF" transform="matrix(1.00, 0.00, -0.00, -1.00, 768.8, 389.1)">s</text><text xml:space="preserve" font-family="FiraMono-Regular,Fira Mono" font-size="42.1" fill="#FFFFFF" transform="matrix(1.00, 0.00, -0.00, -1.00, 794.1, 389.1)">e</text><text xml:space="preserve" font-family="FiraMono-Regular,Fira Mono" font-size="42.1" fill="#FFFFFF" transform="matrix(1.00, 0.00, -0.00, -1.00, 819.3, 389.1)">r</text><text xml:space="preserve" font-family="FiraMono-Regular,Fira Mono" font-size="42.1" fill="#FFFFFF" transform="matrix(1.00, 0.00, -0.00, -1.00, 844.6, 389.1)">)</text><text xml:space="preserve" font-family="FiraMono-Regular,Fira Mono" font-size="42.1" fill="#FFFFFF" transform="matrix(1.00, 0.00, -0.00, -1.00, 869.9, 389.1)"> </text><text xml:space="preserve" font-family="FiraMono-Regular,Fira Mono" font-size="42.1" fill="#FFFFFF" transform="matrix(1.00, 0.00, -0.00, -1.00, 895.2, 389.1)">{</text><text xml:space="preserve" font-family="FiraMono-Regular,Fira Mono" font-size="42.1" fill="#FFFFFF" transform="matrix(1.00, 0.00, -0.00, -1.00, 920.4, 389.1)">}</text><text xml:space="preserve" font-family="FiraMono-Regular,Fira Mono" font-size="42.1" fill="#000000" transform="matrix(1.00, 0.00, -0.00, -1.00, 945.7, 389.1)"> </text><text xml:space="preserve" font-family="FiraMono-Regular,Fira Mono" font-size="42.1" fill="#FFFFFF" transform="matrix(1.00, 0.00, -0.00, -1.00, 137.0, 324.1)">}</text><text xml:space="preserve" font-family="FiraMono-Regular,Fira Mono" font-size="42.1" fill="#000000" transform="matrix(1.00, 0.00, -0.00, -1.00, 162.3, 324.1)"> </text><text xml:space="preserve" font-family="FiraMono-Regular,Fira Mono" font-size="42.1" fill="#C07B1E" transform="matrix(1.00, 0.00, -0.00, -1.00, 137.0, 194.1)">@</text><text xml:space="preserve" font-family="FiraMono-Regular,Fira Mono" font-size="42.1" fill="#C07B1E" transform="matrix(1.00, 0.00, -0.00, -1.00, 162.3, 194.1)">M</text><text xml:space="preserve" font-family="FiraMono-Regular,Fira Mono" font-size="42.1" fill="#C07B1E" transform="matrix(1.00, 0.00, -0.00, -1.00, 187.5, 194.1)">i</text><text xml:space="preserve" font-family="FiraMono-Regular,Fira Mono" font-size="42.1" fill="#C07B1E" transform="matrix(1.00, 0.00, -0.00, -1.00, 212.8, 194.1)">x</text><text xml:space="preserve" font-family="FiraMono-Regular,Fira Mono" font-size="42.1" fill="#C07B1E" transform="matrix(1.00, 0.00, -0.00, -1.00, 238.1, 194.1)">i</text><text xml:space="preserve" font-family="FiraMono-Regular,Fira Mono" font-size="42.1" fill="#C07B1E" transform="matrix(1.00, 0.00, -0.00, -1.00, 263.4, 194.1)">n</text><text xml:space="preserve" font-family="FiraMono-Regular,Fira Mono" font-size="42.1" fill="#FFFFFF" transform="matrix(1.00, 0.00, -0.00, -1.00, 288.6, 194.1)">(</text><text xml:space="preserve" font-family="FiraMono-Regular,Fira Mono" font-size="42.1" fill="#FFFFFF" transform="matrix(1.00, 0.00, -0.00, -1.00, 313.9, 194.1)">S</text><text xml:space="preserve" font-family="FiraMono-Regular,Fira Mono" font-size="42.1" fill="#FFFFFF" transform="matrix(1.00, 0.00, -0.00, -1.00, 339.2, 194.1)">t</text><text xml:space="preserve" font-family="FiraMono-Regular,Fira Mono" font-size="42.1" fill="#FFFFFF" transform="matrix(1.00, 0.00, -0.00, -1.00, 364.4, 194.1)">o</text><text xml:space="preserve" font-family="FiraMono-Regular,Fira Mono" font-size="42.1" fill="#FFFFFF" transform="matrix(1.00, 0.00, -0.00, -1.00, 389.7, 194.1)">r</text><text xml:space="preserve" font-family="FiraMono-Regular,Fira Mono" font-size="42.1" fill="#FFFFFF" transform="matrix(1.00, 0.00, -0.00, -1.00, 415.0, 194.1)">e</text><text xml:space="preserve" font-family="FiraMono-Regular,Fira Mono" font-size="42.1" fill="#FFFFFF" transform="matrix(1.00, 0.00, -0.00, -1.00, 440.3, 194.1)">I</text><text xml:space="preserve" font-family="FiraMono-Regular,Fira Mono" font-size="42.1" fill="#FFFFFF" transform="matrix(1.00, 0.00, -0.00, -1.00, 465.5, 194.1)">n</text><text xml:space="preserve" font-family="FiraMono-Regular,Fira Mono" font-size="42.1" fill="#FFFFFF" transform="matrix(1.00, 0.00, -0.00, -1.00, 490.8, 194.1)">t</text><text xml:space="preserve" font-family="FiraMono-Regular,Fira Mono" font-size="42.1" fill="#FFFFFF" transform="matrix(1.00, 0.00, -0.00, -1.00, 516.1, 194.1)">e</text><text xml:space="preserve" font-family="FiraMono-Regular,Fira Mono" font-size="42.1" fill="#FFFFFF" transform="matrix(1.00, 0.00, -0.00, -1.00, 541.4, 194.1)">r</text><text xml:space="preserve" font-family="FiraMono-Regular,Fira Mono" font-size="42.1" fill="#FFFFFF" transform="matrix(1.00, 0.00, -0.00, -1.00, 566.6, 194.1)">a</text><text xml:space="preserve" font-family="FiraMono-Regular,Fira Mono" font-size="42.1" fill="#FFFFFF" transform="matrix(1.00, 0.00, -0.00, -1.00, 591.9, 194.1)">c</text><text xml:space="preserve" font-family="FiraMono-Regular,Fira Mono" font-size="42.1" fill="#FFFFFF" transform="matrix(1.00, 0.00, -0.00, -1.00, 617.2, 194.1)">t</text><text xml:space="preserve" font-family="FiraMono-Regular,Fira Mono" font-size="42.1" fill="#FFFFFF" transform="matrix(1.00, 0.00, -0.00, -1.00, 642.4, 194.1)">i</text><text xml:space="preserve" font-family="FiraMono-Regular,Fira Mono" font-size="42.1" fill="#FFFFFF" transform="matrix(1.00, 0.00, -0.00, -1.00, 667.7, 194.1)">o</text><text xml:space="preserve" font-family="FiraMono-Regular,Fira Mono" font-size="42.1" fill="#FFFFFF" transform="matrix(1.00, 0.00, -0.00, -1.00, 693.0, 194.1)">n</text><text xml:space="preserve" font-family="FiraMono-Regular,Fira Mono" font-size="42.1" fill="#FFFFFF" transform="matrix(1.00, 0.00, -0.00, -1.00, 718.3, 194.1)">s</text><text xml:space="preserve" font-family="FiraMono-Regular,Fira Mono" font-size="42.1" fill="#FFFFFF" transform="matrix(1.00, 0.00, -0.00, -1.00, 743.5, 194.1)">)</text><text xml:space="preserve" font-family="FiraMono-Regular,Fira Mono" font-size="42.1" fill="#000000" transform="matrix(1.00, 0.00, -0.00, -1.00, 768.8, 194.1)"> </text><text xml:space="preserve" font-family="FiraMono-Regular,Fira Mono" font-size="42.1" fill="#C07B1E" transform="matrix(1.00, 0.00, -0.00, -1.00, 137.0, 129.1)">c</text><text xml:space="preserve" font-family="FiraMono-Regular,Fira Mono" font-size="42.1" fill="#C07B1E" transform="matrix(1.00, 0.00, -0.00, -1.00, 162.3, 129.1)">l</text><text xml:space="preserve" font-family="FiraMono-Regular,Fira Mono" font-size="42.1" fill="#C07B1E" transform="matrix(1.00, 0.00, -0.00, -1.00, 187.5, 129.1)">a</text><text xml:space="preserve" font-family="FiraMono-Regular,Fira Mono" font-size="42.1" fill="#C07B1E" transform="matrix(1.00, 0.00, -0.00, -1.00, 212.8, 129.1)">s</text><text xml:space="preserve" font-family="FiraMono-Regular,Fira Mono" font-size="42.1" fill="#C07B1E" transform="matrix(1.00, 0.00, -0.00, -1.00, 238.1, 129.1)">s</text><text xml:space="preserve" font-family="FiraMono-Regular,Fira Mono" font-size="42.1" fill="#000000" transform="matrix(1.00, 0.00, -0.00, -1.00, 263.4, 129.1)"> </text><text xml:space="preserve" font-family="FiraMono-Regular,Fira Mono" font-size="42.1" fill="#FFFFFF" transform="matrix(1.00, 0.00, -0.00, -1.00, 288.6, 129.1)">C</text><text xml:space="preserve" font-family="FiraMono-Regular,Fira Mono" font-size="42.1" fill="#FFFFFF" transform="matrix(1.00, 0.00, -0.00, -1.00, 313.9, 129.1)">h</text><text xml:space="preserve" font-family="FiraMono-Regular,Fira Mono" font-size="42.1" fill="#FFFFFF" transform="matrix(1.00, 0.00, -0.00, -1.00, 339.2, 129.1)">e</text><text xml:space="preserve" font-family="FiraMono-Regular,Fira Mono" font-size="42.1" fill="#FFFFFF" transform="matrix(1.00, 0.00, -0.00, -1.00, 364.4, 129.1)">c</text><text xml:space="preserve" font-family="FiraMono-Regular,Fira Mono" font-size="42.1" fill="#FFFFFF" transform="matrix(1.00, 0.00, -0.00, -1.00, 389.7, 129.1)">k</text><text xml:space="preserve" font-family="FiraMono-Regular,Fira Mono" font-size="42.1" fill="#FFFFFF" transform="matrix(1.00, 0.00, -0.00, -1.00, 415.0, 129.1)">o</text><text xml:space="preserve" font-family="FiraMono-Regular,Fira Mono" font-size="42.1" fill="#FFFFFF" transform="matrix(1.00, 0.00, -0.00, -1.00, 440.3, 129.1)">u</text><text xml:space="preserve" font-family="FiraMono-Regular,Fira Mono" font-size="42.1" fill="#FFFFFF" transform="matrix(1.00, 0.00, -0.00, -1.00, 465.5, 129.1)">t</text><text xml:space="preserve" font-family="FiraMono-Regular,Fira Mono" font-size="42.1" fill="#FFFFFF" transform="matrix(1.00, 0.00, -0.00, -1.00, 490.8, 129.1)">S</text><text xml:space="preserve" font-family="FiraMono-Regular,Fira Mono" font-size="42.1" fill="#FFFFFF" transform="matrix(1.00, 0.00, -0.00, -1.00, 516.1, 129.1)">p</text><text xml:space="preserve" font-family="FiraMono-Regular,Fira Mono" font-size="42.1" fill="#FFFFFF" transform="matrix(1.00, 0.00, -0.00, -1.00, 541.4, 129.1)">e</text><text xml:space="preserve" font-family="FiraMono-Regular,Fira Mono" font-size="42.1" fill="#FFFFFF" transform="matrix(1.00, 0.00, -0.00, -1.00, 566.6, 129.1)">c</text><text xml:space="preserve" font-family="FiraMono-Regular,Fira Mono" font-size="42.1" fill="#000000" transform="matrix(1.00, 0.00, -0.00, -1.00, 591.9, 129.1)"> </text><text xml:space="preserve" font-family="FiraMono-Regular,Fira Mono" font-size="42.1" fill="#C07B1E" transform="matrix(1.00, 0.00, -0.00, -1.00, 617.2, 129.1)">e</text><text xml:space="preserve" font-family="FiraMono-Regular,Fira Mono" font-size="42.1" fill="#C07B1E" transform="matrix(1.00, 0.00, -0.00, -1.00, 642.4, 129.1)">x</text><text xml:space="preserve" font-family="FiraMono-Regular,Fira Mono" font-size="42.1" fill="#C07B1E" transform="matrix(1.00, 0.00, -0.00, -1.00, 667.7, 129.1)">t</text><text xml:space="preserve" font-family="FiraMono-Regular,Fira Mono" font-size="42.1" fill="#C07B1E" transform="matrix(1.00, 0.00, -0.00, -1.00, 693.0, 129.1)">e</text><text xml:space="preserve" font-family="FiraMono-Regular,Fira Mono" font-size="42.1" fill="#C07B1E" transform="matrix(1.00, 0.00, -0.00, -1.00, 718.3, 129.1)">n</text><text xml:space="preserve" font-family="FiraMono-Regular,Fira Mono" font-size="42.1" fill="#C07B1E" transform="matrix(1.00, 0.00, -0.00, -1.00, 743.5, 129.1)">d</text><text xml:space="preserve" font-family="FiraMono-Regular,Fira Mono" font-size="42.1" fill="#C07B1E" transform="matrix(1.00, 0.00, -0.00, -1.00, 768.8, 129.1)">s</text><text xml:space="preserve" font-family="FiraMono-Regular,Fira Mono" font-size="42.1" fill="#000000" transform="matrix(1.00, 0.00, -0.00, -1.00, 794.1, 129.1)"> </text><text xml:space="preserve" font-family="FiraMono-Regular,Fira Mono" font-size="42.1" fill="#FFFFFF" transform="matrix(1.00, 0.00, -0.00, -1.00, 819.3, 129.1)">G</text><text xml:space="preserve" font-family="FiraMono-Regular,Fira Mono" font-size="42.1" fill="#FFFFFF" transform="matrix(1.00, 0.00, -0.00, -1.00, 844.6, 129.1)">e</text><text xml:space="preserve" font-family="FiraMono-Regular,Fira Mono" font-size="42.1" fill="#FFFFFF" transform="matrix(1.00, 0.00, -0.00, -1.00, 869.9, 129.1)">b</text><text xml:space="preserve" font-family="FiraMono-Regular,Fira Mono" font-size="42.1" fill="#FFFFFF" transform="matrix(1.00, 0.00, -0.00, -1.00, 895.2, 129.1)">S</text><text xml:space="preserve" font-family="FiraMono-Regular,Fira Mono" font-size="42.1" fill="#FFFFFF" transform="matrix(1.00, 0.00, -0.00, -1.00, 920.4, 129.1)">p</text><text xml:space="preserve" font-family="FiraMono-Regular,Fira Mono" font-size="42.1" fill="#FFFFFF" transform="matrix(1.00, 0.00, -0.00, -1.00, 945.7, 129.1)">e</text><text xml:space="preserve" font-family="FiraMono-Regular,Fira Mono" font-size="42.1" fill="#FFFFFF" transform="matrix(1.00, 0.00, -0.00, -1.00, 971.0, 129.1)">c</text><text xml:space="preserve" font-family="FiraMono-Regular,Fira Mono" font-size="42.1" fill="#000000" transform="matrix(1.00, 0.00, -0.00, -1.00, 996.2, 129.1)"> </text><text xml:space="preserve" font-family="FiraMono-Regular,Fira Mono" font-size="42.1" fill="#FFFFFF" transform="matrix(1.00, 0.00, -0.00, -1.00, 1021.5, 129.1)">{</text><text xml:space="preserve" font-family="FiraMono-Regular,Fira Mono" font-size="42.1" fill="#FFFFFF" transform="matrix(1.00, 0.00, -0.00, -1.00, 1046.8, 129.1)">}</text></g></svg>