<?xml version="1.0" encoding="UTF-8" standalone="no"?><svg xmlns="http://www.w3.org/2000/svg" xmlns:xlink="http://www.w3.org/1999/xlink" clip-rule="evenodd" stroke-miterlimit="10" viewBox="0 0 1920 1080"><desc>SVG generated by Keynote</desc><defs></defs><g transform="matrix(1.00, 0.00, -0.00, -1.00, 0.0, 1080.0)"><g><clipPath id="clip0x7f83f2c43030"><path d="M 0.0 1080.0 L 1920.0 1080.0 L 1920.0 0.0 L 0.0 0.0 Z M 0.0 1080.0 "></path></clipPath><g clip-path="url(#clip0x7f83f2c43030)"><image xlink:href="../../BF7430C7-5211-4E68-B118-AC68FDB76F0F/assets/A81AF0278930B93F47F55E5BB6D3A023.png" width="1920.00" height="1080.00" transform="matrix(1.00, 0.00, -0.00, -1.00, 0.0, 1080.0)"></image></g></g><text xml:space="preserve" font-family="HorizonBT-Regular,Horizon BT" font-size="128.0" fill="#FFD941" transform="matrix(1.00, 0.00, -0.00, -1.00, 381.1, 917.2)">M</text><text xml:space="preserve" font-family="HorizonBT-Regular,Horizon BT" font-size="128.0" fill="#FFD941" transform="matrix(1.00, 0.00, -0.00, -1.00, 456.7, 917.2)">U</text><text xml:space="preserve" font-family="HorizonBT-Regular,Horizon BT" font-size="128.0" fill="#FFD941" transform="matrix(1.00, 0.00, -0.00, -1.00, 507.4, 917.2)">L</text><text xml:space="preserve" font-family="HorizonBT-Regular,Horizon BT" font-size="128.0" fill="#FFD941" transform="matrix(1.00, 0.00, -0.00, -1.00, 541.2, 917.2)">T</text><text xml:space="preserve" font-family="HorizonBT-Regular,Horizon BT" font-size="128.0" fill="#FFD941" transform="matrix(1.00, 0.00, -0.00, -1.00, 586.3, 917.2)">I</text><text xml:space="preserve" font-family="HorizonBT-Regular,Horizon BT" font-size="128.0" fill="#FFD941" transform="matrix(1.00, 0.00, -0.00, -1.00, 611.7, 917.2)">P</text><text xml:space="preserve" font-family="HorizonBT-Regular,Horizon BT" font-size="128.0" fill="#FFD941" transform="matrix(1.00, 0.00, -0.00, -1.00, 660.9, 917.2)">L</text><text xml:space="preserve" font-family="HorizonBT-Regular,Horizon BT" font-size="128.0" fill="#FFD941" transform="matrix(1.00, 0.00, -0.00, -1.00, 701.7, 917.2)">E</text><text xml:space="preserve" font-family="HorizonBT-Regular,Horizon BT" font-size="128.0" fill="#FFD941" transform="matrix(1.00, 0.00, -0.00, -1.00, 745.9, 917.2)"> </text><text xml:space="preserve" font-family="HorizonBT-Regular,Horizon BT" font-size="128.0" fill="#FFD941" transform="matrix(1.00, 0.00, -0.00, -1.00, 771.3, 917.2)">W</text><text xml:space="preserve" font-family="HorizonBT-Regular,Horizon BT" font-size="128.0" fill="#FFD941" transform="matrix(1.00, 0.00, -0.00, -1.00, 846.9, 917.2)">H</text><text xml:space="preserve" font-family="HorizonBT-Regular,Horizon BT" font-size="128.0" fill="#FFD941" transform="matrix(1.00, 0.00, -0.00, -1.00, 897.6, 917.2)">E</text><text xml:space="preserve" font-family="HorizonBT-Regular,Horizon BT" font-size="128.0" fill="#FFD941" transform="matrix(1.00, 0.00, -0.00, -1.00, 941.8, 917.2)">N</text><text xml:space="preserve" font-family="HorizonBT-Regular,Horizon BT" font-size="128.0" fill="#FFD941" transform="matrix(1.00, 0.00, -0.00, -1.00, 992.5, 917.2)">/</text><text xml:space="preserve" font-family="HorizonBT-Regular,Horizon BT" font-size="128.0" fill="#FFD941" transform="matrix(1.00, 0.00, -0.00, -1.00, 1029.0, 917.2)">T</text><text xml:space="preserve" font-family="HorizonBT-Regular,Horizon BT" font-size="128.0" fill="#FFD941" transform="matrix(1.00, 0.00, -0.00, -1.00, 1074.1, 917.2)">H</text><text xml:space="preserve" font-family="HorizonBT-Regular,Horizon BT" font-size="128.0" fill="#FFD941" transform="matrix(1.00, 0.00, -0.00, -1.00, 1124.8, 917.2)">E</text><text xml:space="preserve" font-family="HorizonBT-Regular,Horizon BT" font-size="128.0" fill="#FFD941" transform="matrix(1.00, 0.00, -0.00, -1.00, 1169.0, 917.2)">N</text><text xml:space="preserve" font-family="HorizonBT-Regular,Horizon BT" font-size="128.0" fill="#FFD941" transform="matrix(1.00, 0.00, -0.00, -1.00, 1219.7, 917.2)"> </text><text xml:space="preserve" font-family="HorizonBT-Regular,Horizon BT" font-size="128.0" fill="#FFD941" transform="matrix(1.00, 0.00, -0.00, -1.00, 1245.1, 917.2)">B</text><text xml:space="preserve" font-family="HorizonBT-Regular,Horizon BT" font-size="128.0" fill="#FFD941" transform="matrix(1.00, 0.00, -0.00, -1.00, 1295.7, 917.2)">L</text><text xml:space="preserve" font-family="HorizonBT-Regular,Horizon BT" font-size="128.0" fill="#FFD941" transform="matrix(1.00, 0.00, -0.00, -1.00, 1336.4, 917.2)">O</text><text xml:space="preserve" font-family="HorizonBT-Regular,Horizon BT" font-size="128.0" fill="#FFD941" transform="matrix(1.00, 0.00, -0.00, -1.00, 1386.9, 917.2)">C</text><text xml:space="preserve" font-family="HorizonBT-Regular,Horizon BT" font-size="128.0" fill="#FFD941" transform="matrix(1.00, 0.00, -0.00, -1.00, 1437.3, 917.2)">K</text><text xml:space="preserve" font-family="HorizonBT-Regular,Horizon BT" font-size="128.0" fill="#FFD941" transform="matrix(1.00, 0.00, -0.00, -1.00, 1488.5, 917.2)">S</text><text xml:space="preserve" font-family="FiraMono-Regular,Fira Mono" font-size="32.8" fill="#FFFFFF" transform="matrix(1.00, 0.00, -0.00, -1.00, 137.0, 782.4)">g</text><text xml:space="preserve" font-family="FiraMono-Regular,Fira Mono" font-size="32.8" fill="#FFFFFF" transform="matrix(1.00, 0.00, -0.00, -1.00, 156.7, 782.4)">i</text><text xml:space="preserve" font-family="FiraMono-Regular,Fira Mono" font-size="32.8" fill="#FFFFFF" transform="matrix(1.00, 0.00, -0.00, -1.00, 176.3, 782.4)">v</text><text xml:space="preserve" font-family="FiraMono-Regular,Fira Mono" font-size="32.8" fill="#FFFFFF" transform="matrix(1.00, 0.00, -0.00, -1.00, 196.0, 782.4)">e</text><text xml:space="preserve" font-family="FiraMono-Regular,Fira Mono" font-size="32.8" fill="#FFFFFF" transform="matrix(1.00, 0.00, -0.00, -1.00, 215.6, 782.4)">n</text><text xml:space="preserve" font-family="FiraMono-Regular,Fira Mono" font-size="32.8" fill="#FFFFFF" transform="matrix(1.00, 0.00, -0.00, -1.00, 235.3, 782.4)">:</text><text xml:space="preserve" font-family="FiraMono-Regular,Fira Mono" font-size="32.8" fill="#000000" transform="matrix(1.00, 0.00, -0.00, -1.00, 254.9, 782.4)"> </text><text xml:space="preserve" font-family="FiraMono-Regular,Fira Mono" font-size="32.8" fill="#C07B1E" transform="matrix(1.00, 0.00, -0.00, -1.00, 137.0, 732.4)">d</text><text xml:space="preserve" font-family="FiraMono-Regular,Fira Mono" font-size="32.8" fill="#C07B1E" transform="matrix(1.00, 0.00, -0.00, -1.00, 156.7, 732.4)">e</text><text xml:space="preserve" font-family="FiraMono-Regular,Fira Mono" font-size="32.8" fill="#C07B1E" transform="matrix(1.00, 0.00, -0.00, -1.00, 176.3, 732.4)">f</text><text xml:space="preserve" font-family="FiraMono-Regular,Fira Mono" font-size="32.8" fill="#000000" transform="matrix(1.00, 0.00, -0.00, -1.00, 196.0, 732.4)"> </text><text xml:space="preserve" font-family="FiraMono-Regular,Fira Mono" font-size="32.8" fill="#FFFFFF" transform="matrix(1.00, 0.00, -0.00, -1.00, 215.6, 732.4)">s</text><text xml:space="preserve" font-family="FiraMono-Regular,Fira Mono" font-size="32.8" fill="#FFFFFF" transform="matrix(1.00, 0.00, -0.00, -1.00, 235.3, 732.4)">t</text><text xml:space="preserve" font-family="FiraMono-Regular,Fira Mono" font-size="32.8" fill="#FFFFFF" transform="matrix(1.00, 0.00, -0.00, -1.00, 254.9, 732.4)">a</text><text xml:space="preserve" font-family="FiraMono-Regular,Fira Mono" font-size="32.8" fill="#FFFFFF" transform="matrix(1.00, 0.00, -0.00, -1.00, 274.6, 732.4)">c</text><text xml:space="preserve" font-family="FiraMono-Regular,Fira Mono" font-size="32.8" fill="#FFFFFF" transform="matrix(1.00, 0.00, -0.00, -1.00, 294.2, 732.4)">k</text><text xml:space="preserve" font-family="FiraMono-Regular,Fira Mono" font-size="32.8" fill="#000000" transform="matrix(1.00, 0.00, -0.00, -1.00, 313.9, 732.4)"> </text><text xml:space="preserve" font-family="FiraMono-Regular,Fira Mono" font-size="32.8" fill="#FFFFFF" transform="matrix(1.00, 0.00, -0.00, -1.00, 333.6, 732.4)">=</text><text xml:space="preserve" font-family="FiraMono-Regular,Fira Mono" font-size="32.8" fill="#000000" transform="matrix(1.00, 0.00, -0.00, -1.00, 353.2, 732.4)"> </text><text xml:space="preserve" font-family="FiraMono-Regular,Fira Mono" font-size="32.8" fill="#C07B1E" transform="matrix(1.00, 0.00, -0.00, -1.00, 372.9, 732.4)">n</text><text xml:space="preserve" font-family="FiraMono-Regular,Fira Mono" font-size="32.8" fill="#C07B1E" transform="matrix(1.00, 0.00, -0.00, -1.00, 392.5, 732.4)">e</text><text xml:space="preserve" font-family="FiraMono-Regular,Fira Mono" font-size="32.8" fill="#C07B1E" transform="matrix(1.00, 0.00, -0.00, -1.00, 412.2, 732.4)">w</text><text xml:space="preserve" font-family="FiraMono-Regular,Fira Mono" font-size="32.8" fill="#000000" transform="matrix(1.00, 0.00, -0.00, -1.00, 431.8, 732.4)"> </text><text xml:space="preserve" font-family="FiraMono-Regular,Fira Mono" font-size="32.8" fill="#FFFFFF" transform="matrix(1.00, 0.00, -0.00, -1.00, 451.5, 732.4)">S</text><text xml:space="preserve" font-family="FiraMono-Regular,Fira Mono" font-size="32.8" fill="#FFFFFF" transform="matrix(1.00, 0.00, -0.00, -1.00, 471.2, 732.4)">t</text><text xml:space="preserve" font-family="FiraMono-Regular,Fira Mono" font-size="32.8" fill="#FFFFFF" transform="matrix(1.00, 0.00, -0.00, -1.00, 490.8, 732.4)">a</text><text xml:space="preserve" font-family="FiraMono-Regular,Fira Mono" font-size="32.8" fill="#FFFFFF" transform="matrix(1.00, 0.00, -0.00, -1.00, 510.5, 732.4)">c</text><text xml:space="preserve" font-family="FiraMono-Regular,Fira Mono" font-size="32.8" fill="#FFFFFF" transform="matrix(1.00, 0.00, -0.00, -1.00, 530.1, 732.4)">k</text><text xml:space="preserve" font-family="FiraMono-Regular,Fira Mono" font-size="32.8" fill="#FFFFFF" transform="matrix(1.00, 0.00, -0.00, -1.00, 549.8, 732.4)">(</text><text xml:space="preserve" font-family="FiraMono-Regular,Fira Mono" font-size="32.8" fill="#FFFFFF" transform="matrix(1.00, 0.00, -0.00, -1.00, 569.4, 732.4)">)</text><text xml:space="preserve" font-family="FiraMono-Regular,Fira Mono" font-size="32.8" fill="#000000" transform="matrix(1.00, 0.00, -0.00, -1.00, 589.1, 732.4)"> </text><text xml:space="preserve" font-family="FiraMono-Regular,Fira Mono" font-size="32.8" fill="#FFFFFF" transform="matrix(1.00, 0.00, -0.00, -1.00, 137.0, 632.4)">w</text><text xml:space="preserve" font-family="FiraMono-Regular,Fira Mono" font-size="32.8" fill="#FFFFFF" transform="matrix(1.00, 0.00, -0.00, -1.00, 156.7, 632.4)">h</text><text xml:space="preserve" font-family="FiraMono-Regular,Fira Mono" font-size="32.8" fill="#FFFFFF" transform="matrix(1.00, 0.00, -0.00, -1.00, 176.3, 632.4)">e</text><text xml:space="preserve" font-family="FiraMono-Regular,Fira Mono" font-size="32.8" fill="#FFFFFF" transform="matrix(1.00, 0.00, -0.00, -1.00, 196.0, 632.4)">n</text><text xml:space="preserve" font-family="FiraMono-Regular,Fira Mono" font-size="32.8" fill="#FFFFFF" transform="matrix(1.00, 0.00, -0.00, -1.00, 215.6, 632.4)">:</text><text xml:space="preserve" font-family="FiraMono-Regular,Fira Mono" font-size="32.8" fill="#000000" transform="matrix(1.00, 0.00, -0.00, -1.00, 235.3, 632.4)"> </text><text xml:space="preserve" font-family="FiraMono-Regular,Fira Mono" font-size="32.8" fill="#FFFFFF" transform="matrix(1.00, 0.00, -0.00, -1.00, 137.0, 582.4)">s</text><text xml:space="preserve" font-family="FiraMono-Regular,Fira Mono" font-size="32.8" fill="#FFFFFF" transform="matrix(1.00, 0.00, -0.00, -1.00, 156.7, 582.4)">t</text><text xml:space="preserve" font-family="FiraMono-Regular,Fira Mono" font-size="32.8" fill="#FFFFFF" transform="matrix(1.00, 0.00, -0.00, -1.00, 176.3, 582.4)">a</text><text xml:space="preserve" font-family="FiraMono-Regular,Fira Mono" font-size="32.8" fill="#FFFFFF" transform="matrix(1.00, 0.00, -0.00, -1.00, 196.0, 582.4)">c</text><text xml:space="preserve" font-family="FiraMono-Regular,Fira Mono" font-size="32.8" fill="#FFFFFF" transform="matrix(1.00, 0.00, -0.00, -1.00, 215.6, 582.4)">k</text><text xml:space="preserve" font-family="FiraMono-Regular,Fira Mono" font-size="32.8" fill="#FFFFFF" transform="matrix(1.00, 0.00, -0.00, -1.00, 235.3, 582.4)">.</text><text xml:space="preserve" font-family="FiraMono-Regular,Fira Mono" font-size="32.8" fill="#FFFFFF" transform="matrix(1.00, 0.00, -0.00, -1.00, 254.9, 582.4)">p</text><text xml:space="preserve" font-family="FiraMono-Regular,Fira Mono" font-size="32.8" fill="#FFFFFF" transform="matrix(1.00, 0.00, -0.00, -1.00, 274.6, 582.4)">u</text><text xml:space="preserve" font-family="FiraMono-Regular,Fira Mono" font-size="32.8" fill="#FFFFFF" transform="matrix(1.00, 0.00, -0.00, -1.00, 294.2, 582.4)">s</text><text xml:space="preserve" font-family="FiraMono-Regular,Fira Mono" font-size="32.8" fill="#FFFFFF" transform="matrix(1.00, 0.00, -0.00, -1.00, 313.9, 582.4)">h</text><text xml:space="preserve" font-family="FiraMono-Regular,Fira Mono" font-size="32.8" fill="#000000" transform="matrix(1.00, 0.00, -0.00, -1.00, 333.6, 582.4)"> </text><text xml:space="preserve" font-family="FiraMono-Regular,Fira Mono" font-size="32.8" fill="#FF2600" transform="matrix(1.00, 0.00, -0.00, -1.00, 353.2, 582.4)">"</text><text xml:space="preserve" font-family="FiraMono-Regular,Fira Mono" font-size="32.8" fill="#FF2600" transform="matrix(1.00, 0.00, -0.00, -1.00, 372.9, 582.4)">f</text><text xml:space="preserve" font-family="FiraMono-Regular,Fira Mono" font-size="32.8" fill="#FF2600" transform="matrix(1.00, 0.00, -0.00, -1.00, 392.5, 582.4)">o</text><text xml:space="preserve" font-family="FiraMono-Regular,Fira Mono" font-size="32.8" fill="#FF2600" transform="matrix(1.00, 0.00, -0.00, -1.00, 412.2, 582.4)">o</text><text xml:space="preserve" font-family="FiraMono-Regular,Fira Mono" font-size="32.8" fill="#FF2600" transform="matrix(1.00, 0.00, -0.00, -1.00, 431.8, 582.4)">"</text><text xml:space="preserve" font-family="FiraMono-Regular,Fira Mono" font-size="32.8" fill="#FFFFFF" transform="matrix(1.00, 0.00, -0.00, -1.00, 451.5, 582.4)"> </text><text xml:space="preserve" font-family="FiraMono-Regular,Fira Mono" font-size="32.8" fill="#FFFFFF" transform="matrix(1.00, 0.00, -0.00, -1.00, 137.0, 482.4)">t</text><text xml:space="preserve" font-family="FiraMono-Regular,Fira Mono" font-size="32.8" fill="#FFFFFF" transform="matrix(1.00, 0.00, -0.00, -1.00, 156.7, 482.4)">h</text><text xml:space="preserve" font-family="FiraMono-Regular,Fira Mono" font-size="32.8" fill="#FFFFFF" transform="matrix(1.00, 0.00, -0.00, -1.00, 176.3, 482.4)">e</text><text xml:space="preserve" font-family="FiraMono-Regular,Fira Mono" font-size="32.8" fill="#FFFFFF" transform="matrix(1.00, 0.00, -0.00, -1.00, 196.0, 482.4)">n</text><text xml:space="preserve" font-family="FiraMono-Regular,Fira Mono" font-size="32.8" fill="#FFFFFF" transform="matrix(1.00, 0.00, -0.00, -1.00, 215.6, 482.4)">:</text><text xml:space="preserve" font-family="FiraMono-Regular,Fira Mono" font-size="32.8" fill="#000000" transform="matrix(1.00, 0.00, -0.00, -1.00, 235.3, 482.4)"> </text><text xml:space="preserve" font-family="FiraMono-Regular,Fira Mono" font-size="32.8" fill="#FFFFFF" transform="matrix(1.00, 0.00, -0.00, -1.00, 137.0, 432.4)">s</text><text xml:space="preserve" font-family="FiraMono-Regular,Fira Mono" font-size="32.8" fill="#FFFFFF" transform="matrix(1.00, 0.00, -0.00, -1.00, 156.7, 432.4)">t</text><text xml:space="preserve" font-family="FiraMono-Regular,Fira Mono" font-size="32.8" fill="#FFFFFF" transform="matrix(1.00, 0.00, -0.00, -1.00, 176.3, 432.4)">a</text><text xml:space="preserve" font-family="FiraMono-Regular,Fira Mono" font-size="32.8" fill="#FFFFFF" transform="matrix(1.00, 0.00, -0.00, -1.00, 196.0, 432.4)">c</text><text xml:space="preserve" font-family="FiraMono-Regular,Fira Mono" font-size="32.8" fill="#FFFFFF" transform="matrix(1.00, 0.00, -0.00, -1.00, 215.6, 432.4)">k</text><text xml:space="preserve" font-family="FiraMono-Regular,Fira Mono" font-size="32.8" fill="#FFFFFF" transform="matrix(1.00, 0.00, -0.00, -1.00, 235.3, 432.4)">.</text><text xml:space="preserve" font-family="FiraMono-Regular,Fira Mono" font-size="32.8" fill="#FFFFFF" transform="matrix(1.00, 0.00, -0.00, -1.00, 254.9, 432.4)">p</text><text xml:space="preserve" font-family="FiraMono-Regular,Fira Mono" font-size="32.8" fill="#FFFFFF" transform="matrix(1.00, 0.00, -0.00, -1.00, 274.6, 432.4)">o</text><text xml:space="preserve" font-family="FiraMono-Regular,Fira Mono" font-size="32.8" fill="#FFFFFF" transform="matrix(1.00, 0.00, -0.00, -1.00, 294.2, 432.4)">p</text><text xml:space="preserve" font-family="FiraMono-Regular,Fira Mono" font-size="32.8" fill="#FFFFFF" transform="matrix(1.00, 0.00, -0.00, -1.00, 313.9, 432.4)">(</text><text xml:space="preserve" font-family="FiraMono-Regular,Fira Mono" font-size="32.8" fill="#FFFFFF" transform="matrix(1.00, 0.00, -0.00, -1.00, 333.6, 432.4)">)</text><text xml:space="preserve" font-family="FiraMono-Regular,Fira Mono" font-size="32.8" fill="#FFFFFF" transform="matrix(1.00, 0.00, -0.00, -1.00, 353.2, 432.4)"> </text><text xml:space="preserve" font-family="FiraMono-Regular,Fira Mono" font-size="32.8" fill="#FFFFFF" transform="matrix(1.00, 0.00, -0.00, -1.00, 372.9, 432.4)">=</text><text xml:space="preserve" font-family="FiraMono-Regular,Fira Mono" font-size="32.8" fill="#FFFFFF" transform="matrix(1.00, 0.00, -0.00, -1.00, 392.5, 432.4)">=</text><text xml:space="preserve" font-family="FiraMono-Regular,Fira Mono" font-size="32.8" fill="#000000" transform="matrix(1.00, 0.00, -0.00, -1.00, 412.2, 432.4)"> </text><text xml:space="preserve" font-family="FiraMono-Regular,Fira Mono" font-size="32.8" fill="#FF2600" transform="matrix(1.00, 0.00, -0.00, -1.00, 431.8, 432.4)">"</text><text xml:space="preserve" font-family="FiraMono-Regular,Fira Mono" font-size="32.8" fill="#FF2600" transform="matrix(1.00, 0.00, -0.00, -1.00, 451.5, 432.4)">f</text><text xml:space="preserve" font-family="FiraMono-Regular,Fira Mono" font-size="32.8" fill="#FF2600" transform="matrix(1.00, 0.00, -0.00, -1.00, 471.2, 432.4)">o</text><text xml:space="preserve" font-family="FiraMono-Regular,Fira Mono" font-size="32.8" fill="#FF2600" transform="matrix(1.00, 0.00, -0.00, -1.00, 490.8, 432.4)">o</text><text xml:space="preserve" font-family="FiraMono-Regular,Fira Mono" font-size="32.8" fill="#FF2600" transform="matrix(1.00, 0.00, -0.00, -1.00, 510.5, 432.4)">"</text><text xml:space="preserve" font-family="FiraMono-Regular,Fira Mono" font-size="32.8" fill="#FFFFFF" transform="matrix(1.00, 0.00, -0.00, -1.00, 530.1, 432.4)"> </text><text xml:space="preserve" font-family="FiraMono-Regular,Fira Mono" font-size="32.8" fill="#FFFFFF" transform="matrix(1.00, 0.00, -0.00, -1.00, 137.0, 332.4)">w</text><text xml:space="preserve" font-family="FiraMono-Regular,Fira Mono" font-size="32.8" fill="#FFFFFF" transform="matrix(1.00, 0.00, -0.00, -1.00, 156.7, 332.4)">h</text><text xml:space="preserve" font-family="FiraMono-Regular,Fira Mono" font-size="32.8" fill="#FFFFFF" transform="matrix(1.00, 0.00, -0.00, -1.00, 176.3, 332.4)">e</text><text xml:space="preserve" font-family="FiraMono-Regular,Fira Mono" font-size="32.8" fill="#FFFFFF" transform="matrix(1.00, 0.00, -0.00, -1.00, 196.0, 332.4)">n</text><text xml:space="preserve" font-family="FiraMono-Regular,Fira Mono" font-size="32.8" fill="#FFFFFF" transform="matrix(1.00, 0.00, -0.00, -1.00, 215.6, 332.4)">:</text><text xml:space="preserve" font-family="FiraMono-Regular,Fira Mono" font-size="32.8" fill="#000000" transform="matrix(1.00, 0.00, -0.00, -1.00, 235.3, 332.4)"> </text><text xml:space="preserve" font-family="FiraMono-Regular,Fira Mono" font-size="32.8" fill="#FFFFFF" transform="matrix(1.00, 0.00, -0.00, -1.00, 137.0, 282.4)">s</text><text xml:space="preserve" font-family="FiraMono-Regular,Fira Mono" font-size="32.8" fill="#FFFFFF" transform="matrix(1.00, 0.00, -0.00, -1.00, 156.7, 282.4)">t</text><text xml:space="preserve" font-family="FiraMono-Regular,Fira Mono" font-size="32.8" fill="#FFFFFF" transform="matrix(1.00, 0.00, -0.00, -1.00, 176.3, 282.4)">a</text><text xml:space="preserve" font-family="FiraMono-Regular,Fira Mono" font-size="32.8" fill="#FFFFFF" transform="matrix(1.00, 0.00, -0.00, -1.00, 196.0, 282.4)">c</text><text xml:space="preserve" font-family="FiraMono-Regular,Fira Mono" font-size="32.8" fill="#FFFFFF" transform="matrix(1.00, 0.00, -0.00, -1.00, 215.6, 282.4)">k</text><text xml:space="preserve" font-family="FiraMono-Regular,Fira Mono" font-size="32.8" fill="#FFFFFF" transform="matrix(1.00, 0.00, -0.00, -1.00, 235.3, 282.4)">.</text><text xml:space="preserve" font-family="FiraMono-Regular,Fira Mono" font-size="32.8" fill="#FFFFFF" transform="matrix(1.00, 0.00, -0.00, -1.00, 254.9, 282.4)">p</text><text xml:space="preserve" font-family="FiraMono-Regular,Fira Mono" font-size="32.8" fill="#FFFFFF" transform="matrix(1.00, 0.00, -0.00, -1.00, 274.6, 282.4)">o</text><text xml:space="preserve" font-family="FiraMono-Regular,Fira Mono" font-size="32.8" fill="#FFFFFF" transform="matrix(1.00, 0.00, -0.00, -1.00, 294.2, 282.4)">p</text><text xml:space="preserve" font-family="FiraMono-Regular,Fira Mono" font-size="32.8" fill="#FFFFFF" transform="matrix(1.00, 0.00, -0.00, -1.00, 313.9, 282.4)">(</text><text xml:space="preserve" font-family="FiraMono-Regular,Fira Mono" font-size="32.8" fill="#FFFFFF" transform="matrix(1.00, 0.00, -0.00, -1.00, 333.6, 282.4)">)</text><text xml:space="preserve" font-family="FiraMono-Regular,Fira Mono" font-size="32.8" fill="#000000" transform="matrix(1.00, 0.00, -0.00, -1.00, 353.2, 282.4)"> </text><text xml:space="preserve" font-family="FiraMono-Regular,Fira Mono" font-size="32.8" fill="#FFFFFF" transform="matrix(1.00, 0.00, -0.00, -1.00, 137.0, 182.4)">t</text><text xml:space="preserve" font-family="FiraMono-Regular,Fira Mono" font-size="32.8" fill="#FFFFFF" transform="matrix(1.00, 0.00, -0.00, -1.00, 156.7, 182.4)">h</text><text xml:space="preserve" font-family="FiraMono-Regular,Fira Mono" font-size="32.8" fill="#FFFFFF" transform="matrix(1.00, 0.00, -0.00, -1.00, 176.3, 182.4)">e</text><text xml:space="preserve" font-family="FiraMono-Regular,Fira Mono" font-size="32.8" fill="#FFFFFF" transform="matrix(1.00, 0.00, -0.00, -1.00, 196.0, 182.4)">n</text><text xml:space="preserve" font-family="FiraMono-Regular,Fira Mono" font-size="32.8" fill="#FFFFFF" transform="matrix(1.00, 0.00, -0.00, -1.00, 215.6, 182.4)">:</text><text xml:space="preserve" font-family="FiraMono-Regular,Fira Mono" font-size="32.8" fill="#000000" transform="matrix(1.00, 0.00, -0.00, -1.00, 235.3, 182.4)"> </text><text xml:space="preserve" font-family="FiraMono-Regular,Fira Mono" font-size="32.8" fill="#FFFFFF" transform="matrix(1.00, 0.00, -0.00, -1.00, 137.0, 132.4)">t</text><text xml:space="preserve" font-family="FiraMono-Regular,Fira Mono" font-size="32.8" fill="#FFFFFF" transform="matrix(1.00, 0.00, -0.00, -1.00, 156.7, 132.4)">h</text><text xml:space="preserve" font-family="FiraMono-Regular,Fira Mono" font-size="32.8" fill="#FFFFFF" transform="matrix(1.00, 0.00, -0.00, -1.00, 176.3, 132.4)">r</text><text xml:space="preserve" font-family="FiraMono-Regular,Fira Mono" font-size="32.8" fill="#FFFFFF" transform="matrix(1.00, 0.00, -0.00, -1.00, 196.0, 132.4)">o</text><text xml:space="preserve" font-family="FiraMono-Regular,Fira Mono" font-size="32.8" fill="#FFFFFF" transform="matrix(1.00, 0.00, -0.00, -1.00, 215.6, 132.4)">w</text><text xml:space="preserve" font-family="FiraMono-Regular,Fira Mono" font-size="32.8" fill="#FFFFFF" transform="matrix(1.00, 0.00, -0.00, -1.00, 235.3, 132.4)">n</text><text xml:space="preserve" font-family="FiraMono-Regular,Fira Mono" font-size="32.8" fill="#FFFFFF" transform="matrix(1.00, 0.00, -0.00, -1.00, 254.9, 132.4)"> </text><text xml:space="preserve" font-family="FiraMono-Regular,Fira Mono" font-size="32.8" fill="#FFFFFF" transform="matrix(1.00, 0.00, -0.00, -1.00, 274.6, 132.4)">E</text><text xml:space="preserve" font-family="FiraMono-Regular,Fira Mono" font-size="32.8" fill="#FFFFFF" transform="matrix(1.00, 0.00, -0.00, -1.00, 294.2, 132.4)">m</text><text xml:space="preserve" font-family="FiraMono-Regular,Fira Mono" font-size="32.8" fill="#FFFFFF" transform="matrix(1.00, 0.00, -0.00, -1.00, 313.9, 132.4)">p</text><text xml:space="preserve" font-family="FiraMono-Regular,Fira Mono" font-size="32.8" fill="#FFFFFF" transform="matrix(1.00, 0.00, -0.00, -1.00, 333.6, 132.4)">t</text><text xml:space="preserve" font-family="FiraMono-Regular,Fira Mono" font-size="32.8" fill="#FFFFFF" transform="matrix(1.00, 0.00, -0.00, -1.00, 353.2, 132.4)">y</text><text xml:space="preserve" font-family="FiraMono-Regular,Fira Mono" font-size="32.8" fill="#FFFFFF" transform="matrix(1.00, 0.00, -0.00, -1.00, 372.9, 132.4)">S</text><text xml:space="preserve" font-family="FiraMono-Regular,Fira Mono" font-size="32.8" fill="#FFFFFF" transform="matrix(1.00, 0.00, -0.00, -1.00, 392.5, 132.4)">t</text><text xml:space="preserve" font-family="FiraMono-Regular,Fira Mono" font-size="32.8" fill="#FFFFFF" transform="matrix(1.00, 0.00, -0.00, -1.00, 412.2, 132.4)">a</text><text xml:space="preserve" font-family="FiraMono-Regular,Fira Mono" font-size="32.8" fill="#FFFFFF" transform="matrix(1.00, 0.00, -0.00, -1.00, 431.8, 132.4)">c</text><text xml:space="preserve" font-family="FiraMono-Regular,Fira Mono" font-size="32.8" fill="#FFFFFF" transform="matrix(1.00, 0.00, -0.00, -1.00, 451.5, 132.4)">k</text><text xml:space="preserve" font-family="FiraMono-Regular,Fira Mono" font-size="32.8" fill="#FFFFFF" transform="matrix(1.00, 0.00, -0.00, -1.00, 471.2, 132.4)">E</text><text xml:space="preserve" font-family="FiraMono-Regular,Fira Mono" font-size="32.8" fill="#FFFFFF" transform="matrix(1.00, 0.00, -0.00, -1.00, 490.8, 132.4)">x</text><text xml:space="preserve" font-family="FiraMono-Regular,Fira Mono" font-size="32.8" fill="#FFFFFF" transform="matrix(1.00, 0.00, -0.00, -1.00, 510.5, 132.4)">c</text><text xml:space="preserve" font-family="FiraMono-Regular,Fira Mono" font-size="32.8" fill="#FFFFFF" transform="matrix(1.00, 0.00, -0.00, -1.00, 530.1, 132.4)">e</text><text xml:space="preserve" font-family="FiraMono-Regular,Fira Mono" font-size="32.8" fill="#FFFFFF" transform="matrix(1.00, 0.00, -0.00, -1.00, 549.8, 132.4)">p</text><text xml:space="preserve" font-family="FiraMono-Regular,Fira Mono" font-size="32.8" fill="#FFFFFF" transform="matrix(1.00, 0.00, -0.00, -1.00, 569.4, 132.4)">t</text><text xml:space="preserve" font-family="FiraMono-Regular,Fira Mono" font-size="32.8" fill="#FFFFFF" transform="matrix(1.00, 0.00, -0.00, -1.00, 589.1, 132.4)">i</text><text xml:space="preserve" font-family="FiraMono-Regular,Fira Mono" font-size="32.8" fill="#FFFFFF" transform="matrix(1.00, 0.00, -0.00, -1.00, 608.7, 132.4)">o</text><text xml:space="preserve" font-family="FiraMono-Regular,Fira Mono" font-size="32.8" fill="#FFFFFF" transform="matrix(1.00, 0.00, -0.00, -1.00, 628.4, 132.4)">n</text></g></svg>