<?xml version="1.0" encoding="UTF-8" standalone="no"?><svg xmlns="http://www.w3.org/2000/svg" xmlns:xlink="http://www.w3.org/1999/xlink" clip-rule="evenodd" stroke-miterlimit="10" viewBox="0 0 1920 1080"><desc>SVG generated by Keynote</desc><defs></defs><g transform="matrix(1.00, 0.00, -0.00, -1.00, 0.0, 1080.0)"><g><clipPath id="clip0x7f8412b3c080"><path d="M 0.0 1080.0 L 1920.0 1080.0 L 1920.0 0.0 L 0.0 0.0 Z M 0.0 1080.0 "></path></clipPath><g clip-path="url(#clip0x7f8412b3c080)"><image xlink:href="../../BF7430C7-5211-4E68-B118-AC68FDB76F0F/assets/A81AF0278930B93F47F55E5BB6D3A023.png" width="1920.00" height="1080.00" transform="matrix(1.00, 0.00, -0.00, -1.00, 0.0, 1080.0)"></image></g></g><text xml:space="preserve" font-family="HorizonBT-Regular,Horizon BT" font-size="128.0" fill="#FFD941" transform="matrix(1.00, 0.00, -0.00, -1.00, 626.9, 917.2)">I</text><text xml:space="preserve" font-family="HorizonBT-Regular,Horizon BT" font-size="128.0" fill="#FFD941" transform="matrix(1.00, 0.00, -0.00, -1.00, 652.3, 917.2)">M</text><text xml:space="preserve" font-family="HorizonBT-Regular,Horizon BT" font-size="128.0" fill="#FFD941" transform="matrix(1.00, 0.00, -0.00, -1.00, 727.9, 917.2)">P</text><text xml:space="preserve" font-family="HorizonBT-Regular,Horizon BT" font-size="128.0" fill="#FFD941" transform="matrix(1.00, 0.00, -0.00, -1.00, 777.1, 917.2)">O</text><text xml:space="preserve" font-family="HorizonBT-Regular,Horizon BT" font-size="128.0" fill="#FFD941" transform="matrix(1.00, 0.00, -0.00, -1.00, 827.6, 917.2)">R</text><text xml:space="preserve" font-family="HorizonBT-Regular,Horizon BT" font-size="128.0" fill="#FFD941" transform="matrix(1.00, 0.00, -0.00, -1.00, 878.0, 917.2)">T</text><text xml:space="preserve" font-family="HorizonBT-Regular,Horizon BT" font-size="128.0" fill="#FFD941" transform="matrix(1.00, 0.00, -0.00, -1.00, 923.1, 917.2)"> </text><text xml:space="preserve" font-family="HorizonBT-Regular,Horizon BT" font-size="128.0" fill="#FFD941" transform="matrix(1.00, 0.00, -0.00, -1.00, 948.5, 917.2)">A</text><text xml:space="preserve" font-family="HorizonBT-Regular,Horizon BT" font-size="128.0" fill="#FFD941" transform="matrix(1.00, 0.00, -0.00, -1.00, 999.2, 917.2)">L</text><text xml:space="preserve" font-family="HorizonBT-Regular,Horizon BT" font-size="128.0" fill="#FFD941" transform="matrix(1.00, 0.00, -0.00, -1.00, 1040.0, 917.2)">I</text><text xml:space="preserve" font-family="HorizonBT-Regular,Horizon BT" font-size="128.0" fill="#FFD941" transform="matrix(1.00, 0.00, -0.00, -1.00, 1065.4, 917.2)">A</text><text xml:space="preserve" font-family="HorizonBT-Regular,Horizon BT" font-size="128.0" fill="#FFD941" transform="matrix(1.00, 0.00, -0.00, -1.00, 1116.0, 917.2)">S</text><text xml:space="preserve" font-family="HorizonBT-Regular,Horizon BT" font-size="128.0" fill="#FFD941" transform="matrix(1.00, 0.00, -0.00, -1.00, 1166.5, 917.2)">I</text><text xml:space="preserve" font-family="HorizonBT-Regular,Horizon BT" font-size="128.0" fill="#FFD941" transform="matrix(1.00, 0.00, -0.00, -1.00, 1191.9, 917.2)">N</text><text xml:space="preserve" font-family="HorizonBT-Regular,Horizon BT" font-size="128.0" fill="#FFD941" transform="matrix(1.00, 0.00, -0.00, -1.00, 1242.6, 917.2)">G</text><text xml:space="preserve" font-family="FiraMono-Regular,Fira Mono" font-size="51.5" fill="#C07B1E" transform="matrix(1.00, 0.00, -0.00, -1.00, 137.0, 771.7)">i</text><text xml:space="preserve" font-family="FiraMono-Regular,Fira Mono" font-size="51.5" fill="#C07B1E" transform="matrix(1.00, 0.00, -0.00, -1.00, 167.9, 771.7)">m</text><text xml:space="preserve" font-family="FiraMono-Regular,Fira Mono" font-size="51.5" fill="#C07B1E" transform="matrix(1.00, 0.00, -0.00, -1.00, 198.8, 771.7)">p</text><text xml:space="preserve" font-family="FiraMono-Regular,Fira Mono" font-size="51.5" fill="#C07B1E" transform="matrix(1.00, 0.00, -0.00, -1.00, 229.7, 771.7)">o</text><text xml:space="preserve" font-family="FiraMono-Regular,Fira Mono" font-size="51.5" fill="#C07B1E" transform="matrix(1.00, 0.00, -0.00, -1.00, 260.6, 771.7)">r</text><text xml:space="preserve" font-family="FiraMono-Regular,Fira Mono" font-size="51.5" fill="#C07B1E" transform="matrix(1.00, 0.00, -0.00, -1.00, 291.4, 771.7)">t</text><text xml:space="preserve" font-family="FiraMono-Regular,Fira Mono" font-size="51.5" fill="#000000" transform="matrix(1.00, 0.00, -0.00, -1.00, 322.3, 771.7)"> </text><text xml:space="preserve" font-family="FiraMono-Regular,Fira Mono" font-size="51.5" fill="#FFFFFF" transform="matrix(1.00, 0.00, -0.00, -1.00, 353.2, 771.7)">j</text><text xml:space="preserve" font-family="FiraMono-Regular,Fira Mono" font-size="51.5" fill="#FFFFFF" transform="matrix(1.00, 0.00, -0.00, -1.00, 384.1, 771.7)">a</text><text xml:space="preserve" font-family="FiraMono-Regular,Fira Mono" font-size="51.5" fill="#FFFFFF" transform="matrix(1.00, 0.00, -0.00, -1.00, 415.0, 771.7)">v</text><text xml:space="preserve" font-family="FiraMono-Regular,Fira Mono" font-size="51.5" fill="#FFFFFF" transform="matrix(1.00, 0.00, -0.00, -1.00, 445.9, 771.7)">a</text><text xml:space="preserve" font-family="FiraMono-Regular,Fira Mono" font-size="51.5" fill="#FFFFFF" transform="matrix(1.00, 0.00, -0.00, -1.00, 476.8, 771.7)">.</text><text xml:space="preserve" font-family="FiraMono-Regular,Fira Mono" font-size="51.5" fill="#FFFFFF" transform="matrix(1.00, 0.00, -0.00, -1.00, 507.7, 771.7)">l</text><text xml:space="preserve" font-family="FiraMono-Regular,Fira Mono" font-size="51.5" fill="#FFFFFF" transform="matrix(1.00, 0.00, -0.00, -1.00, 538.5, 771.7)">a</text><text xml:space="preserve" font-family="FiraMono-Regular,Fira Mono" font-size="51.5" fill="#FFFFFF" transform="matrix(1.00, 0.00, -0.00, -1.00, 569.4, 771.7)">n</text><text xml:space="preserve" font-family="FiraMono-Regular,Fira Mono" font-size="51.5" fill="#FFFFFF" transform="matrix(1.00, 0.00, -0.00, -1.00, 600.3, 771.7)">g</text><text xml:space="preserve" font-family="FiraMono-Regular,Fira Mono" font-size="51.5" fill="#FFFFFF" transform="matrix(1.00, 0.00, -0.00, -1.00, 631.2, 771.7)">.</text><text xml:space="preserve" font-family="FiraMono-Regular,Fira Mono" font-size="51.5" fill="#FFFFFF" transform="matrix(1.00, 0.00, -0.00, -1.00, 662.1, 771.7)">V</text><text xml:space="preserve" font-family="FiraMono-Regular,Fira Mono" font-size="51.5" fill="#FFFFFF" transform="matrix(1.00, 0.00, -0.00, -1.00, 693.0, 771.7)">o</text><text xml:space="preserve" font-family="FiraMono-Regular,Fira Mono" font-size="51.5" fill="#FFFFFF" transform="matrix(1.00, 0.00, -0.00, -1.00, 723.9, 771.7)">i</text><text xml:space="preserve" font-family="FiraMono-Regular,Fira Mono" font-size="51.5" fill="#FFFFFF" transform="matrix(1.00, 0.00, -0.00, -1.00, 754.8, 771.7)">d</text><text xml:space="preserve" font-family="FiraMono-Regular,Fira Mono" font-size="51.5" fill="#000000" transform="matrix(1.00, 0.00, -0.00, -1.00, 785.6, 771.7)"> </text><text xml:space="preserve" font-family="FiraMono-Regular,Fira Mono" font-size="51.5" fill="#C07B1E" transform="matrix(1.00, 0.00, -0.00, -1.00, 816.5, 771.7)">a</text><text xml:space="preserve" font-family="FiraMono-Regular,Fira Mono" font-size="51.5" fill="#C07B1E" transform="matrix(1.00, 0.00, -0.00, -1.00, 847.4, 771.7)">s</text><text xml:space="preserve" font-family="FiraMono-Regular,Fira Mono" font-size="51.5" fill="#000000" transform="matrix(1.00, 0.00, -0.00, -1.00, 878.3, 771.7)"> </text><text xml:space="preserve" font-family="FiraMono-Regular,Fira Mono" font-size="51.5" fill="#FFFFFF" transform="matrix(1.00, 0.00, -0.00, -1.00, 909.2, 771.7)">S</text><text xml:space="preserve" font-family="FiraMono-Regular,Fira Mono" font-size="51.5" fill="#FFFFFF" transform="matrix(1.00, 0.00, -0.00, -1.00, 940.1, 771.7)">h</text><text xml:space="preserve" font-family="FiraMono-Regular,Fira Mono" font-size="51.5" fill="#FFFFFF" transform="matrix(1.00, 0.00, -0.00, -1.00, 971.0, 771.7)">o</text><text xml:space="preserve" font-family="FiraMono-Regular,Fira Mono" font-size="51.5" fill="#FFFFFF" transform="matrix(1.00, 0.00, -0.00, -1.00, 1001.9, 771.7)">u</text><text xml:space="preserve" font-family="FiraMono-Regular,Fira Mono" font-size="51.5" fill="#FFFFFF" transform="matrix(1.00, 0.00, -0.00, -1.00, 1032.8, 771.7)">l</text><text xml:space="preserve" font-family="FiraMono-Regular,Fira Mono" font-size="51.5" fill="#FFFFFF" transform="matrix(1.00, 0.00, -0.00, -1.00, 1063.6, 771.7)">d</text><text xml:space="preserve" font-family="FiraMono-Regular,Fira Mono" font-size="51.5" fill="#000000" transform="matrix(1.00, 0.00, -0.00, -1.00, 1094.5, 771.7)"> </text><text xml:space="preserve" font-family="FiraMono-Regular,Fira Mono" font-size="51.5" fill="#C07B1E" transform="matrix(1.00, 0.00, -0.00, -1.00, 137.0, 611.7)">c</text><text xml:space="preserve" font-family="FiraMono-Regular,Fira Mono" font-size="51.5" fill="#C07B1E" transform="matrix(1.00, 0.00, -0.00, -1.00, 167.9, 611.7)">l</text><text xml:space="preserve" font-family="FiraMono-Regular,Fira Mono" font-size="51.5" fill="#C07B1E" transform="matrix(1.00, 0.00, -0.00, -1.00, 198.8, 611.7)">a</text><text xml:space="preserve" font-family="FiraMono-Regular,Fira Mono" font-size="51.5" fill="#C07B1E" transform="matrix(1.00, 0.00, -0.00, -1.00, 229.7, 611.7)">s</text><text xml:space="preserve" font-family="FiraMono-Regular,Fira Mono" font-size="51.5" fill="#C07B1E" transform="matrix(1.00, 0.00, -0.00, -1.00, 260.6, 611.7)">s</text><text xml:space="preserve" font-family="FiraMono-Regular,Fira Mono" font-size="51.5" fill="#000000" transform="matrix(1.00, 0.00, -0.00, -1.00, 291.4, 611.7)"> </text><text xml:space="preserve" font-family="FiraMono-Regular,Fira Mono" font-size="51.5" fill="#FFFFFF" transform="matrix(1.00, 0.00, -0.00, -1.00, 322.3, 611.7)">M</text><text xml:space="preserve" font-family="FiraMono-Regular,Fira Mono" font-size="51.5" fill="#FFFFFF" transform="matrix(1.00, 0.00, -0.00, -1.00, 353.2, 611.7)">y</text><text xml:space="preserve" font-family="FiraMono-Regular,Fira Mono" font-size="51.5" fill="#FFFFFF" transform="matrix(1.00, 0.00, -0.00, -1.00, 384.1, 611.7)">B</text><text xml:space="preserve" font-family="FiraMono-Regular,Fira Mono" font-size="51.5" fill="#FFFFFF" transform="matrix(1.00, 0.00, -0.00, -1.00, 415.0, 611.7)">d</text><text xml:space="preserve" font-family="FiraMono-Regular,Fira Mono" font-size="51.5" fill="#FFFFFF" transform="matrix(1.00, 0.00, -0.00, -1.00, 445.9, 611.7)">d</text><text xml:space="preserve" font-family="FiraMono-Regular,Fira Mono" font-size="51.5" fill="#FFFFFF" transform="matrix(1.00, 0.00, -0.00, -1.00, 476.8, 611.7)">S</text><text xml:space="preserve" font-family="FiraMono-Regular,Fira Mono" font-size="51.5" fill="#FFFFFF" transform="matrix(1.00, 0.00, -0.00, -1.00, 507.7, 611.7)">p</text><text xml:space="preserve" font-family="FiraMono-Regular,Fira Mono" font-size="51.5" fill="#FFFFFF" transform="matrix(1.00, 0.00, -0.00, -1.00, 538.5, 611.7)">e</text><text xml:space="preserve" font-family="FiraMono-Regular,Fira Mono" font-size="51.5" fill="#FFFFFF" transform="matrix(1.00, 0.00, -0.00, -1.00, 569.4, 611.7)">c</text><text xml:space="preserve" font-family="FiraMono-Regular,Fira Mono" font-size="51.5" fill="#000000" transform="matrix(1.00, 0.00, -0.00, -1.00, 600.3, 611.7)"> </text><text xml:space="preserve" font-family="FiraMono-Regular,Fira Mono" font-size="51.5" fill="#FFFFFF" transform="matrix(1.00, 0.00, -0.00, -1.00, 631.2, 611.7)">{</text><text xml:space="preserve" font-family="FiraMono-Regular,Fira Mono" font-size="51.5" fill="#000000" transform="matrix(1.00, 0.00, -0.00, -1.00, 662.1, 611.7)"> </text><text xml:space="preserve" font-family="FiraMono-Regular,Fira Mono" font-size="51.5" fill="#FFFFFF" transform="matrix(1.00, 0.00, -0.00, -1.00, 137.0, 451.7)"> </text><text xml:space="preserve" font-family="FiraMono-Regular,Fira Mono" font-size="51.5" fill="#FFFFFF" transform="matrix(1.00, 0.00, -0.00, -1.00, 167.9, 451.7)"> </text><text xml:space="preserve" font-family="FiraMono-Regular,Fira Mono" font-size="51.5" fill="#FFFFFF" transform="matrix(1.00, 0.00, -0.00, -1.00, 198.8, 451.7)">S</text><text xml:space="preserve" font-family="FiraMono-Regular,Fira Mono" font-size="51.5" fill="#FFFFFF" transform="matrix(1.00, 0.00, -0.00, -1.00, 229.7, 451.7)">h</text><text xml:space="preserve" font-family="FiraMono-Regular,Fira Mono" font-size="51.5" fill="#FFFFFF" transform="matrix(1.00, 0.00, -0.00, -1.00, 260.6, 451.7)">o</text><text xml:space="preserve" font-family="FiraMono-Regular,Fira Mono" font-size="51.5" fill="#FFFFFF" transform="matrix(1.00, 0.00, -0.00, -1.00, 291.4, 451.7)">u</text><text xml:space="preserve" font-family="FiraMono-Regular,Fira Mono" font-size="51.5" fill="#FFFFFF" transform="matrix(1.00, 0.00, -0.00, -1.00, 322.3, 451.7)">l</text><text xml:space="preserve" font-family="FiraMono-Regular,Fira Mono" font-size="51.5" fill="#FFFFFF" transform="matrix(1.00, 0.00, -0.00, -1.00, 353.2, 451.7)">d</text><text xml:space="preserve" font-family="FiraMono-Regular,Fira Mono" font-size="51.5" fill="#000000" transform="matrix(1.00, 0.00, -0.00, -1.00, 384.1, 451.7)"> </text><text xml:space="preserve" font-family="FiraMono-Regular,Fira Mono" font-size="51.5" fill="#FF2600" transform="matrix(1.00, 0.00, -0.00, -1.00, 415.0, 451.7)">"</text><text xml:space="preserve" font-family="FiraMono-Regular,Fira Mono" font-size="51.5" fill="#FF2600" transform="matrix(1.00, 0.00, -0.00, -1.00, 445.9, 451.7)">e</text><text xml:space="preserve" font-family="FiraMono-Regular,Fira Mono" font-size="51.5" fill="#FF2600" transform="matrix(1.00, 0.00, -0.00, -1.00, 476.8, 451.7)">x</text><text xml:space="preserve" font-family="FiraMono-Regular,Fira Mono" font-size="51.5" fill="#FF2600" transform="matrix(1.00, 0.00, -0.00, -1.00, 507.7, 451.7)">h</text><text xml:space="preserve" font-family="FiraMono-Regular,Fira Mono" font-size="51.5" fill="#FF2600" transform="matrix(1.00, 0.00, -0.00, -1.00, 538.5, 451.7)">i</text><text xml:space="preserve" font-family="FiraMono-Regular,Fira Mono" font-size="51.5" fill="#FF2600" transform="matrix(1.00, 0.00, -0.00, -1.00, 569.4, 451.7)">b</text><text xml:space="preserve" font-family="FiraMono-Regular,Fira Mono" font-size="51.5" fill="#FF2600" transform="matrix(1.00, 0.00, -0.00, -1.00, 600.3, 451.7)">i</text><text xml:space="preserve" font-family="FiraMono-Regular,Fira Mono" font-size="51.5" fill="#FF2600" transform="matrix(1.00, 0.00, -0.00, -1.00, 631.2, 451.7)">t</text><text xml:space="preserve" font-family="FiraMono-Regular,Fira Mono" font-size="51.5" fill="#FF2600" transform="matrix(1.00, 0.00, -0.00, -1.00, 662.1, 451.7)"> </text><text xml:space="preserve" font-family="FiraMono-Regular,Fira Mono" font-size="51.5" fill="#FF2600" transform="matrix(1.00, 0.00, -0.00, -1.00, 693.0, 451.7)">s</text><text xml:space="preserve" font-family="FiraMono-Regular,Fira Mono" font-size="51.5" fill="#FF2600" transform="matrix(1.00, 0.00, -0.00, -1.00, 723.9, 451.7)">o</text><text xml:space="preserve" font-family="FiraMono-Regular,Fira Mono" font-size="51.5" fill="#FF2600" transform="matrix(1.00, 0.00, -0.00, -1.00, 754.8, 451.7)">m</text><text xml:space="preserve" font-family="FiraMono-Regular,Fira Mono" font-size="51.5" fill="#FF2600" transform="matrix(1.00, 0.00, -0.00, -1.00, 785.6, 451.7)">e</text><text xml:space="preserve" font-family="FiraMono-Regular,Fira Mono" font-size="51.5" fill="#FF2600" transform="matrix(1.00, 0.00, -0.00, -1.00, 816.5, 451.7)"> </text><text xml:space="preserve" font-family="FiraMono-Regular,Fira Mono" font-size="51.5" fill="#FF2600" transform="matrix(1.00, 0.00, -0.00, -1.00, 847.4, 451.7)">b</text><text xml:space="preserve" font-family="FiraMono-Regular,Fira Mono" font-size="51.5" fill="#FF2600" transform="matrix(1.00, 0.00, -0.00, -1.00, 878.3, 451.7)">e</text><text xml:space="preserve" font-family="FiraMono-Regular,Fira Mono" font-size="51.5" fill="#FF2600" transform="matrix(1.00, 0.00, -0.00, -1.00, 909.2, 451.7)">h</text><text xml:space="preserve" font-family="FiraMono-Regular,Fira Mono" font-size="51.5" fill="#FF2600" transform="matrix(1.00, 0.00, -0.00, -1.00, 940.1, 451.7)">a</text><text xml:space="preserve" font-family="FiraMono-Regular,Fira Mono" font-size="51.5" fill="#FF2600" transform="matrix(1.00, 0.00, -0.00, -1.00, 971.0, 451.7)">v</text><text xml:space="preserve" font-family="FiraMono-Regular,Fira Mono" font-size="51.5" fill="#FF2600" transform="matrix(1.00, 0.00, -0.00, -1.00, 1001.9, 451.7)">i</text><text xml:space="preserve" font-family="FiraMono-Regular,Fira Mono" font-size="51.5" fill="#FF2600" transform="matrix(1.00, 0.00, -0.00, -1.00, 1032.8, 451.7)">o</text><text xml:space="preserve" font-family="FiraMono-Regular,Fira Mono" font-size="51.5" fill="#FF2600" transform="matrix(1.00, 0.00, -0.00, -1.00, 1063.6, 451.7)">r</text><text xml:space="preserve" font-family="FiraMono-Regular,Fira Mono" font-size="51.5" fill="#FF2600" transform="matrix(1.00, 0.00, -0.00, -1.00, 1094.5, 451.7)">"</text><text xml:space="preserve" font-family="FiraMono-Regular,Fira Mono" font-size="51.5" fill="#FFFFFF" transform="matrix(1.00, 0.00, -0.00, -1.00, 1125.4, 451.7)">(</text><text xml:space="preserve" font-family="FiraMono-Regular,Fira Mono" font-size="51.5" fill="#FFFFFF" transform="matrix(1.00, 0.00, -0.00, -1.00, 1156.3, 451.7)">)</text><text xml:space="preserve" font-family="FiraMono-Regular,Fira Mono" font-size="51.5" fill="#FFFFFF" transform="matrix(1.00, 0.00, -0.00, -1.00, 1187.2, 451.7)"> </text><text xml:space="preserve" font-family="FiraMono-Regular,Fira Mono" font-size="51.5" fill="#FFFFFF" transform="matrix(1.00, 0.00, -0.00, -1.00, 1218.1, 451.7)">{</text><text xml:space="preserve" font-family="FiraMono-Regular,Fira Mono" font-size="51.5" fill="#000000" transform="matrix(1.00, 0.00, -0.00, -1.00, 1249.0, 451.7)"> </text><text xml:space="preserve" font-family="FiraMono-Regular,Fira Mono" font-size="51.5" fill="#000000" transform="matrix(1.00, 0.00, -0.00, -1.00, 137.0, 371.7)"> </text><text xml:space="preserve" font-family="FiraMono-Regular,Fira Mono" font-size="51.5" fill="#000000" transform="matrix(1.00, 0.00, -0.00, -1.00, 167.9, 371.7)"> </text><text xml:space="preserve" font-family="FiraMono-Regular,Fira Mono" font-size="51.5" fill="#000000" transform="matrix(1.00, 0.00, -0.00, -1.00, 198.8, 371.7)"> </text><text xml:space="preserve" font-family="FiraMono-Regular,Fira Mono" font-size="51.5" fill="#000000" transform="matrix(1.00, 0.00, -0.00, -1.00, 229.7, 371.7)"> </text><text xml:space="preserve" font-family="FiraMono-Regular,Fira Mono" font-size="51.5" fill="#0432FF" transform="matrix(1.00, 0.00, -0.00, -1.00, 260.6, 371.7)">/</text><text xml:space="preserve" font-family="FiraMono-Regular,Fira Mono" font-size="51.5" fill="#0432FF" transform="matrix(1.00, 0.00, -0.00, -1.00, 291.4, 371.7)">/</text><text xml:space="preserve" font-family="FiraMono-Regular,Fira Mono" font-size="51.5" fill="#0432FF" transform="matrix(1.00, 0.00, -0.00, -1.00, 322.3, 371.7)"> </text><text xml:space="preserve" font-family="FiraMono-Regular,Fira Mono" font-size="51.5" fill="#0432FF" transform="matrix(1.00, 0.00, -0.00, -1.00, 353.2, 371.7)">.</text><text xml:space="preserve" font-family="FiraMono-Regular,Fira Mono" font-size="51.5" fill="#0432FF" transform="matrix(1.00, 0.00, -0.00, -1.00, 384.1, 371.7)">.</text><text xml:space="preserve" font-family="FiraMono-Regular,Fira Mono" font-size="51.5" fill="#0432FF" transform="matrix(1.00, 0.00, -0.00, -1.00, 415.0, 371.7)">.</text><text xml:space="preserve" font-family="FiraMono-Regular,Fira Mono" font-size="51.5" fill="#000000" transform="matrix(1.00, 0.00, -0.00, -1.00, 445.9, 371.7)"> </text><text xml:space="preserve" font-family="FiraMono-Regular,Fira Mono" font-size="51.5" fill="#000000" transform="matrix(1.00, 0.00, -0.00, -1.00, 137.0, 291.7)"> </text><text xml:space="preserve" font-family="FiraMono-Regular,Fira Mono" font-size="51.5" fill="#000000" transform="matrix(1.00, 0.00, -0.00, -1.00, 167.9, 291.7)"> </text><text xml:space="preserve" font-family="FiraMono-Regular,Fira Mono" font-size="51.5" fill="#FFFFFF" transform="matrix(1.00, 0.00, -0.00, -1.00, 198.8, 291.7)">}</text><text xml:space="preserve" font-family="FiraMono-Regular,Fira Mono" font-size="51.5" fill="#000000" transform="matrix(1.00, 0.00, -0.00, -1.00, 229.7, 291.7)"> </text><text xml:space="preserve" font-family="FiraMono-Regular,Fira Mono" font-size="51.5" fill="#FFFFFF" transform="matrix(1.00, 0.00, -0.00, -1.00, 137.0, 131.7)">}</text></g></svg>