<?xml version="1.0" encoding="UTF-8" standalone="no"?><svg xmlns="http://www.w3.org/2000/svg" xmlns:xlink="http://www.w3.org/1999/xlink" clip-rule="evenodd" stroke-miterlimit="10" viewBox="0 0 259 259"><desc>SVG generated by Keynote</desc><defs></defs><g transform="matrix(1.00, 0.00, -0.00, -1.00, 0.0, 259.0)"><path d="M 220.3 220.3 C 270.3 170.3 270.3 89.3 220.3 39.3 C 170.3 -10.7 89.3 -10.7 39.3 39.3 C -10.7 89.3 -10.7 170.3 39.3 220.3 C 89.3 270.3 170.3 270.3 220.3 220.3 Z M 220.3 220.3 " fill="#1497FC"></path><g><clipPath id="clip0x7f8409210c40"><path d="M 1.8 1.8 L 257.8 1.8 L 257.8 257.8 L 1.8 257.8 Z M 1.8 1.8 "></path></clipPath><g clip-path="url(#clip0x7f8409210c40)"><text xml:space="preserve" font-family="Palatino-Roman,Palatino" font-size="36.0" fill="#FEFFFF" transform="matrix(1.00, 0.00, -0.00, -1.00, 63.4, 187.8)">R</text><text xml:space="preserve" font-family="Palatino-Roman,Palatino" font-size="36.0" fill="#FEFFFF" transform="matrix(1.00, 0.00, -0.00, -1.00, 87.4, 187.8)">e</text><text xml:space="preserve" font-family="Palatino-Roman,Palatino" font-size="36.0" fill="#FEFFFF" transform="matrix(1.00, 0.00, -0.00, -1.00, 104.7, 187.8)">f</text><text xml:space="preserve" font-family="Palatino-Roman,Palatino" font-size="36.0" fill="#FEFFFF" transform="matrix(1.00, 0.00, -0.00, -1.00, 116.7, 187.8)">a</text><text xml:space="preserve" font-family="Palatino-Roman,Palatino" font-size="36.0" fill="#FEFFFF" transform="matrix(1.00, 0.00, -0.00, -1.00, 134.7, 187.8)">c</text><text xml:space="preserve" font-family="Palatino-Roman,Palatino" font-size="36.0" fill="#FEFFFF" transform="matrix(1.00, 0.00, -0.00, -1.00, 150.6, 187.8)">t</text><text xml:space="preserve" font-family="Palatino-Roman,Palatino" font-size="36.0" fill="#FEFFFF" transform="matrix(1.00, 0.00, -0.00, -1.00, 162.4, 187.8)">o</text><text xml:space="preserve" font-family="Palatino-Roman,Palatino" font-size="36.0" fill="#FEFFFF" transform="matrix(1.00, 0.00, -0.00, -1.00, 182.0, 187.8)">r</text><text xml:space="preserve" font-family="Palatino-Roman,Palatino" font-size="36.0" fill="#FEFFFF" transform="matrix(1.00, 0.00, -0.00, -1.00, 196.3, 187.8)"> </text><text xml:space="preserve" font-family="Palatino-Roman,Palatino" font-size="36.0" fill="#FEFFFF" transform="matrix(1.00, 0.00, -0.00, -1.00, 43.3, 139.8)">c</text><text xml:space="preserve" font-family="Palatino-Roman,Palatino" font-size="36.0" fill="#FEFFFF" transform="matrix(1.00, 0.00, -0.00, -1.00, 59.3, 139.8)">o</text><text xml:space="preserve" font-family="Palatino-Roman,Palatino" font-size="36.0" fill="#FEFFFF" transform="matrix(1.00, 0.00, -0.00, -1.00, 78.9, 139.8)">d</text><text xml:space="preserve" font-family="Palatino-Roman,Palatino" font-size="36.0" fill="#FEFFFF" transform="matrix(1.00, 0.00, -0.00, -1.00, 100.9, 139.8)">e</text><text xml:space="preserve" font-family="Palatino-Roman,Palatino" font-size="36.0" fill="#FEFFFF" transform="matrix(1.00, 0.00, -0.00, -1.00, 118.2, 139.8)"> </text><text xml:space="preserve" font-family="Palatino-Roman,Palatino" font-size="36.0" fill="#FEFFFF" transform="matrix(1.00, 0.00, -0.00, -1.00, 127.2, 139.8)">w</text><text xml:space="preserve" font-family="Palatino-Roman,Palatino" font-size="36.0" fill="#FEFFFF" transform="matrix(1.00, 0.00, -0.00, -1.00, 157.2, 139.8)">h</text><text xml:space="preserve" font-family="Palatino-Roman,Palatino" font-size="36.0" fill="#FEFFFF" transform="matrix(1.00, 0.00, -0.00, -1.00, 178.1, 139.8)">i</text><text xml:space="preserve" font-family="Palatino-Roman,Palatino" font-size="36.0" fill="#FEFFFF" transform="matrix(1.00, 0.00, -0.00, -1.00, 188.6, 139.8)">l</text><text xml:space="preserve" font-family="Palatino-Roman,Palatino" font-size="36.0" fill="#FEFFFF" transform="matrix(1.00, 0.00, -0.00, -1.00, 199.1, 139.8)">e</text><text xml:space="preserve" font-family="Palatino-Roman,Palatino" font-size="36.0" fill="#FEFFFF" transform="matrix(1.00, 0.00, -0.00, -1.00, 216.3, 139.8)"> </text><text xml:space="preserve" font-family="Palatino-Roman,Palatino" font-size="36.0" fill="#FEFFFF" transform="matrix(1.00, 0.00, -0.00, -1.00, 25.9, 91.8)">k</text><text xml:space="preserve" font-family="Palatino-Roman,Palatino" font-size="36.0" fill="#FEFFFF" transform="matrix(1.00, 0.00, -0.00, -1.00, 45.9, 91.8)">e</text><text xml:space="preserve" font-family="Palatino-Roman,Palatino" font-size="36.0" fill="#FEFFFF" transform="matrix(1.00, 0.00, -0.00, -1.00, 63.2, 91.8)">e</text><text xml:space="preserve" font-family="Palatino-Roman,Palatino" font-size="36.0" fill="#FEFFFF" transform="matrix(1.00, 0.00, -0.00, -1.00, 80.4, 91.8)">p</text><text xml:space="preserve" font-family="Palatino-Roman,Palatino" font-size="36.0" fill="#FEFFFF" transform="matrix(1.00, 0.00, -0.00, -1.00, 102.1, 91.8)">i</text><text xml:space="preserve" font-family="Palatino-Roman,Palatino" font-size="36.0" fill="#FEFFFF" transform="matrix(1.00, 0.00, -0.00, -1.00, 112.5, 91.8)">n</text><text xml:space="preserve" font-family="Palatino-Roman,Palatino" font-size="36.0" fill="#FEFFFF" transform="matrix(1.00, 0.00, -0.00, -1.00, 133.5, 91.8)">g</text><text xml:space="preserve" font-family="Palatino-Roman,Palatino" font-size="36.0" fill="#FEFFFF" transform="matrix(1.00, 0.00, -0.00, -1.00, 153.5, 91.8)"> </text><text xml:space="preserve" font-family="Palatino-Roman,Palatino" font-size="36.0" fill="#FEFFFF" transform="matrix(1.00, 0.00, -0.00, -1.00, 162.5, 91.8)">t</text><text xml:space="preserve" font-family="Palatino-Roman,Palatino" font-size="36.0" fill="#FEFFFF" transform="matrix(1.00, 0.00, -0.00, -1.00, 174.3, 91.8)">e</text><text xml:space="preserve" font-family="Palatino-Roman,Palatino" font-size="36.0" fill="#FEFFFF" transform="matrix(1.00, 0.00, -0.00, -1.00, 191.5, 91.8)">s</text><text xml:space="preserve" font-family="Palatino-Roman,Palatino" font-size="36.0" fill="#FEFFFF" transform="matrix(1.00, 0.00, -0.00, -1.00, 206.8, 91.8)">t</text><text xml:space="preserve" font-family="Palatino-Roman,Palatino" font-size="36.0" fill="#FEFFFF" transform="matrix(1.00, 0.00, -0.00, -1.00, 218.5, 91.8)">s</text><text xml:space="preserve" font-family="Palatino-Roman,Palatino" font-size="36.0" fill="#FEFFFF" transform="matrix(1.00, 0.00, -0.00, -1.00, 233.8, 91.8)"> </text><text xml:space="preserve" font-family="Palatino-Roman,Palatino" font-size="36.0" fill="#FEFFFF" transform="matrix(1.00, 0.00, -0.00, -1.00, 69.0, 43.8)">p</text><text xml:space="preserve" font-family="Palatino-Roman,Palatino" font-size="36.0" fill="#FEFFFF" transform="matrix(1.00, 0.00, -0.00, -1.00, 90.7, 43.8)">a</text><text xml:space="preserve" font-family="Palatino-Roman,Palatino" font-size="36.0" fill="#FEFFFF" transform="matrix(1.00, 0.00, -0.00, -1.00, 108.7, 43.8)">s</text><text xml:space="preserve" font-family="Palatino-Roman,Palatino" font-size="36.0" fill="#FEFFFF" transform="matrix(1.00, 0.00, -0.00, -1.00, 123.9, 43.8)">s</text><text xml:space="preserve" font-family="Palatino-Roman,Palatino" font-size="36.0" fill="#FEFFFF" transform="matrix(1.00, 0.00, -0.00, -1.00, 139.2, 43.8)">i</text><text xml:space="preserve" font-family="Palatino-Roman,Palatino" font-size="36.0" fill="#FEFFFF" transform="matrix(1.00, 0.00, -0.00, -1.00, 149.6, 43.8)">n</text><text xml:space="preserve" font-family="Palatino-Roman,Palatino" font-size="36.0" fill="#FEFFFF" transform="matrix(1.00, 0.00, -0.00, -1.00, 170.6, 43.8)">g</text></g></g></g></svg>