<?xml version="1.0" encoding="UTF-8" standalone="no"?><svg xmlns="http://www.w3.org/2000/svg" xmlns:xlink="http://www.w3.org/1999/xlink" clip-rule="evenodd" stroke-miterlimit="10" viewBox="0 0 1074 91"><desc>SVG generated by Keynote</desc><defs></defs><g transform="matrix(1.00, 0.00, -0.00, -1.00, 0.0, 91.0)"><text xml:space="preserve" font-family="HorizonBT-Regular,Horizon BT" font-size="128.0" fill="#FFD941" transform="matrix(1.00, 0.00, -0.00, -1.00, -4.2, 1.2)">R</text><text xml:space="preserve" font-family="HorizonBT-Regular,Horizon BT" font-size="128.0" fill="#FFD941" transform="matrix(1.00, 0.00, -0.00, -1.00, 46.3, 1.2)">E</text><text xml:space="preserve" font-family="HorizonBT-Regular,Horizon BT" font-size="128.0" fill="#FFD941" transform="matrix(1.00, 0.00, -0.00, -1.00, 90.5, 1.2)">D</text><text xml:space="preserve" font-family="HorizonBT-Regular,Horizon BT" font-size="128.0" fill="#FFD941" transform="matrix(1.00, 0.00, -0.00, -1.00, 141.1, 1.2)">…</text><text xml:space="preserve" font-family="HorizonBT-Regular,Horizon BT" font-size="128.0" fill="#FFD941" transform="matrix(1.00, 0.00, -0.00, -1.00, 269.1, 1.2)"> </text><text xml:space="preserve" font-family="HorizonBT-Regular,Horizon BT" font-size="128.0" fill="#FFD941" transform="matrix(1.00, 0.00, -0.00, -1.00, 294.5, 1.2)">G</text><text xml:space="preserve" font-family="HorizonBT-Regular,Horizon BT" font-size="128.0" fill="#FFD941" transform="matrix(1.00, 0.00, -0.00, -1.00, 345.0, 1.2)">R</text><text xml:space="preserve" font-family="HorizonBT-Regular,Horizon BT" font-size="128.0" fill="#FFD941" transform="matrix(1.00, 0.00, -0.00, -1.00, 395.5, 1.2)">E</text><text xml:space="preserve" font-family="HorizonBT-Regular,Horizon BT" font-size="128.0" fill="#FFD941" transform="matrix(1.00, 0.00, -0.00, -1.00, 439.7, 1.2)">E</text><text xml:space="preserve" font-family="HorizonBT-Regular,Horizon BT" font-size="128.0" fill="#FFD941" transform="matrix(1.00, 0.00, -0.00, -1.00, 483.9, 1.2)">N</text><text xml:space="preserve" font-family="HorizonBT-Regular,Horizon BT" font-size="128.0" fill="#FFD941" transform="matrix(1.00, 0.00, -0.00, -1.00, 534.6, 1.2)">…</text><text xml:space="preserve" font-family="HorizonBT-Regular,Horizon BT" font-size="128.0" fill="#FFD941" transform="matrix(1.00, 0.00, -0.00, -1.00, 662.6, 1.2)"> </text><text xml:space="preserve" font-family="HorizonBT-Regular,Horizon BT" font-size="128.0" fill="#FFD941" transform="matrix(1.00, 0.00, -0.00, -1.00, 688.0, 1.2)">R</text><text xml:space="preserve" font-family="HorizonBT-Regular,Horizon BT" font-size="128.0" fill="#FFD941" transform="matrix(1.00, 0.00, -0.00, -1.00, 738.4, 1.2)">E</text><text xml:space="preserve" font-family="HorizonBT-Regular,Horizon BT" font-size="128.0" fill="#FFD941" transform="matrix(1.00, 0.00, -0.00, -1.00, 782.6, 1.2)">F</text><text xml:space="preserve" font-family="HorizonBT-Regular,Horizon BT" font-size="128.0" fill="#FFD941" transform="matrix(1.00, 0.00, -0.00, -1.00, 825.2, 1.2)">A</text><text xml:space="preserve" font-family="HorizonBT-Regular,Horizon BT" font-size="128.0" fill="#FFD941" transform="matrix(1.00, 0.00, -0.00, -1.00, 875.9, 1.2)">C</text><text xml:space="preserve" font-family="HorizonBT-Regular,Horizon BT" font-size="128.0" fill="#FFD941" transform="matrix(1.00, 0.00, -0.00, -1.00, 926.4, 1.2)">T</text><text xml:space="preserve" font-family="HorizonBT-Regular,Horizon BT" font-size="128.0" fill="#FFD941" transform="matrix(1.00, 0.00, -0.00, -1.00, 971.4, 1.2)">O</text><text xml:space="preserve" font-family="HorizonBT-Regular,Horizon BT" font-size="128.0" fill="#FFD941" transform="matrix(1.00, 0.00, -0.00, -1.00, 1021.9, 1.2)">R</text></g></svg>