<?xml version="1.0" encoding="UTF-8" standalone="no"?><svg xmlns="http://www.w3.org/2000/svg" xmlns:xlink="http://www.w3.org/1999/xlink" clip-rule="evenodd" stroke-miterlimit="10" viewBox="0 0 223 31"><desc>SVG generated by Keynote</desc><defs></defs><g transform="matrix(1.00, 0.00, -0.00, -1.00, 0.0, 31.0)"><text xml:space="preserve" font-family="Palatino-Roman,Palatino" font-size="36.0" fill="#FEFFFF" transform="matrix(1.00, 0.00, -0.00, -1.00, 0.9, 3.1)">c</text><text xml:space="preserve" font-family="Palatino-Roman,Palatino" font-size="36.0" fill="#FEFFFF" transform="matrix(1.00, 0.00, -0.00, -1.00, 16.9, 3.1)">o</text><text xml:space="preserve" font-family="Palatino-Roman,Palatino" font-size="36.0" fill="#FEFFFF" transform="matrix(1.00, 0.00, -0.00, -1.00, 36.5, 3.1)">r</text><text xml:space="preserve" font-family="Palatino-Roman,Palatino" font-size="36.0" fill="#FEFFFF" transform="matrix(1.00, 0.00, -0.00, -1.00, 50.7, 3.1)">r</text><text xml:space="preserve" font-family="Palatino-Roman,Palatino" font-size="36.0" fill="#FEFFFF" transform="matrix(1.00, 0.00, -0.00, -1.00, 64.3, 3.1)">e</text><text xml:space="preserve" font-family="Palatino-Roman,Palatino" font-size="36.0" fill="#FEFFFF" transform="matrix(1.00, 0.00, -0.00, -1.00, 81.6, 3.1)">c</text><text xml:space="preserve" font-family="Palatino-Roman,Palatino" font-size="36.0" fill="#FEFFFF" transform="matrix(1.00, 0.00, -0.00, -1.00, 97.5, 3.1)">t</text><text xml:space="preserve" font-family="Palatino-Roman,Palatino" font-size="36.0" fill="#FEFFFF" transform="matrix(1.00, 0.00, -0.00, -1.00, 109.3, 3.1)"> </text><text xml:space="preserve" font-family="Palatino-Roman,Palatino" font-size="36.0" fill="#FEFFFF" transform="matrix(1.00, 0.00, -0.00, -1.00, 118.3, 3.1)">f</text><text xml:space="preserve" font-family="Palatino-Roman,Palatino" font-size="36.0" fill="#FEFFFF" transform="matrix(1.00, 0.00, -0.00, -1.00, 130.3, 3.1)">a</text><text xml:space="preserve" font-family="Palatino-Roman,Palatino" font-size="36.0" fill="#FEFFFF" transform="matrix(1.00, 0.00, -0.00, -1.00, 148.3, 3.1)">i</text><text xml:space="preserve" font-family="Palatino-Roman,Palatino" font-size="36.0" fill="#FEFFFF" transform="matrix(1.00, 0.00, -0.00, -1.00, 158.8, 3.1)">l</text><text xml:space="preserve" font-family="Palatino-Roman,Palatino" font-size="36.0" fill="#FEFFFF" transform="matrix(1.00, 0.00, -0.00, -1.00, 169.2, 3.1)">u</text><text xml:space="preserve" font-family="Palatino-Roman,Palatino" font-size="36.0" fill="#FEFFFF" transform="matrix(1.00, 0.00, -0.00, -1.00, 190.9, 3.1)">r</text><text xml:space="preserve" font-family="Palatino-Roman,Palatino" font-size="36.0" fill="#FEFFFF" transform="matrix(1.00, 0.00, -0.00, -1.00, 204.5, 3.1)">e</text></g></svg>