<?xml version="1.0" encoding="UTF-8" standalone="no"?><svg xmlns="http://www.w3.org/2000/svg" xmlns:xlink="http://www.w3.org/1999/xlink" clip-rule="evenodd" stroke-miterlimit="10" viewBox="0 0 1500 91"><desc>SVG generated by Keynote</desc><defs></defs><g transform="matrix(1.00, 0.00, -0.00, -1.00, 0.0, 91.0)"><text xml:space="preserve" font-family="HorizonBT-Regular,Horizon BT" font-size="128.0" fill="#FFD941" transform="matrix(1.00, 0.00, -0.00, -1.00, -3.6, 1.2)">R</text><text xml:space="preserve" font-family="HorizonBT-Regular,Horizon BT" font-size="128.0" fill="#FFD941" transform="matrix(1.00, 0.00, -0.00, -1.00, 46.8, 1.2)">E</text><text xml:space="preserve" font-family="HorizonBT-Regular,Horizon BT" font-size="128.0" fill="#FFD941" transform="matrix(1.00, 0.00, -0.00, -1.00, 91.1, 1.2)">D</text><text xml:space="preserve" font-family="HorizonBT-Regular,Horizon BT" font-size="128.0" fill="#FFD941" transform="matrix(1.00, 0.00, -0.00, -1.00, 141.6, 1.2)">…</text><text xml:space="preserve" font-family="HorizonBT-Regular,Horizon BT" font-size="128.0" fill="#FFD941" transform="matrix(1.00, 0.00, -0.00, -1.00, 269.6, 1.2)"> </text><text xml:space="preserve" font-family="HorizonBT-Regular,Horizon BT" font-size="128.0" fill="#FFD941" transform="matrix(1.00, 0.00, -0.00, -1.00, 295.0, 1.2)">A</text><text xml:space="preserve" font-family="HorizonBT-Regular,Horizon BT" font-size="128.0" fill="#FFD941" transform="matrix(1.00, 0.00, -0.00, -1.00, 345.7, 1.2)">M</text><text xml:space="preserve" font-family="HorizonBT-Regular,Horizon BT" font-size="128.0" fill="#FFD941" transform="matrix(1.00, 0.00, -0.00, -1.00, 421.3, 1.2)">B</text><text xml:space="preserve" font-family="HorizonBT-Regular,Horizon BT" font-size="128.0" fill="#FFD941" transform="matrix(1.00, 0.00, -0.00, -1.00, 471.9, 1.2)">E</text><text xml:space="preserve" font-family="HorizonBT-Regular,Horizon BT" font-size="128.0" fill="#FFD941" transform="matrix(1.00, 0.00, -0.00, -1.00, 516.1, 1.2)">R</text><text xml:space="preserve" font-family="HorizonBT-Regular,Horizon BT" font-size="128.0" fill="#FFD941" transform="matrix(1.00, 0.00, -0.00, -1.00, 566.5, 1.2)">…</text><text xml:space="preserve" font-family="HorizonBT-Regular,Horizon BT" font-size="128.0" fill="#FFD941" transform="matrix(1.00, 0.00, -0.00, -1.00, 694.5, 1.2)"> </text><text xml:space="preserve" font-family="HorizonBT-Regular,Horizon BT" font-size="128.0" fill="#FFD941" transform="matrix(1.00, 0.00, -0.00, -1.00, 719.9, 1.2)">G</text><text xml:space="preserve" font-family="HorizonBT-Regular,Horizon BT" font-size="128.0" fill="#FFD941" transform="matrix(1.00, 0.00, -0.00, -1.00, 770.5, 1.2)">R</text><text xml:space="preserve" font-family="HorizonBT-Regular,Horizon BT" font-size="128.0" fill="#FFD941" transform="matrix(1.00, 0.00, -0.00, -1.00, 820.9, 1.2)">E</text><text xml:space="preserve" font-family="HorizonBT-Regular,Horizon BT" font-size="128.0" fill="#FFD941" transform="matrix(1.00, 0.00, -0.00, -1.00, 865.1, 1.2)">E</text><text xml:space="preserve" font-family="HorizonBT-Regular,Horizon BT" font-size="128.0" fill="#FFD941" transform="matrix(1.00, 0.00, -0.00, -1.00, 909.3, 1.2)">N</text><text xml:space="preserve" font-family="HorizonBT-Regular,Horizon BT" font-size="128.0" fill="#FFD941" transform="matrix(1.00, 0.00, -0.00, -1.00, 960.0, 1.2)">…</text><text xml:space="preserve" font-family="HorizonBT-Regular,Horizon BT" font-size="128.0" fill="#FFD941" transform="matrix(1.00, 0.00, -0.00, -1.00, 1088.0, 1.2)"> </text><text xml:space="preserve" font-family="HorizonBT-Regular,Horizon BT" font-size="128.0" fill="#FFD941" transform="matrix(1.00, 0.00, -0.00, -1.00, 1113.4, 1.2)">R</text><text xml:space="preserve" font-family="HorizonBT-Regular,Horizon BT" font-size="128.0" fill="#FFD941" transform="matrix(1.00, 0.00, -0.00, -1.00, 1163.9, 1.2)">E</text><text xml:space="preserve" font-family="HorizonBT-Regular,Horizon BT" font-size="128.0" fill="#FFD941" transform="matrix(1.00, 0.00, -0.00, -1.00, 1208.1, 1.2)">F</text><text xml:space="preserve" font-family="HorizonBT-Regular,Horizon BT" font-size="128.0" fill="#FFD941" transform="matrix(1.00, 0.00, -0.00, -1.00, 1250.7, 1.2)">A</text><text xml:space="preserve" font-family="HorizonBT-Regular,Horizon BT" font-size="128.0" fill="#FFD941" transform="matrix(1.00, 0.00, -0.00, -1.00, 1301.4, 1.2)">C</text><text xml:space="preserve" font-family="HorizonBT-Regular,Horizon BT" font-size="128.0" fill="#FFD941" transform="matrix(1.00, 0.00, -0.00, -1.00, 1351.8, 1.2)">T</text><text xml:space="preserve" font-family="HorizonBT-Regular,Horizon BT" font-size="128.0" fill="#FFD941" transform="matrix(1.00, 0.00, -0.00, -1.00, 1396.9, 1.2)">O</text><text xml:space="preserve" font-family="HorizonBT-Regular,Horizon BT" font-size="128.0" fill="#FFD941" transform="matrix(1.00, 0.00, -0.00, -1.00, 1447.3, 1.2)">R</text></g></svg>