<?xml version="1.0" encoding="UTF-8" standalone="no"?><svg xmlns="http://www.w3.org/2000/svg" xmlns:xlink="http://www.w3.org/1999/xlink" clip-rule="evenodd" stroke-miterlimit="10" viewBox="0 0 1920 1080"><desc>SVG generated by Keynote</desc><defs></defs><g transform="matrix(1.00, 0.00, -0.00, -1.00, 0.0, 1080.0)"><g><clipPath id="clip0x7f840b1d1130"><path d="M 0.0 1080.0 L 1920.0 1080.0 L 1920.0 0.0 L 0.0 0.0 Z M 0.0 1080.0 "></path></clipPath><g clip-path="url(#clip0x7f840b1d1130)"><image xlink:href="../../BF7430C7-5211-4E68-B118-AC68FDB76F0F/assets/A81AF0278930B93F47F55E5BB6D3A023.png" width="1920.00" height="1080.00" transform="matrix(1.00, 0.00, -0.00, -1.00, 0.0, 1080.0)"></image></g></g><text xml:space="preserve" font-family="HorizonBT-Regular,Horizon BT" font-size="128.0" fill="#FFD941" transform="matrix(1.00, 0.00, -0.00, -1.00, 620.1, 917.2)">…</text><text xml:space="preserve" font-family="HorizonBT-Regular,Horizon BT" font-size="128.0" fill="#FFD941" transform="matrix(1.00, 0.00, -0.00, -1.00, 748.1, 917.2)">I</text><text xml:space="preserve" font-family="HorizonBT-Regular,Horizon BT" font-size="128.0" fill="#FFD941" transform="matrix(1.00, 0.00, -0.00, -1.00, 773.5, 917.2)">N</text><text xml:space="preserve" font-family="HorizonBT-Regular,Horizon BT" font-size="128.0" fill="#FFD941" transform="matrix(1.00, 0.00, -0.00, -1.00, 824.2, 917.2)"> </text><text xml:space="preserve" font-family="HorizonBT-Regular,Horizon BT" font-size="128.0" fill="#FFD941" transform="matrix(1.00, 0.00, -0.00, -1.00, 849.6, 917.2)">G</text><text xml:space="preserve" font-family="HorizonBT-Regular,Horizon BT" font-size="128.0" fill="#FFD941" transform="matrix(1.00, 0.00, -0.00, -1.00, 900.1, 917.2)">R</text><text xml:space="preserve" font-family="HorizonBT-Regular,Horizon BT" font-size="128.0" fill="#FFD941" transform="matrix(1.00, 0.00, -0.00, -1.00, 950.6, 917.2)">O</text><text xml:space="preserve" font-family="HorizonBT-Regular,Horizon BT" font-size="128.0" fill="#FFD941" transform="matrix(1.00, 0.00, -0.00, -1.00, 1001.0, 917.2)">O</text><text xml:space="preserve" font-family="HorizonBT-Regular,Horizon BT" font-size="128.0" fill="#FFD941" transform="matrix(1.00, 0.00, -0.00, -1.00, 1051.4, 917.2)">V</text><text xml:space="preserve" font-family="HorizonBT-Regular,Horizon BT" font-size="128.0" fill="#FFD941" transform="matrix(1.00, 0.00, -0.00, -1.00, 1097.8, 917.2)">Y</text><text xml:space="preserve" font-family="HorizonBT-Regular,Horizon BT" font-size="128.0" fill="#FFD941" transform="matrix(1.00, 0.00, -0.00, -1.00, 1148.3, 917.2)"> </text><text xml:space="preserve" font-family="HorizonBT-Regular,Horizon BT" font-size="128.0" fill="#FFD941" transform="matrix(1.00, 0.00, -0.00, -1.00, 1173.7, 917.2)">2</text><text xml:space="preserve" font-family="HorizonBT-Regular,Horizon BT" font-size="128.0" fill="#FFD941" transform="matrix(1.00, 0.00, -0.00, -1.00, 1224.2, 917.2)">.</text><text xml:space="preserve" font-family="HorizonBT-Regular,Horizon BT" font-size="128.0" fill="#FFD941" transform="matrix(1.00, 0.00, -0.00, -1.00, 1249.4, 917.2)">3</text><text xml:space="preserve" font-family="FiraMono-Regular,Fira Mono" font-size="46.8" fill="#C07B1E" transform="matrix(1.00, 0.00, -0.00, -1.00, 137.0, 777.4)">t</text><text xml:space="preserve" font-family="FiraMono-Regular,Fira Mono" font-size="46.8" fill="#C07B1E" transform="matrix(1.00, 0.00, -0.00, -1.00, 165.1, 777.4)">r</text><text xml:space="preserve" font-family="FiraMono-Regular,Fira Mono" font-size="46.8" fill="#C07B1E" transform="matrix(1.00, 0.00, -0.00, -1.00, 193.2, 777.4)">a</text><text xml:space="preserve" font-family="FiraMono-Regular,Fira Mono" font-size="46.8" fill="#C07B1E" transform="matrix(1.00, 0.00, -0.00, -1.00, 221.2, 777.4)">i</text><text xml:space="preserve" font-family="FiraMono-Regular,Fira Mono" font-size="46.8" fill="#C07B1E" transform="matrix(1.00, 0.00, -0.00, -1.00, 249.3, 777.4)">t</text><text xml:space="preserve" font-family="FiraMono-Regular,Fira Mono" font-size="46.8" fill="#FFFFFF" transform="matrix(1.00, 0.00, -0.00, -1.00, 277.4, 777.4)"> </text><text xml:space="preserve" font-family="FiraMono-Regular,Fira Mono" font-size="46.8" fill="#FFFFFF" transform="matrix(1.00, 0.00, -0.00, -1.00, 305.5, 777.4)">S</text><text xml:space="preserve" font-family="FiraMono-Regular,Fira Mono" font-size="46.8" fill="#FFFFFF" transform="matrix(1.00, 0.00, -0.00, -1.00, 333.6, 777.4)">t</text><text xml:space="preserve" font-family="FiraMono-Regular,Fira Mono" font-size="46.8" fill="#FFFFFF" transform="matrix(1.00, 0.00, -0.00, -1.00, 361.6, 777.4)">o</text><text xml:space="preserve" font-family="FiraMono-Regular,Fira Mono" font-size="46.8" fill="#FFFFFF" transform="matrix(1.00, 0.00, -0.00, -1.00, 389.7, 777.4)">r</text><text xml:space="preserve" font-family="FiraMono-Regular,Fira Mono" font-size="46.8" fill="#FFFFFF" transform="matrix(1.00, 0.00, -0.00, -1.00, 417.8, 777.4)">e</text><text xml:space="preserve" font-family="FiraMono-Regular,Fira Mono" font-size="46.8" fill="#FFFFFF" transform="matrix(1.00, 0.00, -0.00, -1.00, 445.9, 777.4)">I</text><text xml:space="preserve" font-family="FiraMono-Regular,Fira Mono" font-size="46.8" fill="#FFFFFF" transform="matrix(1.00, 0.00, -0.00, -1.00, 474.0, 777.4)">n</text><text xml:space="preserve" font-family="FiraMono-Regular,Fira Mono" font-size="46.8" fill="#FFFFFF" transform="matrix(1.00, 0.00, -0.00, -1.00, 502.0, 777.4)">t</text><text xml:space="preserve" font-family="FiraMono-Regular,Fira Mono" font-size="46.8" fill="#FFFFFF" transform="matrix(1.00, 0.00, -0.00, -1.00, 530.1, 777.4)">e</text><text xml:space="preserve" font-family="FiraMono-Regular,Fira Mono" font-size="46.8" fill="#FFFFFF" transform="matrix(1.00, 0.00, -0.00, -1.00, 558.2, 777.4)">r</text><text xml:space="preserve" font-family="FiraMono-Regular,Fira Mono" font-size="46.8" fill="#FFFFFF" transform="matrix(1.00, 0.00, -0.00, -1.00, 586.3, 777.4)">a</text><text xml:space="preserve" font-family="FiraMono-Regular,Fira Mono" font-size="46.8" fill="#FFFFFF" transform="matrix(1.00, 0.00, -0.00, -1.00, 614.4, 777.4)">c</text><text xml:space="preserve" font-family="FiraMono-Regular,Fira Mono" font-size="46.8" fill="#FFFFFF" transform="matrix(1.00, 0.00, -0.00, -1.00, 642.4, 777.4)">t</text><text xml:space="preserve" font-family="FiraMono-Regular,Fira Mono" font-size="46.8" fill="#FFFFFF" transform="matrix(1.00, 0.00, -0.00, -1.00, 670.5, 777.4)">i</text><text xml:space="preserve" font-family="FiraMono-Regular,Fira Mono" font-size="46.8" fill="#FFFFFF" transform="matrix(1.00, 0.00, -0.00, -1.00, 698.6, 777.4)">o</text><text xml:space="preserve" font-family="FiraMono-Regular,Fira Mono" font-size="46.8" fill="#FFFFFF" transform="matrix(1.00, 0.00, -0.00, -1.00, 726.7, 777.4)">n</text><text xml:space="preserve" font-family="FiraMono-Regular,Fira Mono" font-size="46.8" fill="#FFFFFF" transform="matrix(1.00, 0.00, -0.00, -1.00, 754.8, 777.4)">s</text><text xml:space="preserve" font-family="FiraMono-Regular,Fira Mono" font-size="46.8" fill="#000000" transform="matrix(1.00, 0.00, -0.00, -1.00, 782.8, 777.4)"> </text><text xml:space="preserve" font-family="FiraMono-Regular,Fira Mono" font-size="46.8" fill="#FFFFFF" transform="matrix(1.00, 0.00, -0.00, -1.00, 810.9, 777.4)">{</text><text xml:space="preserve" font-family="FiraMono-Regular,Fira Mono" font-size="46.8" fill="#000000" transform="matrix(1.00, 0.00, -0.00, -1.00, 839.0, 777.4)"> </text><text xml:space="preserve" font-family="FiraMono-Regular,Fira Mono" font-size="46.8" fill="#000000" transform="matrix(1.00, 0.00, -0.00, -1.00, 137.0, 705.4)"> </text><text xml:space="preserve" font-family="FiraMono-Regular,Fira Mono" font-size="46.8" fill="#000000" transform="matrix(1.00, 0.00, -0.00, -1.00, 165.1, 705.4)"> </text><text xml:space="preserve" font-family="FiraMono-Regular,Fira Mono" font-size="46.8" fill="#00F900" transform="matrix(1.00, 0.00, -0.00, -1.00, 193.2, 705.4)">v</text><text xml:space="preserve" font-family="FiraMono-Regular,Fira Mono" font-size="46.8" fill="#00F900" transform="matrix(1.00, 0.00, -0.00, -1.00, 221.2, 705.4)">o</text><text xml:space="preserve" font-family="FiraMono-Regular,Fira Mono" font-size="46.8" fill="#00F900" transform="matrix(1.00, 0.00, -0.00, -1.00, 249.3, 705.4)">i</text><text xml:space="preserve" font-family="FiraMono-Regular,Fira Mono" font-size="46.8" fill="#00F900" transform="matrix(1.00, 0.00, -0.00, -1.00, 277.4, 705.4)">d</text><text xml:space="preserve" font-family="FiraMono-Regular,Fira Mono" font-size="46.8" fill="#000000" transform="matrix(1.00, 0.00, -0.00, -1.00, 305.5, 705.4)"> </text><text xml:space="preserve" font-family="FiraMono-Regular,Fira Mono" font-size="46.8" fill="#FFFFFF" transform="matrix(1.00, 0.00, -0.00, -1.00, 333.6, 705.4)">l</text><text xml:space="preserve" font-family="FiraMono-Regular,Fira Mono" font-size="46.8" fill="#FFFFFF" transform="matrix(1.00, 0.00, -0.00, -1.00, 361.6, 705.4)">o</text><text xml:space="preserve" font-family="FiraMono-Regular,Fira Mono" font-size="46.8" fill="#FFFFFF" transform="matrix(1.00, 0.00, -0.00, -1.00, 389.7, 705.4)">g</text><text xml:space="preserve" font-family="FiraMono-Regular,Fira Mono" font-size="46.8" fill="#FFFFFF" transform="matrix(1.00, 0.00, -0.00, -1.00, 417.8, 705.4)">g</text><text xml:space="preserve" font-family="FiraMono-Regular,Fira Mono" font-size="46.8" fill="#FFFFFF" transform="matrix(1.00, 0.00, -0.00, -1.00, 445.9, 705.4)">e</text><text xml:space="preserve" font-family="FiraMono-Regular,Fira Mono" font-size="46.8" fill="#FFFFFF" transform="matrix(1.00, 0.00, -0.00, -1.00, 474.0, 705.4)">d</text><text xml:space="preserve" font-family="FiraMono-Regular,Fira Mono" font-size="46.8" fill="#FFFFFF" transform="matrix(1.00, 0.00, -0.00, -1.00, 502.0, 705.4)">I</text><text xml:space="preserve" font-family="FiraMono-Regular,Fira Mono" font-size="46.8" fill="#FFFFFF" transform="matrix(1.00, 0.00, -0.00, -1.00, 530.1, 705.4)">n</text><text xml:space="preserve" font-family="FiraMono-Regular,Fira Mono" font-size="46.8" fill="#FFFFFF" transform="matrix(1.00, 0.00, -0.00, -1.00, 558.2, 705.4)">A</text><text xml:space="preserve" font-family="FiraMono-Regular,Fira Mono" font-size="46.8" fill="#FFFFFF" transform="matrix(1.00, 0.00, -0.00, -1.00, 586.3, 705.4)">s</text><text xml:space="preserve" font-family="FiraMono-Regular,Fira Mono" font-size="46.8" fill="#FFFFFF" transform="matrix(1.00, 0.00, -0.00, -1.00, 614.4, 705.4)">(</text><text xml:space="preserve" font-family="FiraMono-Regular,Fira Mono" font-size="46.8" fill="#FFFFFF" transform="matrix(1.00, 0.00, -0.00, -1.00, 642.4, 705.4)">u</text><text xml:space="preserve" font-family="FiraMono-Regular,Fira Mono" font-size="46.8" fill="#FFFFFF" transform="matrix(1.00, 0.00, -0.00, -1.00, 670.5, 705.4)">s</text><text xml:space="preserve" font-family="FiraMono-Regular,Fira Mono" font-size="46.8" fill="#FFFFFF" transform="matrix(1.00, 0.00, -0.00, -1.00, 698.6, 705.4)">e</text><text xml:space="preserve" font-family="FiraMono-Regular,Fira Mono" font-size="46.8" fill="#FFFFFF" transform="matrix(1.00, 0.00, -0.00, -1.00, 726.7, 705.4)">r</text><text xml:space="preserve" font-family="FiraMono-Regular,Fira Mono" font-size="46.8" fill="#FFFFFF" transform="matrix(1.00, 0.00, -0.00, -1.00, 754.8, 705.4)">)</text><text xml:space="preserve" font-family="FiraMono-Regular,Fira Mono" font-size="46.8" fill="#FFFFFF" transform="matrix(1.00, 0.00, -0.00, -1.00, 782.8, 705.4)"> </text><text xml:space="preserve" font-family="FiraMono-Regular,Fira Mono" font-size="46.8" fill="#FFFFFF" transform="matrix(1.00, 0.00, -0.00, -1.00, 810.9, 705.4)">{</text><text xml:space="preserve" font-family="FiraMono-Regular,Fira Mono" font-size="46.8" fill="#FFFFFF" transform="matrix(1.00, 0.00, -0.00, -1.00, 839.0, 705.4)">}</text><text xml:space="preserve" font-family="FiraMono-Regular,Fira Mono" font-size="46.8" fill="#000000" transform="matrix(1.00, 0.00, -0.00, -1.00, 867.1, 705.4)"> </text><text xml:space="preserve" font-family="FiraMono-Regular,Fira Mono" font-size="46.8" fill="#000000" transform="matrix(1.00, 0.00, -0.00, -1.00, 137.0, 561.4)"> </text><text xml:space="preserve" font-family="FiraMono-Regular,Fira Mono" font-size="46.8" fill="#000000" transform="matrix(1.00, 0.00, -0.00, -1.00, 165.1, 561.4)"> </text><text xml:space="preserve" font-family="FiraMono-Regular,Fira Mono" font-size="46.8" fill="#00F900" transform="matrix(1.00, 0.00, -0.00, -1.00, 193.2, 561.4)">v</text><text xml:space="preserve" font-family="FiraMono-Regular,Fira Mono" font-size="46.8" fill="#00F900" transform="matrix(1.00, 0.00, -0.00, -1.00, 221.2, 561.4)">o</text><text xml:space="preserve" font-family="FiraMono-Regular,Fira Mono" font-size="46.8" fill="#00F900" transform="matrix(1.00, 0.00, -0.00, -1.00, 249.3, 561.4)">i</text><text xml:space="preserve" font-family="FiraMono-Regular,Fira Mono" font-size="46.8" fill="#00F900" transform="matrix(1.00, 0.00, -0.00, -1.00, 277.4, 561.4)">d</text><text xml:space="preserve" font-family="FiraMono-Regular,Fira Mono" font-size="46.8" fill="#000000" transform="matrix(1.00, 0.00, -0.00, -1.00, 305.5, 561.4)"> </text><text xml:space="preserve" font-family="FiraMono-Regular,Fira Mono" font-size="46.8" fill="#FFFFFF" transform="matrix(1.00, 0.00, -0.00, -1.00, 333.6, 561.4)">a</text><text xml:space="preserve" font-family="FiraMono-Regular,Fira Mono" font-size="46.8" fill="#FFFFFF" transform="matrix(1.00, 0.00, -0.00, -1.00, 361.6, 561.4)">d</text><text xml:space="preserve" font-family="FiraMono-Regular,Fira Mono" font-size="46.8" fill="#FFFFFF" transform="matrix(1.00, 0.00, -0.00, -1.00, 389.7, 561.4)">d</text><text xml:space="preserve" font-family="FiraMono-Regular,Fira Mono" font-size="46.8" fill="#FFFFFF" transform="matrix(1.00, 0.00, -0.00, -1.00, 417.8, 561.4)">e</text><text xml:space="preserve" font-family="FiraMono-Regular,Fira Mono" font-size="46.8" fill="#FFFFFF" transform="matrix(1.00, 0.00, -0.00, -1.00, 445.9, 561.4)">d</text><text xml:space="preserve" font-family="FiraMono-Regular,Fira Mono" font-size="46.8" fill="#FFFFFF" transform="matrix(1.00, 0.00, -0.00, -1.00, 474.0, 561.4)">T</text><text xml:space="preserve" font-family="FiraMono-Regular,Fira Mono" font-size="46.8" fill="#FFFFFF" transform="matrix(1.00, 0.00, -0.00, -1.00, 502.0, 561.4)">o</text><text xml:space="preserve" font-family="FiraMono-Regular,Fira Mono" font-size="46.8" fill="#FFFFFF" transform="matrix(1.00, 0.00, -0.00, -1.00, 530.1, 561.4)">B</text><text xml:space="preserve" font-family="FiraMono-Regular,Fira Mono" font-size="46.8" fill="#FFFFFF" transform="matrix(1.00, 0.00, -0.00, -1.00, 558.2, 561.4)">a</text><text xml:space="preserve" font-family="FiraMono-Regular,Fira Mono" font-size="46.8" fill="#FFFFFF" transform="matrix(1.00, 0.00, -0.00, -1.00, 586.3, 561.4)">s</text><text xml:space="preserve" font-family="FiraMono-Regular,Fira Mono" font-size="46.8" fill="#FFFFFF" transform="matrix(1.00, 0.00, -0.00, -1.00, 614.4, 561.4)">k</text><text xml:space="preserve" font-family="FiraMono-Regular,Fira Mono" font-size="46.8" fill="#FFFFFF" transform="matrix(1.00, 0.00, -0.00, -1.00, 642.4, 561.4)">e</text><text xml:space="preserve" font-family="FiraMono-Regular,Fira Mono" font-size="46.8" fill="#FFFFFF" transform="matrix(1.00, 0.00, -0.00, -1.00, 670.5, 561.4)">t</text><text xml:space="preserve" font-family="FiraMono-Regular,Fira Mono" font-size="46.8" fill="#FFFFFF" transform="matrix(1.00, 0.00, -0.00, -1.00, 698.6, 561.4)">(</text><text xml:space="preserve" font-family="FiraMono-Regular,Fira Mono" font-size="46.8" fill="#FFFFFF" transform="matrix(1.00, 0.00, -0.00, -1.00, 726.7, 561.4)">S</text><text xml:space="preserve" font-family="FiraMono-Regular,Fira Mono" font-size="46.8" fill="#FFFFFF" transform="matrix(1.00, 0.00, -0.00, -1.00, 754.8, 561.4)">t</text><text xml:space="preserve" font-family="FiraMono-Regular,Fira Mono" font-size="46.8" fill="#FFFFFF" transform="matrix(1.00, 0.00, -0.00, -1.00, 782.8, 561.4)">r</text><text xml:space="preserve" font-family="FiraMono-Regular,Fira Mono" font-size="46.8" fill="#FFFFFF" transform="matrix(1.00, 0.00, -0.00, -1.00, 810.9, 561.4)">i</text><text xml:space="preserve" font-family="FiraMono-Regular,Fira Mono" font-size="46.8" fill="#FFFFFF" transform="matrix(1.00, 0.00, -0.00, -1.00, 839.0, 561.4)">n</text><text xml:space="preserve" font-family="FiraMono-Regular,Fira Mono" font-size="46.8" fill="#FFFFFF" transform="matrix(1.00, 0.00, -0.00, -1.00, 867.1, 561.4)">g</text><text xml:space="preserve" font-family="FiraMono-Regular,Fira Mono" font-size="46.8" fill="#FFFFFF" transform="matrix(1.00, 0.00, -0.00, -1.00, 895.2, 561.4)"> </text><text xml:space="preserve" font-family="FiraMono-Regular,Fira Mono" font-size="46.8" fill="#FFFFFF" transform="matrix(1.00, 0.00, -0.00, -1.00, 923.2, 561.4)">p</text><text xml:space="preserve" font-family="FiraMono-Regular,Fira Mono" font-size="46.8" fill="#FFFFFF" transform="matrix(1.00, 0.00, -0.00, -1.00, 951.3, 561.4)">r</text><text xml:space="preserve" font-family="FiraMono-Regular,Fira Mono" font-size="46.8" fill="#FFFFFF" transform="matrix(1.00, 0.00, -0.00, -1.00, 979.4, 561.4)">o</text><text xml:space="preserve" font-family="FiraMono-Regular,Fira Mono" font-size="46.8" fill="#FFFFFF" transform="matrix(1.00, 0.00, -0.00, -1.00, 1007.5, 561.4)">d</text><text xml:space="preserve" font-family="FiraMono-Regular,Fira Mono" font-size="46.8" fill="#FFFFFF" transform="matrix(1.00, 0.00, -0.00, -1.00, 1035.6, 561.4)">u</text><text xml:space="preserve" font-family="FiraMono-Regular,Fira Mono" font-size="46.8" fill="#FFFFFF" transform="matrix(1.00, 0.00, -0.00, -1.00, 1063.6, 561.4)">c</text><text xml:space="preserve" font-family="FiraMono-Regular,Fira Mono" font-size="46.8" fill="#FFFFFF" transform="matrix(1.00, 0.00, -0.00, -1.00, 1091.7, 561.4)">t</text><text xml:space="preserve" font-family="FiraMono-Regular,Fira Mono" font-size="46.8" fill="#FFFFFF" transform="matrix(1.00, 0.00, -0.00, -1.00, 1119.8, 561.4)">N</text><text xml:space="preserve" font-family="FiraMono-Regular,Fira Mono" font-size="46.8" fill="#FFFFFF" transform="matrix(1.00, 0.00, -0.00, -1.00, 1147.9, 561.4)">a</text><text xml:space="preserve" font-family="FiraMono-Regular,Fira Mono" font-size="46.8" fill="#FFFFFF" transform="matrix(1.00, 0.00, -0.00, -1.00, 1176.0, 561.4)">m</text><text xml:space="preserve" font-family="FiraMono-Regular,Fira Mono" font-size="46.8" fill="#FFFFFF" transform="matrix(1.00, 0.00, -0.00, -1.00, 1204.0, 561.4)">e</text><text xml:space="preserve" font-family="FiraMono-Regular,Fira Mono" font-size="46.8" fill="#FFFFFF" transform="matrix(1.00, 0.00, -0.00, -1.00, 1232.1, 561.4)">)</text><text xml:space="preserve" font-family="FiraMono-Regular,Fira Mono" font-size="46.8" fill="#FFFFFF" transform="matrix(1.00, 0.00, -0.00, -1.00, 1260.2, 561.4)"> </text><text xml:space="preserve" font-family="FiraMono-Regular,Fira Mono" font-size="46.8" fill="#FFFFFF" transform="matrix(1.00, 0.00, -0.00, -1.00, 1288.3, 561.4)">{</text><text xml:space="preserve" font-family="FiraMono-Regular,Fira Mono" font-size="46.8" fill="#FFFFFF" transform="matrix(1.00, 0.00, -0.00, -1.00, 1316.4, 561.4)">}</text><text xml:space="preserve" font-family="FiraMono-Regular,Fira Mono" font-size="46.8" fill="#000000" transform="matrix(1.00, 0.00, -0.00, -1.00, 1344.4, 561.4)"> </text><text xml:space="preserve" font-family="FiraMono-Regular,Fira Mono" font-size="46.8" fill="#000000" transform="matrix(1.00, 0.00, -0.00, -1.00, 137.0, 417.4)"> </text><text xml:space="preserve" font-family="FiraMono-Regular,Fira Mono" font-size="46.8" fill="#000000" transform="matrix(1.00, 0.00, -0.00, -1.00, 165.1, 417.4)"> </text><text xml:space="preserve" font-family="FiraMono-Regular,Fira Mono" font-size="46.8" fill="#00F900" transform="matrix(1.00, 0.00, -0.00, -1.00, 193.2, 417.4)">v</text><text xml:space="preserve" font-family="FiraMono-Regular,Fira Mono" font-size="46.8" fill="#00F900" transform="matrix(1.00, 0.00, -0.00, -1.00, 221.2, 417.4)">o</text><text xml:space="preserve" font-family="FiraMono-Regular,Fira Mono" font-size="46.8" fill="#00F900" transform="matrix(1.00, 0.00, -0.00, -1.00, 249.3, 417.4)">i</text><text xml:space="preserve" font-family="FiraMono-Regular,Fira Mono" font-size="46.8" fill="#00F900" transform="matrix(1.00, 0.00, -0.00, -1.00, 277.4, 417.4)">d</text><text xml:space="preserve" font-family="FiraMono-Regular,Fira Mono" font-size="46.8" fill="#000000" transform="matrix(1.00, 0.00, -0.00, -1.00, 305.5, 417.4)"> </text><text xml:space="preserve" font-family="FiraMono-Regular,Fira Mono" font-size="46.8" fill="#FFFFFF" transform="matrix(1.00, 0.00, -0.00, -1.00, 333.6, 417.4)">c</text><text xml:space="preserve" font-family="FiraMono-Regular,Fira Mono" font-size="46.8" fill="#FFFFFF" transform="matrix(1.00, 0.00, -0.00, -1.00, 361.6, 417.4)">o</text><text xml:space="preserve" font-family="FiraMono-Regular,Fira Mono" font-size="46.8" fill="#FFFFFF" transform="matrix(1.00, 0.00, -0.00, -1.00, 389.7, 417.4)">m</text><text xml:space="preserve" font-family="FiraMono-Regular,Fira Mono" font-size="46.8" fill="#FFFFFF" transform="matrix(1.00, 0.00, -0.00, -1.00, 417.8, 417.4)">p</text><text xml:space="preserve" font-family="FiraMono-Regular,Fira Mono" font-size="46.8" fill="#FFFFFF" transform="matrix(1.00, 0.00, -0.00, -1.00, 445.9, 417.4)">l</text><text xml:space="preserve" font-family="FiraMono-Regular,Fira Mono" font-size="46.8" fill="#FFFFFF" transform="matrix(1.00, 0.00, -0.00, -1.00, 474.0, 417.4)">e</text><text xml:space="preserve" font-family="FiraMono-Regular,Fira Mono" font-size="46.8" fill="#FFFFFF" transform="matrix(1.00, 0.00, -0.00, -1.00, 502.0, 417.4)">t</text><text xml:space="preserve" font-family="FiraMono-Regular,Fira Mono" font-size="46.8" fill="#FFFFFF" transform="matrix(1.00, 0.00, -0.00, -1.00, 530.1, 417.4)">e</text><text xml:space="preserve" font-family="FiraMono-Regular,Fira Mono" font-size="46.8" fill="#FFFFFF" transform="matrix(1.00, 0.00, -0.00, -1.00, 558.2, 417.4)">C</text><text xml:space="preserve" font-family="FiraMono-Regular,Fira Mono" font-size="46.8" fill="#FFFFFF" transform="matrix(1.00, 0.00, -0.00, -1.00, 586.3, 417.4)">h</text><text xml:space="preserve" font-family="FiraMono-Regular,Fira Mono" font-size="46.8" fill="#FFFFFF" transform="matrix(1.00, 0.00, -0.00, -1.00, 614.4, 417.4)">e</text><text xml:space="preserve" font-family="FiraMono-Regular,Fira Mono" font-size="46.8" fill="#FFFFFF" transform="matrix(1.00, 0.00, -0.00, -1.00, 642.4, 417.4)">c</text><text xml:space="preserve" font-family="FiraMono-Regular,Fira Mono" font-size="46.8" fill="#FFFFFF" transform="matrix(1.00, 0.00, -0.00, -1.00, 670.5, 417.4)">k</text><text xml:space="preserve" font-family="FiraMono-Regular,Fira Mono" font-size="46.8" fill="#FFFFFF" transform="matrix(1.00, 0.00, -0.00, -1.00, 698.6, 417.4)">o</text><text xml:space="preserve" font-family="FiraMono-Regular,Fira Mono" font-size="46.8" fill="#FFFFFF" transform="matrix(1.00, 0.00, -0.00, -1.00, 726.7, 417.4)">u</text><text xml:space="preserve" font-family="FiraMono-Regular,Fira Mono" font-size="46.8" fill="#FFFFFF" transform="matrix(1.00, 0.00, -0.00, -1.00, 754.8, 417.4)">t</text><text xml:space="preserve" font-family="FiraMono-Regular,Fira Mono" font-size="46.8" fill="#FFFFFF" transform="matrix(1.00, 0.00, -0.00, -1.00, 782.8, 417.4)">(</text><text xml:space="preserve" font-family="FiraMono-Regular,Fira Mono" font-size="46.8" fill="#FFFFFF" transform="matrix(1.00, 0.00, -0.00, -1.00, 810.9, 417.4)">u</text><text xml:space="preserve" font-family="FiraMono-Regular,Fira Mono" font-size="46.8" fill="#FFFFFF" transform="matrix(1.00, 0.00, -0.00, -1.00, 839.0, 417.4)">s</text><text xml:space="preserve" font-family="FiraMono-Regular,Fira Mono" font-size="46.8" fill="#FFFFFF" transform="matrix(1.00, 0.00, -0.00, -1.00, 867.1, 417.4)">e</text><text xml:space="preserve" font-family="FiraMono-Regular,Fira Mono" font-size="46.8" fill="#FFFFFF" transform="matrix(1.00, 0.00, -0.00, -1.00, 895.2, 417.4)">r</text><text xml:space="preserve" font-family="FiraMono-Regular,Fira Mono" font-size="46.8" fill="#FFFFFF" transform="matrix(1.00, 0.00, -0.00, -1.00, 923.2, 417.4)">)</text><text xml:space="preserve" font-family="FiraMono-Regular,Fira Mono" font-size="46.8" fill="#FFFFFF" transform="matrix(1.00, 0.00, -0.00, -1.00, 951.3, 417.4)"> </text><text xml:space="preserve" font-family="FiraMono-Regular,Fira Mono" font-size="46.8" fill="#FFFFFF" transform="matrix(1.00, 0.00, -0.00, -1.00, 979.4, 417.4)">{</text><text xml:space="preserve" font-family="FiraMono-Regular,Fira Mono" font-size="46.8" fill="#FFFFFF" transform="matrix(1.00, 0.00, -0.00, -1.00, 1007.5, 417.4)">}</text><text xml:space="preserve" font-family="FiraMono-Regular,Fira Mono" font-size="46.8" fill="#000000" transform="matrix(1.00, 0.00, -0.00, -1.00, 1035.6, 417.4)"> </text><text xml:space="preserve" font-family="FiraMono-Regular,Fira Mono" font-size="46.8" fill="#FFFFFF" transform="matrix(1.00, 0.00, -0.00, -1.00, 137.0, 345.4)">}</text><text xml:space="preserve" font-family="FiraMono-Regular,Fira Mono" font-size="46.8" fill="#000000" transform="matrix(1.00, 0.00, -0.00, -1.00, 165.1, 345.4)"> </text><text xml:space="preserve" font-family="FiraMono-Regular,Fira Mono" font-size="46.8" fill="#C07B1E" transform="matrix(1.00, 0.00, -0.00, -1.00, 137.0, 201.4)">c</text><text xml:space="preserve" font-family="FiraMono-Regular,Fira Mono" font-size="46.8" fill="#C07B1E" transform="matrix(1.00, 0.00, -0.00, -1.00, 165.1, 201.4)">l</text><text xml:space="preserve" font-family="FiraMono-Regular,Fira Mono" font-size="46.8" fill="#C07B1E" transform="matrix(1.00, 0.00, -0.00, -1.00, 193.2, 201.4)">a</text><text xml:space="preserve" font-family="FiraMono-Regular,Fira Mono" font-size="46.8" fill="#C07B1E" transform="matrix(1.00, 0.00, -0.00, -1.00, 221.2, 201.4)">s</text><text xml:space="preserve" font-family="FiraMono-Regular,Fira Mono" font-size="46.8" fill="#C07B1E" transform="matrix(1.00, 0.00, -0.00, -1.00, 249.3, 201.4)">s</text><text xml:space="preserve" font-family="FiraMono-Regular,Fira Mono" font-size="46.8" fill="#000000" transform="matrix(1.00, 0.00, -0.00, -1.00, 277.4, 201.4)"> </text><text xml:space="preserve" font-family="FiraMono-Regular,Fira Mono" font-size="46.8" fill="#FFFFFF" transform="matrix(1.00, 0.00, -0.00, -1.00, 305.5, 201.4)">C</text><text xml:space="preserve" font-family="FiraMono-Regular,Fira Mono" font-size="46.8" fill="#FFFFFF" transform="matrix(1.00, 0.00, -0.00, -1.00, 333.6, 201.4)">h</text><text xml:space="preserve" font-family="FiraMono-Regular,Fira Mono" font-size="46.8" fill="#FFFFFF" transform="matrix(1.00, 0.00, -0.00, -1.00, 361.6, 201.4)">e</text><text xml:space="preserve" font-family="FiraMono-Regular,Fira Mono" font-size="46.8" fill="#FFFFFF" transform="matrix(1.00, 0.00, -0.00, -1.00, 389.7, 201.4)">c</text><text xml:space="preserve" font-family="FiraMono-Regular,Fira Mono" font-size="46.8" fill="#FFFFFF" transform="matrix(1.00, 0.00, -0.00, -1.00, 417.8, 201.4)">k</text><text xml:space="preserve" font-family="FiraMono-Regular,Fira Mono" font-size="46.8" fill="#FFFFFF" transform="matrix(1.00, 0.00, -0.00, -1.00, 445.9, 201.4)">o</text><text xml:space="preserve" font-family="FiraMono-Regular,Fira Mono" font-size="46.8" fill="#FFFFFF" transform="matrix(1.00, 0.00, -0.00, -1.00, 474.0, 201.4)">u</text><text xml:space="preserve" font-family="FiraMono-Regular,Fira Mono" font-size="46.8" fill="#FFFFFF" transform="matrix(1.00, 0.00, -0.00, -1.00, 502.0, 201.4)">t</text><text xml:space="preserve" font-family="FiraMono-Regular,Fira Mono" font-size="46.8" fill="#FFFFFF" transform="matrix(1.00, 0.00, -0.00, -1.00, 530.1, 201.4)">S</text><text xml:space="preserve" font-family="FiraMono-Regular,Fira Mono" font-size="46.8" fill="#FFFFFF" transform="matrix(1.00, 0.00, -0.00, -1.00, 558.2, 201.4)">p</text><text xml:space="preserve" font-family="FiraMono-Regular,Fira Mono" font-size="46.8" fill="#FFFFFF" transform="matrix(1.00, 0.00, -0.00, -1.00, 586.3, 201.4)">e</text><text xml:space="preserve" font-family="FiraMono-Regular,Fira Mono" font-size="46.8" fill="#FFFFFF" transform="matrix(1.00, 0.00, -0.00, -1.00, 614.4, 201.4)">c</text><text xml:space="preserve" font-family="FiraMono-Regular,Fira Mono" font-size="46.8" fill="#000000" transform="matrix(1.00, 0.00, -0.00, -1.00, 642.4, 201.4)"> </text><text xml:space="preserve" font-family="FiraMono-Regular,Fira Mono" font-size="46.8" fill="#C07B1E" transform="matrix(1.00, 0.00, -0.00, -1.00, 670.5, 201.4)">e</text><text xml:space="preserve" font-family="FiraMono-Regular,Fira Mono" font-size="46.8" fill="#C07B1E" transform="matrix(1.00, 0.00, -0.00, -1.00, 698.6, 201.4)">x</text><text xml:space="preserve" font-family="FiraMono-Regular,Fira Mono" font-size="46.8" fill="#C07B1E" transform="matrix(1.00, 0.00, -0.00, -1.00, 726.7, 201.4)">t</text><text xml:space="preserve" font-family="FiraMono-Regular,Fira Mono" font-size="46.8" fill="#C07B1E" transform="matrix(1.00, 0.00, -0.00, -1.00, 754.8, 201.4)">e</text><text xml:space="preserve" font-family="FiraMono-Regular,Fira Mono" font-size="46.8" fill="#C07B1E" transform="matrix(1.00, 0.00, -0.00, -1.00, 782.8, 201.4)">n</text><text xml:space="preserve" font-family="FiraMono-Regular,Fira Mono" font-size="46.8" fill="#C07B1E" transform="matrix(1.00, 0.00, -0.00, -1.00, 810.9, 201.4)">d</text><text xml:space="preserve" font-family="FiraMono-Regular,Fira Mono" font-size="46.8" fill="#C07B1E" transform="matrix(1.00, 0.00, -0.00, -1.00, 839.0, 201.4)">s</text><text xml:space="preserve" font-family="FiraMono-Regular,Fira Mono" font-size="46.8" fill="#000000" transform="matrix(1.00, 0.00, -0.00, -1.00, 867.1, 201.4)"> </text><text xml:space="preserve" font-family="FiraMono-Regular,Fira Mono" font-size="46.8" fill="#FFFFFF" transform="matrix(1.00, 0.00, -0.00, -1.00, 895.2, 201.4)">G</text><text xml:space="preserve" font-family="FiraMono-Regular,Fira Mono" font-size="46.8" fill="#FFFFFF" transform="matrix(1.00, 0.00, -0.00, -1.00, 923.2, 201.4)">e</text><text xml:space="preserve" font-family="FiraMono-Regular,Fira Mono" font-size="46.8" fill="#FFFFFF" transform="matrix(1.00, 0.00, -0.00, -1.00, 951.3, 201.4)">b</text><text xml:space="preserve" font-family="FiraMono-Regular,Fira Mono" font-size="46.8" fill="#FFFFFF" transform="matrix(1.00, 0.00, -0.00, -1.00, 979.4, 201.4)">S</text><text xml:space="preserve" font-family="FiraMono-Regular,Fira Mono" font-size="46.8" fill="#FFFFFF" transform="matrix(1.00, 0.00, -0.00, -1.00, 1007.5, 201.4)">p</text><text xml:space="preserve" font-family="FiraMono-Regular,Fira Mono" font-size="46.8" fill="#FFFFFF" transform="matrix(1.00, 0.00, -0.00, -1.00, 1035.6, 201.4)">e</text><text xml:space="preserve" font-family="FiraMono-Regular,Fira Mono" font-size="46.8" fill="#FFFFFF" transform="matrix(1.00, 0.00, -0.00, -1.00, 1063.6, 201.4)">c</text><text xml:space="preserve" font-family="FiraMono-Regular,Fira Mono" font-size="46.8" fill="#000000" transform="matrix(1.00, 0.00, -0.00, -1.00, 1091.7, 201.4)"> </text><text xml:space="preserve" font-family="FiraMono-Regular,Fira Mono" font-size="46.8" fill="#000000" transform="matrix(1.00, 0.00, -0.00, -1.00, 137.0, 129.4)"> </text><text xml:space="preserve" font-family="FiraMono-Regular,Fira Mono" font-size="46.8" fill="#000000" transform="matrix(1.00, 0.00, -0.00, -1.00, 165.1, 129.4)"> </text><text xml:space="preserve" font-family="FiraMono-Regular,Fira Mono" font-size="46.8" fill="#000000" transform="matrix(1.00, 0.00, -0.00, -1.00, 193.2, 129.4)"> </text><text xml:space="preserve" font-family="FiraMono-Regular,Fira Mono" font-size="46.8" fill="#000000" transform="matrix(1.00, 0.00, -0.00, -1.00, 221.2, 129.4)"> </text><text xml:space="preserve" font-family="FiraMono-Regular,Fira Mono" font-size="46.8" fill="#000000" transform="matrix(1.00, 0.00, -0.00, -1.00, 249.3, 129.4)"> </text><text xml:space="preserve" font-family="FiraMono-Regular,Fira Mono" font-size="46.8" fill="#000000" transform="matrix(1.00, 0.00, -0.00, -1.00, 277.4, 129.4)"> </text><text xml:space="preserve" font-family="FiraMono-Regular,Fira Mono" font-size="46.8" fill="#000000" transform="matrix(1.00, 0.00, -0.00, -1.00, 305.5, 129.4)"> </text><text xml:space="preserve" font-family="FiraMono-Regular,Fira Mono" font-size="46.8" fill="#000000" transform="matrix(1.00, 0.00, -0.00, -1.00, 333.6, 129.4)"> </text><text xml:space="preserve" font-family="FiraMono-Regular,Fira Mono" font-size="46.8" fill="#000000" transform="matrix(1.00, 0.00, -0.00, -1.00, 361.6, 129.4)"> </text><text xml:space="preserve" font-family="FiraMono-Regular,Fira Mono" font-size="46.8" fill="#000000" transform="matrix(1.00, 0.00, -0.00, -1.00, 389.7, 129.4)"> </text><text xml:space="preserve" font-family="FiraMono-Regular,Fira Mono" font-size="46.8" fill="#000000" transform="matrix(1.00, 0.00, -0.00, -1.00, 417.8, 129.4)"> </text><text xml:space="preserve" font-family="FiraMono-Regular,Fira Mono" font-size="46.8" fill="#000000" transform="matrix(1.00, 0.00, -0.00, -1.00, 445.9, 129.4)"> </text><text xml:space="preserve" font-family="FiraMono-Regular,Fira Mono" font-size="46.8" fill="#000000" transform="matrix(1.00, 0.00, -0.00, -1.00, 474.0, 129.4)"> </text><text xml:space="preserve" font-family="FiraMono-Regular,Fira Mono" font-size="46.8" fill="#000000" transform="matrix(1.00, 0.00, -0.00, -1.00, 502.0, 129.4)"> </text><text xml:space="preserve" font-family="FiraMono-Regular,Fira Mono" font-size="46.8" fill="#000000" transform="matrix(1.00, 0.00, -0.00, -1.00, 530.1, 129.4)"> </text><text xml:space="preserve" font-family="FiraMono-Regular,Fira Mono" font-size="46.8" fill="#000000" transform="matrix(1.00, 0.00, -0.00, -1.00, 558.2, 129.4)"> </text><text xml:space="preserve" font-family="FiraMono-Regular,Fira Mono" font-size="46.8" fill="#000000" transform="matrix(1.00, 0.00, -0.00, -1.00, 586.3, 129.4)"> </text><text xml:space="preserve" font-family="FiraMono-Regular,Fira Mono" font-size="46.8" fill="#000000" transform="matrix(1.00, 0.00, -0.00, -1.00, 614.4, 129.4)"> </text><text xml:space="preserve" font-family="FiraMono-Regular,Fira Mono" font-size="46.8" fill="#000000" transform="matrix(1.00, 0.00, -0.00, -1.00, 642.4, 129.4)"> </text><text xml:space="preserve" font-family="FiraMono-Regular,Fira Mono" font-size="46.8" fill="#C07B1E" transform="matrix(1.00, 0.00, -0.00, -1.00, 670.5, 129.4)">i</text><text xml:space="preserve" font-family="FiraMono-Regular,Fira Mono" font-size="46.8" fill="#C07B1E" transform="matrix(1.00, 0.00, -0.00, -1.00, 698.6, 129.4)">m</text><text xml:space="preserve" font-family="FiraMono-Regular,Fira Mono" font-size="46.8" fill="#C07B1E" transform="matrix(1.00, 0.00, -0.00, -1.00, 726.7, 129.4)">p</text><text xml:space="preserve" font-family="FiraMono-Regular,Fira Mono" font-size="46.8" fill="#C07B1E" transform="matrix(1.00, 0.00, -0.00, -1.00, 754.8, 129.4)">l</text><text xml:space="preserve" font-family="FiraMono-Regular,Fira Mono" font-size="46.8" fill="#C07B1E" transform="matrix(1.00, 0.00, -0.00, -1.00, 782.8, 129.4)">e</text><text xml:space="preserve" font-family="FiraMono-Regular,Fira Mono" font-size="46.8" fill="#C07B1E" transform="matrix(1.00, 0.00, -0.00, -1.00, 810.9, 129.4)">m</text><text xml:space="preserve" font-family="FiraMono-Regular,Fira Mono" font-size="46.8" fill="#C07B1E" transform="matrix(1.00, 0.00, -0.00, -1.00, 839.0, 129.4)">e</text><text xml:space="preserve" font-family="FiraMono-Regular,Fira Mono" font-size="46.8" fill="#C07B1E" transform="matrix(1.00, 0.00, -0.00, -1.00, 867.1, 129.4)">n</text><text xml:space="preserve" font-family="FiraMono-Regular,Fira Mono" font-size="46.8" fill="#C07B1E" transform="matrix(1.00, 0.00, -0.00, -1.00, 895.2, 129.4)">t</text><text xml:space="preserve" font-family="FiraMono-Regular,Fira Mono" font-size="46.8" fill="#C07B1E" transform="matrix(1.00, 0.00, -0.00, -1.00, 923.2, 129.4)">s</text><text xml:space="preserve" font-family="FiraMono-Regular,Fira Mono" font-size="46.8" fill="#000000" transform="matrix(1.00, 0.00, -0.00, -1.00, 951.3, 129.4)"> </text><text xml:space="preserve" font-family="FiraMono-Regular,Fira Mono" font-size="46.8" fill="#FFFFFF" transform="matrix(1.00, 0.00, -0.00, -1.00, 979.4, 129.4)">S</text><text xml:space="preserve" font-family="FiraMono-Regular,Fira Mono" font-size="46.8" fill="#FFFFFF" transform="matrix(1.00, 0.00, -0.00, -1.00, 1007.5, 129.4)">t</text><text xml:space="preserve" font-family="FiraMono-Regular,Fira Mono" font-size="46.8" fill="#FFFFFF" transform="matrix(1.00, 0.00, -0.00, -1.00, 1035.6, 129.4)">o</text><text xml:space="preserve" font-family="FiraMono-Regular,Fira Mono" font-size="46.8" fill="#FFFFFF" transform="matrix(1.00, 0.00, -0.00, -1.00, 1063.6, 129.4)">r</text><text xml:space="preserve" font-family="FiraMono-Regular,Fira Mono" font-size="46.8" fill="#FFFFFF" transform="matrix(1.00, 0.00, -0.00, -1.00, 1091.7, 129.4)">e</text><text xml:space="preserve" font-family="FiraMono-Regular,Fira Mono" font-size="46.8" fill="#FFFFFF" transform="matrix(1.00, 0.00, -0.00, -1.00, 1119.8, 129.4)">I</text><text xml:space="preserve" font-family="FiraMono-Regular,Fira Mono" font-size="46.8" fill="#FFFFFF" transform="matrix(1.00, 0.00, -0.00, -1.00, 1147.9, 129.4)">n</text><text xml:space="preserve" font-family="FiraMono-Regular,Fira Mono" font-size="46.8" fill="#FFFFFF" transform="matrix(1.00, 0.00, -0.00, -1.00, 1176.0, 129.4)">t</text><text xml:space="preserve" font-family="FiraMono-Regular,Fira Mono" font-size="46.8" fill="#FFFFFF" transform="matrix(1.00, 0.00, -0.00, -1.00, 1204.0, 129.4)">e</text><text xml:space="preserve" font-family="FiraMono-Regular,Fira Mono" font-size="46.8" fill="#FFFFFF" transform="matrix(1.00, 0.00, -0.00, -1.00, 1232.1, 129.4)">r</text><text xml:space="preserve" font-family="FiraMono-Regular,Fira Mono" font-size="46.8" fill="#FFFFFF" transform="matrix(1.00, 0.00, -0.00, -1.00, 1260.2, 129.4)">a</text><text xml:space="preserve" font-family="FiraMono-Regular,Fira Mono" font-size="46.8" fill="#FFFFFF" transform="matrix(1.00, 0.00, -0.00, -1.00, 1288.3, 129.4)">c</text><text xml:space="preserve" font-family="FiraMono-Regular,Fira Mono" font-size="46.8" fill="#FFFFFF" transform="matrix(1.00, 0.00, -0.00, -1.00, 1316.4, 129.4)">t</text><text xml:space="preserve" font-family="FiraMono-Regular,Fira Mono" font-size="46.8" fill="#FFFFFF" transform="matrix(1.00, 0.00, -0.00, -1.00, 1344.4, 129.4)">i</text><text xml:space="preserve" font-family="FiraMono-Regular,Fira Mono" font-size="46.8" fill="#FFFFFF" transform="matrix(1.00, 0.00, -0.00, -1.00, 1372.5, 129.4)">o</text><text xml:space="preserve" font-family="FiraMono-Regular,Fira Mono" font-size="46.8" fill="#FFFFFF" transform="matrix(1.00, 0.00, -0.00, -1.00, 1400.6, 129.4)">n</text><text xml:space="preserve" font-family="FiraMono-Regular,Fira Mono" font-size="46.8" fill="#FFFFFF" transform="matrix(1.00, 0.00, -0.00, -1.00, 1428.7, 129.4)">s</text><text xml:space="preserve" font-family="FiraMono-Regular,Fira Mono" font-size="46.8" fill="#000000" transform="matrix(1.00, 0.00, -0.00, -1.00, 1456.8, 129.4)"> </text><text xml:space="preserve" font-family="FiraMono-Regular,Fira Mono" font-size="46.8" fill="#FFFFFF" transform="matrix(1.00, 0.00, -0.00, -1.00, 1484.8, 129.4)">{</text><text xml:space="preserve" font-family="FiraMono-Regular,Fira Mono" font-size="46.8" fill="#FFFFFF" transform="matrix(1.00, 0.00, -0.00, -1.00, 1512.9, 129.4)">}</text></g></svg>