<?xml version="1.0" encoding="UTF-8" standalone="no"?><svg xmlns="http://www.w3.org/2000/svg" xmlns:xlink="http://www.w3.org/1999/xlink" clip-rule="evenodd" stroke-miterlimit="10" viewBox="0 0 1920 1080"><desc>SVG generated by Keynote</desc><defs></defs><g transform="matrix(1.00, 0.00, -0.00, -1.00, 0.0, 1080.0)"><g><clipPath id="clip0x7f8410b37020"><path d="M 0.0 1080.0 L 1920.0 1080.0 L 1920.0 0.0 L 0.0 0.0 Z M 0.0 1080.0 "></path></clipPath><g clip-path="url(#clip0x7f8410b37020)"><image xlink:href="../../BF7430C7-5211-4E68-B118-AC68FDB76F0F/assets/A81AF0278930B93F47F55E5BB6D3A023.png" width="1920.00" height="1080.00" transform="matrix(1.00, 0.00, -0.00, -1.00, 0.0, 1080.0)"></image></g></g><text xml:space="preserve" font-family="FiraMono-Regular,Fira Mono" font-size="42.0" fill="#C07B1E" transform="matrix(1.00, 0.00, -0.00, -1.00, 137.0, 820.0)">@</text><text xml:space="preserve" font-family="FiraMono-Regular,Fira Mono" font-size="42.0" fill="#C07B1E" transform="matrix(1.00, 0.00, -0.00, -1.00, 162.2, 820.0)">U</text><text xml:space="preserve" font-family="FiraMono-Regular,Fira Mono" font-size="42.0" fill="#C07B1E" transform="matrix(1.00, 0.00, -0.00, -1.00, 187.4, 820.0)">n</text><text xml:space="preserve" font-family="FiraMono-Regular,Fira Mono" font-size="42.0" fill="#C07B1E" transform="matrix(1.00, 0.00, -0.00, -1.00, 212.6, 820.0)">r</text><text xml:space="preserve" font-family="FiraMono-Regular,Fira Mono" font-size="42.0" fill="#C07B1E" transform="matrix(1.00, 0.00, -0.00, -1.00, 237.8, 820.0)">o</text><text xml:space="preserve" font-family="FiraMono-Regular,Fira Mono" font-size="42.0" fill="#C07B1E" transform="matrix(1.00, 0.00, -0.00, -1.00, 263.0, 820.0)">l</text><text xml:space="preserve" font-family="FiraMono-Regular,Fira Mono" font-size="42.0" fill="#C07B1E" transform="matrix(1.00, 0.00, -0.00, -1.00, 288.2, 820.0)">l</text><text xml:space="preserve" font-family="FiraMono-Regular,Fira Mono" font-size="42.0" fill="#000000" transform="matrix(1.00, 0.00, -0.00, -1.00, 313.4, 820.0)"> </text><text xml:space="preserve" font-family="FiraMono-Regular,Fira Mono" font-size="42.0" fill="#00F900" transform="matrix(1.00, 0.00, -0.00, -1.00, 137.0, 755.0)">v</text><text xml:space="preserve" font-family="FiraMono-Regular,Fira Mono" font-size="42.0" fill="#00F900" transform="matrix(1.00, 0.00, -0.00, -1.00, 162.2, 755.0)">o</text><text xml:space="preserve" font-family="FiraMono-Regular,Fira Mono" font-size="42.0" fill="#00F900" transform="matrix(1.00, 0.00, -0.00, -1.00, 187.4, 755.0)">i</text><text xml:space="preserve" font-family="FiraMono-Regular,Fira Mono" font-size="42.0" fill="#00F900" transform="matrix(1.00, 0.00, -0.00, -1.00, 212.6, 755.0)">d</text><text xml:space="preserve" font-family="FiraMono-Regular,Fira Mono" font-size="42.0" fill="#000000" transform="matrix(1.00, 0.00, -0.00, -1.00, 237.8, 755.0)"> </text><text xml:space="preserve" font-family="FiraMono-Regular,Fira Mono" font-size="42.0" fill="#FF2600" transform="matrix(1.00, 0.00, -0.00, -1.00, 263.0, 755.0)">"</text><text xml:space="preserve" font-family="FiraMono-Regular,Fira Mono" font-size="42.0" fill="#FF2600" transform="matrix(1.00, 0.00, -0.00, -1.00, 288.2, 755.0)">t</text><text xml:space="preserve" font-family="FiraMono-Regular,Fira Mono" font-size="42.0" fill="#FF2600" transform="matrix(1.00, 0.00, -0.00, -1.00, 313.4, 755.0)">h</text><text xml:space="preserve" font-family="FiraMono-Regular,Fira Mono" font-size="42.0" fill="#FF2600" transform="matrix(1.00, 0.00, -0.00, -1.00, 338.6, 755.0)">e</text><text xml:space="preserve" font-family="FiraMono-Regular,Fira Mono" font-size="42.0" fill="#FF2600" transform="matrix(1.00, 0.00, -0.00, -1.00, 363.8, 755.0)"> </text><text xml:space="preserve" font-family="FiraMono-Regular,Fira Mono" font-size="42.0" fill="#FF2600" transform="matrix(1.00, 0.00, -0.00, -1.00, 389.0, 755.0)">#</text><text xml:space="preserve" font-family="FiraMono-Regular,Fira Mono" font-size="42.0" fill="#FF2600" transform="matrix(1.00, 0.00, -0.00, -1.00, 414.2, 755.0)">t</text><text xml:space="preserve" font-family="FiraMono-Regular,Fira Mono" font-size="42.0" fill="#FF2600" transform="matrix(1.00, 0.00, -0.00, -1.00, 439.4, 755.0)">a</text><text xml:space="preserve" font-family="FiraMono-Regular,Fira Mono" font-size="42.0" fill="#FF2600" transform="matrix(1.00, 0.00, -0.00, -1.00, 464.6, 755.0)">b</text><text xml:space="preserve" font-family="FiraMono-Regular,Fira Mono" font-size="42.0" fill="#FF2600" transform="matrix(1.00, 0.00, -0.00, -1.00, 489.8, 755.0)">l</text><text xml:space="preserve" font-family="FiraMono-Regular,Fira Mono" font-size="42.0" fill="#FF2600" transform="matrix(1.00, 0.00, -0.00, -1.00, 515.0, 755.0)">e</text><text xml:space="preserve" font-family="FiraMono-Regular,Fira Mono" font-size="42.0" fill="#FF2600" transform="matrix(1.00, 0.00, -0.00, -1.00, 540.2, 755.0)"> </text><text xml:space="preserve" font-family="FiraMono-Regular,Fira Mono" font-size="42.0" fill="#FF2600" transform="matrix(1.00, 0.00, -0.00, -1.00, 565.4, 755.0)">t</text><text xml:space="preserve" font-family="FiraMono-Regular,Fira Mono" font-size="42.0" fill="#FF2600" transform="matrix(1.00, 0.00, -0.00, -1.00, 590.6, 755.0)">a</text><text xml:space="preserve" font-family="FiraMono-Regular,Fira Mono" font-size="42.0" fill="#FF2600" transform="matrix(1.00, 0.00, -0.00, -1.00, 615.8, 755.0)">b</text><text xml:space="preserve" font-family="FiraMono-Regular,Fira Mono" font-size="42.0" fill="#FF2600" transform="matrix(1.00, 0.00, -0.00, -1.00, 641.0, 755.0)">l</text><text xml:space="preserve" font-family="FiraMono-Regular,Fira Mono" font-size="42.0" fill="#FF2600" transform="matrix(1.00, 0.00, -0.00, -1.00, 666.2, 755.0)">e</text><text xml:space="preserve" font-family="FiraMono-Regular,Fira Mono" font-size="42.0" fill="#FF2600" transform="matrix(1.00, 0.00, -0.00, -1.00, 691.4, 755.0)"> </text><text xml:space="preserve" font-family="FiraMono-Regular,Fira Mono" font-size="42.0" fill="#FF2600" transform="matrix(1.00, 0.00, -0.00, -1.00, 716.6, 755.0)">h</text><text xml:space="preserve" font-family="FiraMono-Regular,Fira Mono" font-size="42.0" fill="#FF2600" transform="matrix(1.00, 0.00, -0.00, -1.00, 741.8, 755.0)">a</text><text xml:space="preserve" font-family="FiraMono-Regular,Fira Mono" font-size="42.0" fill="#FF2600" transform="matrix(1.00, 0.00, -0.00, -1.00, 767.0, 755.0)">s</text><text xml:space="preserve" font-family="FiraMono-Regular,Fira Mono" font-size="42.0" fill="#FF2600" transform="matrix(1.00, 0.00, -0.00, -1.00, 792.2, 755.0)"> </text><text xml:space="preserve" font-family="FiraMono-Regular,Fira Mono" font-size="42.0" fill="#FF2600" transform="matrix(1.00, 0.00, -0.00, -1.00, 817.4, 755.0)">a</text><text xml:space="preserve" font-family="FiraMono-Regular,Fira Mono" font-size="42.0" fill="#FF2600" transform="matrix(1.00, 0.00, -0.00, -1.00, 842.6, 755.0)"> </text><text xml:space="preserve" font-family="FiraMono-Regular,Fira Mono" font-size="42.0" fill="#FF2600" transform="matrix(1.00, 0.00, -0.00, -1.00, 867.8, 755.0)">p</text><text xml:space="preserve" font-family="FiraMono-Regular,Fira Mono" font-size="42.0" fill="#FF2600" transform="matrix(1.00, 0.00, -0.00, -1.00, 893.0, 755.0)">r</text><text xml:space="preserve" font-family="FiraMono-Regular,Fira Mono" font-size="42.0" fill="#FF2600" transform="matrix(1.00, 0.00, -0.00, -1.00, 918.2, 755.0)">i</text><text xml:space="preserve" font-family="FiraMono-Regular,Fira Mono" font-size="42.0" fill="#FF2600" transform="matrix(1.00, 0.00, -0.00, -1.00, 943.4, 755.0)">m</text><text xml:space="preserve" font-family="FiraMono-Regular,Fira Mono" font-size="42.0" fill="#FF2600" transform="matrix(1.00, 0.00, -0.00, -1.00, 968.6, 755.0)">a</text><text xml:space="preserve" font-family="FiraMono-Regular,Fira Mono" font-size="42.0" fill="#FF2600" transform="matrix(1.00, 0.00, -0.00, -1.00, 993.8, 755.0)">r</text><text xml:space="preserve" font-family="FiraMono-Regular,Fira Mono" font-size="42.0" fill="#FF2600" transform="matrix(1.00, 0.00, -0.00, -1.00, 1019.0, 755.0)">y</text><text xml:space="preserve" font-family="FiraMono-Regular,Fira Mono" font-size="42.0" fill="#FF2600" transform="matrix(1.00, 0.00, -0.00, -1.00, 1044.2, 755.0)"> </text><text xml:space="preserve" font-family="FiraMono-Regular,Fira Mono" font-size="42.0" fill="#FF2600" transform="matrix(1.00, 0.00, -0.00, -1.00, 1069.4, 755.0)">k</text><text xml:space="preserve" font-family="FiraMono-Regular,Fira Mono" font-size="42.0" fill="#FF2600" transform="matrix(1.00, 0.00, -0.00, -1.00, 1094.6, 755.0)">e</text><text xml:space="preserve" font-family="FiraMono-Regular,Fira Mono" font-size="42.0" fill="#FF2600" transform="matrix(1.00, 0.00, -0.00, -1.00, 1119.8, 755.0)">y</text><text xml:space="preserve" font-family="FiraMono-Regular,Fira Mono" font-size="42.0" fill="#FF2600" transform="matrix(1.00, 0.00, -0.00, -1.00, 1145.0, 755.0)">"</text><text xml:space="preserve" font-family="FiraMono-Regular,Fira Mono" font-size="42.0" fill="#FFFFFF" transform="matrix(1.00, 0.00, -0.00, -1.00, 1170.2, 755.0)">(</text><text xml:space="preserve" font-family="FiraMono-Regular,Fira Mono" font-size="42.0" fill="#FFFFFF" transform="matrix(1.00, 0.00, -0.00, -1.00, 1195.4, 755.0)">)</text><text xml:space="preserve" font-family="FiraMono-Regular,Fira Mono" font-size="42.0" fill="#FFFFFF" transform="matrix(1.00, 0.00, -0.00, -1.00, 1220.6, 755.0)"> </text><text xml:space="preserve" font-family="FiraMono-Regular,Fira Mono" font-size="42.0" fill="#FFFFFF" transform="matrix(1.00, 0.00, -0.00, -1.00, 1245.8, 755.0)">{</text><text xml:space="preserve" font-family="FiraMono-Regular,Fira Mono" font-size="42.0" fill="#000000" transform="matrix(1.00, 0.00, -0.00, -1.00, 1271.0, 755.0)"> </text><text xml:space="preserve" font-family="FiraMono-Regular,Fira Mono" font-size="42.0" fill="#FFFFFF" transform="matrix(1.00, 0.00, -0.00, -1.00, 137.0, 690.0)"> </text><text xml:space="preserve" font-family="FiraMono-Regular,Fira Mono" font-size="42.0" fill="#FFFFFF" transform="matrix(1.00, 0.00, -0.00, -1.00, 162.2, 690.0)"> </text><text xml:space="preserve" font-family="FiraMono-Regular,Fira Mono" font-size="42.0" fill="#FFFFFF" transform="matrix(1.00, 0.00, -0.00, -1.00, 187.4, 690.0)">e</text><text xml:space="preserve" font-family="FiraMono-Regular,Fira Mono" font-size="42.0" fill="#FFFFFF" transform="matrix(1.00, 0.00, -0.00, -1.00, 212.6, 690.0)">x</text><text xml:space="preserve" font-family="FiraMono-Regular,Fira Mono" font-size="42.0" fill="#FFFFFF" transform="matrix(1.00, 0.00, -0.00, -1.00, 237.8, 690.0)">p</text><text xml:space="preserve" font-family="FiraMono-Regular,Fira Mono" font-size="42.0" fill="#FFFFFF" transform="matrix(1.00, 0.00, -0.00, -1.00, 263.0, 690.0)">e</text><text xml:space="preserve" font-family="FiraMono-Regular,Fira Mono" font-size="42.0" fill="#FFFFFF" transform="matrix(1.00, 0.00, -0.00, -1.00, 288.2, 690.0)">c</text><text xml:space="preserve" font-family="FiraMono-Regular,Fira Mono" font-size="42.0" fill="#FFFFFF" transform="matrix(1.00, 0.00, -0.00, -1.00, 313.4, 690.0)">t</text><text xml:space="preserve" font-family="FiraMono-Regular,Fira Mono" font-size="42.0" fill="#FFFFFF" transform="matrix(1.00, 0.00, -0.00, -1.00, 338.6, 690.0)">:</text><text xml:space="preserve" font-family="FiraMono-Regular,Fira Mono" font-size="42.0" fill="#000000" transform="matrix(1.00, 0.00, -0.00, -1.00, 363.8, 690.0)"> </text><text xml:space="preserve" font-family="FiraMono-Regular,Fira Mono" font-size="42.0" fill="#000000" transform="matrix(1.00, 0.00, -0.00, -1.00, 137.0, 625.0)"> </text><text xml:space="preserve" font-family="FiraMono-Regular,Fira Mono" font-size="42.0" fill="#000000" transform="matrix(1.00, 0.00, -0.00, -1.00, 162.2, 625.0)"> </text><text xml:space="preserve" font-family="FiraMono-Regular,Fira Mono" font-size="42.0" fill="#FFFFFF" transform="matrix(1.00, 0.00, -0.00, -1.00, 187.4, 625.0)">w</text><text xml:space="preserve" font-family="FiraMono-Regular,Fira Mono" font-size="42.0" fill="#FFFFFF" transform="matrix(1.00, 0.00, -0.00, -1.00, 212.6, 625.0)">i</text><text xml:space="preserve" font-family="FiraMono-Regular,Fira Mono" font-size="42.0" fill="#FFFFFF" transform="matrix(1.00, 0.00, -0.00, -1.00, 237.8, 625.0)">t</text><text xml:space="preserve" font-family="FiraMono-Regular,Fira Mono" font-size="42.0" fill="#FFFFFF" transform="matrix(1.00, 0.00, -0.00, -1.00, 263.0, 625.0)">h</text><text xml:space="preserve" font-family="FiraMono-Regular,Fira Mono" font-size="42.0" fill="#FFFFFF" transform="matrix(1.00, 0.00, -0.00, -1.00, 288.2, 625.0)">(</text><text xml:space="preserve" font-family="FiraMono-Regular,Fira Mono" font-size="42.0" fill="#FFFFFF" transform="matrix(1.00, 0.00, -0.00, -1.00, 313.4, 625.0)">h</text><text xml:space="preserve" font-family="FiraMono-Regular,Fira Mono" font-size="42.0" fill="#FFFFFF" transform="matrix(1.00, 0.00, -0.00, -1.00, 338.6, 625.0)">a</text><text xml:space="preserve" font-family="FiraMono-Regular,Fira Mono" font-size="42.0" fill="#FFFFFF" transform="matrix(1.00, 0.00, -0.00, -1.00, 363.8, 625.0)">n</text><text xml:space="preserve" font-family="FiraMono-Regular,Fira Mono" font-size="42.0" fill="#FFFFFF" transform="matrix(1.00, 0.00, -0.00, -1.00, 389.0, 625.0)">d</text><text xml:space="preserve" font-family="FiraMono-Regular,Fira Mono" font-size="42.0" fill="#FFFFFF" transform="matrix(1.00, 0.00, -0.00, -1.00, 414.2, 625.0)">l</text><text xml:space="preserve" font-family="FiraMono-Regular,Fira Mono" font-size="42.0" fill="#FFFFFF" transform="matrix(1.00, 0.00, -0.00, -1.00, 439.4, 625.0)">e</text><text xml:space="preserve" font-family="FiraMono-Regular,Fira Mono" font-size="42.0" fill="#FFFFFF" transform="matrix(1.00, 0.00, -0.00, -1.00, 464.6, 625.0)">.</text><text xml:space="preserve" font-family="FiraMono-Regular,Fira Mono" font-size="42.0" fill="#FFFFFF" transform="matrix(1.00, 0.00, -0.00, -1.00, 489.8, 625.0)">c</text><text xml:space="preserve" font-family="FiraMono-Regular,Fira Mono" font-size="42.0" fill="#FFFFFF" transform="matrix(1.00, 0.00, -0.00, -1.00, 515.0, 625.0)">o</text><text xml:space="preserve" font-family="FiraMono-Regular,Fira Mono" font-size="42.0" fill="#FFFFFF" transform="matrix(1.00, 0.00, -0.00, -1.00, 540.2, 625.0)">n</text><text xml:space="preserve" font-family="FiraMono-Regular,Fira Mono" font-size="42.0" fill="#FFFFFF" transform="matrix(1.00, 0.00, -0.00, -1.00, 565.4, 625.0)">n</text><text xml:space="preserve" font-family="FiraMono-Regular,Fira Mono" font-size="42.0" fill="#FFFFFF" transform="matrix(1.00, 0.00, -0.00, -1.00, 590.6, 625.0)">e</text><text xml:space="preserve" font-family="FiraMono-Regular,Fira Mono" font-size="42.0" fill="#FFFFFF" transform="matrix(1.00, 0.00, -0.00, -1.00, 615.8, 625.0)">c</text><text xml:space="preserve" font-family="FiraMono-Regular,Fira Mono" font-size="42.0" fill="#FFFFFF" transform="matrix(1.00, 0.00, -0.00, -1.00, 641.0, 625.0)">t</text><text xml:space="preserve" font-family="FiraMono-Regular,Fira Mono" font-size="42.0" fill="#FFFFFF" transform="matrix(1.00, 0.00, -0.00, -1.00, 666.2, 625.0)">i</text><text xml:space="preserve" font-family="FiraMono-Regular,Fira Mono" font-size="42.0" fill="#FFFFFF" transform="matrix(1.00, 0.00, -0.00, -1.00, 691.4, 625.0)">o</text><text xml:space="preserve" font-family="FiraMono-Regular,Fira Mono" font-size="42.0" fill="#FFFFFF" transform="matrix(1.00, 0.00, -0.00, -1.00, 716.6, 625.0)">n</text><text xml:space="preserve" font-family="FiraMono-Regular,Fira Mono" font-size="42.0" fill="#FFFFFF" transform="matrix(1.00, 0.00, -0.00, -1.00, 741.8, 625.0)">)</text><text xml:space="preserve" font-family="FiraMono-Regular,Fira Mono" font-size="42.0" fill="#FFFFFF" transform="matrix(1.00, 0.00, -0.00, -1.00, 767.0, 625.0)"> </text><text xml:space="preserve" font-family="FiraMono-Regular,Fira Mono" font-size="42.0" fill="#FFFFFF" transform="matrix(1.00, 0.00, -0.00, -1.00, 792.2, 625.0)">{</text><text xml:space="preserve" font-family="FiraMono-Regular,Fira Mono" font-size="42.0" fill="#000000" transform="matrix(1.00, 0.00, -0.00, -1.00, 817.4, 625.0)"> </text><text xml:space="preserve" font-family="FiraMono-Regular,Fira Mono" font-size="42.0" fill="#FFFFFF" transform="matrix(1.00, 0.00, -0.00, -1.00, 842.6, 625.0)">C</text><text xml:space="preserve" font-family="FiraMono-Regular,Fira Mono" font-size="42.0" fill="#FFFFFF" transform="matrix(1.00, 0.00, -0.00, -1.00, 867.8, 625.0)">o</text><text xml:space="preserve" font-family="FiraMono-Regular,Fira Mono" font-size="42.0" fill="#FFFFFF" transform="matrix(1.00, 0.00, -0.00, -1.00, 893.0, 625.0)">n</text><text xml:space="preserve" font-family="FiraMono-Regular,Fira Mono" font-size="42.0" fill="#FFFFFF" transform="matrix(1.00, 0.00, -0.00, -1.00, 918.2, 625.0)">n</text><text xml:space="preserve" font-family="FiraMono-Regular,Fira Mono" font-size="42.0" fill="#FFFFFF" transform="matrix(1.00, 0.00, -0.00, -1.00, 943.4, 625.0)">e</text><text xml:space="preserve" font-family="FiraMono-Regular,Fira Mono" font-size="42.0" fill="#FFFFFF" transform="matrix(1.00, 0.00, -0.00, -1.00, 968.6, 625.0)">c</text><text xml:space="preserve" font-family="FiraMono-Regular,Fira Mono" font-size="42.0" fill="#FFFFFF" transform="matrix(1.00, 0.00, -0.00, -1.00, 993.8, 625.0)">t</text><text xml:space="preserve" font-family="FiraMono-Regular,Fira Mono" font-size="42.0" fill="#FFFFFF" transform="matrix(1.00, 0.00, -0.00, -1.00, 1019.0, 625.0)">i</text><text xml:space="preserve" font-family="FiraMono-Regular,Fira Mono" font-size="42.0" fill="#FFFFFF" transform="matrix(1.00, 0.00, -0.00, -1.00, 1044.2, 625.0)">o</text><text xml:space="preserve" font-family="FiraMono-Regular,Fira Mono" font-size="42.0" fill="#FFFFFF" transform="matrix(1.00, 0.00, -0.00, -1.00, 1069.4, 625.0)">n</text><text xml:space="preserve" font-family="FiraMono-Regular,Fira Mono" font-size="42.0" fill="#FFFFFF" transform="matrix(1.00, 0.00, -0.00, -1.00, 1094.6, 625.0)"> </text><text xml:space="preserve" font-family="FiraMono-Regular,Fira Mono" font-size="42.0" fill="#FFFFFF" transform="matrix(1.00, 0.00, -0.00, -1.00, 1119.8, 625.0)">c</text><text xml:space="preserve" font-family="FiraMono-Regular,Fira Mono" font-size="42.0" fill="#FFFFFF" transform="matrix(1.00, 0.00, -0.00, -1.00, 1145.0, 625.0)">o</text><text xml:space="preserve" font-family="FiraMono-Regular,Fira Mono" font-size="42.0" fill="#FFFFFF" transform="matrix(1.00, 0.00, -0.00, -1.00, 1170.2, 625.0)">n</text><text xml:space="preserve" font-family="FiraMono-Regular,Fira Mono" font-size="42.0" fill="#FFFFFF" transform="matrix(1.00, 0.00, -0.00, -1.00, 1195.4, 625.0)">n</text><text xml:space="preserve" font-family="FiraMono-Regular,Fira Mono" font-size="42.0" fill="#FFFFFF" transform="matrix(1.00, 0.00, -0.00, -1.00, 1220.6, 625.0)">e</text><text xml:space="preserve" font-family="FiraMono-Regular,Fira Mono" font-size="42.0" fill="#FFFFFF" transform="matrix(1.00, 0.00, -0.00, -1.00, 1245.8, 625.0)">c</text><text xml:space="preserve" font-family="FiraMono-Regular,Fira Mono" font-size="42.0" fill="#FFFFFF" transform="matrix(1.00, 0.00, -0.00, -1.00, 1271.0, 625.0)">t</text><text xml:space="preserve" font-family="FiraMono-Regular,Fira Mono" font-size="42.0" fill="#FFFFFF" transform="matrix(1.00, 0.00, -0.00, -1.00, 1296.2, 625.0)">i</text><text xml:space="preserve" font-family="FiraMono-Regular,Fira Mono" font-size="42.0" fill="#FFFFFF" transform="matrix(1.00, 0.00, -0.00, -1.00, 1321.4, 625.0)">o</text><text xml:space="preserve" font-family="FiraMono-Regular,Fira Mono" font-size="42.0" fill="#FFFFFF" transform="matrix(1.00, 0.00, -0.00, -1.00, 1346.6, 625.0)">n</text><text xml:space="preserve" font-family="FiraMono-Regular,Fira Mono" font-size="42.0" fill="#000000" transform="matrix(1.00, 0.00, -0.00, -1.00, 1371.8, 625.0)"> </text><text xml:space="preserve" font-family="FiraMono-Regular,Fira Mono" font-size="42.0" fill="#FFFFFF" transform="matrix(1.00, 0.00, -0.00, -1.00, 1397.0, 625.0)">-</text><text xml:space="preserve" font-family="FiraMono-Regular,Fira Mono" font-size="42.0" fill="#FFFFFF" transform="matrix(1.00, 0.00, -0.00, -1.00, 1422.2, 625.0)">&gt;</text><text xml:space="preserve" font-family="FiraMono-Regular,Fira Mono" font-size="42.0" fill="#000000" transform="matrix(1.00, 0.00, -0.00, -1.00, 1447.4, 625.0)"> </text><text xml:space="preserve" font-family="FiraMono-Regular,Fira Mono" font-size="42.0" fill="#FFFFFF" transform="matrix(1.00, 0.00, -0.00, -1.00, 137.0, 560.0)"> </text><text xml:space="preserve" font-family="FiraMono-Regular,Fira Mono" font-size="42.0" fill="#FFFFFF" transform="matrix(1.00, 0.00, -0.00, -1.00, 162.2, 560.0)"> </text><text xml:space="preserve" font-family="FiraMono-Regular,Fira Mono" font-size="42.0" fill="#FFFFFF" transform="matrix(1.00, 0.00, -0.00, -1.00, 187.4, 560.0)"> </text><text xml:space="preserve" font-family="FiraMono-Regular,Fira Mono" font-size="42.0" fill="#FFFFFF" transform="matrix(1.00, 0.00, -0.00, -1.00, 212.6, 560.0)"> </text><text xml:space="preserve" font-family="FiraMono-Regular,Fira Mono" font-size="42.0" fill="#FFFFFF" transform="matrix(1.00, 0.00, -0.00, -1.00, 237.8, 560.0)">c</text><text xml:space="preserve" font-family="FiraMono-Regular,Fira Mono" font-size="42.0" fill="#FFFFFF" transform="matrix(1.00, 0.00, -0.00, -1.00, 263.0, 560.0)">o</text><text xml:space="preserve" font-family="FiraMono-Regular,Fira Mono" font-size="42.0" fill="#FFFFFF" transform="matrix(1.00, 0.00, -0.00, -1.00, 288.2, 560.0)">n</text><text xml:space="preserve" font-family="FiraMono-Regular,Fira Mono" font-size="42.0" fill="#FFFFFF" transform="matrix(1.00, 0.00, -0.00, -1.00, 313.4, 560.0)">n</text><text xml:space="preserve" font-family="FiraMono-Regular,Fira Mono" font-size="42.0" fill="#FFFFFF" transform="matrix(1.00, 0.00, -0.00, -1.00, 338.6, 560.0)">e</text><text xml:space="preserve" font-family="FiraMono-Regular,Fira Mono" font-size="42.0" fill="#FFFFFF" transform="matrix(1.00, 0.00, -0.00, -1.00, 363.8, 560.0)">c</text><text xml:space="preserve" font-family="FiraMono-Regular,Fira Mono" font-size="42.0" fill="#FFFFFF" transform="matrix(1.00, 0.00, -0.00, -1.00, 389.0, 560.0)">t</text><text xml:space="preserve" font-family="FiraMono-Regular,Fira Mono" font-size="42.0" fill="#FFFFFF" transform="matrix(1.00, 0.00, -0.00, -1.00, 414.2, 560.0)">i</text><text xml:space="preserve" font-family="FiraMono-Regular,Fira Mono" font-size="42.0" fill="#FFFFFF" transform="matrix(1.00, 0.00, -0.00, -1.00, 439.4, 560.0)">o</text><text xml:space="preserve" font-family="FiraMono-Regular,Fira Mono" font-size="42.0" fill="#FFFFFF" transform="matrix(1.00, 0.00, -0.00, -1.00, 464.6, 560.0)">n</text><text xml:space="preserve" font-family="FiraMono-Regular,Fira Mono" font-size="42.0" fill="#FFFFFF" transform="matrix(1.00, 0.00, -0.00, -1.00, 489.8, 560.0)">.</text><text xml:space="preserve" font-family="FiraMono-Regular,Fira Mono" font-size="42.0" fill="#FFFFFF" transform="matrix(1.00, 0.00, -0.00, -1.00, 515.0, 560.0)">m</text><text xml:space="preserve" font-family="FiraMono-Regular,Fira Mono" font-size="42.0" fill="#FFFFFF" transform="matrix(1.00, 0.00, -0.00, -1.00, 540.2, 560.0)">e</text><text xml:space="preserve" font-family="FiraMono-Regular,Fira Mono" font-size="42.0" fill="#FFFFFF" transform="matrix(1.00, 0.00, -0.00, -1.00, 565.4, 560.0)">t</text><text xml:space="preserve" font-family="FiraMono-Regular,Fira Mono" font-size="42.0" fill="#FFFFFF" transform="matrix(1.00, 0.00, -0.00, -1.00, 590.6, 560.0)">a</text><text xml:space="preserve" font-family="FiraMono-Regular,Fira Mono" font-size="42.0" fill="#FFFFFF" transform="matrix(1.00, 0.00, -0.00, -1.00, 615.8, 560.0)">D</text><text xml:space="preserve" font-family="FiraMono-Regular,Fira Mono" font-size="42.0" fill="#FFFFFF" transform="matrix(1.00, 0.00, -0.00, -1.00, 641.0, 560.0)">a</text><text xml:space="preserve" font-family="FiraMono-Regular,Fira Mono" font-size="42.0" fill="#FFFFFF" transform="matrix(1.00, 0.00, -0.00, -1.00, 666.2, 560.0)">t</text><text xml:space="preserve" font-family="FiraMono-Regular,Fira Mono" font-size="42.0" fill="#FFFFFF" transform="matrix(1.00, 0.00, -0.00, -1.00, 691.4, 560.0)">a</text><text xml:space="preserve" font-family="FiraMono-Regular,Fira Mono" font-size="42.0" fill="#FFFFFF" transform="matrix(1.00, 0.00, -0.00, -1.00, 716.6, 560.0)">.</text><text xml:space="preserve" font-family="FiraMono-Regular,Fira Mono" font-size="42.0" fill="#FFFFFF" transform="matrix(1.00, 0.00, -0.00, -1.00, 741.8, 560.0)">g</text><text xml:space="preserve" font-family="FiraMono-Regular,Fira Mono" font-size="42.0" fill="#FFFFFF" transform="matrix(1.00, 0.00, -0.00, -1.00, 767.0, 560.0)">e</text><text xml:space="preserve" font-family="FiraMono-Regular,Fira Mono" font-size="42.0" fill="#FFFFFF" transform="matrix(1.00, 0.00, -0.00, -1.00, 792.2, 560.0)">t</text><text xml:space="preserve" font-family="FiraMono-Regular,Fira Mono" font-size="42.0" fill="#FFFFFF" transform="matrix(1.00, 0.00, -0.00, -1.00, 817.4, 560.0)">P</text><text xml:space="preserve" font-family="FiraMono-Regular,Fira Mono" font-size="42.0" fill="#FFFFFF" transform="matrix(1.00, 0.00, -0.00, -1.00, 842.6, 560.0)">r</text><text xml:space="preserve" font-family="FiraMono-Regular,Fira Mono" font-size="42.0" fill="#FFFFFF" transform="matrix(1.00, 0.00, -0.00, -1.00, 867.8, 560.0)">i</text><text xml:space="preserve" font-family="FiraMono-Regular,Fira Mono" font-size="42.0" fill="#FFFFFF" transform="matrix(1.00, 0.00, -0.00, -1.00, 893.0, 560.0)">m</text><text xml:space="preserve" font-family="FiraMono-Regular,Fira Mono" font-size="42.0" fill="#FFFFFF" transform="matrix(1.00, 0.00, -0.00, -1.00, 918.2, 560.0)">a</text><text xml:space="preserve" font-family="FiraMono-Regular,Fira Mono" font-size="42.0" fill="#FFFFFF" transform="matrix(1.00, 0.00, -0.00, -1.00, 943.4, 560.0)">r</text><text xml:space="preserve" font-family="FiraMono-Regular,Fira Mono" font-size="42.0" fill="#FFFFFF" transform="matrix(1.00, 0.00, -0.00, -1.00, 968.6, 560.0)">y</text><text xml:space="preserve" font-family="FiraMono-Regular,Fira Mono" font-size="42.0" fill="#FFFFFF" transform="matrix(1.00, 0.00, -0.00, -1.00, 993.8, 560.0)">K</text><text xml:space="preserve" font-family="FiraMono-Regular,Fira Mono" font-size="42.0" fill="#FFFFFF" transform="matrix(1.00, 0.00, -0.00, -1.00, 1019.0, 560.0)">e</text><text xml:space="preserve" font-family="FiraMono-Regular,Fira Mono" font-size="42.0" fill="#FFFFFF" transform="matrix(1.00, 0.00, -0.00, -1.00, 1044.2, 560.0)">y</text><text xml:space="preserve" font-family="FiraMono-Regular,Fira Mono" font-size="42.0" fill="#FFFFFF" transform="matrix(1.00, 0.00, -0.00, -1.00, 1069.4, 560.0)">s</text><text xml:space="preserve" font-family="FiraMono-Regular,Fira Mono" font-size="42.0" fill="#FFFFFF" transform="matrix(1.00, 0.00, -0.00, -1.00, 1094.6, 560.0)">(</text><text xml:space="preserve" font-family="FiraMono-Regular,Fira Mono" font-size="42.0" fill="#FFFFFF" transform="matrix(1.00, 0.00, -0.00, -1.00, 1119.8, 560.0)">n</text><text xml:space="preserve" font-family="FiraMono-Regular,Fira Mono" font-size="42.0" fill="#FFFFFF" transform="matrix(1.00, 0.00, -0.00, -1.00, 1145.0, 560.0)">u</text><text xml:space="preserve" font-family="FiraMono-Regular,Fira Mono" font-size="42.0" fill="#FFFFFF" transform="matrix(1.00, 0.00, -0.00, -1.00, 1170.2, 560.0)">l</text><text xml:space="preserve" font-family="FiraMono-Regular,Fira Mono" font-size="42.0" fill="#FFFFFF" transform="matrix(1.00, 0.00, -0.00, -1.00, 1195.4, 560.0)">l</text><text xml:space="preserve" font-family="FiraMono-Regular,Fira Mono" font-size="42.0" fill="#FFFFFF" transform="matrix(1.00, 0.00, -0.00, -1.00, 1220.6, 560.0)">,</text><text xml:space="preserve" font-family="FiraMono-Regular,Fira Mono" font-size="42.0" fill="#000000" transform="matrix(1.00, 0.00, -0.00, -1.00, 1245.8, 560.0)"> </text><text xml:space="preserve" font-family="FiraMono-Regular,Fira Mono" font-size="42.0" fill="#FFFFFF" transform="matrix(1.00, 0.00, -0.00, -1.00, 1271.0, 560.0)">n</text><text xml:space="preserve" font-family="FiraMono-Regular,Fira Mono" font-size="42.0" fill="#FFFFFF" transform="matrix(1.00, 0.00, -0.00, -1.00, 1296.2, 560.0)">u</text><text xml:space="preserve" font-family="FiraMono-Regular,Fira Mono" font-size="42.0" fill="#FFFFFF" transform="matrix(1.00, 0.00, -0.00, -1.00, 1321.4, 560.0)">l</text><text xml:space="preserve" font-family="FiraMono-Regular,Fira Mono" font-size="42.0" fill="#FFFFFF" transform="matrix(1.00, 0.00, -0.00, -1.00, 1346.6, 560.0)">l</text><text xml:space="preserve" font-family="FiraMono-Regular,Fira Mono" font-size="42.0" fill="#FFFFFF" transform="matrix(1.00, 0.00, -0.00, -1.00, 1371.8, 560.0)">,</text><text xml:space="preserve" font-family="FiraMono-Regular,Fira Mono" font-size="42.0" fill="#000000" transform="matrix(1.00, 0.00, -0.00, -1.00, 1397.0, 560.0)"> </text><text xml:space="preserve" font-family="FiraMono-Regular,Fira Mono" font-size="42.0" fill="#FFFFFF" transform="matrix(1.00, 0.00, -0.00, -1.00, 1422.2, 560.0)">t</text><text xml:space="preserve" font-family="FiraMono-Regular,Fira Mono" font-size="42.0" fill="#FFFFFF" transform="matrix(1.00, 0.00, -0.00, -1.00, 1447.4, 560.0)">a</text><text xml:space="preserve" font-family="FiraMono-Regular,Fira Mono" font-size="42.0" fill="#FFFFFF" transform="matrix(1.00, 0.00, -0.00, -1.00, 1472.6, 560.0)">b</text><text xml:space="preserve" font-family="FiraMono-Regular,Fira Mono" font-size="42.0" fill="#FFFFFF" transform="matrix(1.00, 0.00, -0.00, -1.00, 1497.8, 560.0)">l</text><text xml:space="preserve" font-family="FiraMono-Regular,Fira Mono" font-size="42.0" fill="#FFFFFF" transform="matrix(1.00, 0.00, -0.00, -1.00, 1523.0, 560.0)">e</text><text xml:space="preserve" font-family="FiraMono-Regular,Fira Mono" font-size="42.0" fill="#FFFFFF" transform="matrix(1.00, 0.00, -0.00, -1.00, 1548.2, 560.0)">)</text><text xml:space="preserve" font-family="FiraMono-Regular,Fira Mono" font-size="42.0" fill="#FFFFFF" transform="matrix(1.00, 0.00, -0.00, -1.00, 1573.4, 560.0)">.</text><text xml:space="preserve" font-family="FiraMono-Regular,Fira Mono" font-size="42.0" fill="#FFFFFF" transform="matrix(1.00, 0.00, -0.00, -1.00, 1598.6, 560.0)">n</text><text xml:space="preserve" font-family="FiraMono-Regular,Fira Mono" font-size="42.0" fill="#FFFFFF" transform="matrix(1.00, 0.00, -0.00, -1.00, 1623.8, 560.0)">e</text><text xml:space="preserve" font-family="FiraMono-Regular,Fira Mono" font-size="42.0" fill="#FFFFFF" transform="matrix(1.00, 0.00, -0.00, -1.00, 1649.0, 560.0)">x</text><text xml:space="preserve" font-family="FiraMono-Regular,Fira Mono" font-size="42.0" fill="#FFFFFF" transform="matrix(1.00, 0.00, -0.00, -1.00, 1674.2, 560.0)">t</text><text xml:space="preserve" font-family="FiraMono-Regular,Fira Mono" font-size="42.0" fill="#FFFFFF" transform="matrix(1.00, 0.00, -0.00, -1.00, 1699.4, 560.0)">(</text><text xml:space="preserve" font-family="FiraMono-Regular,Fira Mono" font-size="42.0" fill="#FFFFFF" transform="matrix(1.00, 0.00, -0.00, -1.00, 1724.6, 560.0)">)</text><text xml:space="preserve" font-family="FiraMono-Regular,Fira Mono" font-size="42.0" fill="#000000" transform="matrix(1.00, 0.00, -0.00, -1.00, 1749.8, 560.0)"> </text><text xml:space="preserve" font-family="FiraMono-Regular,Fira Mono" font-size="42.0" fill="#000000" transform="matrix(1.00, 0.00, -0.00, -1.00, 137.0, 495.0)"> </text><text xml:space="preserve" font-family="FiraMono-Regular,Fira Mono" font-size="42.0" fill="#000000" transform="matrix(1.00, 0.00, -0.00, -1.00, 162.2, 495.0)"> </text><text xml:space="preserve" font-family="FiraMono-Regular,Fira Mono" font-size="42.0" fill="#FFFFFF" transform="matrix(1.00, 0.00, -0.00, -1.00, 187.4, 495.0)">}</text><text xml:space="preserve" font-family="FiraMono-Regular,Fira Mono" font-size="42.0" fill="#000000" transform="matrix(1.00, 0.00, -0.00, -1.00, 212.6, 495.0)"> </text><text xml:space="preserve" font-family="FiraMono-Regular,Fira Mono" font-size="42.0" fill="#FFFFFF" transform="matrix(1.00, 0.00, -0.00, -1.00, 137.0, 365.0)"> </text><text xml:space="preserve" font-family="FiraMono-Regular,Fira Mono" font-size="42.0" fill="#FFFFFF" transform="matrix(1.00, 0.00, -0.00, -1.00, 162.2, 365.0)"> </text><text xml:space="preserve" font-family="FiraMono-Regular,Fira Mono" font-size="42.0" fill="#FFFFFF" transform="matrix(1.00, 0.00, -0.00, -1.00, 187.4, 365.0)">w</text><text xml:space="preserve" font-family="FiraMono-Regular,Fira Mono" font-size="42.0" fill="#FFFFFF" transform="matrix(1.00, 0.00, -0.00, -1.00, 212.6, 365.0)">h</text><text xml:space="preserve" font-family="FiraMono-Regular,Fira Mono" font-size="42.0" fill="#FFFFFF" transform="matrix(1.00, 0.00, -0.00, -1.00, 237.8, 365.0)">e</text><text xml:space="preserve" font-family="FiraMono-Regular,Fira Mono" font-size="42.0" fill="#FFFFFF" transform="matrix(1.00, 0.00, -0.00, -1.00, 263.0, 365.0)">r</text><text xml:space="preserve" font-family="FiraMono-Regular,Fira Mono" font-size="42.0" fill="#FFFFFF" transform="matrix(1.00, 0.00, -0.00, -1.00, 288.2, 365.0)">e</text><text xml:space="preserve" font-family="FiraMono-Regular,Fira Mono" font-size="42.0" fill="#FFFFFF" transform="matrix(1.00, 0.00, -0.00, -1.00, 313.4, 365.0)">:</text><text xml:space="preserve" font-family="FiraMono-Regular,Fira Mono" font-size="42.0" fill="#000000" transform="matrix(1.00, 0.00, -0.00, -1.00, 338.6, 365.0)"> </text><text xml:space="preserve" font-family="FiraMono-Regular,Fira Mono" font-size="42.0" fill="#FFFFFF" transform="matrix(1.00, 0.00, -0.00, -1.00, 137.0, 300.0)"> </text><text xml:space="preserve" font-family="FiraMono-Regular,Fira Mono" font-size="42.0" fill="#FFFFFF" transform="matrix(1.00, 0.00, -0.00, -1.00, 162.2, 300.0)"> </text><text xml:space="preserve" font-family="FiraMono-Regular,Fira Mono" font-size="42.0" fill="#FFFFFF" transform="matrix(1.00, 0.00, -0.00, -1.00, 187.4, 300.0)">t</text><text xml:space="preserve" font-family="FiraMono-Regular,Fira Mono" font-size="42.0" fill="#FFFFFF" transform="matrix(1.00, 0.00, -0.00, -1.00, 212.6, 300.0)">a</text><text xml:space="preserve" font-family="FiraMono-Regular,Fira Mono" font-size="42.0" fill="#FFFFFF" transform="matrix(1.00, 0.00, -0.00, -1.00, 237.8, 300.0)">b</text><text xml:space="preserve" font-family="FiraMono-Regular,Fira Mono" font-size="42.0" fill="#FFFFFF" transform="matrix(1.00, 0.00, -0.00, -1.00, 263.0, 300.0)">l</text><text xml:space="preserve" font-family="FiraMono-Regular,Fira Mono" font-size="42.0" fill="#FFFFFF" transform="matrix(1.00, 0.00, -0.00, -1.00, 288.2, 300.0)">e</text><text xml:space="preserve" font-family="FiraMono-Regular,Fira Mono" font-size="42.0" fill="#000000" transform="matrix(1.00, 0.00, -0.00, -1.00, 313.4, 300.0)"> </text><text xml:space="preserve" font-family="FiraMono-Regular,Fira Mono" font-size="42.0" fill="#FFFFFF" transform="matrix(1.00, 0.00, -0.00, -1.00, 338.6, 300.0)">&lt;</text><text xml:space="preserve" font-family="FiraMono-Regular,Fira Mono" font-size="42.0" fill="#FFFFFF" transform="matrix(1.00, 0.00, -0.00, -1.00, 363.8, 300.0)">&lt;</text><text xml:space="preserve" font-family="FiraMono-Regular,Fira Mono" font-size="42.0" fill="#000000" transform="matrix(1.00, 0.00, -0.00, -1.00, 389.0, 300.0)"> </text><text xml:space="preserve" font-family="FiraMono-Regular,Fira Mono" font-size="42.0" fill="#FFFFFF" transform="matrix(1.00, 0.00, -0.00, -1.00, 414.2, 300.0)">t</text><text xml:space="preserve" font-family="FiraMono-Regular,Fira Mono" font-size="42.0" fill="#FFFFFF" transform="matrix(1.00, 0.00, -0.00, -1.00, 439.4, 300.0)">a</text><text xml:space="preserve" font-family="FiraMono-Regular,Fira Mono" font-size="42.0" fill="#FFFFFF" transform="matrix(1.00, 0.00, -0.00, -1.00, 464.6, 300.0)">b</text><text xml:space="preserve" font-family="FiraMono-Regular,Fira Mono" font-size="42.0" fill="#FFFFFF" transform="matrix(1.00, 0.00, -0.00, -1.00, 489.8, 300.0)">l</text><text xml:space="preserve" font-family="FiraMono-Regular,Fira Mono" font-size="42.0" fill="#FFFFFF" transform="matrix(1.00, 0.00, -0.00, -1.00, 515.0, 300.0)">e</text><text xml:space="preserve" font-family="FiraMono-Regular,Fira Mono" font-size="42.0" fill="#FFFFFF" transform="matrix(1.00, 0.00, -0.00, -1.00, 540.2, 300.0)">N</text><text xml:space="preserve" font-family="FiraMono-Regular,Fira Mono" font-size="42.0" fill="#FFFFFF" transform="matrix(1.00, 0.00, -0.00, -1.00, 565.4, 300.0)">a</text><text xml:space="preserve" font-family="FiraMono-Regular,Fira Mono" font-size="42.0" fill="#FFFFFF" transform="matrix(1.00, 0.00, -0.00, -1.00, 590.6, 300.0)">m</text><text xml:space="preserve" font-family="FiraMono-Regular,Fira Mono" font-size="42.0" fill="#FFFFFF" transform="matrix(1.00, 0.00, -0.00, -1.00, 615.8, 300.0)">e</text><text xml:space="preserve" font-family="FiraMono-Regular,Fira Mono" font-size="42.0" fill="#FFFFFF" transform="matrix(1.00, 0.00, -0.00, -1.00, 641.0, 300.0)">s</text><text xml:space="preserve" font-family="FiraMono-Regular,Fira Mono" font-size="42.0" fill="#000000" transform="matrix(1.00, 0.00, -0.00, -1.00, 666.2, 300.0)"> </text><text xml:space="preserve" font-family="FiraMono-Regular,Fira Mono" font-size="42.0" fill="#FFFFFF" transform="matrix(1.00, 0.00, -0.00, -1.00, 137.0, 235.0)">}</text></g></svg>