<?xml version="1.0" encoding="UTF-8" standalone="no"?><svg xmlns="http://www.w3.org/2000/svg" xmlns:xlink="http://www.w3.org/1999/xlink" clip-rule="evenodd" stroke-miterlimit="10" viewBox="0 0 1920 1080"><desc>SVG generated by Keynote</desc><defs></defs><g transform="matrix(1.00, 0.00, -0.00, -1.00, 0.0, 1080.0)"><g><clipPath id="clip0x7f8410b35780"><path d="M 0.0 1080.0 L 1920.0 1080.0 L 1920.0 0.0 L 0.0 0.0 Z M 0.0 1080.0 "></path></clipPath><g clip-path="url(#clip0x7f8410b35780)"><image xlink:href="../../BF7430C7-5211-4E68-B118-AC68FDB76F0F/assets/A81AF0278930B93F47F55E5BB6D3A023.png" width="1920.00" height="1080.00" transform="matrix(1.00, 0.00, -0.00, -1.00, 0.0, 1080.0)"></image></g></g><text xml:space="preserve" font-family="FiraMono-Regular,Fira Mono" font-size="33.0" fill="#C07B1E" transform="matrix(1.00, 0.00, -0.00, -1.00, 137.0, 789.5)">@</text><text xml:space="preserve" font-family="FiraMono-Regular,Fira Mono" font-size="33.0" fill="#C07B1E" transform="matrix(1.00, 0.00, -0.00, -1.00, 156.8, 789.5)">S</text><text xml:space="preserve" font-family="FiraMono-Regular,Fira Mono" font-size="33.0" fill="#C07B1E" transform="matrix(1.00, 0.00, -0.00, -1.00, 176.6, 789.5)">h</text><text xml:space="preserve" font-family="FiraMono-Regular,Fira Mono" font-size="33.0" fill="#C07B1E" transform="matrix(1.00, 0.00, -0.00, -1.00, 196.4, 789.5)">a</text><text xml:space="preserve" font-family="FiraMono-Regular,Fira Mono" font-size="33.0" fill="#C07B1E" transform="matrix(1.00, 0.00, -0.00, -1.00, 216.2, 789.5)">r</text><text xml:space="preserve" font-family="FiraMono-Regular,Fira Mono" font-size="33.0" fill="#C07B1E" transform="matrix(1.00, 0.00, -0.00, -1.00, 236.0, 789.5)">e</text><text xml:space="preserve" font-family="FiraMono-Regular,Fira Mono" font-size="33.0" fill="#C07B1E" transform="matrix(1.00, 0.00, -0.00, -1.00, 255.8, 789.5)">d</text><text xml:space="preserve" font-family="FiraMono-Regular,Fira Mono" font-size="33.0" fill="#C07B1E" transform="matrix(1.00, 0.00, -0.00, -1.00, 275.6, 789.5)"> </text><text xml:space="preserve" font-family="FiraMono-Regular,Fira Mono" font-size="33.0" fill="#C07B1E" transform="matrix(1.00, 0.00, -0.00, -1.00, 295.4, 789.5)">@</text><text xml:space="preserve" font-family="FiraMono-Regular,Fira Mono" font-size="33.0" fill="#C07B1E" transform="matrix(1.00, 0.00, -0.00, -1.00, 315.2, 789.5)">A</text><text xml:space="preserve" font-family="FiraMono-Regular,Fira Mono" font-size="33.0" fill="#C07B1E" transform="matrix(1.00, 0.00, -0.00, -1.00, 335.0, 789.5)">u</text><text xml:space="preserve" font-family="FiraMono-Regular,Fira Mono" font-size="33.0" fill="#C07B1E" transform="matrix(1.00, 0.00, -0.00, -1.00, 354.8, 789.5)">t</text><text xml:space="preserve" font-family="FiraMono-Regular,Fira Mono" font-size="33.0" fill="#C07B1E" transform="matrix(1.00, 0.00, -0.00, -1.00, 374.6, 789.5)">o</text><text xml:space="preserve" font-family="FiraMono-Regular,Fira Mono" font-size="33.0" fill="#C07B1E" transform="matrix(1.00, 0.00, -0.00, -1.00, 394.4, 789.5)">C</text><text xml:space="preserve" font-family="FiraMono-Regular,Fira Mono" font-size="33.0" fill="#C07B1E" transform="matrix(1.00, 0.00, -0.00, -1.00, 414.2, 789.5)">l</text><text xml:space="preserve" font-family="FiraMono-Regular,Fira Mono" font-size="33.0" fill="#C07B1E" transform="matrix(1.00, 0.00, -0.00, -1.00, 434.0, 789.5)">e</text><text xml:space="preserve" font-family="FiraMono-Regular,Fira Mono" font-size="33.0" fill="#C07B1E" transform="matrix(1.00, 0.00, -0.00, -1.00, 453.8, 789.5)">a</text><text xml:space="preserve" font-family="FiraMono-Regular,Fira Mono" font-size="33.0" fill="#C07B1E" transform="matrix(1.00, 0.00, -0.00, -1.00, 473.6, 789.5)">n</text><text xml:space="preserve" font-family="FiraMono-Regular,Fira Mono" font-size="33.0" fill="#C07B1E" transform="matrix(1.00, 0.00, -0.00, -1.00, 493.4, 789.5)">u</text><text xml:space="preserve" font-family="FiraMono-Regular,Fira Mono" font-size="33.0" fill="#C07B1E" transform="matrix(1.00, 0.00, -0.00, -1.00, 513.2, 789.5)">p</text><text xml:space="preserve" font-family="FiraMono-Regular,Fira Mono" font-size="33.0" fill="#000000" transform="matrix(1.00, 0.00, -0.00, -1.00, 533.0, 789.5)"> </text><text xml:space="preserve" font-family="FiraMono-Regular,Fira Mono" font-size="33.0" fill="#FFFFFF" transform="matrix(1.00, 0.00, -0.00, -1.00, 552.8, 789.5)">H</text><text xml:space="preserve" font-family="FiraMono-Regular,Fira Mono" font-size="33.0" fill="#FFFFFF" transform="matrix(1.00, 0.00, -0.00, -1.00, 572.6, 789.5)">a</text><text xml:space="preserve" font-family="FiraMono-Regular,Fira Mono" font-size="33.0" fill="#FFFFFF" transform="matrix(1.00, 0.00, -0.00, -1.00, 592.4, 789.5)">n</text><text xml:space="preserve" font-family="FiraMono-Regular,Fira Mono" font-size="33.0" fill="#FFFFFF" transform="matrix(1.00, 0.00, -0.00, -1.00, 612.2, 789.5)">d</text><text xml:space="preserve" font-family="FiraMono-Regular,Fira Mono" font-size="33.0" fill="#FFFFFF" transform="matrix(1.00, 0.00, -0.00, -1.00, 632.0, 789.5)">l</text><text xml:space="preserve" font-family="FiraMono-Regular,Fira Mono" font-size="33.0" fill="#FFFFFF" transform="matrix(1.00, 0.00, -0.00, -1.00, 651.8, 789.5)">e</text><text xml:space="preserve" font-family="FiraMono-Regular,Fira Mono" font-size="33.0" fill="#FFFFFF" transform="matrix(1.00, 0.00, -0.00, -1.00, 671.6, 789.5)"> </text><text xml:space="preserve" font-family="FiraMono-Regular,Fira Mono" font-size="33.0" fill="#FFFFFF" transform="matrix(1.00, 0.00, -0.00, -1.00, 691.4, 789.5)">h</text><text xml:space="preserve" font-family="FiraMono-Regular,Fira Mono" font-size="33.0" fill="#FFFFFF" transform="matrix(1.00, 0.00, -0.00, -1.00, 711.2, 789.5)">a</text><text xml:space="preserve" font-family="FiraMono-Regular,Fira Mono" font-size="33.0" fill="#FFFFFF" transform="matrix(1.00, 0.00, -0.00, -1.00, 731.0, 789.5)">n</text><text xml:space="preserve" font-family="FiraMono-Regular,Fira Mono" font-size="33.0" fill="#FFFFFF" transform="matrix(1.00, 0.00, -0.00, -1.00, 750.8, 789.5)">d</text><text xml:space="preserve" font-family="FiraMono-Regular,Fira Mono" font-size="33.0" fill="#FFFFFF" transform="matrix(1.00, 0.00, -0.00, -1.00, 770.6, 789.5)">l</text><text xml:space="preserve" font-family="FiraMono-Regular,Fira Mono" font-size="33.0" fill="#FFFFFF" transform="matrix(1.00, 0.00, -0.00, -1.00, 790.4, 789.5)">e</text><text xml:space="preserve" font-family="FiraMono-Regular,Fira Mono" font-size="33.0" fill="#000000" transform="matrix(1.00, 0.00, -0.00, -1.00, 810.2, 789.5)"> </text><text xml:space="preserve" font-family="FiraMono-Regular,Fira Mono" font-size="33.0" fill="#C07B1E" transform="matrix(1.00, 0.00, -0.00, -1.00, 137.0, 737.5)">@</text><text xml:space="preserve" font-family="FiraMono-Regular,Fira Mono" font-size="33.0" fill="#C07B1E" transform="matrix(1.00, 0.00, -0.00, -1.00, 156.8, 737.5)">S</text><text xml:space="preserve" font-family="FiraMono-Regular,Fira Mono" font-size="33.0" fill="#C07B1E" transform="matrix(1.00, 0.00, -0.00, -1.00, 176.6, 737.5)">h</text><text xml:space="preserve" font-family="FiraMono-Regular,Fira Mono" font-size="33.0" fill="#C07B1E" transform="matrix(1.00, 0.00, -0.00, -1.00, 196.4, 737.5)">a</text><text xml:space="preserve" font-family="FiraMono-Regular,Fira Mono" font-size="33.0" fill="#C07B1E" transform="matrix(1.00, 0.00, -0.00, -1.00, 216.2, 737.5)">r</text><text xml:space="preserve" font-family="FiraMono-Regular,Fira Mono" font-size="33.0" fill="#C07B1E" transform="matrix(1.00, 0.00, -0.00, -1.00, 236.0, 737.5)">e</text><text xml:space="preserve" font-family="FiraMono-Regular,Fira Mono" font-size="33.0" fill="#C07B1E" transform="matrix(1.00, 0.00, -0.00, -1.00, 255.8, 737.5)">d</text><text xml:space="preserve" font-family="FiraMono-Regular,Fira Mono" font-size="33.0" fill="#000000" transform="matrix(1.00, 0.00, -0.00, -1.00, 275.6, 737.5)"> </text><text xml:space="preserve" font-family="FiraMono-Regular,Fira Mono" font-size="33.0" fill="#FFFFFF" transform="matrix(1.00, 0.00, -0.00, -1.00, 295.4, 737.5)">C</text><text xml:space="preserve" font-family="FiraMono-Regular,Fira Mono" font-size="33.0" fill="#FFFFFF" transform="matrix(1.00, 0.00, -0.00, -1.00, 315.2, 737.5)">o</text><text xml:space="preserve" font-family="FiraMono-Regular,Fira Mono" font-size="33.0" fill="#FFFFFF" transform="matrix(1.00, 0.00, -0.00, -1.00, 335.0, 737.5)">l</text><text xml:space="preserve" font-family="FiraMono-Regular,Fira Mono" font-size="33.0" fill="#FFFFFF" transform="matrix(1.00, 0.00, -0.00, -1.00, 354.8, 737.5)">l</text><text xml:space="preserve" font-family="FiraMono-Regular,Fira Mono" font-size="33.0" fill="#FFFFFF" transform="matrix(1.00, 0.00, -0.00, -1.00, 374.6, 737.5)">e</text><text xml:space="preserve" font-family="FiraMono-Regular,Fira Mono" font-size="33.0" fill="#FFFFFF" transform="matrix(1.00, 0.00, -0.00, -1.00, 394.4, 737.5)">c</text><text xml:space="preserve" font-family="FiraMono-Regular,Fira Mono" font-size="33.0" fill="#FFFFFF" transform="matrix(1.00, 0.00, -0.00, -1.00, 414.2, 737.5)">t</text><text xml:space="preserve" font-family="FiraMono-Regular,Fira Mono" font-size="33.0" fill="#FFFFFF" transform="matrix(1.00, 0.00, -0.00, -1.00, 434.0, 737.5)">i</text><text xml:space="preserve" font-family="FiraMono-Regular,Fira Mono" font-size="33.0" fill="#FFFFFF" transform="matrix(1.00, 0.00, -0.00, -1.00, 453.8, 737.5)">o</text><text xml:space="preserve" font-family="FiraMono-Regular,Fira Mono" font-size="33.0" fill="#FFFFFF" transform="matrix(1.00, 0.00, -0.00, -1.00, 473.6, 737.5)">n</text><text xml:space="preserve" font-family="FiraMono-Regular,Fira Mono" font-size="33.0" fill="#FFFFFF" transform="matrix(1.00, 0.00, -0.00, -1.00, 493.4, 737.5)">&lt;</text><text xml:space="preserve" font-family="FiraMono-Regular,Fira Mono" font-size="33.0" fill="#FFFFFF" transform="matrix(1.00, 0.00, -0.00, -1.00, 513.2, 737.5)">S</text><text xml:space="preserve" font-family="FiraMono-Regular,Fira Mono" font-size="33.0" fill="#FFFFFF" transform="matrix(1.00, 0.00, -0.00, -1.00, 533.0, 737.5)">t</text><text xml:space="preserve" font-family="FiraMono-Regular,Fira Mono" font-size="33.0" fill="#FFFFFF" transform="matrix(1.00, 0.00, -0.00, -1.00, 552.8, 737.5)">r</text><text xml:space="preserve" font-family="FiraMono-Regular,Fira Mono" font-size="33.0" fill="#FFFFFF" transform="matrix(1.00, 0.00, -0.00, -1.00, 572.6, 737.5)">i</text><text xml:space="preserve" font-family="FiraMono-Regular,Fira Mono" font-size="33.0" fill="#FFFFFF" transform="matrix(1.00, 0.00, -0.00, -1.00, 592.4, 737.5)">n</text><text xml:space="preserve" font-family="FiraMono-Regular,Fira Mono" font-size="33.0" fill="#FFFFFF" transform="matrix(1.00, 0.00, -0.00, -1.00, 612.2, 737.5)">g</text><text xml:space="preserve" font-family="FiraMono-Regular,Fira Mono" font-size="33.0" fill="#FFFFFF" transform="matrix(1.00, 0.00, -0.00, -1.00, 632.0, 737.5)">&gt;</text><text xml:space="preserve" font-family="FiraMono-Regular,Fira Mono" font-size="33.0" fill="#000000" transform="matrix(1.00, 0.00, -0.00, -1.00, 651.8, 737.5)"> </text><text xml:space="preserve" font-family="FiraMono-Regular,Fira Mono" font-size="33.0" fill="#FFFFFF" transform="matrix(1.00, 0.00, -0.00, -1.00, 671.6, 737.5)">t</text><text xml:space="preserve" font-family="FiraMono-Regular,Fira Mono" font-size="33.0" fill="#FFFFFF" transform="matrix(1.00, 0.00, -0.00, -1.00, 691.4, 737.5)">a</text><text xml:space="preserve" font-family="FiraMono-Regular,Fira Mono" font-size="33.0" fill="#FFFFFF" transform="matrix(1.00, 0.00, -0.00, -1.00, 711.2, 737.5)">b</text><text xml:space="preserve" font-family="FiraMono-Regular,Fira Mono" font-size="33.0" fill="#FFFFFF" transform="matrix(1.00, 0.00, -0.00, -1.00, 731.0, 737.5)">l</text><text xml:space="preserve" font-family="FiraMono-Regular,Fira Mono" font-size="33.0" fill="#FFFFFF" transform="matrix(1.00, 0.00, -0.00, -1.00, 750.8, 737.5)">e</text><text xml:space="preserve" font-family="FiraMono-Regular,Fira Mono" font-size="33.0" fill="#FFFFFF" transform="matrix(1.00, 0.00, -0.00, -1.00, 770.6, 737.5)">N</text><text xml:space="preserve" font-family="FiraMono-Regular,Fira Mono" font-size="33.0" fill="#FFFFFF" transform="matrix(1.00, 0.00, -0.00, -1.00, 790.4, 737.5)">a</text><text xml:space="preserve" font-family="FiraMono-Regular,Fira Mono" font-size="33.0" fill="#FFFFFF" transform="matrix(1.00, 0.00, -0.00, -1.00, 810.2, 737.5)">m</text><text xml:space="preserve" font-family="FiraMono-Regular,Fira Mono" font-size="33.0" fill="#FFFFFF" transform="matrix(1.00, 0.00, -0.00, -1.00, 830.0, 737.5)">e</text><text xml:space="preserve" font-family="FiraMono-Regular,Fira Mono" font-size="33.0" fill="#FFFFFF" transform="matrix(1.00, 0.00, -0.00, -1.00, 849.8, 737.5)">s</text><text xml:space="preserve" font-family="FiraMono-Regular,Fira Mono" font-size="33.0" fill="#000000" transform="matrix(1.00, 0.00, -0.00, -1.00, 869.6, 737.5)"> </text><text xml:space="preserve" font-family="FiraMono-Regular,Fira Mono" font-size="33.0" fill="#FFFFFF" transform="matrix(1.00, 0.00, -0.00, -1.00, 889.4, 737.5)">=</text><text xml:space="preserve" font-family="FiraMono-Regular,Fira Mono" font-size="33.0" fill="#FFFFFF" transform="matrix(1.00, 0.00, -0.00, -1.00, 909.2, 737.5)"> </text><text xml:space="preserve" font-family="FiraMono-Regular,Fira Mono" font-size="33.0" fill="#FFFFFF" transform="matrix(1.00, 0.00, -0.00, -1.00, 929.0, 737.5)">[</text><text xml:space="preserve" font-family="FiraMono-Regular,Fira Mono" font-size="33.0" fill="#FFFFFF" transform="matrix(1.00, 0.00, -0.00, -1.00, 948.8, 737.5)">]</text><text xml:space="preserve" font-family="FiraMono-Regular,Fira Mono" font-size="33.0" fill="#000000" transform="matrix(1.00, 0.00, -0.00, -1.00, 968.6, 737.5)"> </text><text xml:space="preserve" font-family="FiraMono-Regular,Fira Mono" font-size="33.0" fill="#C07B1E" transform="matrix(1.00, 0.00, -0.00, -1.00, 137.0, 633.5)">d</text><text xml:space="preserve" font-family="FiraMono-Regular,Fira Mono" font-size="33.0" fill="#C07B1E" transform="matrix(1.00, 0.00, -0.00, -1.00, 156.8, 633.5)">e</text><text xml:space="preserve" font-family="FiraMono-Regular,Fira Mono" font-size="33.0" fill="#C07B1E" transform="matrix(1.00, 0.00, -0.00, -1.00, 176.6, 633.5)">f</text><text xml:space="preserve" font-family="FiraMono-Regular,Fira Mono" font-size="33.0" fill="#000000" transform="matrix(1.00, 0.00, -0.00, -1.00, 196.4, 633.5)"> </text><text xml:space="preserve" font-family="FiraMono-Regular,Fira Mono" font-size="33.0" fill="#FFFFFF" transform="matrix(1.00, 0.00, -0.00, -1.00, 216.2, 633.5)">s</text><text xml:space="preserve" font-family="FiraMono-Regular,Fira Mono" font-size="33.0" fill="#FFFFFF" transform="matrix(1.00, 0.00, -0.00, -1.00, 236.0, 633.5)">e</text><text xml:space="preserve" font-family="FiraMono-Regular,Fira Mono" font-size="33.0" fill="#FFFFFF" transform="matrix(1.00, 0.00, -0.00, -1.00, 255.8, 633.5)">t</text><text xml:space="preserve" font-family="FiraMono-Regular,Fira Mono" font-size="33.0" fill="#FFFFFF" transform="matrix(1.00, 0.00, -0.00, -1.00, 275.6, 633.5)">u</text><text xml:space="preserve" font-family="FiraMono-Regular,Fira Mono" font-size="33.0" fill="#FFFFFF" transform="matrix(1.00, 0.00, -0.00, -1.00, 295.4, 633.5)">p</text><text xml:space="preserve" font-family="FiraMono-Regular,Fira Mono" font-size="33.0" fill="#FFFFFF" transform="matrix(1.00, 0.00, -0.00, -1.00, 315.2, 633.5)">S</text><text xml:space="preserve" font-family="FiraMono-Regular,Fira Mono" font-size="33.0" fill="#FFFFFF" transform="matrix(1.00, 0.00, -0.00, -1.00, 335.0, 633.5)">p</text><text xml:space="preserve" font-family="FiraMono-Regular,Fira Mono" font-size="33.0" fill="#FFFFFF" transform="matrix(1.00, 0.00, -0.00, -1.00, 354.8, 633.5)">e</text><text xml:space="preserve" font-family="FiraMono-Regular,Fira Mono" font-size="33.0" fill="#FFFFFF" transform="matrix(1.00, 0.00, -0.00, -1.00, 374.6, 633.5)">c</text><text xml:space="preserve" font-family="FiraMono-Regular,Fira Mono" font-size="33.0" fill="#FFFFFF" transform="matrix(1.00, 0.00, -0.00, -1.00, 394.4, 633.5)">(</text><text xml:space="preserve" font-family="FiraMono-Regular,Fira Mono" font-size="33.0" fill="#FFFFFF" transform="matrix(1.00, 0.00, -0.00, -1.00, 414.2, 633.5)">)</text><text xml:space="preserve" font-family="FiraMono-Regular,Fira Mono" font-size="33.0" fill="#FFFFFF" transform="matrix(1.00, 0.00, -0.00, -1.00, 434.0, 633.5)"> </text><text xml:space="preserve" font-family="FiraMono-Regular,Fira Mono" font-size="33.0" fill="#FFFFFF" transform="matrix(1.00, 0.00, -0.00, -1.00, 453.8, 633.5)">{</text><text xml:space="preserve" font-family="FiraMono-Regular,Fira Mono" font-size="33.0" fill="#000000" transform="matrix(1.00, 0.00, -0.00, -1.00, 473.6, 633.5)"> </text><text xml:space="preserve" font-family="FiraMono-Regular,Fira Mono" font-size="33.0" fill="#FFFFFF" transform="matrix(1.00, 0.00, -0.00, -1.00, 137.0, 581.5)"> </text><text xml:space="preserve" font-family="FiraMono-Regular,Fira Mono" font-size="33.0" fill="#FFFFFF" transform="matrix(1.00, 0.00, -0.00, -1.00, 156.8, 581.5)"> </text><text xml:space="preserve" font-family="FiraMono-Regular,Fira Mono" font-size="33.0" fill="#FFFFFF" transform="matrix(1.00, 0.00, -0.00, -1.00, 176.6, 581.5)">h</text><text xml:space="preserve" font-family="FiraMono-Regular,Fira Mono" font-size="33.0" fill="#FFFFFF" transform="matrix(1.00, 0.00, -0.00, -1.00, 196.4, 581.5)">a</text><text xml:space="preserve" font-family="FiraMono-Regular,Fira Mono" font-size="33.0" fill="#FFFFFF" transform="matrix(1.00, 0.00, -0.00, -1.00, 216.2, 581.5)">n</text><text xml:space="preserve" font-family="FiraMono-Regular,Fira Mono" font-size="33.0" fill="#FFFFFF" transform="matrix(1.00, 0.00, -0.00, -1.00, 236.0, 581.5)">d</text><text xml:space="preserve" font-family="FiraMono-Regular,Fira Mono" font-size="33.0" fill="#FFFFFF" transform="matrix(1.00, 0.00, -0.00, -1.00, 255.8, 581.5)">l</text><text xml:space="preserve" font-family="FiraMono-Regular,Fira Mono" font-size="33.0" fill="#FFFFFF" transform="matrix(1.00, 0.00, -0.00, -1.00, 275.6, 581.5)">e</text><text xml:space="preserve" font-family="FiraMono-Regular,Fira Mono" font-size="33.0" fill="#FFFFFF" transform="matrix(1.00, 0.00, -0.00, -1.00, 295.4, 581.5)">.</text><text xml:space="preserve" font-family="FiraMono-Regular,Fira Mono" font-size="33.0" fill="#FFFFFF" transform="matrix(1.00, 0.00, -0.00, -1.00, 315.2, 581.5)">c</text><text xml:space="preserve" font-family="FiraMono-Regular,Fira Mono" font-size="33.0" fill="#FFFFFF" transform="matrix(1.00, 0.00, -0.00, -1.00, 335.0, 581.5)">o</text><text xml:space="preserve" font-family="FiraMono-Regular,Fira Mono" font-size="33.0" fill="#FFFFFF" transform="matrix(1.00, 0.00, -0.00, -1.00, 354.8, 581.5)">n</text><text xml:space="preserve" font-family="FiraMono-Regular,Fira Mono" font-size="33.0" fill="#FFFFFF" transform="matrix(1.00, 0.00, -0.00, -1.00, 374.6, 581.5)">n</text><text xml:space="preserve" font-family="FiraMono-Regular,Fira Mono" font-size="33.0" fill="#FFFFFF" transform="matrix(1.00, 0.00, -0.00, -1.00, 394.4, 581.5)">e</text><text xml:space="preserve" font-family="FiraMono-Regular,Fira Mono" font-size="33.0" fill="#FFFFFF" transform="matrix(1.00, 0.00, -0.00, -1.00, 414.2, 581.5)">c</text><text xml:space="preserve" font-family="FiraMono-Regular,Fira Mono" font-size="33.0" fill="#FFFFFF" transform="matrix(1.00, 0.00, -0.00, -1.00, 434.0, 581.5)">t</text><text xml:space="preserve" font-family="FiraMono-Regular,Fira Mono" font-size="33.0" fill="#FFFFFF" transform="matrix(1.00, 0.00, -0.00, -1.00, 453.8, 581.5)">i</text><text xml:space="preserve" font-family="FiraMono-Regular,Fira Mono" font-size="33.0" fill="#FFFFFF" transform="matrix(1.00, 0.00, -0.00, -1.00, 473.6, 581.5)">o</text><text xml:space="preserve" font-family="FiraMono-Regular,Fira Mono" font-size="33.0" fill="#FFFFFF" transform="matrix(1.00, 0.00, -0.00, -1.00, 493.4, 581.5)">n</text><text xml:space="preserve" font-family="FiraMono-Regular,Fira Mono" font-size="33.0" fill="#FFFFFF" transform="matrix(1.00, 0.00, -0.00, -1.00, 513.2, 581.5)">.</text><text xml:space="preserve" font-family="FiraMono-Regular,Fira Mono" font-size="33.0" fill="#FFFFFF" transform="matrix(1.00, 0.00, -0.00, -1.00, 533.0, 581.5)">w</text><text xml:space="preserve" font-family="FiraMono-Regular,Fira Mono" font-size="33.0" fill="#FFFFFF" transform="matrix(1.00, 0.00, -0.00, -1.00, 552.8, 581.5)">i</text><text xml:space="preserve" font-family="FiraMono-Regular,Fira Mono" font-size="33.0" fill="#FFFFFF" transform="matrix(1.00, 0.00, -0.00, -1.00, 572.6, 581.5)">t</text><text xml:space="preserve" font-family="FiraMono-Regular,Fira Mono" font-size="33.0" fill="#FFFFFF" transform="matrix(1.00, 0.00, -0.00, -1.00, 592.4, 581.5)">h</text><text xml:space="preserve" font-family="FiraMono-Regular,Fira Mono" font-size="33.0" fill="#000000" transform="matrix(1.00, 0.00, -0.00, -1.00, 612.2, 581.5)"> </text><text xml:space="preserve" font-family="FiraMono-Regular,Fira Mono" font-size="33.0" fill="#FFFFFF" transform="matrix(1.00, 0.00, -0.00, -1.00, 632.0, 581.5)">{</text><text xml:space="preserve" font-family="FiraMono-Regular,Fira Mono" font-size="33.0" fill="#000000" transform="matrix(1.00, 0.00, -0.00, -1.00, 651.8, 581.5)"> </text><text xml:space="preserve" font-family="FiraMono-Regular,Fira Mono" font-size="33.0" fill="#FFFFFF" transform="matrix(1.00, 0.00, -0.00, -1.00, 671.6, 581.5)">c</text><text xml:space="preserve" font-family="FiraMono-Regular,Fira Mono" font-size="33.0" fill="#FFFFFF" transform="matrix(1.00, 0.00, -0.00, -1.00, 691.4, 581.5)">o</text><text xml:space="preserve" font-family="FiraMono-Regular,Fira Mono" font-size="33.0" fill="#FFFFFF" transform="matrix(1.00, 0.00, -0.00, -1.00, 711.2, 581.5)">n</text><text xml:space="preserve" font-family="FiraMono-Regular,Fira Mono" font-size="33.0" fill="#FFFFFF" transform="matrix(1.00, 0.00, -0.00, -1.00, 731.0, 581.5)">n</text><text xml:space="preserve" font-family="FiraMono-Regular,Fira Mono" font-size="33.0" fill="#FFFFFF" transform="matrix(1.00, 0.00, -0.00, -1.00, 750.8, 581.5)">e</text><text xml:space="preserve" font-family="FiraMono-Regular,Fira Mono" font-size="33.0" fill="#FFFFFF" transform="matrix(1.00, 0.00, -0.00, -1.00, 770.6, 581.5)">c</text><text xml:space="preserve" font-family="FiraMono-Regular,Fira Mono" font-size="33.0" fill="#FFFFFF" transform="matrix(1.00, 0.00, -0.00, -1.00, 790.4, 581.5)">t</text><text xml:space="preserve" font-family="FiraMono-Regular,Fira Mono" font-size="33.0" fill="#FFFFFF" transform="matrix(1.00, 0.00, -0.00, -1.00, 810.2, 581.5)">i</text><text xml:space="preserve" font-family="FiraMono-Regular,Fira Mono" font-size="33.0" fill="#FFFFFF" transform="matrix(1.00, 0.00, -0.00, -1.00, 830.0, 581.5)">o</text><text xml:space="preserve" font-family="FiraMono-Regular,Fira Mono" font-size="33.0" fill="#FFFFFF" transform="matrix(1.00, 0.00, -0.00, -1.00, 849.8, 581.5)">n</text><text xml:space="preserve" font-family="FiraMono-Regular,Fira Mono" font-size="33.0" fill="#000000" transform="matrix(1.00, 0.00, -0.00, -1.00, 869.6, 581.5)"> </text><text xml:space="preserve" font-family="FiraMono-Regular,Fira Mono" font-size="33.0" fill="#FFFFFF" transform="matrix(1.00, 0.00, -0.00, -1.00, 889.4, 581.5)">-</text><text xml:space="preserve" font-family="FiraMono-Regular,Fira Mono" font-size="33.0" fill="#FFFFFF" transform="matrix(1.00, 0.00, -0.00, -1.00, 909.2, 581.5)">&gt;</text><text xml:space="preserve" font-family="FiraMono-Regular,Fira Mono" font-size="33.0" fill="#000000" transform="matrix(1.00, 0.00, -0.00, -1.00, 929.0, 581.5)"> </text><text xml:space="preserve" font-family="FiraMono-Regular,Fira Mono" font-size="33.0" fill="#000000" transform="matrix(1.00, 0.00, -0.00, -1.00, 137.0, 529.5)"> </text><text xml:space="preserve" font-family="FiraMono-Regular,Fira Mono" font-size="33.0" fill="#000000" transform="matrix(1.00, 0.00, -0.00, -1.00, 156.8, 529.5)"> </text><text xml:space="preserve" font-family="FiraMono-Regular,Fira Mono" font-size="33.0" fill="#000000" transform="matrix(1.00, 0.00, -0.00, -1.00, 176.6, 529.5)"> </text><text xml:space="preserve" font-family="FiraMono-Regular,Fira Mono" font-size="33.0" fill="#000000" transform="matrix(1.00, 0.00, -0.00, -1.00, 196.4, 529.5)"> </text><text xml:space="preserve" font-family="FiraMono-Regular,Fira Mono" font-size="33.0" fill="#C07B1E" transform="matrix(1.00, 0.00, -0.00, -1.00, 216.2, 529.5)">d</text><text xml:space="preserve" font-family="FiraMono-Regular,Fira Mono" font-size="33.0" fill="#C07B1E" transform="matrix(1.00, 0.00, -0.00, -1.00, 236.0, 529.5)">e</text><text xml:space="preserve" font-family="FiraMono-Regular,Fira Mono" font-size="33.0" fill="#C07B1E" transform="matrix(1.00, 0.00, -0.00, -1.00, 255.8, 529.5)">f</text><text xml:space="preserve" font-family="FiraMono-Regular,Fira Mono" font-size="33.0" fill="#000000" transform="matrix(1.00, 0.00, -0.00, -1.00, 275.6, 529.5)"> </text><text xml:space="preserve" font-family="FiraMono-Regular,Fira Mono" font-size="33.0" fill="#FFFFFF" transform="matrix(1.00, 0.00, -0.00, -1.00, 295.4, 529.5)">r</text><text xml:space="preserve" font-family="FiraMono-Regular,Fira Mono" font-size="33.0" fill="#FFFFFF" transform="matrix(1.00, 0.00, -0.00, -1.00, 315.2, 529.5)">s</text><text xml:space="preserve" font-family="FiraMono-Regular,Fira Mono" font-size="33.0" fill="#000000" transform="matrix(1.00, 0.00, -0.00, -1.00, 335.0, 529.5)"> </text><text xml:space="preserve" font-family="FiraMono-Regular,Fira Mono" font-size="33.0" fill="#FFFFFF" transform="matrix(1.00, 0.00, -0.00, -1.00, 354.8, 529.5)">=</text><text xml:space="preserve" font-family="FiraMono-Regular,Fira Mono" font-size="33.0" fill="#000000" transform="matrix(1.00, 0.00, -0.00, -1.00, 374.6, 529.5)"> </text><text xml:space="preserve" font-family="FiraMono-Regular,Fira Mono" font-size="33.0" fill="#FFFFFF" transform="matrix(1.00, 0.00, -0.00, -1.00, 394.4, 529.5)">c</text><text xml:space="preserve" font-family="FiraMono-Regular,Fira Mono" font-size="33.0" fill="#FFFFFF" transform="matrix(1.00, 0.00, -0.00, -1.00, 414.2, 529.5)">o</text><text xml:space="preserve" font-family="FiraMono-Regular,Fira Mono" font-size="33.0" fill="#FFFFFF" transform="matrix(1.00, 0.00, -0.00, -1.00, 434.0, 529.5)">n</text><text xml:space="preserve" font-family="FiraMono-Regular,Fira Mono" font-size="33.0" fill="#FFFFFF" transform="matrix(1.00, 0.00, -0.00, -1.00, 453.8, 529.5)">n</text><text xml:space="preserve" font-family="FiraMono-Regular,Fira Mono" font-size="33.0" fill="#FFFFFF" transform="matrix(1.00, 0.00, -0.00, -1.00, 473.6, 529.5)">e</text><text xml:space="preserve" font-family="FiraMono-Regular,Fira Mono" font-size="33.0" fill="#FFFFFF" transform="matrix(1.00, 0.00, -0.00, -1.00, 493.4, 529.5)">c</text><text xml:space="preserve" font-family="FiraMono-Regular,Fira Mono" font-size="33.0" fill="#FFFFFF" transform="matrix(1.00, 0.00, -0.00, -1.00, 513.2, 529.5)">t</text><text xml:space="preserve" font-family="FiraMono-Regular,Fira Mono" font-size="33.0" fill="#FFFFFF" transform="matrix(1.00, 0.00, -0.00, -1.00, 533.0, 529.5)">i</text><text xml:space="preserve" font-family="FiraMono-Regular,Fira Mono" font-size="33.0" fill="#FFFFFF" transform="matrix(1.00, 0.00, -0.00, -1.00, 552.8, 529.5)">o</text><text xml:space="preserve" font-family="FiraMono-Regular,Fira Mono" font-size="33.0" fill="#FFFFFF" transform="matrix(1.00, 0.00, -0.00, -1.00, 572.6, 529.5)">n</text><text xml:space="preserve" font-family="FiraMono-Regular,Fira Mono" font-size="33.0" fill="#FFFFFF" transform="matrix(1.00, 0.00, -0.00, -1.00, 592.4, 529.5)">.</text><text xml:space="preserve" font-family="FiraMono-Regular,Fira Mono" font-size="33.0" fill="#FFFFFF" transform="matrix(1.00, 0.00, -0.00, -1.00, 612.2, 529.5)">m</text><text xml:space="preserve" font-family="FiraMono-Regular,Fira Mono" font-size="33.0" fill="#FFFFFF" transform="matrix(1.00, 0.00, -0.00, -1.00, 632.0, 529.5)">e</text><text xml:space="preserve" font-family="FiraMono-Regular,Fira Mono" font-size="33.0" fill="#FFFFFF" transform="matrix(1.00, 0.00, -0.00, -1.00, 651.8, 529.5)">t</text><text xml:space="preserve" font-family="FiraMono-Regular,Fira Mono" font-size="33.0" fill="#FFFFFF" transform="matrix(1.00, 0.00, -0.00, -1.00, 671.6, 529.5)">a</text><text xml:space="preserve" font-family="FiraMono-Regular,Fira Mono" font-size="33.0" fill="#FFFFFF" transform="matrix(1.00, 0.00, -0.00, -1.00, 691.4, 529.5)">D</text><text xml:space="preserve" font-family="FiraMono-Regular,Fira Mono" font-size="33.0" fill="#FFFFFF" transform="matrix(1.00, 0.00, -0.00, -1.00, 711.2, 529.5)">a</text><text xml:space="preserve" font-family="FiraMono-Regular,Fira Mono" font-size="33.0" fill="#FFFFFF" transform="matrix(1.00, 0.00, -0.00, -1.00, 731.0, 529.5)">t</text><text xml:space="preserve" font-family="FiraMono-Regular,Fira Mono" font-size="33.0" fill="#FFFFFF" transform="matrix(1.00, 0.00, -0.00, -1.00, 750.8, 529.5)">a</text><text xml:space="preserve" font-family="FiraMono-Regular,Fira Mono" font-size="33.0" fill="#FFFFFF" transform="matrix(1.00, 0.00, -0.00, -1.00, 770.6, 529.5)">.</text><text xml:space="preserve" font-family="FiraMono-Regular,Fira Mono" font-size="33.0" fill="#FFFFFF" transform="matrix(1.00, 0.00, -0.00, -1.00, 790.4, 529.5)">g</text><text xml:space="preserve" font-family="FiraMono-Regular,Fira Mono" font-size="33.0" fill="#FFFFFF" transform="matrix(1.00, 0.00, -0.00, -1.00, 810.2, 529.5)">e</text><text xml:space="preserve" font-family="FiraMono-Regular,Fira Mono" font-size="33.0" fill="#FFFFFF" transform="matrix(1.00, 0.00, -0.00, -1.00, 830.0, 529.5)">t</text><text xml:space="preserve" font-family="FiraMono-Regular,Fira Mono" font-size="33.0" fill="#FFFFFF" transform="matrix(1.00, 0.00, -0.00, -1.00, 849.8, 529.5)">T</text><text xml:space="preserve" font-family="FiraMono-Regular,Fira Mono" font-size="33.0" fill="#FFFFFF" transform="matrix(1.00, 0.00, -0.00, -1.00, 869.6, 529.5)">a</text><text xml:space="preserve" font-family="FiraMono-Regular,Fira Mono" font-size="33.0" fill="#FFFFFF" transform="matrix(1.00, 0.00, -0.00, -1.00, 889.4, 529.5)">b</text><text xml:space="preserve" font-family="FiraMono-Regular,Fira Mono" font-size="33.0" fill="#FFFFFF" transform="matrix(1.00, 0.00, -0.00, -1.00, 909.2, 529.5)">l</text><text xml:space="preserve" font-family="FiraMono-Regular,Fira Mono" font-size="33.0" fill="#FFFFFF" transform="matrix(1.00, 0.00, -0.00, -1.00, 929.0, 529.5)">e</text><text xml:space="preserve" font-family="FiraMono-Regular,Fira Mono" font-size="33.0" fill="#FFFFFF" transform="matrix(1.00, 0.00, -0.00, -1.00, 948.8, 529.5)">s</text><text xml:space="preserve" font-family="FiraMono-Regular,Fira Mono" font-size="33.0" fill="#FFFFFF" transform="matrix(1.00, 0.00, -0.00, -1.00, 968.6, 529.5)">(</text><text xml:space="preserve" font-family="FiraMono-Regular,Fira Mono" font-size="33.0" fill="#FFFFFF" transform="matrix(1.00, 0.00, -0.00, -1.00, 988.4, 529.5)">n</text><text xml:space="preserve" font-family="FiraMono-Regular,Fira Mono" font-size="33.0" fill="#FFFFFF" transform="matrix(1.00, 0.00, -0.00, -1.00, 1008.2, 529.5)">u</text><text xml:space="preserve" font-family="FiraMono-Regular,Fira Mono" font-size="33.0" fill="#FFFFFF" transform="matrix(1.00, 0.00, -0.00, -1.00, 1028.0, 529.5)">l</text><text xml:space="preserve" font-family="FiraMono-Regular,Fira Mono" font-size="33.0" fill="#FFFFFF" transform="matrix(1.00, 0.00, -0.00, -1.00, 1047.8, 529.5)">l</text><text xml:space="preserve" font-family="FiraMono-Regular,Fira Mono" font-size="33.0" fill="#FFFFFF" transform="matrix(1.00, 0.00, -0.00, -1.00, 1067.6, 529.5)">,</text><text xml:space="preserve" font-family="FiraMono-Regular,Fira Mono" font-size="33.0" fill="#000000" transform="matrix(1.00, 0.00, -0.00, -1.00, 1087.4, 529.5)"> </text><text xml:space="preserve" font-family="FiraMono-Regular,Fira Mono" font-size="33.0" fill="#FFFFFF" transform="matrix(1.00, 0.00, -0.00, -1.00, 1107.2, 529.5)">n</text><text xml:space="preserve" font-family="FiraMono-Regular,Fira Mono" font-size="33.0" fill="#FFFFFF" transform="matrix(1.00, 0.00, -0.00, -1.00, 1127.0, 529.5)">u</text><text xml:space="preserve" font-family="FiraMono-Regular,Fira Mono" font-size="33.0" fill="#FFFFFF" transform="matrix(1.00, 0.00, -0.00, -1.00, 1146.8, 529.5)">l</text><text xml:space="preserve" font-family="FiraMono-Regular,Fira Mono" font-size="33.0" fill="#FFFFFF" transform="matrix(1.00, 0.00, -0.00, -1.00, 1166.6, 529.5)">l</text><text xml:space="preserve" font-family="FiraMono-Regular,Fira Mono" font-size="33.0" fill="#FFFFFF" transform="matrix(1.00, 0.00, -0.00, -1.00, 1186.4, 529.5)">,</text><text xml:space="preserve" font-family="FiraMono-Regular,Fira Mono" font-size="33.0" fill="#000000" transform="matrix(1.00, 0.00, -0.00, -1.00, 1206.2, 529.5)"> </text><text xml:space="preserve" font-family="FiraMono-Regular,Fira Mono" font-size="33.0" fill="#FF2600" transform="matrix(1.00, 0.00, -0.00, -1.00, 1226.0, 529.5)">"</text><text xml:space="preserve" font-family="FiraMono-Regular,Fira Mono" font-size="33.0" fill="#FF2600" transform="matrix(1.00, 0.00, -0.00, -1.00, 1245.8, 529.5)">%</text><text xml:space="preserve" font-family="FiraMono-Regular,Fira Mono" font-size="33.0" fill="#FF2600" transform="matrix(1.00, 0.00, -0.00, -1.00, 1265.6, 529.5)">"</text><text xml:space="preserve" font-family="FiraMono-Regular,Fira Mono" font-size="33.0" fill="#FFFFFF" transform="matrix(1.00, 0.00, -0.00, -1.00, 1285.4, 529.5)">,</text><text xml:space="preserve" font-family="FiraMono-Regular,Fira Mono" font-size="33.0" fill="#FFFFFF" transform="matrix(1.00, 0.00, -0.00, -1.00, 1305.2, 529.5)"> </text><text xml:space="preserve" font-family="FiraMono-Regular,Fira Mono" font-size="33.0" fill="#FFFFFF" transform="matrix(1.00, 0.00, -0.00, -1.00, 1325.0, 529.5)">[</text><text xml:space="preserve" font-family="FiraMono-Regular,Fira Mono" font-size="33.0" fill="#FF2600" transform="matrix(1.00, 0.00, -0.00, -1.00, 1344.8, 529.5)">"</text><text xml:space="preserve" font-family="FiraMono-Regular,Fira Mono" font-size="33.0" fill="#FF2600" transform="matrix(1.00, 0.00, -0.00, -1.00, 1364.6, 529.5)">T</text><text xml:space="preserve" font-family="FiraMono-Regular,Fira Mono" font-size="33.0" fill="#FF2600" transform="matrix(1.00, 0.00, -0.00, -1.00, 1384.4, 529.5)">A</text><text xml:space="preserve" font-family="FiraMono-Regular,Fira Mono" font-size="33.0" fill="#FF2600" transform="matrix(1.00, 0.00, -0.00, -1.00, 1404.2, 529.5)">B</text><text xml:space="preserve" font-family="FiraMono-Regular,Fira Mono" font-size="33.0" fill="#FF2600" transform="matrix(1.00, 0.00, -0.00, -1.00, 1424.0, 529.5)">L</text><text xml:space="preserve" font-family="FiraMono-Regular,Fira Mono" font-size="33.0" fill="#FF2600" transform="matrix(1.00, 0.00, -0.00, -1.00, 1443.8, 529.5)">E</text><text xml:space="preserve" font-family="FiraMono-Regular,Fira Mono" font-size="33.0" fill="#FF2600" transform="matrix(1.00, 0.00, -0.00, -1.00, 1463.6, 529.5)">"</text><text xml:space="preserve" font-family="FiraMono-Regular,Fira Mono" font-size="33.0" fill="#FFFFFF" transform="matrix(1.00, 0.00, -0.00, -1.00, 1483.4, 529.5)">]</text><text xml:space="preserve" font-family="FiraMono-Regular,Fira Mono" font-size="33.0" fill="#000000" transform="matrix(1.00, 0.00, -0.00, -1.00, 1503.2, 529.5)"> </text><text xml:space="preserve" font-family="FiraMono-Regular,Fira Mono" font-size="33.0" fill="#C07B1E" transform="matrix(1.00, 0.00, -0.00, -1.00, 1523.0, 529.5)">a</text><text xml:space="preserve" font-family="FiraMono-Regular,Fira Mono" font-size="33.0" fill="#C07B1E" transform="matrix(1.00, 0.00, -0.00, -1.00, 1542.8, 529.5)">s</text><text xml:space="preserve" font-family="FiraMono-Regular,Fira Mono" font-size="33.0" fill="#000000" transform="matrix(1.00, 0.00, -0.00, -1.00, 1562.6, 529.5)"> </text><text xml:space="preserve" font-family="FiraMono-Regular,Fira Mono" font-size="33.0" fill="#FFFFFF" transform="matrix(1.00, 0.00, -0.00, -1.00, 1582.4, 529.5)">S</text><text xml:space="preserve" font-family="FiraMono-Regular,Fira Mono" font-size="33.0" fill="#FFFFFF" transform="matrix(1.00, 0.00, -0.00, -1.00, 1602.2, 529.5)">t</text><text xml:space="preserve" font-family="FiraMono-Regular,Fira Mono" font-size="33.0" fill="#FFFFFF" transform="matrix(1.00, 0.00, -0.00, -1.00, 1622.0, 529.5)">r</text><text xml:space="preserve" font-family="FiraMono-Regular,Fira Mono" font-size="33.0" fill="#FFFFFF" transform="matrix(1.00, 0.00, -0.00, -1.00, 1641.8, 529.5)">i</text><text xml:space="preserve" font-family="FiraMono-Regular,Fira Mono" font-size="33.0" fill="#FFFFFF" transform="matrix(1.00, 0.00, -0.00, -1.00, 1661.6, 529.5)">n</text><text xml:space="preserve" font-family="FiraMono-Regular,Fira Mono" font-size="33.0" fill="#FFFFFF" transform="matrix(1.00, 0.00, -0.00, -1.00, 1681.4, 529.5)">g</text><text xml:space="preserve" font-family="FiraMono-Regular,Fira Mono" font-size="33.0" fill="#FFFFFF" transform="matrix(1.00, 0.00, -0.00, -1.00, 1701.2, 529.5)">[</text><text xml:space="preserve" font-family="FiraMono-Regular,Fira Mono" font-size="33.0" fill="#FFFFFF" transform="matrix(1.00, 0.00, -0.00, -1.00, 1721.0, 529.5)">]</text><text xml:space="preserve" font-family="FiraMono-Regular,Fira Mono" font-size="33.0" fill="#FFFFFF" transform="matrix(1.00, 0.00, -0.00, -1.00, 1740.8, 529.5)">)</text><text xml:space="preserve" font-family="FiraMono-Regular,Fira Mono" font-size="33.0" fill="#000000" transform="matrix(1.00, 0.00, -0.00, -1.00, 1760.6, 529.5)"> </text><text xml:space="preserve" font-family="FiraMono-Regular,Fira Mono" font-size="33.0" fill="#000000" transform="matrix(1.00, 0.00, -0.00, -1.00, 137.0, 477.5)"> </text><text xml:space="preserve" font-family="FiraMono-Regular,Fira Mono" font-size="33.0" fill="#000000" transform="matrix(1.00, 0.00, -0.00, -1.00, 156.8, 477.5)"> </text><text xml:space="preserve" font-family="FiraMono-Regular,Fira Mono" font-size="33.0" fill="#000000" transform="matrix(1.00, 0.00, -0.00, -1.00, 176.6, 477.5)"> </text><text xml:space="preserve" font-family="FiraMono-Regular,Fira Mono" font-size="33.0" fill="#000000" transform="matrix(1.00, 0.00, -0.00, -1.00, 196.4, 477.5)"> </text><text xml:space="preserve" font-family="FiraMono-Regular,Fira Mono" font-size="33.0" fill="#C07B1E" transform="matrix(1.00, 0.00, -0.00, -1.00, 216.2, 477.5)">w</text><text xml:space="preserve" font-family="FiraMono-Regular,Fira Mono" font-size="33.0" fill="#C07B1E" transform="matrix(1.00, 0.00, -0.00, -1.00, 236.0, 477.5)">h</text><text xml:space="preserve" font-family="FiraMono-Regular,Fira Mono" font-size="33.0" fill="#C07B1E" transform="matrix(1.00, 0.00, -0.00, -1.00, 255.8, 477.5)">i</text><text xml:space="preserve" font-family="FiraMono-Regular,Fira Mono" font-size="33.0" fill="#C07B1E" transform="matrix(1.00, 0.00, -0.00, -1.00, 275.6, 477.5)">l</text><text xml:space="preserve" font-family="FiraMono-Regular,Fira Mono" font-size="33.0" fill="#C07B1E" transform="matrix(1.00, 0.00, -0.00, -1.00, 295.4, 477.5)">e</text><text xml:space="preserve" font-family="FiraMono-Regular,Fira Mono" font-size="33.0" fill="#000000" transform="matrix(1.00, 0.00, -0.00, -1.00, 315.2, 477.5)"> </text><text xml:space="preserve" font-family="FiraMono-Regular,Fira Mono" font-size="33.0" fill="#FFFFFF" transform="matrix(1.00, 0.00, -0.00, -1.00, 335.0, 477.5)">(</text><text xml:space="preserve" font-family="FiraMono-Regular,Fira Mono" font-size="33.0" fill="#FFFFFF" transform="matrix(1.00, 0.00, -0.00, -1.00, 354.8, 477.5)">r</text><text xml:space="preserve" font-family="FiraMono-Regular,Fira Mono" font-size="33.0" fill="#FFFFFF" transform="matrix(1.00, 0.00, -0.00, -1.00, 374.6, 477.5)">s</text><text xml:space="preserve" font-family="FiraMono-Regular,Fira Mono" font-size="33.0" fill="#FFFFFF" transform="matrix(1.00, 0.00, -0.00, -1.00, 394.4, 477.5)">.</text><text xml:space="preserve" font-family="FiraMono-Regular,Fira Mono" font-size="33.0" fill="#FFFFFF" transform="matrix(1.00, 0.00, -0.00, -1.00, 414.2, 477.5)">n</text><text xml:space="preserve" font-family="FiraMono-Regular,Fira Mono" font-size="33.0" fill="#FFFFFF" transform="matrix(1.00, 0.00, -0.00, -1.00, 434.0, 477.5)">e</text><text xml:space="preserve" font-family="FiraMono-Regular,Fira Mono" font-size="33.0" fill="#FFFFFF" transform="matrix(1.00, 0.00, -0.00, -1.00, 453.8, 477.5)">x</text><text xml:space="preserve" font-family="FiraMono-Regular,Fira Mono" font-size="33.0" fill="#FFFFFF" transform="matrix(1.00, 0.00, -0.00, -1.00, 473.6, 477.5)">t</text><text xml:space="preserve" font-family="FiraMono-Regular,Fira Mono" font-size="33.0" fill="#FFFFFF" transform="matrix(1.00, 0.00, -0.00, -1.00, 493.4, 477.5)">(</text><text xml:space="preserve" font-family="FiraMono-Regular,Fira Mono" font-size="33.0" fill="#FFFFFF" transform="matrix(1.00, 0.00, -0.00, -1.00, 513.2, 477.5)">)</text><text xml:space="preserve" font-family="FiraMono-Regular,Fira Mono" font-size="33.0" fill="#FFFFFF" transform="matrix(1.00, 0.00, -0.00, -1.00, 533.0, 477.5)">)</text><text xml:space="preserve" font-family="FiraMono-Regular,Fira Mono" font-size="33.0" fill="#FFFFFF" transform="matrix(1.00, 0.00, -0.00, -1.00, 552.8, 477.5)"> </text><text xml:space="preserve" font-family="FiraMono-Regular,Fira Mono" font-size="33.0" fill="#FFFFFF" transform="matrix(1.00, 0.00, -0.00, -1.00, 572.6, 477.5)">{</text><text xml:space="preserve" font-family="FiraMono-Regular,Fira Mono" font-size="33.0" fill="#000000" transform="matrix(1.00, 0.00, -0.00, -1.00, 592.4, 477.5)"> </text><text xml:space="preserve" font-family="FiraMono-Regular,Fira Mono" font-size="33.0" fill="#FFFFFF" transform="matrix(1.00, 0.00, -0.00, -1.00, 137.0, 425.5)"> </text><text xml:space="preserve" font-family="FiraMono-Regular,Fira Mono" font-size="33.0" fill="#FFFFFF" transform="matrix(1.00, 0.00, -0.00, -1.00, 156.8, 425.5)"> </text><text xml:space="preserve" font-family="FiraMono-Regular,Fira Mono" font-size="33.0" fill="#FFFFFF" transform="matrix(1.00, 0.00, -0.00, -1.00, 176.6, 425.5)"> </text><text xml:space="preserve" font-family="FiraMono-Regular,Fira Mono" font-size="33.0" fill="#FFFFFF" transform="matrix(1.00, 0.00, -0.00, -1.00, 196.4, 425.5)"> </text><text xml:space="preserve" font-family="FiraMono-Regular,Fira Mono" font-size="33.0" fill="#FFFFFF" transform="matrix(1.00, 0.00, -0.00, -1.00, 216.2, 425.5)"> </text><text xml:space="preserve" font-family="FiraMono-Regular,Fira Mono" font-size="33.0" fill="#FFFFFF" transform="matrix(1.00, 0.00, -0.00, -1.00, 236.0, 425.5)"> </text><text xml:space="preserve" font-family="FiraMono-Regular,Fira Mono" font-size="33.0" fill="#FFFFFF" transform="matrix(1.00, 0.00, -0.00, -1.00, 255.8, 425.5)">t</text><text xml:space="preserve" font-family="FiraMono-Regular,Fira Mono" font-size="33.0" fill="#FFFFFF" transform="matrix(1.00, 0.00, -0.00, -1.00, 275.6, 425.5)">a</text><text xml:space="preserve" font-family="FiraMono-Regular,Fira Mono" font-size="33.0" fill="#FFFFFF" transform="matrix(1.00, 0.00, -0.00, -1.00, 295.4, 425.5)">b</text><text xml:space="preserve" font-family="FiraMono-Regular,Fira Mono" font-size="33.0" fill="#FFFFFF" transform="matrix(1.00, 0.00, -0.00, -1.00, 315.2, 425.5)">l</text><text xml:space="preserve" font-family="FiraMono-Regular,Fira Mono" font-size="33.0" fill="#FFFFFF" transform="matrix(1.00, 0.00, -0.00, -1.00, 335.0, 425.5)">e</text><text xml:space="preserve" font-family="FiraMono-Regular,Fira Mono" font-size="33.0" fill="#FFFFFF" transform="matrix(1.00, 0.00, -0.00, -1.00, 354.8, 425.5)">N</text><text xml:space="preserve" font-family="FiraMono-Regular,Fira Mono" font-size="33.0" fill="#FFFFFF" transform="matrix(1.00, 0.00, -0.00, -1.00, 374.6, 425.5)">a</text><text xml:space="preserve" font-family="FiraMono-Regular,Fira Mono" font-size="33.0" fill="#FFFFFF" transform="matrix(1.00, 0.00, -0.00, -1.00, 394.4, 425.5)">m</text><text xml:space="preserve" font-family="FiraMono-Regular,Fira Mono" font-size="33.0" fill="#FFFFFF" transform="matrix(1.00, 0.00, -0.00, -1.00, 414.2, 425.5)">e</text><text xml:space="preserve" font-family="FiraMono-Regular,Fira Mono" font-size="33.0" fill="#FFFFFF" transform="matrix(1.00, 0.00, -0.00, -1.00, 434.0, 425.5)">s</text><text xml:space="preserve" font-family="FiraMono-Regular,Fira Mono" font-size="33.0" fill="#000000" transform="matrix(1.00, 0.00, -0.00, -1.00, 453.8, 425.5)"> </text><text xml:space="preserve" font-family="FiraMono-Regular,Fira Mono" font-size="33.0" fill="#FFFFFF" transform="matrix(1.00, 0.00, -0.00, -1.00, 473.6, 425.5)">&lt;</text><text xml:space="preserve" font-family="FiraMono-Regular,Fira Mono" font-size="33.0" fill="#FFFFFF" transform="matrix(1.00, 0.00, -0.00, -1.00, 493.4, 425.5)">&lt;</text><text xml:space="preserve" font-family="FiraMono-Regular,Fira Mono" font-size="33.0" fill="#000000" transform="matrix(1.00, 0.00, -0.00, -1.00, 513.2, 425.5)"> </text><text xml:space="preserve" font-family="FiraMono-Regular,Fira Mono" font-size="33.0" fill="#FFFFFF" transform="matrix(1.00, 0.00, -0.00, -1.00, 533.0, 425.5)">r</text><text xml:space="preserve" font-family="FiraMono-Regular,Fira Mono" font-size="33.0" fill="#FFFFFF" transform="matrix(1.00, 0.00, -0.00, -1.00, 552.8, 425.5)">s</text><text xml:space="preserve" font-family="FiraMono-Regular,Fira Mono" font-size="33.0" fill="#FFFFFF" transform="matrix(1.00, 0.00, -0.00, -1.00, 572.6, 425.5)">.</text><text xml:space="preserve" font-family="FiraMono-Regular,Fira Mono" font-size="33.0" fill="#FFFFFF" transform="matrix(1.00, 0.00, -0.00, -1.00, 592.4, 425.5)">g</text><text xml:space="preserve" font-family="FiraMono-Regular,Fira Mono" font-size="33.0" fill="#FFFFFF" transform="matrix(1.00, 0.00, -0.00, -1.00, 612.2, 425.5)">e</text><text xml:space="preserve" font-family="FiraMono-Regular,Fira Mono" font-size="33.0" fill="#FFFFFF" transform="matrix(1.00, 0.00, -0.00, -1.00, 632.0, 425.5)">t</text><text xml:space="preserve" font-family="FiraMono-Regular,Fira Mono" font-size="33.0" fill="#FFFFFF" transform="matrix(1.00, 0.00, -0.00, -1.00, 651.8, 425.5)">S</text><text xml:space="preserve" font-family="FiraMono-Regular,Fira Mono" font-size="33.0" fill="#FFFFFF" transform="matrix(1.00, 0.00, -0.00, -1.00, 671.6, 425.5)">t</text><text xml:space="preserve" font-family="FiraMono-Regular,Fira Mono" font-size="33.0" fill="#FFFFFF" transform="matrix(1.00, 0.00, -0.00, -1.00, 691.4, 425.5)">r</text><text xml:space="preserve" font-family="FiraMono-Regular,Fira Mono" font-size="33.0" fill="#FFFFFF" transform="matrix(1.00, 0.00, -0.00, -1.00, 711.2, 425.5)">i</text><text xml:space="preserve" font-family="FiraMono-Regular,Fira Mono" font-size="33.0" fill="#FFFFFF" transform="matrix(1.00, 0.00, -0.00, -1.00, 731.0, 425.5)">n</text><text xml:space="preserve" font-family="FiraMono-Regular,Fira Mono" font-size="33.0" fill="#FFFFFF" transform="matrix(1.00, 0.00, -0.00, -1.00, 750.8, 425.5)">g</text><text xml:space="preserve" font-family="FiraMono-Regular,Fira Mono" font-size="33.0" fill="#FFFFFF" transform="matrix(1.00, 0.00, -0.00, -1.00, 770.6, 425.5)">(</text><text xml:space="preserve" font-family="FiraMono-Regular,Fira Mono" font-size="33.0" fill="#FF2600" transform="matrix(1.00, 0.00, -0.00, -1.00, 790.4, 425.5)">3</text><text xml:space="preserve" font-family="FiraMono-Regular,Fira Mono" font-size="33.0" fill="#FFFFFF" transform="matrix(1.00, 0.00, -0.00, -1.00, 810.2, 425.5)">)</text><text xml:space="preserve" font-family="FiraMono-Regular,Fira Mono" font-size="33.0" fill="#000000" transform="matrix(1.00, 0.00, -0.00, -1.00, 830.0, 425.5)"> </text><text xml:space="preserve" font-family="FiraMono-Regular,Fira Mono" font-size="33.0" fill="#000000" transform="matrix(1.00, 0.00, -0.00, -1.00, 137.0, 373.5)"> </text><text xml:space="preserve" font-family="FiraMono-Regular,Fira Mono" font-size="33.0" fill="#000000" transform="matrix(1.00, 0.00, -0.00, -1.00, 156.8, 373.5)"> </text><text xml:space="preserve" font-family="FiraMono-Regular,Fira Mono" font-size="33.0" fill="#000000" transform="matrix(1.00, 0.00, -0.00, -1.00, 176.6, 373.5)"> </text><text xml:space="preserve" font-family="FiraMono-Regular,Fira Mono" font-size="33.0" fill="#000000" transform="matrix(1.00, 0.00, -0.00, -1.00, 196.4, 373.5)"> </text><text xml:space="preserve" font-family="FiraMono-Regular,Fira Mono" font-size="33.0" fill="#FFFFFF" transform="matrix(1.00, 0.00, -0.00, -1.00, 216.2, 373.5)">}</text><text xml:space="preserve" font-family="FiraMono-Regular,Fira Mono" font-size="33.0" fill="#000000" transform="matrix(1.00, 0.00, -0.00, -1.00, 236.0, 373.5)"> </text><text xml:space="preserve" font-family="FiraMono-Regular,Fira Mono" font-size="33.0" fill="#000000" transform="matrix(1.00, 0.00, -0.00, -1.00, 137.0, 321.5)"> </text><text xml:space="preserve" font-family="FiraMono-Regular,Fira Mono" font-size="33.0" fill="#000000" transform="matrix(1.00, 0.00, -0.00, -1.00, 156.8, 321.5)"> </text><text xml:space="preserve" font-family="FiraMono-Regular,Fira Mono" font-size="33.0" fill="#FFFFFF" transform="matrix(1.00, 0.00, -0.00, -1.00, 176.6, 321.5)">}</text><text xml:space="preserve" font-family="FiraMono-Regular,Fira Mono" font-size="33.0" fill="#000000" transform="matrix(1.00, 0.00, -0.00, -1.00, 196.4, 321.5)"> </text><text xml:space="preserve" font-family="FiraMono-Regular,Fira Mono" font-size="33.0" fill="#FFFFFF" transform="matrix(1.00, 0.00, -0.00, -1.00, 137.0, 269.5)">}</text></g></svg>